<svg xmlns="http://www.w3.org/2000/svg" viewBox="0 0 120 27.524"><defs><style>.a{fill:#3d3d3d;}.b{fill:#00ba4a;}.c{fill:#ffc859;}.d{fill:#9e83f0;}.e{fill:#24acff;}.f{fill:#ff5825;}.g{fill:#ff974e;}</style></defs><path class="a" d="M63.1,26.768a2.961,2.961,0,0,1-1.065,2.343,4.073,4.073,0,0,1-2.715.905,7.1,7.1,0,0,1-2.289-.373,6.405,6.405,0,0,1-2.13-1.171l1.224-1.7a5.221,5.221,0,0,0,3.3,1.171,1.351,1.351,0,0,0,.852-.213.648.648,0,0,0,.319-.532.912.912,0,0,0-.426-.639,3.8,3.8,0,0,0-1.224-.532c-.532-.16-.958-.319-1.224-.426a5.945,5.945,0,0,1-.958-.532,2.321,2.321,0,0,1-1.118-2.076,2.725,2.725,0,0,1,1.118-2.236,4.449,4.449,0,0,1,2.822-.852,5.887,5.887,0,0,1,3.461,1.171l-1.171,1.757a4.529,4.529,0,0,0-2.555-.905c-.852,0-1.278.213-1.278.692a.623.623,0,0,0,.426.586,7.435,7.435,0,0,0,1.331.532c.639.213,1.065.319,1.331.426a7.964,7.964,0,0,1,.958.479A2.382,2.382,0,0,1,63.1,26.768Z" transform="translate(-25.672 -9.306)"/><path class="a" d="M72.9,20h2.768v9.849H72.9Z" transform="translate(-34.089 -9.352)"/><path class="a" d="M84.115,24.225V29.6a.115.115,0,0,1-.106.106H81.4V19.86h2.768v1.118A3.859,3.859,0,0,1,86.99,19.7,3.383,3.383,0,0,1,89.6,20.818a4.117,4.117,0,0,1,1.065,2.928v6.016H87.9v-5.59c0-1.491-.532-2.289-1.65-2.289a2.156,2.156,0,0,0-1.437.586A2.213,2.213,0,0,0,84.115,24.225Z" transform="translate(-38.064 -9.212)"/><path class="a" d="M105.725,26.736a4.187,4.187,0,0,1-3.141-1.491,5.338,5.338,0,0,1-1.384-3.673,5.074,5.074,0,0,1,1.331-3.62,4.092,4.092,0,0,1,3.141-1.384,3.755,3.755,0,0,1,2.928,1.278V13h2.768V26.576H108.6V25.3A3.483,3.483,0,0,1,105.725,26.736Zm-1.7-5.058a2.788,2.788,0,0,0,.692,1.97,2.141,2.141,0,0,0,3.248,0,3.053,3.053,0,0,0,.692-1.97,2.923,2.923,0,0,0-.692-2.023,2.1,2.1,0,0,0-3.3,0A3.276,3.276,0,0,0,104.022,21.678Z" transform="translate(-47.322 -6.079)"/><path class="a" d="M136.871,27.473a3.11,3.11,0,0,0,2.449-1.384l1.65,1.81a5.647,5.647,0,0,1-4.1,1.97,5.471,5.471,0,0,1-3.727-1.384,5.142,5.142,0,0,1,0-7.347,5.147,5.147,0,0,1,3.673-1.437,5.765,5.765,0,0,1,4.046,1.7l-1.437,1.863a3.391,3.391,0,0,0-2.555-1.224,2.614,2.614,0,0,0-1.863.692,2.491,2.491,0,0,0-.8,1.97,2.491,2.491,0,0,0,.8,1.97A2.583,2.583,0,0,0,136.871,27.473Z" transform="translate(-61.538 -9.212)"/><path class="a" d="M161.135,24.711a4.861,4.861,0,0,1-1.491,3.62,5.229,5.229,0,0,1-3.727,1.491,5.016,5.016,0,0,1-3.727-1.491,4.78,4.78,0,0,1-1.491-3.62,4.78,4.78,0,0,1,1.491-3.62,5.229,5.229,0,0,1,3.727-1.491,5.016,5.016,0,0,1,3.727,1.491A5.07,5.07,0,0,1,161.135,24.711Zm-7.666,0a2.788,2.788,0,0,0,.692,1.97,2.225,2.225,0,0,0,1.757.745,2.414,2.414,0,0,0,1.757-.745,2.788,2.788,0,0,0,.692-1.97,2.7,2.7,0,0,0-.692-1.97A2.225,2.225,0,0,0,155.917,22a2.414,2.414,0,0,0-1.757.745A2.788,2.788,0,0,0,153.468,24.711Z" transform="translate(-70.469 -9.165)"/><path class="a" d="M175.676,24.585v5.271H173.6V20.113h2.076V21.87a3.783,3.783,0,0,1,3.248-1.97,3.531,3.531,0,0,1,2.662,1.012A3.921,3.921,0,0,1,182.6,23.84V29.8h-2.076V24.479q0-2.715-2.236-2.715a2.7,2.7,0,0,0-1.863.692A3.046,3.046,0,0,0,175.676,24.585Z" transform="translate(-81.178 -9.306)"/><path class="a" d="M202.943,25.863h-7.666a2.253,2.253,0,0,0,.958,1.7,3.435,3.435,0,0,0,2.076.639,3.3,3.3,0,0,0,2.768-1.171l1.171,1.278a5.533,5.533,0,0,1-4.1,1.65,4.949,4.949,0,0,1-3.514-1.384A4.811,4.811,0,0,1,193.2,24.9a4.663,4.663,0,0,1,1.491-3.673,4.866,4.866,0,0,1,3.461-1.331,5.142,5.142,0,0,1,3.407,1.224,4.218,4.218,0,0,1,1.384,3.3Zm-7.666-1.6h5.59a2.4,2.4,0,0,0-.745-1.863,2.973,2.973,0,0,0-1.917-.639,3.112,3.112,0,0,0-2.023.692A2.042,2.042,0,0,0,195.276,24.266Z" transform="translate(-90.343 -9.306)"/><path class="a" d="M215.948,19.238v4.951a1.5,1.5,0,0,0,.373,1.118,1.363,1.363,0,0,0,1.012.426,1.841,1.841,0,0,0,1.278-.639l.852,1.437a3.621,3.621,0,0,1-2.4.958,3.231,3.231,0,0,1-2.236-.905,3.175,3.175,0,0,1-.905-2.449v-4.9H212.7v-1.65h1.224V14.5H216v3.088h2.555v1.65Z" transform="translate(-99.461 -6.78)"/><rect class="a" width="2.715" height="9.796" transform="translate(65.856 10.754)"/><path class="a" d="M123.7,13.7l1.384-.8,1.331.8v1.544l-1.331.8-1.384-.8Z" transform="translate(-57.844 -6.032)"/><path class="a" d="M74.737,13h2.715l-1.917,2.343H73.3Z" transform="translate(-34.276 -6.079)"/><path class="b" d="M7.73,14.425l5.75-3.3L11.35,9.9,5.6,13.2Z" transform="translate(-2.619 -4.629)"/><path class="c" d="M5.6,16.1V29.942l2.13,1.224V17.324Z" transform="translate(-2.619 -7.529)"/><g transform="translate(6.761 1.704)"><path class="d" d="M35.2,18.5Z" transform="translate(-23.221 -10.354)"/><path class="d" d="M35.2,17.424v6.655l2.13-1.171V16.2Z" transform="translate(-23.221 -9.279)"/><path class="e" d="M17.864,5.01,14.83,3.2,12.7,4.424l5.164,2.981,6.815,3.94,2.13-1.224Z" transform="translate(-12.7 -3.2)"/></g><g transform="translate(9.902)"><path class="d" d="M41.1,14.118v6.655l1.97-1.118V13Z" transform="translate(-29.121 -6.079)"/><path class="d" d="M44.7,13Z" transform="translate(-30.805 -6.079)"/><path class="e" d="M20.623.053,20.57,0,18.6,1.118l2.023,1.171,9.956,5.75,1.97-1.118Z" transform="translate(-18.6)"/></g><g transform="translate(6.122 14.8)"><path class="f" d="M22.4,40.7Z" transform="translate(-16.597 -33.832)"/><path class="f" d="M22.4,34.668v2.449L34.325,30.2V27.8Z" transform="translate(-16.597 -27.8)"/><path class="g" d="M17.3,37.754,11.5,34.4v2.449L17.3,40.2Z" transform="translate(-11.5 -30.886)"/></g><g transform="translate(6.122 18.421)"><path class="f" d="M32.409,35.718,22.4,41.468V43.7l11.925-6.868h0V34.6Z" transform="translate(-16.597 -34.6)"/><path class="f" d="M22.4,51.7Z" transform="translate(-16.597 -42.596)"/><path class="f" d="M22.4,47.5Z" transform="translate(-16.597 -40.632)"/><path class="g" d="M17.3,44.554,11.5,41.2v2.289l5.8,3.3Z" transform="translate(-11.5 -37.686)"/></g><g transform="translate(0 3.567)"><path class="c" d="M0,26.689v.053L1.97,27.86V14.018L0,12.9Z" transform="translate(0 -9.599)"/><path class="b" d="M5.75,6.7,0,10l1.97,1.118,5.7-3.3Z" transform="translate(0 -6.7)"/></g></svg>