<?xml version="1.0" encoding="utf-8"?>
<!-- Generator: Adobe Illustrator 22.1.0, SVG Export Plug-In . SVG Version: 6.00 Build 0)  -->
<svg version="1.1" id="Layer_1" xmlns="http://www.w3.org/2000/svg" xmlns:xlink="http://www.w3.org/1999/xlink" x="0px" y="0px"
	 viewBox="0 0 274 257" style="enable-background:new 0 0 274 257;" xml:space="preserve">
<style type="text/css">
	.st0{opacity:0.25;}
	.st1{fill:#F7AF93;}
	.st2{enable-background:new    ;}
	.st3{fill:#808080;}
	.st4{fill:#ED7213;}
	.st5{fill:#E39881;}
	.st6{fill:#F2F2F2;}
	.st7{fill:#B76314;}
	.st8{fill:#CECECE;}
	.st9{fill:#C8623A;}
	.st10{fill:#F7874F;}
	.st11{fill:#EB7344;}
	.st12{fill:#999999;}
	.st13{fill:#FF8800;}
	.st14{fill:#FFFFFF;}
	.st15{fill:#EB9D86;}
	.st16{fill:#CE7325;}
	.st17{fill:#BF601D;}
	.st18{fill:#C77E6E;}
	.st19{fill:#DE8C7A;}
	.st20{fill:#D38D78;}
	.st21{fill:#3A3A3A;}
	.st22{fill:#D9D9D9;}
	.st23{fill:#4D4D4D;}
	.st24{fill:#3E3E3E;}
	.st25{fill:#333333;}
	.st26{fill:#994D1A;}
	.st27{fill:#58595B;}
	.st28{fill:#BFBFBF;}
	.st29{fill:#CE5725;}
	.st30{fill:#BF451D;}
	.st31{fill:#424242;}
	.st32{fill:#853C13;}
	.st33{fill:#AC3E1A;}
	.st34{fill:#E5E5E5;}
	.st35{fill:#CCCCCC;}
	.st36{fill:#404040;}
	.st37{fill:#A3A3A3;}
	.st38{fill:#292929;}
	.st39{fill:#BC7E6B;}
</style>
<g>
	<polygon class="st0" points="158.2,99.1 66,45.9 0.7,83.9 92.8,137.1 	"/>
	<g>
		<g>
			<path class="st1" d="M33.5,88.1c0.2,0,0.5,0,0.7,0c-0.3,0-0.5,0-0.8,0C33.4,88.1,33.5,88.1,33.5,88.1z"/>
		</g>
		<g>
			<path class="st1" d="M36.1,82.5c0.4,0.3,0.7,0.9,0.4,1.2c0,0,0,0-0.1,0c-0.3,0.1-1-0.1-1.5-0.4c-0.1-0.1-0.2-0.1-0.3-0.2
				c-0.4-0.3-0.4-0.6,0-0.8c0.1,0.1,0.2,0.1,0.3,0.2c0,0-0.1-0.1-0.2-0.2c0.4-0.1,0.9,0,1.2,0.2C36,82.4,36.1,82.5,36.1,82.5z"/>
		</g>
		<g class="st2">
			<g>
				<polygon class="st3" points="54,78.4 50.1,80.8 48.5,79.9 52.5,77.6 				"/>
			</g>
			<g>
				<polygon class="st3" points="88.8,63.7 58.7,81.2 58.4,81 88.5,63.5 				"/>
			</g>
			<g>
				<path class="st4" d="M31,79.9c0.6,0.2,1.2,0.5,1.7,0.8c0.2,0.1,0.4,0.2,0.5,0.3c-0.2-0.1-0.3-0.2-0.5-0.3
					c-0.5-0.3-1-0.5-1.6-0.7c0.1,0,0.2,0.1,0.1,0.4c-0.1,0.4-0.8-0.1-1.4,0c-0.6,0.1-1.1,1.4-3.4,3.1c-1.2,0.9-2.5,1.2-3.5,1.3
					c-1.2-1.1-2.1-2.9,0.8-4.5C27.6,78,30.7,79.7,31,79.9z"/>
			</g>
			<g>
				<path class="st5" d="M36.4,87.5C36.4,87.5,36.4,87.5,36.4,87.5C36.4,87.5,36.4,87.5,36.4,87.5c-0.1,0.1-0.1,0.1-0.1,0.1
					c0,0,0,0,0,0c0,0,0,0,0,0c0,0,0,0,0,0c0,0,0,0,0,0c0,0,0,0-0.1,0c0,0,0,0,0,0c0,0,0,0,0,0c0,0,0,0,0,0c0,0,0,0,0,0
					c0,0-0.1,0-0.1,0c0,0,0,0,0,0c-1.5,0.5-3.7,0.4-5.4,0c0,0,0,0,0,0c2,0.3,4.3,0.3,5.6-0.5c1.3-0.8,1.3-2.1,0.8-3.2
					c0.4,0.6,0.6,1.2,0.6,1.9c0,0.4-0.1,0.8-0.4,1.1c0,0,0,0,0,0c0,0,0,0-0.1,0.1c0,0,0,0,0,0c0,0,0,0-0.1,0.1c0,0,0,0,0,0
					c0,0,0,0,0,0c0,0,0,0,0,0c0,0,0,0,0,0c0,0,0,0,0,0c0,0,0,0,0,0c0,0,0,0,0,0c0,0,0,0,0,0C36.5,87.4,36.5,87.4,36.4,87.5
					C36.5,87.4,36.5,87.4,36.4,87.5C36.5,87.5,36.5,87.5,36.4,87.5z"/>
			</g>
			<g>
				<path class="st6" d="M40.3,86.2c0,0,0.4,0.8,0.7,2.3c-0.7-0.2-1.2-0.2-1.7-0.2c-0.9,0-1.4,0.1-1.4,0.1c0-0.1,0.5-1.2,0-2.2
					C39.1,85.9,40.3,86.2,40.3,86.2z"/>
			</g>
			<g>
				<path class="st6" d="M45.6,84.6l4.5,2.9l0.4,0.2l-6.1,3.6l-4.6-2.4l-0.3-0.5c1,0.1,1.7,0.3,1.8,0.3c0.3-0.8-0.8-2.4-0.8-2.5
					L45.6,84.6z"/>
			</g>
			<g>
				<path class="st1" d="M31.7,81.2c0.1,0,1.4,0.3,2.9,1.1c-0.3,0.2-0.3,0.5,0,0.8c0.1,0.1,0.2,0.1,0.3,0.2c0.5,0.3,1.2,0.5,1.5,0.4
					c0,0,0,0,0.1,0c0.1,0.1,0.2,0.2,0.3,0.4c0.6,1.1,0.5,2.5-0.8,3.2c-1.3,0.8-3.6,0.8-5.6,0.5c-0.2-0.1-0.4-0.1-0.6-0.2
					c0.2-0.2-0.2-0.6-0.7-0.9c-0.1-0.1-0.2-0.1-0.3-0.1c-0.5-0.2-1.1-0.2-1.4,0c-0.3-0.2-0.7-0.4-1.1-0.6c-0.2-0.1-0.4-0.3-0.6-0.4
					c0.9-0.5,2.4-1.3,3.8-2.4C30.2,82.6,31,81.9,31.7,81.2z M33.7,85.4c-0.3-0.2-1.6-0.4-1.7-0.4c0.1,0,1.2,0.4,1.4,0.5c0,0,0,0,0,0
					c0.2,0.1,0.3,0.4,0.3,0.4C33.8,86,34,85.6,33.7,85.4C33.8,85.4,33.8,85.4,33.7,85.4"/>
			</g>
			<g>
				<path class="st7" d="M26.3,85.9c0.4,0.2,0.8,0.5,1.1,0.6c0.4,0.2,0.6,0.3,0.6,0.3c0,0-0.3-0.1-0.7-0.2c-0.6-0.2-1.6-0.5-2.4-0.8
					c0.1,0,0.3-0.1,0.4-0.1c0.1-0.1,0.2-0.1,0.3-0.2C25.9,85.6,26.1,85.8,26.3,85.9z"/>
			</g>
			<g>
				<path class="st6" d="M47.3,84.6l3.8,1l1.5,0.9l-2.1,1.2c-0.2-0.1-0.4-0.2-0.4-0.2l-4.5-2.9C46.1,84.5,46.8,84.5,47.3,84.6z"/>
			</g>
			<g>
				<path class="st8" d="M50.1,87.5c0,0,0.1,0.1,0.4,0.2l0,0L50.1,87.5z"/>
			</g>
			<g>
				<path class="st9" d="M37.9,88.4c-0.1,0.3,0,0.6,0,0.9l-0.3-0.1C37.6,88.7,37.9,88.4,37.9,88.4z"/>
			</g>
			<g>
				<path class="st10" d="M39,89.3c0.1-0.2,0.6-0.4,0.7-0.4l4.6,2.4L43.1,92C41,90.7,39,89.4,39,89.3z"/>
			</g>
			<g>
				<path class="st11" d="M39.7,88.9c0,0-0.6,0.2-0.7,0.4c0,0.1,2,1.4,4.1,2.7l-0.2,0.1l-4.1-2.7l-0.8-0.2c-0.1-0.3-0.1-0.6,0-0.9
					c0.5-0.1,1,0,1.5,0L39.7,88.9z"/>
			</g>
			<g>
				<path class="st6" d="M34.1,89.8c0.1,0,2.9,0.7,4.3,0.5c0,0-0.4-0.5-0.5-1l0.8,0.2l4.1,2.7l-6.1,3.6l-0.4-0.2l-5-2.6L34.1,89.8z"
					/>
			</g>
			<g>
				<path class="st6" d="M31.4,92.9l5,2.6c0,0,0.2,0.1,0.4,0.2l-2.1,1.2l-1.5-0.9l-1.7-2.2C31.1,93.5,31.1,93.2,31.4,92.9z"/>
			</g>
			<g>
				<path class="st12" d="M52.9,86.4l0.1,0.1L34.6,97.2L11.5,83.8L30,73.1L52.9,86.4z M50.4,87.7l2.2-1.3l-1.5-0.9L30,73.4l-18,10.5
					l21.2,12.2l1.5,0.9l2.1-1.2l6.1-3.6l0.2-0.1l1.2-0.7L50.4,87.7"/>
			</g>
			<g>
				<path class="st7" d="M35,82.5c0,0-0.1-0.1-0.2-0.2c-0.3-0.3-0.8-0.8-1.5-1.3c-0.2-0.1-0.3-0.2-0.5-0.3c-0.5-0.3-1-0.5-1.6-0.7
					c0.1,0,0.2,0.1,0.1,0.4c-0.1,0.4-0.8-0.1-1.4,0c-0.6,0.1-1.1,1.4-3.4,3.1c-1.2,0.9-2.5,1.2-3.5,1.3c0.4,0.4,0.8,0.7,1.1,0.9
					c0,0,0,0,0,0c0,0,0,0,0,0c0,0,0,0,0.1,0c0.2,0.1,0.5,0.1,0.8,0.1c0.1,0,0.3-0.1,0.4-0.1c0.1-0.1,0.2-0.1,0.3-0.2
					c0.9-0.5,2.4-1.3,3.8-2.4c0.8-0.6,1.6-1.2,2.3-2c0.1,0,1.4,0.3,2.9,1.1C34.7,82.4,34.8,82.4,35,82.5z"/>
			</g>
			<g>
				<polygon class="st13" points="99.8,89.7 78,102.4 76.6,101.6 98.4,88.9 				"/>
			</g>
			<g>
				<polygon class="st12" points="107.9,74.7 52.1,107.2 50.7,106.3 106.5,73.9 				"/>
			</g>
			<g>
				<polygon class="st12" points="139.9,93.2 111.9,109.4 110.9,108.8 138.9,92.6 				"/>
			</g>
			<g>
				<polygon class="st12" points="146.4,97 118.5,113.2 117.4,112.6 145.4,96.3 				"/>
			</g>
			<g>
				<polygon class="st12" points="121.2,82.4 65.4,114.8 64,114 119.8,81.6 				"/>
			</g>
			<g>
				<polygon class="st12" points="130.1,87.5 74.3,120 72.9,119.1 128.7,86.7 				"/>
			</g>
			<g>
				<polygon class="st13" points="115.6,115.7 91.3,129.8 79.1,122.7 103.4,108.6 				"/>
			</g>
			<g>
				<path class="st14" d="M66,46.3L2.9,83l89.9,51.9l63.1-36.7L66,46.3z M143.2,95.1l-28,16.3l-1-0.6l28-16.3L143.2,95.1
					 M139.9,93.2l-28,16.3l-1-0.6l28-16.3L139.9,93.2 M136.6,91.3l-28,16.3l-1-0.6l28-16.3L136.6,91.3 M88.8,63.7L58.7,81.2l-4,2.3
					l-1.5-0.9l4-2.3l1.2,0.7l30.1-17.5L88.8,63.7 M86.4,74.9l-34,19.8l-2.1-1.2l34-19.8L86.4,74.9 M84.1,61L54,78.4l-4,2.3l-1.5-0.9
					l4-2.3l1.2,0.7l30.1-17.5L84.1,61 M79.4,58.2L49.3,75.7l-4,2.3l-1.5-0.9l4-2.3l1.2,0.7L79,58L79.4,58.2 M74.7,55.5L44.6,73
					l-4,2.3l-1.5-0.9l4-2.3l1.2,0.7l30.1-17.5L74.7,55.5 M67.5,51.4l2.1,1.2l-34,19.8l-2.1-1.2L67.5,51.4 M11.5,83.8L30,73.1h0
					l23,13.3l0.1,0.1L34.6,97.2L11.5,83.8 M46.3,103.8l55.8-32.4l1.4,0.8l-55.8,32.4L46.3,103.8 M50.7,106.3l55.8-32.4l1.4,0.8
					l-55.8,32.4L50.7,106.3 M55.1,108.9L111,76.5l1.4,0.8l-55.8,32.4L55.1,108.9 M99.8,89.7L78,102.4l-1.3-0.8l21.8-12.7L99.8,89.7
					 M64,114l55.8-32.4l1.4,0.8l-55.8,32.4L64,114 M68.4,116.6l55.8-32.4l1.4,0.8l-55.8,32.4L68.4,116.6 M72.9,119.1l55.8-32.4
					l1.4,0.8L74.3,120L72.9,119.1 M91.3,129.8l-12.2-7l24.3-14.1l12.2,7L91.3,129.8 M117.4,112.6l28-16.3l1,0.6l-28,16.3
					L117.4,112.6"/>
			</g>
			<g>
				<polygon class="st3" points="74.7,55.5 44.6,73 44.2,72.8 74.3,55.3 				"/>
			</g>
			<g>
				<polygon class="st3" points="44.6,73 40.6,75.3 39.1,74.4 43.1,72.1 				"/>
			</g>
			<g>
				<polygon class="st3" points="79.4,58.2 49.3,75.7 49,75.5 79,58 				"/>
			</g>
			<g>
				<polygon class="st3" points="49.3,75.7 45.3,78 43.8,77.2 47.8,74.9 				"/>
			</g>
			<g>
				<polygon class="st3" points="84.1,61 54,78.4 53.7,78.2 83.8,60.8 				"/>
			</g>
			<g>
				<polygon class="st3" points="58.7,81.2 54.8,83.5 53.3,82.6 57.2,80.3 				"/>
			</g>
			<g>
				<path class="st4" d="M25.7,85.5c0.9-0.5,2.4-1.3,3.8-2.4C28,84.2,26.6,85,25.7,85.5z"/>
			</g>
			<g>
				<path class="st4" d="M24,85.6c-0.2-0.2-0.5-0.4-0.8-0.6C23.5,85.3,23.8,85.5,24,85.6z"/>
			</g>
			<g>
				<path class="st4" d="M24.9,85.8c-0.3,0-0.5,0-0.8-0.1C24.4,85.8,24.7,85.8,24.9,85.8z"/>
			</g>
			<g>
				<path class="st5" d="M33.8,85.4c0.3,0.2,0.1,0.6,0.1,0.6c0,0-0.1-0.3-0.3-0.4c0,0,0,0,0,0c-0.3-0.1-1.4-0.5-1.4-0.5
					C32.2,85,33.4,85.2,33.8,85.4C33.8,85.4,33.8,85.4,33.8,85.4z"/>
			</g>
			<g>
				<path class="st1" d="M29.8,87.6c-0.3,0.2-1.6,0-2.1-0.2c-0.1,0-0.1-0.1-0.2-0.1c-0.4-0.2-0.5-0.5-0.3-0.7
					c0.4,0.1,0.7,0.2,0.7,0.2c0,0-0.2-0.1-0.6-0.3c0.3-0.2,0.9-0.2,1.4,0c0.1,0,0.2,0.1,0.3,0.1C29.6,87,30,87.4,29.8,87.6z"/>
			</g>
			<g>
				<path class="st1" d="M34.2,88.1c0.1,0,0.1,0,0.2,0C34.3,88.1,34.3,88.1,34.2,88.1z"/>
			</g>
			<g>
				<path class="st1" d="M32.5,88.1C32.5,88.1,32.5,88.1,32.5,88.1C32.5,88.1,32.5,88.1,32.5,88.1z"/>
			</g>
			<g>
				<path class="st9" d="M37.9,88.4c0,0,0.5-0.2,1.4-0.1l0.1,0.2C38.9,88.4,38.4,88.3,37.9,88.4z"/>
			</g>
			<g>
				<path class="st8" d="M40.3,86.2c0.1,0.1,1.1,1.7,0.8,2.5c0,0-0.8-0.2-1.8-0.3l-0.1-0.2c0.5,0,1.1,0.1,1.7,0.2
					C40.7,87,40.3,86.2,40.3,86.2z"/>
			</g>
			<g>
				<path class="st15" d="M37.9,86.2c0.5,1,0,2.2,0,2.2c-0.1,0-2.1,0.3-3.8,0l-0.5-0.3c0.9,0,1.7-0.1,2.3-0.3c0,0,0,0,0,0
					c0,0,0,0,0,0c0,0,0.1,0,0.1,0c0,0,0,0,0,0c0,0,0,0,0,0c0,0,0,0,0,0c0,0,0,0,0,0c0,0,0,0,0,0c0,0,0,0,0,0c0,0,0,0,0,0
					c0,0,0,0,0,0c0,0,0,0,0,0c0,0,0,0,0,0c0,0,0,0,0,0c0,0,0,0,0,0c0,0,0,0,0,0c0,0,0,0,0,0c0,0,0,0,0,0c0,0,0,0,0,0c0,0,0,0,0,0
					c0,0,0,0,0,0c0,0,0,0,0,0c0,0,0,0,0,0c0,0,0,0,0,0c0,0,0,0,0,0c0,0,0,0,0,0c0,0,0,0,0,0c0,0,0,0,0,0c0,0,0,0,0,0c0,0,0,0,0,0
					c0,0,0,0,0,0c0,0,0,0,0,0c0,0,0,0,0,0c0,0,0,0,0.1-0.1c0,0,0,0,0,0c0,0,0,0,0.1-0.1c0,0,0,0,0,0c0.3-0.3,0.4-0.7,0.4-1.1
					L37.9,86.2z"/>
			</g>
			<g>
				<path class="st6" d="M37.9,88.4c0,0-0.3,0.3-0.3,0.8c0,0.3,0.1,0.6,0.4,1c-2.6-0.1-3.8-0.4-3.9-0.4c0,0-0.6-0.7-0.1-1.4
					C35.7,88.7,37.8,88.4,37.9,88.4z"/>
			</g>
			<g>
				<path class="st8" d="M37.6,89.2l0.3,0.1c0.2,0.6,0.5,1,0.5,1c-1.4,0.2-4.2-0.4-4.3-0.5c0.1,0,1.3,0.2,3.9,0.4
					C37.7,89.8,37.6,89.5,37.6,89.2z"/>
			</g>
			<g>
				<polygon class="st13" points="86.4,74.9 52.4,94.7 50.3,93.5 84.3,73.7 				"/>
			</g>
			<g>
				<path class="st8" d="M36.7,95.7c-0.2-0.1-0.3-0.2-0.4-0.2L36.7,95.7L36.7,95.7z"/>
			</g>
			<g>
				<polygon class="st12" points="103.5,72.2 47.7,104.6 46.3,103.8 102.1,71.4 				"/>
			</g>
			<g>
				<polygon class="st12" points="136.6,91.3 108.7,107.6 107.6,106.9 135.6,90.7 				"/>
			</g>
			<g>
				<polygon class="st12" points="112.4,77.3 56.6,109.7 55.1,108.9 111,76.5 				"/>
			</g>
			<g>
				<polygon class="st12" points="143.2,95.1 115.2,111.3 114.2,110.7 142.1,94.5 				"/>
			</g>
			<g>
				<polygon class="st12" points="125.7,85 69.9,117.4 68.4,116.6 124.3,84.2 				"/>
			</g>
		</g>
		<g>
			<polygon class="st13" points="69.6,52.6 35.6,72.4 33.5,71.2 67.5,51.4 			"/>
		</g>
		<g>
			<path class="st1" d="M31.9,88c-0.1,0-0.1,0-0.2,0C31.8,88,31.8,88,31.9,88z"/>
		</g>
		<g>
			<path class="st1" d="M32,88C31.9,88,31.9,88,32,88C31.9,88,31.9,88,32,88z"/>
		</g>
		<g>
			<path class="st1" d="M32.2,88C32.1,88,32.1,88,32.2,88C32.1,88,32.1,88,32.2,88z"/>
		</g>
		<g>
			<path class="st1" d="M32.3,88c0,0-0.1,0-0.1,0C32.2,88,32.3,88,32.3,88z"/>
		</g>
	</g>
</g>
<g>
	<polygon class="st0" points="244.5,55.6 152.4,2.4 87,40.4 179.2,93.6 	"/>
	<g>
		<g class="st2">
			<g>
				<polygon class="st3" points="135.7,32.2 131.7,34.5 130.2,33.7 134.2,31.4 				"/>
			</g>
			<g>
				<path class="st16" d="M108.8,35.9c1.3-0.7,2.6-0.6,3.8-0.1c-0.1,0-0.2-0.1-0.3-0.1c-0.7,0.2-1.6,0.4-2.4,0.9
					c-0.7,0.4-1.1,0.8-1.4,1.2C108,37.1,107.9,36.5,108.8,35.9z"/>
			</g>
			<g>
				<path class="st1" d="M120.7,39.4c0.1,0.1,0.2,0.2,0.3,0.2l-0.9-0.6c-0.1-0.1-0.1-0.1-0.1-0.2C120.3,39.1,120.5,39.2,120.7,39.4z
					"/>
			</g>
			<g>
				<polygon class="st3" points="145.1,37.7 141.1,40 139.6,39.1 143.6,36.8 				"/>
			</g>
			<g>
				<path class="st16" d="M122,40.1C122,40.1,122,40.1,122,40.1c-0.1-0.1-0.1-0.1-0.2-0.2C121.9,40,122,40.1,122,40.1z"/>
			</g>
			<g>
				<path class="st14" d="M121.8,40C121.9,40,121.9,40,121.8,40c0.1,0,0.1,0.1,0.2,0.1C122,40.1,121.9,40,121.8,40z"/>
			</g>
			<g>
				<path class="st16" d="M113.4,39c-1.3,0.7-2.3,1.1-3,1.3c-0.5-1.6,0.6-2.3,1.3-2.7c0.6-0.4,1.9-1.1,4.6-0.7
					C115.7,37.5,114.8,38.2,113.4,39z"/>
			</g>
			<g>
				<polygon class="st16" points="111.7,41.1 111.7,41.1 111.7,41.1 				"/>
			</g>
			<g>
				<path class="st5" d="M118.9,41.4c0.2,0.1,0,0.3,0,0.4c0,0,0-0.2-0.2-0.3c0,0,0,0,0,0c-0.2-0.1-0.8-0.3-0.9-0.3
					C117.9,41.1,118.7,41.2,118.9,41.4C118.9,41.4,118.9,41.4,118.9,41.4z"/>
			</g>
			<g>
				<path class="st17" d="M124.6,42.2c-0.3-0.2-0.5-0.3-0.6-0.5c0.4,0.1,0.8,0.2,1.1,0.3L124.6,42.2
					C124.6,42.3,124.6,42.2,124.6,42.2z"/>
			</g>
			<g>
				<path class="st18" d="M125,43.4C125.1,43.5,125.1,43.5,125,43.4c0.1,0.1,0.1,0.1,0,0.1C125,43.5,125,43.5,125,43.4
					C125,43.5,125,43.4,125,43.4z"/>
			</g>
			<g>
				<path class="st14" d="M115.8,43.5c0.1,0,0.2,0.1,0.2,0.1C115.9,43.6,115.8,43.6,115.8,43.5C115.8,43.5,115.8,43.5,115.8,43.5z"
					/>
			</g>
			<g>
				<path class="st17" d="M116.1,43.5c0.1,0.1,0.2,0.1,0.3,0.2c0,0,0,0.1,0.1,0.1c-0.1-0.1-0.2-0.1-0.3-0.2c-0.1,0-0.2-0.1-0.2-0.1
					c-1-0.5-1.8-0.5-2.9-0.8c-0.7-0.2-1.5-0.5-2.5-1.1l1.1-0.7c0.1,0.1,0.2,0.1,0.3,0.2c0.3,0.3,0.7,0.5,1.1,0.7
					c0.1,0,0.1,0.1,0.2,0.1c0.6,0.3,1.2,0.6,1.7,0.8c0.5,0.2,1,0.4,1.3,0.6C116,43.4,116,43.5,116.1,43.5z"/>
			</g>
			<g>
				<path class="st14" d="M119.6,44.9c-0.7-0.4-1.9-0.8-3.2-1.2c-0.1-0.1-0.1-0.1-0.3-0.2c1,0.2,2,0.3,3,0.2c0.2,0,0.5,0,0.7-0.1
					c0,0,0.1,0.1,0.1,0.1c0.2,0.1,0.3,0.3,0.4,0.4c0,0-0.5,0.4-0.5,0.9C119.7,45,119.6,44.9,119.6,44.9z"/>
			</g>
			<g>
				<path class="st1" d="M122.1,42.3c-0.2,0.3-0.4,0.7-0.8,0.9c-0.4,0.2-1,0.4-1.6,0.5c-0.2,0-0.5,0.1-0.7,0.1c-1,0.1-2,0-3-0.2
					c0,0-0.1-0.1-0.1-0.1c-0.3-0.2-0.8-0.4-1.3-0.6c-0.5-0.2-1.1-0.5-1.7-0.8c-0.1,0-0.1-0.1-0.2-0.1c-0.3-0.3-0.5-0.5-0.5-0.6
					c0.1,0,2.9-0.8,4.4-2l-0.6-0.1c0.1,0,1.5-0.5,2.6-1c0.2,0.1,0.4,0.2,0.6,0.3c0.2,0.1,0.4,0.3,0.6,0.4c0,0,0.1,0.1,0.1,0.2
					l0.9,0.6c0.2,0.2,0.4,0.3,0.7,0.4c0,0,0.1,0,0.1,0.1c0.2,0.3,0.4,0.7,0.4,1c0,0.2,0,0.5,0,0.7C122.2,42,122.2,42.2,122.1,42.3z
					 M118.8,41.4c0.1,0.1,0.2,0.3,0.2,0.3c0,0,0.1-0.2,0-0.4c0,0,0,0,0,0c-0.2-0.1-1-0.2-1-0.2C117.9,41.1,118.6,41.3,118.8,41.4
					C118.7,41.4,118.8,41.4,118.8,41.4"/>
			</g>
			<g>
				<path class="st19" d="M125.1,43.5c-0.2,0.2-0.4,0.4-0.5,0.4c-0.1,0.1-0.2,0.7-0.3,0.7c0,0-0.2-0.5,0.1-0.8
					C124.6,43.8,124.8,43.6,125.1,43.5C125,43.5,125,43.5,125.1,43.5z"/>
			</g>
			<g>
				<path class="st20" d="M121.4,45.2c0,0-0.1,0-0.1-0.1c0,0,0.2,0.1,0.5,0.2c0,0,0,0-0.1,0C121.6,45.3,121.5,45.3,121.4,45.2z"/>
			</g>
			<g>
				<path class="st19" d="M122.5,45c0.4-0.2,1.3-0.1,1.4-0.1c0,0-1,0.1-1.2,0.1c-0.1,0-0.4,0.1-0.7,0.3c0,0-0.1,0-0.1-0.1
					C122.1,45.2,122.3,45.1,122.5,45z"/>
			</g>
			<g>
				<path class="st18" d="M121.7,45.4C121.7,45.4,121.8,45.3,121.7,45.4c0.1,0,0.2,0,0.2,0c0,0-0.1,0-0.1,0
					C121.8,45.4,121.7,45.4,121.7,45.4z"/>
			</g>
			<g>
				<path class="st15" d="M125.1,43.5c0.5,0.4,1.3,1,2.1,1.7c-0.1,0.3-0.3,0.6-0.8,0.9c-0.5,0.3-1,0.4-1.5,0.4c-1.3-0.5-2.4-1-3-1.2
					c0.3-0.1,0.6-0.2,0.7-0.3c0.2-0.1,1.1-0.1,1.2-0.1c0,0-0.9-0.1-1.4,0.1c-0.1,0.1-0.4,0.2-0.7,0.3c-0.3-0.1-0.5-0.2-0.5-0.2
					c-0.4-0.2-0.6-0.4-0.8-0.6c0,0-0.1-0.3-0.3-0.4c-0.1-0.1-0.2-0.2-0.4-0.4c0,0,0.1,0.1,0.1,0.1c0.6-0.1,1.3-0.2,1.7-0.5
					c0.4-0.2,0.6-0.6,0.8-1c0.2,0.1,0.3,0.1,0.4,0.1c0.1,0.1,0.6,0.2,0.6,0.2c0.4,0.1,0.7,0.2,1.1,0.4
					C124.7,43.2,124.8,43.3,125.1,43.5c-0.3,0.1-0.5,0.2-0.6,0.3c-0.3,0.3-0.1,0.8-0.1,0.8c0,0,0.1-0.6,0.3-0.7
					C124.7,43.9,124.8,43.7,125.1,43.5z"/>
			</g>
			<g>
				<path class="st21" d="M129.4,44.7l2.2,0c0,0,0.4,0.9,0.8,2l-0.2,0.1c-0.5-1.1-0.9-2-0.9-2.1l-2.2,0l0.4-1.4
					c-0.2,0-3.2-0.9-4.5-1c0,0,0,0,0,0c1.2,0.1,4.6,0.9,4.8,1L129.4,44.7z"/>
			</g>
			<g>
				<path class="st16" d="M122.2,40.3c0.5,0.5,0.9,0.9,1.3,1.3c0.2,0.2,0.5,0.4,0.8,0.6c0.1,0,0.2,0.1,0.2,0.1
					c0.1,0.1,0.2,0.1,0.4,0.1c-0.2-0.1-0.4-0.1-0.6-0.3C123.6,41.8,122.9,41.1,122.2,40.3z"/>
			</g>
			<g>
				<path class="st12" d="M129.1,44.8l2.2,0c0,0,0.5,0.9,0.9,2.1l-1.6,0.9c-1.1-0.9-2.3-2-3.4-2.8c-0.3-0.3-0.7-0.5-1-0.7
					c-0.4-0.3-0.8-0.5-1.1-0.7c0,0-0.1,0-0.1-0.1c-0.1-0.1-0.2-0.1-0.3-0.2c0,0-0.1,0-0.1-0.1c-0.4-0.2-0.8-0.4-1.1-0.4
					c0,0-0.5-0.1-0.6-0.2c0,0,0.7-0.3,1.6-0.3c0.2,0.1,0.4,0.1,0.5,0.2c-0.1-0.1-0.3-0.1-0.4-0.2c0.1,0,0.1,0,0.2,0c0,0,0.1,0,0.1,0
					c1.3,0.2,4.3,1,4.5,1L129.1,44.8z"/>
			</g>
			<g>
				<path class="st22" d="M124.9,46.6c1.5,0.6,3.2,1.3,4.6,1.8l-0.3,0.2c-1.6-0.6-3.4-1.3-4.9-2C124.5,46.6,124.7,46.6,124.9,46.6z"
					/>
			</g>
			<g>
				<path class="st12" d="M123.1,46.1c0.4,0.2,0.8,0.4,1.2,0.6c1.5,0.7,3.3,1.4,4.9,2l-1.6,0.9c-2-0.3-3.5-0.5-3.6-0.5l0-1.3
					l-2.5,0.2c-0.1-0.1-1.6-1.9-1.8-2.6c0,0,0,0,0-0.1c0,0,0-0.1,0-0.1c0,0,0,0,0,0c0.1,0.1,0.2,0.2,0.4,0.2c0,0,0,0,0,0
					c-0.1-0.1-0.1-0.2-0.3-0.3c0,0-0.1,0-0.1-0.1c0-0.5,0.5-0.9,0.5-0.9c0.2,0.1,0.3,0.4,0.3,0.4c0.1,0.2,0.4,0.4,0.8,0.6
					c0,0,0.1,0,0.1,0.1c0.1,0.1,0.2,0.1,0.3,0.2c0,0,0.1,0,0.1,0.1C122.1,45.6,122.6,45.8,123.1,46.1z"/>
			</g>
			<g>
				<path class="st21" d="M124.1,47.7l0,1.3c0.1,0,1.6,0.3,3.6,0.5l-0.2,0.1c-1.9-0.2-3.4-0.4-3.5-0.5l0-1.3l-2.5,0.2
					c-0.1-0.1-1.6-2.1-1.7-2.8c0,0,0,0,0,0c0.2,0.7,1.8,2.5,1.8,2.6L124.1,47.7z"/>
			</g>
			<g>
				<path class="st23" d="M118.3,46.3l1.3-1.1l0,0l0.1-0.1c0,0,0,0.1,0,0.1c0,0,0,0,0,0.1c0,0,0,0,0,0c0.2,0.7,1.6,2.6,1.7,2.8
					l2.5-0.2l0,1.3c0.1,0,1.5,0.2,3.5,0.5l-2.7,1.6l-0.5-0.2c-0.4-0.2-0.8-0.4-1.2-0.6c-0.3-0.2-0.7-0.4-0.9-0.6l-1-0.9L118.3,46.3z
					"/>
			</g>
			<g>
				<path class="st24" d="M123,50.4c0.4,0.2,0.8,0.4,1.2,0.6l0.5,0.2l-0.3,0.1c-1-0.5-1.8-0.9-2-1c-0.5-0.3-1.3-1.4-1.4-1.5l1,0.9
					C122.4,50,122.7,50.2,123,50.4z"/>
			</g>
			<g>
				<path class="st16" d="M121.1,38c-0.4-0.3-0.9-0.6-1.3-0.9c-0.9-0.5-1.8-0.9-2.7-1.1c-0.2,0.2-0.5,0.6-0.8,0.9
					c-2.8-0.3-4,0.4-4.6,0.7c-0.6,0.4-1.8,1.1-1.3,2.7c-0.9,0.2-1.5,0.3-1.7,0.2c0.4,0.6,1.1,1.2,2.1,1.8c0.5,0.3,1,0.5,1.6,0.8
					c-0.6-0.2-1.1-0.5-1.6-0.8c-2.4-1.4-3-3-2.1-4.4c0.3-0.4,0.8-0.9,1.4-1.2c0.7-0.4,1.6-0.7,2.5-0.9c2.3-0.4,4.9-0.1,7.2,1.3
					C120.3,37.3,120.7,37.6,121.1,38z"/>
			</g>
			<g>
				<path class="st16" d="M119.7,45.1C119.7,45.1,119.7,45.1,119.7,45.1C119.7,45.1,119.7,45.1,119.7,45.1
					C119.7,45.1,119.7,45.1,119.7,45.1z"/>
			</g>
			<g>
				<path class="st14" d="M98.3,40.4l18-10.5L139,43l-1.6,0.9l-3-1.5c-4.4-2.5-7-1.1-7.8-0.9l-1.5,0.6c-0.4-0.1-0.7-0.2-1.1-0.3
					c-0.7-0.8-0.3-1.7-2.9-3.8c-0.4-0.3-0.9-0.6-1.3-0.9c-2.3-1.3-4.9-1.7-7.2-1.3c-1.1-0.4-2.5-0.6-3.8,0.1
					c-0.9,0.5-0.9,1.1-0.3,1.8c0,0,0.1,0.1,0.1,0.1c-0.9,1.5-0.3,3.1,2.2,4.5c0.5,0.3,1,0.5,1.6,0.8c4.2,1.8,5.8,1.1,7.4,2l0,0.1
					l-1.3,1.1c-0.4,0.4-2.8,2,1.5,4.5l2.7,1.7l-1.6,0.9L98.3,40.4z"/>
			</g>
			<g>
				<path class="st23" d="M121.1,48.9c0.1,0.1,0.9,1.2,1.4,1.5c0.2,0.1,1,0.5,2,1l-2,1.2l-2.7-1.7c-4.4-2.5-1.9-4.1-1.5-4.5
					L121.1,48.9z"/>
			</g>
			<g>
				<path class="st12" d="M139.3,42.9l-23-13.3L97.9,40.4L121,53.7L139.4,43L139.3,42.9z M137.4,43.9L137.4,43.9L137.4,43.9l-2,1.2
					l-0.2,0.1l-2.7,1.6l-0.2,0.1l-1.6,0.9l-0.3,0.2l-0.9,0.5l-0.3,0.2l-1.6,0.9l-0.2,0.1l-2.7,1.6l-0.3,0.1l-2,1.2l0,0l-1.6,0.9l0,0
					l0,0L98.3,40.4l18-10.5l0,0L139,43L137.4,43.9"/>
			</g>
			<g>
				<path class="st5" d="M116.7,39.3c-1.5,1.2-4.3,1.9-4.4,2c0,0.1,0.2,0.3,0.5,0.6c-0.4-0.2-0.7-0.5-1.1-0.7c0.2,0,0.4-0.1,0.6-0.2
					c0,0,0,0,0,0c0,0,0,0,0.1,0c0,0,0,0,0.1,0c0,0,0,0,0,0c0,0,0,0,0,0c1-0.3,2.2-0.7,3.2-1.4c0,0,0,0,0.1,0c0,0,0,0,0,0
					c0,0,0,0,0.1,0c0,0,0,0,0,0c0,0,0,0,0,0c0,0,0,0,0,0c0,0,0,0,0,0c0,0,0,0,0.1,0c-0.1,0-1.3,0.2-1.7,0.2c0.1,0,2.2-0.4,3.9-1.4
					c0,0,0,0,0,0c0,0-1,0.1-1.2,0.1c0.1,0,0.5-0.1,0.9-0.3c0.3,0.1,0.5,0.2,0.7,0.3c-1.1,0.5-2.5,1-2.6,1L116.7,39.3z"/>
			</g>
			<g>
				<path class="st17" d="M124.7,42.3C124.6,42.3,124.6,42.2,124.7,42.3c-0.3-0.2-0.5-0.3-0.7-0.5c-0.7-0.8-0.3-1.7-2.9-3.8
					c-0.4-0.3-0.9-0.6-1.3-0.9c-0.9-0.5-1.8-0.9-2.7-1.1c-0.2,0.2-0.5,0.6-0.8,0.9c-0.6,0.6-1.5,1.3-2.9,2.1c-1.3,0.7-2.3,1.1-3,1.3
					c-0.9,0.2-1.5,0.3-1.7,0.2c0.4,0.6,1.1,1.2,2.1,1.8c0.4,0.2,0.8,0.4,1.3,0.6c0.1,0,0.2,0.1,0.3,0.1c4.2,1.8,5.8,1.1,7.4,2l0,0
					c0,0,0,0,0,0c0,0,0,0,0,0c0,0,0,0,0,0c0,0,0,0,0,0c0,0,0,0,0.1,0c0,0,0,0,0,0c0,0,0,0,0.1,0c0,0,0,0,0,0c0,0,0.1,0,0.1,0.1
					c0,0,0,0,0,0c-0.1-0.1-0.1-0.2-0.3-0.3c0,0-0.1,0-0.1-0.1c-0.1,0-0.1-0.1-0.2-0.1c-0.7-0.4-1.9-0.8-3.3-1.2c0,0,0,0.1,0.1,0.1
					c-0.1-0.1-0.2-0.1-0.3-0.2c-0.1,0-0.2-0.1-0.3-0.1c-0.5,0.1-1.5,0.1-2.3-0.3c0,0-0.1,0-0.1-0.1c-0.3-0.2-0.4-0.3-0.4-0.4
					c-0.7-0.2-1.5-0.5-2.5-1.1l1.1-0.7c0.1,0.1,0.2,0.1,0.3,0.2c0.2,0,0.4-0.1,0.6-0.2c0,0,0,0,0.1,0c0,0,0,0,0.1,0c0,0,0,0,0.1,0
					c1-0.3,2.1-0.7,3.2-1.4c0,0,0,0,0.1,0c0,0,0,0,0.1,0c0,0,0,0,0,0c0,0,0,0,0,0c0,0,0,0,0,0c0,0,0,0,0,0c0,0,0,0,0.1,0
					c-0.1,0-1.3,0.2-1.7,0.2c0.1,0,2.2-0.4,3.9-1.4c0,0,0,0,0,0c0,0-1,0.1-1.2,0c0.1,0,0.4-0.1,0.8-0.2c-0.1,0-0.2-0.1-0.3-0.1
					l1.1-0.7c1,0.6,1.5,1,1.8,1.3c0.2,0,0.4,0.1,0.6,0.2c0,0,0.1,0,0.1,0.1c0.6,0.4,0.8,1,0.6,1.3c0.1,0.1,0.1,0.1,0.2,0.2
					c0.1,0.1,0.2,0.1,0.3,0.2c-0.1,0-0.1,0-0.2,0c0.7,0.8,1.4,1.5,2.1,1.9c0.2,0.1,0.4,0.2,0.7,0.3c0,0,0,0,0,0c0,0,0.1,0,0.1,0
					C124.9,42.4,124.8,42.4,124.7,42.3C124.7,42.3,124.7,42.3,124.7,42.3C124.7,42.3,124.7,42.3,124.7,42.3z"/>
			</g>
			<g>
				<path class="st17" d="M122,40.1c0.1,0.1,0.2,0.1,0.3,0.2c-0.1,0-0.1,0-0.2,0c-0.1,0-0.2-0.1-0.4-0.1c0,0-0.1,0-0.1-0.1
					c-0.2-0.1-0.4-0.3-0.7-0.4c-0.1-0.1-0.2-0.2-0.3-0.2c-0.2-0.2-0.5-0.3-0.7-0.5c-0.2-0.1-0.4-0.3-0.6-0.4
					c-0.2-0.1-0.4-0.2-0.6-0.3c-0.2-0.1-0.5-0.2-0.7-0.3c-0.1,0-0.2-0.1-0.3-0.1l1.1-0.7c1,0.6,1.5,1,1.8,1.3
					c0.6,0.6,0.5,1.1,1.2,1.6C121.9,40,122,40.1,122,40.1z"/>
			</g>
			<g>
				<path class="st14" d="M123.5,41.6c-0.4-0.4-0.9-0.8-1.3-1.3c-0.1,0-0.2-0.1-0.4-0.1c0.2,0.3,0.4,0.7,0.4,1
					C122.7,41.3,123.1,41.5,123.5,41.6z"/>
			</g>
			<g>
				<path class="st23" d="M126.6,41.5c0.7-0.3,3.4-1.7,7.8,0.9l3,1.5l-2,1.2c-0.8-0.6-1.5-1.1-1.7-1.2c-0.6-0.3-3.4-1.1-3.4-1.1
					L126.6,41.5z"/>
			</g>
			<g>
				<path class="st20" d="M127.2,45.3c-0.9-0.7-1.7-1.4-2.1-1.7c0,0,0,0,0.1-0.1c0.3,0.2,0.7,0.4,1.1,0.7c0.3,0.2,0.6,0.5,1,0.7
					C127.2,45.1,127.2,45.2,127.2,45.3z"/>
			</g>
			<g>
				<polygon class="st13" points="172.8,31.4 138.7,51.2 136.6,50 170.7,30.2 				"/>
			</g>
			<g>
				<polygon class="st12" points="194.3,31.2 138.5,63.7 137.1,62.9 192.9,30.4 				"/>
			</g>
			<g>
				<polygon class="st12" points="223,47.8 195,64.1 194,63.5 222,47.2 				"/>
			</g>
			<g>
				<polygon class="st12" points="226.3,49.7 198.3,66 197.3,65.3 225.2,49.1 				"/>
			</g>
			<g>
				<polygon class="st12" points="232.8,53.5 204.8,69.7 203.8,69.1 231.7,52.9 				"/>
			</g>
			<g>
				<polygon class="st12" points="212,41.5 156.2,73.9 154.8,73.1 210.6,40.7 				"/>
			</g>
			<g>
				<polygon class="st13" points="202,72.2 177.7,86.3 165.5,79.3 189.8,65.1 				"/>
			</g>
			<g>
				<path class="st14" d="M152.4,2.8L89.3,39.5l89.9,51.9l63.1-36.7L152.4,2.8z M229.5,51.6l-28,16.3l-1-0.6l28-16.3L229.5,51.6
					 M226.3,49.7l-28,16.3l-1-0.6l28-16.3L226.3,49.7 M223,47.8l-28,16.3l-1-0.6l28-16.3L223,47.8 M175.2,20.2l-30.1,17.5l-4,2.3
					l-1.5-0.9l4-2.3l1.2,0.7L174.8,20L175.2,20.2 M172.8,31.4l-34,19.8l-2.1-1.2l34-19.8L172.8,31.4 M170.5,17.5L140.4,35l-4,2.3
					l-1.5-0.9l4-2.3l1.2,0.7l30.1-17.5L170.5,17.5 M165.7,14.8l-30.1,17.5l-4,2.3l-1.5-0.9l4-2.3l1.2,0.7l30.1-17.5L165.7,14.8
					 M161,12L131,29.5l-4,2.3l-1.5-0.9l4-2.3l1.2,0.7l30.1-17.5L161,12 M153.9,7.9l2.1,1.2l-34,19.8l-2.1-1.2L153.9,7.9 M97.9,40.4
					l18.4-10.7l23,13.3l0.1,0.1L121,53.7L97.9,40.4 M132.6,60.3l55.8-32.4l1.4,0.8l-55.8,32.4L132.6,60.3 M137.1,62.9l55.8-32.4
					l1.4,0.8l-55.8,32.4L137.1,62.9 M141.5,65.4L197.3,33l1.4,0.8l-55.8,32.4L141.5,65.4 M186.1,46.2l-21.8,12.7l-1.3-0.8l21.8-12.7
					L186.1,46.2 M150.4,70.5l55.8-32.4l1.4,0.8l-55.8,32.4L150.4,70.5 M154.8,73.1l55.8-32.4l1.4,0.8l-55.8,32.4L154.8,73.1
					 M159.2,75.7l55.8-32.4l1.4,0.8l-55.8,32.4L159.2,75.7 M177.7,86.3l-12.2-7l24.3-14.1l12.2,7L177.7,86.3 M203.8,69.1l28-16.3
					l1,0.6l-28,16.3L203.8,69.1"/>
			</g>
			<g>
				<polygon class="st13" points="156,9.1 122,28.9 119.9,27.7 153.9,7.9 				"/>
			</g>
			<g>
				<polygon class="st3" points="161,12 131,29.5 130.6,29.3 160.7,11.8 				"/>
			</g>
			<g>
				<polygon class="st3" points="131,29.5 127,31.8 125.5,31 129.5,28.7 				"/>
			</g>
			<g>
				<polygon class="st3" points="165.7,14.8 135.7,32.2 135.3,32 165.4,14.6 				"/>
			</g>
			<g>
				<polygon class="st3" points="170.5,17.5 140.4,35 140,34.8 170.1,17.3 				"/>
			</g>
			<g>
				<polygon class="st3" points="140.4,35 136.4,37.3 134.9,36.4 138.9,34.1 				"/>
			</g>
			<g>
				<polygon class="st3" points="175.2,20.2 145.1,37.7 144.8,37.5 174.8,20 				"/>
			</g>
			<g>
				<path class="st17" d="M112.3,35.7c0.1,0,0.2,0.1,0.3,0.1c-0.9,0.2-1.7,0.5-2.5,0.9c-0.6,0.4-1.1,0.8-1.4,1.2c0,0,0,0,0,0
					c0,0,0,0,0,0c0,0,0,0,0,0c0,0,0,0,0,0c0,0-0.1-0.1-0.1-0.1c0.3-0.3,0.7-0.8,1.4-1.2C110.7,36.1,111.6,35.9,112.3,35.7z"/>
			</g>
			<g>
				<path class="st16" d="M108.7,37.9C108.7,37.9,108.7,37.9,108.7,37.9L108.7,37.9C108.7,37.9,108.7,37.9,108.7,37.9z"/>
			</g>
			<g>
				<path class="st16" d="M117.1,38C117.1,38,117.1,38,117.1,38C117.1,38,117.1,38,117.1,38z"/>
			</g>
			<g>
				<path class="st16" d="M117.6,37.9L117.6,37.9c-0.2,0.1-0.4,0.1-0.5,0.1C117.2,38,117.4,38,117.6,37.9z"/>
			</g>
			<g>
				<path class="st16" d="M117.6,37.9L117.6,37.9c0.1,0,0.2-0.1,0.4-0.1h0C117.8,37.8,117.7,37.9,117.6,37.9z"/>
			</g>
			<g>
				<polygon class="st16" points="118,37.8 118,37.8 118,37.8 				"/>
			</g>
			<g>
				<path class="st1" d="M121.9,39.9C121.9,40,121.9,40,121.9,39.9c-0.7-0.5-0.7-1-1.3-1.6c0.2,0,0.4,0.1,0.6,0.2c0,0,0.1,0,0.1,0.1
					C121.9,39.1,122.1,39.7,121.9,39.9z"/>
			</g>
			<g>
				<polygon class="st16" points="111.7,41.1 111.7,41.1 111.7,41.1 111.7,41.1 				"/>
			</g>
			<g>
				<path class="st16" d="M111.7,41.1L111.7,41.1c0.1,0,0.1,0,0.2,0l0,0C111.8,41.1,111.8,41.1,111.7,41.1z"/>
			</g>
			<g>
				<path class="st16" d="M112.3,41c-0.1,0-0.3,0.1-0.4,0.1l0,0C112,41,112.2,41,112.3,41z"/>
			</g>
			<g>
				<path class="st15" d="M122.1,42.3c0.1,0,0.2,0.1,0.2,0.1C122.3,42.4,122.2,42.3,122.1,42.3C122.1,42.3,122.1,42.3,122.1,42.3z"
					/>
			</g>
			<g>
				<path class="st17" d="M122.1,42.3c0.1-0.1,0.1-0.3,0.1-0.4c0.1-0.2,0.1-0.5,0-0.7c0.4,0.2,0.8,0.3,1.3,0.5
					c0.2,0.2,0.5,0.4,0.8,0.6c0.1,0,0.2,0.1,0.2,0.1c-1,0-1.6,0.3-1.6,0.3c-0.1,0-0.3-0.1-0.4-0.1c0,0-0.1,0-0.1,0
					C122.3,42.4,122.2,42.3,122.1,42.3z"/>
			</g>
			<g>
				<path class="st20" d="M124.8,43.3c0.1,0.1,0.2,0.1,0.3,0.2c0,0,0,0-0.1,0c-0.2-0.2-0.3-0.3-0.3-0.3
					C124.7,43.2,124.7,43.2,124.8,43.3z"/>
			</g>
			<g>
				<path class="st1" d="M113.3,43.1c-0.3-0.2-0.4-0.3-0.4-0.4c1.1,0.3,1.9,0.3,2.9,0.8c0,0,0,0-0.1,0c-0.5,0.1-1.5,0.1-2.3-0.3
					C113.4,43.2,113.4,43.2,113.3,43.1z"/>
			</g>
			<g>
				<path class="st19" d="M122.4,42.4c-0.1,0.4-0.4,0.7-0.8,1c-0.4,0.2-1,0.4-1.7,0.5c0,0-0.1-0.1-0.1-0.1c0,0-0.1-0.1-0.1-0.1
					c0.6-0.1,1.2-0.2,1.6-0.5c0.4-0.2,0.6-0.5,0.8-0.9c0.1,0,0.2,0.1,0.2,0.1C122.4,42.4,122.4,42.4,122.4,42.4z"/>
			</g>
			<g>
				<path class="st21" d="M130.2,42.8c0,0,2.9,0.7,3.4,1.1c0.2,0.1,0.9,0.6,1.7,1.2l-0.2,0.1l-0.4-0.3c-0.3-0.2-0.6-0.5-1-0.7
					c-0.3-0.2-0.7-0.4-1.1-0.5L130.2,42.8z"/>
			</g>
			<g>
				<polygon class="st23" points="119.6,45.2 119.6,45.2 119.6,45.2 				"/>
			</g>
			<g>
				<path class="st20" d="M121.8,45.4C121.8,45.4,121.9,45.4,121.8,45.4c0.7,0.2,1.9,0.7,3.1,1.2c-0.2,0-0.4,0-0.6,0
					c-0.4-0.2-0.9-0.4-1.2-0.6C122.6,45.8,122.1,45.6,121.8,45.4z"/>
			</g>
			<g>
				<path class="st23" d="M133.7,44.2c0.4,0.2,0.7,0.4,1,0.7l0.4,0.3l-2.7,1.6c-0.4-1.1-0.8-2-0.8-2l-2.2,0l0.4-1.4
					c-0.2,0-3.6-0.9-4.8-1c0,0,0,0,0,0c-0.1,0-0.1,0-0.1,0c-0.1,0-0.1,0-0.2,0c0,0,0,0,0,0l0.5-0.2l1.5-0.6l3.6,1.3l2.4,0.9
					C133,43.8,133.4,44,133.7,44.2z"/>
			</g>
			<g>
				<path class="st22" d="M127.2,45.3c0-0.1,0-0.2,0-0.3c1.1,0.9,2.4,1.9,3.4,2.8l-0.3,0.2C129.5,47.2,128.3,46.2,127.2,45.3z"/>
			</g>
			<g>
				<path class="st6" d="M126.5,46.2c0.5-0.3,0.7-0.6,0.8-0.9c1.1,0.9,2.3,1.9,3.2,2.7l-0.9,0.5c-1.4-0.5-3.1-1.2-4.6-1.8
					C125.5,46.6,126,46.5,126.5,46.2z"/>
			</g>
			<g>
				<polygon class="st13" points="186.1,46.2 164.3,58.9 163,58.1 184.8,45.5 				"/>
			</g>
			<g>
				<polygon class="st12" points="189.9,28.7 134.1,61.1 132.6,60.3 188.5,27.9 				"/>
			</g>
			<g>
				<polygon class="st12" points="198.7,33.8 142.9,66.2 141.5,65.4 197.3,33 				"/>
			</g>
			<g>
				<polygon class="st12" points="229.5,51.6 201.6,67.8 200.5,67.2 228.5,51 				"/>
			</g>
			<g>
				<polygon class="st12" points="207.6,38.9 151.8,71.4 150.4,70.5 206.2,38.1 				"/>
			</g>
			<g>
				<polygon class="st12" points="216.5,44.1 160.7,76.5 159.2,75.7 215.1,43.2 				"/>
			</g>
		</g>
	</g>
</g>
<g>
	<polygon class="st0" points="114.2,112.4 206.4,165.6 271.7,127.6 179.6,74.4 	"/>
	<g>
		<g class="st2">
			<g>
				<polygon class="st13" points="183.2,81 149.2,100.8 147.1,99.6 181.1,79.8 				"/>
			</g>
			<g>
				<polygon class="st3" points="188.2,84 158.2,101.4 157.8,101.2 187.9,83.8 				"/>
			</g>
			<g>
				<polygon class="st3" points="158.2,101.4 154.2,103.7 152.7,102.9 156.7,100.6 				"/>
			</g>
			<g>
				<polygon class="st3" points="192.9,86.7 162.9,104.2 162.5,104 192.6,86.5 				"/>
			</g>
			<g>
				<polygon class="st3" points="162.9,104.2 158.9,106.5 157.4,105.6 161.4,103.3 				"/>
			</g>
			<g>
				<polygon class="st3" points="167.6,106.9 163.6,109.2 162.1,108.3 166.1,106 				"/>
			</g>
			<g>
				<path class="st25" d="M146.9,109.3c0.6,0.4,1.1,1,1.4,1.4c0.2,0.3,0.3,0.4,0.3,0.4c0,0-0.2-0.1-0.5-0.3
					c-0.3-0.2-0.7-0.4-1.1-0.7c-0.2-0.1-0.4-0.2-0.7-0.4c0.1-0.1,0.2-0.1,0.3-0.2C146.8,109.5,146.8,109.4,146.9,109.3z"/>
			</g>
			<g>
				<polygon class="st3" points="172.3,109.6 168.3,111.9 166.8,111 170.8,108.7 				"/>
			</g>
			<g>
				<path class="st5" d="M146.5,114.3C146.5,114.3,146.5,114.3,146.5,114.3c0.3,0.1,0.7,0.2,0.8,0.2c0,0-0.7,0.1-1,0c0,0,0,0,0,0
					c-0.3-0.2-0.7-0.9-0.7-1C145.6,113.5,146.2,114.2,146.5,114.3z"/>
			</g>
			<g>
				<path class="st23" d="M136.7,112.9c0.3,0.3,0.8,0.6,1.2,0.9c0.3,0.2,0.7,0.4,1,0.5c-0.3-0.1-0.7-0.3-1-0.5
					C137.5,113.6,137,113.2,136.7,112.9c-0.4-0.2-3.3-2,0.5-4.3c2.9-1.7,5.9-1.2,7.8-0.5c-0.2,0.5-0.8,1.3-2.3,2
					c-2.9,1.4-5.2,1.6-5.3,2c-0.1,0.4,0.6,0.8,0,0.8C137,113.1,136.8,113,136.7,112.9z"/>
			</g>
			<g>
				<path class="st25" d="M138.9,113.3c0,0,0.5,0.8,2,1.7c0.1,0.1,0.2,0.1,0.3,0.2c0,0-0.2,0-0.4-0.1c-0.4-0.1-1.1-0.4-1.8-0.7
					c-0.3-0.1-0.7-0.3-1-0.5c-0.5-0.3-0.9-0.6-1.2-0.9c0.1,0,0.3,0.1,0.8,0.1c0.6,0-0.1-0.5,0-0.8c0.1-0.4,2.4-0.6,5.3-2
					c1.5-0.7,2.1-1.5,2.3-2c0.2,0.1,0.4,0.1,0.5,0.2c0,0,0,0,0,0c0,0,0,0,0,0c0.3,0.1,0.6,0.3,0.9,0.4c0,0,0,0,0,0c0,0,0,0,0,0
					c0.2,0.1,0.3,0.3,0.3,0.4c0,0,0,0.1,0,0.1c0,0.1-0.1,0.2-0.2,0.2c-0.1,0.1-0.2,0.1-0.3,0.2c-1,0.7-3,1.8-5.5,2.8
					C140.3,112.8,139.6,113.1,138.9,113.3z"/>
			</g>
			<g>
				<polygon class="st1" points="143.9,116.2 143.9,116.2 143.9,116.2 				"/>
			</g>
			<g>
				<path class="st9" d="M151.4,116.8c-0.1,0.3,0,0.6,0,0.9l-0.3-0.1C151.1,117.1,151.4,116.9,151.4,116.8z"/>
			</g>
			<g>
				<path class="st8" d="M151.2,117.6l0.3,0.1c0.2,0.6,0.5,1,0.5,1c-1.4,0.2-4.2-0.4-4.3-0.5c0.1,0,1.3,0.2,3.9,0.4
					C151.3,118.3,151.2,117.9,151.2,117.6z"/>
			</g>
			<g>
				<path class="st12" d="M166.5,114.8l-23-13.3l-18.4,10.7l23.1,13.3l18.4-10.7L166.5,114.8z M164,116.2l-6.1,3.6l-0.2,0.1
					l-1.2,0.7l-6.1,3.6l-2.1,1.2l-1.6-0.9l-21.1-12.2l18-10.5l21.3,12.3l1.4,0.8L164,116.2"/>
			</g>
			<g>
				<path class="st1" d="M149.6,111c0.4,0.3,0.7,1,0.3,1.2c-0.3,0.1-1-0.1-1.5-0.4c-0.1-0.1-0.2-0.1-0.3-0.2
					c-0.4-0.3-0.4-0.6-0.1-0.8c0.3,0.2,0.5,0.3,0.5,0.3c0,0-0.1-0.2-0.3-0.4c0.3-0.1,0.8,0,1.2,0.2
					C149.5,110.9,149.6,110.9,149.6,111z"/>
			</g>
			<g>
				<path class="st6" d="M160.9,113l3.9,1l1.4,0.8l-2.2,1.3c-0.2-0.1-0.3-0.2-0.4-0.2l-4.5-2.9C159.7,112.9,160.3,112.9,160.9,113z"
					/>
			</g>
			<g>
				<path class="st1" d="M142.6,115.1c0.5,0.3,0.9,0.7,0.7,0.9c0,0,0,0-0.1,0c-0.4,0.2-1.5,0-2-0.2c-0.1,0-0.1,0-0.2-0.1
					c-0.4-0.2-0.5-0.5-0.3-0.7c0.2,0.1,0.4,0.1,0.4,0.1c-0.1-0.1-0.2-0.1-0.3-0.2c0.3-0.2,0.9-0.2,1.4,0
					C142.4,115,142.5,115.1,142.6,115.1z"/>
			</g>
			<g>
				<path class="st1" d="M150.3,112.5c0.6,1.1,0.5,2.5-0.8,3.2c-1.3,0.8-3.6,0.8-5.6,0.5c-0.2-0.1-0.4-0.1-0.6-0.2c0,0,0.1,0,0.1,0
					c0.2-0.2-0.2-0.6-0.7-0.9c-0.1-0.1-0.2-0.1-0.3-0.1c-0.5-0.2-1.1-0.2-1.4,0c-1.4-0.9-1.9-1.6-2-1.7c0.7-0.2,1.3-0.5,2-0.7
					c2.5-1,4.4-2.1,5.5-2.8c0.2,0.1,0.4,0.2,0.7,0.4c0.4,0.2,0.8,0.5,1.1,0.7c-0.3,0.2-0.3,0.5,0.1,0.8c0.1,0.1,0.2,0.1,0.3,0.2
					c0.5,0.3,1.2,0.5,1.5,0.4c0.2,0.2,0.4,0.5,0.6,0.8C150.4,112.8,150.4,112.7,150.3,112.5z M146.3,114.5c0.3,0.2,1,0,1,0
					c0,0-0.5,0-0.7-0.1c0,0,0,0,0,0c-0.2-0.1-0.9-0.8-0.9-0.8C145.6,113.5,146,114.3,146.3,114.5
					C146.3,114.5,146.3,114.5,146.3,114.5"/>
			</g>
			<g>
				<path class="st9" d="M151.4,116.8c0,0,0.5-0.2,1.4-0.1l0.1,0.2C152.4,116.8,151.9,116.8,151.4,116.8z"/>
			</g>
			<g>
				<path class="st6" d="M153.9,114.7c0,0,0.4,0.8,0.7,2.3c-0.7-0.2-1.2-0.2-1.7-0.2c-0.9,0-1.4,0.1-1.4,0.1c0-0.1,0.5-1.2,0-2.2
					C152.6,114.3,153.8,114.6,153.9,114.7z"/>
			</g>
			<g>
				<path class="st8" d="M153.9,114.7c0.1,0.1,1.1,1.7,0.8,2.5c0,0-0.8-0.2-1.8-0.3l-0.1-0.2c0.5,0,1,0.1,1.7,0.2
					C154.3,115.4,153.9,114.7,153.9,114.7z"/>
			</g>
			<g>
				<path class="st5" d="M149.9,115.9C149.9,116,149.9,116,149.9,115.9C149.8,116,149.8,116,149.9,115.9c-0.1,0.1-0.1,0.1-0.1,0.1
					c0,0-0.1,0-0.1,0c0,0,0,0,0,0c0,0-0.1,0-0.1,0c0,0,0,0,0,0c-0.7,0.3-1.5,0.4-2.4,0.4c-0.9,0-1.9-0.1-2.8-0.3c0,0-0.1,0-0.1,0
					c0,0,0,0,0,0c-0.1,0-0.2,0-0.3-0.1c2,0.3,4.3,0.3,5.6-0.5c1.3-0.8,1.3-2.1,0.8-3.2c0.4,0.6,0.6,1.2,0.6,1.8c0,0,0,0.1,0,0.1
					c0,0,0,0,0,0c0,0,0,0.1,0,0.1c0,0,0,0,0,0c0,0,0,0,0,0.1c0,0,0,0,0,0c0,0,0,0,0,0c0,0,0,0,0,0c0,0,0,0,0,0c0,0,0,0,0,0
					c0,0,0,0,0,0c0,0,0,0,0,0c0,0,0,0,0,0c0,0,0,0,0,0c0,0,0,0,0,0c0,0,0,0,0,0c0,0,0,0,0,0c0,0,0,0,0,0c0,0,0,0,0,0c0,0,0,0,0,0
					c0,0,0,0,0,0c0,0,0,0,0,0c0,0,0,0,0,0c0,0,0,0,0,0c0,0,0,0,0,0c0,0,0,0,0,0c0,0,0,0,0,0c0,0,0,0,0,0c0,0,0,0,0,0c0,0,0,0,0,0
					c0,0,0,0,0,0c0,0,0,0,0,0c0,0,0,0,0,0c0,0,0,0,0,0c0,0,0,0,0,0c0,0,0,0,0,0c0,0,0,0,0,0c0,0,0,0,0,0c0,0,0,0,0,0c0,0,0,0,0,0
					c0,0,0,0,0,0c0,0,0,0,0,0c0,0,0,0,0,0c0,0,0,0,0,0c0,0,0,0,0,0c0,0,0,0,0,0c0,0,0,0,0,0c0,0,0,0,0,0c0,0,0,0,0,0c0,0,0,0,0,0
					c0,0,0,0,0,0C150,115.9,150,115.9,149.9,115.9C149.9,115.9,149.9,115.9,149.9,115.9z"/>
			</g>
			<g>
				<path class="st15" d="M151.4,114.6c0.5,1,0,2.2,0,2.2c-0.1,0-2.1,0.3-3.8,0l-0.5-0.3c0.9,0,1.7-0.1,2.4-0.4c0,0,0,0,0.1,0
					c0,0,0.1,0,0.1,0c0,0,0,0,0,0c0,0,0.1,0,0.1,0c0,0,0,0,0,0c0,0,0,0,0,0c0,0,0,0,0,0c0,0,0,0,0,0c0,0,0,0,0,0c0,0,0,0,0,0
					c0,0,0,0,0,0c0,0,0,0,0,0c0,0,0,0,0.1,0c0,0,0,0,0,0c0,0,0,0,0,0c0,0,0,0,0,0c0,0,0,0,0,0c0,0,0,0,0,0c0,0,0,0,0,0c0,0,0,0,0,0
					c0,0,0,0,0,0c0,0,0,0,0,0c0,0,0,0,0,0c0,0,0,0,0,0c0,0,0,0,0,0c0,0,0,0,0,0c0,0,0,0,0,0c0,0,0,0,0,0c0,0,0,0,0,0c0,0,0,0,0,0
					c0,0,0,0,0,0c0,0,0,0,0,0c0,0,0,0,0,0c0,0,0,0,0,0c0,0,0,0,0,0c0,0,0,0,0,0c0,0,0,0,0,0c0,0,0,0,0,0c0,0,0,0,0,0c0,0,0,0,0,0
					c0,0,0,0,0,0c0,0,0,0,0,0c0,0,0,0,0,0c0,0,0,0,0,0c0,0,0,0,0,0c0,0,0,0,0,0c0,0,0,0,0,0c0,0,0,0,0,0c0,0,0,0,0,0c0,0,0,0,0,0
					c0,0,0,0,0,0c0,0,0,0,0,0c0,0,0,0,0,0c0,0,0,0,0,0c0,0,0,0,0,0c0,0,0,0,0,0c0,0,0,0,0,0c0,0,0,0,0,0c0,0,0,0,0,0c0,0,0,0,0,0
					c0,0,0,0,0,0c0,0,0,0,0,0c0,0,0,0,0,0c0,0,0,0,0,0c0,0,0,0,0,0c0,0,0,0,0,0c0,0,0,0,0,0c0,0,0,0,0,0c0,0,0,0,0,0c0,0,0,0,0,0
					c0,0,0,0,0,0c0,0,0,0,0,0c0,0,0,0,0,0c0,0,0,0,0,0c0,0,0,0,0,0c0,0,0,0,0,0c0,0,0,0,0,0c0,0,0,0,0,0c0,0,0,0,0,0c0,0,0,0,0-0.1
					c0,0,0,0,0,0c0,0,0-0.1,0-0.1c0,0,0,0,0,0c0,0,0-0.1,0-0.1c0,0,0,0,0-0.1L151.4,114.6z"/>
			</g>
			<g>
				<path class="st6" d="M147.6,118.3c0.1,0,2.9,0.7,4.3,0.5c0,0-0.4-0.5-0.5-1l0.8,0.2l4.1,2.7l-6.1,3.6l-0.4-0.2l-5-2.6l0.3-0.3
					L147.6,118.3z"/>
			</g>
			<g>
				<path class="st6" d="M151.4,116.8c0,0-0.3,0.3-0.3,0.8c0,0.3,0.1,0.6,0.4,1c-2.6-0.1-3.8-0.4-3.9-0.4c0,0-0.6-0.7-0.1-1.4
					C149.3,117.1,151.3,116.9,151.4,116.8z"/>
			</g>
			<g>
				<path class="st6" d="M159.1,113.1l4.5,2.9l0.3,0.2l-6.1,3.6l-4.6-2.4l-0.3-0.5c1,0.1,1.7,0.3,1.8,0.3c0.3-0.8-0.8-2.4-0.8-2.5
					l4.7-1.4L159.1,113.1z"/>
			</g>
			<g>
				<path class="st11" d="M152.9,116.9l0.3,0.5l4.6,2.4l-0.2,0.1c-2.2-1.2-4.5-2.4-4.7-2.4c-0.3,0-0.7,0.4-0.7,0.4l-0.8-0.2
					c-0.1-0.3-0.1-0.6,0-0.9C151.9,116.8,152.4,116.8,152.9,116.9z"/>
			</g>
			<g>
				<polygon class="st13" points="200,103.3 165.9,123.1 163.8,121.9 197.9,102.1 				"/>
			</g>
			<g>
				<path class="st8" d="M149.9,123.9l0.4,0.2l0,0C150,124,149.9,123.9,149.9,123.9z"/>
			</g>
			<g>
				<path class="st23" d="M145.7,108.4c0.3,0.1,0.6,0.3,0.9,0.4C146.3,108.7,146,108.6,145.7,108.4z"/>
			</g>
			<g>
				<path class="st6" d="M149.9,123.9c0,0,0.1,0.1,0.4,0.2l-2.1,1.2l-1.6-0.9l-1.7-2.1c-0.3-0.3-0.2-0.7,0-1L149.9,123.9z"/>
			</g>
			<g>
				<path class="st14" d="M160.9,113c-0.6-0.1-1.2-0.1-1.7,0l-0.6,0.2l-4.7,1.4c-0.1,0-1.2-0.3-2.4,0l-0.5-0.3
					c0-0.7-0.4-1.5-0.9-2.2c0.4-0.2,0.1-0.9-0.3-1.2c0,0-0.1-0.1-0.1-0.1c-0.4-0.2-0.8-0.3-1.2-0.2c-0.3-0.4-0.8-0.9-1.4-1.4
					c0,0,0-0.1,0-0.1c0-0.1-0.1-0.3-0.3-0.4c-0.3-0.2-0.6-0.3-0.9-0.4c-0.2-0.1-0.4-0.2-0.6-0.2c-1.9-0.7-4.9-1.2-7.8,0.5
					c-3.8,2.2-0.9,4.1-0.6,4.2c0.4,0.4,0.8,0.7,1.3,1c0.3,0.2,0.7,0.4,1,0.5c0.7,0.3,1.4,0.6,1.8,0.7c-0.2,0.2-0.1,0.5,0.3,0.7
					c0,0,0.1,0.1,0.2,0.1c0.5,0.2,1.6,0.4,2,0.2c0.3,0.1,0.6,0.2,0.9,0.2c0.1,0,0.1,0,0.2,0c0.9,0.2,1.9,0.3,2.8,0.3l0.5,0.3
					c-0.5,0.7,0,1.4,0.1,1.4l-2.4,2.7l-0.3,0.3c-0.3,0.3-0.3,0.7,0,1l1.7,2.1l-21.1-12.2l18-10.5l21.3,12.3L160.9,113z"/>
			</g>
			<g>
				<polygon class="st12" points="217.1,100.6 161.3,133 159.8,132.2 215.6,99.8 				"/>
			</g>
			<g>
				<polygon class="st12" points="225.9,105.7 170.1,138.2 168.7,137.3 224.5,104.9 				"/>
			</g>
			<g>
				<polygon class="st12" points="260,125.4 232,141.6 231,141 258.9,124.8 				"/>
			</g>
			<g>
				<polygon class="st12" points="239.2,113.4 183.4,145.8 182,145 237.8,112.6 				"/>
			</g>
			<g>
				<polygon class="st12" points="243.7,116 187.9,148.4 186.4,147.6 242.3,115.1 				"/>
			</g>
			<g>
				<polygon class="st13" points="229.2,144.1 204.9,158.2 192.7,151.2 217,137 				"/>
			</g>
			<g>
				<path class="st14" d="M179.6,74.7l-63.1,36.7l89.9,51.9l63.1-36.7L179.6,74.7z M256.7,123.5l-28,16.3l-1-0.6l28-16.3
					L256.7,123.5 M253.5,121.6l-28,16.3l-1-0.6l28-16.3L253.5,121.6 M250.2,119.7l-28,16.3l-1-0.6l28-16.3L250.2,119.7 M202.4,92.1
					l-30.1,17.5l-4,2.3l-1.5-0.9l4-2.3l1.2,0.7L202,91.9L202.4,92.1 M200,103.3l-34,19.8l-2.1-1.2l34-19.8L200,103.3 M197.7,89.4
					l-30.1,17.5l-4,2.3l-1.5-0.9l4-2.3l1.2,0.7l30.1-17.5L197.7,89.4 M192.9,86.7l-30.1,17.5l-4,2.3l-1.5-0.9l4-2.3l1.2,0.7
					l30.1-17.5L192.9,86.7 M188.2,84l-30.1,17.5l-4,2.3l-1.5-0.9l4-2.3l1.2,0.7l30.1-17.5L188.2,84 M181.1,79.8l2.1,1.2l-34,19.8
					l-2.1-1.2L181.1,79.8 M125.1,112.3l18.4-10.7l23,13.3l0.1,0.1l-18.4,10.7L125.1,112.3 M159.8,132.2l55.8-32.4l1.4,0.8L161.3,133
					L159.8,132.2 M164.3,134.8l55.8-32.4l1.4,0.8l-55.8,32.4L164.3,134.8 M168.7,137.3l55.8-32.4l1.4,0.8l-55.8,32.4L168.7,137.3
					 M213.3,118.1l-21.8,12.7l-1.3-0.8l21.8-12.7L213.3,118.1 M177.6,142.5l55.8-32.4l1.4,0.8L179,143.3L177.6,142.5 M182,145
					l55.8-32.4l1.4,0.8l-55.8,32.4L182,145 M186.4,147.6l55.8-32.4l1.4,0.8l-55.8,32.4L186.4,147.6 M204.9,158.2l-12.2-7L217,137
					l12.2,7L204.9,158.2 M231,141l28-16.3l1,0.6l-28,16.3L231,141"/>
			</g>
			<g>
				<polygon class="st3" points="197.7,89.4 167.6,106.9 167.2,106.7 197.3,89.2 				"/>
			</g>
			<g>
				<path class="st23" d="M146.9,109.3c0-0.1-0.1-0.3-0.3-0.4C146.8,109,146.9,109.1,146.9,109.3z"/>
			</g>
			<g>
				<polygon class="st3" points="202.4,92.1 172.3,109.6 171.9,109.4 202,91.9 				"/>
			</g>
			<g>
				<path class="st1" d="M150.5,113c0,0.1,0.1,0.1,0.1,0.2C150.6,113.1,150.6,113,150.5,113z"/>
			</g>
			<g>
				<path class="st1" d="M150.6,113.2C150.6,113.2,150.6,113.2,150.6,113.2C150.6,113.2,150.6,113.2,150.6,113.2z"/>
			</g>
			<g>
				<path class="st1" d="M150.6,113.2C150.7,113.2,150.7,113.3,150.6,113.2C150.7,113.3,150.7,113.2,150.6,113.2z"/>
			</g>
			<g>
				<path class="st1" d="M150.7,113.3c0,0,0,0.1,0,0.1C150.7,113.4,150.7,113.4,150.7,113.3z"/>
			</g>
			<g>
				<path class="st1" d="M150.9,114.3c0,0,0,0.1,0,0.1C150.9,114.3,150.9,114.3,150.9,114.3C150.9,114.3,150.9,114.3,150.9,114.3z"
					/>
			</g>
			<g>
				<path class="st8" d="M164,116.2l-0.3-0.2C163.7,116,163.8,116,164,116.2L164,116.2z"/>
			</g>
			<g>
				<path class="st10" d="M152.3,117.9c0,0,0.3-0.4,0.7-0.4c0.2,0,2.4,1.2,4.7,2.4l-1.2,0.7L152.3,117.9z"/>
			</g>
			<g>
				<polygon class="st13" points="213.3,118.1 191.5,130.8 190.2,130 212,117.4 				"/>
			</g>
			<g>
				<polygon class="st12" points="221.5,103.2 165.7,135.6 164.3,134.8 220.1,102.3 				"/>
			</g>
			<g>
				<polygon class="st12" points="250.2,119.7 222.2,136 221.2,135.4 249.2,119.1 				"/>
			</g>
			<g>
				<polygon class="st12" points="253.5,121.6 225.5,137.9 224.5,137.3 252.4,121 				"/>
			</g>
			<g>
				<polygon class="st12" points="256.7,123.5 228.8,139.7 227.7,139.1 255.7,122.9 				"/>
			</g>
			<g>
				<polygon class="st12" points="234.8,110.8 179,143.3 177.6,142.5 233.4,110 				"/>
			</g>
		</g>
	</g>
</g>
<g>
	<polygon class="st0" points="23,160.7 115.2,213.9 180.6,175.9 88.4,122.7 	"/>
	<polygon class="st12" points="53.7,155.5 53.7,155.5 53.7,155.5 	"/>
	<g>
		<g class="st2">
			<g>
				<polygon class="st13" points="92,129.4 58,149.2 55.9,148 89.9,128.2 				"/>
			</g>
			<g>
				<polygon class="st3" points="97,132.3 67,149.8 66.6,149.6 96.7,132.1 				"/>
			</g>
			<g>
				<polygon class="st3" points="71.7,152.5 67.7,154.8 66.2,153.9 70.2,151.6 				"/>
			</g>
			<g>
				<polygon class="st3" points="106.5,137.7 76.4,155.2 76,155 106.1,137.5 				"/>
			</g>
			<g>
				<polygon class="st26" points="53.7,155.5 53.7,155.5 53.7,155.5 				"/>
			</g>
			<g>
				<polygon class="st3" points="76.4,155.2 72.4,157.5 70.9,156.7 74.9,154.3 				"/>
			</g>
			<g>
				<path class="st26" d="M53.8,157.9C53.8,158,53.8,158,53.8,157.9C53.8,158,53.8,158,53.8,157.9C53.8,157.9,53.8,157.9,53.8,157.9
					z"/>
			</g>
			<g>
				<path class="st1" d="M58.6,159.4c0.5,0.3,0.6,0.7,0.2,0.9c-0.4-0.3-0.8-0.6-1.3-0.9c-0.1-0.1-0.3-0.2-0.5-0.3c0,0,0.1,0,0.1-0.1
					c0.3-0.1,0.9,0,1.4,0.2C58.5,159.4,58.5,159.4,58.6,159.4z"/>
			</g>
			<g>
				<path class="st1" d="M51.6,163.5c0.2,0.1,0.3,0.2,0.4,0.3c-0.4-0.1-0.9-0.3-1.5-0.6c0.3,0,0.7,0.1,1,0.2
					C51.5,163.4,51.5,163.4,51.6,163.5z"/>
			</g>
			<g>
				<path class="st23" d="M69.9,161.4l3.6,0.9l1.5,0.9l-2,1.1c-0.2-0.1-0.3-0.1-0.3-0.1l-4.8-2.7l0.3-0.1
					C68.7,161.3,69.3,161.3,69.9,161.4z"/>
			</g>
			<g>
				<path class="st1" d="M59.5,162.5c0,0,0,0.8-1.2,1.5c-1.2,0.7-2.5,0.7-2.5,0.7c-0.1-0.1-1.8-1.1,0-2.1
					C57.6,161.4,59.3,162.4,59.5,162.5z"/>
			</g>
			<g>
				<path class="st14" d="M62.7,163.2c0,0,0.1,0.2,0.2,0.5c0.1,0.4,0.3,0.9,0.4,1.7c-0.6-0.1-1.2-0.2-1.6-0.2
					c-0.8,0-1.3,0.1-1.3,0.1c0-0.1,0.5-1.2,0-2.1C61.6,162.8,62.6,163.1,62.7,163.2z"/>
			</g>
			<g>
				<path class="st15" d="M60.4,163.1c0.5,0.9,0,2,0,2.1c-0.1,0-2,0.3-3.6,0l-0.4-0.2c1.4-0.1,2.3-0.6,2.4-0.7l0,0l0,0
					c0.1-0.1,0.9-0.6,1.2-1.3L60.4,163.1z"/>
			</g>
			<g>
				<polygon class="st27" points="67.7,165.7 69.6,165.9 69.8,166.3 68,167.3 62.9,163.1 63.8,162.8 68.5,164.7 				"/>
			</g>
			<g>
				<polygon class="st28" points="63.1,163.5 63.3,163.4 68,167.3 67.8,167.4 				"/>
			</g>
			<g>
				<path class="st14" d="M63.3,163.4l-0.2,0.1l4.7,3.9l-1.1,0.6l-4.6-2.4l-0.3-0.4c0.5,0.1,1.2,0.2,1.9,0.4c0-0.1-0.4-1.3-0.9-2
					c-0.1-0.3-0.2-0.5-0.2-0.5l0.2-0.1L63.3,163.4z"/>
			</g>
			<g>
				<path class="st29" d="M61.4,166c0-0.2,0.6-0.4,0.6-0.4l4.6,2.4l-1.2,0.7C63.5,167.5,61.4,166.1,61.4,166z"/>
			</g>
			<g>
				<path class="st30" d="M62.1,165.7c0,0-0.6,0.2-0.6,0.4c0,0.1,2.1,1.4,4.1,2.7l-0.2,0.1l-4.1-2.7l-0.7-0.2
					c-0.2-0.5-0.1-0.8-0.1-0.8c0,0,0.5-0.1,1.4,0L62.1,165.7z"/>
			</g>
			<g>
				<path class="st14" d="M56.9,166.5c0,0,0.3,0,0.8,0.1c1.3,0.3,3.4,0.5,3.5,0.5c-0.4-0.4-0.6-0.8-0.7-1.1l0.7,0.2l4.1,2.7
					l-1.1,0.6l-6.8-2.7l-0.1,0.1l-0.6-0.2L56.9,166.5z"/>
			</g>
			<g>
				<polygon class="st27" points="56.7,166.7 57.3,166.9 64.1,169.6 62.3,170.6 61.6,170.5 61.2,169.4 59.6,169.9 56.2,167.2 				
					"/>
			</g>
			<g>
				<polygon class="st23" points="61.2,169.4 61.6,170.5 62.3,170.6 59,172.5 58.8,172.4 54,169.6 56.7,166.7 56.2,167.2 
					59.6,169.9 				"/>
			</g>
			<g>
				<path class="st31" d="M59,172.5c-0.1-0.1-0.2-0.1-0.2-0.2L59,172.5L59,172.5z"/>
			</g>
			<g>
				<polygon class="st28" points="57.3,166.9 57.4,166.8 64.2,169.5 64.1,169.6 				"/>
			</g>
			<g>
				<path class="st23" d="M54,169.6l4.7,2.8c0,0,0.1,0.1,0.2,0.2l-2,1.2l-1.3-0.8l-1.7-2.2c-0.3-0.3-0.2-0.7,0-1L54,169.6z"/>
			</g>
			<g>
				<path class="st12" d="M75.3,163.2l-23-13.3l-18.4,10.7L57,173.9l18.4-10.7L75.3,163.2z M73,164.4l-3.2,1.9l-1.8,1l-0.1,0.1
					l-1.1,0.6l-1.2,0.7l-0.2,0.1l-1.1,0.6v0l0,0l-0.1,0.1l0,0l-1.8,1l-3.2,1.9l-2,1.2l-1.3-0.8l-21.3-12.3l18-10.5l21.1,12.2
					l1.5,0.9L73,164.4"/>
			</g>
			<g>
				<path class="st32" d="M47.5,161.3c0,0,0.9,0.6,1.8,1.2c0.5,0.3,1,0.7,1.4,1c0,0-0.1,0-0.3-0.1c-0.2,0-0.4-0.1-0.6-0.1
					c-0.8-0.2-2.1-0.5-3.1-0.9c0.7-0.4,0.1-0.9-0.4-1.2c-0.3-0.1-0.5-0.2-0.5-0.2c1-0.1,2.2-1.6,2.3-1.7c2.7-0.6,3.6-2.2,3.7-2.3
					c1.1-0.6,1.5-1.3,1.7-1.8c0.1,0,0.2,0.1,0.3,0.2c1.3,0.7,1.6,1.9-0.3,2.7c0,0-0.6,0.7-1.7,1.4c-0.6,0.4-1.4,0.7-2.3,0.9
					c0,0-0.2,0.3-0.7,0.6C48.3,161.1,48,161.3,47.5,161.3z"/>
			</g>
			<g>
				<path class="st26" d="M49.6,156c-3.1,0-3.9,1.5-4,1.6c-0.2,0.1-3.8,1.4-0.8,3.1c0,0,0,0,0.1,0c-0.1,0.5,0.3,0.9,0.9,1.3
					c1.1,0.6,2.9,1.1,4,1.3c-0.8-0.2-2.1-0.5-3.1-0.9c0.7-0.4,0.1-0.9-0.4-1.2c-0.3-0.1-0.5-0.2-0.5-0.2c1-0.1,2.2-1.6,2.3-1.7
					c2.7-0.6,3.6-2.2,3.7-2.3c1.1-0.6,1.5-1.3,1.7-1.8c-0.4-0.2-0.8-0.3-1.2-0.4C49.9,154.5,49.6,155.9,49.6,156z"/>
			</g>
			<g>
				<path class="st14" d="M53.7,170.2C53.7,170.2,53.7,170.2,53.7,170.2c0-0.2,0.1-0.4,0.2-0.5l0.1-0.2l2.5-2.7l0.2-0.2l0,0l0,0
					l0.1-0.1c0,0-0.5-0.6,0-1.3l-0.4-0.2c-1.1,0.1-2.7,0-4.4-0.7c-0.3,0.2-0.9,0.2-1.5-0.1c-0.1,0-0.1-0.1-0.2-0.1
					c-0.4-0.2-0.6-0.5-0.5-0.7c-1.1-0.2-2.9-0.7-4-1.3c-0.6-0.4-1-0.8-1-1.3c-3.1-1.8,0.6-3.1,0.8-3.1c0-0.1,0.9-1.6,4-1.6
					c0-0.1,0.3-1.5,2.6-1.1c0.4,0.1,0.8,0.2,1.2,0.4c0.1,0,0.2,0.1,0.3,0.2c0,0,0,0,0,0c0,0,0,0,0,0c0,0,0,0,0,0c0,0,0,0,0,0
					c0.5,0.3,0.9,0.7,0.9,1.2c0,0,0,0,0,0c0,0,0,0,0,0c0,0,0,0,0,0c0,0,0,0.1,0,0.1c0,0,0,0,0,0c0,0,0,0,0,0c0,0,0,0,0,0
					c0,0,0,0,0,0.1c0,0,0,0,0,0c0,0,0,0,0,0c0,0,0,0,0,0c0,0,0,0,0,0c0,0,0,0,0,0c0,0,0,0,0,0c0,0,0,0,0,0c0,0,0,0,0,0c0,0,0,0,0,0
					c0,0,0,0,0,0c0,0,0,0,0,0c0,0,0,0,0,0c0.9,0.6,1.7,1.3,2.3,1.7c0,0,0.1,0,0.1,0.1c0,0,0.1,0,0.1-0.1c0.3-0.1,0.8-0.1,1.2,0.1
					c0.1,0,0.1,0.1,0.2,0.1c0,0,0,0,0,0c0,0,0.1,0.1,0.1,0.1c0.2,0.2,0.4,0.4,0.4,0.5c0,0,0,0,0,0.1c0,0,0,0,0,0
					c0,0.1-0.1,0.2-0.2,0.3c1.3,1.1,1.5,1.9,1.3,2.6l0.4,0.2c1.2-0.3,2.2,0,2.2,0l0.2-0.1l5-1.6l0.3-0.1c0.5-0.2,1.2-0.2,1.8,0
					l3.6,0.9l-21.1-12.2l-18,10.5l7.8,4.5l13.5,7.8l-1.7-2.2C53.8,170.6,53.7,170.4,53.7,170.2z"/>
			</g>
			<g>
				<path class="st32" d="M56.8,159.1c-0.5-0.5-1.4-1.2-2.3-1.7c-0.1,0.1-0.2,0.2-0.3,0.3c0,0,0,0,0,0c0,0,0,0-0.1,0c0,0,0,0,0,0
					c0,0,0,0,0,0c0,0,0,0,0,0c0,0,0,0,0,0c0,0,0,0,0,0c0,0,0,0,0,0c0,0,0,0,0,0c0,0,0,0,0,0c0,0,0,0,0,0c0,0,0,0-0.1,0c0,0,0,0,0,0
					c0,0,0,0-0.1,0c0,0,0,0,0,0c0,0,0,0,0,0l2.8,1.3c-0.3-0.2-0.7-0.4-1.1-0.7l1,0.3C56.6,159,56.7,159,56.8,159.1z"/>
			</g>
			<g>
				<polygon class="st3" points="81.1,157.9 77.1,160.2 75.6,159.4 79.6,157.1 				"/>
			</g>
			<g>
				<polygon class="st13" points="122.1,166.5 100.3,179.2 99,178.4 120.8,165.7 				"/>
			</g>
			<g>
				<polygon class="st12" points="125.9,148.9 70.1,181.4 68.6,180.6 124.5,148.1 				"/>
			</g>
			<g>
				<polygon class="st12" points="130.3,151.5 74.5,183.9 73.1,183.1 128.9,150.7 				"/>
			</g>
			<g>
				<polygon class="st12" points="159,168.1 131.1,184.3 130,183.7 158,167.5 				"/>
			</g>
			<g>
				<polygon class="st12" points="162.3,170 134.3,186.2 133.3,185.6 161.2,169.3 				"/>
			</g>
			<g>
				<polygon class="st12" points="134.8,154.1 78.9,186.5 77.5,185.7 133.3,153.2 				"/>
			</g>
			<g>
				<polygon class="st12" points="143.6,159.2 87.8,191.6 86.4,190.8 142.2,158.4 				"/>
			</g>
			<g>
				<polygon class="st13" points="138,192.4 113.7,206.6 101.5,199.5 125.8,185.4 				"/>
			</g>
			<g>
				<path class="st14" d="M88.4,123.1l-63.1,36.7l89.9,51.9l63.1-36.7L88.4,123.1z M165.5,171.8l-28,16.3l-1-0.6l28-16.3
					L165.5,171.8 M162.3,170l-28,16.3l-1-0.6l28-16.3L162.3,170 M159,168.1l-28,16.3l-1-0.6l28-16.3L159,168.1 M111.2,140.5
					l-30.1,17.5l-4,2.3l-1.5-0.9l4-2.3l1.2,0.7l30.1-17.5L111.2,140.5 M108.8,151.7l-34,19.8l-2.1-1.2l34-19.8L108.8,151.7
					 M106.5,137.7l-30.1,17.5l-4,2.3l-1.5-0.9l4-2.3L76,155l30.1-17.5L106.5,137.7 M101.8,135l-30.1,17.5l-4,2.3l-1.5-0.9l4-2.3
					l1.2,0.7l30.1-17.5L101.8,135 M97,132.3L67,149.8l-4,2.3l-1.5-0.9l4-2.3l1.2,0.7l30.1-17.5L97,132.3 M89.9,128.2l2.1,1.2
					l-34,19.8l-2.1-1.2L89.9,128.2 M57,173.9l-23.1-13.3l6.8-3.9l11.7-6.8l23,13.3l0.1,0.1L57,173.9L57,173.9 M68.6,180.6l55.8-32.4
					l1.4,0.8l-55.8,32.4L68.6,180.6 M73.1,183.1l55.8-32.4l1.4,0.8l-55.8,32.4L73.1,183.1 M77.5,185.7l55.8-32.4l1.4,0.8l-55.8,32.4
					L77.5,185.7 M122.1,166.5l-21.8,12.7l-1.3-0.8l21.8-12.7L122.1,166.5 M86.4,190.8l55.8-32.4l1.4,0.8l-55.8,32.4L86.4,190.8
					 M90.8,193.4l55.8-32.4l1.4,0.8l-55.8,32.4L90.8,193.4 M95.3,195.9l55.8-32.4l1.4,0.8l-55.8,32.4L95.3,195.9 M113.7,206.6
					l-12.2-7l24.3-14.1l12.2,7L113.7,206.6 M139.8,189.4l28-16.3l1,0.6l-28,16.3L139.8,189.4"/>
			</g>
			<g>
				<polygon class="st3" points="67,149.8 63,152.1 61.5,151.2 65.5,148.9 				"/>
			</g>
			<g>
				<polygon class="st3" points="101.8,135 71.7,152.5 71.3,152.3 101.4,134.8 				"/>
			</g>
			<g>
				<path class="st26" d="M54.2,155.8c0.1,0.1,0.2,0.2,0.3,0.3C54.4,156,54.3,155.9,54.2,155.8z"/>
			</g>
			<g>
				<path class="st26" d="M54.6,156.4c0,0,0-0.1-0.1-0.1C54.6,156.3,54.6,156.3,54.6,156.4z"/>
			</g>
			<g>
				<path class="st26" d="M54.6,157.3C54.6,157.3,54.6,157.3,54.6,157.3C54.6,157.4,54.5,157.4,54.6,157.3
					C54.5,157.4,54.6,157.3,54.6,157.3z"/>
			</g>
			<g>
				<polygon class="st3" points="111.2,140.5 81.1,157.9 80.8,157.7 110.8,140.3 				"/>
			</g>
			<g>
				<path class="st1" d="M57.9,160.3c-0.2-0.1-0.4-0.1-0.5-0.2c-0.1,0-0.1-0.1-0.2-0.1c-0.3-0.2-0.4-0.4-0.4-0.6
					C57.3,159.8,57.7,160.1,57.9,160.3z"/>
			</g>
			<g>
				<path class="st1" d="M55.1,162.1l-0.5,0.3c-0.7,0.4-1.4,0.8-1.1,1.4l0.1,0.3c0,0-0.5,0-1.6-0.4c-0.1-0.1-0.2-0.2-0.4-0.3
					c-0.1,0-0.1-0.1-0.2-0.1c-0.3-0.2-0.7-0.2-1-0.2c-0.3-0.2-0.7-0.4-1.1-0.6c-1-0.6-1.8-1.2-1.8-1.2c0.5-0.1,0.9-0.2,1.1-0.4
					c0.5-0.3,0.7-0.6,0.7-0.6c0.9-0.2,1.7-0.5,2.3-0.9c1.1-0.6,1.7-1.3,1.7-1.4c0.1-0.1,0.3-0.1,0.4-0.2l2.8,1.3
					c0.1,0.1,0.2,0.1,0.2,0.2c0,0.2,0.2,0.4,0.4,0.6c0.1,0,0.1,0.1,0.2,0.1c0.2,0.1,0.3,0.2,0.5,0.2c0.6,0.6,0.6,0.9,0.6,0.9
					l-0.6-0.1c-1-0.1-1.7,0.2-2.4,0.7L55.1,162.1z"/>
			</g>
			<g>
				<path class="st31" d="M72.7,164.2L72.7,164.2c0,0,0.1,0,0.3,0.1l0,0L72.7,164.2z"/>
			</g>
			<g>
				<path class="st1" d="M50.5,163.5c0.5,0.3,1,0.6,1.5,0.8c-0.3,0.2-0.9,0.2-1.5-0.1c-0.1,0-0.1-0.1-0.2-0.1
					c-0.4-0.2-0.6-0.5-0.5-0.7C50.1,163.4,50.3,163.5,50.5,163.5z"/>
			</g>
			<g>
				<path class="st32" d="M58.9,164.3c-0.2,0.1-1,0.6-2.4,0.7c-1.1,0.1-2.7,0-4.4-0.7c-0.5-0.2-1-0.5-1.5-0.8c0.2,0,0.3,0.1,0.3,0.1
					c-0.4-0.3-1-0.7-1.4-1c0.4,0.2,0.8,0.4,1.1,0.6c0.6,0.3,1.1,0.5,1.5,0.6c1.1,0.4,1.6,0.4,1.6,0.4l-0.1-0.3
					c-0.2-0.6,0.4-1,1.1-1.4l0.5-0.3l0.5-0.3c0.7-0.4,1.4-0.8,2.4-0.7l0.6,0.1c0,0,0-0.3-0.6-0.9c-0.2-0.2-0.6-0.5-1.1-0.9
					c-0.1-0.1-0.2-0.1-0.2-0.2c-0.3-0.2-0.7-0.4-1.1-0.7l1,0.3c0.1,0.1,0.3,0.1,0.4,0.2c0,0,0.1,0,0.1,0.1c0.2,0.1,0.3,0.2,0.5,0.3
					c0.5,0.3,1,0.6,1.3,0.9c1.3,1.1,1.5,1.9,1.3,2.6C59.8,163.7,59,164.2,58.9,164.3z M55.7,164.6c0.1,0,1.4,0,2.5-0.7
					c1.2-0.7,1.2-1.4,1.2-1.5c-0.1-0.1-1.9-1-3.7,0C53.9,163.6,55.6,164.6,55.7,164.6"/>
			</g>
			<g>
				<path class="st33" d="M60.4,165.2c0,0,0.5-0.1,1.3-0.1l0.1,0.2C61,165.2,60.4,165.2,60.4,165.2z"/>
			</g>
			<g>
				<path class="st34" d="M62.9,163.6c0.5,0.7,0.8,2,0.9,2c-0.7-0.2-1.4-0.3-1.9-0.4l-0.1-0.2c0.4,0,1,0.1,1.6,0.2
					C63.2,164.5,63,164,62.9,163.6z"/>
			</g>
			<g>
				<path class="st33" d="M60.4,165.2c0,0-0.1,0.3,0.1,0.8l-0.3-0.1C60.2,165.5,60.4,165.2,60.4,165.2z"/>
			</g>
			<g>
				<polygon class="st23" points="67.9,161.5 72.7,164.2 73,164.4 69.8,166.3 69.6,165.9 67.7,165.7 68.5,164.7 63.8,162.8 
					62.9,163.1 				"/>
			</g>
			<g>
				<path class="st14" d="M60.4,165.2c0,0-0.3,0.3-0.2,0.7c0,0.3,0.1,0.6,0.4,0.9c-1.3-0.1-2.3-0.2-2.9-0.2
					c-0.5-0.1-0.8-0.1-0.8-0.1c0,0-0.5-0.6,0-1.3C58.4,165.5,60.3,165.2,60.4,165.2z"/>
			</g>
			<g>
				<path class="st34" d="M60.2,166l0.3,0.1c0.1,0.3,0.3,0.7,0.7,1.1c-0.1,0-2.2-0.2-3.5-0.5c0.6,0.1,1.6,0.2,2.9,0.2
					C60.3,166.5,60.2,166.2,60.2,166z"/>
			</g>
			<g>
				<polygon class="st13" points="108.8,151.7 74.7,171.5 72.6,170.3 106.7,150.5 				"/>
			</g>
			<g>
				<polygon class="st12" points="165.5,171.8 137.6,188.1 136.5,187.5 164.5,171.2 				"/>
			</g>
			<g>
				<polygon class="st12" points="168.8,173.7 140.8,190 139.8,189.4 167.8,173.1 				"/>
			</g>
			<g>
				<polygon class="st12" points="148.1,161.7 92.2,194.2 90.8,193.4 146.6,160.9 				"/>
			</g>
			<g>
				<polygon class="st12" points="152.5,164.3 96.7,196.7 95.3,195.9 151.1,163.5 				"/>
			</g>
		</g>
	</g>
</g>
<g>
	<polygon class="st0" points="116.2,200.2 208.4,253.4 273.8,215.4 181.6,162.2 	"/>
	<g>
		<g>
			<path class="st5" d="M148.6,201c0.3,0.2,0.1,0.6,0.1,0.6c0,0-0.1-0.3-0.3-0.4c0,0,0,0,0,0c-0.2-0.1-1.4-0.5-1.4-0.5
				C147,200.6,148.3,200.9,148.6,201C148.6,201,148.6,201,148.6,201z"/>
		</g>
		<g class="st2">
			<g>
				<polygon class="st13" points="185.2,168.9 151.2,188.6 149.1,187.4 183.1,167.7 				"/>
			</g>
			<g>
				<polygon class="st3" points="190.2,171.8 160.2,189.2 159.8,189 189.9,171.6 				"/>
			</g>
			<g>
				<polygon class="st3" points="164.9,192 160.9,194.3 159.4,193.4 163.4,191.1 				"/>
			</g>
			<g>
				<polygon class="st3" points="199.7,177.2 169.6,194.7 169.2,194.5 199.3,177 				"/>
			</g>
			<g>
				<path class="st35" d="M147.2,196.1c0.2,0.2,0.2,0.2,0.1,0.3C147.4,196.4,147.4,196.3,147.2,196.1z"/>
			</g>
			<g>
				<polygon class="st3" points="169.6,194.7 165.6,197 164.1,196.1 168.1,193.8 				"/>
			</g>
			<g>
				<polygon class="st3" points="204.4,179.9 174.3,197.4 174,197.2 204,179.7 				"/>
			</g>
			<g>
				<path class="st36" d="M147.4,197.6c-0.5-0.3-1.4-0.3-1.9-0.1C146,197.3,146.9,197.3,147.4,197.6z"/>
			</g>
			<g>
				<path class="st1" d="M145,203.4C145,203.4,145,203.4,145,203.4c-0.2,0.2-0.6,0.5-2.4-0.4c0,0-0.1,0-0.1-0.1
					c-0.4-0.2-0.5-0.5-0.4-0.6c0.1-0.1,0.4-0.2,0.9,0l0.4,0.2L145,203.4z"/>
			</g>
			<g>
				<path class="st35" d="M147,195.9c0.1,0.1,0.2,0.2,0.3,0.2C147.2,196.1,147.1,196,147,195.9z"/>
			</g>
			<g>
				<path class="st35" d="M147.3,196.5c0.2,0.1,0.3,0.2,0.4,0.2c0.8,0.5,1.4,0.9,1.8,1.3c-0.4-0.4-1-0.9-1.8-1.3
					C147.6,196.6,147.5,196.6,147.3,196.5z"/>
			</g>
			<g>
				<polygon class="st6" points="149.1,205.3 149.1,205.3 149.1,205.3 				"/>
			</g>
			<g>
				<path class="st27" d="M159.5,204.5l1.8,0.2l0.7,1.5l-1.3,0.7l-3.2-2.5l-2.8-2.3c0-0.1,0-0.1,0-0.1c0,0,0,0-0.1,0l0,0l1-0.4
					c0,0,0.1,0,0.1,0l4.5,1.9L159.5,204.5z"/>
			</g>
			<g>
				<path class="st1" d="M150.7,198.4c1.5,1,1,1.2,0.7,1.3c0,0-0.1,0-0.1,0l-1.4-0.9l-0.4-0.2c-0.3-0.3-0.3-0.5,0-0.5
					c0.2,0,0.6,0,1,0.3C150.6,198.3,150.6,198.3,150.7,198.4z"/>
			</g>
			<g>
				<path class="st23" d="M161.8,200.2l3.9,1l2.5,1.5l-2.4,1.4c-0.8-0.4-1.5-0.8-1.6-0.8l-4.7-2.9l0.6-0.2
					C160.5,200.1,161.2,200.1,161.8,200.2z"/>
			</g>
			<g>
				<path class="st33" d="M152.6,204.1c0,0,0.5-0.2,1.3-0.1l0.1,0.2C153.1,204,152.6,204.1,152.6,204.1z"/>
			</g>
			<g>
				<path class="st6" d="M154.7,202.2c0,0.1,0.1,0.2,0.1,0.3c0.1,0.3,0.3,0.9,0.4,1.6c-0.5-0.1-1-0.2-1.4-0.2
					c-0.8,0-1.3,0.1-1.3,0.1c0-0.1,0.5-1.1,0-2c0.9-0.2,1.8-0.1,2,0C154.7,202.1,154.7,202.1,154.7,202.2
					C154.7,202.1,154.7,202.2,154.7,202.2z"/>
			</g>
			<g>
				<path class="st15" d="M152.6,202.1c0.4,0.9,0,1.9,0,2c-0.1,0-1.9,0.3-3.4,0l-0.4-0.2c0.2,0,0.4-0.1,0.7-0.1
					c0.6-0.1,1.1-0.3,1.6-0.6c0.5-0.3,0.8-0.6,1-0.9c0.1-0.1,0.1-0.3,0.2-0.4L152.6,202.1z"/>
			</g>
			<g>
				<path class="st22" d="M155.3,204.1c-0.1-0.7-0.3-1.3-0.4-1.6c0.5,0.7,0.8,1.9,0.8,1.9c-0.6-0.2-1.2-0.3-1.7-0.4l-0.1-0.2
					C154.3,204,154.8,204,155.3,204.1z"/>
			</g>
			<g>
				<path class="st33" d="M152.6,204.1c0,0-0.1,0.3,0.1,0.8l-0.3-0.1C152.3,204.4,152.5,204.1,152.6,204.1z"/>
			</g>
			<g>
				<path class="st6" d="M152.6,204.1c0,0-0.3,0.3-0.2,0.8c0,0.2,0.1,0.5,0.3,0.8c-1.2-0.1-2.2-0.2-2.7-0.2c-0.3,0-0.5-0.1-0.6-0.1
					c-0.1,0-0.1,0-0.1,0c0,0,0,0,0-0.1c-0.1-0.2-0.4-0.7,0-1.2C150.6,204.4,152.5,204.1,152.6,204.1z"/>
			</g>
			<g>
				<polygon class="st23" points="159.4,200.4 164.1,203.3 165.6,204.2 162.4,206.1 161.8,204.5 159.9,204.3 160.8,203.4 
					155.7,201.7 				"/>
			</g>
			<g>
				<polygon class="st31" points="159.9,204.3 161.8,204.5 162.4,206.1 162,206.3 161.3,204.7 159.5,204.5 160.2,203.6 155.7,201.7 
					160.8,203.4 				"/>
			</g>
			<g>
				<polygon class="st8" points="160.6,207.1 157.6,204.5 160.7,207 				"/>
			</g>
			<g>
				<path class="st6" d="M154.7,202.2l2.8,2.3l3.1,2.6l-0.7,0.4l-5.7-2.9l-0.3-0.4c0.5,0.1,1.1,0.2,1.7,0.4c0-0.1-0.4-1.2-0.8-1.9
					C154.8,202.4,154.8,202.3,154.7,202.2z"/>
			</g>
			<g>
				<path class="st30" d="M154.3,204.6c0,0-0.6,0.2-0.6,0.4c0,0.1,2.8,1.9,5,3.3l-0.2,0.1l-5-3.3l-0.8-0.2c-0.2-0.5-0.1-0.8-0.1-0.8
					c0,0,0.6-0.1,1.4,0L154.3,204.6z"/>
			</g>
			<g>
				<path class="st6" d="M149.3,205.4c0.1,0,0.3,0,0.6,0.1c1.2,0.3,3.2,0.5,3.3,0.5c-0.3-0.4-0.5-0.7-0.6-1l0.8,0.2l5,3.3l-0.7,0.4
					l-4.6-1.8L149.3,205.4z"/>
			</g>
			<g>
				<polygon class="st8" points="157.6,208.8 153.2,207 157.7,208.8 				"/>
			</g>
			<g>
				<polygon class="st31" points="153.3,208.1 153.7,209.1 156.4,209.6 156,209.8 153.3,209.5 153,208.3 151.5,208.9 148.5,205.9 
					151.8,208.5 				"/>
			</g>
			<g>
				<polygon class="st23" points="153,208.3 153.3,209.5 156,209.8 152.8,211.6 151.2,210.8 146.2,208.1 148.5,205.9 151.5,208.9 
									"/>
			</g>
			<g>
				<path class="st31" d="M152.7,211.7c-0.8-0.5-1.3-0.9-1.4-0.9l1.5,0.8L152.7,211.7z"/>
			</g>
			<g>
				<path class="st12" d="M168.5,202.6l0.1,0.1l-18.4,10.7l-23.1-13.3l18.4-10.7L168.5,202.6z M165.7,204.1l2.4-1.4l-2.5-1.5
					l-20.1-11.6l-18,10.5l20.2,11.7l2.4,1.4l2.5-1.4l0.1-0.1l3.2-1.9l0.3-0.2l1.3-0.7l0.1-0.1l0.7-0.4l0.2-0.1l1.3-0.8l0.7-0.4
					l0.1-0.1l1.3-0.7l0.3-0.2l3.2-1.9L165.7,204.1"/>
			</g>
			<g>
				<path class="st27" d="M149.3,205.4l3.9,1.6l4.5,1.9l-1.3,0.7l-2.7-0.4l-0.4-1l-1.6,0.4l-3.3-2.6c0,0,0-0.1,0-0.1l0.6-0.6l0,0
					c0,0,0,0.1,0,0.1C149.2,205.3,149.2,205.3,149.3,205.4z"/>
			</g>
			<g>
				<path class="st14" d="M159.4,200.4l0.6-0.2c0.4-0.1,0.8-0.1,1.2-0.1c0.2,0,0.4,0,0.5,0.1l3.9,1l-20.1-11.6l-18,10.5l20.2,11.7
					l-1.9-2.3c-0.3-0.3-0.2-0.7,0-1l0.3-0.3l2.3-2.1c0,0,0,0,0-0.1l0.7-0.6c-0.1-0.2-0.4-0.7,0-1.2l-0.4-0.2c-1.3,0.1-2.6,0-3.8-0.4
					c-0.1,0.2-0.6,0.5-2.3-0.4c0,0-0.1,0-0.1-0.1c-0.4-0.2-0.5-0.5-0.6-0.7c-0.7-0.3-1.7-0.7-2.5-1.1c-2-1.1-3.4-2.8-0.1-4.7
					c1.4-0.8,3.1-1.1,4.2-1.1c0.8,0,1.3,0.1,1.9-0.1c0.2-0.1,0.5-0.1,0.9,0.1c0.1,0.1,0.2,0.1,0.3,0.2c0.3,0.3,0.5,0.4,0.6,0.5
					c0.2,0.2,0.2,0.2,0.1,0.3c0.2,0.1,0.3,0.2,0.4,0.2c0.8,0.5,1.4,0.9,1.8,1.3c0.2,0,0.6,0,1,0.3c0,0,0.1,0,0.1,0.1
					c1.5,1,1,1.2,0.7,1.3c0.7,0.7,1,1.5,0.8,2.2l0.4,0.2c0.9-0.2,1.8-0.1,2,0l1-0.4c0,0,0.1,0,0.1,0L159.4,200.4L159.4,200.4z"/>
			</g>
			<g>
				<path class="st36" d="M139.4,201.1C139.4,201.1,139.4,201.2,139.4,201.1c0.9,0.5,1.8,0.9,2.6,1.2
					C141.2,202,140.3,201.6,139.4,201.1c-1.9-1.1-3.3-2.8-0.1-4.7c1.4-0.8,3.1-1.1,4.2-1.1c0.8,0,1.3,0.1,1.9-0.1
					c0.2-0.1,0.5-0.1,0.9,0.1c0.1,0.1,0.2,0.1,0.3,0.2c-0.1-0.1-0.2-0.2-0.3-0.2c-0.2-0.1-0.4-0.2-0.6-0.2c-0.1,0.1-1.1,1.4-3.5,2.8
					c-0.8,0.5-1.8,0.9-2.6,1.3C138.6,199.8,138.5,200.6,139.4,201.1z"/>
			</g>
			<g>
				<path class="st25" d="M143.2,202.2c0.2,0.1,0.3,0.3,0.2,0.4l-0.4-0.2c-0.5-0.2-0.8-0.2-0.9,0c0,0,0,0-0.1,0c0,0,0,0,0,0
					c0,0,0,0-0.1,0c-0.7-0.3-1.7-0.7-2.5-1.1c0,0-0.1,0-0.1,0c-0.8-0.5-0.7-1.3,0.2-1.7c0.9-0.4,1.8-0.8,2.6-1.3
					c2.4-1.4,3.5-2.8,3.5-2.8c0.2,0,0.3,0.1,0.6,0.2c0.1,0.1,0.2,0.1,0.3,0.2c0.3,0.3,0.5,0.4,0.6,0.5c0,0-0.7,0.6-1.6,1
					c0,0,1-0.3,1.7-0.7c0.2,0.1,0.3,0.2,0.4,0.2c0.8,0.4,1.4,0.9,1.8,1.3c-0.3,0-0.3,0.2,0,0.5l0.4,0.2c-0.2,0-0.5,0-0.7-0.1
					l-1.3-0.8c-0.1,0-0.2-0.1-0.5-0.3c-0.6-0.3-1.4-0.3-1.9,0l-3.7,2.2c-0.7,0.4-1.3,0.8,0.1,1.6l0.2,0.1L143.2,202.2z"/>
			</g>
			<g>
				<path class="st15" d="M147.4,197.6c0.2,0.1,0.4,0.2,0.5,0.3l0.2,0.1c0,0-0.8-0.4-1.5-0.4c-0.6,0.1-1.7,0.7-2.8,1.4
					c-1.1,0.6-2.2,1.3-2.4,1.6c-0.1,0.4,0.6,0.8,0.6,0.9l-0.1-0.1c-1.4-0.8-0.9-1.2-0.1-1.6l3.7-2.2
					C146,197.3,146.9,197.3,147.4,197.6z"/>
			</g>
			<g>
				<path class="st1" d="M152,202.3c0.1-0.1,0.1-0.3,0.2-0.4c0.2-0.7-0.1-1.5-0.8-2.2c0,0-0.1,0-0.1,0l-1.4-0.9
					c-0.2,0-0.5,0-0.7-0.1L148,198c0,0-0.8-0.4-1.5-0.4c-0.6,0.1-1.7,0.7-2.8,1.4c-1.1,0.6-2.2,1.3-2.4,1.6
					c-0.1,0.4,0.6,0.8,0.6,0.9l1.2,0.7c0.2,0.1,0.3,0.3,0.2,0.4l1.6,0.8c0,0,0,0,0,0.1c1.2,0.4,2.5,0.6,3.8,0.4
					c0.2,0,0.4-0.1,0.7-0.1c0.6-0.1,1.1-0.3,1.6-0.6C151.5,203,151.8,202.6,152,202.3z M148.6,201.6c0,0-0.1-0.3-0.3-0.4
					c0,0,0,0,0,0c-0.2-0.1-1.4-0.5-1.4-0.5c0.1,0,1.4,0.2,1.7,0.4c0,0,0,0,0,0C148.9,201.2,148.6,201.6,148.6,201.6"/>
			</g>
			<g>
				<polygon class="st13" points="202,191.1 167.9,210.9 165.8,209.7 199.9,189.9 				"/>
			</g>
			<g>
				<polygon class="st12" points="223.5,191 167.7,223.4 166.3,222.6 222.1,190.2 				"/>
			</g>
			<g>
				<polygon class="st12" points="255.5,209.4 227.5,225.7 226.5,225.1 254.4,208.8 				"/>
			</g>
			<g>
				<polygon class="st12" points="258.7,211.3 230.8,227.6 229.7,227 257.7,210.7 				"/>
			</g>
			<g>
				<polygon class="st12" points="262,213.2 234,229.4 233,228.8 260.9,212.6 				"/>
			</g>
			<g>
				<polygon class="st12" points="236.8,198.7 181,231.1 179.6,230.3 235.4,197.8 				"/>
			</g>
			<g>
				<polygon class="st12" points="241.3,201.2 185.4,233.7 184,232.8 239.8,200.4 				"/>
			</g>
			<g>
				<polygon class="st12" points="245.7,203.8 189.9,236.2 188.5,235.4 244.3,203 				"/>
			</g>
			<g>
				<path class="st14" d="M181.6,162.5l-63.1,36.7l89.9,51.9l63.1-36.7L181.6,162.5z M258.7,211.3l-28,16.3l-1-0.6l28-16.3
					L258.7,211.3 M255.5,209.4l-28,16.3l-1-0.6l28-16.3L255.5,209.4 M252.2,207.5l-28,16.3l-1-0.6l28-16.3L252.2,207.5 M204.4,179.9
					l-30.1,17.5l-4,2.3l-1.5-0.9l4-2.3l1.2,0.7l30.1-17.5L204.4,179.9 M202,191.1l-34,19.8l-2.1-1.2l34-19.8L202,191.1 M199.7,177.2
					l-30.1,17.5l-4,2.3l-1.5-0.9l4-2.3l1.2,0.7l30.1-17.5L199.7,177.2 M195,174.5L164.9,192l-4,2.3l-1.5-0.9l4-2.3l1.2,0.7
					l30.1-17.5L195,174.5 M190.2,171.8l-30.1,17.5l-4,2.3l-1.5-0.9l4-2.3l1.2,0.7l30.1-17.5L190.2,171.8 M183.1,167.7l2.1,1.2
					l-34,19.8l-2.1-1.2L183.1,167.7 M127.1,200.1l18.4-10.7l23,13.3l0.1,0.1l-18.4,10.7L127.1,200.1 M161.8,220l55.8-32.4l1.4,0.8
					l-55.8,32.4L161.8,220 M166.3,222.6l55.8-32.4l1.4,0.8l-55.8,32.4L166.3,222.6 M170.7,225.1l55.8-32.4l1.4,0.8L172.1,226
					L170.7,225.1 M215.3,206l-21.8,12.7l-1.3-0.8l21.8-12.7L215.3,206 M179.6,230.3l55.8-32.4l1.4,0.8L181,231.1L179.6,230.3
					 M184,232.8l55.8-32.4l1.4,0.8l-55.8,32.4L184,232.8 M188.5,235.4l55.8-32.4l1.4,0.8l-55.8,32.4L188.5,235.4 M206.9,246l-12.2-7
					l24.3-14.1l12.2,7L206.9,246 M233,228.8l28-16.3l1,0.6l-28,16.3L233,228.8"/>
			</g>
			<g>
				<polygon class="st3" points="160.2,189.2 156.2,191.5 154.7,190.7 158.7,188.4 				"/>
			</g>
			<g>
				<polygon class="st3" points="195,174.5 164.9,192 164.5,191.8 194.6,174.3 				"/>
			</g>
			<g>
				<path class="st37" d="M147.2,196.1c0.2,0.2,0.2,0.2,0.1,0.3c0,0,0,0,0,0C147.4,196.4,147.4,196.3,147.2,196.1z"/>
			</g>
			<g>
				<path class="st38" d="M147.2,196.1c0.2,0.2,0.2,0.2,0.1,0.3c-0.7,0.4-1.6,0.7-1.7,0.7C146.5,196.8,147.2,196.2,147.2,196.1z"/>
			</g>
			<g>
				<path class="st39" d="M147.4,197.6c0.2,0.1,0.4,0.2,0.5,0.3l0,0C147.8,197.9,147.6,197.8,147.4,197.6z"/>
			</g>
			<g>
				<polygon class="st3" points="174.3,197.4 170.3,199.7 168.8,198.8 172.8,196.5 				"/>
			</g>
			<g>
				<path class="st31" d="M165.6,204.2l-1.5-0.9c0.1,0,0.7,0.4,1.6,0.8L165.6,204.2z"/>
			</g>
			<g>
				<path class="st22" d="M152.3,204.9l0.3,0.1c0.1,0.3,0.3,0.6,0.6,1c-0.1,0-2.1-0.2-3.3-0.5c0.6,0.1,1.5,0.2,2.7,0.2
					C152.4,205.4,152.4,205.1,152.3,204.9z"/>
			</g>
			<g>
				<path class="st29" d="M153.6,204.9c0-0.2,0.6-0.4,0.6-0.4l5.7,2.9l-1.3,0.8C156.4,206.8,153.6,205,153.6,204.9z"/>
			</g>
			<g>
				<polygon class="st13" points="215.3,206 193.5,218.6 192.2,217.9 214,205.2 				"/>
			</g>
			<g>
				<polygon class="st12" points="219.1,188.4 163.3,220.8 161.8,220 217.7,187.6 				"/>
			</g>
			<g>
				<polygon class="st12" points="252.2,207.5 224.3,223.8 223.2,223.2 251.2,206.9 				"/>
			</g>
			<g>
				<polygon class="st12" points="227.9,193.5 172.1,226 170.7,225.1 226.5,192.7 				"/>
			</g>
			<g>
				<polygon class="st13" points="231.2,231.9 206.9,246 194.7,239 219,224.9 				"/>
			</g>
		</g>
		<g>
			<path class="st23" d="M146.2,208.1l5,2.7c0.1,0,0.7,0.4,1.4,0.9l-2.5,1.4l-2.4-1.4l-1.9-2.3c-0.3-0.3-0.2-0.7,0-1L146.2,208.1z"
				/>
		</g>
	</g>
</g>
</svg>
