<?xml version="1.0" encoding="utf-8"?>
<!-- Generator: Adobe Illustrator 22.1.0, SVG Export Plug-In . SVG Version: 6.00 Build 0)  -->
<svg version="1.1" id="Layer_1" xmlns="http://www.w3.org/2000/svg" xmlns:xlink="http://www.w3.org/1999/xlink" x="0px" y="0px"
	 viewBox="0 0 274 257" style="enable-background:new 0 0 274 257;" xml:space="preserve">
<style type="text/css">
	.st0{fill:#141414;}
	.st1{fill:#2D2D2D;}
	.st2{fill:#FAEB40;}
	.st3{fill:#1F2032;}
	.st4{fill:#E9DB3C;}
	.st5{fill:#4D4511;}
	.st6{fill:#DEC930;}
	.st7{fill:#242424;}
	.st8{fill:#171717;}
	.st9{fill:#D9CC38;}
	.st10{fill:#C3C4C4;}
	.st11{fill:#9EA0A1;}
	.st12{fill:#BCBEC0;}
	.st13{fill:#E20306;}
	.st14{fill:#E6E7E8;}
	.st15{fill:#F1F2F2;}
	.st16{fill:#AC9782;}
	.st17{fill:#ABA2A1;}
	.st18{fill:#CAC0BE;}
	.st19{fill:#FFEA99;}
	.st20{fill:#C3B375;}
	.st21{fill:#CF0305;}
	.st22{enable-background:new    ;}
	.st23{fill:#858585;}
	.st24{fill:#969696;}
	.st25{fill:#C2C2C2;}
	.st26{fill:#B3B3B3;}
	.st27{fill:#313634;}
	.st28{fill:#202422;}
	.st29{fill:#C7C9BC;}
	.st30{fill:#A2A399;}
	.st31{fill:#B4B5AA;}
	.st32{fill:#86877E;}
	.st33{fill:#9B9C92;}
	.st34{fill:#C90000;}
	.st35{fill:url(#SVGID_1_);}
	.st36{fill:url(#SVGID_2_);}
	.st37{fill:#5D5D5E;}
	.st38{fill:#505051;}
	.st39{fill:url(#SVGID_3_);}
	.st40{fill:url(#SVGID_4_);}
	.st41{fill:#414042;}
	.st42{fill:#555457;}
	.st43{fill:#EAD8B0;}
	.st44{fill:#363731;}
	.st45{fill:#A2A19D;}
	.st46{fill:#44453D;}
	.st47{fill:#B7EEC5;}
	.st48{fill:#FF774A;}
	.st49{fill:#111111;}
	.st50{fill:#E04C1B;}
	.st51{fill:#F35D2C;}
	.st52{fill:#BD2B06;}
	.st53{fill:#D63107;}
	.st54{fill:#C12C07;}
	.st55{fill:#781B04;}
	.st56{fill:#086FBC;}
	.st57{fill:#0763A8;}
	.st58{fill:#06538C;}
	.st59{fill:#2B2B2B;}
	.st60{fill:#231F20;}
	.st61{fill:#99C7A5;}
	.st62{fill:#A5D6B1;}
</style>
<g>
	<path class="st0" d="M33.9,191.5l6.4-3.8c1.8-1,3.2-3.5,3.2-5.5l-12.8,7.5C30.7,191.7,32.1,192.5,33.9,191.5z"/>
	<path class="st1" d="M30.7,189.7l12.8-7.5l-28.2-16l-12.8,7.5c0,1,0.3,1.7,0.9,2l0,0l0,0c0,0,0,0,0,0l28.1,16l0,0
		C31,191.4,30.7,190.7,30.7,189.7z"/>
	<path class="st2" d="M30.6,189.7l0.9-17.2c0.5-10.1-6.1-22.9-14.8-27.9c-8.7-5-15.3,0.1-14.8,10.8l0.9,18.2L30.6,189.7z"/>
	<path class="st3" d="M27.7,169.6c0,7.1-5,10-11.1,6.4c-6.1-3.5-11.1-12.2-11.1-19.2c0-7.1,5-10,11.1-6.4
		C22.8,153.8,27.7,162.5,27.7,169.6z"/>
	<path class="st4" d="M29.5,137.2c-4-2.3-7.5-2.5-10.1-1l0,0l-0.2,0.1c0,0-0.1,0-0.1,0l-12.5,7.2l0,0c2.6-1.4,6.1-1.2,10,1
		c8.7,5,15.3,17.8,14.8,27.9l-0.9,17.2l12.9-7.4l0.9-17.2C44.8,155,38.2,142.2,29.5,137.2z"/>
	<polygon class="st5" points="33.4,183.2 33.4,186 41,181.6 41.1,178.8 	"/>
	<path class="st6" d="M31,140.6l-8.2,4.8c4.3,4.1,7.7,9.7,9.6,15.6l8.4-4.8C39,150.2,35.4,144.3,31,140.6z"/>
	<g>
		<path class="st1" d="M33.9,144.6l-3.7,2.2c1.9,1.8,3.5,4.4,4.4,7.1l3.8-2.2C37.6,149,35.9,146.3,33.9,144.6z"/>
		<polygon class="st7" points="33.9,144.6 31.3,145 26.5,147.8 30.2,146.8 		"/>
		<path class="st8" d="M30.2,146.8l-3.6,1c2.4,2.3,4.4,5.6,5.5,8.9l2.5-2.8C33.7,151.2,32.1,148.6,30.2,146.8z"/>
		<polygon class="st7" points="34.5,153.9 32.1,156.7 36.8,153.9 38.3,151.7 		"/>
	</g>
	<g>
		<polygon class="st9" points="54.2,195.2 33.9,183.4 40.1,179.8 60.5,191.6 		"/>
		<polygon class="st10" points="57,196.8 54.2,195.2 60.5,191.6 63.3,193.2 		"/>
		<polygon class="st11" points="57.8,199.6 57,196.8 63.3,193.2 62.5,196.9 		"/>
	</g>
</g>
<g>
	<path class="st12" d="M166.2,8.7c-8.9-5.1-23.2-5.1-32.1,0c-5.5,3.2-7.6,7.5-6.3,11.6c0.1-0.4,0.3-0.8,0.5-1.3l0.8,3.3h41.5
		l1.1-3.5c0.3,0.5,0.5,1,0.6,1.5C173.7,16.3,171.6,11.9,166.2,8.7z"/>
	<path class="st13" d="M165.2,32.1c-8.3,4.8-21.8,4.8-30.2,0c-8.3-4.8-8.3-12.6,0-17.4c8.3-4.8,21.8-4.8,30.2,0
		C173.5,19.4,173.5,27.2,165.2,32.1z"/>
	<path class="st12" d="M172.8,18c0,3.4-2.2,6.7-6.6,9.3c-8.9,5.1-23.2,5.1-32.1,0c-4.4-2.6-6.6-5.9-6.6-9.3l0,0v37.2
		c0,3.4,2.2,6.7,6.6,9.3c8.9,5.1,23.2,5.1,32.1,0c4.4-2.6,6.6-5.9,6.6-9.3V18L172.8,18z"/>
	<path class="st13" d="M172.8,22.4c0,3.4-2.2,6.7-6.6,9.3c-8.9,5.1-23.2,5.1-32.1,0c-4.4-2.6-6.6-5.9-6.6-9.3l0,0V51
		c0,3.4,2.2,6.7,6.6,9.3c8.9,5.1,23.2,5.1,32.1,0c4.4-2.6,6.6-5.9,6.6-9.3V22.4L172.8,22.4z"/>
	<path class="st14" d="M164.9,9.5c-4.1-2.4-9.4-3.5-14.8-3.5v1.3c5.3,0,10.3,1.2,14.1,3.4c3.5,2,5.4,4.6,5.4,7.4
		c0,2.7-1.9,5.3-5.4,7.4c-3.7,2.2-8.7,3.4-14.1,3.4c-5.3,0-10.3-1.2-14.1-3.4c-3.5-2-5.4-4.6-5.4-7.4c0-2.7,1.9-5.3,5.4-7.4
		c3.7-2.2,8.7-3.4,14.1-3.4l0-1.3c0,0,0,0,0,0c-5.3,0-10.7,1.2-14.8,3.5c-8.1,4.7-8.1,12.3,0,17c4.1,2.4,9.4,3.5,14.8,3.5
		c5.3,0,10.7-1.2,14.8-3.5C173,21.8,173,14.2,164.9,9.5z"/>
	<path class="st15" d="M165.5,9.1c-4.3-2.5-9.8-3.7-15.4-3.7v1.4c5.6,0,10.8,1.2,14.7,3.5c3.7,2.1,5.7,4.9,5.7,7.7
		c0,2.8-2,5.6-5.7,7.7c-3.9,2.3-9.1,3.5-14.7,3.5c-5.6,0-10.8-1.2-14.7-3.5c-3.7-2.1-5.7-4.9-5.7-7.7s2-5.6,5.7-7.7
		c3.9-2.3,9.1-3.5,14.7-3.5l0-1.4c0,0,0,0,0,0c-5.6,0-11.2,1.2-15.4,3.7c-8.5,4.9-8.5,12.9,0,17.8c4.3,2.5,9.8,3.7,15.4,3.7
		c5.6,0,11.2-1.2,15.4-3.7C174.1,22,174.1,14,165.5,9.1z"/>
	<path class="st14" d="M166.2,8.7c-4.4-2.6-10.2-3.8-16-3.8v1.4c5.8,0,11.3,1.3,15.3,3.6c3.8,2.2,5.9,5.1,5.9,8s-2.1,5.8-5.9,8
		c-4.1,2.3-9.5,3.6-15.3,3.6c-5.8,0-11.3-1.3-15.3-3.6c-3.8-2.2-5.9-5.1-5.9-8c0-3,2.1-5.8,5.9-8c4.1-2.3,9.5-3.6,15.3-3.6l0-1.4
		c0,0,0,0,0,0c-5.8,0-11.6,1.3-16,3.8c-8.9,5.1-8.9,13.4,0,18.5c4.4,2.6,10.2,3.8,16,3.8c5.8,0,11.6-1.3,16-3.8
		C175,22.1,175,13.8,166.2,8.7z"/>
	<path class="st12" d="M166.1,9c-4.1-2.4-9.6-3.7-15.5-3.8h-1c-5.9,0.1-11.3,1.4-15.5,3.8c-4.2,2.4-6.5,5.6-6.5,8.9
		c0,3.4,2.3,6.5,6.5,8.9c4.3,2.5,9.9,3.8,16,3.8c6.1,0,11.7-1.4,16-3.8c4.2-2.4,6.5-5.6,6.5-8.9C172.6,14.6,170.3,11.5,166.1,9z
		 M165.9,26.6c-4.2,2.4-9.8,3.8-15.8,3.8c-6,0-11.6-1.3-15.8-3.8c-4-2.3-6.3-5.4-6.3-8.6c0-3.2,2.2-6.2,6.3-8.6
		c4.1-2.4,9.5-3.7,15.3-3.8h1c5.8,0.1,11.2,1.4,15.3,3.8c4,2.3,6.3,5.4,6.3,8.6C172.2,21.2,169.9,24.2,165.9,26.6z"/>
	<g>
		<g>
			<path class="st16" d="M192.7,61.4c0-0.8-0.6-1.8-1.3-2.2l-1.6-1c-0.4-0.2-0.8-0.2-1,0l0,0l-32.2,18.8c0.2-0.1,0.5-0.1,0.8,0.1
				l1.6,1c0.7,0.4,1.3,1.4,1.3,2.2c0,0.3-0.1,0.6-0.2,0.7l0,0l32.2-18.7c0,0,0,0,0,0l0,0l0,0C192.6,62.1,192.7,61.8,192.7,61.4z"/>
		</g>
		<path class="st17" d="M162.4,90.3c0,0.9-0.6,1.3-1.4,0.8l-18.8-10.9c-0.8-0.5-1.4-1.6-1.4-2.5l0,0c0-0.9,0.6-1.3,1.4-0.8
			l18.8,10.9C161.7,88.3,162.4,89.4,162.4,90.3L162.4,90.3z"/>
		<g>
			<path class="st18" d="M170.3,85.7c0-0.9-0.6-2-1.4-2.5L150,72.4c-0.4-0.3-0.8-0.2-1.1,0l0,0l-7.7,4.5c0.3-0.1,0.6-0.1,0.9,0.1
				l18.8,10.9c0.8,0.5,1.4,1.6,1.4,2.5c0,0.4-0.1,0.6-0.3,0.8l0,0l7.7-4.4c0,0,0,0,0,0l0,0l0,0C170.1,86.5,170.3,86.2,170.3,85.7z"
				/>
		</g>
		<g>
			<path class="st19" d="M160.7,88.3l-18.8-10.9c-0.1-0.1-0.3-0.1-0.4-0.1c-0.1,0-0.1,0-0.1,0l-14.7,8.5c0,0,0.1,0,0.1,0
				c0.1,0,0.2,0,0.4,0.1l18.8,10.9c0.6,0.4,1.2,1.3,1.2,2.1c0,0.1,0,0.3-0.1,0.4l0,0l14.6-8.4c0.2,0,0.2-0.3,0.2-0.5
				C161.9,89.6,161.3,88.6,160.7,88.3z"/>
			<polygon class="st19" points="126.6,85.8 126.6,85.8 126.6,85.8 			"/>
		</g>
		<g>
			<g>
				
					<rect x="125.9" y="81.6" transform="matrix(0.8645 -0.5026 0.5026 0.8645 -22.8074 78.6213)" class="st20" width="17" height="0.1"/>
			</g>
			<g>
				
					<rect x="126.3" y="81.8" transform="matrix(0.8657 -0.5005 0.5005 0.8657 -22.8535 78.4474)" class="st20" width="17" height="0.1"/>
			</g>
			<g>
				<polygon class="st20" points="127.8,86.3 127.7,86.2 142.5,77.7 142.5,77.8 				"/>
			</g>
			<g>
				
					<rect x="127" y="82.2" transform="matrix(0.8659 -0.5002 0.5002 0.8659 -22.9595 78.7891)" class="st20" width="17" height="0.1"/>
			</g>
			<g>
				
					<rect x="127.3" y="82.4" transform="matrix(0.8645 -0.5027 0.5027 0.8645 -23.0243 79.449)" class="st20" width="17" height="0.1"/>
			</g>
			<g>
				
					<rect x="127.7" y="82.6" transform="matrix(0.8658 -0.5003 0.5003 0.8658 -23.0696 79.2204)" class="st20" width="17" height="0.1"/>
			</g>
			<g>
				<rect x="128" y="82.8" transform="matrix(0.866 -0.5 0.5 0.866 -23.1221 79.358)" class="st20" width="17" height="0.1"/>
			</g>
			<g>
				<polygon class="st20" points="129.5,87.3 129.5,87.3 129.5,87.3 129.5,87.3 144.2,78.7 144.3,78.8 				"/>
			</g>
			<g>
				<polygon class="st20" points="129.9,87.5 129.8,87.5 144.6,78.9 144.6,79 				"/>
			</g>
			<g>
				
					<rect x="129.1" y="83.4" transform="matrix(0.8657 -0.5005 0.5005 0.8657 -23.2871 80.0681)" class="st20" width="17" height="0.1"/>
			</g>
			<g>
				
					<rect x="129.4" y="83.6" transform="matrix(0.8658 -0.5004 0.5004 0.8658 -23.3405 80.2424)" class="st20" width="17" height="0.1"/>
			</g>
			<g>
				
					<rect x="129.8" y="83.8" transform="matrix(0.8657 -0.5005 0.5005 0.8657 -23.3955 80.4735)" class="st20" width="17" height="0.1"/>
			</g>
			<g>
				<polygon class="st20" points="131.3,88.3 131.2,88.3 146,79.7 146,79.8 				"/>
			</g>
			<g>
				
					<rect x="130.5" y="84.2" transform="matrix(0.8682 -0.4962 0.4962 0.8682 -23.4852 80.0654)" class="st20" width="17" height="0.1"/>
			</g>
			<g>
				
					<rect x="130.8" y="84.4" transform="matrix(0.8656 -0.5007 0.5007 0.8656 -23.5585 81.1182)" class="st20" width="17" height="0.1"/>
			</g>
			<g>
				
					<rect x="131.2" y="84.6" transform="matrix(0.8679 -0.4967 0.4967 0.8679 -23.595 80.5606)" class="st20" width="17" height="0.1"/>
			</g>
			<g>
				
					<rect x="131.5" y="84.8" transform="matrix(0.8658 -0.5003 0.5003 0.8658 -23.6661 81.4449)" class="st20" width="17" height="0.1"/>
			</g>
			<g>
				
					<rect x="131.9" y="85" transform="matrix(0.8682 -0.4962 0.4962 0.8682 -23.7021 80.8671)" class="st20" width="17" height="0.1"/>
			</g>
			<g>
				
					<rect x="132.2" y="85.2" transform="matrix(0.8656 -0.5007 0.5007 0.8656 -23.7752 81.9182)" class="st20" width="17" height="0.1"/>
			</g>
			<g>
				<polygon class="st20" points="133.7,89.8 133.7,89.8 133.7,89.7 133.7,89.7 148.4,81.2 148.5,81.2 				"/>
			</g>
			<g>
				
					<rect x="132.9" y="85.6" transform="matrix(0.8659 -0.5002 0.5002 0.8659 -23.8823 82.2305)" class="st20" width="17" height="0.1"/>
			</g>
			<g>
				
					<rect x="133.3" y="85.8" transform="matrix(0.8659 -0.5002 0.5002 0.8659 -23.9364 82.432)" class="st20" width="17" height="0.1"/>
			</g>
			<g>
				<polygon class="st20" points="134.8,90.4 134.7,90.3 149.5,81.8 149.5,81.8 				"/>
			</g>
			<g>
				
					<rect x="134" y="86.2" transform="matrix(0.8659 -0.5002 0.5002 0.8659 -24.0456 82.8372)" class="st20" width="17" height="0.1"/>
			</g>
			<g>
				
					<rect x="134.3" y="86.4" transform="matrix(0.8659 -0.5002 0.5002 0.8659 -24.0993 83.0397)" class="st20" width="17" height="0.1"/>
			</g>
			<g>
				<polygon class="st20" points="135.8,91 135.8,90.9 150.5,82.4 150.6,82.5 				"/>
			</g>
			<g>
				<polygon class="st20" points="136.2,91.2 136.1,91.1 150.9,82.6 150.9,82.7 				"/>
			</g>
			<g>
				
					<rect x="135.4" y="87" transform="matrix(0.8646 -0.5025 0.5025 0.8646 -24.2694 84.1021)" class="st20" width="17" height="0.1"/>
			</g>
			<g>
				
					<rect x="135.7" y="87.2" transform="matrix(0.8655 -0.5009 0.5009 0.8655 -24.3189 83.9843)" class="st20" width="17" height="0.1"/>
			</g>
			<g>
				<polygon class="st20" points="137.2,91.8 137.2,91.7 151.9,83.2 152,83.3 				"/>
			</g>
			<g>
				
					<rect x="136.4" y="87.6" transform="matrix(0.8659 -0.5002 0.5002 0.8659 -24.4236 84.2536)" class="st20" width="17" height="0.1"/>
			</g>
			<g>
				<polygon class="st20" points="137.9,92.2 137.9,92.2 137.9,92.1 137.9,92.1 152.6,83.6 152.7,83.7 				"/>
			</g>
			<g>
				<rect x="137.1" y="88" transform="matrix(0.866 -0.5 0.5 0.866 -24.5324 84.6339)" class="st20" width="17" height="0.1"/>
			</g>
			<g>
				
					<rect x="137.5" y="88.2" transform="matrix(0.8658 -0.5003 0.5003 0.8658 -24.5876 84.8894)" class="st20" width="17" height="0.1"/>
			</g>
			<g>
				<rect x="137.8" y="88.4" transform="matrix(0.866 -0.5 0.5 0.866 -24.64 85.0224)" class="st20" width="17" height="0.1"/>
			</g>
			<g>
				<polygon class="st20" points="139.3,93 139.3,92.9 154,84.4 154.1,84.5 				"/>
			</g>
			<g>
				<polygon class="st20" points="139.7,93.2 139.6,93.1 154.4,84.6 154.4,84.7 				"/>
			</g>
			<g>
				
					<rect x="138.9" y="89.1" transform="matrix(0.8657 -0.5005 0.5005 0.8657 -24.805 85.7398)" class="st20" width="17" height="0.1"/>
			</g>
			<g>
				
					<rect x="139.2" y="89.3" transform="matrix(0.8659 -0.5002 0.5002 0.8659 -24.8575 85.8722)" class="st20" width="17" height="0.1"/>
			</g>
			<g>
				<polygon class="st20" points="140.7,93.8 140.7,93.7 155.4,85.2 155.5,85.3 				"/>
			</g>
			<g>
				
					<rect x="139.9" y="89.7" transform="matrix(0.8657 -0.5005 0.5005 0.8657 -24.9682 86.347)" class="st20" width="17" height="0.1"/>
			</g>
			<g>
				
					<rect x="140.3" y="89.9" transform="matrix(0.8659 -0.5002 0.5002 0.8659 -25.0208 86.479)" class="st20" width="17" height="0.1"/>
			</g>
			<g>
				
					<rect x="140.6" y="90.1" transform="matrix(0.8683 -0.4961 0.4961 0.8683 -25.0559 85.8555)" class="st20" width="17" height="0.1"/>
			</g>
			<g>
				<polygon class="st20" points="142.1,94.6 142.1,94.6 142.1,94.6 142.1,94.5 156.8,86 156.9,86.1 				"/>
			</g>
			<g>
				
					<rect x="141.3" y="90.5" transform="matrix(0.866 -0.5001 0.5001 0.866 -25.1832 87.0727)" class="st20" width="17" height="0.1"/>
			</g>
			<g>
				
					<rect x="141.7" y="90.7" transform="matrix(0.8655 -0.5009 0.5009 0.8655 -25.2402 87.4299)" class="st20" width="17" height="0.1"/>
			</g>
			<g>
				
					<rect x="142" y="90.9" transform="matrix(0.866 -0.5001 0.5001 0.866 -25.2908 87.4648)" class="st20" width="17" height="0.1"/>
			</g>
			<g>
				
					<rect x="142.4" y="91.1" transform="matrix(0.8645 -0.5026 0.5026 0.8645 -25.3557 88.187)" class="st20" width="17" height="0.1"/>
			</g>
			<g>
				<rect x="142.7" y="91.3" transform="matrix(0.866 -0.5 0.5 0.866 -25.3997 87.8558)" class="st20" width="17" height="0.1"/>
			</g>
			<g>
				<polygon class="st20" points="144.2,95.8 144.2,95.7 159,87.2 159,87.3 				"/>
			</g>
			<g>
				
					<rect x="143.4" y="91.7" transform="matrix(0.8657 -0.5005 0.5005 0.8657 -25.5094 88.3718)" class="st20" width="17" height="0.1"/>
			</g>
			<g>
				
					<rect x="143.8" y="91.9" transform="matrix(0.8669 -0.4984 0.4984 0.8669 -25.556 88.1399)" class="st20" width="17" height="0.1"/>
			</g>
			<g>
				<polygon class="st20" points="145.3,96.4 145.3,96.4 160,87.8 160,87.9 				"/>
			</g>
			<g>
				<polygon class="st20" points="145.6,96.6 145.6,96.6 160.4,88 160.4,88.1 				"/>
			</g>
			<g>
				
					<rect x="144.8" y="92.5" transform="matrix(0.8645 -0.5026 0.5026 0.8645 -25.736 89.6102)" class="st20" width="17" height="0.1"/>
			</g>
			<g>
				
					<rect x="145.1" y="92.7" transform="matrix(0.8659 -0.5003 0.5003 0.8659 -25.8034 89.3054)" class="st20" width="17" height="0.1"/>
			</g>
			<g>
				
					<rect x="145.4" y="93" transform="matrix(0.8658 -0.5003 0.5003 0.8658 -25.9042 89.4775)" class="st20" width="17" height="0.1"/>
			</g>
			<g>
				<polygon class="st20" points="146.7,97.6 146.7,97.5 161.4,89 161.5,89.1 				"/>
			</g>
			<g>
				
					<rect x="145.7" y="93.6" transform="matrix(0.8659 -0.5002 0.5002 0.8659 -26.1523 89.7104)" class="st20" width="17" height="0.1"/>
			</g>
			<g>
				<polygon class="st20" points="147,98.3 147,98.2 161.7,89.7 161.8,89.7 				"/>
			</g>
			<g>
				<polygon class="st20" points="147.1,98.6 147.1,98.5 161.8,90 161.9,90.1 				"/>
			</g>
			<g>
				<polygon class="st20" points="147.1,99 147.1,98.9 161.8,90.4 161.9,90.5 				"/>
			</g>
		</g>
		<path class="st13" d="M129.7,84.9c1.3,0,2.6,0.5,3.7,1c2.6,1.3,5,3.2,7.4,4.8c1.4,0.9,2.8,1.8,4.1,2.7c1,0.7,2,1.4,2.9,2.2
			c0.8,0.8,1.1,1.7,0.4,2.7c-0.8,1.1-2.1,0.7-3.1,0.2c-1.1-0.6-2.2-1.3-3.3-1.8c-1.3-0.6-2.4-1.3-3.6-2c-1.6-0.9-3.2-1.8-4.8-2.7
			c-1.6-0.9-3.1-1.8-4.7-2.7c-1.1-0.6-2.4-1.3-2.3-2.7c0-0.3,0-0.7,0.2-0.9c0.3-0.2,0.7-0.3,1-0.4C128.3,85.1,129,84.9,129.7,84.9z"
			/>
		<path class="st21" d="M146.8,99.3c-0.1,0-0.2,0-0.4-0.1l-18.8-10.9c-0.6-0.4-1.2-1.3-1.2-2.1c0-0.2,0-0.5,0.3-0.5
			c0.1,0,0.2,0,0.4,0.1l18.8,10.9c0.6,0.4,1.2,1.3,1.2,2.1C147.1,99,147.1,99.3,146.8,99.3z"/>
	</g>
</g>
<g>
	<g>
		<g class="st22">
			<g>
				<path class="st23" d="M262.4,118.3l0,2.5c-0.5-0.1-1.1,0.1-1.6,0.5l0-2.5C261.3,118.5,261.9,118.2,262.4,118.3z"/>
			</g>
			<g>
				<path class="st24" d="M260.8,118.8l0,2.5c-0.9-0.1-1.8-0.1-2.6,0l0-2.5C259,118.8,259.9,118.8,260.8,118.8z"/>
			</g>
			<g>
				<path class="st23" d="M263.3,119.2l0,2.5c-0.1-0.3-0.3-0.6-0.5-0.8c-0.1-0.1-0.3-0.1-0.4-0.1l0-2.5c0.2,0,0.3,0.1,0.4,0.1
					C263.1,118.6,263.2,118.9,263.3,119.2z"/>
			</g>
			<g>
				<path class="st23" d="M258.1,118.8l0,2.5c-0.1-0.1-0.2-0.2-0.3-0.2c-0.4-0.2-0.9-0.4-1.3-0.3c-0.5,0.1-0.8,0.4-0.9,0.9l0-2.5
					c0.1-0.5,0.4-0.8,0.9-0.9c0.4-0.1,0.8,0.1,1.3,0.3C257.9,118.7,258,118.8,258.1,118.8z"/>
			</g>
			<g>
				<path class="st24" d="M265.6,120l0,2.5c-0.7-0.3-1.5-0.6-2.3-0.8l0-2.5C264.1,119.4,264.9,119.7,265.6,120z"/>
			</g>
			<g>
				<path class="st24" d="M255.6,119.2l0,2.5c-0.8,0.2-1.6,0.5-2.3,0.8l0-2.5C254,119.7,254.8,119.4,255.6,119.2z"/>
			</g>
			<g>
				<path class="st23" d="M267.7,120.5c0,0.8,0,1.6,0,2.5c0-0.2-0.1-0.3-0.3-0.5c-0.4-0.2-1.1-0.2-1.8,0l0-2.5
					c0.8-0.2,1.5-0.2,1.8,0C267.6,120.1,267.7,120.3,267.7,120.5z"/>
			</g>
			<g>
				<path class="st23" d="M251.2,122.9c0-0.8,0-1.6,0-2.5c0-0.2,0.1-0.3,0.3-0.4c0.4-0.2,1.1-0.2,1.8,0l0,2.5
					c-0.8-0.2-1.5-0.2-1.8,0C251.3,122.6,251.2,122.7,251.2,122.9z"/>
			</g>
			<g>
				<path class="st24" d="M268.8,122.4l0,2.5c-0.3-0.5-0.8-0.9-1.3-1.3l0-2.5C268,121.5,268.5,121.9,268.8,122.4z"/>
			</g>
			<g>
				<path class="st24" d="M251.5,121.1l0,2.5c-0.5,0.4-1,0.9-1.3,1.3l0-2.5C250.5,121.9,250.9,121.5,251.5,121.1z"/>
			</g>
			<g>
				<path class="st23" d="M270.4,122.9l0,2.5c0-0.1-0.1-0.2-0.2-0.2c-0.3-0.2-0.8-0.3-1.3-0.3l0-2.5c0.6,0,1.1,0.1,1.3,0.3
					C270.3,122.8,270.3,122.9,270.4,122.9z"/>
			</g>
			<g>
				<path class="st24" d="M270.4,123.1c0,0.8,0,1.6,0,2.5c0,0,0-0.1,0-0.1l0-2.5C270.4,123,270.4,123,270.4,123.1z"/>
			</g>
			<g>
				<path class="st23" d="M248.6,125.5c0-0.8,0-1.6,0-2.5c0,0,0-0.1,0-0.1c0.1-0.3,0.7-0.5,1.6-0.5l0,2.5c-0.8,0.1-1.4,0.2-1.6,0.5
					C248.6,125.4,248.6,125.5,248.6,125.5z"/>
			</g>
			<g>
				<path class="st24" d="M249.4,127.1l0-2.5c0-0.2,0-0.5,0.1-0.7l0,2.5C249.4,126.6,249.4,126.8,249.4,127.1z"/>
			</g>
			<g>
				<path class="st24" d="M269.6,124.7l0,2.5c0-0.3,0-0.5-0.1-0.8l0-2.5C269.5,124.1,269.6,124.4,269.6,124.7z"/>
			</g>
			<g>
				<path class="st23" d="M270.4,126.2c0,0.8,0,1.6,0,2.5c0-0.2-0.2-0.4-0.5-0.6c-0.1-0.1-0.2-0.1-0.4-0.2l0-2.5
					c0.1,0.1,0.3,0.1,0.4,0.2C270.2,125.8,270.4,126,270.4,126.2z"/>
			</g>
			<g>
				<path class="st23" d="M248.6,128.7c0-0.8,0-1.6,0-2.5c0-0.3,0.4-0.5,0.9-0.8l0,2.5C248.9,128.1,248.6,128.4,248.6,128.7z"/>
			</g>
			<g>
				<path class="st23" d="M267.8,128.8c0,0.8,0,1.6,0,2.5c0-0.2-0.1-0.4-0.3-0.6l0-2.5C267.7,128.4,267.8,128.6,267.8,128.8z"/>
			</g>
			<g>
				<path class="st23" d="M251.3,131.3l0-2.5c0-0.2,0.1-0.4,0.3-0.6l0,2.5C251.3,130.9,251.3,131.1,251.3,131.3z"/>
			</g>
			<g>
				<path class="st24" d="M272.6,124.7c0,0.8,0,1.6,0,2.5c0,1.9-1.3,3.9-3.8,5.3c-1.8,1-4,1.7-6.3,2l0-2.5c2.3-0.3,4.5-1,6.3-2
					C271.3,128.5,272.6,126.6,272.6,124.7z"/>
			</g>
			<g>
				<polygon class="st24" points="262.5,132 262.5,134.5 251,137.5 251,135.1 				"/>
			</g>
			<g>
				<polygon class="st24" points="251,135.1 251,137.5 208,162.5 208,160 				"/>
			</g>
			<g>
				<path class="st24" d="M188.6,163.5l0,2.5c-2.1-1.1-5.3-0.9-7.1,0.3l0-2.5C183.3,162.5,186.5,162.4,188.6,163.5z"/>
			</g>
			<g>
				<polygon class="st24" points="208,160 208,162.5 205.4,168.6 205.4,166.1 				"/>
			</g>
			<g>
				<polygon class="st24" points="194.2,166.3 194.2,168.7 188.6,165.9 188.6,163.5 				"/>
			</g>
			<g>
				<path class="st24" d="M175.4,168.7c0-0.8,0-1.6,0-2.5c0,0.5,0.1,1,0.2,1.5l0,2.5C175.5,169.6,175.4,169.1,175.4,168.7z"/>
			</g>
			<g>
				<polygon class="st24" points="181.5,163.8 181.5,166.2 175.7,170.1 175.7,167.7 				"/>
			</g>
			<g>
				<path class="st24" d="M205.4,166.1l0,2.5c-0.1,0.7-0.4,1.3-0.8,2l0-2.5C205,167.5,205.3,166.8,205.4,166.1z"/>
			</g>
			<g>
				<path class="st24" d="M195.9,168.5l0,2.5c0-0.8-0.5-1.5-1.5-2.1c-0.1-0.1-0.2-0.1-0.3-0.1l0-2.5c0.1,0,0.2,0.1,0.3,0.1
					C195.4,167,195.9,167.7,195.9,168.5z"/>
			</g>
			<g>
				<path class="st25" d="M204.6,168.1c-1.3,2-3.8,3.7-7.2,4.8c-2.6,0.8-5.4,1.2-8.2,1.1l5.5-3.7c1.7-1.2,1.6-2.9-0.3-4
					c-0.1,0-0.2-0.1-0.3-0.1l-5.6-2.8c-2.1-1.1-5.3-0.9-7.1,0.3l-5.8,3.9c-1.1-3.5,1.9-7.2,7.9-9.2c0.9-0.3,1.9-0.5,2.9-0.7l12-3.2
					l43-25l5.2-6.7c0.5-1.3,1.7-2.6,3.5-3.6c5.1-3,13.4-3,18.5,0c5.1,3,5.2,7.8,0.1,10.7c-1.8,1-4,1.7-6.3,2l-11.5,3l-43,25
					l-2.6,6.1C205.3,166.8,205,167.5,204.6,168.1z M256.6,130.9c0.5,0.1,1.1-0.1,1.6-0.5c0.9,0.1,1.8,0.1,2.6,0
					c0.1,0.1,0.2,0.2,0.3,0.2c0.4,0.2,0.9,0.4,1.3,0.3c0.5-0.1,0.8-0.4,0.9-0.9c0.8-0.2,1.6-0.4,2.3-0.8c0.8,0.2,1.5,0.2,1.8,0
					c0.4-0.2,0.4-0.6,0-1.1c0.5-0.4,1-0.9,1.3-1.3c0.8-0.1,1.4-0.2,1.6-0.5c0.1-0.2-0.1-0.5-0.5-0.7c-0.1-0.1-0.2-0.1-0.4-0.2
					c0.1-0.5,0.1-1,0-1.5c0.7-0.3,1-0.6,0.9-0.9c0-0.1-0.1-0.2-0.2-0.2c-0.3-0.2-0.8-0.3-1.3-0.3c-0.3-0.5-0.8-0.9-1.3-1.3
					c0.3-0.4,0.4-0.8,0-1.1c-0.4-0.2-1.1-0.2-1.8,0c-0.7-0.3-1.5-0.6-2.3-0.8c-0.1-0.3-0.3-0.6-0.5-0.8c-0.1-0.1-0.3-0.1-0.4-0.1
					c-0.5-0.1-1.1,0.1-1.6,0.5c-0.9-0.1-1.8-0.1-2.6,0c-0.1-0.1-0.2-0.2-0.3-0.2c-0.4-0.2-0.9-0.4-1.3-0.3c-0.5,0.1-0.8,0.4-0.9,0.9
					c-0.8,0.2-1.6,0.5-2.3,0.8c-0.8-0.2-1.5-0.2-1.8,0c-0.4,0.2-0.3,0.6,0,1.1c-0.5,0.4-1,0.9-1.3,1.3c-0.8,0.1-1.4,0.2-1.6,0.5
					c-0.1,0.2,0.1,0.5,0.5,0.7c0.1,0.1,0.3,0.1,0.4,0.2c-0.1,0.5-0.1,1,0,1.5c-0.7,0.3-1,0.6-0.9,0.9c0,0.1,0.1,0.2,0.2,0.2
					c0.3,0.2,0.8,0.3,1.3,0.3c0.3,0.5,0.8,0.9,1.3,1.3c-0.3,0.4-0.4,0.9,0,1.1c0.4,0.2,1.1,0.2,1.8,0c0.7,0.3,1.5,0.6,2.3,0.8
					c0.1,0.3,0.3,0.6,0.5,0.8C256.3,130.9,256.5,130.9,256.6,130.9L256.6,130.9z"/>
			</g>
			<g>
				<path class="st24" d="M204.6,168.1l0,2.5c-1.3,2-3.8,3.7-7.2,4.8c-2.6,0.8-5.4,1.2-8.2,1.1l0-2.5c2.7,0,5.5-0.3,8.2-1.1
					C200.8,171.8,203.3,170.1,204.6,168.1z"/>
			</g>
		</g>
	</g>
	<path class="st26" d="M246.5,132.2c1.2,0.7,1.2,1.9,0,2.6l-41.7,24.1c-1.2,0.7-3.3,0.7-4.5,0l0,0c-1.2-0.7-1.2-1.9,0-2.6l41.7-24.1
		C243.2,131.5,245.2,131.5,246.5,132.2L246.5,132.2z"/>
</g>
<g>
	<g>
		<path class="st27" d="M115.8,174.4c-21,8.4-37.8,19.8-49,33c-2.9,0.6-5.3,0.3-5.3,0.3l0,0c-1.7-0.3-3-0.3-3.5,0.1
			c-0.9,0.8,1.3,2.6,5,4.2c0.1,0,0.1,0.1,0.2,0.1c-0.5,0.6-0.9,1.3-1.3,1.9c-0.5,0.8,0.1,1.6,1.3,1.9c2.4,0.5,4.9,1,7.3,1.6
			c1.2,0.3,2.6-0.1,3-0.8c9.9-14.7,27.1-27.3,49.5-36.2c1.1-0.4,1.4-1.3,0.7-1.9c-1.4-1.2-2.9-2.5-4.3-3.7
			C118.5,174,117,173.9,115.8,174.4z"/>
		<path class="st27" d="M153.7,196.2c-14.6,12.1-34.2,21.8-57.1,28.3c-1.1,1.7-0.6,3.1-0.6,3.1l0,0c0.5,1,0.5,1.7-0.2,2
			c-1.3,0.5-4.6-0.7-7.2-2.9c-0.1,0-0.1-0.1-0.1-0.1c-1.1,0.3-2.2,0.5-3.3,0.8c-1.3,0.3-2.8,0-3.2-0.7c-0.9-1.4-1.8-2.8-2.7-4.2
			c-0.4-0.7,0.2-1.5,1.4-1.8c25.4-5.7,47.2-15.6,62.8-28.6c0.8-0.6,2.2-0.8,3.3-0.4c2.2,0.8,4.3,1.7,6.5,2.5
			C154.3,194.6,154.5,195.5,153.7,196.2z"/>
		<path class="st28" d="M123.9,179.2c-0.1,0.4-0.4,0.8-1.1,1.1c-22.4,9-39.6,21.6-49.5,36.2c-0.5,0.7-1.8,1.1-3,0.8
			c-2.4-0.5-4.9-1-7.3-1.6c-1.2-0.3-1.8-1.1-1.3-1.9c0.4-0.6,0.9-1.3,1.3-1.9c-0.1,0-0.1-0.1-0.2-0.1c-3.1-1.3-5.2-2.8-5.2-3.7l0,0
			v8.7l0,0c0,0.9,2.1,2.4,5.2,3.7c0.1,0,0.1,0.1,0.2,0.1c-0.5,0.6-0.9,1.3-1.3,1.9c-0.5,0.8,0.1,1.6,1.3,1.9c2.4,0.5,4.9,1,7.3,1.6
			c1.2,0.3,2.6-0.1,3-0.8c9.9-14.7,27.1-27.3,49.5-36.2c0.7-0.3,1.1-0.8,1.1-1.3V179.2z"/>
		<g>
			<path class="st28" d="M79.1,222L79.1,222L79.1,222C79.1,222,79.1,222,79.1,222z"/>
			<path class="st28" d="M153.7,196.2c-14.6,12.1-34.2,21.8-57.1,28.3c-1.1,1.7-0.6,3.1-0.6,3.1l0,0c0.5,1,0.5,1.7-0.2,2
				c-1.3,0.5-4.6-0.7-7.2-2.9c-0.1,0-0.1-0.1-0.1-0.1c-1.1,0.3-2.2,0.5-3.3,0.8c-1.3,0.3-2.8,0-3.2-0.7c-0.9-1.4-1.8-2.8-2.7-4.2
				c-0.1-0.1-0.1-0.3-0.1-0.4v8.7c0,0.1,0,0.3,0.1,0.4c0.9,1.4,1.8,2.8,2.7,4.2c0.4,0.7,1.9,1,3.2,0.7c1.1-0.2,2.2-0.5,3.3-0.8
				c0.1,0,0.1,0.1,0.1,0.1c2.6,2.1,5.9,3.4,7.2,2.9c0.7-0.3,0.7-1.1,0.2-2h0c0,0-0.5-1.4,0.6-3.1c22.8-6.4,42.5-16.2,57.1-28.3
				c0.3-0.3,0.5-0.6,0.5-0.9v0c0,0,0,0,0-0.1v-8.7C154.2,195.6,154,195.9,153.7,196.2z"/>
		</g>
		<polygon class="st28" points="61.6,223.1 61.8,215 67,220.8 		"/>
	</g>
	<g>
		<path class="st29" d="M70.6,225.7c-0.8-0.4-1.6-0.8-2.6-1.1l3.7-3.8l-7.3-2.3l-6.1,6.4c-0.6,0.2-1.2,0.5-1.7,0.8
			c-0.5,0.3-1,0.6-1.3,1l0,0l-10.9,4.7l-14.6,11l1.5,1.6l8.3-3.3c0,0,0.3-3.7,7.9-3.8l9-3.2c0,0,0.1,0.1,0.1,0.1c0,0,0.1,0,0.1,0.1
			l-5.6,5.2c-0.2,4.4-6.6,4.5-6.6,4.5l-5.6,4.8l2.8,0.9l19-8.4l8.2-6.3l0,0c0.6-0.2,1.2-0.5,1.7-0.8c0.5-0.3,1-0.6,1.4-1l11.1-3.5
			l-4-4.2l-6.6,2.1C71.9,226.7,71.3,226.2,70.6,225.7z"/>
		<g>
			<path class="st30" d="M63.5,235.6c-2.7,0-5.2-0.6-7-1.7c-1.9-1.1-2.9-2.5-2.9-4.1c0-1.5,1-3,2.9-4.1c1.9-1.1,4.4-1.7,7-1.7
				c2.7,0,5.2,0.6,7,1.7c1.9,1.1,2.9,2.5,2.9,4.1c0,1.5-1,3-2.9,4.1C68.7,235,66.2,235.6,63.5,235.6z M63.5,224.1
				c-2.6,0-5.1,0.6-7,1.7c-1.9,1.1-2.9,2.5-2.9,4c0,1.5,1,2.9,2.9,4c1.9,1.1,4.4,1.7,7,1.7c2.6,0,5.1-0.6,7-1.7
				c1.9-1.1,2.9-2.5,2.9-4c0-1.5-1-2.9-2.9-4C68.7,224.7,66.2,224.1,63.5,224.1z"/>
		</g>
		<path class="st31" d="M69,226.6c3,1.8,3,4.6,0,6.4c-3,1.8-8,1.8-11,0c-3-1.8-3-4.6,0-6.4C61.1,224.8,66,224.8,69,226.6z"/>
		<path class="st32" d="M71.7,224.4v-3.5l-3.7,3.8c0.9,0.3,1.7,0.6,2.4,1L71.7,224.4z"/>
		<path class="st32" d="M51.1,239.2C51.1,239.1,51.1,239.1,51.1,239.2l5.6-5.3c0,0-0.1,0-0.1-0.1c0,0-0.1,0-0.1-0.1l-9,3.2v3.5
			L51.1,239.2z"/>
		<polygon class="st33" points="29.8,242.4 29.8,245.9 31.3,247.5 31.3,244 		"/>
		<path class="st33" d="M47.4,240.5V237c-7.5,0.1-7.9,3.8-7.9,3.8v3.5C39.5,244.3,39.9,240.6,47.4,240.5z"/>
		<polygon class="st32" points="39.5,240.8 31.3,244 31.3,247.5 39.5,244.3 		"/>
		<path class="st32" d="M71.9,232.8c-0.4,0.4-0.8,0.7-1.4,1c-0.5,0.3-1.1,0.6-1.7,0.8l0,0l-8.2,6.3l-19,8.4v3.5l19-8.4l8.2-6.3l0,0
			c0.6-0.2,1.2-0.5,1.7-0.8c0.5-0.3,1-0.6,1.4-1l11.1-3.5v-3.5L71.9,232.8z"/>
		<polygon class="st33" points="38.9,248.4 38.9,251.9 41.7,252.8 41.7,249.3 		"/>
	</g>
</g>
<g>
	<g>
		<g>
			<path class="st34" d="M199.9,198.9c0-2,1.3-2.8,3-1.8c1.7,0.9,3.1,3.3,3.1,5.2c0,2-1.3,2.8-3,1.8
				C201.3,203.2,199.9,200.8,199.9,198.9z"/>
			<linearGradient id="SVGID_1_" gradientUnits="userSpaceOnUse" x1="225.4905" y1="179.5469" x2="232.3117" y2="191.3616">
				<stop  offset="0" style="stop-color:#CC0000"/>
				<stop  offset="0.2767" style="stop-color:#C80000"/>
				<stop  offset="0.545" style="stop-color:#BC0000"/>
				<stop  offset="0.8092" style="stop-color:#A90000"/>
				<stop  offset="1" style="stop-color:#960000"/>
			</linearGradient>
			<path class="st35" d="M255.9,170.5c-0.4-0.9-0.8-1.4-1.3-1.8c-0.2-0.2-0.8-0.7-1.8-1.2c-1-0.5-1.9-0.6-2.1-0.6
				c-1.1-0.1-1.8-0.1-2.5,0.1c-0.4,0.1-0.4,0.1-1.5,0.4c-0.2,0.1-0.5,0.2-0.8,0.3c-0.3,0.1-0.3,0.1-2.3,1.3c-0.5,0.3-1,0.6-1.4,0.8
				c-0.5,0.3-0.9,0.5-1.4,0.8c-2.6,1.5-5.1,3-7.7,4.5c-0.4,0.3-0.9,0.5-1.4,0.8c-4.7,2.7-8.8,7.6-12,9.5c-3.3,1.9-7.7,1.9-10.9,3.8
				c-1.3,0.8-2.8,1.9-4.5,3.6c-0.4,0.4-1.5,1.4-2.7,2.8c-0.4,0.5-0.8,0.9-0.9,1.1c-0.3,0.4-0.4,0.5-0.6,0.8c0.5-0.9,1.5-1.1,2.7-0.5
				c1.7,0.9,3.1,3.3,3.1,5.2c0,1.4-0.7,2.3-1.8,2.2c0.2,0,0.7,0,2.4-0.4c1.7-0.4,3.1-0.8,3.8-1c1.5-0.5,2.5-0.8,2.8-1
				c1.4-0.6,1.7-0.8,2.5-1.2c3.2-1.9,5.4-5.7,8.7-7.6c3.3-1.9,9.6-3,14.2-5.7c0.4-0.2,1-0.6,1.4-0.8c0.4-0.3,0.9-0.5,1.3-0.8
				c0.4-0.3,0.9-0.5,1.3-0.7c0.4-0.2,0.8-0.5,1.3-0.7c0.4-0.2,0.8-0.5,1.3-0.7c0.4-0.2,0.9-0.5,1.3-0.7c0.4-0.3,0.9-0.5,1.3-0.8
				c0.4-0.3,0.9-0.5,1.4-0.8c0.5-0.3,0.9-0.5,1.4-0.8c1.6-0.9,1.6-0.9,1.8-1c0.2-0.1,0.5-0.3,0.7-0.5c0.4-0.3,0.9-0.7,1.2-1.1
				c1.2-1.3,1.7-2.6,1.9-3.3c0.2-0.8,0.3-1.5,0.3-2.2C256.4,172.4,256.3,171.4,255.9,170.5z"/>
		</g>
		<linearGradient id="SVGID_2_" gradientUnits="userSpaceOnUse" x1="177.8175" y1="213.0356" x2="179.5677" y2="216.0671">
			<stop  offset="0" style="stop-color:#D1D3D4"/>
			<stop  offset="0.4383" style="stop-color:#CDCFD0"/>
			<stop  offset="0.8627" style="stop-color:#C1C3C5"/>
			<stop  offset="1" style="stop-color:#BCBEC0"/>
		</linearGradient>
		<path class="st36" d="M202.6,199.3c-0.3-0.2-0.6-0.2-0.8-0.1l-48.7,28.3c0.2-0.1,0.5-0.1,0.8,0.1c0.7,0.4,1.2,1.3,1.2,2
			c0,0.4-0.1,0.6-0.3,0.8l48.7-28.3c0.2-0.1,0.3-0.4,0.3-0.8C203.8,200.6,203.3,199.6,202.6,199.3z"/>
		<path class="st14" d="M153.9,227.6c0.7,0.4,1.2,1.3,1.2,2c0,0.7-0.5,1.1-1.2,0.7c-0.7-0.4-1.2-1.3-1.2-2
			C152.7,227.5,153.3,227.2,153.9,227.6z"/>
		<polygon class="st37" points="142.1,234.4 144.4,235.7 150.6,232 155.3,228.4 153.1,227.1 146.8,229.8 		"/>
		<polygon class="st38" points="144.4,235.7 150.6,232 150.6,233.9 		"/>
		<polygon class="st38" points="150.6,233.9 150.6,232 155.3,228.4 155.3,230.3 		"/>
	</g>
	<g>
		<g>
			<path class="st34" d="M212.5,210.7c0-1.6,1.1-2.3,2.5-1.5c1.4,0.8,2.5,2.7,2.5,4.3c0,1.6-1.1,2.3-2.5,1.5
				C213.7,214.2,212.5,212.3,212.5,210.7z"/>
			<linearGradient id="SVGID_3_" gradientUnits="userSpaceOnUse" x1="233.5157" y1="194.8528" x2="239.108" y2="204.5389">
				<stop  offset="0" style="stop-color:#CC0000"/>
				<stop  offset="0.2767" style="stop-color:#C80000"/>
				<stop  offset="0.545" style="stop-color:#BC0000"/>
				<stop  offset="0.8092" style="stop-color:#A90000"/>
				<stop  offset="1" style="stop-color:#960000"/>
			</linearGradient>
			<path class="st39" d="M258.5,187.4c-0.3-0.7-0.7-1.1-1-1.5c-0.2-0.2-0.6-0.6-1.4-1c-0.8-0.4-1.6-0.5-1.7-0.5
				c-0.9-0.1-1.4,0-2.1,0.1c-0.4,0.1-0.4,0.1-1.2,0.3c-0.2,0.1-0.4,0.2-0.6,0.3c-0.2,0.1-0.2,0.1-1.9,1.1c-0.4,0.2-0.8,0.5-1.2,0.7
				c-0.4,0.2-0.8,0.4-1.1,0.7c-2.1,1.2-4.2,2.5-6.3,3.7c-0.4,0.2-0.7,0.4-1.1,0.7c-3.8,2.2-7.2,6.3-9.9,7.8
				c-2.7,1.6-6.3,1.6-8.9,3.1c-1.1,0.6-2.3,1.6-3.7,2.9c-0.3,0.3-1.2,1.2-2.2,2.3c-0.3,0.4-0.6,0.7-0.8,0.9
				c-0.3,0.3-0.3,0.4-0.5,0.7c0.4-0.7,1.2-0.9,2.2-0.4c1.4,0.8,2.5,2.7,2.5,4.3c0,1.2-0.6,1.9-1.4,1.8c0.2,0,0.6,0,2-0.3
				c1.4-0.3,2.5-0.6,3.1-0.8c1.3-0.4,2-0.7,2.3-0.8c1.1-0.5,1.4-0.6,2.1-1c2.6-1.5,4.4-4.7,7.1-6.2c2.7-1.6,7.9-2.5,11.7-4.7
				c0.3-0.2,0.8-0.5,1.1-0.7c0.4-0.2,0.7-0.4,1.1-0.6c0.4-0.2,0.7-0.4,1.1-0.6c0.3-0.2,0.7-0.4,1-0.6c0.3-0.2,0.7-0.4,1-0.6
				c0.3-0.2,0.7-0.4,1.1-0.6c0.4-0.2,0.7-0.4,1.1-0.6c0.4-0.2,0.7-0.4,1.1-0.7c0.4-0.2,0.8-0.5,1.2-0.7c1.3-0.8,1.3-0.8,1.4-0.8
				c0.2-0.1,0.4-0.3,0.6-0.4c0.3-0.2,0.7-0.6,1-0.9c1-1.1,1.4-2.1,1.6-2.7c0.2-0.6,0.3-1.2,0.2-1.8
				C258.8,189,258.8,188.2,258.5,187.4z"/>
		</g>
		<linearGradient id="SVGID_4_" gradientUnits="userSpaceOnUse" x1="194.4322" y1="222.3078" x2="195.8669" y2="224.7928">
			<stop  offset="0" style="stop-color:#D1D3D4"/>
			<stop  offset="0.4383" style="stop-color:#CDCFD0"/>
			<stop  offset="0.8627" style="stop-color:#C1C3C5"/>
			<stop  offset="1" style="stop-color:#BCBEC0"/>
		</linearGradient>
		<path class="st40" d="M214.8,211c-0.3-0.2-0.5-0.2-0.7-0.1l-40,23.2c0.2-0.1,0.4-0.1,0.7,0.1c0.5,0.3,1,1.1,1,1.7
			c0,0.3-0.1,0.5-0.3,0.6l40-23.2c0.2-0.1,0.3-0.3,0.3-0.6C215.8,212.1,215.3,211.3,214.8,211z"/>
		<path class="st14" d="M174.8,234.2c0.5,0.3,1,1.1,1,1.7c0,0.6-0.4,0.9-1,0.6c-0.5-0.3-1-1.1-1-1.7
			C173.9,234.2,174.3,233.9,174.8,234.2z"/>
		<path class="st41" d="M169.3,238.5l4.8-4.2c0,0,0.3-0.3,0.8,0L169.3,238.5z"/>
		<path class="st42" d="M169.3,238.5l5.6-4.2c0,0,0.5,0.3,0.7,0.7L169.3,238.5z"/>
		<path class="st41" d="M169.3,238.5l6.2-3.6c0,0,0.3,0.3,0.3,0.9L169.3,238.5z"/>
		<path class="st42" d="M169.3,238.5l6.5-2.7c0,0,0.2,0.5-0.3,0.8L169.3,238.5z"/>
	</g>
</g>
<g>
	<g>
		<polygon class="st43" points="185.9,110.1 185.9,110.1 185.9,110 		"/>
		<path class="st43" d="M248.7,77.8c-2.4-1.4-4.4-1.6-5.3-0.8L186,110c1-0.5,2.9-0.2,5,1c3.2,1.9,5.8,5.1,5.8,7.2
			c0,0.6-0.2,1-0.5,1.3l57.1-32.8c0.7-0.2,1.1-0.8,1.1-1.6C254.5,82.9,251.9,79.7,248.7,77.8z"/>
	</g>
	<g>
		<path class="st44" d="M199.2,122.3l8.9-5.1c0,0-14.4-8.3-19-10.9c-4.5-2.6-15.8-6.8-17-6.6c-1.2,0.2-1.8,0.9-1.5,1.9
			c0.4,0.9,3.2,6.2,12.5,11.6C192.5,118.4,199.2,122.3,199.2,122.3z"/>
		<polygon class="st45" points="199.2,122.3 199.2,131.7 208.1,126.6 208.1,117.2 		"/>
		<path class="st46" d="M183.2,113c-9.3-5.4-12.2-10.6-12.5-11.6c-0.1-0.2-0.1-0.3-0.1-0.5v9.3c0,0.2,0,0.4,0.1,0.6
			c0.4,0.9,3.2,6.2,12.5,11.6c9.3,5.4,16,9.3,16,9.3v-9.4C199.2,122.3,192.5,118.4,183.2,113z"/>
	</g>
</g>
<g>
	<polygon class="st47" points="137.7,160.6 71.4,122.3 115.7,96.8 182,135 	"/>
	<g>
		<polygon class="st48" points="52.5,126.1 46.2,122.4 96.6,93.3 102.9,97 		"/>
		<g>
			<g>
				<rect x="49.1" y="121.3" transform="matrix(0.5 -0.866 0.866 0.5 -81.2046 103.6623)" class="st49" width="0.2" height="1.7"/>
			</g>
			<g>
				
					<rect x="50.3" y="120.6" transform="matrix(0.5002 -0.8659 0.8659 0.5002 -79.9805 104.3315)" class="st49" width="0.2" height="1.7"/>
			</g>
			<g>
				
					<rect x="51.5" y="119.9" transform="matrix(0.4996 -0.8663 0.8663 0.4996 -78.7717 105.1237)" class="st49" width="0.2" height="1.7"/>
			</g>
			<g>
				<rect x="52.7" y="119.2" transform="matrix(0.5 -0.866 0.866 0.5 -77.5449 105.7665)" class="st49" width="0.2" height="1.7"/>
			</g>
			<g>
				
					<rect x="54.5" y="118.2" transform="matrix(0.4999 -0.8661 0.8661 0.4999 -76.3268 107.1684)" class="st49" width="0.2" height="3.1"/>
			</g>
			<g>
				
					<rect x="55.2" y="117.8" transform="matrix(0.4998 -0.8661 0.8661 0.4998 -75.1079 107.2009)" class="st49" width="0.2" height="1.7"/>
			</g>
			<g>
				<rect x="56.4" y="117.1" transform="matrix(0.5 -0.866 0.866 0.5 -73.8864 107.8806)" class="st49" width="0.2" height="1.7"/>
			</g>
			<g>
				
					<rect x="57.6" y="116.4" transform="matrix(0.5001 -0.866 0.866 0.5001 -72.6663 108.5758)" class="st49" width="0.2" height="1.7"/>
			</g>
			<g>
				
					<rect x="58.8" y="115.7" transform="matrix(0.4999 -0.8661 0.8661 0.4999 -71.4478 109.2999)" class="st49" width="0.2" height="1.7"/>
			</g>
			<g>
				
					<rect x="60.6" y="114.6" transform="matrix(0.4999 -0.8661 0.8661 0.4999 -70.2281 110.689)" class="st49" width="0.2" height="3.1"/>
			</g>
			<g>
				<rect x="61.3" y="114.3" transform="matrix(0.5 -0.866 0.866 0.5 -69.0082 110.7018)" class="st49" width="0.2" height="1.7"/>
			</g>
			<g>
				<rect x="62.5" y="113.6" transform="matrix(0.5 -0.866 0.866 0.5 -67.7885 111.4079)" class="st49" width="0.2" height="1.7"/>
			</g>
			<g>
				<rect x="63.7" y="112.9" transform="matrix(0.5 -0.866 0.866 0.5 -66.569 112.1101)" class="st49" width="0.2" height="1.7"/>
			</g>
			<g>
				<rect x="64.9" y="112.2" transform="matrix(0.5 -0.866 0.866 0.5 -65.3492 112.8034)" class="st49" width="0.2" height="1.7"/>
			</g>
			<g>
				
					<rect x="66.7" y="111.1" transform="matrix(0.4999 -0.8661 0.8661 0.4999 -64.1295 114.2059)" class="st49" width="0.2" height="3.1"/>
			</g>
			<g>
				
					<rect x="67.4" y="110.7" transform="matrix(0.5001 -0.866 0.866 0.5001 -62.9104 114.2067)" class="st49" width="0.2" height="1.7"/>
			</g>
			<g>
				
					<rect x="68.6" y="110" transform="matrix(0.4998 -0.8662 0.8662 0.4998 -61.6895 114.9572)" class="st49" width="0.2" height="1.7"/>
			</g>
			<g>
				
					<rect x="69.8" y="109.3" transform="matrix(0.4999 -0.8661 0.8661 0.4999 -60.4701 115.6485)" class="st49" width="0.2" height="1.7"/>
			</g>
			<g>
				
					<rect x="71" y="108.6" transform="matrix(0.4999 -0.8661 0.8661 0.4999 -59.2503 116.3524)" class="st49" width="0.2" height="1.7"/>
			</g>
			<g>
				
					<rect x="72.8" y="107.6" transform="matrix(0.4999 -0.8661 0.8661 0.4999 -58.0312 117.7271)" class="st49" width="0.2" height="3.1"/>
			</g>
			<g>
				
					<rect x="73.5" y="107.2" transform="matrix(0.4998 -0.8661 0.8661 0.4998 -56.8101 117.7673)" class="st49" width="0.2" height="1.7"/>
			</g>
			<g>
				
					<rect x="74.7" y="106.5" transform="matrix(0.4998 -0.8661 0.8661 0.4998 -55.5901 118.4732)" class="st49" width="0.2" height="1.7"/>
			</g>
			<g>
				
					<rect x="75.9" y="105.8" transform="matrix(0.4998 -0.8662 0.8662 0.4998 -54.3697 119.1824)" class="st49" width="0.2" height="1.7"/>
			</g>
			<g>
				
					<rect x="77.1" y="105.1" transform="matrix(0.4999 -0.8661 0.8661 0.4999 -53.1515 119.8685)" class="st49" width="0.2" height="1.7"/>
			</g>
			<g>
				
					<rect x="78.9" y="104.1" transform="matrix(0.4999 -0.8661 0.8661 0.4999 -51.9324 121.2493)" class="st49" width="0.2" height="3.1"/>
			</g>
			<g>
				
					<rect x="79.6" y="103.7" transform="matrix(0.4999 -0.8661 0.8661 0.4999 -50.712 121.2768)" class="st49" width="0.2" height="1.7"/>
			</g>
			<g>
				<rect x="80.8" y="103" transform="matrix(0.5 -0.866 0.866 0.5 -49.4947 121.9651)" class="st49" width="0.2" height="1.7"/>
			</g>
			<g>
				
					<rect x="82" y="102.3" transform="matrix(0.4999 -0.8661 0.8661 0.4999 -48.2731 122.6805)" class="st49" width="0.2" height="1.7"/>
			</g>
			<g>
				
					<rect x="83.2" y="101.6" transform="matrix(0.5001 -0.866 0.866 0.5001 -47.0576 123.36)" class="st49" width="0.2" height="1.7"/>
			</g>
			<g>
				
					<rect x="85" y="100.5" transform="matrix(0.4999 -0.8661 0.8661 0.4999 -45.8336 124.7701)" class="st49" width="0.2" height="3.1"/>
			</g>
			<g>
				<rect x="85.6" y="100.2" transform="matrix(0.5 -0.866 0.866 0.5 -44.6153 124.7864)" class="st49" width="0.2" height="1.7"/>
			</g>
			<g>
				
					<rect x="86.9" y="99.5" transform="matrix(0.4997 -0.8662 0.8662 0.4997 -43.3886 125.5257)" class="st49" width="0.2" height="1.7"/>
			</g>
			<g>
				
					<rect x="88.1" y="98.8" transform="matrix(0.5001 -0.866 0.866 0.5001 -42.1795 126.1769)" class="st49" width="0.2" height="1.7"/>
			</g>
			<g>
				
					<rect x="89.3" y="98.1" transform="matrix(0.4999 -0.8661 0.8661 0.4999 -40.9528 126.9147)" class="st49" width="0.2" height="1.7"/>
			</g>
			<g>
				
					<rect x="91.1" y="97" transform="matrix(0.4999 -0.8661 0.8661 0.4999 -39.7364 128.2861)" class="st49" width="0.2" height="3.1"/>
			</g>
			<g>
				
					<rect x="91.7" y="96.7" transform="matrix(0.4999 -0.8661 0.8661 0.4999 -38.5137 128.3202)" class="st49" width="0.2" height="1.7"/>
			</g>
			<g>
				<rect x="93" y="96" transform="matrix(0.5 -0.866 0.866 0.5 -37.2992 129.0029)" class="st49" width="0.2" height="1.7"/>
			</g>
			<g>
				<rect x="94.2" y="95.3" transform="matrix(0.5 -0.866 0.866 0.5 -36.0789 129.7108)" class="st49" width="0.2" height="1.7"/>
			</g>
			<g>
				
					<rect x="95.4" y="94.6" transform="matrix(0.5001 -0.866 0.866 0.5001 -34.8621 130.4036)" class="st49" width="0.2" height="1.7"/>
			</g>
			<g>
				<rect x="97.2" y="93.5" transform="matrix(0.5 -0.866 0.866 0.5 -33.6413 131.7944)" class="st49" width="0.2" height="3.1"/>
			</g>
		</g>
		<polygon class="st50" points="52.5,126.1 52.5,126.6 46.2,123 46.2,122.4 		"/>
		<polygon class="st51" points="52.5,126.1 52.5,126.6 102.9,97.5 102.9,97 		"/>
	</g>
	<g>
		<path class="st48" d="M67.1,124.2L50,134.1l34.9,20.2L67.1,124.2z M64.7,130.4l6.7,11.4l-13.2-7.6L64.7,130.4z"/>
		<g>
			<polygon class="st50" points="50,134.1 50,134.6 84.9,154.8 84.9,154.3 			"/>
			<polygon class="st50" points="64.7,130.4 58.2,134.1 58.6,134.4 64.7,130.9 71,141.5 71.4,141.7 			"/>
		</g>
		<g>
			<g>
				<g>
					<g>
						<rect x="51.1" y="133.9" transform="matrix(0.866 -0.5 0.5 0.866 -59.9884 44.1879)" class="st49" width="2.6" height="0.2"/>
					</g>
				</g>
				<g>
					<g>
						<rect x="52.3" y="134.8" transform="matrix(0.866 -0.5 0.5 0.866 -60.3634 44.5767)" class="st49" width="1.5" height="0.2"/>
					</g>
				</g>
				<g>
					<g>
						<rect x="53.3" y="135.4" transform="matrix(0.866 -0.5 0.5 0.866 -60.5265 45.1827)" class="st49" width="1.5" height="0.2"/>
					</g>
				</g>
				<g>
					<g>
						<rect x="54.4" y="136.1" transform="matrix(0.866 -0.5 0.5 0.866 -60.6928 45.7934)" class="st49" width="1.5" height="0.2"/>
					</g>
				</g>
				<g>
					<g>
						
							<rect x="55.4" y="136.7" transform="matrix(0.8661 -0.4999 0.4999 0.8661 -60.8456 46.386)" class="st49" width="1.5" height="0.2"/>
					</g>
				</g>
				<g>
					<g>
						<rect x="56.4" y="137" transform="matrix(0.866 -0.5 0.5 0.866 -60.7965 47.2097)" class="st49" width="2.6" height="0.2"/>
					</g>
				</g>
				<g>
					<g>
						<rect x="57.5" y="137.9" transform="matrix(0.866 -0.5 0.5 0.866 -61.1765 47.6048)" class="st49" width="1.5" height="0.2"/>
					</g>
				</g>
				<g>
					<g>
						
							<rect x="58.6" y="138.5" transform="matrix(0.8659 -0.5002 0.5002 0.8659 -61.3588 48.2371)" class="st49" width="1.5" height="0.2"/>
					</g>
				</g>
				<g>
					<g>
						<rect x="59.6" y="139.1" transform="matrix(0.866 -0.5 0.5 0.866 -61.4991 48.8128)" class="st49" width="1.5" height="0.2"/>
					</g>
				</g>
				<g>
					<g>
						
							<rect x="60.7" y="139.7" transform="matrix(0.866 -0.5001 0.5001 0.866 -61.6747 49.4362)" class="st49" width="1.5" height="0.2"/>
					</g>
				</g>
				<g>
					<g>
						<rect x="61.6" y="140" transform="matrix(0.866 -0.5 0.5 0.866 -61.6133 50.2433)" class="st49" width="2.6" height="0.2"/>
					</g>
				</g>
				<g>
					<g>
						
							<rect x="62.8" y="140.9" transform="matrix(0.8659 -0.5001 0.5001 0.8659 -61.9999 50.648)" class="st49" width="1.5" height="0.2"/>
					</g>
				</g>
				<g>
					<g>
						
							<rect x="63.8" y="141.5" transform="matrix(0.8662 -0.4997 0.4997 0.8662 -62.1218 51.1967)" class="st49" width="1.5" height="0.2"/>
					</g>
				</g>
				<g>
					<g>
						<rect x="64.9" y="142.1" transform="matrix(0.866 -0.5 0.5 0.866 -62.3073 51.8345)" class="st49" width="1.5" height="0.2"/>
					</g>
				</g>
				<g>
					<g>
						<rect x="65.9" y="142.7" transform="matrix(0.866 -0.5 0.5 0.866 -62.4769 52.4502)" class="st49" width="1.5" height="0.2"/>
					</g>
				</g>
				<g>
					<g>
						
							<rect x="66.9" y="143" transform="matrix(0.8661 -0.4999 0.4999 0.8661 -62.41 53.2487)" class="st49" width="2.6" height="0.2"/>
					</g>
				</g>
				<g>
					<g>
						<rect x="68" y="143.9" transform="matrix(0.866 -0.5 0.5 0.866 -62.796 53.6529)" class="st49" width="1.5" height="0.2"/>
					</g>
				</g>
				<g>
					<g>
						<polygon class="st49" points="70.4,144.3 69.2,145.1 69.1,144.9 70.4,144.2 						"/>
					</g>
				</g>
				<g>
					<g>
						
							<rect x="70.1" y="145.1" transform="matrix(0.8662 -0.4998 0.4998 0.8662 -63.0954 54.8261)" class="st49" width="1.5" height="0.2"/>
					</g>
				</g>
				<g>
					<g>
						
							<rect x="71.1" y="145.7" transform="matrix(0.8661 -0.4998 0.4998 0.8661 -63.2671 55.4452)" class="st49" width="1.5" height="0.2"/>
					</g>
				</g>
				<g>
					<g>
						
							<rect x="72.1" y="146" transform="matrix(0.8661 -0.4999 0.4999 0.8661 -63.2183 56.2694)" class="st49" width="2.6" height="0.2"/>
					</g>
				</g>
				<g>
					<g>
						
							<rect x="73.2" y="146.9" transform="matrix(0.8661 -0.4999 0.4999 0.8661 -63.5988 56.6662)" class="st49" width="1.5" height="0.2"/>
					</g>
				</g>
				<g>
					<g>
						<rect x="74.3" y="147.5" transform="matrix(0.866 -0.5 0.5 0.866 -63.7703 57.2854)" class="st49" width="1.5" height="0.2"/>
					</g>
				</g>
				<g>
					<g>
						
							<rect x="75.3" y="148.2" transform="matrix(0.8661 -0.4998 0.4998 0.8661 -63.9155 57.8646)" class="st49" width="1.5" height="0.2"/>
					</g>
				</g>
				<g>
					<g>
						
							<rect x="76.4" y="148.8" transform="matrix(0.866 -0.5001 0.5001 0.866 -64.1036 58.5097)" class="st49" width="1.5" height="0.2"/>
					</g>
				</g>
				<g>
					<g>
						
							<rect x="77.3" y="149.1" transform="matrix(0.8661 -0.4998 0.4998 0.8661 -64.0242 59.2864)" class="st49" width="2.6" height="0.2"/>
					</g>
				</g>
				<g>
					<g>
						<rect x="78.5" y="150" transform="matrix(0.866 -0.5 0.5 0.866 -64.4195 59.7066)" class="st49" width="1.5" height="0.2"/>
					</g>
				</g>
				<g>
					<g>
						
							<rect x="79.5" y="150.6" transform="matrix(0.8662 -0.4998 0.4998 0.8662 -64.5571 60.2727)" class="st49" width="1.5" height="0.2"/>
					</g>
				</g>
				<g>
					<g>
						<rect x="80.6" y="151.2" transform="matrix(0.866 -0.5 0.5 0.866 -64.747 60.9221)" class="st49" width="1.5" height="0.2"/>
					</g>
				</g>
			</g>
		</g>
	</g>
	<g>
		<g>
			<g class="st22">
				<g>
					<polygon class="st52" points="144.6,167.1 179.2,147 178.6,147.9 144,168 					"/>
				</g>
				<g>
					<polygon class="st53" points="144,165.6 178.6,145.5 179.2,147 144.6,167.1 					"/>
				</g>
				<g>
					<polygon class="st54" points="142.8,164.9 177.4,144.8 178.6,145.5 144,165.6 					"/>
				</g>
				<g>
					<polygon class="st55" points="144,165.6 144.6,167.1 144,168 142.8,167.3 142.2,165.7 142.8,164.9 					"/>
				</g>
			</g>
		</g>
		<polygon class="st56" points="177.4,144.8 178.6,145.5 182.9,143.5 		"/>
		<polygon class="st57" points="178.6,145.5 179.2,147 182.9,143.5 		"/>
		<polygon class="st58" points="182.9,143.5 179.2,147 178.6,147.9 		"/>
		<path class="st59" d="M181.8,143.7c0.2,0.1,0.3,0.2,0.5,0.4l0.6-0.7L181.8,143.7z"/>
	</g>
	<g>
		<g>
			<path class="st60" d="M134.3,126L110.2,112l11.8-6.8l24.1,13.9L134.3,126z M111,112l23.3,13.5l10.9-6.3L122,105.7L111,112z"/>
		</g>
		<g>
			<path class="st60" d="M120.9,139.3l-14.5-8.4l18.7-10.8l14.5,8.4L120.9,139.3z M107.2,130.9l13.7,7.9l17.9-10.3l-13.7-7.9
				L107.2,130.9z"/>
		</g>
		<g>
			<path class="st60" d="M106.8,131.2l-20.3-11.7l18.7-10.8l20.3,11.7L106.8,131.2z M87.3,119.4l19.5,11.2l17.9-10.3l-19.5-11.2
				L87.3,119.4z"/>
		</g>
		<g>
			<path class="st60" d="M113.9,143.3L99.4,135l7.4-4.3l14.5,8.4L113.9,143.3z M100.2,135l13.7,7.9l6.6-3.8l-13.7-7.9L100.2,135z"/>
		</g>
		<g>
			<path class="st60" d="M99.8,135.2l-12.3-7.1l7.4-4.3l12.3,7.1L99.8,135.2z M88.3,128.1l11.5,6.6l6.6-3.8l-11.5-6.6L88.3,128.1z"
				/>
		</g>
		<g>
			<path class="st60" d="M101.7,119c-1-0.6-1-1.5,0-2.1c1-0.6,2.6-0.6,3.6,0c1,0.6,1,1.5,0,2.1C104.3,119.5,102.7,119.5,101.7,119z
				 M105.1,117c-0.9-0.5-2.3-0.5-3.2,0c-0.9,0.5-0.9,1.3,0,1.8c0.9,0.5,2.3,0.5,3.2,0C106,118.3,106,117.5,105.1,117z"/>
		</g>
		<g>
			<path class="st60" d="M109.3,126.5c-1.1-0.6-1.1-1.7,0-2.3l5.1-2.9c1.1-0.6,2.9-0.6,4,0c1.1,0.6,1.1,1.7,0,2.3l-5.1,2.9
				C112.2,127.1,110.4,127.1,109.3,126.5z M118.1,121.4c-1-0.6-2.6-0.6-3.5,0l-5.1,2.9c-1,0.6-1,1.5,0,2c1,0.6,2.6,0.6,3.5,0
				l5.1-2.9C119.1,122.9,119.1,122,118.1,121.4z"/>
		</g>
		<g>
			<path class="st60" d="M127.9,137.3l-2.2-1.3l7.1-4.1l2.2,1.3L127.9,137.3z M126.5,136.1l1.4,0.8l6.3-3.6l-1.4-0.8L126.5,136.1z"
				/>
		</g>
		<g>
			<polygon class="st60" points="129.8,126.3 127.9,122.2 128.5,122.1 130.4,126.2 			"/>
		</g>
		<g>
			<polygon class="st60" points="115.5,118 113.6,113.9 114.1,113.9 116,117.9 			"/>
		</g>
		<g>
			<polygon class="st60" points="99.8,127 99.8,126.7 105.4,127.2 105.3,127.5 			"/>
		</g>
		<g>
			<polygon class="st60" points="110.6,133.3 110.6,132.9 116.2,133.4 116.1,133.8 			"/>
		</g>
		<g>
			<path class="st60" d="M122,111.1l-5-2.9l5-2.9l5,2.9L122,111.1z M117.4,108.2l4.6,2.6l4.6-2.6l-4.6-2.6L117.4,108.2z"/>
		</g>
		<g>
			<path class="st60" d="M126.8,113.9l-5-2.9l5-2.9l5,2.9L126.8,113.9z M122.2,111l4.6,2.6l4.6-2.6l-4.6-2.6L122.2,111z"/>
		</g>
		<g>
			<path class="st60" d="M131.5,116.6l-5-2.9l5-2.9l5,2.9L131.5,116.6z M127,113.8l4.6,2.6l4.6-2.6l-4.6-2.6L127,113.8z"/>
		</g>
		<g>
			<path class="st60" d="M136.3,119.4l-5-2.9l5-2.9l5,2.9L136.3,119.4z M131.7,116.5l4.6,2.6l4.6-2.6l-4.6-2.6L131.7,116.5z"/>
		</g>
		<g>
			<path class="st60" d="M140.9,122l-4.8-2.8l5-2.9l4.8,2.8L140.9,122z M136.5,119.3l4.4,2.5l4.6-2.6l-4.4-2.5L136.5,119.3z"/>
		</g>
		<g>
			<path class="st60" d="M115,130.3l-3.7-2.1l9.9-5.7l3.7,2.1L115,130.3z M111.7,128.2l3.3,1.9l9.5-5.5l-3.3-1.9L111.7,128.2z"/>
		</g>
		<g>
			<path class="st60" d="M92.4,128.2l-0.7-0.4c-0.8-0.4-0.8-1.1,0-1.6c0.8-0.4,2-0.4,2.7,0l0.7,0.4c0.8,0.4,0.8,1.1,0,1.6
				C94.3,128.6,93.1,128.6,92.4,128.2z M94.2,126.3c-0.6-0.4-1.7-0.4-2.3,0c-0.6,0.4-0.6,1,0,1.3l0.7,0.4c0.6,0.4,1.7,0.4,2.3,0
				c0.6-0.4,0.6-1,0-1.3L94.2,126.3z"/>
		</g>
		<g>
			<path class="st60" d="M113.9,143.2l-8.9-5.1l4-2.3l8.9,5.1L113.9,143.2z M105.4,138.1l8.5,4.9l3.5-2l-8.5-4.9L105.4,138.1z"/>
		</g>
	</g>
	<g>
		<polygon class="st60" points="171.7,136.9 156.2,128 155.7,128.3 171.2,137.2 		"/>
		<polygon class="st60" points="168.6,138.7 153.2,129.8 152.7,130 168.1,139 		"/>
		<polygon class="st60" points="165.6,140.4 150.1,131.5 149.6,131.8 165.1,140.7 		"/>
		<polygon class="st60" points="162.5,142.2 147.1,133.3 146.6,133.5 162.1,142.5 		"/>
		<polygon class="st60" points="159.5,143.9 144.1,135 143.6,135.3 159,144.2 		"/>
		<polygon class="st60" points="156.5,145.7 141,136.8 140.5,137.1 156,146 		"/>
		<polygon class="st60" points="153.4,147.4 138,138.5 137.5,138.8 152.9,147.7 		"/>
		<polygon class="st60" points="150.4,149.2 135,140.3 134.5,140.6 149.9,149.5 		"/>
		<polygon class="st60" points="147.4,150.9 131.9,142 131.4,142.3 146.9,151.2 		"/>
		<polygon class="st60" points="144.3,152.7 128.9,143.8 128.4,144.1 143.8,153 		"/>
	</g>
	<polygon class="st61" points="137.7,160.6 137.7,161.7 182,136.1 182,135 	"/>
	<polygon class="st62" points="137.7,160.6 137.7,161.7 71.4,123.4 71.4,122.3 	"/>
</g>
</svg>
