<?xml version="1.0" encoding="utf-8"?>
<!-- Generator: Adobe Illustrator 22.1.0, SVG Export Plug-In . SVG Version: 6.00 Build 0)  -->
<svg version="1.1" id="Layer_1" xmlns="http://www.w3.org/2000/svg" xmlns:xlink="http://www.w3.org/1999/xlink" x="0px" y="0px"
	 viewBox="0 0 274 257" style="enable-background:new 0 0 274 257;" xml:space="preserve">
<style type="text/css">
	.st0{fill:#8F9397;}
	.st1{fill:#EDEFF0;}
	.st2{fill:#FFA433;}
	.st3{fill:#3F4142;}
	.st4{opacity:0.1;fill:#1A1C1D;}
	.st5{fill:#C7CBD1;}
	.st6{opacity:0.4;fill:#1A1C1D;}
	.st7{fill:#975000;}
	.st8{fill:#EEA433;}
</style>
<g>
	<path class="st0" d="M162.3,8.8c-16.8-9.8-40-8.4-65.5,6.3c-50.9,29.4-92.1,101-92,159.6c0.1,29.2,10.4,49.7,27,59.4l23,13.3
		c-16.6-9.7-26.9-30.2-27-59.4c-0.2-58.6,41.1-130.2,92-159.6c25.6-14.8,48.8-16.1,65.5-6.3L162.3,8.8z"/>
	<path class="st1" d="M119.7,28.5c50.9-29.4,92.4-5.6,92.6,53c0.2,58.6-41.1,130.2-92,159.6c-50.9,29.4-92.4,5.6-92.6-53
		C27.5,129.4,68.8,57.9,119.7,28.5z"/>
	<path class="st2" d="M119.9,114.4c-9.8,5.6-17.7,19.3-17.6,30.6c0,11.2,8,15.8,17.8,10.1c9.8-5.6,17.7-19.3,17.7-30.6
		C137.7,113.3,129.7,108.8,119.9,114.4z"/>
	<path class="st3" d="M119.8,71.6c-30.3,17.5-54.9,60-54.8,94.9c0.1,34.8,24.8,48.9,55.1,31.4c30.3-17.5,54.9-60,54.8-94.9
		C174.8,68.2,150.1,54.2,119.8,71.6z M120.1,174.7c-19.1,11-34.8,2.2-34.8-19.8c-0.1-22,15.5-48.9,34.6-59.9
		c19.1-11.1,34.8-2.1,34.8,19.8C154.8,136.7,139.2,163.6,120.1,174.7z"/>
	<path class="st3" d="M119.7,28.5c-50.9,29.4-92.1,101-92,159.6c0.2,58.6,41.7,82.4,92.6,53c50.9-29.4,92.1-101,92-159.6
		C212.1,22.9,170.6-0.9,119.7,28.5z M120.2,217.8c-39.7,22.9-72.1,4.3-72.3-41.5C47.8,130.6,80,74.7,119.7,51.7
		c39.7-22.9,72.1-4.3,72.3,41.5C192.1,139,159.9,194.9,120.2,217.8z"/>
	<path class="st4" d="M31.8,234.1l23,13.3c-12.4-7.2-21.3-20.5-25.1-39l-23-13.3C10.5,213.6,19.4,226.9,31.8,234.1z"/>
	<path class="st4" d="M185.2,22.1l-23-13.3c-9.5-5.5-21.1-7.5-34-5.5l23,13.3C164.1,14.6,175.7,16.6,185.2,22.1z"/>
	<path class="st5" d="M7.6,146.4l23,13.3c5.9-29.8,20.4-60.7,39.8-86.2l-23-13.3C27.9,85.8,13.5,116.6,7.6,146.4z"/>
	<path class="st6" d="M120.8,131.5c2-1.2,3.7-0.2,3.7,2.1c0,2.3-1.6,5.2-3.7,6.4c-2,1.2-3.7,0.2-3.7-2.1
		C117.1,135.5,118.8,132.7,120.8,131.5z"/>
	<path class="st1" d="M123.3,132.6l121,70.4c-0.5-0.3-1.2-0.3-2,0.2l-121-70.4C122.1,132.4,122.8,132.3,123.3,132.6z"/>
	<path class="st0" d="M240.2,210l-121-70.4c-0.5-0.3-0.8-0.9-0.8-1.8c0-1.8,1.3-4,2.8-4.9l121,70.4c-1.6,0.9-2.9,3.1-2.8,4.9
		C239.4,209,239.7,209.7,240.2,210z"/>
	<path class="st6" d="M118.4,137.8c0,0.9,0.3,1.5,0.8,1.8l121,70.4c-0.5-0.3-0.8-0.9-0.8-1.8c0-0.4,0.1-0.8,0.2-1.3l-121-70.4
		C118.5,136.9,118.4,137.4,118.4,137.8z"/>
	<path class="st5" d="M242.2,203.2c1.6-0.9,2.9-0.2,2.9,1.6c0,1.8-1.3,4-2.9,4.9c-1.6,0.9-2.9,0.2-2.9-1.6
		C239.4,206.3,240.7,204.1,242.2,203.2z"/>
	<polygon class="st7" points="271,191 222.8,163.2 190.5,174.2 238.7,202 271,191 	"/>
	<polygon class="st8" points="235.6,204.5 187.5,176.6 180.6,202.4 228.8,230.2 235.6,204.5 	"/>
</g>
</svg>
