<?xml version="1.0" encoding="utf-8"?>
<!-- Generator: Adobe Illustrator 22.1.0, SVG Export Plug-In . SVG Version: 6.00 Build 0)  -->
<svg version="1.1" id="Layer_1" xmlns="http://www.w3.org/2000/svg" xmlns:xlink="http://www.w3.org/1999/xlink" x="0px" y="0px"
	 viewBox="0 0 274 257" style="enable-background:new 0 0 274 257;" xml:space="preserve">
<style type="text/css">
	.st0{fill:#F1F1F1;}
	.st1{fill:#A5A5A5;}
	.st2{fill:#D5910A;}
	.st3{fill:#FFD117;}
	.st4{fill:#23281E;}
	.st5{fill:#F2E4D1;}
	.st6{fill:#FFDA43;}
	.st7{fill:#C4B5A3;}
	.st8{fill:#D6C5B3;}
	.st9{fill:#F6AA00;}
	.st10{filter:url(#Adobe_OpacityMaskFilter);}
	.st11{filter:url(#Adobe_OpacityMaskFilter_1_);}
	.st12{mask:url(#SVGID_1_);fill:url(#SVGID_2_);}
	.st13{opacity:0.2;fill:#3D3D3D;}
</style>
<g>
	<g>
		<g>
			<g>
				<g>
					<polygon class="st0" points="274,167.4 162.2,232 1.2,139 113,74.5 					"/>
				</g>
				<g>
					<path class="st1" d="M139.1,101.5L48,154.1c-0.3,0.1-0.3,0.4,0,0.5l113.8,65.7c0.3,0.1,0.7,0.1,0.9,0l91.1-52.6
						c0.3-0.1,0.3-0.4,0-0.5L140,101.5C139.8,101.4,139.4,101.4,139.1,101.5z M252.5,167.5l-90.2,52.1L49.4,154.4l90.2-52.1
						L252.5,167.5z"/>
					<path class="st1" d="M79.6,151.6c1.9-1.1,1.9-2.9,0-4c-1.9-1.1-5.1-1.1-7,0c-1.9,1.1-1.9,2.9,0,4
						C74.5,152.8,77.6,152.8,79.6,151.6z"/>
					<path class="st1" d="M68.9,155l1.5-0.9l1.3,0.4l0.9-0.5l-5.6-1.6l-1.1,0.6l2.7,3.3l0.9-0.5L68.9,155z M67.1,153.1
						c0.1,0,0.2,0.1,0.4,0.1c0.2,0,0.8,0.2,2,0.6l-1.1,0.6C67.7,153.7,67.3,153.3,67.1,153.1z"/>
					<path class="st1" d="M100.1,139.8c1.9-1.1,1.9-2.9,0-4c-1.9-1.1-5.1-1.1-7,0c-1.9,1.1-1.9,2.9,0,4
						C95.1,140.9,98.2,140.9,100.1,139.8z M94.1,136.3c1.4-0.8,3.7-0.8,5.1,0c1.4,0.8,1.4,2.1,0,3c-1.4,0.8-3.7,0.8-5.1,0
						C92.7,138.4,92.7,137.1,94.1,136.3z"/>
					<path class="st1" d="M92.1,142.4c0.1-0.3-0.1-0.5-0.5-0.7c-0.3-0.2-0.5-0.2-0.8-0.3c-0.3,0-0.6,0-0.9,0.1l0,0
						c0.2-0.1,0.2-0.3,0.2-0.4c0-0.2-0.2-0.3-0.4-0.5c-0.4-0.2-0.8-0.3-1.2-0.2c-0.4,0.1-0.9,0.3-1.5,0.6l-1.3,0.7l4.1,2.4l1.6-0.9
						C91.7,143,92,142.7,92.1,142.4z M87.2,141.6l0.5-0.3c0.3-0.1,0.5-0.2,0.7-0.3c0.2,0,0.4,0,0.5,0.1c0.2,0.1,0.2,0.2,0.2,0.3
						c0,0.1-0.2,0.2-0.4,0.4l-0.5,0.3L87.2,141.6z M89.9,143.2l-1.1-0.6l0.5-0.3c0.5-0.3,0.9-0.3,1.3-0.1c0.2,0.1,0.3,0.2,0.3,0.3
						c0,0.1-0.2,0.3-0.4,0.4L89.9,143.2z"/>
					<path class="st1" d="M120.7,127.9c1.9-1.1,1.9-2.9,0-4c-1.9-1.1-5.1-1.1-7,0c-1.9,1.1-1.9,2.9,0,4
						C115.7,129,118.8,129,120.7,127.9z M114.7,124.4c1.4-0.8,3.7-0.8,5.1,0c1.4,0.8,1.4,2.1,0,3c-1.4,0.8-3.7,0.8-5.1,0
						C113.3,126.5,113.3,125.2,114.7,124.4z"/>
					<path class="st1" d="M112,131.3c0.4-0.2,0.7-0.5,0.9-0.8l-0.7-0.4c-0.3,0.3-0.5,0.6-0.8,0.7c-0.7,0.4-1.5,0.3-2.4-0.2
						c-0.4-0.3-0.7-0.5-0.8-0.8c-0.1-0.2,0.1-0.5,0.4-0.7c0.2-0.1,0.3-0.2,0.5-0.2c0.2-0.1,0.4-0.1,0.7-0.2l-0.4-0.6
						c-0.6,0.1-1.1,0.3-1.5,0.5c-0.4,0.2-0.7,0.5-0.8,0.7c-0.1,0.3-0.1,0.5,0.1,0.8c0.2,0.3,0.5,0.5,0.9,0.8
						c0.7,0.4,1.4,0.6,2.1,0.6C110.8,131.8,111.4,131.7,112,131.3z"/>
					<path class="st1" d="M141.3,116c1.9-1.1,1.9-2.9,0-4c-1.9-1.1-5.1-1.1-7,0c-1.9,1.1-1.9,2.9,0,4
						C136.3,117.1,139.4,117.1,141.3,116z M135.3,112.5c1.4-0.8,3.7-0.8,5.1,0s1.4,2.1,0,3c-1.4,0.8-3.7,0.8-5.1,0
						C133.8,114.6,133.8,113.3,135.3,112.5z"/>
					<path class="st1" d="M133.2,118.4c0-0.4-0.3-0.8-1-1.2c-0.6-0.4-1.3-0.6-2.1-0.5c-0.7,0-1.4,0.2-2.1,0.6l-1.3,0.8l4.1,2.4
						l1.2-0.7C132.8,119.3,133.2,118.8,133.2,118.4z M128.3,117.9l0.5-0.3c0.8-0.5,1.6-0.4,2.5,0.1c0.9,0.5,0.9,1,0.1,1.5l-0.4,0.2
						L128.3,117.9z"/>
					<path class="st1" d="M95.3,160.8c1.9-1.1,1.9-2.9,0-4c-1.9-1.1-5.1-1.1-7,0c-1.9,1.1-1.9,2.9,0,4
						C90.3,161.9,93.4,161.9,95.3,160.8z M89.3,157.3c1.4-0.8,3.7-0.8,5.1,0c1.4,0.8,1.4,2.1,0,3c-1.4,0.8-3.7,0.8-5.1,0
						C87.9,159.4,87.9,158.1,89.3,157.3z"/>
					<path class="st1" d="M84.6,164.1l1.5-0.9l1.3,0.4l0.9-0.5l-5.6-1.6l-1.1,0.6l2.7,3.3l0.9-0.5L84.6,164.1z M82.9,162.2
						c0.1,0,0.2,0.1,0.4,0.1c0.2,0,0.8,0.2,2,0.6l-1.1,0.6C83.5,162.9,83,162.4,82.9,162.2z"/>
					<path class="st1" d="M115.9,148.9c1.9-1.1,1.9-2.9,0-4c-1.9-1.1-5.1-1.1-7,0c-1.9,1.1-1.9,2.9,0,4
						C110.9,150,114,150,115.9,148.9z M109.9,145.4c1.4-0.8,3.7-0.8,5.1,0c1.4,0.8,1.4,2.1,0,3c-1.4,0.8-3.7,0.8-5.1,0
						C108.5,147.5,108.5,146.2,109.9,145.4z"/>
					<path class="st1" d="M107.8,151.5c0.1-0.3-0.1-0.5-0.5-0.7c-0.3-0.2-0.5-0.2-0.8-0.3c-0.3,0-0.6,0-0.9,0.1l0,0
						c0.2-0.1,0.2-0.3,0.2-0.4c0-0.2-0.2-0.3-0.4-0.5c-0.4-0.2-0.8-0.3-1.2-0.2c-0.4,0.1-0.9,0.3-1.5,0.6l-1.3,0.7l4.1,2.4l1.6-0.9
						C107.5,152.1,107.8,151.8,107.8,151.5z M102.9,150.8l0.5-0.3c0.3-0.1,0.5-0.2,0.7-0.3c0.2,0,0.4,0,0.5,0.1
						c0.2,0.1,0.2,0.2,0.2,0.3c0,0.1-0.2,0.2-0.4,0.4l-0.5,0.3L102.9,150.8z M105.6,152.3l-1.1-0.6l0.5-0.3c0.5-0.3,0.9-0.3,1.3-0.1
						c0.2,0.1,0.3,0.2,0.3,0.3c0,0.1-0.2,0.3-0.4,0.4L105.6,152.3z"/>
					<path class="st1" d="M136.5,137c1.9-1.1,1.9-2.9,0-4c-1.9-1.1-5.1-1.1-7,0c-1.9,1.1-1.9,2.9,0,4
						C131.5,138.1,134.6,138.1,136.5,137z"/>
					<path class="st1" d="M127.8,140.4c0.4-0.2,0.7-0.5,0.9-0.8l-0.7-0.4c-0.3,0.3-0.5,0.6-0.8,0.7c-0.7,0.4-1.5,0.3-2.4-0.2
						c-0.4-0.3-0.7-0.5-0.8-0.8c-0.1-0.2,0.1-0.5,0.4-0.7c0.2-0.1,0.3-0.2,0.5-0.2c0.2-0.1,0.4-0.1,0.7-0.2l-0.4-0.6
						c-0.6,0.1-1.1,0.3-1.5,0.5c-0.4,0.2-0.7,0.5-0.8,0.7c-0.1,0.3-0.1,0.5,0.1,0.8c0.2,0.3,0.5,0.5,0.9,0.8
						c0.7,0.4,1.4,0.6,2.1,0.6C126.6,140.9,127.2,140.8,127.8,140.4z"/>
					<path class="st1" d="M157.1,125.1c1.9-1.1,1.9-2.9,0-4c-1.9-1.1-5.1-1.1-7,0c-1.9,1.1-1.9,2.9,0,4
						C152,126.2,155.2,126.2,157.1,125.1z M151,121.6c1.4-0.8,3.7-0.8,5.1,0c1.4,0.8,1.4,2.1,0,3c-1.4,0.8-3.7,0.8-5.1,0
						C149.6,123.8,149.6,122.4,151,121.6z"/>
					<path class="st1" d="M149,127.5c0-0.4-0.3-0.8-1-1.2c-0.6-0.4-1.3-0.6-2.1-0.5c-0.7,0-1.4,0.2-2.1,0.6l-1.3,0.8l4.1,2.4
						l1.2-0.7C148.6,128.4,149,127.9,149,127.5z M144.1,127l0.5-0.3c0.8-0.5,1.6-0.4,2.5,0.1c0.9,0.5,0.9,1,0.1,1.5l-0.4,0.2
						L144.1,127z"/>
					<path class="st1" d="M111.1,169.9c1.9-1.1,1.9-2.9,0-4c-1.9-1.1-5.1-1.1-7,0c-1.9,1.1-1.9,2.9,0,4
						C106.1,171,109.2,171,111.1,169.9z M105.1,166.4c1.4-0.8,3.7-0.8,5.1,0c1.4,0.8,1.4,2.1,0,3c-1.4,0.8-3.7,0.8-5.1,0
						C103.6,168.5,103.6,167.2,105.1,166.4z"/>
					<path class="st1" d="M100.4,173.3l1.5-0.9l1.3,0.4l0.9-0.5l-5.6-1.6l-1.1,0.6l2.7,3.3l0.9-0.5L100.4,173.3z M98.6,171.3
						c0.1,0,0.2,0.1,0.4,0.1c0.2,0,0.8,0.2,2,0.6l-1.1,0.6C99.2,172,98.8,171.5,98.6,171.3z"/>
					<path class="st1" d="M131.7,158c1.9-1.1,1.9-2.9,0-4c-1.9-1.1-5.1-1.1-7,0c-1.9,1.1-1.9,2.9,0,4
						C126.7,159.1,129.8,159.1,131.7,158z"/>
					<path class="st1" d="M123.6,160.6c0.1-0.3-0.1-0.5-0.5-0.7c-0.3-0.2-0.5-0.2-0.8-0.3c-0.3,0-0.6,0-0.9,0.1l0,0
						c0.2-0.1,0.2-0.3,0.2-0.4c0-0.2-0.2-0.3-0.4-0.5c-0.4-0.2-0.8-0.3-1.2-0.2c-0.4,0.1-0.9,0.3-1.5,0.6l-1.3,0.7l4.1,2.4l1.6-0.9
						C123.3,161.2,123.6,160.9,123.6,160.6z M118.7,159.9l0.5-0.3c0.3-0.1,0.5-0.2,0.7-0.3c0.2,0,0.4,0,0.5,0.1
						c0.2,0.1,0.2,0.2,0.2,0.3c0,0.1-0.2,0.2-0.4,0.4l-0.5,0.3L118.7,159.9z M121.4,161.4l-1.1-0.6l0.5-0.3c0.5-0.3,0.9-0.3,1.3-0.1
						c0.2,0.1,0.3,0.2,0.3,0.3c0,0.1-0.2,0.3-0.4,0.4L121.4,161.4z"/>
					<path class="st1" d="M152.3,146.1c1.9-1.1,1.9-2.9,0-4c-1.9-1.1-5.1-1.1-7,0c-1.9,1.1-1.9,2.9,0,4
						C147.2,147.2,150.4,147.2,152.3,146.1z M146.2,142.6c1.4-0.8,3.7-0.8,5.1,0c1.4,0.8,1.4,2.1,0,3c-1.4,0.8-3.7,0.8-5.1,0
						C144.8,144.7,144.8,143.4,146.2,142.6z"/>
					<path class="st1" d="M143.6,149.5c0.4-0.2,0.7-0.5,0.9-0.8l-0.7-0.4c-0.3,0.3-0.5,0.6-0.8,0.7c-0.7,0.4-1.5,0.3-2.4-0.2
						c-0.4-0.3-0.7-0.5-0.8-0.8c-0.1-0.2,0.1-0.5,0.4-0.7c0.2-0.1,0.3-0.2,0.5-0.2c0.2-0.1,0.4-0.1,0.7-0.2l-0.4-0.6
						c-0.6,0.1-1.1,0.3-1.5,0.5c-0.4,0.2-0.7,0.5-0.8,0.7c-0.1,0.3-0.1,0.5,0.1,0.8c0.2,0.3,0.5,0.5,0.9,0.8
						c0.7,0.4,1.4,0.6,2.1,0.6S143,149.9,143.6,149.5z"/>
					<path class="st1" d="M172.9,134.2c1.9-1.1,1.9-2.9,0-4c-1.9-1.1-5.1-1.1-7,0c-1.9,1.1-1.9,2.9,0,4
						C167.8,135.3,171,135.3,172.9,134.2z M166.8,130.7c1.4-0.8,3.7-0.8,5.1,0c1.4,0.8,1.4,2.1,0,3c-1.4,0.8-3.7,0.8-5.1,0
						C165.4,132.9,165.4,131.5,166.8,130.7z"/>
					<path class="st1" d="M188.7,143.3c1.9-1.1,1.9-2.9,0-4c-1.9-1.1-5.1-1.1-7,0c-1.9,1.1-1.9,2.9,0,4
						C183.6,144.4,186.7,144.4,188.7,143.3z M182.6,139.8c1.4-0.8,3.7-0.8,5.1,0c1.4,0.8,1.4,2.1,0,3c-1.4,0.8-3.7,0.8-5.1,0
						C181.2,142,181.2,140.6,182.6,139.8z"/>
					<path class="st1" d="M164.8,136.6c0-0.4-0.3-0.8-1-1.2c-0.6-0.4-1.3-0.6-2.1-0.5c-0.7,0-1.4,0.2-2.1,0.6l-1.3,0.8l4.1,2.4
						l1.2-0.7C164.4,137.5,164.7,137,164.8,136.6z M159.9,136.1l0.5-0.3c0.8-0.5,1.6-0.4,2.5,0.1c0.9,0.5,0.9,1,0.1,1.5l-0.4,0.2
						L159.9,136.1z"/>
					<path class="st1" d="M126.9,179c1.9-1.1,1.9-2.9,0-4c-1.9-1.1-5.1-1.1-7,0c-1.9,1.1-1.9,2.9,0,4
						C121.8,180.1,125,180.1,126.9,179z M120.8,175.5c1.4-0.8,3.7-0.8,5.1,0c1.4,0.8,1.4,2.1,0,3c-1.4,0.8-3.7,0.8-5.1,0
						C119.4,177.6,119.4,176.3,120.8,175.5z"/>
					<path class="st1" d="M116.2,182.4l1.5-0.9l1.3,0.4l0.9-0.5l-5.6-1.6l-1.1,0.6l2.7,3.3l0.9-0.5L116.2,182.4z M114.4,180.5
						c0.1,0,0.2,0.1,0.4,0.1c0.2,0,0.8,0.2,2,0.6l-1.1,0.6C115,181.1,114.6,180.6,114.4,180.5z"/>
					<path class="st1" d="M147.5,167.1c1.9-1.1,1.9-2.9,0-4c-1.9-1.1-5.1-1.1-7,0s-1.9,2.9,0,4C142.4,168.2,145.6,168.2,147.5,167.1
						z M141.4,163.6c1.4-0.8,3.7-0.8,5.1,0c1.4,0.8,1.4,2.1,0,3c-1.4,0.8-3.7,0.8-5.1,0C140,165.7,140,164.4,141.4,163.6z"/>
					<path class="st1" d="M139.4,169.7c0.1-0.3-0.1-0.5-0.5-0.7c-0.3-0.2-0.5-0.2-0.8-0.3c-0.3,0-0.6,0-0.9,0.1l0,0
						c0.2-0.1,0.2-0.3,0.2-0.4c0-0.2-0.2-0.3-0.4-0.5c-0.4-0.2-0.8-0.3-1.2-0.2c-0.4,0.1-0.9,0.3-1.5,0.6l-1.3,0.7l4.1,2.4l1.6-0.9
						C139.1,170.3,139.3,170,139.4,169.7z M134.5,169l0.5-0.3c0.3-0.1,0.5-0.2,0.7-0.3s0.4,0,0.5,0.1c0.2,0.1,0.2,0.2,0.2,0.3
						c0,0.1-0.2,0.2-0.4,0.4l-0.5,0.3L134.5,169z M137.2,170.5l-1.1-0.6l0.5-0.3c0.5-0.3,0.9-0.3,1.3-0.1c0.2,0.1,0.3,0.2,0.3,0.3
						c0,0.1-0.2,0.3-0.4,0.4L137.2,170.5z"/>
					<path class="st1" d="M168.1,155.2c1.9-1.1,1.9-2.9,0-4c-1.9-1.1-5.1-1.1-7,0c-1.9,1.1-1.9,2.9,0,4
						C163,156.3,166.2,156.3,168.1,155.2z M162,151.7c1.4-0.8,3.7-0.8,5.1,0c1.4,0.8,1.4,2.1,0,3c-1.4,0.8-3.7,0.8-5.1,0
						C160.6,153.9,160.6,152.5,162,151.7z"/>
					<path class="st1" d="M159.4,158.6c0.4-0.2,0.7-0.5,0.9-0.8l-0.7-0.4c-0.3,0.3-0.5,0.6-0.8,0.7c-0.7,0.4-1.5,0.3-2.4-0.2
						c-0.4-0.3-0.7-0.5-0.8-0.8c-0.1-0.2,0.1-0.5,0.4-0.7c0.2-0.1,0.3-0.2,0.5-0.2c0.2-0.1,0.4-0.1,0.7-0.2l-0.4-0.6
						c-0.6,0.1-1.1,0.3-1.5,0.5c-0.4,0.2-0.7,0.5-0.8,0.7c-0.1,0.3-0.1,0.5,0.1,0.8c0.2,0.3,0.5,0.5,0.9,0.8
						c0.7,0.4,1.4,0.6,2.1,0.6C158.1,159.2,158.8,159,159.4,158.6z"/>
					<path class="st1" d="M180.5,145.7c0-0.4-0.3-0.8-1-1.2c-0.6-0.4-1.3-0.6-2.1-0.5c-0.7,0-1.4,0.2-2.1,0.6l-1.3,0.8l4.1,2.4
						l1.2-0.7C180.1,146.6,180.5,146.2,180.5,145.7z M175.7,145.2l0.5-0.3c0.8-0.5,1.6-0.4,2.5,0.1c0.9,0.5,0.9,1,0.1,1.5l-0.4,0.2
						L175.7,145.2z"/>
					<path class="st1" d="M142.7,188.1c1.9-1.1,1.9-2.9,0-4c-1.9-1.1-5.1-1.1-7,0c-1.9,1.1-1.9,2.9,0,4
						C137.6,189.2,140.8,189.2,142.7,188.1z M136.6,184.6c1.4-0.8,3.7-0.8,5.1,0c1.4,0.8,1.4,2.1,0,3c-1.4,0.8-3.7,0.8-5.1,0
						C135.2,186.7,135.2,185.4,136.6,184.6z"/>
					<path class="st1" d="M163.3,176.2c1.9-1.1,1.9-2.9,0-4c-1.9-1.1-5.1-1.1-7,0c-1.9,1.1-1.9,2.9,0,4
						C158.2,177.3,161.4,177.3,163.3,176.2z M157.2,172.7c1.4-0.8,3.7-0.8,5.1,0c1.4,0.8,1.4,2.1,0,3c-1.4,0.8-3.7,0.8-5.1,0
						C155.8,174.9,155.8,173.5,157.2,172.7z"/>
					<path class="st1" d="M132,191.5l1.5-0.9l1.3,0.4l0.9-0.5l-5.6-1.6l-1.1,0.6l2.7,3.3l0.9-0.5L132,191.5z M130.2,189.6
						c0.1,0,0.2,0.1,0.4,0.1c0.2,0,0.8,0.2,2,0.6l-1.1,0.6C130.8,190.2,130.4,189.8,130.2,189.6z"/>
					<path class="st1" d="M155.2,178.9c0.1-0.3-0.1-0.5-0.5-0.7c-0.3-0.2-0.5-0.2-0.8-0.3c-0.3,0-0.6,0-0.9,0.1l0,0
						c0.2-0.1,0.2-0.3,0.2-0.4c0-0.2-0.2-0.3-0.4-0.5c-0.4-0.2-0.8-0.3-1.2-0.2c-0.4,0.1-0.9,0.3-1.5,0.6l-1.3,0.7l4.1,2.4l1.6-0.9
						C154.9,179.4,155.1,179.1,155.2,178.9z M150.3,178.1l0.5-0.3c0.3-0.1,0.5-0.2,0.7-0.3c0.2,0,0.4,0,0.5,0.1
						c0.2,0.1,0.2,0.2,0.2,0.3c0,0.1-0.2,0.2-0.4,0.4l-0.5,0.3L150.3,178.1z M153,179.7l-1.1-0.6l0.5-0.3c0.5-0.3,0.9-0.3,1.3-0.1
						c0.2,0.1,0.3,0.2,0.3,0.3c0,0.1-0.2,0.3-0.4,0.4L153,179.7z"/>
					<path class="st1" d="M183.9,164.3c1.9-1.1,1.9-2.9,0-4c-1.9-1.1-5.1-1.1-7,0c-1.9,1.1-1.9,2.9,0,4
						C178.8,165.4,181.9,165.4,183.9,164.3z M177.8,160.8c1.4-0.8,3.7-0.8,5.1,0c1.4,0.8,1.4,2.1,0,3c-1.4,0.8-3.7,0.8-5.1,0
						C176.4,163,176.4,161.6,177.8,160.8z"/>
					<path class="st1" d="M175.2,167.8c0.4-0.2,0.7-0.5,0.9-0.8l-0.7-0.4c-0.3,0.3-0.5,0.6-0.8,0.7c-0.7,0.4-1.5,0.3-2.4-0.2
						c-0.4-0.3-0.7-0.5-0.8-0.8c-0.1-0.2,0.1-0.5,0.4-0.7c0.2-0.1,0.3-0.2,0.5-0.2c0.2-0.1,0.4-0.1,0.7-0.2l-0.4-0.6
						c-0.6,0.1-1.1,0.3-1.5,0.5c-0.4,0.2-0.7,0.5-0.8,0.7c-0.1,0.3-0.1,0.5,0.1,0.8c0.2,0.3,0.5,0.5,0.9,0.8
						c0.7,0.4,1.4,0.6,2.1,0.6C173.9,168.3,174.6,168.1,175.2,167.8z"/>
					<path class="st1" d="M204.5,152.4c1.9-1.1,1.9-2.9,0-4c-1.9-1.1-5.1-1.1-7,0c-1.9,1.1-1.9,2.9,0,4
						C199.4,153.6,202.5,153.6,204.5,152.4z M198.4,148.9c1.4-0.8,3.7-0.8,5.1,0c1.4,0.8,1.4,2.1,0,3c-1.4,0.8-3.7,0.8-5.1,0
						C197,151.1,197,149.8,198.4,148.9z"/>
					<path class="st1" d="M220.2,161.6c1.9-1.1,1.9-2.9,0-4c-1.9-1.1-5.1-1.1-7,0c-1.9,1.1-1.9,2.9,0,4
						C215.2,162.7,218.3,162.7,220.2,161.6z M214.2,158.1c1.4-0.8,3.7-0.8,5.1,0c1.4,0.8,1.4,2.1,0,3c-1.4,0.8-3.7,0.8-5.1,0
						C212.8,160.2,212.8,158.9,214.2,158.1z"/>
					<path class="st1" d="M174.3,206.3c1.9-1.1,1.9-2.9,0-4c-1.9-1.1-5.1-1.1-7,0c-1.9,1.1-1.9,2.9,0,4
						C169.2,207.4,172.3,207.4,174.3,206.3z M168.2,202.8c1.4-0.8,3.7-0.8,5.1,0c1.4,0.8,1.4,2.1,0,3c-1.4,0.8-3.7,0.8-5.1,0
						C166.8,205,166.8,203.6,168.2,202.8z"/>
					<path class="st1" d="M196.3,154.8c0-0.4-0.3-0.8-1-1.2c-0.6-0.4-1.3-0.6-2.1-0.5c-0.7,0-1.4,0.2-2.1,0.6l-1.3,0.8l4.1,2.4
						l1.2-0.7C195.9,155.7,196.3,155.3,196.3,154.8z M191.5,154.3l0.5-0.3c0.8-0.5,1.6-0.4,2.5,0.1c0.9,0.5,0.9,1,0.1,1.5l-0.4,0.2
						L191.5,154.3z"/>
					<path class="st1" d="M158.5,197.2c1.9-1.1,1.9-2.9,0-4c-1.9-1.1-5.1-1.1-7,0c-1.9,1.1-1.9,2.9,0,4
						C153.4,198.3,156.5,198.3,158.5,197.2z M152.4,193.7c1.4-0.8,3.7-0.8,5.1,0c1.4,0.8,1.4,2.1,0,3s-3.7,0.8-5.1,0
						C151,195.9,151,194.5,152.4,193.7z"/>
					<path class="st1" d="M147.8,200.6l1.5-0.9l1.3,0.4l0.9-0.5l-5.6-1.6l-1.1,0.6l2.7,3.3l0.9-0.5L147.8,200.6z M146,198.7
						c0.1,0,0.2,0.1,0.4,0.1c0.2,0,0.8,0.2,2,0.6l-1.1,0.6C146.6,199.3,146.2,198.9,146,198.7z"/>
					<path class="st1" d="M179.1,185.3c1.9-1.1,1.9-2.9,0-4c-1.9-1.1-5.1-1.1-7,0s-1.9,2.9,0,4C174,186.4,177.1,186.4,179.1,185.3z
						 M173,181.8c1.4-0.8,3.7-0.8,5.1,0c1.4,0.8,1.4,2.1,0,3c-1.4,0.8-3.7,0.8-5.1,0C171.6,184,171.6,182.6,173,181.8z"/>
					<path class="st1" d="M171,188c0.1-0.3-0.1-0.5-0.5-0.7c-0.3-0.2-0.5-0.2-0.8-0.3c-0.3,0-0.6,0-0.9,0.1l0,0
						c0.2-0.1,0.2-0.3,0.2-0.4c0-0.2-0.2-0.3-0.4-0.5c-0.4-0.2-0.8-0.3-1.2-0.2c-0.4,0.1-0.9,0.3-1.5,0.6l-1.3,0.7l4.1,2.4l1.6-0.9
						C170.6,188.5,170.9,188.2,171,188z M166.1,187.2l0.5-0.3c0.3-0.1,0.5-0.2,0.7-0.3c0.2,0,0.4,0,0.5,0.1c0.2,0.1,0.2,0.2,0.2,0.3
						c0,0.1-0.2,0.2-0.4,0.4l-0.5,0.3L166.1,187.2z M168.8,188.8l-1.1-0.6l0.5-0.3c0.5-0.3,0.9-0.3,1.3-0.1c0.2,0.1,0.3,0.2,0.3,0.3
						c0,0.1-0.2,0.3-0.4,0.4L168.8,188.8z"/>
					<path class="st1" d="M199.7,173.4c1.9-1.1,1.9-2.9,0-4c-1.9-1.1-5.1-1.1-7,0c-1.9,1.1-1.9,2.9,0,4
						C194.6,174.6,197.7,174.6,199.7,173.4z M193.6,169.9c1.4-0.8,3.7-0.8,5.1,0c1.4,0.8,1.4,2.1,0,3c-1.4,0.8-3.7,0.8-5.1,0
						C192.2,172.1,192.2,170.8,193.6,169.9z"/>
					<path class="st1" d="M191,176.9c0.4-0.2,0.7-0.5,0.9-0.8l-0.7-0.4c-0.3,0.3-0.5,0.6-0.8,0.7c-0.7,0.4-1.5,0.3-2.4-0.2
						c-0.4-0.3-0.7-0.5-0.8-0.8c-0.1-0.2,0.1-0.5,0.4-0.7c0.2-0.1,0.3-0.2,0.5-0.2c0.2-0.1,0.4-0.1,0.7-0.2l-0.4-0.6
						c-0.6,0.1-1.1,0.3-1.5,0.5c-0.4,0.2-0.7,0.5-0.8,0.7c-0.1,0.3-0.1,0.5,0.1,0.8c0.2,0.3,0.5,0.5,0.9,0.8
						c0.7,0.4,1.4,0.6,2.1,0.6C189.7,177.4,190.3,177.2,191,176.9z"/>
					<path class="st1" d="M212.1,164c0-0.4-0.3-0.8-1-1.2c-0.6-0.4-1.3-0.6-2.1-0.5c-0.7,0-1.4,0.2-2.1,0.6l-1.3,0.8l4.1,2.4
						l1.2-0.7C211.7,164.8,212.1,164.4,212.1,164z M207.3,163.4l0.5-0.3c0.8-0.5,1.6-0.4,2.5,0.1c0.9,0.5,0.9,1,0.1,1.5L210,165
						L207.3,163.4z"/>
					<path class="st1" d="M163.6,209.7l1.5-0.9l1.3,0.4l0.9-0.5l-5.6-1.6l-1.1,0.6l2.7,3.3l0.9-0.5L163.6,209.7z M161.8,207.8
						c0.1,0,0.2,0.1,0.4,0.1c0.2,0,0.8,0.2,2,0.6l-1.1,0.6C162.4,208.4,162,208,161.8,207.8z"/>
					<path class="st1" d="M194.8,194.4c1.9-1.1,1.9-2.9,0-4c-1.9-1.1-5.1-1.1-7,0c-1.9,1.1-1.9,2.9,0,4
						C189.8,195.6,192.9,195.6,194.8,194.4z M188.8,190.9c1.4-0.8,3.7-0.8,5.1,0c1.4,0.8,1.4,2.1,0,3c-1.4,0.8-3.7,0.8-5.1,0
						C187.4,193.1,187.4,191.8,188.8,190.9z"/>
					<path class="st1" d="M186.8,197.1c0.1-0.3-0.1-0.5-0.5-0.7c-0.3-0.2-0.5-0.2-0.8-0.3c-0.3,0-0.6,0-0.9,0.1l0,0
						c0.2-0.1,0.2-0.3,0.2-0.4c0-0.2-0.2-0.3-0.4-0.5c-0.4-0.2-0.8-0.3-1.2-0.2c-0.4,0.1-0.9,0.3-1.5,0.6l-1.3,0.7l4.1,2.4l1.6-0.9
						C186.4,197.6,186.7,197.4,186.8,197.1z M181.9,196.3l0.5-0.3c0.3-0.1,0.5-0.2,0.7-0.3s0.4,0,0.5,0.1c0.2,0.1,0.2,0.2,0.2,0.3
						c0,0.1-0.2,0.2-0.4,0.4l-0.5,0.3L181.9,196.3z M184.6,197.9l-1.1-0.6l0.5-0.3c0.5-0.3,0.9-0.3,1.3-0.1c0.2,0.1,0.3,0.2,0.3,0.3
						c0,0.1-0.2,0.3-0.4,0.4L184.6,197.9z"/>
					<path class="st1" d="M215.4,182.6c1.9-1.1,1.9-2.9,0-4c-1.9-1.1-5.1-1.1-7,0c-1.9,1.1-1.9,2.9,0,4
						C210.4,183.7,213.5,183.7,215.4,182.6z M209.4,179.1c1.4-0.8,3.7-0.8,5.1,0c1.4,0.8,1.4,2.1,0,3c-1.4,0.8-3.7,0.8-5.1,0
						C208,181.2,208,179.9,209.4,179.1z"/>
					<path class="st1" d="M206.7,186c0.4-0.2,0.7-0.5,0.9-0.8l-0.7-0.4c-0.3,0.3-0.5,0.6-0.8,0.7c-0.7,0.4-1.5,0.3-2.4-0.2
						c-0.4-0.3-0.7-0.5-0.8-0.8c-0.1-0.2,0.1-0.5,0.4-0.7c0.2-0.1,0.3-0.2,0.5-0.2c0.2-0.1,0.4-0.1,0.7-0.2l-0.4-0.6
						c-0.6,0.1-1.1,0.3-1.5,0.5c-0.4,0.2-0.7,0.5-0.8,0.7c-0.1,0.3-0.1,0.5,0.1,0.8c0.2,0.3,0.5,0.5,0.9,0.8
						c0.7,0.4,1.4,0.6,2.1,0.6C205.5,186.5,206.1,186.3,206.7,186z"/>
					<path class="st1" d="M236,170.7c1.9-1.1,1.9-2.9,0-4c-1.9-1.1-5.1-1.1-7,0c-1.9,1.1-1.9,2.9,0,4
						C231,171.8,234.1,171.8,236,170.7z M230,167.2c1.4-0.8,3.7-0.8,5.1,0c1.4,0.8,1.4,2.1,0,3c-1.4,0.8-3.7,0.8-5.1,0
						C228.5,169.3,228.5,168,230,167.2z"/>
					<path class="st1" d="M227.9,173.1c0-0.4-0.3-0.8-1-1.2c-0.6-0.4-1.3-0.6-2.1-0.5c-0.7,0-1.4,0.2-2.1,0.6l-1.3,0.8l4.1,2.4
						l1.2-0.7C227.5,173.9,227.9,173.5,227.9,173.1z M223,172.5l0.5-0.3c0.8-0.5,1.6-0.4,2.5,0.1c0.9,0.5,0.9,1,0.1,1.5l-0.4,0.2
						L223,172.5z"/>
				</g>
			</g>
		</g>
	</g>
	<g>
		<polygon class="st2" points="171.4,139.7 174.4,140 222.5,15.7 219.4,15.3 		"/>
		<path class="st3" d="M219.4,15.3l3.1,0.3l-1.5-1.6l-4.6-1.9l-3.1-0.3l1.5,1.6L219.4,15.3z M216.7,13.3L216.7,13.3l0.2,0l0.2,0
			l0.2,0l0.2,0.1l0.2,0.1l0.2,0.1l0.2,0.1l0.2,0.1l0.2,0.1l0.2,0.1l0.1,0.1l0.1,0.1l0.1,0.1l0,0.1l0,0l-0.1,0l-0.1,0l-0.1,0l-0.2,0
			l-0.2,0l-0.2-0.1l-0.2-0.1l-0.2-0.1l-0.2-0.1l-0.2-0.1l-0.2-0.1l-0.2-0.1l-0.1-0.1l-0.1-0.1L216.7,13.3L216.7,13.3L216.7,13.3z"/>
		<polygon class="st4" points="216.7,13.4 216.8,13.5 216.9,13.6 217.1,13.7 217.3,13.8 217.5,13.9 217.7,14 217.9,14.1 218.1,14.1 
			218.4,14.2 218.6,14.3 218.7,14.3 218.9,14.3 219,14.3 219,14.3 219.1,14.2 219,14.2 219,14.1 218.9,14 218.7,13.9 218.6,13.8 
			218.4,13.7 218.1,13.6 217.9,13.5 217.7,13.4 217.5,13.4 217.3,13.3 217.1,13.3 216.9,13.3 216.8,13.3 216.7,13.3 216.7,13.3 
			216.7,13.4 		"/>
		<polygon class="st5" points="166.7,137.8 165.2,136.2 164.1,149.4 164.5,149.7 		"/>
		<polygon class="st6" points="214.8,13.4 213.2,11.9 165.2,136.2 166.7,137.8 		"/>
		<polygon class="st4" points="164.1,149.4 163.8,153.7 164.5,149.7 		"/>
		<polygon class="st4" points="165.7,150.2 163.8,153.7 166.4,150.3 		"/>
		<polygon class="st4" points="164.5,149.7 163.8,153.7 163.8,153.7 163.8,153.7 163.8,153.7 163.8,153.7 163.8,153.7 163.8,153.7 
			163.8,153.7 163.8,153.7 165.7,150.2 		"/>
		<polygon class="st7" points="165.7,150.2 166.4,150.3 174.4,140 171.4,139.7 		"/>
		<polygon class="st8" points="166.7,137.8 164.5,149.7 165.7,150.2 171.4,139.7 		"/>
		<polygon class="st9" points="219.4,15.3 214.8,13.4 166.7,137.8 171.4,139.7 		"/>
		<defs>
			<filter id="Adobe_OpacityMaskFilter" filterUnits="userSpaceOnUse" x="163.8" y="123.6" width="92.9" height="30.1">
				<feFlood  style="flood-color:white;flood-opacity:1" result="back"/>
				<feBlend  in="SourceGraphic" in2="back" mode="normal"/>
			</filter>
		</defs>
		<mask maskUnits="userSpaceOnUse" x="163.8" y="123.6" width="92.9" height="30.1" id="SVGID_1_">
			<g class="st10">
				<defs>
					<filter id="Adobe_OpacityMaskFilter_1_" filterUnits="userSpaceOnUse" x="163.8" y="123.6" width="92.9" height="30.1">
						<feFlood  style="flood-color:white;flood-opacity:1" result="back"/>
						<feBlend  in="SourceGraphic" in2="back" mode="normal"/>
					</filter>
				</defs>
				<mask maskUnits="userSpaceOnUse" x="163.8" y="123.6" width="92.9" height="30.1" id="SVGID_1_">
					<g class="st11">
					</g>
				</mask>
				<linearGradient id="SVGID_2_" gradientUnits="userSpaceOnUse" x1="163.7822" y1="138.6685" x2="256.6471" y2="138.6685">
					<stop  offset="0" style="stop-color:#FFFFFF"/>
					<stop  offset="0.1882" style="stop-color:#FBFBFB"/>
					<stop  offset="0.3642" style="stop-color:#F0F0F0"/>
					<stop  offset="0.5353" style="stop-color:#DDDDDD"/>
					<stop  offset="0.7034" style="stop-color:#C2C2C2"/>
					<stop  offset="0.8677" style="stop-color:#A1A1A1"/>
					<stop  offset="1" style="stop-color:#808080"/>
				</linearGradient>
				<polygon class="st12" points="163.8,153.7 171.8,148 250.5,123.6 254.8,124.4 256.6,127.1 254.2,128.9 175.5,153.3 				"/>
			</g>
		</mask>
		<polygon class="st13" points="163.8,153.7 171.8,148 250.5,123.6 254.8,124.4 256.6,127.1 254.2,128.9 175.5,153.3 		"/>
	</g>
</g>
<g>
	<path class="st1" d="M50.9,142.4l0.7,0.4l0.7,0.4l0.7,0.4l0.7,0.4l-2.5,1.4l-2.5,1.4l-2.5,1.4l-2.5,1.4l-4-2.3l-4-2.3l-4-2.3
		l-4-2.3l2.5-1.4l2.5-1.4l2.5-1.4l2.5-1.4l0.7,0.4l0.7,0.4l0.7,0.4l0.7,0.4l-1.7,1l-1.7,1l-1.7,1l-1.7,1l0.9,0.5l0.9,0.5l0.9,0.5
		l0.9,0.5l1.2-0.7l1.2-0.7l1.2-0.7l1.2-0.7l0.7,0.4l0.7,0.4l0.7,0.4l0.7,0.4l-1.2,0.7l-1.2,0.7l-1.2,0.7l-1.2,0.7l0.9,0.5l0.9,0.5
		l0.9,0.5l0.9,0.5l1.7-1l1.7-1l1.7-1L50.9,142.4z"/>
	<path class="st1" d="M90.6,122.5l-0.3-0.2l-0.3-0.2l-0.3-0.2l-0.3-0.2l-0.3-0.2l-0.3-0.2l-0.3-0.2l-0.3-0.2
		c-0.2-0.1-0.4-0.2-0.5-0.3c-0.2-0.1-0.4-0.2-0.6-0.2c-0.2-0.1-0.4-0.1-0.6-0.2c-0.2-0.1-0.4-0.1-0.6-0.2c-0.2-0.1-0.4-0.1-0.6-0.1
		c-0.2,0-0.4-0.1-0.7-0.1c-0.2,0-0.4,0-0.7-0.1c-0.2,0-0.5,0-0.7,0c0-0.1,0-0.3,0-0.4c0-0.1-0.1-0.3-0.1-0.4c0-0.1-0.1-0.3-0.2-0.4
		c-0.1-0.1-0.1-0.3-0.2-0.4c-0.1-0.1-0.2-0.2-0.3-0.4c-0.1-0.1-0.2-0.2-0.4-0.3c-0.1-0.1-0.3-0.2-0.4-0.3c-0.2-0.1-0.3-0.2-0.5-0.3
		c-0.3-0.2-0.7-0.4-1.1-0.5c-0.4-0.2-0.8-0.3-1.2-0.4c-0.4-0.1-0.9-0.2-1.3-0.2c-0.4-0.1-0.9-0.1-1.4-0.1c-0.5,0-0.9,0-1.4,0.1
		c-0.4,0.1-0.9,0.1-1.3,0.2c-0.4,0.1-0.8,0.2-1.2,0.4c-0.4,0.2-0.8,0.3-1.1,0.5l-0.6,0.4l-0.6,0.4l-0.6,0.4l-0.6,0.4l-0.6,0.4
		l-0.6,0.4l-0.6,0.4l-0.6,0.4l1.3,0.7l1.3,0.7l1.3,0.7l1.3,0.7l1.3,0.7l1.3,0.7l1.3,0.7l1.3,0.7l0.6,0.3l0.6,0.3l0.6,0.3l0.6,0.3
		l0.6,0.3l0.6,0.3l0.6,0.3l0.6,0.3l0.1,0.1l0.1,0.1l0.1,0.1l0.1,0.1l0.1,0.1l0.1,0.1l0.1,0.1l0.1,0.1l0.4-0.2l0.4-0.2l0.4-0.2
		l0.4-0.2l0.4-0.2l0.4-0.2l0.4-0.2l0.4-0.2l-0.1-0.1l-0.1-0.1l-0.1-0.1l-0.1-0.1l-0.1-0.1l-0.1-0.1l-0.1-0.1l-0.1-0.1l-0.6-0.3
		l-0.6-0.3l-0.6-0.3l-0.6-0.3l-0.6-0.3l-0.6-0.3l-0.6-0.3l-0.6-0.3l0.3-0.2l0.3-0.2l0.3-0.2l0.3-0.2l0.3-0.2l0.3-0.2l0.3-0.2
		l0.3-0.2c0,0,0,0,0,0c0,0,0,0,0,0c0,0,0,0,0,0c0,0,0,0,0,0c0,0,0,0,0,0c0,0,0,0,0,0c0,0,0,0,0,0c0,0,0,0,0,0
		c0.1-0.1,0.3-0.1,0.5-0.2c0.2-0.1,0.3-0.1,0.5-0.1c0.2,0,0.3-0.1,0.5-0.1s0.4,0,0.5,0c0.2,0,0.4,0,0.5,0c0.2,0,0.3,0.1,0.5,0.1
		c0.2,0,0.3,0.1,0.5,0.2c0.2,0.1,0.3,0.1,0.4,0.2l0.3,0.2l0.3,0.2l0.3,0.2l0.3,0.2l0.3,0.2l0.3,0.2l0.3,0.2l0.3,0.2l0.1,0.1l0.1,0.1
		l0.1,0.1l0.1,0.1l0.1,0.1l0.1,0.1l0.1,0.1l0.1,0.1l0.4-0.2l0.4-0.2l0.4-0.2l0.4-0.2l0.4-0.2l0.4-0.2l0.4-0.2l0.4-0.2l-0.1-0.1
		l-0.1-0.1l-0.1-0.1l-0.1-0.1l-0.1-0.1l-0.1-0.1l-0.1-0.1L90.6,122.5z M78,120.9C78,120.9,78,120.9,78,120.9
		C78,120.9,77.9,120.9,78,120.9C77.9,120.9,77.9,120.9,78,120.9C77.9,120.9,77.9,120.9,78,120.9c-0.1,0-0.1,0.1-0.1,0.1c0,0,0,0,0,0
		c0,0,0,0,0,0c0,0,0,0,0,0l-0.3,0.2l-0.3,0.2l-0.3,0.2l-0.3,0.2l-0.3,0.2l-0.3,0.2l-0.3,0.2l-0.3,0.2l-0.5-0.3l-0.5-0.3l-0.5-0.3
		l-0.5-0.3l-0.5-0.3l-0.5-0.3l-0.5-0.3l-0.5-0.3l0.3-0.2l0.3-0.2l0.3-0.2l0.3-0.2l0.3-0.2l0.3-0.2l0.3-0.2l0.3-0.2
		c0.1-0.1,0.3-0.2,0.5-0.2c0.2-0.1,0.3-0.1,0.5-0.2c0.2,0,0.4-0.1,0.5-0.1c0.2,0,0.4,0,0.6,0c0.2,0,0.4,0,0.6,0
		c0.2,0,0.4,0.1,0.5,0.1c0.2,0,0.3,0.1,0.5,0.2c0.2,0.1,0.3,0.1,0.5,0.2c0.1,0.1,0.3,0.2,0.4,0.3c0.1,0.1,0.2,0.2,0.3,0.3
		c0.1,0.1,0.1,0.2,0.2,0.3c0,0.1,0.1,0.2,0.1,0.3c0,0.1,0,0.2,0,0.3c0,0.1-0.1,0.2-0.1,0.3c-0.1,0.1-0.1,0.2-0.2,0.3
		C78.2,120.7,78.1,120.8,78,120.9z"/>
	<path class="st1" d="M67.7,136.5l-0.8,0.5l-0.8,0.5l-0.8,0.5l-0.8,0.5l-1.9-0.3l-1.9-0.3l-1.9-0.3l-1.9-0.3l0.5,1.1l0.5,1.1
		l0.5,1.1l0.5,1.1l-0.8,0.5l-0.8,0.5l-0.8,0.5l-0.8,0.5l-0.9-1.8l-0.9-1.8l-0.9-1.8l-0.9-1.8l-3-0.5l-3-0.5l-3-0.5l-3-0.5l0.8-0.5
		l0.8-0.5l0.8-0.5l0.8-0.5l1.9,0.3l1.9,0.3l1.9,0.3l1.9,0.3l-0.5-1.1l-0.5-1.1l-0.5-1.1l-0.5-1.1l0.8-0.5l0.8-0.5l0.8-0.5l0.8-0.5
		l0.9,1.8l0.9,1.8l0.9,1.8l0.9,1.8l3,0.5l3,0.5l3,0.5L67.7,136.5z"/>
	<path class="st1" d="M76.6,128l0.7,0.4l0.7,0.4l0.7,0.4l0.7,0.4l-2.5,1.4l-2.5,1.4l-2.5,1.4l-2.5,1.4l-4-2.3l-4-2.3l-4-2.3l-4-2.3
		l2.5-1.4l2.5-1.4l2.5-1.4l2.5-1.4l0.7,0.4l0.7,0.4l0.7,0.4l0.7,0.4l-1.7,1l-1.7,1l-1.7,1l-1.7,1l0.9,0.5l0.9,0.5l0.9,0.5l0.9,0.5
		l1.2-0.7l1.2-0.7l1.2-0.7l1.2-0.7l0.7,0.4l0.7,0.4l0.7,0.4l0.7,0.4l-1.2,0.7l-1.2,0.7l-1.2,0.7l-1.2,0.7l0.9,0.5L68,131l0.9,0.5
		l0.9,0.5l1.7-1l1.7-1l1.7-1L76.6,128z"/>
	<path class="st1" d="M98.4,113.7c0.7,0.4,1.2,0.9,1.6,1.4c0.3,0.5,0.5,1,0.5,1.6c0,0.5-0.2,1.1-0.5,1.5c-0.3,0.5-0.9,1-1.5,1.4
		c-0.7,0.4-1.5,0.7-2.3,0.9c-0.9,0.2-1.8,0.3-2.7,0.3c-0.9,0-1.8-0.1-2.7-0.3c-0.9-0.2-1.7-0.5-2.4-0.9l-1.4-0.8l-1.4-0.8l-1.4-0.8
		l-1.4-0.8c-0.7-0.4-1.2-0.9-1.6-1.4c-0.3-0.5-0.5-1-0.5-1.6c0-0.5,0.2-1.1,0.5-1.6c0.3-0.5,0.9-1,1.6-1.4c0.7-0.4,1.5-0.7,2.3-0.9
		c0.9-0.2,1.8-0.3,2.7-0.3c0.9,0,1.8,0.1,2.7,0.3c0.9,0.2,1.7,0.5,2.4,0.9l-0.7,0.4l-0.7,0.4l-0.7,0.4l-0.7,0.4
		c-0.3-0.2-0.6-0.3-1-0.4c-0.4-0.1-0.7-0.1-1.1-0.1c-0.4,0-0.8,0-1.1,0.1c-0.4,0.1-0.7,0.2-1,0.4c-0.3,0.2-0.5,0.4-0.7,0.6
		c-0.1,0.2-0.2,0.4-0.2,0.7c0,0.2,0.1,0.4,0.2,0.7c0.1,0.2,0.4,0.4,0.7,0.6l1.4,0.8l1.4,0.8l1.4,0.8l1.4,0.8c0.3,0.2,0.6,0.3,1,0.4
		c0.4,0.1,0.7,0.1,1.1,0.1c0.4,0,0.8,0,1.1-0.1c0.4-0.1,0.7-0.2,1-0.4c0.3-0.2,0.5-0.4,0.6-0.6c0.1-0.2,0.2-0.4,0.2-0.6
		c0-0.2-0.1-0.4-0.2-0.6c-0.1-0.2-0.4-0.4-0.7-0.6l0.7-0.4l0.7-0.4l0.7-0.4L98.4,113.7z"/>
	<polygon class="st1" points="91.4,104.9 95.3,107.2 99.2,109.4 103.1,111.7 107,113.9 106.2,114.3 105.5,114.8 104.8,115.2 
		104.1,115.6 100.2,113.4 96.3,111.1 92.4,108.8 88.5,106.6 89.2,106.2 89.9,105.7 90.6,105.3 	"/>
	<path class="st1" d="M114.3,104.2c0.7,0.4,1.2,0.9,1.6,1.4c0.3,0.5,0.5,1,0.5,1.6c0,0.5-0.2,1.1-0.5,1.5c-0.3,0.5-0.9,1-1.5,1.4
		c-0.7,0.4-1.5,0.7-2.3,0.9c-0.9,0.2-1.8,0.3-2.7,0.3c-0.9,0-1.8-0.1-2.7-0.3c-0.9-0.2-1.7-0.5-2.4-0.9l-1.4-0.8l-1.4-0.8l-1.4-0.8
		l-1.4-0.8c-0.7-0.4-1.2-0.9-1.6-1.4c-0.3-0.5-0.5-1-0.5-1.6c0-0.5,0.2-1.1,0.5-1.6c0.3-0.5,0.9-1,1.6-1.4c0.7-0.4,1.5-0.7,2.3-0.9
		c0.9-0.2,1.8-0.3,2.7-0.3s1.8,0.1,2.7,0.3c0.9,0.2,1.7,0.5,2.4,0.9l-0.7,0.4l-0.7,0.4l-0.7,0.4l-0.7,0.4c-0.3-0.2-0.6-0.3-1-0.4
		c-0.4-0.1-0.7-0.1-1.1-0.1c-0.4,0-0.8,0-1.1,0.1c-0.4,0.1-0.7,0.2-1,0.4c-0.3,0.2-0.5,0.4-0.7,0.6c-0.1,0.2-0.2,0.4-0.2,0.7
		c0,0.2,0.1,0.4,0.2,0.7c0.1,0.2,0.4,0.4,0.7,0.6l1.4,0.8l1.4,0.8l1.4,0.8l1.4,0.8c0.3,0.2,0.6,0.3,1,0.4c0.4,0.1,0.7,0.1,1.1,0.1
		c0.4,0,0.8,0,1.1-0.1c0.4-0.1,0.7-0.2,1-0.4c0.3-0.2,0.5-0.4,0.6-0.6c0.1-0.2,0.2-0.4,0.2-0.6c0-0.2-0.1-0.4-0.2-0.6
		c-0.1-0.2-0.4-0.4-0.7-0.6l0.7-0.4l0.7-0.4l0.7-0.4L114.3,104.2z"/>
	<polygon class="st1" points="107.3,95.4 111.2,97.6 115.1,99.9 119,102.1 122.9,104.4 122.2,104.8 121.4,105.2 120.7,105.7 
		120,106.1 116.1,103.8 112.2,101.6 108.3,99.3 104.4,97.1 105.1,96.6 105.8,96.2 106.5,95.8 	"/>
	<path class="st1" d="M127.6,98.7c-0.3,0.2-0.6,0.3-1,0.4c-0.4,0.1-0.7,0.1-1.1,0.1c-0.4,0-0.8,0-1.1-0.1c-0.4-0.1-0.7-0.2-1-0.4
		l-1.4-0.8l-1.4-0.8l-1.4-0.8l-1.4-0.8c-0.3-0.2-0.5-0.4-0.7-0.6c-0.1-0.2-0.2-0.4-0.2-0.6c0-0.2,0.1-0.4,0.2-0.6
		c0.1-0.2,0.4-0.4,0.7-0.6s0.6-0.3,1-0.4c0.4-0.1,0.7-0.1,1.1-0.1c0.4,0,0.8,0,1.1,0.1c0.4,0.1,0.7,0.2,1,0.4l1.4,0.8l1.4,0.8
		l1.4,0.8l1.4,0.8c0.3,0.2,0.5,0.4,0.7,0.6c0.1,0.2,0.2,0.4,0.2,0.7c0,0.2-0.1,0.4-0.2,0.6C128.1,98.3,127.9,98.5,127.6,98.7z
		 M130.5,94.5l-1.4-0.8l-1.4-0.8l-1.4-0.8l-1.4-0.8c-0.7-0.4-1.5-0.7-2.4-0.9c-0.9-0.2-1.8-0.3-2.7-0.3c-0.9,0-1.8,0.1-2.7,0.3
		c-0.9,0.2-1.7,0.5-2.3,0.9c-0.7,0.4-1.2,0.9-1.6,1.4c-0.3,0.5-0.5,1-0.5,1.5c0,0.5,0.2,1.1,0.5,1.5c0.3,0.5,0.9,1,1.6,1.4l1.4,0.8
		l1.4,0.8l1.4,0.8l1.4,0.8c0.7,0.4,1.5,0.7,2.4,0.9c0.9,0.2,1.8,0.3,2.7,0.3c0.9,0,1.8-0.1,2.7-0.3c0.9-0.2,1.7-0.5,2.3-0.9
		c0.7-0.4,1.2-0.9,1.5-1.4c0.3-0.5,0.5-1,0.5-1.5c0-0.5-0.2-1.1-0.5-1.6C131.7,95.4,131.2,94.9,130.5,94.5z"/>
</g>
</svg>
