<?xml version="1.0" encoding="utf-8"?>
<!-- Generator: Adobe Illustrator 22.1.0, SVG Export Plug-In . SVG Version: 6.00 Build 0)  -->
<svg version="1.0" id="Layer_1" xmlns="http://www.w3.org/2000/svg" xmlns:xlink="http://www.w3.org/1999/xlink" x="0px" y="0px"
	 viewBox="0 0 274 257" enable-background="new 0 0 274 257" xml:space="preserve">
<g>
	<polygon fill="#E9E9E9" points="167.8,1.7 160.5,5.9 263.9,66.4 271.2,62.2 	"/>
	<polygon fill="#AFAFAF" points="263.9,179.7 271.3,175.4 271.2,62.2 263.9,66.4 	"/>
</g>
<polygon fill="#828282" points="160.5,117.6 263.9,179.7 263.9,66.4 160.5,5.9 "/>
<path fill="#C07A00" d="M220.5,81.5c0.2-2.2,0.8-4.4,1.1-6.6c0-0.2,0.1-0.5-0.1-0.7c-0.1-0.2-0.4-0.3-0.7-0.4
	c-2.7-0.9-5.4-1.9-8.1-2.8c-0.5-0.2-1-0.4-1.4-0.7c-0.7-0.5-1.1-1.3-1.7-2c-0.6-0.7-1.4-1.2-2.2-1c-1,0.3-1.4,1.6-1.2,2.7
	c0.2,1.6,0.6,2.2-0.5,3.3c-0.7,0.8-2.2,1.3-3.2,1.6c-1.9,0.5-4.1,0.2-4.7-2c-0.2-0.7-0.1-1.5-0.4-2.2c-0.6-1.2-2.3-1.4-3.6-1.2
	c-1.4,0.2-2.9,0.4-3.9-0.4c-1.2-0.9-1.3-2.9-2.6-3.6c-0.9-0.5-2.2-0.1-2.6,0.8c-0.3,0.6-0.3,1.3-0.2,2c0.1,1.6,0.1,3.2,0.2,4.7
	c0.1,2.4-0.6,4.4-0.7,6.7c-0.4,7.7-11.2-10.8-14.4-7.5c-0.4,0.4-0.5,0.9-0.7,1.4c-1.6,4.2-4.7,6.5-7.1,10c-2.3,3.6-1.1,9.5-1.1,13.6
	c0,6.8,0,13.7,0,20.5l103.4,62c0-5.5,0-11,0-16.4c0-19.5,0.1-39,0.1-58.4c0,0.2-9.3,0.4-10.4,0.3c-1.1-0.1-2.1-0.3-3.2-0.4
	c-0.9-0.1-1.9-0.2-2.8-0.6c-0.6-0.3-1.2-0.6-1.9-0.8c-4-0.8-5.5,6-5.5,8.7c-1.4,0.5-3-0.5-3.7-1.8c-0.7-1.3-0.9-2.9-1-4.4
	c-0.1-1.5-0.4-3.1-1.3-4.3c-1.4-1.9-4.5-2.3-6.4-0.8c0.4,0.7-0.2,1.6-1,1.8c-0.8,0.2-1.6-0.1-2.3-0.3c-0.9-0.3-1.9-0.7-2.8-1
	c-0.3-0.1-0.7-0.2-0.9-0.5c-1-0.9,0-2.6-0.5-3.9c-0.2-0.5-0.6-0.9-0.9-1.4c-0.4-0.8-0.3-1.8-0.2-2.6c0.5-3.6,0.9-7.2,1.2-10.8
	C220.5,81.9,220.5,81.7,220.5,81.5z"/>
<polygon opacity="0.3" fill="#333333" points="160.5,123.8 61.3,181.3 1,146.5 100.3,88.9 "/>
<g>
	<g>
		<g>
			<g>
				<polygon fill="#E9E9E9" points="161,5.7 168.3,9.9 65,70.4 57.6,66.2 				"/>
				<polygon fill="#828282" points="65,183.7 57.5,179.4 57.6,66.2 65,70.4 				"/>
			</g>
			<polygon fill="#C2C2C2" points="168.3,121.6 64.9,183.7 64.9,70.4 168.3,9.9 			"/>
			<path fill="#ECC700" d="M144.6,69.6c-1.3-2.2-2.7-1.5-4.8,0.9c-0.9,1-1.2,1-2.4,1.5c-1.7,0.8-4.7,1.1-5.9,2.6
				c-1.4,1.7,0,4.8-1.6,6.3c-1,0.9-2.5,0.8-3.9,0.8c-1.3-0.1-3,0.2-3.5,1.4c-0.4,0.9-0.1,1.9-0.4,2.9c-0.5,1.7-2.7,2.1-4.5,2.1
				c-1.8,0.1-4,0.4-4.6,2c-0.4,1.1-0.1,2.8-1.3,3.2c-0.4,0.2-0.9,0-1.3,0c-2.9-0.3-9,3.4-8.7,6.5c0.2,1.9,1.2,3.6,1.4,5.4
				c0.1,1.4-0.3,2.8-0.4,4.2c-0.3,4.8,1.3,6.5-2.2,10.9c-0.2,0.3-0.5,0.6-0.8,0.7c-0.9,0.3-1.7-0.6-2.6-0.9
				c-1.5-0.5-2.9,0.8-3.7,2.2c-2.2,3.9-6.3,6.2-6.2,11.2c0,0.9,0.1,1.9-0.3,2.6c-1.4,2.2-5.6,0-7.1,2.1c-0.7,1-0.3,2.5-0.1,3.7
				c0.4,2,0.3,4.1-0.3,6c-0.1,0.4-0.3,0.9-0.7,1.1c-0.4,0.2-0.9,0.1-1.4,0.1c-1.5-0.1-2.9,0.9-3.7,2.2s-1.1,2.8-1.2,4.3
				c-1.3,0.2-2.2-1.3-2.5-2.6c-0.3-1.3-4.9,0.6-4.9,0.6v29.9c0,0,19-11.3,24.8-14.7c12.4-7.3,24.9-14.5,37.3-21.8
				c4.6-2.7,9.3-5.4,13.9-8.1c4.9-2.8,27.2-17.4,27.2-17.4l0-47.1c-2.6,3.8-4.1,5-6.9,8.6c-0.2,0.3-0.5,0.6-0.9,0.7
				c-0.6,0.2-1.1-0.2-1.6-0.6c-1.1-0.9-2.1-2-2.9-3.2c-0.6,1.9-1.7,3.6-3.2,4.9c-0.6,0.5-1.4,1-2.1,0.7c-0.7-0.3-1-1.1-1.2-1.8
				c-1.2-4.1-2.6-8.2-4.1-12.2C145.2,70.8,144.9,70.1,144.6,69.6z"/>
		</g>
	</g>
	<path opacity="0.3" fill="#333333" d="M129.4,89.3c-0.3-2.9-2-6.7-5.1-7.4c-2.5-0.6-5.2,0.9-6.8,2.6c-1.4,1.4-1.8,3-2.3,4.8
		c-0.2,0.8-0.5,2.5-1.5,2.8c-0.9,0.3-1.7-0.7-2.3-1.2c-0.1-0.1-0.2-0.2-0.3-0.3c-0.1-0.2-0.1-0.3-0.1-0.5c0-2.7-0.1-5.5-0.1-8.2
		c0-0.9-0.1-1.8-0.5-2.5c-0.3-0.5-0.9-0.9-1.4-1.3c-0.5-0.3-0.9-0.6-1.4-0.9c-0.2-0.2-0.5-0.3-0.7-0.4c-0.3-0.1-0.6,0-0.8,0.1
		c-0.2,0.2-0.4,0.7-0.6,0.7c-0.2,0-0.6-0.6-0.7-0.8c-0.3-0.4-0.6-0.7-0.9-1.1c-0.2-0.2-0.6-0.9-0.9-0.8c-0.2,0-0.2,0.2-0.2,0.4
		c0,0.2,0.1,0.3,0.2,0.5c0.6,1.1,1.3,2.7,1.1,4c-0.3,2.9-0.5,5.8-0.8,8.7c-0.1,1.1-0.2,2.2,0.1,3.3c0.3,1.2,1.1,2.1,1.9,3
		c0.6,0.6,1.2,1.3,2,1.7c0.7,0.3,1.1,0.4,1.7,1c1.3,1.4,2.8,2.4,4.2,3.7c1.8,1.5,3.4,3.5,5.7,4c0.2,0.1,0.5,0.1,0.7,0.3
		c0.6,0.7-0.1,2.1-0.4,2.8c-0.2,0.5-0.4,1.1-0.6,1.6c-0.2,0.5-0.4,1-0.9,1.2c-1.2,0.5-3-1.8-3.7-2.6c-1.2-1.3-2.2-2.7-2.9-4.2
		c-0.7-0.7-1.3-2.4-1.7-3.3c-0.5-1-0.4-2-0.4-3.1c0-1.2,0-2.4-0.6-3.4c-0.3-0.5-0.7-1-1.3-1.3c-0.6-0.3-1.1,0-1.6-0.4
		c-0.3-0.2-0.6-0.5-0.9-0.5c-0.4,0-0.7,0.3-0.8,0.6c-0.1,0.3-0.1,0.7-0.1,1.1c0,1.6,0,3.1,0,4.7c0,2.1,0.1,4.3,1,6.3
		c0.8,1.9,2.1,3.6,3.4,5.3c1,1.2,1.9,2.5,2.9,3.7c1.1,1.4,2.9,3.2,2.9,5.1c2.1,5.3,0.9,12.3,0.6,17.9c-0.3,6.1-1,12.2-2.1,18.2
		c-0.3,1.5-0.6,2.7,0.2,4c0.9,1.3,2.4,2.4,3.5,3.4c1.2,1.1,3,1.8,4.4,2.6c1.9,1.2,3.9,2.4,5.8,3.7c1.1,0.8,2.2,1.8,3.3,2.7
		c-0.2,0.6-0.4,1.3-0.5,1.9c-0.7,5.6,6,8.3,14.9,5.9c9-2.3,16.9-8.7,17.6-14.3c0.6-4.5-3.7-7.2-10.1-6.7c-1.4-2.1-3.4-3.7-5.6-5
		c-3.4-1.9-7.8-3-10.8-5.6c-2.2-1.9-0.8-6.5-0.7-9c0.5-9.2,0.9-18.4,1-27.6c0-2.2,0.8-7.4-0.7-9.3c-0.6-0.7-1.4-1.1-2.3-1.3
		c-2.5-0.7-2.9-1.2-3-3.8C129.2,94.3,129.7,91.8,129.4,89.3z M124.8,156.2c-0.2-0.3-0.3-0.6-0.2-1c0.1-0.4,0.6-0.6,1-0.6
		c2.2-0.1,4.3,1.3,6.1,2.2c2.6,1.2,5.1,2.4,7.7,3.6c0.5,0.2,1,0.5,1.5,0.7c-3,1.4-5.7,3.2-7.7,5.2c-2.1-1.9-4-4.1-5.9-6.2
		C126.3,158.9,125.5,157.5,124.8,156.2z"/>
	<path opacity="0.3" fill="#333333" d="M105.6,183.4l-2.1,1.2L91,177.2c-2.1-1.2-2-4.2,0.1-5.4l2.9-1.6c2.2-1.3,5-1.3,7.2,0.1
		l13.6,8.1L105.6,183.4z"/>
	<g>
		<g>
			<g>
				
					<linearGradient id="SVGID_1_" gradientUnits="userSpaceOnUse" x1="43.4197" y1="182.979" x2="61.7832" y2="182.979" gradientTransform="matrix(1 0 0 1 57.0657 0)">
					<stop  offset="0.1613" style="stop-color:#B8B8B8"/>
					<stop  offset="0.1633" style="stop-color:#DBDBDB"/>
					<stop  offset="0.5593" style="stop-color:#DBDBDB"/>
					<stop  offset="0.5622" style="stop-color:#E8E8E8"/>
					<stop  offset="0.8728" style="stop-color:#E8E8E8"/>
					<stop  offset="0.8739" style="stop-color:#D9D9D9"/>
				</linearGradient>
				<path fill="url(#SVGID_1_)" d="M109.7,186c5.1,0,9.2-2.3,9.2-5.2l0-0.9c-6.1,0.4-12.2,0.5-18.4,0.4l0,0.5
					C100.5,183.7,104.6,186,109.7,186z"/>
				<path fill="#F1F1F1" d="M100.5,180.3c0,2.9,4.1,5.2,9.2,5.2s9.2-2.3,9.2-5.2c0-2.9-4.1-5.2-9.2-5.2
					C104.6,175.1,100.5,177.4,100.5,180.3z"/>
			</g>
			
				<linearGradient id="SVGID_2_" gradientUnits="userSpaceOnUse" x1="124.1123" y1="-7.2301" x2="142.2053" y2="-7.2301" gradientTransform="matrix(1 0 0 1 -23.1695 182.5042)">
				<stop  offset="0.1613" style="stop-color:#8C8C8C"/>
				<stop  offset="0.1633" style="stop-color:#AFAFAF"/>
				<stop  offset="0.5593" style="stop-color:#AFAFAF"/>
				<stop  offset="0.5622" style="stop-color:#BCBCBC"/>
				<stop  offset="0.8728" style="stop-color:#BCBCBC"/>
				<stop  offset="0.8739" style="stop-color:#ADADAD"/>
			</linearGradient>
			<path fill="url(#SVGID_2_)" d="M109.7,185.1c4.8,0,8.7-2.2,8.7-4.9l0-14.6c-5.8,0.3-11.6,0.5-17.5,0.4l0,14.2
				C100.9,182.8,104.9,185.1,109.7,185.1z"/>
			
				<linearGradient id="SVGID_3_" gradientUnits="userSpaceOnUse" x1="44.3373" y1="168.7952" x2="61.8146" y2="168.7952" gradientTransform="matrix(1 0 0 1 57.0657 0)">
				<stop  offset="0.1613" style="stop-color:#666666"/>
				<stop  offset="0.1633" style="stop-color:#898989"/>
				<stop  offset="0.5593" style="stop-color:#898989"/>
				<stop  offset="0.5622" style="stop-color:#969696"/>
				<stop  offset="0.8728" style="stop-color:#969696"/>
				<stop  offset="0.8739" style="stop-color:#878787"/>
			</linearGradient>
			<path fill="url(#SVGID_3_)" d="M100.9,166.2l0,2.1c1.2,2.1,4.7,3.6,8.7,3.6c4.1,0,7.6-1.5,8.8-3.7l0-2.4
				C112.6,166.1,106.8,166.2,100.9,166.2z"/>
			
				<linearGradient id="SVGID_4_" gradientUnits="userSpaceOnUse" x1="43.8771" y1="175.8306" x2="61.962" y2="175.8306" gradientTransform="matrix(1 0 0 1 57.0657 0)">
				<stop  offset="0.1613" style="stop-color:#FABF00"/>
				<stop  offset="0.1633" style="stop-color:#FFE300"/>
				<stop  offset="0.5593" style="stop-color:#FFE300"/>
				<stop  offset="0.5622" style="stop-color:#FFF000"/>
				<stop  offset="0.8728" style="stop-color:#FFF000"/>
				<stop  offset="0.8739" style="stop-color:#FFE100"/>
			</linearGradient>
			<path fill="url(#SVGID_4_)" d="M118.4,168.2c0,2.7-3.9,4.9-8.7,4.9c-4.8,0-8.7-2.2-8.7-4.9l0,10.2c0,2.7,3.9,4.9,8.7,4.9
				c4.8,0,8.7-2.2,8.7-4.9V168.2z"/>
			
				<linearGradient id="SVGID_5_" gradientUnits="userSpaceOnUse" x1="43.8771" y1="176.0436" x2="61.962" y2="176.0436" gradientTransform="matrix(1 0 0 1 57.0657 0)">
				<stop  offset="0.1613" style="stop-color:#BE7100"/>
				<stop  offset="0.1633" style="stop-color:#D29000"/>
				<stop  offset="0.5593" style="stop-color:#D29000"/>
				<stop  offset="0.5622" style="stop-color:#D89D00"/>
				<stop  offset="0.8728" style="stop-color:#D89D00"/>
				<stop  offset="0.8739" style="stop-color:#D08E00"/>
			</linearGradient>
			<path fill="url(#SVGID_5_)" d="M118.4,168.4c0,2.7-3.9,4.9-8.7,4.9c-4.8,0-8.7-2.2-8.7-4.9l0,10.2c0,2.7,3.9,4.9,8.7,4.9
				c4.8,0,8.7-2.2,8.7-4.9V168.4z"/>
			<path fill="#6D6D6D" d="M100.9,165.9c0,2.7,3.9,5,8.8,5c4.8,0,8.8-2.2,8.8-5c0-2.7-3.9-5-8.8-5
				C104.9,160.9,100.9,163.1,100.9,165.9z"/>
			<g>
				
					<linearGradient id="SVGID_6_" gradientUnits="userSpaceOnUse" x1="43.4197" y1="168.442" x2="61.7832" y2="168.442" gradientTransform="matrix(1 0 0 1 57.0657 0)">
					<stop  offset="0.1613" style="stop-color:#B8B8B8"/>
					<stop  offset="0.1633" style="stop-color:#DBDBDB"/>
					<stop  offset="0.5593" style="stop-color:#DBDBDB"/>
					<stop  offset="0.5622" style="stop-color:#E8E8E8"/>
					<stop  offset="0.8728" style="stop-color:#E8E8E8"/>
					<stop  offset="0.8739" style="stop-color:#D9D9D9"/>
				</linearGradient>
				<path fill="url(#SVGID_6_)" d="M109.7,171.5c5.1,0,9.2-2.3,9.2-5.2l0-0.9c-6.1,0.4-12.2,0.5-18.4,0.4l0,0.5
					C100.5,169.2,104.6,171.5,109.7,171.5z"/>
				<path fill="#F1F1F1" d="M100.5,165.8c0,2.9,4.1,5.2,9.2,5.2c5.1,0,9.2-2.3,9.2-5.2c0-2.9-4.1-5.2-9.2-5.2
					C104.6,160.6,100.5,162.9,100.5,165.8z"/>
			</g>
			<g>
				
					<linearGradient id="SVGID_7_" gradientUnits="userSpaceOnUse" x1="44.0879" y1="163.6008" x2="61.2287" y2="163.6008" gradientTransform="matrix(1 0 0 1 57.0657 0)">
					<stop  offset="0.1261" style="stop-color:#D9D9D9"/>
					<stop  offset="0.1272" style="stop-color:#E8E8E8"/>
					<stop  offset="0.4378" style="stop-color:#E8E8E8"/>
					<stop  offset="0.4407" style="stop-color:#DBDBDB"/>
					<stop  offset="0.8367" style="stop-color:#DBDBDB"/>
					<stop  offset="0.8387" style="stop-color:#B8B8B8"/>
				</linearGradient>
				<path fill="url(#SVGID_7_)" d="M109.7,160.9c-4.7,0-8.6,2-8.6,4.5l0,0.8c5.7-0.3,11.4-0.4,17.1-0.4l0-0.4
					C118.3,163,114.5,160.9,109.7,160.9z"/>
				<path fill="#E9E9E9" d="M118.3,165.9c0-2.5-3.8-4.5-8.6-4.5c-4.7,0-8.6,2-8.6,4.5c0,2.5,3.8,4.5,8.6,4.5
					C114.4,170.5,118.3,168.4,118.3,165.9z"/>
			</g>
		</g>
		<g>
			
				<linearGradient id="SVGID_8_" gradientUnits="userSpaceOnUse" x1="46.0195" y1="167.2803" x2="59.2508" y2="167.2803" gradientTransform="matrix(1 0 0 1 57.0657 0)">
				<stop  offset="0.1613" style="stop-color:#B8B8B8"/>
				<stop  offset="0.1633" style="stop-color:#DBDBDB"/>
				<stop  offset="0.5593" style="stop-color:#DBDBDB"/>
				<stop  offset="0.5622" style="stop-color:#E8E8E8"/>
				<stop  offset="0.8728" style="stop-color:#E8E8E8"/>
				<stop  offset="0.8739" style="stop-color:#D9D9D9"/>
			</linearGradient>
			<path fill="url(#SVGID_8_)" d="M109.7,169.5c3.7,0,6.6-1.7,6.6-3.8l0-0.7c-4.4,0.3-8.8,0.4-13.2,0.3l0,0.4
				C103.1,167.8,106,169.5,109.7,169.5z"/>
			<path fill="#F1F1F1" d="M103.1,165.3c0,2.1,3,3.8,6.6,3.8c3.7,0,6.6-1.7,6.6-3.8c0-2.1-3-3.8-6.6-3.8
				C106.1,161.5,103.1,163.2,103.1,165.3z"/>
		</g>
		<g>
			
				<linearGradient id="SVGID_9_" gradientUnits="userSpaceOnUse" x1="46.4646" y1="165.2165" x2="58.8472" y2="165.2165" gradientTransform="matrix(1 0 0 1 57.0657 0)">
				<stop  offset="0.1613" style="stop-color:#383838"/>
				<stop  offset="0.1633" style="stop-color:#4F4F4F"/>
				<stop  offset="0.5593" style="stop-color:#4F4F4F"/>
				<stop  offset="0.5622" style="stop-color:#919191"/>
				<stop  offset="0.8728" style="stop-color:#919191"/>
				<stop  offset="0.8739" style="stop-color:#828282"/>
			</linearGradient>
			<path fill="url(#SVGID_9_)" d="M115.9,165l0,0.3v0c0,1.8-2.8,3.3-6.2,3.3c-3.4,0-6.2-1.5-6.2-3.3c0-0.1,0-0.3,0.1-0.4
				c0,0,0-0.1,0-0.1c0.2-1.7,2.8-3.1,6.2-3.1c3.3,0,6.1,1.4,6.2,3.2C115.9,165,115.9,165,115.9,165z"/>
		</g>
		<path fill="#FFDC00" d="M115.9,165l0,0.3v0c0,1.8-2.8,3.3-6.2,3.3c-3.4,0-6.2-1.5-6.2-3.3c0-0.1,0-0.3,0.1-0.4c0,0,0-0.1,0-0.1
			c1.6-0.8,3.7-1.3,6.1-1.3c2.4,0,4.7,0.5,6.2,1.4C115.9,165,115.9,165,115.9,165z"/>
		<path fill="#D4BA92" d="M115.8,166c0,0,0-0.1,0-0.1c0-0.1,0-0.1,0-0.2c0-0.1,0-0.2,0-0.2c0,0,0,0,0-0.1c0,0,0,0,0,0v0v0h0l0-0.3
			c0,0,0,0,0,0c0,0,0,0,0-0.1c0,0,0,0,0,0c0-0.1,0-0.2,0-0.2c0-0.1,0-0.1-0.1-0.2c0,0,0-0.1,0-0.1c0-0.1-0.1-0.1-0.1-0.2l0,0l0,0
			c-0.7-1.4-3.1-2.4-5.9-2.4c-3.3,0-6,1.4-6.2,3.1c0,0,0,0.1,0,0.1c0,0.1-0.1,0.3-0.1,0.4c0,0.4,0.1,0.8,0.4,1.1
			c0.8-1.3,3.1-2.3,5.9-2.3c1.4,0,2.6,0.2,3.6,0.6v0c0,1.8-2.8,3.3-6.2,3.3c-0.3,0-0.7,0-1,0c1,0.4,2.2,0.6,3.5,0.6
			c2.9,0,5.3-1.1,6-2.5c0,0,0,0,0-0.1C115.8,166.1,115.8,166,115.8,166z"/>
		
			<linearGradient id="SVGID_10_" gradientUnits="userSpaceOnUse" x1="46.4644" y1="163.7436" x2="58.8483" y2="163.7436" gradientTransform="matrix(1 0 0 1 57.0657 0)">
			<stop  offset="0.1261" style="stop-color:#D9D9D9"/>
			<stop  offset="0.1272" style="stop-color:#E8E8E8"/>
			<stop  offset="0.4378" style="stop-color:#E8E8E8"/>
			<stop  offset="0.4407" style="stop-color:#DBDBDB"/>
			<stop  offset="0.8367" style="stop-color:#DBDBDB"/>
			<stop  offset="0.8387" style="stop-color:#B8B8B8"/>
		</linearGradient>
		<path fill="url(#SVGID_10_)" d="M103.6,165.7c0.1-1.8,2.8-3.2,6.2-3.2c3.3,0,5.9,1.4,6.1,3.1c0-0.1,0-0.1,0-0.2c0,0,0,0,0,0h0
			l0-0.3c0-1.8-2.8-3.3-6.2-3.3c-3.4,0-6.1,1.4-6.2,3.2c0,0.1-0.1,0.3-0.1,0.4C103.5,165.5,103.5,165.6,103.6,165.7
			C103.6,165.7,103.6,165.7,103.6,165.7z"/>
	</g>
	<g id="XMLID_54_">
		<path id="XMLID_55_" fill="#F8CFB3" d="M117.3,94.5c-0.1-0.5,0-0.9,0.4-1c0.2,0,0.3,0,0.5-0.1c0.3,0,0.5-0.1,0.8-0.1
			c0.3,0,0.4-0.1,0.5-0.4c0.1-0.5,0.5-0.9,1-0.6c0.1,0.1,0.2,0.2,0.2,0.3c0,0.1,0,0.3-0.1,0.4c0,0,0,0.1-0.1,0.1
			c-0.1,0.2,0.1,0.4,0.2,0.6c0.3,0.4,0.6,0.9,0.9,1.2c0.3,0.3,0.8,0.4,1.2,0.6c0.2,0.1,0.4,0.2,0.5,0.3c0.1,0,0.1,0.1,0.2,0.2
			c0.3,0.3,0,0.7,0,1c-0.1,0.4-0.3,0.6-0.6,0.8c-0.2,0.2-0.6,0.5-0.9,0.6c0,0-0.1,0-0.1,0c-0.4,0-0.9-0.6-1.2-0.8
			c-0.4-0.3-0.8-0.6-1.3-0.7c-0.2,0-0.4,0-0.6,0c-0.3,0-0.4-0.2-0.6-0.4c-0.3-0.2-0.5-0.4-0.6-0.7C117.7,95.7,117.4,95,117.3,94.5z"
			/>
		<path fill="#AF3B2B" d="M141.6,95.8c-0.9-0.3-1.8-0.3-2.5,0.2c-0.7,0.5-1.2,1.1-1.9,1.5c-1,0.7-1.8,1.4-2.7,2.2
			c-0.3,0.2-0.5,0.4-0.8,0.5c-0.8,0.1-1.9-0.4-2.6-0.7c-1.3-0.6-2.6-1.3-4-1.9c-0.4-0.2-0.7-0.4-1.1-0.5c-0.4-0.2-0.8-0.3-1.2-0.5
			c-0.4-0.2-0.6-0.5-1-0.6c-1-0.4-2.7,1.6-2.6,2.8c0,0.3,0.2,0.6,0.5,0.8c1.9,1,6.6,4.8,8.7,4.4c2.6-0.5,5.4-0.2,8-1
			c1-0.3,2-0.9,2.6-1.7c0.5-0.7,0.7-1.6,1.3-2.2c0.6-0.7,1.5-0.6,2.3-1c0.2-0.1,0.5-0.2,0.6-0.4c0.2-0.4,0-0.9-0.4-1.2
			C143.8,95.8,142.6,96.2,141.6,95.8z"/>
		<path fill="#AF3B2B" d="M130.4,104.4c0.8,0.3,1.6,0.6,2.5,0.8c0.9,0.2,2,0.4,2.9,0c0.4-0.2,0.8-0.6,1.1-0.9
			c0.3-0.4,0.8-0.6,1.2-0.9c0.9-0.6,2.1-0.8,3-1.4c1.2-0.8,2.1-2.2,2-3.6c0-0.1,0-0.1,0-0.2c-0.1-0.1-0.2-0.1-0.4-0.1
			c-1,0-1.3,0-1.8,0.9c-0.3,0.6-0.5,1.3-1,1.8c-0.4,0.5-1.1,0.9-1.7,1.1c-1.2,0.5-2.4,0.9-3.6,1.1c-0.8,0.1-1.7,0.2-2.5,0.3
			c-0.9,0-1.8,0-2.6-0.5c-0.8-0.5-1.8-0.7-2.6-1.1c-1.1-0.6-2.1-1.5-3.2-2.1c-0.3-0.2-0.7-0.4-1-0.6c-0.6-0.4-1.1-0.9-1.3-1.6
			c0.1,0.3-0.3,0.7-0.4,1c0,0.5,0.5,1,0.8,1.3c0.5,0.4,1.2,0.7,1.8,1c0.4,0.3,0.8,0.6,1.1,0.9c0.5,0.3,1,0.6,1.5,0.9
			c0.8,0.5,1.7,1,2.6,1.3C129.4,104.1,129.9,104.2,130.4,104.4z"/>
	</g>
	<g>
		<polygon fill="#C1CCD1" points="106.6,72.1 103.6,74.5 104.4,79.8 116.6,70.2 115.8,64.8 		"/>
		<g>
			<g>
				<polygon fill="#C1CCD1" points="114.1,75.9 113.5,75.5 119.5,66.9 119.3,64.3 120.1,64.2 120.3,67.1 120.2,67.3 				"/>
			</g>
			<g>
				<path fill="#C1CCD1" d="M104,80.6c-0.1,0-0.3,0-0.4-0.1c-0.2-0.1-0.4-0.3-0.4-0.6l-0.4-1.9c-0.1-0.6,0.2-0.9,0.6-1.3l1.1-0.8
					l0.5,0.6l-1.1,0.8c-0.3,0.3-0.3,0.4-0.3,0.6l0.4,1.9l10.1-4.6l0.9,5l-0.8,0.1l-0.7-4l-9.1,4.2C104.3,80.5,104.1,80.6,104,80.6z"
					/>
			</g>
		</g>
		<path fill="#ECC700" d="M106.5,55.2c-0.1,0.1-0.1,0.1-0.2,0.2c-0.5,0.4-1,0.7-1.6,0.8c-0.9,0.1-1.7-0.2-2.2,0.8
			c-0.4,0.8,0.2,1.2,0.5,1.9c0.7,1.6-0.7,3-0.9,4.6c-0.2,1.2,0.5,1.9,0.9,2.9c0.2,0.4,0.3,0.7,0.4,1.1c0.2,1.1-0.6,2-0.5,3.1
			c0.1,1,0.6,1.8,1,2.6c0.2,0.5,0.3,1.6,0.7,2c0.9,0.8,2.5-0.9,3.4-1.3c1.4-0.7,2.9-1.3,4.2-2.2c2-1.3,3.3-3.3,5.1-4.8
			c1.1-0.9,2.6-2,2.5-3.5c-0.1-1-0.9-1.8-1-2.7c0-0.6,0.2-1.1,0.4-1.7c0.5-1.6,0-3-0.4-4.6c-0.1-0.4-0.1-0.9-0.1-1.4
			c0-1.3,0.2-2.2,0.6-3.3c0.3-0.9,0-2-0.3-2.9c0-0.1-0.1-0.3-0.2-0.4c-0.2-0.1-0.5,0-0.6,0.2c-0.1,0.2-0.2,0.4-0.3,0.7
			c-0.3,0.9-1.1,1.7-2.1,1.9c-0.3,0.1-0.6,0.1-0.8,0.2c-0.8,0.3-1.3,1-1.9,1.6c-0.6,0.6-1.4,1.2-2.2,1c-0.2-0.1-0.4-0.2-0.6-0.2
			c-0.4,0-0.7,0.4-1,0.7C108.3,53.6,107.5,54.4,106.5,55.2z"/>
		<path fill="#A6AEA8" d="M120.9,62.8c1,1.2,1.2,2.6,0.5,3.2l-15,11.7c-0.8-1.2-1.7-2.3-2.6-3.5c-0.4-0.6-0.3-1.4,0.2-1.8l13.9-10.8
			C118.6,61,119.9,61.6,120.9,62.8z"/>
		<g>
			<path fill="#C1CCD1" d="M120.4,117.6c0.7-0.4,1.2-0.9,1.2-1.3l-4.4-30.2c-0.8,0.5-1.7,0.9-2.5,1.4l4.4,30.1
				C119.1,118,119.7,118,120.4,117.6z"/>
			
				<linearGradient id="SVGID_11_" gradientUnits="userSpaceOnUse" x1="-34.8697" y1="-543.9714" x2="-30.998" y2="-543.9714" gradientTransform="matrix(0.9897 -0.143 0.143 0.9897 228.4407 631.7642)">
				<stop  offset="1.554360e-02" style="stop-color:#7B0200"/>
				<stop  offset="2.072480e-02" style="stop-color:#8A0000"/>
				<stop  offset="0.377" style="stop-color:#8A0000"/>
				<stop  offset="0.3789" style="stop-color:#A10100"/>
				<stop  offset="0.6588" style="stop-color:#A10100"/>
				<stop  offset="0.661" style="stop-color:#C93030"/>
				<stop  offset="0.8989" style="stop-color:#C93030"/>
				<stop  offset="0.9041" style="stop-color:#A90000"/>
			</linearGradient>
			<path fill="url(#SVGID_11_)" d="M120.8,116.7c1-0.1,1.7-0.7,1.6-1.3L117,79.3c-1.2,0.2-2.3,0.4-3.5,0.6l5.4,36
				C118.9,116.5,119.8,116.8,120.8,116.7z"/>
		</g>
		<g>
			<path fill="#BF1417" d="M113.5,79.9c0.1,0.6,0.9,0.9,1.9,0.7c1-0.1,1.7-0.7,1.6-1.3c-0.1-0.6-0.9-0.9-1.9-0.7
				C114.1,78.8,113.4,79.3,113.5,79.9z"/>
		</g>
		<g>
			<polygon fill="#808080" points="114.9,75.5 114.2,75 120.2,66.5 120,63.8 120.8,63.8 121,66.7 120.9,66.8 			"/>
		</g>
		<g>
			
				<linearGradient id="SVGID_12_" gradientUnits="userSpaceOnUse" x1="-324.309" y1="-73.4572" x2="-318.3299" y2="-73.4572" gradientTransform="matrix(0.6187 0.7856 0.7856 -0.6187 370.33 276.3205)">
				<stop  offset="0.1613" style="stop-color:#FFBB00"/>
				<stop  offset="0.1633" style="stop-color:#FFDE00"/>
				<stop  offset="0.5593" style="stop-color:#FFDE00"/>
				<stop  offset="0.5622" style="stop-color:#FFEB00"/>
				<stop  offset="0.8728" style="stop-color:#FFEB00"/>
				<stop  offset="0.8739" style="stop-color:#FFDC00"/>
			</linearGradient>
			<path fill="url(#SVGID_12_)" d="M121.9,62.9c1,1.2,1.2,2.6,0.5,3.2l-15,11.7c-1.1-1.5-2.2-3-3.4-4.5l15-11.6
				C119.6,61.2,120.9,61.7,121.9,62.9z"/>
			<path fill="#CD8600" d="M104,73.3c0.7-0.5,2,0,3,1.2c1,1.2,1.2,2.7,0.5,3.2c-0.7,0.5-2,0-3-1.2C103.5,75.3,103.3,73.8,104,73.3z"
				/>
			
				<linearGradient id="SVGID_13_" gradientUnits="userSpaceOnUse" x1="398.3224" y1="583.641" x2="399.9578" y2="586.4736" gradientTransform="matrix(0.371 -0.9286 -0.9286 -0.371 501.0158 663.1255)">
				<stop  offset="9.588220e-02" style="stop-color:#C70000"/>
				<stop  offset="0.1011" style="stop-color:#FF3D3D"/>
				<stop  offset="0.339" style="stop-color:#FF3D3D"/>
				<stop  offset="0.3412" style="stop-color:#BF0100"/>
				<stop  offset="0.6211" style="stop-color:#BF0100"/>
				<stop  offset="0.623" style="stop-color:#A80000"/>
				<stop  offset="0.9793" style="stop-color:#A80000"/>
				<stop  offset="0.9845" style="stop-color:#990200"/>
			</linearGradient>
			<path fill="url(#SVGID_13_)" d="M106.3,75c0.6,0.7,0.7,1.5,0.3,1.8l-0.3,0.2c-0.6-0.9-1.3-1.8-2-2.6l0.2-0.1
				C105,74,105.7,74.3,106.3,75z"/>
			<path fill="#A10E10" d="M104.4,74.5c0.4-0.3,1.2,0,1.7,0.7c0.6,0.7,0.7,1.5,0.3,1.9c-0.4,0.3-1.2,0-1.7-0.7
				C104.1,75.6,104,74.8,104.4,74.5z"/>
			<g>
				
					<linearGradient id="SVGID_14_" gradientUnits="userSpaceOnUse" x1="844.0724" y1="-44.2829" x2="846.3972" y2="-44.2829" gradientTransform="matrix(-0.6505 -0.841 -0.7002 0.5984 623.9571 813.277)">
					<stop  offset="9.588220e-02" style="stop-color:#C70000"/>
					<stop  offset="0.1011" style="stop-color:#FF3D3D"/>
					<stop  offset="0.339" style="stop-color:#FF3D3D"/>
					<stop  offset="0.3412" style="stop-color:#BF0100"/>
					<stop  offset="0.6211" style="stop-color:#BF0100"/>
					<stop  offset="0.623" style="stop-color:#A80000"/>
					<stop  offset="0.9793" style="stop-color:#A80000"/>
					<stop  offset="0.9845" style="stop-color:#990200"/>
				</linearGradient>
				<path fill="url(#SVGID_14_)" d="M104.9,76.2c-0.4-0.5-0.5-1.1-0.3-1.3l0.2-0.1c0.5,0.7,0.9,1.3,1.4,1.9l-0.1,0.1
					C105.8,77,105.3,76.7,104.9,76.2z"/>
				<path fill="#770002" d="M106.2,76.7c-0.2,0.2-0.8,0-1.2-0.6c-0.4-0.5-0.5-1.1-0.3-1.3c0.2-0.2,0.8,0,1.2,0.6
					C106.3,75.9,106.4,76.5,106.2,76.7z"/>
			</g>
		</g>
		<g>
			<path fill="#808080" d="M104.8,80.1c-0.1,0-0.3,0-0.4-0.1c-0.2-0.1-0.4-0.3-0.4-0.6l-0.4-1.9c-0.1-0.6,0.2-0.9,0.6-1.3l1.1-0.8
				l0.5,0.6l-1.1,0.8c-0.3,0.3-0.3,0.4-0.3,0.6l0.4,1.9l10.1-4.6l0.9,5l-0.8,0.1l-0.7-4l-9.1,4.2C105,80.1,104.9,80.1,104.8,80.1z"
				/>
		</g>
		<path fill="#808080" d="M114.9,79.8c0,0.1,0.2,0.2,0.4,0.2c0.2,0,0.4-0.2,0.4-0.3c0-0.1-0.2-0.2-0.4-0.2S114.9,79.7,114.9,79.8z"
			/>
		<path fill="#808080" d="M105.2,75.4c0.1-0.1,0.3,0,0.4,0.2c0.1,0.2,0.2,0.4,0.1,0.4c-0.1,0.1-0.3,0-0.4-0.2
			C105.2,75.7,105.1,75.5,105.2,75.4z"/>
	</g>
	<g>
		<g>
			<path id="XMLID_53_" fill="#1B1B1B" d="M147.5,175.7c0,0.1,0,0.2,0,0.3c0,0.3,0.1,0.6,0.1,0.9c0,0.6,0.2,1.4-0.2,1.9
				c-0.9,1.1-3.4,0.5-4.6,0.2c-0.2-0.1-0.4-0.1-0.5-0.2c-0.3-0.2-0.4-0.5-0.7-0.8c-0.3-0.2-0.5-0.3-0.9-0.3c-0.3,0-0.5-0.2-0.8-0.3
				c-0.2,0-0.3,0-0.6,0c-0.4,0-0.8,0-1.2,0c-1.3-0.1-3.4-0.7-4.2-1.7c-0.5-0.6-0.6-1.6-0.5-2.4c0.3-1.4,2.7-1.5,3.9-1.5
				c1.2,0,3,0,4-0.7c0.9-0.6,2.6,1.1,3.1,1.6c0.5,0.5,1,1.2,1.8,1.4C147,174.4,147.3,174.9,147.5,175.7z"/>
			<path id="XMLID_52_" fill="#2A2A2A" d="M137.3,171.8c-1.2,0-3.6,0-3.9,1.5c0,0.3-0.1,0.5,0,0.8c0.1,0.1,1,1.1,3.6,0.9
				c2.7-0.2,3.2-0.7,3.2-0.7s1-0.1,0.9-1.2c-0.1-0.7,0-1.5,0.1-2C140.2,171.8,138.5,171.8,137.3,171.8z"/>
			<path id="XMLID_51_" fill="#1B1B1B" d="M152.3,162.7c-0.4-0.1-0.9-0.1-1.3,0.1c-1.8,0.7-1.2,3,0,4c0.5,0.5,0.9,1.1,1.3,1.7
				c0.3,0.5,0.3,1.1,0.5,1.6c0.5,1,1.6,1.4,2.6,1.4c0.7,0,1.5-0.2,2.1-0.5c0.5-0.2,0.8-0.6,1-1.1c0-0.1,0-0.3,0-0.4
				c0-0.7,0-1.4-0.1-2.1c-0.1-0.9-1.4-0.4-1.9-1c-0.4-0.5-0.9-0.9-1.4-1.3c-0.5-0.3-0.7-1-1.1-1.4
				C153.5,163.2,153,162.9,152.3,162.7C152.3,162.8,152.3,162.8,152.3,162.7z"/>
			<path fill="#31529F" d="M160,133.8c0,0.6,0,1.2,0,1.8c0,0,0,0.1,0,0.1c0,0.7,0,1.3-0.1,1.9c-0.3,2.2-0.8,4.4-1.3,6.6
				c-0.4,1.6-0.9,3.1-1.3,4.6c-0.4,1.4,0.1,2.9,0.2,4.3c0.3,3.9,0.8,7.8,1.5,11.7c0.1,0.8,0.3,1.8-0.1,2.6v0
				c-0.1,0.2-0.2,0.3-0.3,0.4c-0.4,0.5-1.1,0.6-1.6,1c-0.5,0.3-1,0.5-1.3,0.5h0c-0.6,0-1-0.6-1.2-1.6c-0.4-2.2-0.7-4.3-1-6.5
				c-0.6-4.4-1-8.8-0.9-13.3c0.1-3.7,0.6-7.3,1-11c0.1-1,0.3-2,0.5-3c0-0.2,0.1-0.3,0.1-0.5c0.3-1.2,1-1.2,1.6-2.1
				c1-1.5,0.8-3.5,1-5.2c0.2-1.6,0.3-3.2,0.5-4.8c-0.1,0.5,0.2,1.1,0.3,1.6c0.2,1.2,0.1,2.4,0.7,3.6c0.2,0.4,0.3,0.9,0.6,1.2
				c0,0,0,0.1,0.1,0.1C159.9,129.6,160.1,131.9,160,133.8z"/>
			<path fill="#16397A" d="M154.5,167.8c-0.4-2.2-0.7-4.3-1-6.5c-0.6-4.4-1-8.8-0.9-13.3c0.1-3.7,0.6-7.3,1-11c0.1-1,0.3-2,0.5-3
				c-0.9,1-1.8,2-2.6,3.1c-0.8,1.1-1,2.6-1,3.9c-0.1,1.6-0.3,3.1-0.3,4.7c0,0.9,0,1.8,0,2.7c0,2.1,0.4,8.5,0.6,10.6
				c0.3,3.1,0.8,6.3,1.5,9.3c0.1,0.4,0.1,0.7,0.4,0.9c0.3,0.2,0.7,0.2,1,0.2c0.6,0.1,1.3,0.1,2,0C155,169.4,154.6,168.9,154.5,167.8
				z"/>
			<path id="XMLID_50_" fill="#83C2BF" d="M152.2,97.5c-0.5-0.9-1-1.5-2-2.1c-1.7-0.9-3.5,0.3-3.5,0.3c-0.4,0.2-0.5,0.9-0.3,1.8
				c0.9-0.1,1.8-0.6,2.6-0.9c0.9-0.3,1.9,0,2.7,0.4C151.9,97.3,152,97.4,152.2,97.5z"/>
			<path id="XMLID_49_" fill="#C94B3C" d="M142.2,95.9c0.5-0.4,1.2-0.3,1.8-0.5c0.5-0.1,0.9-0.3,1.4-0.5c1.1-0.4,2.3-0.3,3.4-0.1
				c1.3,0.3,2.5,0.9,3.4,1.9c1.5,1.8,2,4.1,2.4,6.3c0.4,2.4,0.8,4.7,0.8,7.1c0,1.2,0,2.4,0.2,3.6c0.4,2.7,0.9,5.4,1.7,8
				c0.3,0.9-0.6,2.6-0.2,3.4c0.4,0.8,1.2,2.3,1.2,3.3c0.3,2.9-1.9,3.6-4.2,4.6c-5.4,2.3-8.9,2.9-9.8,2.8c0,0-2.8-13.7-4-16.7
				c-0.7-1.6-1.5-3.1-2.4-4.7c-1-1.7-2.1-3.4-2.9-5.2c-0.6-1.3-1-2.7-0.1-4c0.7-1,1.8-1.8,2.5-2.8c0.8-1.1,1.3-2.3,2-3.5
				C140.3,98,141.3,96.5,142.2,95.9z"/>
			<path id="XMLID_48_" fill="#C02F1D" d="M144.6,95.4c-0.8,0-1.7,0.1-2.3,0.5c-0.9,0.6-1.6,1.5-2.1,2.4c-0.7,1-1.6,1.8-2.3,2.7
				c-0.3,0.4-0.7,0.7-1,1.2c-0.3,0.5-0.7,1-1,1.5c-0.5,0.8-0.8,1.6-1,2.5c-0.3,1,0.2,2.1,0.5,3c0.8,1.8,1.9,3.5,2.9,5.2
				c0.9,1.7,1.2,3.6,1.5,5.4c0.4,2.1,0.8,4.1,1.1,6.2c0.4,2.7,0.6,5.5,0.6,8.3c0,1.9,3.6,1.6,4.9,1.3c-0.2-0.7-3-11.6-3.2-13.1
				c-0.3-2.9-0.9-5.7-1.8-8.5c-0.5-1.4-0.9-2.9-1.6-4.2c-0.5-0.9-1.3-1.7-1.4-2.9c0-0.2,0-0.4,0-0.6l-0.2,0.2
				c0.1-0.2,0.2-0.3,0.3-0.5c0.1-0.3,0.3-0.6,0.5-0.8c2.5-3.9,6.6-6.7,10.8-9C148.6,95.7,146.5,95.3,144.6,95.4z"/>
			<path fill="#31529F" d="M149.8,113.8c-1.1,3.8-2.2,7.5-2.8,9.2c-0.2,0.7-0.4,1.1-0.4,1.1l-2.5,0.3c0,0,0.1-0.3,0.3-0.9
				c0.7-2,2.2-7.1,3.6-11.8C148.6,112.3,149.2,113,149.8,113.8z"/>
			<path fill="#31529F" d="M152.3,103.7c-0.3,1.9-1,4.4-1.7,7.1c-0.3,1-0.5,1.9-0.8,2.9c-0.6-0.7-1.2-1.4-1.8-2.1
				c0.3-1,0.6-2,0.8-2.9c0.9-3.2,1.5-5.9,1.5-6.9c-0.1-2.9-0.6-4.6-0.6-4.6l-2.4-1.5l-0.2-1.1c0,0,2.2,0,2.9,0.4
				C150.9,95.6,153.4,97.5,152.3,103.7z"/>
			<g id="XMLID_46_">
				<path id="XMLID_47_" fill="none" d="M138.4,106.2c0,0.1,0,0.2-0.1,0.2l1.3-1.5c-0.3,0.1-0.6,0.3-0.8,0.5
					C138.7,105.7,138.5,105.9,138.4,106.2z"/>
			</g>
			<path id="XMLID_45_" fill="#D18D6D" d="M147.7,99.5c-0.1,0.1-0.3,0.3-0.4,0.3c-1.6,1-3.6,1-5.4,0.8c-0.4,0-0.9-0.1-1.2-0.3
				c-0.8-0.4-0.8-1-0.3-1.6c0.5-0.6,1.1-1.1,1.8-1.6c0.9-0.7,2.2-1,3.5-1.1c0.5,0.5,0.9,1,1.3,1.5c0.3,0.3,0.9,0.8,1,1.2
				C148,99.1,147.9,99.3,147.7,99.5z"/>
			<path id="XMLID_44_" fill="#DEB08A" d="M147.4,95.1c-0.2-0.7-0.3-1.4-0.5-2.1c0,0-0.3,0-0.3,0c-1.2,0.1-2.5,0.2-3.7,0.5
				c-0.7,0.2-1.5,0.4-2.1,0.7c-0.2,0.1-0.7,0.3-0.9,0.5c-0.3,0.3-0.1,0.9,0,1.2c0.2,0.6,0.4,1.2,0.7,1.8c0.2,0.4,0.3,0.8,0.6,1.1
				c0.3,0.4,0.6,0.5,1,0.6c0.3,0.1,0.6,0.1,0.8,0.2c0.5,0.2,0.3,1,0.8,1.2c0.6,0.2,1.6-0.3,2.1-0.6c0.7-0.4,1.4-1,2-1.6
				c0.5-0.5,0.7-0.8,0.2-1.4C147.8,96.7,147.6,95.8,147.4,95.1z"/>
			<path id="XMLID_43_" fill="#C77752" d="M140.9,94.3c-0.6,0.2-1,0.3-1.1,0.9c-0.1,0.5,0.1,1.1,0.2,1.6c0.3,1.1,0.6,2.1,0.9,3.2
				c0.4-0.1,0.8-0.3,1.2-0.1c0.4,0.1,0.8,0.2,1.3,0.3c-0.2-0.3-0.4-1.2-0.5-1.6c-0.2-0.8-0.4-1.6-0.6-2.3
				C141.9,95.5,141.4,94.9,140.9,94.3z"/>
			<path id="XMLID_42_" fill="#F0B88F" d="M147.5,94.4c-0.3,0.3-0.8,0.4-1.1,0.6c-0.8,0.4-1.6,0.8-2.3,1.2c-0.8,0.4-1.4,0.4-2.1-0.1
				c-0.5-0.4-1-0.8-1.5-1.2c-0.8-0.7-1.6-1.6-2.3-2.5c-0.6-0.8-1.1-1.7-1.1-2.7c0-0.2,0-0.4,0.1-0.6c0-0.2,0.1-0.3,0.1-0.5
				c0.7-2.3,3.5-4.6,5.1-5c1.2-0.3,2.3,0.2,3.3,1c0.5,0.4,0.9,0.8,1.2,1.3c0,0.1,0.1,0.1,0.1,0.2c0.6,1.1,0.8,2.6,1.1,3.8
				c0.3,1.4,0.6,2.5-0.2,3.8C147.8,93.9,147.7,94.3,147.5,94.4z"/>
			<path id="XMLID_41_" fill="#DF9876" d="M146.4,85.1C146.4,85.1,146.4,85.1,146.4,85.1c-0.3,0.3-0.6,0.5-1,0.7
				c-0.9,0.5-1.9,0.9-2.9,1.1c-0.4,0.1-1.1,0.1-1.4,0.5c-0.2,0.3-0.5,0.7-0.5,1.1c0,0.2,0,0.4,0,0.6c0,0.7,0.7,1.1,0.9,1.8
				c0.2,0.7-0.4,1.7-0.2,2.4c0.1,0.5,0.1,1,0.1,1.6c0.1,0.8,0.4,1.5,0.9,2.2c-0.4-0.6-1.3,0.9-1.7,1c-0.7,0.2-1.6,0.3-2.3-0.1
				c-0.5-0.3-1.3-2.1-1.6-2.6c-1.6-2.1-2.5-3.9-3-6.5c0-0.2-0.1-0.4,0-0.6c0.1-0.2,0.2-0.4,0.4-0.5c0.9-0.7,1.7-0.9,2.8-1.1
				c0.8-0.2,1.4-1.1,2.1-1.5c0.6-0.4,1.3-0.7,2-0.9c0.9-0.3,1.9-0.5,2.8-0.5c0.3,0,0.8,0,1.3-0.1c0.5,0.4,0.9,0.8,1.2,1.3
				C146.3,84.9,146.4,85,146.4,85.1z"/>
			<g id="XMLID_38_">
				<path id="XMLID_39_" fill="#4F2900" d="M148.2,92.3c0-0.6,0-1.2,0-1.9c-0.1-1.4-0.6-3.5-1.1-4.9c-0.7-1.7-1.6-3.6-3.2-4.5
					c-2.7-1.4-4.7-1.2-6.6-0.8c-2.1,0.5-4.1,2.1-4.7,4.2c-0.4,1.4,0.3,3.2,1,4.4c0.6,1.1,1.7,1.8,2.5,2.9c0.3,0.4,0.6,0.7,0.8,1.1
					c0.3,0.7,0.6,1.4,0.8,2.1c0,0,0,0.1,0.1,0.1c0,0,0.1,0,0.1,0c0.6,0.1,1.1,0,1.7,0c-0.2,0-1.1-2.7-1.2-3.1
					c-0.3-1.1,0.1-1.6,1.2-1.8c0.7-0.1,1.3,0.4,1.5,1c0.5,1.1,0.2,2.3,0.3,3.5c0.1,0.8,0.3,1.7,0.8,2.3c0.3,0.4,0.9,0.2,1.3,0.1
					c0.5-0.1,1-0.2,1.5-0.3c1-0.3,1.9-0.9,2.6-1.6c0.2-0.2,0.4-0.4,0.5-0.6c0.1-0.3,0.1-0.5,0.1-0.8
					C148.1,93.2,148.2,92.7,148.2,92.3z"/>
			</g>
			<path id="XMLID_37_" fill="#D75041" d="M148,96.6c-0.1,0.2,0,0.5,0,0.8c-0.1,0.6-0.6,1.1-1.1,1.4c-0.9,0.7-2.1,1-3.3,1
				c-0.8,0-1.6-0.3-2.3-0.7c-0.3-0.2-0.7-0.4-0.8-0.6c-0.1-0.1-0.3-0.9-0.2-1c-0.3,0.4-0.6,0.9-0.9,1.3c-0.2,0.4-0.5,0.7-0.1,1.1
				c0.3,0.2,0.7,0.5,1,0.7c0.8,0.6,1.9,1,2.9,1.1c2.1,0.2,4.3-0.8,5.7-2.4c0.4-0.5,0.9-1.1,1-1.7c0.1-0.6-0.2-0.9-0.6-1.4
				c-0.1-0.2-0.2-0.3-0.4-0.4C148.9,96,148.1,96.5,148,96.6C148,96.6,148,96.6,148,96.6z"/>
		</g>
		<path fill="#31529F" d="M159.7,129.8c0,0-5.4,8.6-18.4,6c0,0-0.7-11.1-1-12.7c0,0,1.6,0.5,4.1,0.3c-0.2,0.6-0.3,0.9-0.3,0.9
			l2.5-0.3c0,0,0.1-0.4,0.4-1.1c1.8-0.5,4-1.3,6.2-2.8c0.4-0.2,0.7-0.5,1-0.8l0.3-0.3c0.6-0.7,1-1.3,1.2-1.9
			c0.3-0.7,0.3-1.2,0.3-1.2L159.7,129.8z"/>
		<path id="XMLID_36_" fill="#31529F" d="M156.2,118.2c0,0,0-0.1,0-0.1c0,0.4,0.2,0.8,0.3,1.2c0.1,0.4,0.2,0.8,0.3,1.2
			c0.3,0.9,0.5,1.8,0.7,2.7c0.2,0.7,0.2,1.4,0.3,2.1c0.2,1.3,0.3,3,0,4.3c-0.2,0.9-0.3,1.8-0.5,2.7c-0.3,1.4-0.7,2.9-1.4,4.1
			c-0.5,0.8-0.9,1.6-1.5,2.3c-0.8,1.1-1.8,2.3-2.8,3.1c-1,0.8-1.2,2-1.5,3.2c-0.2,0.8-0.5,1.6-0.7,2.4c-0.5,1.6-1,3.1-1.6,4.7
			c-0.4,1-0.3,2.2-0.5,3.3c-0.6,3.1-0.1,6.2,0.1,9.3c0.1,1.7,0.3,3.4,0.1,5c-0.1,1.6,0.5,3.5-0.1,5c-0.3,0.8-1.2,1.2-1.9,1.4
			c-1.6,0.6-3.2,0-4.6-0.8c-0.7-0.4-0.2-1.7-0.3-2.3c-0.2-1.2-0.2-2.4-0.2-3.7c-0.1-3-0.1-6-0.2-8.9c-0.2-3.7-0.5-11.7,0-15.4
			c0.3-2.4,0.6-4.7,1-7.1c0.1-0.7,0.2-1.4,0.3-2.1c0.1-0.6,0.2-0.4,0.7-0.7c0.4-0.2,0.8-0.5,1.1-0.8c1-1,2.2-3.9,0.3-4.6
			c-0.5-0.2-0.9-0.3-1.4-0.5c-0.5-0.2-1-0.4-1.1-0.9c-0.1-0.2-0.1-0.5-0.1-0.7c0-0.6-0.1-1.2-0.1-1.9c-0.1-0.7-0.1-1.3-0.1-2
			c0,0,0-0.1,0-0.1c0,0,0.1,0,0.1,0c0.4,0.1,0.9,0.1,1.3,0.3c3,0.9,6.6-0.5,9.4-1.7c0.4-0.2,0.9-0.4,1.3-0.6
			c0.2-0.1,0.4-0.2,0.6-0.3c0.1-0.1,0.3-0.2,0.4-0.4c0.6-0.5,1.2-1,1.8-1.6C155.7,119,156,118.7,156.2,118.2z"/>
		<path fill="#16397A" d="M141.7,173.7c-0.2-1.2-0.2-2.4-0.2-3.7c-0.1-3-0.1-6-0.2-8.9c-0.2-3.7-0.5-11.7,0-15.4
			c0.3-2.4,0.6-4.7,1-7.1c0.2-1.3,0.3-2.7,0.5-4c-0.2,0.2-0.5,0.4-0.8,0.5c-0.5,0.2-0.6,0.1-0.7,0.7c-0.1,0.7-0.1,1.4-0.3,2.1
			c-0.3,2.4-0.7,4.7-1,7.1c-0.4,3.7-0.1,11.7,0,15.4c0.1,3,0.1,6,0.2,8.9c0,1.2,0.1,2.5,0.2,3.7c0.1,0.6-0.4,1.9,0.3,2.3
			c0.4,0.2,0.7,0.4,1.1,0.6C141.4,175.5,141.8,174.3,141.7,173.7z"/>
		<path id="XMLID_35_" fill="#1C4095" d="M153,140.3c-0.2,0.1-0.3,0.2-0.5,0.3c-0.2,0.1-0.4,0.3-0.5,0.4c-0.3,0.2-0.5,0.4-0.7,0.7
			c-0.4,0.6-1,1.1-1.3,1.7c-0.4,0.6-0.7,1.3-0.9,1.9c-0.9,2.3-1.4,4.7-1.8,7.1c-0.2,1.4-0.4,2.7-0.5,4.1c-0.1,0.6-0.1,1.3-0.1,1.9
			c0,0.6,0.2,1.2,0.1,1.8c-0.1,2.3-0.2,4.6-0.3,6.8c0,0.7-0.1,1.5-0.1,2.2c-0.1,1.6-0.2,3.3-0.3,4.9c0,0.6-0.1,1.3-0.6,1.7
			c-0.2,0.2-0.4,0.3-0.4,0.5c0.3,0.1,0.8-0.3,1.1-0.4c0.5-0.3,1.1-0.7,1.4-1.2c0.3-0.6,0.2-1.5,0.2-2.2c0-1.2-0.1-2.4,0-3.6
			c0.1-3.6-0.2-7.2-0.1-10.8c0.1-2,0.3-4.1,0.6-6.1c0.2-1.6,0.7-3.2,1.2-4.8c0.1-0.4,0.2-0.8,0.4-1.2c0.1-0.4,0.2-0.8,0.4-1.2
			c0.2-0.4,0.5-0.7,0.7-1.1c0.5-0.8,0.9-1.7,1.4-2.4c0.3-0.3,0.5-0.7,0.8-1c0.1-0.1,0.1-0.2,0.2-0.2
			C153.1,140.3,153.1,140.3,153,140.3z"/>
		<path fill="#2F4494" d="M156.1,117.6l-1.5,1.5l-0.3,0.3c0,0-2.1-2.8-4.5-5.7c-0.6-0.7-1.2-1.4-1.8-2.1c-1.2-1.4-2.4-2.7-3.3-3.6
			c-2.9-2.7-9-4.4-9-4.4c0.1-0.9,1.7-2.2,1.7-2.2s3.5,0.7,6.7,2.7c1.1,0.7,2.9,2.5,4.7,4.7c0.6,0.7,1.2,1.4,1.8,2.1
			c2.3,2.7,4.4,5.5,5.1,6.4C156,117.5,156.1,117.6,156.1,117.6z"/>
		<path fill="#16397A" d="M141.3,123.3c0.1,0.6,0.1,1.3,0.2,1.9c0.1,1.3,0.2,2.5,0.6,3.7c0.1,0.2,0.1,0.3,0.1,0.5
			c-0.5,0-1.3-0.6-1.4-1.1c-0.1-0.2-0.1-0.3-0.1-0.5c-0.2-1.6-0.3-3.2-0.4-4.8C140.6,123.2,140.9,123.2,141.3,123.3z"/>
		<path fill="#5570B0" d="M159.6,130.5c0.3-0.4,0.1,4.4,0.1,4.4l-1.8,2.6l-1.9-1.9l-0.2-3.5C155.8,132.1,158.7,132.1,159.6,130.5z"
			/>
		<path fill="#5570B0" d="M153.5,132.8c0.3-0.4,0.1,4.4,0.1,4.4l-1.8,2.6l-1.9-1.9l-0.2-3.5C149.7,134.4,152.5,134.4,153.5,132.8z"
			/>
	</g>
	<g id="XMLID_18_">
		<path id="XMLID_34_" fill="#F8CFB3" d="M114.9,100.2c0.2-0.4,0.5-0.7,0.8-0.6c0.2,0,0.3,0.1,0.4,0.2c0.3,0.1,0.5,0.2,0.8,0.3
			c0.3,0.2,0.4,0.2,0.6-0.1c0.4-0.4,0.9-0.5,1.2,0.1c0.1,0.1,0.1,0.3,0,0.4c-0.1,0.1-0.2,0.2-0.3,0.3c0,0-0.1,0-0.1,0.1
			c-0.2,0.2-0.1,0.4-0.1,0.6c0,0.5,0,1.1,0.1,1.5c0.1,0.4,0.5,0.8,0.7,1.2c0.1,0.2,0.2,0.4,0.3,0.6c0,0.1,0.1,0.2,0.1,0.2
			c0,0.4-0.3,0.6-0.6,0.8c-0.3,0.3-0.6,0.3-1,0.3c-0.3,0-0.8,0.1-1.1,0c0,0-0.1,0-0.1-0.1c-0.3-0.3-0.4-0.9-0.5-1.3
			c-0.1-0.5-0.3-1-0.7-1.3c-0.2-0.1-0.3-0.2-0.5-0.3c-0.2-0.2-0.2-0.4-0.3-0.7c-0.1-0.3-0.2-0.6-0.1-0.9
			C114.5,101.4,114.7,100.7,114.9,100.2z"/>
		<path fill="#D75041" d="M137.9,111.9c-0.5,0.5-1.1,0.8-1.7,1.2c-0.8,0.7-2.1,0.9-3.2,1.2c-1.6,0.5-3.1,0.9-4.7,1.2
			c-1.5,0.4-2.8,0.8-4.3,0.4c-1.4-0.4-1-0.6-2.4-1c-1.8-0.5-3.8-4.8-5.1-7.1c-0.2-0.3-0.4-0.6-0.5-0.8c-0.2-0.3-0.2-0.6-0.1-0.9
			l0-0.1c0.1-0.2,0.2-0.4,0.4-0.6c0.8-0.9,2.6-1.4,3.2-0.7c0.2,0.3,0.3,0.6,0.4,0.9c0.4,1,0.8,1.8,1.3,2.6c0.7,1.1,0.5,0.8,1.4,1.9
			c0.9,1.2,2.8,1.1,4.3,0.3c1.3-0.7,2.5-1.3,3.8-1.9c1.2-0.6,2.4-1,3.3-2.1c0.5-0.6,1-1.3,1.7-1.6c0.6-0.2,1.3,0.1,1.7,0.5
			c1.2,1,2.2,3.1,1.5,4.6C138.8,110.6,138.5,111.4,137.9,111.9z"/>
		<path fill="#C02F1D" d="M133.4,112.9c1-0.5,2-0.8,3-1.3c0.5-0.3,1-0.5,1.4-0.9c0.3-0.3,0.6-1,1-1.1c0.1,0,0.2,0,0.2,0.1
			c0.4,0.9-0.2,2.1-0.7,2.8c-0.3,0.4-0.7,0.5-1.1,0.8c-0.4,0.3-0.7,0.6-1.1,0.8c-2.5,1.3-5.2,1.6-7.9,1.8c-2.3,0.2-4.6,0.4-6.9-0.1
			c-1.2-0.3-3.5-5.5-4.9-7.9c-0.2-0.3-0.4-0.6-0.5-0.8c-0.2-0.3-0.2-0.6-0.1-1c0.1-0.2,0.2-0.4,0.4-0.6c0,0.7,0.2,1.4,0.5,2.1
			c0.3,0.6,0.7,1.1,1,1.7c0.2,0.4,0.4,0.8,0.5,1.2c0.6,1.3,1.3,2.5,2.2,3.7c0.2,0.3,0.4,0.5,0.7,0.7c1.5,0.8,4,0.1,5.6-0.1
			c1.6-0.2,3.3-0.5,4.8-1C132.3,113.4,132.9,113.2,133.4,112.9z"/>
	</g>
</g>
<g>
	<polygon opacity="0.3" fill="#333333" points="214.1,233.8 192.5,246.3 189.3,244.2 210.9,231.7 	"/>
	<polygon opacity="0.3" fill="#333333" points="202.9,227.3 181.2,239.9 178.1,237.7 199.7,225.2 	"/>
	<polygon opacity="0.3" fill="#333333" points="191.7,220.9 170,233.4 166.9,231.3 188.5,218.8 	"/>
	<polygon opacity="0.3" fill="#333333" points="180.4,214.4 158.8,227 155.7,224.8 177.3,212.3 	"/>
</g>
<g>
	<polygon opacity="0.3" fill="#333333" points="229.1,238.2 226.5,236.8 226.3,236.9 186.8,214.3 187.7,213.8 185.1,212.4 
		184.2,212.8 166.9,202.9 166.9,203 157.6,197.6 131.1,212.9 145.8,221.5 146.6,221 158.3,227.7 156.6,228.6 159.1,230.1 
		160.8,229.2 200.4,251.8 198.2,253 200.7,254.5 202.9,253.3 203.2,253.4 204.8,252.5 204.6,252.4 204.8,252.3 202.3,250.9 
		202.1,250.9 162.5,228.3 163.3,227.8 160.7,226.4 160,226.8 148.2,220.1 170.8,207 182.5,213.7 181,214.5 183.5,216 185.1,215.2 
		224.6,237.8 222.4,239 224.9,240.5 227.2,239.2 227.5,239.4 229.1,238.5 228.8,238.3 	"/>
	<g>
		<g>
			<g>
				<g>
					<g>
						<path fill="#C96100" d="M211.5,161.8L184.3,216l1.9,1.1l26.8-54.5L211.5,161.8z"/>
						<polygon fill="#DB7900" points="214.6,161.7 187.9,216.2 186.3,217.2 213,162.7 						"/>
					</g>
					<g>
						<g>
							<polygon fill="#FFBF00" points="214.6,161.7 213,160.9 211.5,161.8 213,162.7 							"/>
						</g>
					</g>
				</g>
				<g>
					<polygon fill="#DB7900" points="174.4,206.1 174.4,207.2 199.5,192.6 199.5,191.4 					"/>
					<polygon fill="#87560C" points="174.4,206.1 174.4,207.2 173,206.4 173,205.2 					"/>
					<polygon fill="#FFBF00" points="199.5,191.4 174.4,206.1 173,205.2 198.1,190.6 					"/>
				</g>
				<g>
					<g>
						<path fill="#C96100" d="M210.2,149.1l15.3,89.2l2,1.1l-15.7-89.5L210.2,149.1z"/>
						<polygon fill="#FFA200" points="213.3,149 229.1,238.5 227.5,239.4 211.7,149.9 						"/>
					</g>
					<g>
						<g>
							<polygon fill="#F4F4F4" points="213.3,149 211.7,148.2 210.2,149 211.7,149.9 							"/>
						</g>
					</g>
				</g>
				<g>
					<g>
						<polygon fill="#3A3F41" points="204.4,244.8 204.4,245.9 228.8,231.8 228.8,230.7 						"/>
						<polygon points="204.4,244.8 204.4,245.9 198.1,242.2 198.1,241.2 						"/>
						<polygon fill="#AEB1B2" points="228.8,230.7 204.4,244.8 198.1,241.2 222.5,227.1 						"/>
					</g>
					<g>
						<polygon fill="#3A3F41" points="201.8,229.8 201.8,230.9 226.2,216.8 226.2,215.7 						"/>
						<polygon points="201.8,229.8 201.8,230.9 195.5,227.2 195.5,226.2 						"/>
						<polygon fill="#AEB1B2" points="226.2,215.7 201.8,229.8 195.5,226.2 219.9,212.1 						"/>
					</g>
					<g>
						<polygon fill="#3A3F41" points="199.3,214.9 199.3,215.9 223.6,201.8 223.6,200.7 						"/>
						<polygon points="199.3,214.9 199.3,215.9 192.9,212.2 192.9,211.2 						"/>
						<polygon fill="#AEB1B2" points="223.6,200.7 199.3,214.9 192.9,211.2 217.3,197.1 						"/>
					</g>
					<g>
						<polygon fill="#3A3F41" points="196.7,199.9 196.7,200.9 221.1,186.8 221.1,185.7 						"/>
						<polygon points="196.7,199.9 196.7,200.9 190.3,197.2 190.3,196.2 						"/>
						<polygon fill="#AEB1B2" points="221.1,185.7 196.7,199.9 190.3,196.2 214.7,182.1 						"/>
					</g>
				</g>
				<g>
					<polygon fill="#3A3F41" points="195.9,185.4 195.9,186.4 220.3,172.3 220.3,171.3 					"/>
					<polygon points="195.9,185.4 195.9,186.4 182.3,178.6 182.3,177.6 					"/>
					<polygon fill="#AEB1B2" points="220.3,171.3 195.9,185.4 182.3,177.6 206.7,163.4 					"/>
				</g>
				<g>
					<g>
						<g>
							<polygon fill="#FFBF00" points="190.3,175.7 188.8,174.9 187.2,175.8 188.7,176.7 							"/>
						</g>
					</g>
					<g>
						<path fill="#C96100" d="M187.2,175.8L160,230l1.9,1.1l26.8-54.5L187.2,175.8z"/>
						<polygon fill="#DB7900" points="190.3,175.7 163.6,230.2 162,231.2 188.7,176.7 						"/>
					</g>
				</g>
				<g>
					<g>
						<g>
							<polygon fill="#F4F4F4" points="189,163 187.4,162.2 185.9,163 187.4,163.9 							"/>
						</g>
					</g>
					<g>
						<polygon fill="#FFA200" points="189,163 204.8,252.5 203.2,253.4 187.4,163.9 						"/>
					</g>
					<g>
						<polygon fill="#FFA200" points="189,163 204.8,252.5 203.2,253.4 187.4,163.9 						"/>
					</g>
					<path fill="#C96100" d="M185.9,163l15.3,89.2l2,1.1l-15.7-89.5L185.9,163z"/>
				</g>
				<g>
					<polygon fill="#16A4CF" points="187.6,161.3 188.2,164.8 214.2,149.7 213.7,146.3 					"/>
					<polygon fill="#16A4CF" points="190.3,163.5 188.2,164.8 188.8,168.2 190.9,166.9 					"/>
					<polygon fill="#5F781B" points="187.6,161.3 188.2,164.8 185,165.3 184.5,161.9 					"/>
					<polygon fill="#1B6578" points="188.2,164.8 188.8,168.2 185.6,168.7 185,165.3 					"/>
					<polygon fill="#1FC8F2" points="213.7,146.3 187.6,161.3 184.5,161.9 210.5,146.9 					"/>
				</g>
				<polygon fill="#16A4CF" points="214.2,149.7 212.1,151 212.7,154.4 214.8,153.1 				"/>
				<polygon fill="#1B6578" points="209.1,152.7 209.5,154.9 212.7,154.4 212.1,151 				"/>
				<polygon fill="#16A4CF" points="205.3,250.1 203.1,251.3 203.7,254.7 205.8,253.5 				"/>
				<polygon fill="#5DBFEA" points="205.3,250.1 203.1,251.3 200.1,251.1 200.9,250.6 201,250.9 202.8,251 204.4,250.1 204.4,250 
									"/>
				<polygon fill="#16A4CF" points="229.5,236.1 227.4,237.3 228,240.7 230.1,239.5 				"/>
				<polygon fill="#1B6578" points="227.4,237.3 228,240.7 224.9,240.5 224.4,237.1 				"/>
				<polygon fill="#5DBFEA" points="229.5,236 227.4,237.3 224.4,237.1 225.2,236.6 225.3,236.9 227,237 228.7,236.1 228.6,236 				
					"/>
				<polygon fill="#16A4CF" points="165.4,228.2 163.4,229.3 161.8,231.9 163.9,230.7 				"/>
				<polygon fill="#5DBFEA" points="165.4,228.2 163.4,229.4 160.7,227.4 161.6,226.9 161.3,227.5 163.1,228.8 164.7,228 
					164.8,227.7 				"/>
				<polygon fill="#16A4CF" points="189.7,214.2 187.7,215.3 186.1,217.9 188.3,216.6 				"/>
				<polygon fill="#1B6578" points="187.7,215.3 186.1,217.9 183.4,216 185,213.4 				"/>
				<polygon fill="#5DBFEA" points="189.7,214.1 187.7,215.3 185,213.4 185.9,212.8 185.6,213.5 187.5,214.8 189,213.9 189.1,213.7 
									"/>
			</g>
			<polygon fill="#1B6578" points="203.1,251.3 203.7,254.7 200.6,254.5 200.1,251.1 			"/>
			<polygon fill="#1B6578" points="163.4,229.4 161.8,232 159.1,230 160.7,227.4 			"/>
		</g>
	</g>
</g>
</svg>
