<?xml version="1.0" encoding="utf-8"?>
<!-- Generator: Adobe Illustrator 22.1.0, SVG Export Plug-In . SVG Version: 6.00 Build 0)  -->
<svg version="1.1" id="Layer_1" xmlns="http://www.w3.org/2000/svg" xmlns:xlink="http://www.w3.org/1999/xlink" x="0px" y="0px"
	 viewBox="0 0 274 257" style="enable-background:new 0 0 274 257;" xml:space="preserve">
<style type="text/css">
	.st0{fill-rule:evenodd;clip-rule:evenodd;fill:#439ABF;}
	.st1{fill-rule:evenodd;clip-rule:evenodd;fill:#C0DCF0;}
	.st2{fill-rule:evenodd;clip-rule:evenodd;fill:#F0F9FF;}
	.st3{clip-path:url(#SVGID_2_);fill:url(#SVGID_3_);}
	.st4{fill:#275370;}
	.st5{fill-rule:evenodd;clip-rule:evenodd;fill:#91BEE2;}
	.st6{opacity:0.6;}
	.st7{fill:#C0DCF0;}
	.st8{opacity:0.2;fill:#3D3D3D;}
	.st9{fill:#EAEAEA;}
	.st10{fill:#D8322A;}
	.st11{fill:#BC7324;}
	.st12{fill:#969696;}
	.st13{fill:#B05B68;}
	.st14{fill:none;stroke:#E83D3D;stroke-width:1.4638;stroke-miterlimit:10;}
	.st15{fill:none;stroke:#246D89;stroke-width:1.4638;stroke-miterlimit:10;}
	.st16{fill:#246D89;}
	.st17{fill:#E83D3D;}
	.st18{fill:#F2F2F2;}
	.st19{fill:url(#XMLID_2_);}
	.st20{fill:#9E9E9E;}
	.st21{opacity:0.51;fill:url(#XMLID_6_);}
	.st22{fill:#DCDCDC;}
	.st23{fill:url(#XMLID_7_);}
	.st24{fill:url(#XMLID_8_);}
	.st25{fill:url(#XMLID_9_);}
	.st26{opacity:0.51;fill:url(#XMLID_12_);}
	.st27{fill:url(#XMLID_14_);}
	.st28{opacity:0.51;fill:url(#XMLID_15_);}
	.st29{fill:url(#XMLID_16_);}
	.st30{fill:url(#XMLID_17_);}
	.st31{filter:url(#Adobe_OpacityMaskFilter);}
	.st32{filter:url(#Adobe_OpacityMaskFilter_1_);}
	.st33{mask:url(#XMLID_18_);fill:url(#XMLID_19_);}
	.st34{opacity:0.13;fill:url(#XMLID_20_);}
	.st35{filter:url(#Adobe_OpacityMaskFilter_2_);}
	.st36{filter:url(#Adobe_OpacityMaskFilter_3_);}
	.st37{mask:url(#XMLID_21_);fill:url(#XMLID_22_);}
	.st38{opacity:0.13;fill:url(#XMLID_23_);}
</style>
<g>
	<path class="st0" d="M193.7,55.3l-68-39.3c-5.5-3.2-11.9-3.2-17.4,0L12.5,71.2c-2.1,1.2-3.3,3.3-3.3,5.7c0,2.4,1.2,4.5,3.3,5.7
		l66.9,38.7L193.7,55.3z"/>
	<path class="st1" d="M126.7,7.5c-5.4-3.1-11.6-3.1-17,0L15.9,61.5c-2,1.2-3.2,3.2-3.2,5.5v7.9c0,2.3,1.2,4.4,3.2,5.5L83,119.2
		l111.8-64.5v-7.9L126.7,7.5z"/>
	<path class="st2" d="M194.8,46.8L126.7,7.5c-5.4-3.1-11.6-3.1-17,0L15.9,61.5c-2,1.2-3.2,3.2-3.2,5.5c0,2.3,1.2,4.4,3.2,5.5
		L83,111.3L194.8,46.8z"/>
	<path class="st0" d="M80.4,121.7l71.2,41.1c5.5,3.2,11.9,3.2,17.4,0l95.7-55.3c2.1-1.2,3.3-3.3,3.3-5.7c0-2.4-1.2-4.5-3.3-5.7
		l-70.1-40.5L80.4,121.7z"/>
	<g>
		<defs>
			<path id="SVGID_1_" d="M195.7,52.1L83.9,116.6v3.1L152,159c5.4,3.1,11.6,3.1,17,0l93.7-54.1c2-1.2,3.2-3.2,3.2-5.5v-3.1
				c0-2.3-1.2-4.4-3.2-5.5L195.7,52.1z"/>
		</defs>
		<use xlink:href="#SVGID_1_"  style="overflow:visible;fill-rule:evenodd;clip-rule:evenodd;fill:#C0DCF0;"/>
		<clipPath id="SVGID_2_">
			<use xlink:href="#SVGID_1_"  style="overflow:visible;"/>
		</clipPath>
		
			<linearGradient id="SVGID_3_" gradientUnits="userSpaceOnUse" x1="-437.9837" y1="627.9731" x2="-437.2848" y2="627.9731" gradientTransform="matrix(229.0898 -21.7469 16.4584 173.3787 90094.8516 -118287.0234)">
			<stop  offset="0" style="stop-color:#91BEE2"/>
			<stop  offset="1" style="stop-color:#C0DCF0"/>
		</linearGradient>
		<polygon class="st3" points="85.5,179.3 276.3,161.2 264.3,35 73.5,53.1 		"/>
	</g>
	<path class="st2" d="M83.9,116.6L152,156c5.4,3.1,11.6,3.1,17,0l93.7-54.1c2-1.2,3.2-3.2,3.2-5.5c0-2.3-1.2-4.4-3.2-5.5l-67.1-38.7
		L83.9,116.6z"/>
	<polygon class="st1" points="192.9,56.8 195.9,58.5 198.9,56.8 195.9,55 	"/>
	<polygon class="st1" points="183.3,46.7 186.3,48.4 189.4,46.7 186.3,45 	"/>
	<g>
		<path class="st4" d="M195.9,57.4c-0.1,0-0.2,0-0.3-0.1c-0.3-0.2-0.4-0.5-0.2-0.8c0.3-0.5,0.4-1.2,0.4-2c0-1.5-0.5-3.2-1.4-4.8
			c-0.9-1.6-2.1-2.9-3.4-3.6c-0.9-0.5-1.8-0.7-2.5-0.6c-0.7,0.2-1.2,0.6-1.5,1.4c-0.1,0.3-0.5,0.5-0.8,0.3c-0.3-0.1-0.5-0.5-0.3-0.8
			c0.4-1.1,1.3-1.9,2.3-2.1c1-0.2,2.2,0,3.4,0.7c1.5,0.8,2.8,2.3,3.9,4.1c1,1.8,1.6,3.7,1.6,5.4c0,1-0.2,1.8-0.6,2.5
			C196.3,57.3,196.1,57.4,195.9,57.4z"/>
	</g>
	<polygon class="st1" points="187.4,59.9 190.4,61.7 193.5,59.9 190.4,58.2 	"/>
	<polygon class="st1" points="177.9,49.8 180.9,51.6 183.9,49.8 180.9,48.1 	"/>
	<g>
		<path class="st4" d="M190.4,60.5c-0.1,0-0.2,0-0.3-0.1c-0.3-0.2-0.4-0.5-0.2-0.8c0.3-0.5,0.4-1.2,0.4-2c0-1.5-0.5-3.2-1.4-4.8
			c-0.9-1.6-2.1-2.9-3.4-3.6c-0.9-0.5-1.8-0.7-2.5-0.6c-0.7,0.2-1.2,0.6-1.5,1.4c-0.1,0.3-0.5,0.5-0.8,0.3c-0.3-0.1-0.5-0.5-0.3-0.8
			c0.4-1.1,1.3-1.9,2.3-2.1c1-0.2,2.2,0,3.4,0.7c1.5,0.8,2.8,2.3,3.9,4.1c1,1.8,1.6,3.7,1.6,5.4c0,1-0.2,1.8-0.6,2.5
			C190.8,60.4,190.6,60.5,190.4,60.5z"/>
	</g>
	<polygon class="st1" points="182,63.1 185,64.8 188,63.1 185,61.3 	"/>
	<polygon class="st1" points="172.4,53 175.4,54.7 178.5,53 175.4,51.2 	"/>
	<g>
		<path class="st4" d="M185,63.7c-0.1,0-0.2,0-0.3-0.1c-0.3-0.2-0.4-0.5-0.2-0.8c0.3-0.5,0.4-1.2,0.4-2c0-1.5-0.5-3.2-1.4-4.8
			c-0.9-1.6-2.1-2.9-3.4-3.6c-0.9-0.5-1.8-0.7-2.5-0.6c-0.7,0.2-1.2,0.6-1.5,1.4c-0.1,0.3-0.5,0.5-0.8,0.3c-0.3-0.1-0.5-0.5-0.3-0.8
			c0.4-1.1,1.3-1.9,2.3-2.1c1-0.2,2.2,0,3.4,0.7c1.5,0.8,2.8,2.3,3.9,4.1c1,1.8,1.6,3.7,1.6,5.4c0,1-0.2,1.8-0.6,2.5
			C185.4,63.5,185.2,63.7,185,63.7z"/>
	</g>
	<polygon class="st1" points="176.5,66.2 179.5,67.9 182.6,66.2 179.5,64.5 	"/>
	<polygon class="st1" points="167,56.1 170,57.9 173,56.1 170,54.4 	"/>
	<g>
		<path class="st4" d="M179.5,66.8c-0.1,0-0.2,0-0.3-0.1c-0.3-0.2-0.4-0.5-0.2-0.8c0.3-0.5,0.4-1.2,0.4-2c0-1.5-0.5-3.2-1.4-4.8
			c-0.9-1.6-2.1-2.9-3.4-3.6c-0.9-0.5-1.8-0.7-2.5-0.6c-0.7,0.2-1.2,0.6-1.5,1.4c-0.1,0.3-0.5,0.5-0.8,0.3c-0.3-0.1-0.5-0.5-0.3-0.8
			c0.4-1.1,1.3-1.9,2.3-2.1c1-0.2,2.2,0,3.4,0.7c1.5,0.8,2.8,2.3,3.9,4.1c1,1.8,1.6,3.7,1.6,5.4c0,1-0.2,1.8-0.6,2.5
			C179.9,66.7,179.7,66.8,179.5,66.8z"/>
	</g>
	<polygon class="st1" points="171.1,69.3 174.1,71.1 177.1,69.3 174.1,67.6 	"/>
	<polygon class="st1" points="161.5,59.3 164.6,61 167.6,59.3 164.6,57.5 	"/>
	<g>
		<path class="st4" d="M174.1,70c-0.1,0-0.2,0-0.3-0.1c-0.3-0.2-0.4-0.5-0.2-0.8c0.3-0.5,0.4-1.2,0.4-2c0-1.5-0.5-3.2-1.4-4.8
			c-0.9-1.6-2.1-2.9-3.4-3.6c-0.9-0.5-1.8-0.7-2.5-0.6c-0.7,0.2-1.2,0.6-1.5,1.4c-0.1,0.3-0.5,0.5-0.8,0.3c-0.3-0.1-0.5-0.5-0.3-0.8
			c0.4-1.1,1.3-1.9,2.3-2.1c1-0.2,2.2,0,3.4,0.7c1.5,0.8,2.8,2.3,3.9,4.1c1,1.8,1.6,3.7,1.6,5.4c0,1-0.2,1.8-0.6,2.5
			C174.5,69.8,174.3,70,174.1,70z"/>
	</g>
	<polygon class="st1" points="165.6,72.5 168.7,74.2 171.7,72.5 168.7,70.7 	"/>
	<polygon class="st1" points="156.1,62.4 159.1,64.2 162.1,62.4 159.1,60.7 	"/>
	<g>
		<path class="st4" d="M168.6,73.1c-0.1,0-0.2,0-0.3-0.1c-0.3-0.2-0.4-0.5-0.2-0.8c0.3-0.5,0.4-1.2,0.4-2c0-1.5-0.5-3.2-1.4-4.8
			c-0.9-1.6-2.1-2.9-3.4-3.6c-0.9-0.5-1.8-0.7-2.5-0.6c-0.7,0.2-1.2,0.6-1.5,1.4c-0.1,0.3-0.5,0.5-0.8,0.3c-0.3-0.1-0.5-0.5-0.3-0.8
			c0.4-1.1,1.3-1.9,2.3-2.1c1-0.2,2.2,0,3.4,0.7c1.5,0.8,2.8,2.3,3.9,4.1c1,1.8,1.6,3.7,1.6,5.4c0,1-0.2,1.8-0.6,2.5
			C169,73,168.8,73.1,168.6,73.1z"/>
	</g>
	<polygon class="st1" points="160.2,75.6 163.2,77.4 166.2,75.6 163.2,73.9 	"/>
	<polygon class="st1" points="150.6,65.6 153.7,67.3 156.7,65.6 153.7,63.8 	"/>
	<g>
		<path class="st4" d="M163.2,76.2c-0.1,0-0.2,0-0.3-0.1c-0.3-0.2-0.4-0.5-0.2-0.8c0.3-0.5,0.4-1.2,0.4-2c0-1.5-0.5-3.2-1.4-4.8
			c-0.9-1.6-2.1-2.9-3.4-3.6c-0.9-0.5-1.8-0.7-2.5-0.6c-0.7,0.2-1.2,0.6-1.5,1.4c-0.1,0.3-0.5,0.5-0.8,0.3c-0.3-0.1-0.5-0.5-0.3-0.8
			c0.4-1.1,1.3-1.9,2.3-2.1c1-0.2,2.2,0,3.4,0.7c1.5,0.8,2.8,2.3,3.9,4.1c1,1.8,1.6,3.7,1.6,5.4c0,1-0.2,1.8-0.6,2.5
			C163.6,76.1,163.4,76.2,163.2,76.2z"/>
	</g>
	<polygon class="st1" points="154.7,78.8 157.8,80.5 160.8,78.8 157.8,77 	"/>
	<polygon class="st1" points="145.2,68.7 148.2,70.4 151.2,68.7 148.2,67 	"/>
	<g>
		<path class="st4" d="M157.7,79.4c-0.1,0-0.2,0-0.3-0.1c-0.3-0.2-0.4-0.5-0.2-0.8c0.3-0.5,0.4-1.2,0.4-2c0-1.5-0.5-3.2-1.4-4.8
			c-0.9-1.6-2.1-2.9-3.4-3.6c-0.9-0.5-1.8-0.7-2.5-0.6c-0.7,0.2-1.2,0.6-1.5,1.4c-0.1,0.3-0.5,0.5-0.8,0.3c-0.3-0.1-0.5-0.5-0.3-0.8
			c0.4-1.1,1.3-1.9,2.3-2.1c1-0.2,2.2,0,3.4,0.7c1.5,0.8,2.8,2.3,3.9,4.1c1,1.8,1.6,3.7,1.6,5.4c0,1-0.2,1.8-0.6,2.5
			C158.2,79.3,157.9,79.4,157.7,79.4z"/>
	</g>
	<polygon class="st1" points="149.3,81.9 152.3,83.7 155.3,81.9 152.3,80.2 	"/>
	<polygon class="st1" points="139.8,71.8 142.8,73.6 145.8,71.8 142.8,70.1 	"/>
	<g>
		<path class="st4" d="M152.3,82.5c-0.1,0-0.2,0-0.3-0.1c-0.3-0.2-0.4-0.5-0.2-0.8c0.3-0.5,0.4-1.2,0.4-2c0-1.5-0.5-3.2-1.4-4.8
			c-0.9-1.6-2.1-2.9-3.4-3.6c-0.9-0.5-1.8-0.7-2.5-0.6c-0.7,0.2-1.2,0.6-1.5,1.4c-0.1,0.3-0.5,0.5-0.8,0.3c-0.3-0.1-0.5-0.5-0.3-0.8
			c0.4-1.1,1.3-1.9,2.3-2.1c1-0.2,2.2,0,3.4,0.7c1.5,0.8,2.8,2.3,3.9,4.1c1,1.8,1.6,3.7,1.6,5.4c0,1-0.2,1.8-0.6,2.5
			C152.7,82.4,152.5,82.5,152.3,82.5z"/>
	</g>
	<polygon class="st1" points="143.8,85.1 146.9,86.8 149.9,85.1 146.9,83.3 	"/>
	<polygon class="st1" points="134.3,75 137.3,76.7 140.3,75 137.3,73.2 	"/>
	<g>
		<path class="st4" d="M146.8,85.7c-0.1,0-0.2,0-0.3-0.1c-0.3-0.2-0.4-0.5-0.2-0.8c0.3-0.5,0.4-1.2,0.4-2c0-1.5-0.5-3.2-1.4-4.8
			c-0.9-1.6-2.1-2.9-3.4-3.6c-0.9-0.5-1.8-0.7-2.5-0.6c-0.7,0.2-1.2,0.6-1.5,1.4c-0.1,0.3-0.5,0.5-0.8,0.3c-0.3-0.1-0.5-0.5-0.3-0.8
			c0.4-1.1,1.3-1.9,2.3-2.1c1-0.2,2.2,0,3.4,0.7c1.5,0.8,2.8,2.3,3.9,4.1c1,1.8,1.6,3.7,1.6,5.4c0,1-0.2,1.8-0.6,2.5
			C147.3,85.6,147.1,85.7,146.8,85.7z"/>
	</g>
	<polygon class="st1" points="138.4,88.2 141.4,90 144.4,88.2 141.4,86.5 	"/>
	<polygon class="st1" points="128.9,78.1 131.9,79.9 134.9,78.1 131.9,76.4 	"/>
	<g>
		<path class="st4" d="M141.4,88.8c-0.1,0-0.2,0-0.3-0.1c-0.3-0.2-0.4-0.5-0.2-0.8c0.3-0.5,0.4-1.2,0.4-2c0-1.5-0.5-3.2-1.4-4.8
			c-0.9-1.6-2.1-2.9-3.4-3.6c-0.9-0.5-1.8-0.7-2.5-0.6c-0.7,0.2-1.2,0.6-1.5,1.4c-0.1,0.3-0.5,0.5-0.8,0.3c-0.3-0.1-0.5-0.5-0.3-0.8
			c0.4-1.1,1.3-1.9,2.3-2.1c1-0.2,2.2,0,3.4,0.7c1.5,0.8,2.8,2.3,3.9,4.1c1,1.8,1.6,3.7,1.6,5.4c0,1-0.2,1.8-0.6,2.5
			C141.8,88.7,141.6,88.8,141.4,88.8z"/>
	</g>
	<polygon class="st1" points="133,91.4 136,93.1 139,91.4 136,89.6 	"/>
	<polygon class="st1" points="123.4,81.3 126.4,83 129.5,81.3 126.4,79.5 	"/>
	<g>
		<path class="st4" d="M136,92c-0.1,0-0.2,0-0.3-0.1c-0.3-0.2-0.4-0.5-0.2-0.8c0.3-0.5,0.4-1.2,0.4-2c0-1.5-0.5-3.2-1.4-4.8
			c-0.9-1.6-2.1-2.9-3.4-3.6c-0.9-0.5-1.8-0.7-2.5-0.6c-0.7,0.2-1.2,0.6-1.5,1.4c-0.1,0.3-0.5,0.5-0.8,0.3c-0.3-0.1-0.5-0.5-0.3-0.8
			c0.4-1.1,1.3-1.9,2.3-2.1c1-0.2,2.2,0,3.4,0.7c1.5,0.8,2.8,2.3,3.9,4.1c1,1.8,1.6,3.7,1.6,5.4c0,1-0.2,1.8-0.6,2.5
			C136.4,91.8,136.2,92,136,92z"/>
	</g>
	<polygon class="st1" points="127.5,94.5 130.5,96.2 133.6,94.5 130.5,92.8 	"/>
	<polygon class="st1" points="118,84.4 121,86.2 124,84.4 121,82.7 	"/>
	<g>
		<path class="st4" d="M130.5,95.1c-0.1,0-0.2,0-0.3-0.1c-0.3-0.2-0.4-0.5-0.2-0.8c0.3-0.5,0.4-1.2,0.4-2c0-1.5-0.5-3.2-1.4-4.8
			c-0.9-1.6-2.1-2.9-3.4-3.6c-0.9-0.5-1.8-0.7-2.5-0.6c-0.7,0.2-1.2,0.6-1.5,1.4c-0.1,0.3-0.5,0.5-0.8,0.3c-0.3-0.1-0.5-0.5-0.3-0.8
			c0.4-1.1,1.3-1.9,2.3-2.1c1-0.2,2.2,0,3.4,0.7c1.5,0.8,2.8,2.3,3.9,4.1c1,1.8,1.6,3.7,1.6,5.4c0,1-0.2,1.8-0.6,2.5
			C130.9,95,130.7,95.1,130.5,95.1z"/>
	</g>
	<polygon class="st1" points="122.1,97.6 125.1,99.4 128.1,97.6 125.1,95.9 	"/>
	<polygon class="st1" points="112.5,87.6 115.5,89.3 118.6,87.6 115.5,85.8 	"/>
	<g>
		<path class="st4" d="M125.1,98.2c-0.1,0-0.2,0-0.3-0.1c-0.3-0.2-0.4-0.5-0.2-0.8c0.3-0.5,0.4-1.2,0.4-2c0-1.5-0.5-3.2-1.4-4.8
			c-0.9-1.6-2.1-2.9-3.4-3.6c-0.9-0.5-1.8-0.7-2.5-0.6c-0.7,0.2-1.2,0.6-1.5,1.4c-0.1,0.3-0.5,0.5-0.8,0.3c-0.3-0.1-0.5-0.5-0.3-0.8
			c0.4-1.1,1.3-1.9,2.3-2.1c1-0.2,2.2,0,3.4,0.7c1.5,0.8,2.8,2.3,3.9,4.1c1,1.8,1.6,3.7,1.6,5.4c0,1-0.2,1.8-0.6,2.5
			C125.5,98.1,125.3,98.2,125.1,98.2z"/>
	</g>
	<polygon class="st1" points="116.6,100.8 119.6,102.5 122.7,100.8 119.6,99 	"/>
	<polygon class="st1" points="107.1,90.7 110.1,92.5 113.1,90.7 110.1,89 	"/>
	<g>
		<path class="st4" d="M119.6,101.4c-0.1,0-0.2,0-0.3-0.1c-0.3-0.2-0.4-0.5-0.2-0.8c0.3-0.5,0.4-1.2,0.4-2c0-1.5-0.5-3.2-1.4-4.8
			c-0.9-1.6-2.1-2.9-3.4-3.6c-0.9-0.5-1.8-0.7-2.5-0.6c-0.7,0.2-1.2,0.6-1.5,1.4c-0.1,0.3-0.5,0.5-0.8,0.3c-0.3-0.1-0.5-0.5-0.3-0.8
			c0.4-1.1,1.3-1.9,2.3-2.1c1-0.2,2.2,0,3.4,0.7c1.5,0.8,2.8,2.3,3.9,4.1c1,1.8,1.6,3.7,1.6,5.4c0,1-0.2,1.8-0.6,2.5
			C120,101.3,119.8,101.4,119.6,101.4z"/>
	</g>
	<polygon class="st1" points="111.2,103.9 114.2,105.7 117.2,103.9 114.2,102.2 	"/>
	<polygon class="st1" points="101.6,93.9 104.7,95.6 107.7,93.9 104.7,92.1 	"/>
	<g>
		<path class="st4" d="M114.2,104.5c-0.1,0-0.2,0-0.3-0.1c-0.3-0.2-0.4-0.5-0.2-0.8c0.3-0.5,0.4-1.2,0.4-2c0-1.5-0.5-3.2-1.4-4.8
			c-0.9-1.6-2.1-2.9-3.4-3.6c-0.9-0.5-1.8-0.7-2.5-0.6c-0.7,0.2-1.2,0.6-1.5,1.4c-0.1,0.3-0.5,0.5-0.8,0.3c-0.3-0.1-0.5-0.5-0.3-0.8
			c0.4-1.1,1.3-1.9,2.3-2.1c1-0.2,2.2,0,3.4,0.7c1.5,0.8,2.8,2.3,3.9,4.1c1,1.8,1.6,3.7,1.6,5.4c0,1-0.2,1.8-0.6,2.5
			C114.6,104.4,114.4,104.5,114.2,104.5z"/>
	</g>
	<polygon class="st1" points="105.7,107.1 108.8,108.8 111.8,107.1 108.8,105.3 	"/>
	<polygon class="st1" points="96.2,97 99.2,98.7 102.2,97 99.2,95.3 	"/>
	<g>
		<path class="st4" d="M108.7,107.7c-0.1,0-0.2,0-0.3-0.1c-0.3-0.2-0.4-0.5-0.2-0.8c0.3-0.5,0.4-1.2,0.4-2c0-1.5-0.5-3.2-1.4-4.8
			c-0.9-1.6-2.1-2.9-3.4-3.6c-0.9-0.5-1.8-0.7-2.5-0.6c-0.7,0.2-1.2,0.6-1.5,1.4c-0.1,0.3-0.5,0.5-0.8,0.3c-0.3-0.1-0.5-0.5-0.3-0.8
			c0.4-1.1,1.3-1.9,2.3-2.1c1-0.2,2.2,0,3.4,0.7c1.5,0.8,2.8,2.3,3.9,4.1c1,1.8,1.6,3.7,1.6,5.4c0,1-0.2,1.8-0.6,2.5
			C109.1,107.6,108.9,107.7,108.7,107.7z"/>
	</g>
	<polygon class="st1" points="100.3,110.2 103.3,112 106.3,110.2 103.3,108.5 	"/>
	<polygon class="st1" points="90.7,100.1 93.8,101.9 96.8,100.1 93.8,98.4 	"/>
	<g>
		<path class="st4" d="M103.3,110.8c-0.1,0-0.2,0-0.3-0.1c-0.3-0.2-0.4-0.5-0.2-0.8c0.3-0.5,0.4-1.2,0.4-2c0-1.5-0.5-3.2-1.4-4.8
			c-0.9-1.6-2.1-2.9-3.4-3.6c-0.9-0.5-1.8-0.7-2.5-0.6c-0.7,0.2-1.2,0.6-1.5,1.4c-0.1,0.3-0.5,0.5-0.8,0.3c-0.3-0.1-0.5-0.5-0.3-0.8
			c0.4-1.1,1.3-1.9,2.3-2.1c1-0.2,2.2,0,3.4,0.7c1.5,0.8,2.8,2.3,3.9,4.1c1,1.8,1.6,3.7,1.6,5.4c0,1-0.2,1.8-0.6,2.5
			C103.7,110.7,103.5,110.8,103.3,110.8z"/>
	</g>
	<polygon class="st1" points="94.8,113.4 97.9,115.1 100.9,113.4 97.9,111.6 	"/>
	<polygon class="st1" points="85.3,103.3 88.3,105 91.3,103.3 88.3,101.5 	"/>
	<g>
		<path class="st4" d="M97.8,114c-0.1,0-0.2,0-0.3-0.1c-0.3-0.2-0.4-0.5-0.2-0.8c0.3-0.5,0.4-1.2,0.4-2c0-1.5-0.5-3.2-1.4-4.8
			c-0.9-1.6-2.1-2.9-3.4-3.6c-0.9-0.5-1.8-0.7-2.5-0.6c-0.7,0.2-1.2,0.6-1.5,1.4c-0.1,0.3-0.5,0.5-0.8,0.3c-0.3-0.1-0.5-0.5-0.3-0.8
			c0.4-1.1,1.3-1.9,2.3-2.1c1-0.2,2.2,0,3.4,0.7c1.5,0.8,2.8,2.3,3.9,4.1c1,1.8,1.6,3.7,1.6,5.4c0,1-0.2,1.8-0.6,2.5
			C98.3,113.8,98.1,114,97.8,114z"/>
	</g>
	<polygon class="st1" points="89.4,116.5 92.4,118.2 95.4,116.5 92.4,114.8 	"/>
	<polygon class="st1" points="79.9,106.4 82.9,108.2 85.9,106.4 82.9,104.7 	"/>
	<g>
		<path class="st4" d="M92.4,117.1c-0.1,0-0.2,0-0.3-0.1c-0.3-0.2-0.4-0.5-0.2-0.8c0.3-0.5,0.4-1.2,0.4-2c0-1.5-0.5-3.2-1.4-4.8
			c-0.9-1.6-2.1-2.9-3.4-3.6c-0.9-0.5-1.8-0.7-2.5-0.6c-0.7,0.2-1.2,0.6-1.5,1.4c-0.1,0.3-0.5,0.5-0.8,0.3c-0.3-0.1-0.5-0.5-0.3-0.8
			c0.4-1.1,1.3-1.9,2.3-2.1c1-0.2,2.2,0,3.4,0.7c1.5,0.8,2.8,2.3,3.9,4.1c1,1.8,1.6,3.7,1.6,5.4c0,1-0.2,1.8-0.6,2.5
			C92.8,117,92.6,117.1,92.4,117.1z"/>
	</g>
	<path class="st5" d="M39.5,86.2L83,111.3v4.8v3.1L32.6,90.1l-16.7-9.6c-2-1.2-3.2-3.2-3.2-5.5v-3.8v-4c0,1.3,0.3,2.5,1,3.5
		c0.5,0.8,1.3,1.5,2.2,2.1L39.5,86.2z"/>
	<g class="st6">
		<path class="st7" d="M257.4,98.4c0,0-0.1,0-0.1,0L196,63c-0.1-0.1-0.2-0.2-0.1-0.4c0.1-0.1,0.2-0.2,0.4-0.1L257.5,98
			c0.1,0.1,0.2,0.2,0.1,0.4C257.6,98.4,257.5,98.4,257.4,98.4z"/>
	</g>
	<g class="st6">
		<path class="st7" d="M251,102.2c0,0-0.1,0-0.1,0l-61.3-35.4c-0.1-0.1-0.2-0.2-0.1-0.4c0.1-0.1,0.2-0.2,0.4-0.1l61.3,35.4
			c0.1,0.1,0.2,0.2,0.1,0.4C251.2,102.1,251.1,102.2,251,102.2z"/>
	</g>
	<g class="st6">
		<path class="st7" d="M244.6,105.9c0,0-0.1,0-0.1,0l-61.3-35.4c-0.1-0.1-0.2-0.2-0.1-0.4c0.1-0.1,0.2-0.2,0.4-0.1l61.3,35.4
			c0.1,0.1,0.2,0.2,0.1,0.4C244.8,105.8,244.7,105.9,244.6,105.9z"/>
	</g>
	<g class="st6">
		<path class="st7" d="M238.2,109.6c0,0-0.1,0-0.1,0l-61.3-35.4c-0.1-0.1-0.2-0.2-0.1-0.4c0.1-0.1,0.2-0.2,0.4-0.1l61.3,35.4
			c0.1,0.1,0.2,0.2,0.1,0.4C238.4,109.5,238.3,109.6,238.2,109.6z"/>
	</g>
	<g class="st6">
		<path class="st7" d="M231.8,113.3c0,0-0.1,0-0.1,0l-61.3-35.4c-0.1-0.1-0.2-0.2-0.1-0.4c0.1-0.1,0.2-0.2,0.4-0.1l61.3,35.4
			c0.1,0.1,0.2,0.2,0.1,0.4C231.9,113.2,231.9,113.3,231.8,113.3z"/>
	</g>
	<g class="st6">
		<path class="st7" d="M225.4,117c0,0-0.1,0-0.1,0l-61.3-35.4c-0.1-0.1-0.2-0.2-0.1-0.4c0.1-0.1,0.2-0.2,0.4-0.1l61.3,35.4
			c0.1,0.1,0.2,0.2,0.1,0.4C225.5,116.9,225.4,117,225.4,117z"/>
	</g>
	<g class="st6">
		<path class="st7" d="M218.9,120.7c0,0-0.1,0-0.1,0l-61.3-35.4c-0.1-0.1-0.2-0.2-0.1-0.4c0.1-0.1,0.2-0.2,0.4-0.1l61.3,35.4
			c0.1,0.1,0.2,0.2,0.1,0.4C219.1,120.6,219,120.7,218.9,120.7z"/>
	</g>
	<g class="st6">
		<path class="st7" d="M212.5,124.4c0,0-0.1,0-0.1,0l-61.3-35.4c-0.1-0.1-0.2-0.2-0.1-0.4c0.1-0.1,0.2-0.2,0.4-0.1l61.3,35.4
			c0.1,0.1,0.2,0.2,0.1,0.4C212.7,124.3,212.6,124.4,212.5,124.4z"/>
	</g>
	<g class="st6">
		<path class="st7" d="M206.1,128.1c0,0-0.1,0-0.1,0l-61.3-35.4c-0.1-0.1-0.2-0.2-0.1-0.4c0.1-0.1,0.2-0.2,0.4-0.1l61.3,35.4
			c0.1,0.1,0.2,0.2,0.1,0.4C206.3,128,206.2,128.1,206.1,128.1z"/>
	</g>
	<g class="st6">
		<path class="st7" d="M199.7,131.8c0,0-0.1,0-0.1,0l-61.3-35.4c-0.1-0.1-0.2-0.2-0.1-0.4c0.1-0.1,0.2-0.2,0.4-0.1l61.3,35.4
			c0.1,0.1,0.2,0.2,0.1,0.4C199.9,131.7,199.8,131.8,199.7,131.8z"/>
	</g>
	<g class="st6">
		<path class="st7" d="M193.3,135.5c0,0-0.1,0-0.1,0L131.9,100c-0.1-0.1-0.2-0.2-0.1-0.4c0.1-0.1,0.2-0.2,0.4-0.1l61.3,35.4
			c0.1,0.1,0.2,0.2,0.1,0.4C193.5,135.4,193.4,135.5,193.3,135.5z"/>
	</g>
	<g class="st6">
		<path class="st7" d="M186.9,139.2c0,0-0.1,0-0.1,0l-61.3-35.4c-0.1-0.1-0.2-0.2-0.1-0.4c0.1-0.1,0.2-0.2,0.4-0.1l61.3,35.4
			c0.1,0.1,0.2,0.2,0.1,0.4C187.1,139.1,187,139.2,186.9,139.2z"/>
	</g>
	<g class="st6">
		<path class="st7" d="M180.5,142.9c0,0-0.1,0-0.1,0l-61.3-35.4c-0.1-0.1-0.2-0.2-0.1-0.4c0.1-0.1,0.2-0.2,0.4-0.1l61.3,35.4
			c0.1,0.1,0.2,0.2,0.1,0.4C180.7,142.8,180.6,142.9,180.5,142.9z"/>
	</g>
	<g class="st6">
		<path class="st7" d="M174.1,146.6c0,0-0.1,0-0.1,0l-61.3-35.4c-0.1-0.1-0.2-0.2-0.1-0.4c0.1-0.1,0.2-0.2,0.4-0.1l61.3,35.4
			c0.1,0.1,0.2,0.2,0.1,0.4C174.2,146.5,174.2,146.6,174.1,146.6z"/>
	</g>
	<g class="st6">
		<path class="st7" d="M167.6,150.3c0,0-0.1,0-0.1,0l-61.3-35.4c-0.1-0.1-0.2-0.2-0.1-0.4c0.1-0.1,0.2-0.2,0.4-0.1l61.3,35.4
			c0.1,0.1,0.2,0.2,0.1,0.4C167.8,150.2,167.7,150.3,167.6,150.3z"/>
	</g>
	<g class="st6">
		<path class="st7" d="M161.2,154c0,0-0.1,0-0.1,0l-61.3-35.4c-0.1-0.1-0.2-0.2-0.1-0.4c0.1-0.1,0.2-0.2,0.4-0.1l61.3,35.4
			c0.1,0.1,0.2,0.2,0.1,0.4C161.4,153.9,161.3,154,161.2,154z"/>
	</g>
	<g class="st6">
		<path class="st7" d="M176.1,46.7c0,0-0.1,0-0.1,0l-61.3-35.4c-0.1-0.1-0.2-0.2-0.1-0.4c0.1-0.1,0.2-0.2,0.4-0.1l61.3,35.4
			c0.1,0.1,0.2,0.2,0.1,0.4C176.3,46.6,176.2,46.7,176.1,46.7z"/>
	</g>
	<g class="st6">
		<path class="st7" d="M169.7,50.4c0,0-0.1,0-0.1,0L108.3,15c-0.1-0.1-0.2-0.2-0.1-0.4c0.1-0.1,0.2-0.2,0.4-0.1l61.3,35.4
			c0.1,0.1,0.2,0.2,0.1,0.4C169.9,50.3,169.8,50.4,169.7,50.4z"/>
	</g>
	<g class="st6">
		<path class="st7" d="M163.3,54.1c0,0-0.1,0-0.1,0l-61.3-35.4c-0.1-0.1-0.2-0.2-0.1-0.4c0.1-0.1,0.2-0.2,0.4-0.1l61.3,35.4
			c0.1,0.1,0.2,0.2,0.1,0.4C163.5,54,163.4,54.1,163.3,54.1z"/>
	</g>
	<g class="st6">
		<path class="st7" d="M156.9,57.8c0,0-0.1,0-0.1,0L95.4,22.4c-0.1-0.1-0.2-0.2-0.1-0.4c0.1-0.1,0.2-0.2,0.4-0.1L157,57.3
			c0.1,0.1,0.2,0.2,0.1,0.4C157,57.7,157,57.8,156.9,57.8z"/>
	</g>
	<g class="st6">
		<path class="st7" d="M150.5,61.5c0,0-0.1,0-0.1,0L89,26.1c-0.1-0.1-0.2-0.2-0.1-0.4c0.1-0.1,0.2-0.2,0.4-0.1L150.6,61
			c0.1,0.1,0.2,0.2,0.1,0.4C150.6,61.4,150.5,61.5,150.5,61.5z"/>
	</g>
	<g class="st6">
		<path class="st7" d="M144,65.2c0,0-0.1,0-0.1,0L82.6,29.8c-0.1-0.1-0.2-0.2-0.1-0.4c0.1-0.1,0.2-0.2,0.4-0.1l61.3,35.4
			c0.1,0.1,0.2,0.2,0.1,0.4C144.2,65.1,144.1,65.2,144,65.2z"/>
	</g>
	<g class="st6">
		<path class="st7" d="M137.6,68.9c0,0-0.1,0-0.1,0L76.2,33.5c-0.1-0.1-0.2-0.2-0.1-0.4c0.1-0.1,0.2-0.2,0.4-0.1l61.3,35.4
			c0.1,0.1,0.2,0.2,0.1,0.4C137.8,68.8,137.7,68.9,137.6,68.9z"/>
	</g>
	<g class="st6">
		<path class="st7" d="M131.2,72.6c0,0-0.1,0-0.1,0L69.8,37.2c-0.1-0.1-0.2-0.2-0.1-0.4c0.1-0.1,0.2-0.2,0.4-0.1l61.3,35.4
			c0.1,0.1,0.2,0.2,0.1,0.4C131.4,72.5,131.3,72.6,131.2,72.6z"/>
	</g>
	<g class="st6">
		<path class="st7" d="M124.8,76.3c0,0-0.1,0-0.1,0L63.4,40.9c-0.1-0.1-0.2-0.2-0.1-0.4c0.1-0.1,0.2-0.2,0.4-0.1l61.3,35.4
			c0.1,0.1,0.2,0.2,0.1,0.4C125,76.2,124.9,76.3,124.8,76.3z"/>
	</g>
	<g class="st6">
		<path class="st7" d="M118.4,80c0,0-0.1,0-0.1,0L57,44.6c-0.1-0.1-0.2-0.2-0.1-0.4c0.1-0.1,0.2-0.2,0.4-0.1l61.3,35.4
			c0.1,0.1,0.2,0.2,0.1,0.4C118.6,79.9,118.5,80,118.4,80z"/>
	</g>
	<g class="st6">
		<path class="st7" d="M112,83.7c0,0-0.1,0-0.1,0L50.6,48.3c-0.1-0.1-0.2-0.2-0.1-0.4c0.1-0.1,0.2-0.2,0.4-0.1l61.3,35.4
			c0.1,0.1,0.2,0.2,0.1,0.4C112.2,83.6,112.1,83.7,112,83.7z"/>
	</g>
	<g class="st6">
		<path class="st7" d="M105.6,87.4c0,0-0.1,0-0.1,0L44.2,52c-0.1-0.1-0.2-0.2-0.1-0.4c0.1-0.1,0.2-0.2,0.4-0.1l61.3,35.4
			c0.1,0.1,0.2,0.2,0.1,0.4C105.8,87.3,105.7,87.4,105.6,87.4z"/>
	</g>
	<g class="st6">
		<path class="st7" d="M99.2,91.1c0,0-0.1,0-0.1,0L37.7,55.7c-0.1-0.1-0.2-0.2-0.1-0.4c0.1-0.1,0.2-0.2,0.4-0.1l61.3,35.4
			c0.1,0.1,0.2,0.2,0.1,0.4C99.3,91,99.3,91.1,99.2,91.1z"/>
	</g>
	<g class="st6">
		<path class="st7" d="M92.8,94.8c0,0-0.1,0-0.1,0L31.3,59.4c-0.1-0.1-0.2-0.2-0.1-0.4c0.1-0.1,0.2-0.2,0.4-0.1l61.3,35.4
			c0.1,0.1,0.2,0.2,0.1,0.4C92.9,94.7,92.8,94.8,92.8,94.8z"/>
	</g>
	<g class="st6">
		<path class="st7" d="M86.3,98.5c0,0-0.1,0-0.1,0L24.9,63.1c-0.1-0.1-0.2-0.2-0.1-0.4c0.1-0.1,0.2-0.2,0.4-0.1L86.5,98
			c0.1,0.1,0.2,0.2,0.1,0.4C86.5,98.4,86.4,98.5,86.3,98.5z"/>
	</g>
	<g class="st6">
		<path class="st7" d="M79.9,102.2c0,0-0.1,0-0.1,0L18.5,66.8c-0.1-0.1-0.2-0.2-0.1-0.4c0.1-0.1,0.2-0.2,0.4-0.1l61.3,35.4
			c0.1,0.1,0.2,0.2,0.1,0.4C80.1,102.2,80,102.2,79.9,102.2z"/>
	</g>
</g>
<polygon id="XMLID_713_" class="st8" points="257,120.2 143.8,190.9 265.8,126 "/>
<polygon id="XMLID_44_" class="st8" points="154.7,131.3 64,183.6 182.7,252.1 273.4,199.8 "/>
<g id="XMLID_545_">
	<polygon id="XMLID_648_" class="st9" points="143.1,191.7 52.4,139.3 171.1,70.8 261.8,123.2 	"/>
	<path id="XMLID_647_" class="st10" d="M159.8,86.5l-13.5,7.8l0.4,1.5l5.5,0.7l0.3,1.6l1.5-0.4l0.3,2.5l8.4-1l0.1,2.2l3-1.3
		c0,0,0.5,2.2,0.5,2.4c0,0.2,5-0.3,5-0.3l1.1,2.8l5.4,0.8l-5,2.9l9.1-1.6l-1.9,2.3l5.4-1.4l5.2-0.5l2.9-1.7L159.8,86.5z"/>
	<path id="XMLID_646_" class="st11" d="M180,109.4l1.9-2.3l-9.1,1.6l5-2.9l-5.4-0.8l-1.1-2.8c0,0-5,0.5-5,0.3c0-0.2-0.5-2.4-0.5-2.4
		l-3,1.3l-0.1-2.2l-8.4,1l-0.3-2.5l-1.5,0.4l-0.3-1.6l-5.5-0.7l-0.4-1.5l-5.6,3.2l33.7,19.4l16.2-9.3l-5.2,0.5L180,109.4z"/>
	<polygon id="XMLID_645_" class="st12" points="233,130.8 194.5,108.6 196.3,107.5 234.7,129.7 	"/>
	<polygon id="XMLID_644_" class="st12" points="203.5,147.8 188.1,138.9 189.9,137.8 205.3,146.8 	"/>
	<polygon id="XMLID_643_" class="st12" points="200.8,149.3 185.4,140.4 186.3,139.9 201.7,148.8 	"/>
	<polygon id="XMLID_642_" class="st12" points="198.4,150.7 183,141.8 183.8,141.3 199.3,150.2 	"/>
	<polygon id="XMLID_641_" class="st12" points="196,152.1 180.5,143.2 181.4,142.7 196.8,151.6 	"/>
	<polygon id="XMLID_640_" class="st12" points="193.5,153.5 178.1,144.6 179,144.1 194.4,153 	"/>
	<polygon id="XMLID_639_" class="st12" points="191.1,154.9 175.7,146 176.5,145.5 192,154.4 	"/>
	<polygon id="XMLID_638_" class="st12" points="188.7,156.4 173.2,147.4 174.1,146.9 189.5,155.8 	"/>
	<polygon id="XMLID_637_" class="st12" points="186.2,157.8 170.8,148.8 171.7,148.3 187.1,157.2 	"/>
	<polygon id="XMLID_636_" class="st12" points="230.4,132.3 191.9,110.1 192.6,109.7 231.1,131.9 	"/>
	<polygon id="XMLID_635_" class="st12" points="228.7,133.2 190.2,111 190.9,110.6 229.4,132.8 	"/>
	<polygon id="XMLID_634_" class="st12" points="227,134.2 188.5,112 189.3,111.6 227.7,133.8 	"/>
	<polygon id="XMLID_633_" class="st12" points="225.4,135.2 186.9,112.9 187.6,112.5 226.1,134.8 	"/>
	<polygon id="XMLID_632_" class="st12" points="223.7,136.1 185.2,113.9 185.9,113.5 224.4,135.7 	"/>
	<polygon id="XMLID_631_" class="st12" points="222,137.1 183.6,114.9 184.3,114.5 222.7,136.7 	"/>
	<polygon id="XMLID_630_" class="st12" points="220.4,138 181.9,115.8 182.6,115.4 221.1,137.6 	"/>
	<polygon id="XMLID_629_" class="st12" points="218.7,139 180.2,116.8 180.9,116.4 219.4,138.6 	"/>
	<polygon id="XMLID_628_" class="st12" points="217,140 178.6,117.8 179.3,117.3 217.7,139.6 	"/>
	<polygon id="XMLID_627_" class="st12" points="215.4,140.9 176.9,118.7 177.6,118.3 216.1,140.5 	"/>
	<polygon id="XMLID_626_" class="st13" points="111.7,117.7 108.7,116 114.3,112.8 117.2,114.5 	"/>
	<polygon id="XMLID_625_" class="st13" points="116.8,120.6 113.8,118.9 125.6,112.1 128.5,113.8 	"/>
	<polygon id="XMLID_624_" class="st13" points="121.9,123.6 118.9,121.9 135.6,112.2 138.6,113.9 	"/>
	<polygon id="XMLID_623_" class="st13" points="127,126.5 124,124.8 133.8,119.2 136.7,120.9 	"/>
	<polygon id="XMLID_622_" class="st13" points="132.1,129.4 129.1,127.7 147.2,117.3 150.1,119 	"/>
	<polygon id="XMLID_621_" class="st13" points="137.2,132.4 134.2,130.7 154.2,119.2 157.1,120.9 	"/>
	<polygon id="XMLID_620_" class="st13" points="142.3,135.3 139.3,133.6 154,125.1 157,126.8 	"/>
	<polygon id="XMLID_619_" class="st13" points="147.4,138.3 144.4,136.6 170.7,121.4 173.6,123.1 	"/>
	<polygon id="XMLID_618_" class="st13" points="158.4,144.6 155.4,142.9 178.5,129.6 181.5,131.3 	"/>
	<polygon id="XMLID_617_" class="st13" points="152.5,141.2 149.5,139.5 168.5,128.6 171.4,130.3 	"/>
	<path id="XMLID_616_" class="st13" d="M182.2,134.5c1.3-0.7,3.4-0.7,4.7,0c1.3,0.7,1.3,2,0,2.7c-1.3,0.7-3.4,0.7-4.7,0
		C181,136.4,181,135.2,182.2,134.5z"/>
	<polyline id="XMLID_615_" class="st14" points="80.9,132 91.4,134.3 99.5,133.7 99.2,139.2 110.2,136.9 108.6,145.5 115.8,141.3 
		118.7,150.7 131.2,147.6 129,153.1 137.9,149.6 141.6,154.3 148,153.1 149.2,159 157.8,155.3 155.5,162.7 163,160.6 158,166 
		169.2,163.4 167.5,168.6 	"/>
	<polyline id="XMLID_614_" class="st15" points="77,134.3 88.8,132 89.3,138.3 101.5,137.8 102,145.1 111.9,142.1 112.3,150.1 
		123.9,146.8 123.2,156.4 132.1,154 132.2,161.6 145.4,161.1 148.9,169.7 155.6,167.4 166,169.5 	"/>
	<ellipse id="XMLID_613_" class="st16" cx="88.8" cy="132" rx="1.2" ry="0.7"/>
	<ellipse id="XMLID_612_" class="st16" cx="91.2" cy="134.4" rx="1.2" ry="0.7"/>
	<path id="XMLID_611_" class="st17" d="M98.7,133.1c0.5-0.3,1.2-0.3,1.7,0c0.5,0.3,0.5,0.7,0,1c-0.5,0.3-1.2,0.3-1.7,0
		C98.3,133.8,98.3,133.4,98.7,133.1z"/>
	<path id="XMLID_610_" class="st17" d="M109.1,136.3c0.5-0.3,1.2-0.3,1.7,0c0.5,0.3,0.5,0.7,0,1c-0.5,0.3-1.2,0.3-1.7,0
		C108.7,137,108.7,136.5,109.1,136.3z"/>
	<path id="XMLID_609_" class="st17" d="M115.3,140.7c0.5-0.3,1.2-0.3,1.7,0c0.5,0.3,0.5,0.7,0,1c-0.5,0.3-1.2,0.3-1.7,0
		C114.8,141.4,114.8,141,115.3,140.7z"/>
	<path id="XMLID_608_" class="st17" d="M130.3,147.2c0.5-0.3,1.2-0.3,1.7,0c0.5,0.3,0.5,0.7,0,1c-0.5,0.3-1.2,0.3-1.7,0
		C129.9,147.9,129.9,147.5,130.3,147.2z"/>
	<path id="XMLID_607_" class="st17" d="M137.1,149c0.5-0.3,1.2-0.3,1.7,0c0.5,0.3,0.5,0.7,0,1c-0.5,0.3-1.2,0.3-1.7,0
		C136.6,149.7,136.6,149.3,137.1,149z"/>
	<path id="XMLID_606_" class="st17" d="M147.1,152.3c0.5-0.3,1.2-0.3,1.7,0c0.5,0.3,0.5,0.7,0,1c-0.5,0.3-1.2,0.3-1.7,0
		C146.6,153,146.6,152.6,147.1,152.3z"/>
	<path id="XMLID_605_" class="st17" d="M156.7,154.7c0.5-0.3,1.2-0.3,1.7,0c0.5,0.3,0.5,0.7,0,1c-0.5,0.3-1.2,0.3-1.7,0
		C156.3,155.4,156.3,155,156.7,154.7z"/>
	<path id="XMLID_604_" class="st17" d="M162,160c0.5-0.3,1.2-0.3,1.7,0c0.5,0.3,0.5,0.7,0,1c-0.5,0.3-1.2,0.3-1.7,0
		C161.5,160.7,161.5,160.2,162,160z"/>
	<path id="XMLID_603_" class="st17" d="M168.6,162.8c0.5-0.3,1.2-0.3,1.7,0c0.5,0.3,0.5,0.7,0,1c-0.5,0.3-1.2,0.3-1.7,0
		C168.2,163.5,168.2,163.1,168.6,162.8z"/>
	<path id="XMLID_602_" class="st16" d="M100.5,137.3c0.5-0.3,1.2-0.3,1.7,0s0.5,0.7,0,1c-0.5,0.3-1.2,0.3-1.7,0
		C100.1,138,100.1,137.5,100.5,137.3z"/>
	<path id="XMLID_601_" class="st16" d="M111,141.7c0.5-0.3,1.2-0.3,1.7,0c0.5,0.3,0.5,0.7,0,1c-0.5,0.3-1.2,0.3-1.7,0
		C110.5,142.4,110.5,142,111,141.7z"/>
	<path id="XMLID_600_" class="st16" d="M123.2,146.3c0.5-0.3,1.2-0.3,1.7,0c0.5,0.3,0.5,0.7,0,1c-0.5,0.3-1.2,0.3-1.7,0
		C122.7,147,122.7,146.5,123.2,146.3z"/>
	<path id="XMLID_599_" class="st16" d="M131,153.5c0.5-0.3,1.2-0.3,1.7,0c0.5,0.3,0.5,0.7,0,1c-0.5,0.3-1.2,0.3-1.7,0
		C130.6,154.2,130.6,153.7,131,153.5z"/>
	<ellipse id="XMLID_598_" class="st16" cx="145.3" cy="161.3" rx="1.2" ry="0.7"/>
	<path id="XMLID_597_" class="st16" d="M154.9,166.8c0.5-0.3,1.2-0.3,1.7,0c0.5,0.3,0.5,0.7,0,1c-0.5,0.3-1.2,0.3-1.7,0
		C154.4,167.6,154.4,167.1,154.9,166.8z"/>
	<path id="XMLID_596_" class="st17" d="M71.7,138.5c1.1-0.6,2.8-0.6,3.9,0c1.1,0.6,1.1,1.6,0,2.2c-1.1,0.6-2.8,0.6-3.9,0
		C70.7,140.1,70.7,139.1,71.7,138.5z"/>
	<polygon id="XMLID_595_" class="st17" points="102.7,155.6 78.2,141.4 78.8,141 103.4,155.2 	"/>
	<polygon id="XMLID_594_" class="st12" points="101.8,156.1 77.2,142 77.6,141.7 102.2,155.9 	"/>
	<polygon id="XMLID_593_" class="st12" points="101,156.6 76.5,142.4 76.9,142.2 101.4,156.3 	"/>
	<polygon id="XMLID_592_" class="st12" points="100.2,157 75.7,142.9 76.1,142.6 100.6,156.8 	"/>
	<path id="XMLID_591_" class="st16" d="M110.3,160.7c1.1-0.6,2.8-0.6,3.9,0c1.1,0.6,1.1,1.6,0,2.2c-1.1,0.6-2.8,0.6-3.9,0
		C109.2,162.4,109.2,161.4,110.3,160.7z"/>
	<polygon id="XMLID_590_" class="st16" points="141.3,177.8 116.7,163.7 117.4,163.3 141.9,177.4 	"/>
	<polygon id="XMLID_589_" class="st12" points="140.3,178.4 115.8,164.2 116.2,164 140.7,178.2 	"/>
	<polygon id="XMLID_585_" class="st12" points="139.5,178.8 115,164.7 115.4,164.4 139.9,178.6 	"/>
	<polygon id="XMLID_584_" class="st12" points="138.8,179.3 114.2,165.1 114.6,164.9 139.2,179 	"/>
</g>
<g id="XMLID_650_">
	<polygon id="XMLID_712_" class="st18" points="151.3,131.3 60.7,183.6 179.3,252.1 270,199.8 	"/>
	<path id="XMLID_711_" class="st10" d="M168,236.5l-13.5-7.8l0.4-1.5l5.5-0.7l0.3-1.6l1.5,0.4l0.3-2.5l8.4,1l0.1-2.2l3,1.3
		c0,0,0.5-2.2,0.5-2.4c0-0.2,5,0.3,5,0.3l1.1-2.8l5.4-0.8l-5-2.9l9.1,1.6l-1.9-2.3l5.4,1.4l5.2,0.5l2.9,1.7L168,236.5z"/>
	<path id="XMLID_710_" class="st11" d="M188.2,213.5l1.9,2.3l-9.1-1.6l5,2.9l-5.4,0.8l-1.1,2.8c0,0-5-0.5-5-0.3
		c0,0.2-0.5,2.4-0.5,2.4l-3-1.3l-0.1,2.2l-8.4-1l-0.3,2.5l-1.5-0.4l-0.3,1.6l-5.5,0.7l-0.4,1.5l-5.6-3.2l33.7-19.4l16.2,9.3
		l-5.2-0.5L188.2,213.5z"/>
	<polygon id="XMLID_709_" class="st12" points="241.2,192.2 202.7,214.4 204.5,215.4 243,193.2 	"/>
	<polygon id="XMLID_708_" class="st12" points="211.7,175.2 196.3,184.1 198.1,185.1 213.5,176.2 	"/>
	<polygon id="XMLID_707_" class="st12" points="209,173.6 193.6,182.5 194.5,183 209.9,174.1 	"/>
	<polygon id="XMLID_706_" class="st12" points="206.6,172.2 191.2,181.1 192.1,181.6 207.5,172.7 	"/>
	<polygon id="XMLID_705_" class="st12" points="204.2,170.8 188.7,179.7 189.6,180.2 205.1,171.3 	"/>
	<polygon id="XMLID_704_" class="st12" points="201.7,169.4 186.3,178.3 187.2,178.8 202.6,169.9 	"/>
	<polygon id="XMLID_703_" class="st12" points="199.3,168 183.9,176.9 184.8,177.4 200.2,168.5 	"/>
	<polygon id="XMLID_702_" class="st12" points="196.9,166.6 181.5,175.5 182.3,176 197.8,167.1 	"/>
	<polygon id="XMLID_701_" class="st12" points="194.5,165.2 179,174.1 179.9,174.6 195.3,165.7 	"/>
	<polygon id="XMLID_700_" class="st12" points="238.6,190.7 200.1,212.9 200.8,213.3 239.3,191.1 	"/>
	<polygon id="XMLID_699_" class="st12" points="236.9,189.7 198.4,211.9 199.1,212.3 237.6,190.1 	"/>
	<polygon id="XMLID_698_" class="st12" points="235.2,188.7 196.8,211 197.5,211.4 236,189.1 	"/>
	<polygon id="XMLID_697_" class="st12" points="233.6,187.8 195.1,210 195.8,210.4 234.3,188.2 	"/>
	<polygon id="XMLID_696_" class="st12" points="231.9,186.8 193.4,209 194.2,209.4 232.6,187.2 	"/>
	<polygon id="XMLID_695_" class="st12" points="230.3,185.9 191.8,208.1 192.5,208.5 231,186.3 	"/>
	<polygon id="XMLID_694_" class="st12" points="228.6,184.9 190.1,207.1 190.8,207.5 229.3,185.3 	"/>
	<polygon id="XMLID_693_" class="st12" points="226.9,183.9 188.4,206.1 189.2,206.6 227.6,184.3 	"/>
	<polygon id="XMLID_692_" class="st12" points="225.3,183 186.8,205.2 187.5,205.6 226,183.4 	"/>
	<polygon id="XMLID_691_" class="st12" points="223.6,182 185.1,204.2 185.8,204.6 224.3,182.4 	"/>
	<polygon id="XMLID_690_" class="st13" points="119.9,205.3 117,207 122.5,210.2 125.4,208.5 	"/>
	<polygon id="XMLID_689_" class="st13" points="125,202.3 122.1,204 133.8,210.8 136.8,209.1 	"/>
	<polygon id="XMLID_688_" class="st13" points="130.1,199.4 127.2,201.1 143.9,210.7 146.8,209 	"/>
	<polygon id="XMLID_687_" class="st13" points="135.2,196.4 132.3,198.1 142,203.8 145,202.1 	"/>
	<polygon id="XMLID_686_" class="st13" points="140.3,193.5 137.4,195.2 155.4,205.6 158.3,203.9 	"/>
	<polygon id="XMLID_685_" class="st13" points="145.4,190.5 142.5,192.2 162.4,203.7 165.3,202 	"/>
	<polygon id="XMLID_684_" class="st13" points="150.5,187.6 147.6,189.3 162.3,197.8 165.2,196.1 	"/>
	<polygon id="XMLID_683_" class="st13" points="155.6,184.7 152.7,186.4 178.9,201.5 181.8,199.8 	"/>
	<polygon id="XMLID_682_" class="st13" points="166.6,178.3 163.7,180 186.7,193.3 189.7,191.6 	"/>
	<polygon id="XMLID_681_" class="st13" points="160.7,181.7 157.8,183.4 176.7,194.4 179.6,192.7 	"/>
	<path id="XMLID_680_" class="st13" d="M190.5,188.5c1.3,0.7,3.4,0.7,4.7,0c1.3-0.7,1.3-2,0-2.7c-1.3-0.7-3.4-0.7-4.7,0
		C189.2,186.5,189.2,187.7,190.5,188.5z"/>
	<polyline id="XMLID_679_" class="st14" points="89.2,190.9 99.6,188.6 107.8,189.2 107.4,183.8 118.4,186.1 116.8,177.4 124,181.6 
		126.9,172.3 139.4,175.3 137.2,169.9 146.1,173.3 149.8,168.6 156.2,169.9 157.4,164 166,167.6 163.8,160.2 171.2,162.4 
		166.3,156.9 177.4,159.5 175.7,154.4 	"/>
	<polyline id="XMLID_678_" class="st15" points="85.2,188.6 97.1,190.9 97.6,184.6 109.8,185.1 110.2,177.8 120.1,180.8 
		120.5,172.8 132.1,176.1 131.4,166.5 140.3,168.9 140.4,161.3 153.7,161.8 157.1,153.2 163.9,155.6 174.2,153.5 	"/>
	<ellipse id="XMLID_677_" class="st16" cx="97.1" cy="190.9" rx="1.2" ry="0.7"/>
	<path id="XMLID_676_" class="st16" d="M98.6,189.1c0.5,0.3,1.2,0.3,1.7,0s0.5-0.7,0-1c-0.5-0.3-1.2-0.3-1.7,0
		C98.1,188.4,98.1,188.8,98.6,189.1z"/>
	<path id="XMLID_675_" class="st17" d="M107,189.8c0.5,0.3,1.2,0.3,1.7,0c0.5-0.3,0.5-0.7,0-1c-0.5-0.3-1.2-0.3-1.7,0
		C106.5,189.1,106.5,189.6,107,189.8z"/>
	<path id="XMLID_674_" class="st17" d="M117.4,186.7c0.5,0.3,1.2,0.3,1.7,0c0.5-0.3,0.5-0.7,0-1c-0.5-0.3-1.2-0.3-1.7,0
		C116.9,186,116.9,186.4,117.4,186.7z"/>
	<path id="XMLID_673_" class="st17" d="M123.5,182.2c0.5,0.3,1.2,0.3,1.7,0c0.5-0.3,0.5-0.7,0-1c-0.5-0.3-1.2-0.3-1.7,0
		C123,181.5,123,182,123.5,182.2z"/>
	<path id="XMLID_672_" class="st17" d="M138.6,175.7c0.5,0.3,1.2,0.3,1.7,0c0.5-0.3,0.5-0.7,0-1c-0.5-0.3-1.2-0.3-1.7,0
		C138.1,175,138.1,175.5,138.6,175.7z"/>
	<path id="XMLID_671_" class="st17" d="M145.3,173.9c0.5,0.3,1.2,0.3,1.7,0c0.5-0.3,0.5-0.7,0-1c-0.5-0.3-1.2-0.3-1.7,0
		C144.8,173.2,144.8,173.7,145.3,173.9z"/>
	<path id="XMLID_670_" class="st17" d="M155.3,170.6c0.5,0.3,1.2,0.3,1.7,0c0.5-0.3,0.5-0.7,0-1c-0.5-0.3-1.2-0.3-1.7,0
		C154.8,169.9,154.8,170.3,155.3,170.6z"/>
	<path id="XMLID_669_" class="st17" d="M165,168.2c0.5,0.3,1.2,0.3,1.7,0c0.5-0.3,0.5-0.7,0-1c-0.5-0.3-1.2-0.3-1.7,0
		C164.5,167.5,164.5,167.9,165,168.2z"/>
	<path id="XMLID_668_" class="st17" d="M170.2,163c0.5,0.3,1.2,0.3,1.7,0c0.5-0.3,0.5-0.7,0-1c-0.5-0.3-1.2-0.3-1.7,0
		C169.8,162.3,169.8,162.7,170.2,163z"/>
	<path id="XMLID_667_" class="st17" d="M176.9,160.1c0.5,0.3,1.2,0.3,1.7,0c0.5-0.3,0.5-0.7,0-1c-0.5-0.3-1.2-0.3-1.7,0
		C176.4,159.4,176.4,159.9,176.9,160.1z"/>
	<path id="XMLID_666_" class="st16" d="M108.8,185.7c0.5,0.3,1.2,0.3,1.7,0c0.5-0.3,0.5-0.7,0-1c-0.5-0.3-1.2-0.3-1.7,0
		C108.3,185,108.3,185.4,108.8,185.7z"/>
	<path id="XMLID_665_" class="st16" d="M119.2,181.2c0.5,0.3,1.2,0.3,1.7,0c0.5-0.3,0.5-0.7,0-1c-0.5-0.3-1.2-0.3-1.7,0
		C118.8,180.5,118.8,180.9,119.2,181.2z"/>
	<path id="XMLID_664_" class="st16" d="M131.4,176.7c0.5,0.3,1.2,0.3,1.7,0c0.5-0.3,0.5-0.7,0-1c-0.5-0.3-1.2-0.3-1.7,0
		C131,176,131,176.4,131.4,176.7z"/>
	<path id="XMLID_663_" class="st16" d="M139.3,169.5c0.5,0.3,1.2,0.3,1.7,0c0.5-0.3,0.5-0.7,0-1c-0.5-0.3-1.2-0.3-1.7,0
		C138.8,168.8,138.8,169.2,139.3,169.5z"/>
	<ellipse id="XMLID_662_" class="st16" cx="153.5" cy="161.6" rx="1.2" ry="0.7"/>
	<path id="XMLID_661_" class="st16" d="M163.1,156.1c0.5,0.3,1.2,0.3,1.7,0c0.5-0.3,0.5-0.7,0-1c-0.5-0.3-1.2-0.3-1.7,0
		C162.7,155.4,162.7,155.8,163.1,156.1z"/>
	<path id="XMLID_660_" class="st17" d="M80,184.4c1.1,0.6,2.8,0.6,3.9,0c1.1-0.6,1.1-1.6,0-2.2c-1.1-0.6-2.8-0.6-3.9,0
		C78.9,182.8,78.9,183.8,80,184.4z"/>
	<polygon id="XMLID_659_" class="st17" points="110.9,167.4 86.4,181.5 87.1,181.9 111.6,167.7 	"/>
	<polygon id="XMLID_658_" class="st12" points="110,166.8 85.4,181 85.8,181.2 110.4,167 	"/>
	<polygon id="XMLID_657_" class="st12" points="109.2,166.4 84.7,180.5 85.1,180.8 109.6,166.6 	"/>
	<polygon id="XMLID_656_" class="st12" points="108.5,165.9 83.9,180.1 84.3,180.3 108.9,166.2 	"/>
	<path id="XMLID_655_" class="st16" d="M118.5,162.2c1.1,0.6,2.8,0.6,3.9,0c1.1-0.6,1.1-1.6,0-2.2c-1.1-0.6-2.8-0.6-3.9,0
		C117.4,160.6,117.4,161.6,118.5,162.2z"/>
	<polygon id="XMLID_654_" class="st16" points="149.5,145.1 124.9,159.3 125.6,159.7 150.2,145.5 	"/>
	<polygon id="XMLID_653_" class="st12" points="148.5,144.5 124,158.7 124.4,159 148.9,144.8 	"/>
	<polygon id="XMLID_652_" class="st12" points="147.8,144.1 123.2,158.3 123.6,158.5 148.2,144.3 	"/>
	<polygon id="XMLID_651_" class="st12" points="147,143.7 122.5,157.8 122.9,158.1 147.4,143.9 	"/>
</g>
<g id="XMLID_573_">
	<path id="XMLID_106_" class="st8" d="M122.4,144.2c0-0.1,0-0.1,0-0.2c0,0,0-0.1,0-0.1c0,0,0,0,0,0c0,0,0,0,0-0.1c0-0.1,0-0.1,0-0.2
		c0-0.1,0-0.1,0-0.2c0,0,0,0,0,0c0,0,0,0,0,0c0-0.1,0-0.1,0-0.2c0-0.1,0-0.1,0-0.2c0,0,0,0,0-0.1c0,0,0,0,0,0c0,0,0-0.1,0-0.1
		c0-0.1,0-0.1-0.1-0.2c0,0,0-0.1,0-0.1c0,0,0,0,0,0c0,0,0,0,0,0c0-0.1,0-0.1-0.1-0.2c0-0.1,0-0.1-0.1-0.2c0,0,0,0,0,0c0,0,0,0,0,0
		c0,0,0-0.1,0-0.1c0-0.1,0-0.1-0.1-0.2c0,0,0-0.1-0.1-0.1c0,0,0,0,0,0c0,0,0,0,0,0c0-0.1-0.1-0.1-0.1-0.2c0-0.1-0.1-0.1-0.1-0.2
		c0,0,0,0,0,0c0,0,0,0,0,0c0-0.1-0.1-0.1-0.1-0.2c0-0.1-0.1-0.1-0.1-0.2c0,0,0-0.1-0.1-0.1c0,0,0,0,0,0c0-0.1-0.1-0.1-0.1-0.2
		c0-0.1-0.1-0.2-0.1-0.2c0,0,0,0,0,0c-0.1-0.1-0.1-0.2-0.2-0.3c0,0,0,0,0,0c0,0,0,0,0,0c-0.1-0.1-0.1-0.1-0.2-0.2
		c0-0.1-0.1-0.1-0.1-0.2c0,0,0,0,0,0c0,0,0,0,0,0c0-0.1-0.1-0.1-0.1-0.2c0-0.1-0.1-0.1-0.1-0.2c0,0,0,0,0,0c0,0,0,0,0,0
		c0,0-0.1-0.1-0.1-0.1c-0.1-0.1-0.1-0.1-0.2-0.2c0,0,0,0,0,0c0,0,0,0,0,0c0,0-0.1,0-0.1-0.1c-0.1,0-0.1-0.1-0.2-0.1c0,0,0,0-0.1-0.1
		c0,0,0,0,0,0c0,0,0,0-0.1,0c-0.1,0-0.1-0.1-0.2-0.1c0,0-0.1-0.1-0.1-0.1c0,0,0,0,0,0c0,0,0,0,0,0c-0.1,0-0.1-0.1-0.2-0.1
		c-0.1,0-0.1-0.1-0.2-0.1c0,0,0,0,0,0c0,0-0.1,0-0.1-0.1c-0.1,0-0.1-0.1-0.2-0.1c0,0-0.1,0-0.1,0c0,0,0,0,0,0c0,0,0,0,0,0
		c0,0-0.1,0-0.1-0.1c0,0-0.1,0-0.1-0.1c0,0,0,0,0,0c0,0,0,0,0,0c0,0-0.1,0-0.1,0c-0.1,0-0.1,0-0.2,0c0,0,0,0-0.1,0c0,0,0,0,0,0
		c0,0,0,0,0,0c-0.1,0-0.1,0-0.2,0c0,0-0.1,0-0.1,0c0,0,0,0,0,0c0,0,0,0,0,0c-0.1,0-0.1,0-0.2,0c0,0,0,0-0.1,0c0,0,0,0-0.1,0
		c0,0,0,0-0.1,0c-0.1,0-0.1,0-0.2,0c0,0,0,0,0,0c0,0,0,0,0,0c-0.1,0-0.1,0-0.2,0.1c0,0,0,0,0,0c-0.1,0-0.2,0.1-0.3,0.1l-7.9,4.6
		c0,0-0.1-0.1-0.1-0.1c0,0,0,0,0,0c0,0,0,0,0,0c-0.1-0.1-0.2-0.1-0.2-0.2c-0.1-0.1-0.2-0.1-0.2-0.1c0,0,0,0-0.1,0
		c-0.1,0-0.1-0.1-0.2-0.1c-0.1,0-0.2-0.1-0.2-0.1c0,0-0.1,0-0.1-0.1c0,0,0,0,0,0c0,0,0,0,0,0c-0.1,0-0.2-0.1-0.2-0.1
		c-0.1,0-0.2-0.1-0.2-0.1c0,0,0,0,0,0c0,0,0,0,0,0c-0.1,0-0.1,0-0.2-0.1c-0.1,0-0.2,0-0.2-0.1c0,0-0.1,0-0.1,0c0,0,0,0,0,0
		c0,0,0,0-0.1,0c-0.1,0-0.2,0-0.2,0c-0.1,0-0.1,0-0.1,0c0,0,0,0-0.1,0c0,0,0,0,0,0c-0.1,0-0.2,0-0.3,0c0,0-0.1,0-0.1,0
		c0,0-0.1,0-0.1,0c0,0-0.1,0-0.1,0c-0.1,0-0.2,0-0.3,0c0,0,0,0,0,0c0,0,0,0-0.1,0c-0.1,0-0.2,0.1-0.3,0.1c0,0,0,0,0,0
		c-0.2,0.1-0.3,0.1-0.4,0.2l-16.8,9.8c0,0-0.1,0-0.1,0c0,0-54.3,23.3-66.1,30.2c-15.4,8.9-3.9,34,13.9,23.3
		c24.7-14.8,60.4-39.7,60.4-39.7l16.7-9.7c0.1-0.1,0.2-0.1,0.3-0.2c0,0,0.1-0.1,0.1-0.1c0.1-0.1,0.1-0.1,0.2-0.2
		c0,0,0.1-0.1,0.1-0.1c0.1-0.1,0.2-0.2,0.2-0.3c0,0,0,0,0,0c0,0,0,0,0,0c0.1-0.1,0.1-0.3,0.2-0.4c0,0,0,0,0,0c0,0,0,0,0,0
		c0-0.1,0.1-0.2,0.1-0.3c0,0,0-0.1,0-0.1c0,0,0-0.1,0-0.1c0,0,0,0,0-0.1c0-0.1,0.1-0.2,0.1-0.3c0,0,0-0.1,0-0.1c0,0,0,0,0-0.1
		c0,0,0-0.1,0-0.1c0-0.1,0-0.2,0-0.3c0-0.1,0-0.1,0-0.2c0,0,0,0,0-0.1c0,0,0,0,0-0.1c0-0.1,0-0.2,0-0.3c0-0.1,0-0.2,0-0.3
		c0,0,0,0,0,0c0-0.1,0-0.1,0-0.2l8.2-4.7c0.1,0,0.1-0.1,0.2-0.1c0,0,0,0,0.1-0.1c0,0,0.1-0.1,0.1-0.1c0,0,0,0,0.1-0.1
		c0.1-0.1,0.1-0.1,0.1-0.2c0,0,0,0,0,0c0,0,0,0,0,0c0.1-0.1,0.1-0.2,0.1-0.3c0,0,0,0,0,0c0,0,0,0,0,0c0-0.1,0.1-0.1,0.1-0.2
		c0,0,0-0.1,0-0.1c0,0,0,0,0-0.1c0,0,0,0,0,0c0-0.1,0-0.1,0-0.2c0,0,0,0,0-0.1c0,0,0,0,0,0c0,0,0,0,0-0.1c0-0.1,0-0.1,0-0.2
		c0,0,0-0.1,0-0.1c0,0,0,0,0,0c0,0,0,0,0,0c0-0.1,0-0.1,0-0.2c0-0.1,0-0.1,0-0.2c0,0,0,0,0,0C122.4,144.3,122.4,144.2,122.4,144.2z"
		/>
	<path id="XMLID_510_" class="st8" d="M229.4,91.6c-8-4.6-17.3-8-27.2-10.1c4.9,1.7,9.5,3.8,13.7,6.3c29.7,17.1,29.8,44.9,0.3,62.1
		c-21.6,12.5-53,15.9-80,10.1c29.3,10.5,68.2,8.4,93.5-6.3C259.2,136.6,259.1,108.8,229.4,91.6z"/>
	<linearGradient id="XMLID_2_" gradientUnits="userSpaceOnUse" x1="93.4455" y1="135.1897" x2="241.7068" y2="135.1897">
		<stop  offset="0" style="stop-color:#858585"/>
		<stop  offset="1" style="stop-color:#6F7273"/>
	</linearGradient>
	<path id="XMLID_102_" class="st19" d="M241.7,105.6c0,0.3,0,0.6,0,0.8c0,0.2,0,0.4,0,0.6c0,0.2,0,0.3,0,0.5c0,0.2,0,0.4-0.1,0.6
		c0,0.2,0,0.3-0.1,0.5c0,0.2,0,0.4-0.1,0.6c0,0.2,0,0.3-0.1,0.5c0,0.2-0.1,0.4-0.1,0.6c0,0.2-0.1,0.3-0.1,0.5c0,0.2-0.1,0.4-0.1,0.6
		c0,0.2-0.1,0.3-0.1,0.5c0,0.2-0.1,0.4-0.2,0.6c0,0.2-0.1,0.3-0.1,0.5c-0.1,0.2-0.1,0.4-0.2,0.6c0,0.1-0.1,0.3-0.1,0.4
		c-0.1,0.2-0.1,0.4-0.2,0.6c0,0.1-0.1,0.3-0.1,0.4c-0.1,0.3-0.2,0.6-0.3,0.9c0,0.1,0,0.1-0.1,0.2c-0.1,0.3-0.3,0.7-0.5,1
		c0,0.1-0.1,0.2-0.2,0.3c-0.1,0.2-0.2,0.5-0.3,0.7c-0.1,0.1-0.1,0.3-0.2,0.4c-0.1,0.2-0.2,0.4-0.3,0.6c-0.1,0.1-0.1,0.2-0.2,0.4
		c-0.1,0.2-0.3,0.5-0.4,0.7c-0.1,0.1-0.2,0.3-0.3,0.4c-0.1,0.2-0.3,0.4-0.4,0.6c-0.1,0.1-0.2,0.3-0.3,0.4c-0.1,0.2-0.3,0.4-0.4,0.6
		c-0.1,0.1-0.2,0.3-0.3,0.4c-0.2,0.2-0.3,0.4-0.5,0.6c-0.1,0.1-0.2,0.2-0.3,0.4c-0.3,0.4-0.6,0.8-0.9,1.1c-0.1,0.1-0.1,0.1-0.2,0.2
		c-0.3,0.3-0.6,0.6-0.8,0.9c-0.1,0.1-0.2,0.2-0.3,0.3c-0.3,0.3-0.5,0.6-0.8,0.8c-0.1,0.1-0.2,0.2-0.3,0.3c-0.4,0.4-0.7,0.7-1.1,1.1
		c-0.1,0.1-0.3,0.3-0.4,0.4c-0.2,0.2-0.4,0.3-0.6,0.5c-0.2,0.1-0.3,0.3-0.5,0.4c-0.2,0.2-0.4,0.3-0.6,0.5c-0.2,0.1-0.3,0.3-0.5,0.4
		c-0.2,0.2-0.4,0.3-0.6,0.5c-0.2,0.1-0.3,0.3-0.5,0.4c-0.2,0.2-0.4,0.3-0.6,0.5c-0.2,0.1-0.4,0.3-0.5,0.4c-0.2,0.2-0.4,0.3-0.6,0.5
		c-0.2,0.1-0.4,0.3-0.6,0.4c-0.2,0.1-0.4,0.3-0.6,0.4c-0.2,0.1-0.4,0.3-0.6,0.4c-0.2,0.1-0.4,0.3-0.7,0.4c-0.2,0.1-0.4,0.3-0.6,0.4
		c-0.2,0.1-0.5,0.3-0.7,0.4c-0.4,0.2-0.7,0.4-1.1,0.7c-0.6,0.3-1.1,0.6-1.7,0.9c-0.2,0.1-0.3,0.2-0.5,0.3c-0.4,0.2-0.9,0.5-1.3,0.7
		c-0.2,0.1-0.3,0.2-0.5,0.2c-0.6,0.3-1.2,0.6-1.8,0.9c-0.1,0-0.2,0.1-0.3,0.1c-0.5,0.2-1,0.5-1.5,0.7c-0.2,0.1-0.4,0.2-0.5,0.2
		c-0.5,0.2-1,0.4-1.5,0.6c-0.1,0.1-0.2,0.1-0.4,0.2c-0.6,0.3-1.2,0.5-1.9,0.7c-0.2,0.1-0.3,0.1-0.5,0.2c-0.5,0.2-1,0.4-1.5,0.5
		c-0.2,0.1-0.4,0.1-0.6,0.2c-0.6,0.2-1.2,0.4-1.8,0.6c0,0-0.1,0-0.1,0c-0.5,0.2-1.1,0.4-1.7,0.5c-0.1,0-0.2,0.1-0.4,0.1
		c-0.4,0.1-0.9,0.3-1.3,0.4c-0.2,0.1-0.4,0.1-0.6,0.2c-0.4,0.1-0.7,0.2-1.1,0.3c-0.2,0.1-0.5,0.1-0.7,0.2c-0.3,0.1-0.7,0.2-1,0.3
		c-0.2,0.1-0.5,0.1-0.7,0.2c-0.3,0.1-0.7,0.2-1,0.2c-0.3,0.1-0.5,0.1-0.8,0.2c-0.3,0.1-0.6,0.1-1,0.2c-0.3,0.1-0.5,0.1-0.8,0.2
		c-0.3,0.1-0.6,0.1-1,0.2c-0.3,0.1-0.5,0.1-0.8,0.2c-0.3,0.1-0.6,0.1-1,0.2c-0.2,0-0.5,0.1-0.7,0.1c-0.5,0.1-1.1,0.2-1.6,0.3
		c-0.2,0-0.3,0.1-0.5,0.1c-0.7,0.1-1.4,0.2-2.1,0.3c-0.2,0-0.3,0-0.5,0.1c-0.6,0.1-1.1,0.2-1.7,0.2c-0.2,0-0.4,0.1-0.6,0.1
		c-0.6,0.1-1.2,0.1-1.8,0.2c-0.1,0-0.3,0-0.4,0c-0.6,0.1-1.3,0.1-1.9,0.2c-0.1,0-0.2,0-0.3,0c-0.5,0-1.1,0.1-1.6,0.1
		c-0.2,0-0.4,0-0.7,0c-0.4,0-0.8,0.1-1.3,0.1c-0.2,0-0.5,0-0.7,0c-0.4,0-0.8,0-1.2,0.1c-0.3,0-0.5,0-0.8,0c-0.3,0-0.7,0-1,0
		c-0.3,0-0.6,0-0.8,0c-0.3,0-0.7,0-1,0c-0.3,0-0.5,0-0.8,0c-0.3,0-0.7,0-1,0c-0.3,0-0.5,0-0.8,0c-0.4,0-0.7,0-1.1,0
		c-0.3,0-0.5,0-0.8,0c-0.3,0-0.7,0-1,0c-0.3,0-0.6,0-0.8,0c-0.3,0-0.7,0-1,0c-0.3,0-0.5,0-0.8,0c-0.3,0-0.7,0-1-0.1
		c-0.3,0-0.5,0-0.8,0c-0.3,0-0.7-0.1-1-0.1c-0.3,0-0.5,0-0.8-0.1c-0.4,0-0.7-0.1-1.1-0.1c-0.2,0-0.5,0-0.7-0.1
		c-0.4,0-0.8-0.1-1.2-0.1c-0.2,0-0.4,0-0.6-0.1c-0.6-0.1-1.2-0.1-1.8-0.2c-0.1,0-0.1,0-0.2,0c-0.5-0.1-1-0.1-1.6-0.2
		c-0.1,0-0.3,0-0.4-0.1c-0.5-0.1-0.9-0.1-1.4-0.2c-0.2,0-0.4-0.1-0.7-0.1c-0.4-0.1-0.7-0.1-1.1-0.2c-0.2,0-0.5-0.1-0.7-0.1
		c-0.3-0.1-0.7-0.1-1-0.2c-0.3,0-0.5-0.1-0.8-0.1c-0.3-0.1-0.7-0.1-1-0.2c-0.2,0-0.5-0.1-0.7-0.2c-0.4-0.1-0.8-0.2-1.2-0.2
		c-0.2-0.1-0.5-0.1-0.7-0.2c-0.4-0.1-0.8-0.2-1.1-0.3c-0.2-0.1-0.5-0.1-0.7-0.2c-0.4-0.1-0.8-0.2-1.2-0.3c-0.2-0.1-0.4-0.1-0.6-0.2
		c-0.5-0.1-1-0.3-1.4-0.4c-0.1,0-0.2-0.1-0.3-0.1c-0.7-0.2-1.4-0.4-2-0.6c-0.2-0.1-0.4-0.1-0.5-0.2c-0.5-0.2-1.1-0.3-1.6-0.5
		c-0.1,0-0.3-0.1-0.4-0.1c-0.7-0.2-1.3-0.5-2-0.7c-0.1-0.1-0.3-0.1-0.4-0.2c-0.5-0.2-1.1-0.4-1.6-0.6c-0.2-0.1-0.4-0.2-0.6-0.2
		c-0.2-0.1-0.4-0.2-0.6-0.3c-0.3-0.1-0.5-0.2-0.8-0.3c-0.2-0.1-0.4-0.2-0.6-0.3c-0.3-0.1-0.5-0.2-0.8-0.4c-0.2-0.1-0.4-0.2-0.6-0.3
		c-0.3-0.1-0.5-0.2-0.8-0.4c-0.2-0.1-0.4-0.2-0.6-0.3c-0.3-0.1-0.5-0.3-0.8-0.4c-0.2-0.1-0.4-0.2-0.6-0.3c-0.3-0.1-0.6-0.3-0.8-0.4
		c-0.2-0.1-0.4-0.2-0.5-0.3c-0.3-0.2-0.6-0.3-0.9-0.5c-0.1-0.1-0.3-0.2-0.4-0.2c-0.4-0.2-0.9-0.5-1.3-0.7
		c-14.6-8.4-21.9-19.5-21.9-30.6l0,16.9c0,11.1,7.3,22.1,21.9,30.6c0.4,0.3,0.9,0.5,1.3,0.7c0.1,0.1,0.3,0.2,0.4,0.2
		c0.3,0.2,0.6,0.3,0.9,0.5c0.2,0.1,0.4,0.2,0.5,0.3c0.3,0.1,0.6,0.3,0.8,0.4c0.2,0.1,0.4,0.2,0.6,0.3c0.3,0.1,0.5,0.3,0.8,0.4
		c0.2,0.1,0.4,0.2,0.6,0.3c0.3,0.1,0.5,0.2,0.8,0.4c0.2,0.1,0.4,0.2,0.6,0.3c0.3,0.1,0.5,0.2,0.8,0.4c0.2,0.1,0.4,0.2,0.6,0.3
		c0.3,0.1,0.5,0.2,0.8,0.3c0.2,0.1,0.4,0.2,0.6,0.3c0.1,0,0.2,0.1,0.3,0.1c0.1,0,0.2,0.1,0.3,0.1c0.5,0.2,1.1,0.4,1.6,0.6
		c0.1,0.1,0.3,0.1,0.4,0.2c0.7,0.2,1.3,0.5,2,0.7c0.1,0.1,0.3,0.1,0.4,0.1c0.5,0.2,1.1,0.4,1.6,0.5c0.2,0.1,0.4,0.1,0.5,0.2
		c0.7,0.2,1.4,0.4,2,0.6c0,0,0,0,0,0c0.1,0,0.2,0.1,0.3,0.1c0.5,0.1,1,0.3,1.4,0.4c0.2,0.1,0.4,0.1,0.6,0.2c0.4,0.1,0.8,0.2,1.2,0.3
		c0.2,0.1,0.5,0.1,0.7,0.2c0.4,0.1,0.8,0.2,1.1,0.3c0.2,0.1,0.5,0.1,0.7,0.2c0.4,0.1,0.8,0.2,1.2,0.3c0.2,0,0.3,0.1,0.5,0.1
		c0.1,0,0.2,0,0.3,0c0.3,0.1,0.7,0.1,1,0.2c0.3,0,0.5,0.1,0.8,0.1c0.3,0.1,0.7,0.1,1,0.2c0.2,0,0.5,0.1,0.7,0.1
		c0.4,0.1,0.7,0.1,1.1,0.2c0.2,0,0.4,0.1,0.7,0.1c0.5,0.1,0.9,0.1,1.4,0.2c0.1,0,0.3,0,0.4,0.1c0,0,0,0,0,0c0.5,0.1,1,0.1,1.6,0.2
		c0.1,0,0.1,0,0.2,0c0.6,0.1,1.2,0.1,1.8,0.2c0.2,0,0.4,0,0.6,0.1c0.4,0,0.8,0.1,1.2,0.1c0.2,0,0.5,0,0.7,0.1c0.4,0,0.7,0.1,1.1,0.1
		c0,0,0,0,0.1,0c0.2,0,0.5,0,0.7,0.1c0.3,0,0.7,0.1,1,0.1c0.3,0,0.5,0,0.8,0c0.3,0,0.7,0,1,0.1c0.3,0,0.5,0,0.8,0c0.3,0,0.7,0,1,0
		c0.3,0,0.6,0,0.8,0c0.3,0,0.7,0,1,0c0.1,0,0.1,0,0.2,0c0.2,0,0.4,0,0.6,0c0.4,0,0.7,0,1.1,0c0.3,0,0.5,0,0.8,0c0.3,0,0.7,0,1,0
		c0.3,0,0.5,0,0.8,0c0.3,0,0.7,0,1,0c0.3,0,0.6,0,0.8,0c0.3,0,0.7,0,1,0c0.1,0,0.3,0,0.4,0c0.1,0,0.3,0,0.4,0c0.4,0,0.8,0,1.2-0.1
		c0.2,0,0.5,0,0.7,0c0.4,0,0.8,0,1.3-0.1c0.2,0,0.4,0,0.7,0c0.5,0,1.1-0.1,1.6-0.1c0.1,0,0.2,0,0.3,0c0.6-0.1,1.3-0.1,1.9-0.2
		c0,0,0.1,0,0.1,0c0.1,0,0.2,0,0.3,0c0.6-0.1,1.2-0.1,1.8-0.2c0.2,0,0.4-0.1,0.6-0.1c0.6-0.1,1.1-0.1,1.7-0.2c0.2,0,0.3,0,0.5-0.1
		c0.7-0.1,1.4-0.2,2.1-0.3c0.2,0,0.3-0.1,0.5-0.1c0.5-0.1,1.1-0.2,1.6-0.3c0.1,0,0.2,0,0.3-0.1c0.1,0,0.2,0,0.4-0.1
		c0.3-0.1,0.6-0.1,1-0.2c0.3-0.1,0.5-0.1,0.8-0.2c0.3-0.1,0.6-0.1,1-0.2c0.3-0.1,0.5-0.1,0.8-0.2c0.3-0.1,0.6-0.1,1-0.2
		c0.3-0.1,0.5-0.1,0.8-0.2c0.3-0.1,0.6-0.2,1-0.2c0.2-0.1,0.5-0.1,0.7-0.2c0.3-0.1,0.7-0.2,1-0.3c0.2-0.1,0.5-0.1,0.7-0.2
		c0.4-0.1,0.7-0.2,1.1-0.3c0.2-0.1,0.4-0.1,0.6-0.2c0.4-0.1,0.9-0.2,1.3-0.4c0.1,0,0.3-0.1,0.4-0.1c0.6-0.2,1.1-0.3,1.6-0.5
		c0,0,0,0,0,0c0,0,0.1,0,0.1,0c0.6-0.2,1.2-0.4,1.8-0.6c0.2-0.1,0.4-0.1,0.6-0.2c0.5-0.2,1-0.4,1.5-0.5c0.2-0.1,0.3-0.1,0.5-0.2
		c0.6-0.2,1.2-0.5,1.9-0.7c0.1-0.1,0.2-0.1,0.4-0.2c0.5-0.2,1-0.4,1.5-0.6c0.2-0.1,0.4-0.2,0.5-0.2c0.5-0.2,1-0.5,1.5-0.7
		c0.1,0,0.2-0.1,0.3-0.1c0.6-0.3,1.2-0.6,1.8-0.9c0.2-0.1,0.3-0.2,0.5-0.2c0.4-0.2,0.9-0.5,1.3-0.7c0.2-0.1,0.3-0.2,0.5-0.3
		c0.6-0.3,1.1-0.6,1.7-0.9c0.3-0.2,0.6-0.4,0.9-0.5c0.1,0,0.1-0.1,0.2-0.1c0.2-0.1,0.5-0.3,0.7-0.4c0.2-0.1,0.4-0.3,0.6-0.4
		c0.2-0.1,0.4-0.3,0.7-0.4c0.2-0.1,0.4-0.3,0.6-0.4c0.2-0.1,0.4-0.3,0.6-0.4c0.2-0.1,0.4-0.3,0.6-0.4c0.2-0.1,0.4-0.3,0.6-0.5
		c0.2-0.1,0.4-0.3,0.5-0.4c0.2-0.2,0.4-0.3,0.6-0.5c0.2-0.1,0.4-0.3,0.5-0.4c0.2-0.2,0.4-0.3,0.6-0.5c0.2-0.1,0.3-0.3,0.5-0.4
		c0.2-0.2,0.4-0.3,0.6-0.5c0.2-0.1,0.3-0.3,0.5-0.4c0.2-0.2,0.4-0.3,0.6-0.5c0.1-0.1,0.3-0.2,0.4-0.4c0,0,0,0,0,0
		c0.4-0.4,0.8-0.7,1.1-1.1c0.1-0.1,0.2-0.2,0.3-0.3c0.3-0.3,0.5-0.6,0.8-0.8c0.1-0.1,0.2-0.2,0.3-0.3c0.3-0.3,0.6-0.6,0.8-0.9
		c0.1-0.1,0.1-0.1,0.2-0.2c0.3-0.4,0.6-0.8,0.9-1.1c0,0,0.1-0.1,0.1-0.1c0.1-0.1,0.1-0.2,0.2-0.3c0.2-0.2,0.3-0.4,0.5-0.6
		c0.1-0.1,0.2-0.3,0.3-0.4c0.2-0.2,0.3-0.4,0.4-0.6c0.1-0.1,0.2-0.3,0.3-0.4c0.1-0.2,0.3-0.4,0.4-0.6c0.1-0.1,0.2-0.3,0.3-0.4
		c0.1-0.2,0.3-0.5,0.4-0.7c0.1-0.1,0.1-0.2,0.2-0.3c0,0,0-0.1,0-0.1c0.1-0.2,0.2-0.4,0.3-0.6c0.1-0.1,0.1-0.3,0.2-0.4
		c0.1-0.2,0.2-0.5,0.3-0.7c0-0.1,0.1-0.2,0.2-0.3c0.2-0.3,0.3-0.7,0.5-1c0-0.1,0-0.1,0.1-0.2c0.1-0.3,0.2-0.6,0.3-0.9c0,0,0,0,0,0
		c0-0.1,0.1-0.3,0.1-0.4c0.1-0.2,0.1-0.4,0.2-0.6c0-0.1,0.1-0.3,0.1-0.4c0.1-0.2,0.1-0.4,0.2-0.6c0-0.2,0.1-0.3,0.1-0.5
		c0.1-0.2,0.1-0.4,0.2-0.6c0-0.2,0.1-0.3,0.1-0.5c0-0.2,0.1-0.4,0.1-0.6c0,0,0-0.1,0-0.1c0-0.1,0-0.2,0.1-0.4c0-0.2,0.1-0.4,0.1-0.6
		c0-0.2,0-0.3,0.1-0.5c0-0.2,0.1-0.4,0.1-0.6c0-0.2,0-0.3,0.1-0.5c0-0.2,0-0.4,0.1-0.6c0-0.2,0-0.3,0-0.5c0-0.2,0-0.4,0-0.6
		c0-0.1,0-0.1,0-0.2c0-0.2,0-0.4,0-0.7v0L241.7,105.6z"/>
	<path id="XMLID_285_" class="st20" d="M227.7,105.2c0-0.2,0-0.4,0-0.6c0-0.1,0-0.2,0-0.2c0-0.2,0-0.4,0-0.6c0-0.1,0-0.1,0-0.2
		c0-0.2,0-0.5-0.1-0.7c0-0.1,0-0.2,0-0.2c0-0.2,0-0.3-0.1-0.5c0-0.1,0-0.2,0-0.3c0-0.2-0.1-0.3-0.1-0.5c0-0.1,0-0.2,0-0.2
		c-0.1-0.2-0.1-0.5-0.2-0.7c0-0.1,0-0.2-0.1-0.3c0-0.2-0.1-0.3-0.1-0.5c0-0.1-0.1-0.2-0.1-0.3c0-0.1-0.1-0.3-0.1-0.4
		c0-0.1-0.1-0.2-0.1-0.3c-0.1-0.2-0.2-0.4-0.2-0.7c0-0.1-0.1-0.2-0.1-0.3c-0.1-0.1-0.1-0.3-0.2-0.4c-0.1-0.1-0.1-0.2-0.2-0.4
		c-0.1-0.1-0.1-0.2-0.2-0.4c-0.1-0.1-0.1-0.2-0.2-0.4c-0.1-0.1-0.1-0.3-0.2-0.4c0-0.1-0.1-0.2-0.1-0.2v0c0,0,0,0,0,0
		c0-0.1-0.1-0.1-0.1-0.1c-0.1-0.2-0.3-0.5-0.4-0.7c-0.1-0.1-0.1-0.2-0.2-0.3c0,0,0,0,0,0c-0.1-0.2-0.2-0.4-0.4-0.6
		c0-0.1-0.1-0.1-0.1-0.2c0-0.1-0.1-0.1-0.1-0.2c-0.1-0.2-0.3-0.4-0.4-0.6c-0.1-0.1-0.1-0.2-0.2-0.3c-0.2-0.3-0.4-0.5-0.6-0.8
		c0,0,0,0,0,0c0-0.1-0.1-0.1-0.1-0.2c-0.2-0.2-0.4-0.5-0.6-0.7c-0.1-0.1-0.2-0.2-0.2-0.3c-0.2-0.2-0.3-0.4-0.5-0.6
		c0-0.1-0.1-0.1-0.1-0.2c0-0.1-0.1-0.1-0.1-0.2c-0.2-0.2-0.4-0.4-0.6-0.6c-0.1-0.1-0.2-0.2-0.3-0.3c-0.3-0.3-0.5-0.5-0.8-0.8
		c0,0,0,0,0,0c0,0-0.1-0.1-0.1-0.1c-0.3-0.2-0.5-0.5-0.8-0.7c-0.1-0.1-0.2-0.2-0.3-0.3c-0.2-0.2-0.4-0.4-0.6-0.6
		c-0.1-0.1-0.1-0.1-0.2-0.2c-0.1,0-0.1-0.1-0.2-0.1c-0.2-0.2-0.5-0.4-0.7-0.6c0,0,0,0,0,0c-0.1-0.1-0.2-0.2-0.3-0.3
		c-0.3-0.3-0.7-0.5-1-0.8c0,0,0,0,0,0c0,0-0.1,0-0.1-0.1c-0.3-0.2-0.7-0.5-1-0.7c-0.1-0.1-0.2-0.2-0.4-0.2c-0.3-0.2-0.5-0.4-0.8-0.5
		c-0.1-0.1-0.2-0.2-0.4-0.2c0,0,0,0-0.1,0c-0.3-0.2-0.6-0.4-0.8-0.5c-0.1,0-0.2-0.1-0.2-0.1c-0.1,0-0.1-0.1-0.2-0.1
		c-0.4-0.2-0.8-0.5-1.2-0.7c-0.6-0.4-1.3-0.7-1.9-1.1c-0.1,0-0.1-0.1-0.2-0.1c-0.6-0.3-1.3-0.6-1.9-1c0,0,0,0-0.1,0
		c-0.1,0-0.1-0.1-0.2-0.1c-0.6-0.3-1.3-0.6-1.9-0.9c-0.1,0-0.1-0.1-0.2-0.1c0,0-0.1,0-0.1-0.1c-0.6-0.3-1.3-0.6-2-0.8c0,0,0,0,0,0
		c-0.1-0.1-0.3-0.1-0.4-0.2l0,0c-0.4-0.2-0.9-0.3-1.3-0.5c-0.1,0-0.2-0.1-0.3-0.1c-0.5-0.2-1.1-0.4-1.6-0.6c-0.1,0-0.2-0.1-0.4-0.1
		c-0.4-0.1-0.9-0.3-1.3-0.4c0,0,0,0-0.1,0c-0.1,0-0.3-0.1-0.4-0.1c-0.5-0.2-1.1-0.3-1.7-0.5c-0.1,0-0.2,0-0.3-0.1c0,0,0,0,0,0
		c-0.4-0.1-0.8-0.2-1.2-0.3c-0.1,0-0.2-0.1-0.3-0.1c-0.1,0-0.1,0-0.2,0c-0.3-0.1-0.6-0.2-1-0.2c-0.2,0-0.4-0.1-0.6-0.1
		c-0.3-0.1-0.6-0.1-0.9-0.2c-0.2,0-0.4-0.1-0.6-0.1c-0.3-0.1-0.6-0.1-0.9-0.2l0,0c-0.2,0-0.4-0.1-0.6-0.1c0,0,0,0,0,0
		c-0.3-0.1-0.5-0.1-0.8-0.2c-0.1,0-0.1,0-0.2,0c-0.1,0-0.3-0.1-0.4-0.1c-0.3-0.1-0.6-0.1-0.8-0.2c-0.2,0-0.4-0.1-0.6-0.1
		c-0.3-0.1-0.6-0.1-0.9-0.2c-0.2,0-0.4-0.1-0.5-0.1c-0.4-0.1-0.7-0.1-1.1-0.2c0,0,0,0,0,0c-0.1,0-0.2,0-0.3,0
		c-0.4-0.1-0.9-0.1-1.3-0.2c0,0-0.1,0-0.1,0c-0.5-0.1-1-0.1-1.4-0.2c0,0-0.1,0-0.1,0c-0.1,0-0.2,0-0.4,0c-0.3,0-0.6-0.1-1-0.1
		c-0.2,0-0.4,0-0.6-0.1c-0.3,0-0.6-0.1-0.9-0.1c-0.2,0-0.4,0-0.6,0c0,0,0,0,0,0c-0.3,0-0.6,0-0.9-0.1c0,0-0.1,0-0.1,0
		c-0.2,0-0.4,0-0.6,0c-0.3,0-0.5,0-0.8,0c0,0-0.1,0-0.1,0c-0.2,0-0.4,0-0.5,0c-0.3,0-0.5,0-0.8,0c-0.1,0-0.1,0-0.2,0
		c-0.2,0-0.3,0-0.5,0c-0.3,0-0.5,0-0.8,0l0,0c-0.2,0-0.4,0-0.6,0c-0.3,0-0.6,0-0.9,0c-0.2,0-0.4,0-0.6,0c0,0,0,0,0,0
		c-0.3,0-0.6,0-0.8,0c-0.2,0-0.4,0-0.6,0c0,0-0.1,0-0.1,0c-0.3,0-0.6,0-0.8,0c-0.2,0-0.4,0-0.7,0c-0.3,0-0.5,0-0.8,0l0,0
		c-0.2,0-0.4,0-0.6,0c-0.3,0-0.6,0-1,0c-0.2,0-0.4,0-0.6,0c-0.3,0-0.7,0-1,0.1c-0.1,0-0.1,0-0.2,0c-0.1,0-0.3,0-0.4,0
		c-0.4,0-0.9,0.1-1.3,0.1c-0.1,0-0.2,0-0.3,0c-0.5,0-1,0.1-1.6,0.1l0,0c-0.1,0-0.2,0-0.3,0c-0.5,0-1,0.1-1.4,0.2c0,0,0,0-0.1,0
		c-0.2,0-0.3,0-0.5,0.1c-0.5,0.1-0.9,0.1-1.4,0.2c0,0-0.1,0-0.1,0c-0.1,0-0.2,0-0.2,0c-0.6,0.1-1.1,0.2-1.7,0.3
		c-0.1,0-0.3,0-0.4,0.1c-0.4,0.1-0.9,0.1-1.3,0.2c0,0,0,0,0,0c-0.2,0-0.4,0.1-0.6,0.1c0,0,0,0,0,0c-0.3,0-0.5,0.1-0.8,0.1
		c0,0-0.1,0-0.1,0c-0.2,0-0.4,0.1-0.6,0.1c-0.3,0.1-0.5,0.1-0.8,0.2c-0.1,0-0.2,0-0.2,0.1c-0.1,0-0.3,0.1-0.4,0.1
		c-0.3,0.1-0.5,0.1-0.8,0.2c0,0-0.1,0-0.1,0c-0.2,0-0.3,0.1-0.5,0.1c-0.3,0.1-0.5,0.1-0.8,0.2c-0.1,0-0.2,0.1-0.4,0.1
		c-0.1,0-0.2,0-0.3,0.1c-0.3,0.1-0.5,0.1-0.8,0.2c0,0-0.1,0-0.1,0c-0.2,0-0.3,0.1-0.5,0.1c-0.3,0.1-0.6,0.2-0.8,0.2
		c-0.2,0-0.3,0.1-0.5,0.1c-0.3,0.1-0.7,0.2-1,0.3c-0.1,0-0.2,0.1-0.3,0.1c0,0,0,0,0,0c-0.4,0.1-0.9,0.3-1.3,0.4c0,0-0.1,0-0.1,0
		c-0.5,0.2-1,0.3-1.5,0.5c-0.2,0.1-0.3,0.1-0.5,0.2c-0.4,0.1-0.8,0.3-1.2,0.4c-0.1,0-0.3,0.1-0.4,0.1c-0.5,0.2-1,0.4-1.5,0.6
		c-0.1,0-0.2,0.1-0.3,0.1c-0.4,0.2-0.8,0.3-1.2,0.5c-0.1,0.1-0.3,0.1-0.4,0.2c-0.4,0.2-0.8,0.4-1.2,0.6c-0.1,0-0.2,0.1-0.3,0.1
		c-0.5,0.2-1,0.5-1.4,0.7c-0.1,0.1-0.2,0.1-0.4,0.2c-0.4,0.2-0.7,0.4-1.1,0.6c-0.1,0.1-0.3,0.1-0.4,0.2c-0.5,0.3-0.9,0.5-1.4,0.8
		c-0.3,0.2-0.6,0.4-0.9,0.5c-0.2,0.1-0.3,0.2-0.5,0.3c0,0,0,0-0.1,0c-0.1,0.1-0.2,0.1-0.3,0.2c-0.4,0.3-0.8,0.5-1.2,0.8
		c-0.1,0.1-0.2,0.1-0.3,0.2c-0.4,0.2-0.7,0.5-1.1,0.7c0,0-0.1,0.1-0.1,0.1c-0.1,0.1-0.2,0.1-0.2,0.2c-0.4,0.3-0.8,0.6-1.1,0.9
		c-0.1,0.1-0.2,0.1-0.2,0.2c-0.3,0.3-0.6,0.5-1,0.8c0,0-0.1,0.1-0.1,0.1c-0.1,0-0.1,0.1-0.2,0.1c-0.3,0.2-0.6,0.5-0.8,0.7
		c-0.1,0.1-0.1,0.1-0.2,0.2c-0.3,0.2-0.5,0.5-0.8,0.8c-0.1,0.1-0.2,0.2-0.3,0.3c-0.1,0.1-0.2,0.2-0.3,0.3c-0.2,0.2-0.4,0.4-0.6,0.7
		l0,0c0,0,0,0-0.1,0.1c0,0-0.1,0.1-0.1,0.1c0,0,0,0,0,0c-0.2,0.2-0.4,0.5-0.6,0.7c0,0-0.1,0.1-0.1,0.1c-0.2,0.3-0.5,0.5-0.7,0.8
		c-0.1,0.1-0.1,0.2-0.2,0.3c-0.1,0.2-0.3,0.4-0.4,0.6c0,0.1-0.1,0.1-0.1,0.2c-0.1,0.2-0.2,0.3-0.3,0.5c0,0.1-0.1,0.1-0.1,0.2
		c-0.1,0.1-0.2,0.2-0.2,0.4c-0.1,0.2-0.2,0.3-0.3,0.5c-0.1,0.2-0.2,0.3-0.3,0.5c-0.1,0.1-0.1,0.2-0.2,0.4c0,0,0,0,0,0
		c-0.1,0.1-0.1,0.2-0.2,0.3c-0.1,0.1-0.2,0.3-0.2,0.4c0,0.1-0.1,0.1-0.1,0.2c-3.1,6-3.4,12.4-0.8,18.5c0,0,0-0.1,0-0.1
		c0-0.1,0.1-0.2,0.2-0.3c0.1-0.2,0.2-0.5,0.3-0.7c0-0.1,0.1-0.2,0.1-0.3c0.1-0.1,0.1-0.3,0.2-0.4c0.1-0.1,0.2-0.3,0.2-0.4
		c0.1-0.1,0.1-0.2,0.2-0.3c0.1-0.2,0.2-0.4,0.3-0.5c0.1-0.1,0.1-0.2,0.2-0.3c0.1-0.2,0.2-0.4,0.3-0.5c0.1-0.1,0.1-0.2,0.2-0.3
		c0.1-0.2,0.2-0.4,0.4-0.5c0.1-0.1,0.2-0.2,0.2-0.3c0.1-0.2,0.3-0.4,0.4-0.6c0.1-0.1,0.1-0.2,0.2-0.3c0.1-0.1,0.2-0.2,0.3-0.3
		c0.2-0.2,0.3-0.4,0.5-0.6c0.3-0.3,0.5-0.6,0.8-0.9c0,0,0,0,0,0c0.2-0.2,0.4-0.4,0.6-0.7c0.1-0.1,0.2-0.2,0.3-0.3
		c0.1-0.1,0.1-0.1,0.2-0.2c0.2-0.2,0.5-0.4,0.7-0.7c0.1-0.1,0.2-0.2,0.2-0.2c0,0,0,0,0.1-0.1c0.3-0.3,0.7-0.6,1.1-0.9
		c0.1-0.1,0.2-0.2,0.3-0.2c0.3-0.3,0.6-0.5,1-0.8c0.1-0.1,0.2-0.1,0.2-0.2c0.4-0.3,0.8-0.6,1.2-0.9c0.1-0.1,0.2-0.1,0.3-0.2
		c0.3-0.2,0.7-0.5,1.1-0.7c0.1-0.1,0.2-0.1,0.3-0.2c0.4-0.3,0.9-0.6,1.3-0.9c0.1-0.1,0.2-0.1,0.3-0.2c0.5-0.3,0.9-0.6,1.4-0.8
		c0.4-0.3,0.9-0.5,1.4-0.8c0.1-0.1,0.3-0.1,0.4-0.2c0.4-0.2,0.7-0.4,1.1-0.6c0.1-0.1,0.2-0.1,0.4-0.2c0.5-0.2,0.9-0.5,1.4-0.7
		c0.1,0,0.2-0.1,0.3-0.1c0.4-0.2,0.8-0.4,1.2-0.6c0.1-0.1,0.3-0.1,0.4-0.2c0.4-0.2,0.8-0.3,1.2-0.5c0.1,0,0.2-0.1,0.3-0.1
		c0.5-0.2,1-0.4,1.5-0.6c0.1,0,0.3-0.1,0.4-0.1c0.4-0.1,0.8-0.3,1.2-0.4c0.2-0.1,0.3-0.1,0.5-0.2c0.5-0.2,1-0.3,1.5-0.5
		c0,0,0.1,0,0.1,0c0.4-0.1,0.9-0.3,1.3-0.4c0.1,0,0.2-0.1,0.3-0.1c0.3-0.1,0.7-0.2,1-0.3c0.2,0,0.3-0.1,0.5-0.1
		c0.3-0.1,0.6-0.2,0.9-0.2c0.2-0.1,0.4-0.1,0.6-0.1c0.3-0.1,0.5-0.1,0.8-0.2c0.2-0.1,0.4-0.1,0.6-0.1c0.3-0.1,0.5-0.1,0.8-0.2
		c0.2,0,0.4-0.1,0.6-0.1c0.3-0.1,0.5-0.1,0.8-0.2c0.2,0,0.4-0.1,0.6-0.1c0.3-0.1,0.5-0.1,0.8-0.2c0.2,0,0.4-0.1,0.7-0.1
		c0.3,0,0.5-0.1,0.8-0.1c0.2,0,0.4-0.1,0.6-0.1c0.4-0.1,0.9-0.2,1.3-0.2c0.1,0,0.3,0,0.4-0.1c0.6-0.1,1.1-0.2,1.7-0.3
		c0.1,0,0.2,0,0.4,0c0.5-0.1,0.9-0.1,1.4-0.2c0.2,0,0.3,0,0.5-0.1c0.5-0.1,1-0.1,1.4-0.2c0.1,0,0.2,0,0.3,0c0.5-0.1,1-0.1,1.6-0.1
		c0.1,0,0.2,0,0.3,0c0.4,0,0.9-0.1,1.3-0.1c0.2,0,0.4,0,0.5,0c0.3,0,0.7,0,1-0.1c0.2,0,0.4,0,0.6,0c0.3,0,0.6,0,1,0
		c0.2,0,0.4,0,0.6,0c0.3,0,0.5,0,0.8,0c0.2,0,0.4,0,0.7,0c0.3,0,0.6,0,0.8,0c0.2,0,0.4,0,0.7,0c0.3,0,0.6,0,0.8,0c0.2,0,0.4,0,0.7,0
		c0.3,0,0.6,0,0.9,0c0.2,0,0.4,0,0.6,0c0.3,0,0.5,0,0.8,0c0.2,0,0.4,0,0.7,0c0.3,0,0.5,0,0.8,0c0.2,0,0.4,0,0.7,0c0.3,0,0.5,0,0.8,0
		c0.2,0,0.4,0,0.6,0c0.3,0,0.6,0,0.8,0.1c0.2,0,0.4,0,0.6,0c0.3,0,0.6,0.1,0.9,0.1c0.2,0,0.4,0,0.6,0.1c0.3,0,0.7,0.1,1,0.1
		c0.2,0,0.3,0,0.5,0c0.5,0.1,1,0.1,1.4,0.2c0,0,0.1,0,0.1,0c0.4,0.1,0.9,0.1,1.3,0.2c0.1,0,0.2,0,0.4,0.1c0.4,0.1,0.7,0.1,1.1,0.2
		c0.2,0,0.4,0.1,0.5,0.1c0.3,0,0.6,0.1,0.9,0.2c0.2,0,0.4,0.1,0.6,0.1c0.3,0.1,0.6,0.1,0.8,0.2c0.2,0,0.4,0.1,0.6,0.1
		c0.3,0.1,0.5,0.1,0.8,0.2c0.2,0,0.4,0.1,0.6,0.1c0.3,0.1,0.6,0.1,0.9,0.2c0.2,0,0.4,0.1,0.6,0.1c0.3,0.1,0.6,0.1,0.9,0.2
		c0.2,0,0.4,0.1,0.6,0.1c0.3,0.1,0.6,0.2,0.9,0.2c0.2,0,0.3,0.1,0.5,0.1c0.4,0.1,0.8,0.2,1.2,0.3c0.1,0,0.2,0.1,0.3,0.1
		c0.6,0.2,1.1,0.3,1.7,0.5c0.1,0,0.3,0.1,0.4,0.1c0.4,0.1,0.9,0.3,1.3,0.4c0.1,0,0.2,0.1,0.4,0.1c0.5,0.2,1.1,0.4,1.6,0.6
		c0.1,0,0.2,0.1,0.4,0.1c0.4,0.2,0.9,0.3,1.3,0.5c0.1,0.1,0.3,0.1,0.4,0.2c0.7,0.3,1.3,0.5,2,0.8c0.1,0,0.2,0.1,0.3,0.1
		c0.6,0.3,1.3,0.6,1.9,0.9c0.1,0,0.2,0.1,0.3,0.1c0.6,0.3,1.3,0.6,1.9,1c0.1,0,0.1,0.1,0.2,0.1c0.7,0.3,1.3,0.7,1.9,1.1
		c0.4,0.2,0.8,0.5,1.2,0.7c0.1,0.1,0.3,0.2,0.4,0.2c0.3,0.2,0.6,0.4,0.8,0.5c0.1,0.1,0.3,0.2,0.4,0.3c0.3,0.2,0.5,0.4,0.8,0.5
		c0.1,0.1,0.2,0.2,0.4,0.2c0.3,0.2,0.7,0.5,1,0.7c0,0,0.1,0,0.1,0.1c0.4,0.3,0.7,0.5,1,0.8c0.1,0.1,0.2,0.2,0.3,0.2
		c0.2,0.2,0.5,0.4,0.7,0.6c0.1,0.1,0.2,0.2,0.3,0.3c0.2,0.2,0.4,0.4,0.6,0.6c0.1,0.1,0.2,0.2,0.3,0.3c0.3,0.2,0.5,0.5,0.8,0.7
		c0,0,0.1,0.1,0.1,0.1c0.3,0.3,0.6,0.6,0.8,0.9c0.1,0.1,0.2,0.2,0.2,0.3c0.2,0.2,0.4,0.4,0.6,0.6c0.1,0.1,0.2,0.2,0.3,0.3
		c0.2,0.2,0.3,0.4,0.5,0.6c0.1,0.1,0.2,0.2,0.2,0.3c0.2,0.2,0.4,0.5,0.6,0.7c0,0.1,0.1,0.1,0.1,0.2c0.2,0.3,0.4,0.6,0.6,0.9
		c0.1,0.1,0.1,0.2,0.2,0.3c0.1,0.2,0.3,0.4,0.4,0.7c0.1,0.1,0.1,0.2,0.2,0.3c0.1,0.2,0.3,0.4,0.4,0.6c0.1,0.1,0.1,0.2,0.2,0.3
		c0.1,0.2,0.3,0.5,0.4,0.7c0.3,0.6,0.6,1.2,0.8,1.8c1.2-2.8,1.8-5.7,1.8-8.5C227.7,105.4,227.7,105.3,227.7,105.2z"/>
	<linearGradient id="XMLID_6_" gradientUnits="userSpaceOnUse" x1="107.4869" y1="105.3264" x2="227.713" y2="105.3264">
		<stop  offset="0" style="stop-color:#0D5074"/>
		<stop  offset="1" style="stop-color:#00395A"/>
	</linearGradient>
	<path id="XMLID_117_" class="st21" d="M227.7,113.9c0-0.1,0-0.2,0-0.2c0-0.2,0-0.4,0-0.6c0-0.1,0-0.1,0-0.2c0-0.2,0-0.5-0.1-0.7
		c0-0.1,0-0.2,0-0.2c0-0.2,0-0.3-0.1-0.5c0-0.1,0-0.2,0-0.3c0-0.2-0.1-0.3-0.1-0.5c0-0.1,0-0.2,0-0.2c0-0.1,0-0.2-0.1-0.3
		c-0.3,1.3-0.7,2.6-1.3,3.9c-0.3-0.6-0.5-1.2-0.8-1.8c-0.1-0.2-0.3-0.5-0.4-0.7c-0.1-0.1-0.1-0.2-0.2-0.3c-0.1-0.2-0.2-0.4-0.4-0.6
		c-0.1-0.1-0.1-0.2-0.2-0.3c-0.1-0.2-0.3-0.4-0.4-0.7c-0.1-0.1-0.1-0.2-0.2-0.3c-0.2-0.3-0.4-0.6-0.6-0.9c0-0.1-0.1-0.1-0.1-0.2
		c-0.2-0.2-0.4-0.5-0.6-0.7c-0.1-0.1-0.2-0.2-0.2-0.3c-0.2-0.2-0.3-0.4-0.5-0.6c-0.1-0.1-0.2-0.2-0.3-0.3c-0.2-0.2-0.4-0.4-0.6-0.6
		c-0.1-0.1-0.2-0.2-0.2-0.3c-0.3-0.3-0.6-0.6-0.8-0.9c0,0-0.1-0.1-0.1-0.1c-0.3-0.2-0.5-0.5-0.8-0.7c-0.1-0.1-0.2-0.2-0.3-0.3
		c-0.2-0.2-0.4-0.4-0.6-0.6c-0.1-0.1-0.2-0.2-0.3-0.3c-0.2-0.2-0.5-0.4-0.7-0.6c-0.1-0.1-0.2-0.2-0.3-0.2c-0.3-0.3-0.7-0.5-1-0.8
		c0,0-0.1,0-0.1-0.1c-0.3-0.2-0.7-0.5-1-0.7c-0.1-0.1-0.2-0.2-0.4-0.2c-0.3-0.2-0.5-0.4-0.8-0.5c-0.1-0.1-0.3-0.2-0.4-0.3
		c-0.3-0.2-0.6-0.4-0.8-0.5c-0.1-0.1-0.3-0.2-0.4-0.2c-0.4-0.2-0.8-0.5-1.2-0.7c-0.6-0.4-1.3-0.7-1.9-1.1c-0.1,0-0.1-0.1-0.2-0.1
		c-0.6-0.3-1.3-0.6-1.9-1c-0.1,0-0.2-0.1-0.3-0.1c-0.6-0.3-1.3-0.6-1.9-0.9c-0.1,0-0.2-0.1-0.3-0.1c-0.6-0.3-1.3-0.6-2-0.8
		c-0.1-0.1-0.3-0.1-0.4-0.2c-0.4-0.2-0.9-0.3-1.3-0.5c-0.1,0-0.2-0.1-0.4-0.1c-0.5-0.2-1.1-0.4-1.6-0.6c-0.1,0-0.2-0.1-0.4-0.1
		c-0.4-0.1-0.9-0.3-1.3-0.4c-0.1,0-0.3-0.1-0.4-0.1c-0.5-0.2-1.1-0.3-1.7-0.5c-0.1,0-0.2-0.1-0.3-0.1c-0.4-0.1-0.8-0.2-1.2-0.3
		c-0.2,0-0.3-0.1-0.5-0.1c-0.3-0.1-0.6-0.2-0.9-0.2c-0.2,0-0.4-0.1-0.6-0.1c-0.3-0.1-0.6-0.1-0.9-0.2c-0.2,0-0.4-0.1-0.6-0.1
		c-0.3-0.1-0.6-0.1-0.9-0.2c-0.2,0-0.4-0.1-0.6-0.1c-0.3-0.1-0.5-0.1-0.8-0.2c-0.2,0-0.4-0.1-0.6-0.1c-0.3-0.1-0.6-0.1-0.8-0.2
		c-0.2,0-0.4-0.1-0.6-0.1c-0.3-0.1-0.6-0.1-0.9-0.2c-0.2,0-0.4-0.1-0.5-0.1c-0.4-0.1-0.7-0.1-1.1-0.2c-0.1,0-0.2,0-0.4-0.1
		c-0.4-0.1-0.9-0.1-1.3-0.2c0,0-0.1,0-0.1,0c-0.5-0.1-1-0.1-1.4-0.2c-0.2,0-0.3,0-0.5,0c-0.3,0-0.7-0.1-1-0.1c-0.2,0-0.4,0-0.6-0.1
		c-0.3,0-0.6-0.1-0.9-0.1c-0.2,0-0.4,0-0.6,0c-0.3,0-0.6,0-0.8-0.1c-0.2,0-0.4,0-0.6,0c-0.3,0-0.5,0-0.8,0c-0.2,0-0.4,0-0.7,0
		c-0.3,0-0.5,0-0.8,0c-0.2,0-0.4,0-0.7,0c-0.3,0-0.5,0-0.8,0c-0.2,0-0.4,0-0.6,0c-0.3,0-0.6,0-0.9,0c-0.2,0-0.4,0-0.7,0
		c-0.3,0-0.6,0-0.8,0c-0.2,0-0.4,0-0.7,0c-0.3,0-0.6,0-0.8,0c-0.2,0-0.4,0-0.7,0c-0.3,0-0.5,0-0.8,0c-0.2,0-0.4,0-0.6,0
		c-0.3,0-0.6,0-1,0c-0.2,0-0.4,0-0.6,0c-0.3,0-0.7,0-1,0.1c-0.2,0-0.4,0-0.5,0c-0.4,0-0.9,0.1-1.3,0.1c-0.1,0-0.2,0-0.3,0
		c-0.5,0-1,0.1-1.6,0.1c-0.1,0-0.2,0-0.3,0c-0.5,0-1,0.1-1.4,0.2c-0.2,0-0.3,0-0.5,0.1c-0.5,0.1-0.9,0.1-1.4,0.2c-0.1,0-0.2,0-0.4,0
		c-0.6,0.1-1.1,0.2-1.7,0.3c-0.1,0-0.3,0-0.4,0.1c-0.4,0.1-0.9,0.1-1.3,0.2c-0.2,0-0.4,0.1-0.6,0.1c-0.3,0-0.5,0.1-0.8,0.1
		c-0.2,0-0.4,0.1-0.7,0.1c-0.3,0.1-0.5,0.1-0.8,0.2c-0.2,0-0.4,0.1-0.6,0.1c-0.3,0.1-0.5,0.1-0.8,0.2c-0.2,0-0.4,0.1-0.6,0.1
		c-0.3,0.1-0.5,0.1-0.8,0.2c-0.2,0-0.4,0.1-0.6,0.1c-0.3,0.1-0.5,0.1-0.8,0.2c-0.2,0-0.4,0.1-0.6,0.1c-0.3,0.1-0.6,0.2-0.9,0.2
		c-0.2,0-0.3,0.1-0.5,0.1c-0.4,0.1-0.7,0.2-1,0.3c-0.1,0-0.2,0.1-0.3,0.1c-0.4,0.1-0.9,0.3-1.3,0.4c0,0-0.1,0-0.1,0
		c-0.5,0.2-1,0.3-1.5,0.5c-0.2,0.1-0.3,0.1-0.5,0.2c-0.4,0.1-0.8,0.3-1.2,0.4c-0.1,0-0.3,0.1-0.4,0.1c-0.5,0.2-1,0.4-1.5,0.6
		c-0.1,0-0.2,0.1-0.3,0.1c-0.4,0.2-0.8,0.3-1.2,0.5c-0.1,0.1-0.3,0.1-0.4,0.2c-0.4,0.2-0.8,0.4-1.2,0.6c-0.1,0-0.2,0.1-0.3,0.1
		c-0.5,0.2-1,0.5-1.4,0.7c-0.1,0.1-0.2,0.1-0.4,0.2c-0.4,0.2-0.7,0.4-1.1,0.6c-0.1,0.1-0.3,0.1-0.4,0.2c-0.5,0.3-0.9,0.5-1.4,0.8
		c-0.5,0.3-0.9,0.6-1.4,0.8c-0.1,0.1-0.2,0.1-0.3,0.2c-0.5,0.3-0.9,0.6-1.3,0.9c-0.1,0.1-0.2,0.1-0.3,0.2c-0.4,0.2-0.7,0.5-1.1,0.7
		c-0.1,0.1-0.2,0.1-0.3,0.2c-0.4,0.3-0.8,0.6-1.2,0.9c-0.1,0.1-0.2,0.1-0.2,0.2c-0.3,0.3-0.6,0.5-1,0.8c-0.1,0.1-0.2,0.2-0.3,0.2
		c-0.4,0.3-0.7,0.6-1.1,0.9c0,0,0,0-0.1,0.1c-0.1,0.1-0.2,0.2-0.2,0.2c-0.2,0.2-0.5,0.4-0.7,0.7c-0.1,0.1-0.1,0.1-0.2,0.2
		c-0.1,0.1-0.2,0.2-0.3,0.3c-0.2,0.2-0.4,0.4-0.6,0.7c0,0,0,0,0,0c-0.3,0.3-0.5,0.6-0.8,0.9c-0.2,0.2-0.3,0.4-0.5,0.6
		c-0.1,0.1-0.2,0.2-0.3,0.3c-0.1,0.1-0.1,0.2-0.2,0.3c-0.1,0.2-0.3,0.4-0.4,0.6c-0.1,0.1-0.2,0.2-0.2,0.3c-0.1,0.2-0.2,0.4-0.4,0.5
		c-0.1,0.1-0.1,0.2-0.2,0.3c-0.1,0.2-0.2,0.4-0.3,0.5c-0.1,0.1-0.1,0.2-0.2,0.3c-0.1,0.2-0.2,0.4-0.3,0.5c-0.1,0.1-0.1,0.2-0.2,0.3
		c-0.1,0.1-0.2,0.3-0.2,0.4c-0.1,0.1-0.1,0.3-0.2,0.4c0,0.1-0.1,0.2-0.1,0.3c-0.1,0.2-0.2,0.5-0.3,0.7c-0.1,0.1-0.1,0.2-0.2,0.3
		c0,0,0,0.1,0,0.1c-0.5-1.3-0.9-2.5-1.2-3.8c-1,4.3-0.6,8.7,1.2,13c0,0,0-0.1,0-0.1c0-0.1,0.1-0.2,0.2-0.3c0.1-0.2,0.2-0.5,0.3-0.7
		c0-0.1,0.1-0.2,0.1-0.3c0.1-0.1,0.1-0.3,0.2-0.4c0.1-0.1,0.2-0.3,0.2-0.4c0.1-0.1,0.1-0.2,0.2-0.3c0.1-0.2,0.2-0.4,0.3-0.5
		c0.1-0.1,0.1-0.2,0.2-0.3c0.1-0.2,0.2-0.4,0.3-0.5c0.1-0.1,0.1-0.2,0.2-0.3c0.1-0.2,0.2-0.4,0.4-0.5c0.1-0.1,0.2-0.2,0.2-0.3
		c0.1-0.2,0.3-0.4,0.4-0.6c0.1-0.1,0.1-0.2,0.2-0.3c0.1-0.1,0.2-0.2,0.3-0.3c0.2-0.2,0.3-0.4,0.5-0.6c0.3-0.3,0.5-0.6,0.8-0.9
		c0,0,0,0,0,0c0.2-0.2,0.4-0.4,0.6-0.7c0.1-0.1,0.2-0.2,0.3-0.3c0.1-0.1,0.1-0.1,0.2-0.2c0.2-0.2,0.5-0.4,0.7-0.7
		c0.1-0.1,0.2-0.2,0.2-0.2c0,0,0,0,0.1-0.1c0.3-0.3,0.7-0.6,1.1-0.9c0.1-0.1,0.2-0.2,0.3-0.2c0.3-0.3,0.6-0.5,1-0.8
		c0.1-0.1,0.2-0.1,0.2-0.2c0.4-0.3,0.8-0.6,1.2-0.9c0.1-0.1,0.2-0.1,0.3-0.2c0.3-0.2,0.7-0.5,1.1-0.7c0.1-0.1,0.2-0.1,0.3-0.2
		c0.4-0.3,0.9-0.6,1.3-0.9c0.1-0.1,0.2-0.1,0.3-0.2c0.5-0.3,0.9-0.6,1.4-0.8c0.4-0.3,0.9-0.5,1.4-0.8c0.1-0.1,0.3-0.1,0.4-0.2
		c0.4-0.2,0.7-0.4,1.1-0.6c0.1-0.1,0.2-0.1,0.4-0.2c0.5-0.2,0.9-0.5,1.4-0.7c0.1,0,0.2-0.1,0.3-0.1c0.4-0.2,0.8-0.4,1.2-0.6
		c0.1-0.1,0.3-0.1,0.4-0.2c0.4-0.2,0.8-0.3,1.2-0.5c0.1,0,0.2-0.1,0.3-0.1c0.5-0.2,1-0.4,1.5-0.6c0.1,0,0.3-0.1,0.4-0.1
		c0.4-0.1,0.8-0.3,1.2-0.4c0.2-0.1,0.3-0.1,0.5-0.2c0.5-0.2,1-0.3,1.5-0.5c0,0,0.1,0,0.1,0c0.4-0.1,0.9-0.3,1.3-0.4
		c0.1,0,0.2-0.1,0.3-0.1c0.3-0.1,0.7-0.2,1-0.3c0.2,0,0.3-0.1,0.5-0.1c0.3-0.1,0.6-0.2,0.9-0.2c0.2-0.1,0.4-0.1,0.6-0.1
		c0.3-0.1,0.5-0.1,0.8-0.2c0.2,0,0.4-0.1,0.6-0.1c0.3-0.1,0.5-0.1,0.8-0.2c0.2,0,0.4-0.1,0.6-0.1c0.3-0.1,0.5-0.1,0.8-0.2
		c0.2,0,0.4-0.1,0.6-0.1c0.3-0.1,0.5-0.1,0.8-0.2c0.2,0,0.4-0.1,0.7-0.1c0.3,0,0.5-0.1,0.8-0.1c0.2,0,0.4-0.1,0.6-0.1
		c0.4-0.1,0.9-0.2,1.3-0.2c0.1,0,0.3,0,0.4-0.1c0.6-0.1,1.1-0.2,1.7-0.3c0.1,0,0.2,0,0.4,0c0.5-0.1,0.9-0.1,1.4-0.2
		c0.2,0,0.3,0,0.5-0.1c0.5-0.1,1-0.1,1.4-0.2c0.1,0,0.2,0,0.3,0c0.5-0.1,1-0.1,1.6-0.1c0.1,0,0.2,0,0.3,0c0.4,0,0.9-0.1,1.3-0.1
		c0.2,0,0.4,0,0.5,0c0.3,0,0.7,0,1-0.1c0.2,0,0.4,0,0.6,0c0.3,0,0.6,0,1,0c0.2,0,0.4,0,0.6,0c0.3,0,0.5,0,0.8,0c0.2,0,0.4,0,0.7,0
		c0.3,0,0.6,0,0.8,0c0.2,0,0.4,0,0.7,0c0.3,0,0.6,0,0.8,0c0.2,0,0.4,0,0.7,0c0.3,0,0.6,0,0.9,0c0.2,0,0.4,0,0.6,0c0.3,0,0.5,0,0.8,0
		c0.2,0,0.4,0,0.7,0c0.3,0,0.5,0,0.8,0c0.2,0,0.4,0,0.7,0c0.3,0,0.5,0,0.8,0c0.2,0,0.4,0,0.6,0c0.3,0,0.6,0,0.8,0.1
		c0.2,0,0.4,0,0.6,0c0.3,0,0.6,0.1,0.9,0.1c0.2,0,0.4,0,0.6,0.1c0.3,0,0.7,0.1,1,0.1c0.2,0,0.3,0,0.5,0c0.5,0.1,1,0.1,1.4,0.2
		c0,0,0.1,0,0.1,0c0.4,0.1,0.9,0.1,1.3,0.2c0.1,0,0.2,0,0.4,0.1c0.4,0.1,0.7,0.1,1.1,0.2c0.2,0,0.4,0.1,0.5,0.1
		c0.3,0,0.6,0.1,0.9,0.2c0.2,0,0.4,0.1,0.6,0.1c0.3,0.1,0.6,0.1,0.8,0.2c0.2,0,0.4,0.1,0.6,0.1c0.3,0.1,0.5,0.1,0.8,0.2
		c0.2,0,0.4,0.1,0.6,0.1c0.3,0.1,0.6,0.1,0.9,0.2c0.2,0,0.4,0.1,0.6,0.1c0.3,0.1,0.6,0.1,0.9,0.2c0.2,0,0.4,0.1,0.6,0.1
		c0.3,0.1,0.6,0.2,0.9,0.2c0.2,0,0.3,0.1,0.5,0.1c0.4,0.1,0.8,0.2,1.2,0.3c0.1,0,0.2,0.1,0.3,0.1c0.6,0.2,1.1,0.3,1.7,0.5
		c0.1,0,0.3,0.1,0.4,0.1c0.4,0.1,0.9,0.3,1.3,0.4c0.1,0,0.2,0.1,0.4,0.1c0.5,0.2,1.1,0.4,1.6,0.6c0.1,0,0.2,0.1,0.4,0.1
		c0.4,0.2,0.9,0.3,1.3,0.5c0.1,0.1,0.3,0.1,0.4,0.2c0.7,0.3,1.3,0.5,2,0.8c0.1,0,0.2,0.1,0.3,0.1c0.6,0.3,1.3,0.6,1.9,0.9
		c0.1,0,0.2,0.1,0.3,0.1c0.6,0.3,1.3,0.6,1.9,1c0.1,0,0.1,0.1,0.2,0.1c0.7,0.3,1.3,0.7,1.9,1.1c0.4,0.2,0.8,0.5,1.2,0.7
		c0.1,0.1,0.3,0.2,0.4,0.2c0.3,0.2,0.6,0.4,0.8,0.5c0.1,0.1,0.3,0.2,0.4,0.3c0.3,0.2,0.5,0.4,0.8,0.5c0.1,0.1,0.2,0.2,0.4,0.2
		c0.3,0.2,0.7,0.5,1,0.7c0,0,0.1,0,0.1,0.1c0.4,0.3,0.7,0.5,1,0.8c0.1,0.1,0.2,0.2,0.3,0.2c0.2,0.2,0.5,0.4,0.7,0.6
		c0.1,0.1,0.2,0.2,0.3,0.3c0.2,0.2,0.4,0.4,0.6,0.6c0.1,0.1,0.2,0.2,0.3,0.3c0.3,0.2,0.5,0.5,0.8,0.7c0,0,0.1,0.1,0.1,0.1
		c0.3,0.3,0.6,0.6,0.8,0.9c0.1,0.1,0.2,0.2,0.2,0.3c0.2,0.2,0.4,0.4,0.6,0.6c0.1,0.1,0.2,0.2,0.3,0.3c0.2,0.2,0.3,0.4,0.5,0.6
		c0.1,0.1,0.2,0.2,0.2,0.3c0.2,0.2,0.4,0.5,0.6,0.7c0,0.1,0.1,0.1,0.1,0.2c0.2,0.3,0.4,0.6,0.6,0.9c0.1,0.1,0.1,0.2,0.2,0.3
		c0.1,0.2,0.3,0.4,0.4,0.7c0.1,0.1,0.1,0.2,0.2,0.3c0.1,0.2,0.3,0.4,0.4,0.6c0.1,0.1,0.1,0.2,0.2,0.3c0.1,0.2,0.3,0.5,0.4,0.7
		c0.3,0.6,0.6,1.2,0.8,1.8c1.2-2.8,1.8-5.7,1.8-8.5c0-0.1,0-0.1,0-0.2C227.7,114.2,227.7,114.1,227.7,113.9z"/>
	<path id="XMLID_104_" class="st22" d="M219.8,75c-29-16.8-76-16.8-104.8,0c-28.8,16.8-28.7,43.9,0.3,60.7c29,16.8,76,16.8,104.8,0
		C249,119,248.9,91.8,219.8,75z M225.9,114c-2.5,5.9-7.8,11.4-15.7,16c-23.4,13.6-61.5,13.6-85,0c-8.1-4.7-13.4-10.3-16-16.3
		c-2.6-6.1-2.3-12.5,0.8-18.5c0.1-0.2,0.2-0.4,0.3-0.6c0,0,0,0,0,0c0,0,0-0.1,0-0.1c0-0.1,0.1-0.2,0.1-0.2c0.1-0.1,0.1-0.3,0.2-0.4
		c0,0,0,0,0,0c0,0,0.1-0.1,0.1-0.1c0.1-0.1,0.1-0.2,0.2-0.3c0,0,0,0,0,0c0.1-0.2,0.2-0.3,0.3-0.5c0,0,0,0,0,0
		c0.1-0.1,0.1-0.2,0.2-0.3c0,0,0,0,0,0c0-0.1,0.1-0.1,0.1-0.2c0,0,0,0,0,0c0.1-0.1,0.2-0.2,0.2-0.3c0,0,0.1-0.1,0.1-0.1
		c0.2-0.2,0.4-0.5,0.6-0.7c0,0,0,0,0,0c0.1-0.1,0.1-0.1,0.2-0.2c0,0,0,0,0,0c0,0,0,0,0,0c0.2-0.3,0.5-0.6,0.8-0.9l0,0l0,0
		c0.1-0.1,0.1-0.1,0.2-0.2c0.1-0.2,0.3-0.3,0.4-0.5c0,0,0,0,0,0c0,0,0,0,0,0c0,0,0,0,0-0.1c0,0,0-0.1,0.1-0.1
		c0.7-0.7,1.4-1.5,2.2-2.2c0,0,0,0,0.1,0c0,0,0,0,0,0c0,0,0.1-0.1,0.2-0.1c0.3-0.2,0.5-0.5,0.8-0.7c0,0,0,0,0,0c0,0,0.1-0.1,0.1-0.1
		c0.8-0.7,1.6-1.3,2.5-2c0,0,0,0,0.1,0c0.1,0,0.1-0.1,0.2-0.1c0.9-0.6,1.8-1.2,2.7-1.8c0,0,0.1,0,0.1-0.1c0.1,0,0.1-0.1,0.2-0.1
		c0.2-0.1,0.4-0.2,0.6-0.3c0.1,0,0.1-0.1,0.2-0.1c0.2-0.1,0.5-0.3,0.7-0.4c0.9-0.5,1.9-1.1,2.8-1.5l0,0c0.1-0.1,0.2-0.1,0.4-0.2
		c0,0,0,0,0,0c1.5-0.7,3-1.4,4.6-2.1l0,0c0.1,0,0.2-0.1,0.3-0.1c0,0,0,0,0,0c0.5-0.2,1-0.4,1.5-0.6l0,0c0.1,0,0.3-0.1,0.4-0.1
		c0,0,0,0,0,0c0.4-0.1,0.8-0.3,1.2-0.4c0,0,0,0,0,0c0.2-0.1,0.3-0.1,0.5-0.2c0,0,0,0,0,0c0.5-0.2,1-0.3,1.5-0.5c0,0,0,0,0,0
		c0,0,0.1,0,0.1,0c0,0,0,0,0,0l0,0c0.5-0.1,0.9-0.3,1.4-0.4c0.1,0,0.2-0.1,0.3-0.1c0,0,0,0,0,0c0.3-0.1,0.7-0.2,1-0.3c0,0,0,0,0,0
		c0.2,0,0.3-0.1,0.5-0.1c0,0,0,0,0,0c0.3-0.1,0.6-0.2,0.8-0.2c0,0,0,0,0,0c0.1,0,0.3-0.1,0.5-0.1c0.4-0.1,0.8-0.2,1.2-0.3
		c0.1,0,0.2-0.1,0.3-0.1c0,0,0,0,0,0c0.4-0.1,0.9-0.2,1.3-0.3c0,0,0.1,0,0.1,0c0,0,0,0,0,0c0.3-0.1,0.5-0.1,0.8-0.2c0,0,0,0,0,0
		c0.1,0,0.3-0.1,0.4-0.1c0.3-0.1,0.7-0.1,1-0.2c0,0,0,0,0,0c0.2,0,0.4-0.1,0.6-0.1c0.3-0.1,0.6-0.1,0.9-0.2c0.1,0,0.2,0,0.3-0.1
		c0.1,0,0.2,0,0.3,0c0.4-0.1,0.9-0.2,1.3-0.2c0,0,0,0,0,0c0.1,0,0.3,0,0.4-0.1c0,0,0,0,0,0c0.6-0.1,1.1-0.2,1.7-0.3c0,0,0,0,0,0
		c0.1,0,0.2,0,0.2,0c0.7-0.1,1.3-0.2,2-0.3c0,0,0,0,0.1,0h0c0.5-0.1,0.9-0.1,1.4-0.2c0,0,0,0,0,0c0.1,0,0.2,0,0.2,0c0,0,0.1,0,0.1,0
		c0.5-0.1,1-0.1,1.6-0.1h0c0.1,0,0.2,0,0.2,0c0,0,0,0,0,0c0.4,0,0.9-0.1,1.3-0.1c0,0,0,0,0,0c0.1,0,0.3,0,0.4,0c0.4,0,0.8,0,1.2-0.1
		c0,0,0,0,0,0c0.2,0,0.4,0,0.6,0h0c0.3,0,0.6,0,1,0c0,0,0,0,0,0c0.1,0,0.2,0,0.3,0c0.1,0,0.2,0,0.3,0c0.8,0,1.5,0,2.3,0h0
		c0,0,0.1,0,0.1,0c0.5,0,0.9,0,1.4,0h0c0,0,0,0,0,0c0.5,0,1,0,1.5,0c0,0,0,0,0,0c0.2,0,0.3,0,0.5,0c0,0,0.1,0,0.1,0
		c0.4,0,0.9,0,1.3,0c0.1,0,0.1,0,0.2,0c0,0,0,0,0,0c0.3,0,0.5,0,0.8,0c0,0,0,0,0,0c0.2,0,0.4,0,0.5,0c0.3,0,0.6,0,0.9,0.1
		c0,0,0,0,0,0c0.2,0,0.4,0,0.5,0c0.3,0,0.6,0,0.9,0.1c0.2,0,0.4,0,0.5,0c0,0,0,0,0.1,0l0,0c0.8,0.1,1.6,0.1,2.4,0.2c0,0,0,0,0,0
		c0.1,0,0.2,0,0.3,0c1,0.1,2,0.2,3,0.4c0,0,0,0,0,0c0,0,0,0,0,0c0.1,0,0.2,0,0.3,0c0.4,0.1,0.8,0.1,1.1,0.2c0,0,0,0,0,0
		c0.2,0,0.4,0.1,0.5,0.1c0,0,0,0,0,0c0.3,0,0.6,0.1,0.9,0.2c0,0,0,0,0,0c0.2,0,0.4,0.1,0.6,0.1c0,0,0,0,0,0c0.3,0.1,0.6,0.1,0.8,0.2
		c0,0,0,0,0,0c0.1,0,0.3,0.1,0.4,0.1c0.3,0.1,0.7,0.1,1,0.2c0.1,0,0.1,0,0.2,0c0.1,0,0.2,0.1,0.4,0.1c0.3,0.1,0.6,0.1,0.9,0.2
		c0,0,0,0,0,0c0.2,0,0.4,0.1,0.6,0.1l0,0c0.3,0.1,0.6,0.1,0.9,0.2c0,0,0,0,0,0c0.2,0,0.4,0.1,0.6,0.1c0,0,0,0,0,0
		c0.3,0.1,0.6,0.2,1,0.2c0,0,0,0,0,0c0.1,0,0.1,0,0.2,0c0.5,0.1,1,0.3,1.5,0.4c0.1,0,0.2,0,0.2,0.1c0,0,0,0,0,0c0,0,0,0,0,0
		c0.7,0.2,1.4,0.4,2,0.6c0,0,0,0,0.1,0l0,0c1.7,0.5,3.3,1.1,4.9,1.7c0.1,0,0.2,0.1,0.3,0.1c0,0,0.1,0,0.1,0.1c0.7,0.3,1.3,0.5,2,0.8
		l0,0c0,0,0.1,0,0.1,0.1c0.7,0.3,1.4,0.6,2.1,1c0,0,0,0,0,0c0.1,0,0.1,0.1,0.2,0.1c0.7,0.3,1.3,0.7,2,1l0,0c0.1,0,0.1,0.1,0.2,0.1
		c0,0,0,0,0,0c0.7,0.3,1.3,0.7,1.9,1.1c0.4,0.2,0.8,0.5,1.2,0.7c0,0,0,0,0,0c0.1,0,0.1,0.1,0.2,0.1c0.4,0.2,0.7,0.4,1.1,0.7
		c0,0,0,0,0,0c0,0,0,0,0.1,0c0.9,0.6,1.8,1.2,2.6,1.8c0,0,0,0,0,0c0,0,0,0,0,0c0.3,0.3,0.7,0.5,1,0.8c0,0,0,0,0,0
		c0.1,0.1,0.2,0.2,0.3,0.2c0.2,0.2,0.5,0.4,0.7,0.6c0,0,0,0,0,0c0.1,0,0.1,0.1,0.1,0.1c0.7,0.6,1.4,1.2,2,1.9c0,0,0,0,0,0
		c0,0,0,0,0,0c0.3,0.3,0.5,0.5,0.8,0.8c0,0,0,0,0,0c0.1,0.1,0.2,0.2,0.2,0.3l0,0c0.2,0.2,0.4,0.4,0.6,0.6c0,0,0,0,0,0
		c0,0,0.1,0.1,0.1,0.1c0.6,0.6,1.1,1.3,1.6,1.9c0,0,0,0,0,0c0,0,0,0,0,0c0.2,0.3,0.4,0.5,0.6,0.8c0,0,0,0,0,0
		c0.1,0.1,0.1,0.2,0.2,0.3c0,0,0,0,0,0c0.1,0.2,0.3,0.4,0.4,0.6c0,0,0,0,0,0c0,0.1,0.1,0.1,0.1,0.2c0.2,0.3,0.3,0.5,0.5,0.8
		c0,0,0,0,0,0c0,0,0,0,0,0c0.2,0.4,0.5,0.8,0.7,1.2c0,0,0,0,0,0v0c0,0.1,0.1,0.2,0.1,0.2c0.1,0.1,0.1,0.3,0.2,0.4
		c0.1,0.1,0.1,0.2,0.2,0.4c0.1,0.1,0.1,0.2,0.2,0.4c0.1,0.1,0.1,0.2,0.2,0.4c0.1,0.1,0.1,0.3,0.2,0.4c0,0.1,0.1,0.2,0.1,0.3
		c0.1,0.2,0.2,0.4,0.2,0.7c0,0.1,0.1,0.2,0.1,0.3c0,0.1,0.1,0.3,0.1,0.4c0,0.1,0.1,0.2,0.1,0.3c0,0.2,0.1,0.3,0.1,0.5
		c0,0.1,0.1,0.2,0.1,0.3c0.1,0.2,0.1,0.5,0.2,0.7c0,0.1,0,0.2,0,0.2c0,0.2,0.1,0.3,0.1,0.5c0,0.1,0,0.2,0,0.3c0,0.2,0.1,0.3,0.1,0.5
		c0,0.1,0,0.2,0,0.2c0,0.2,0.1,0.5,0.1,0.7c0,0.1,0,0.1,0,0.2c0,0.2,0,0.4,0,0.6c0,0.1,0,0.2,0,0.2c0,0.2,0,0.4,0,0.6
		c0,0.1,0,0.1,0,0.2C227.7,108.3,227.1,111.2,225.9,114z"/>
	<linearGradient id="XMLID_7_" gradientUnits="userSpaceOnUse" x1="107.0337" y1="147.0489" x2="101.5889" y2="137.6906">
		<stop  offset="0" style="stop-color:#858585"/>
		<stop  offset="1" style="stop-color:#DCDCDC"/>
	</linearGradient>
	<path id="XMLID_13_" class="st23" d="M113,141.9c0-0.1,0-0.1,0-0.2c0,0,0-0.1,0-0.1c0,0,0,0,0,0c0,0,0,0,0-0.1c0-0.1,0-0.1,0-0.2
		c0-0.1,0-0.1,0-0.2c0,0,0,0,0,0c0,0,0,0,0,0c0-0.1,0-0.1,0-0.2c0-0.1,0-0.1,0-0.2c0,0,0,0,0-0.1c0,0,0,0,0,0c0,0,0-0.1,0-0.1
		c0-0.1,0-0.1-0.1-0.2c0,0,0-0.1,0-0.1c0,0,0,0,0,0c0,0,0,0,0,0c0-0.1,0-0.1-0.1-0.2c0-0.1,0-0.1-0.1-0.2c0,0,0,0,0,0c0,0,0,0,0,0
		c0,0,0-0.1,0-0.1c0-0.1,0-0.1-0.1-0.2c0,0,0-0.1-0.1-0.1c0,0,0,0,0,0c0,0,0,0,0,0c0-0.1-0.1-0.1-0.1-0.2c0-0.1-0.1-0.1-0.1-0.2
		c0,0,0,0,0,0c0,0,0,0,0,0c0-0.1-0.1-0.1-0.1-0.2c0-0.1-0.1-0.1-0.1-0.2c0,0,0-0.1-0.1-0.1c0,0,0,0,0,0c0-0.1-0.1-0.1-0.1-0.2
		c0-0.1-0.1-0.2-0.1-0.2c0,0,0,0,0,0c-0.1-0.1-0.1-0.2-0.2-0.3c0,0,0,0,0,0c0,0,0,0,0,0c-0.1-0.1-0.1-0.1-0.2-0.2
		c0-0.1-0.1-0.1-0.1-0.2c0,0,0,0,0,0c0,0,0,0,0,0c0-0.1-0.1-0.1-0.1-0.2c0-0.1-0.1-0.1-0.1-0.2c0,0,0,0,0,0c0,0,0,0,0,0
		c0,0-0.1-0.1-0.1-0.1c-0.1-0.1-0.1-0.1-0.2-0.2c0,0,0,0,0,0c0,0,0,0,0,0c0,0-0.1,0-0.1-0.1c-0.1,0-0.1-0.1-0.2-0.1c0,0,0,0-0.1-0.1
		c0,0,0,0,0,0c0,0,0,0-0.1,0c-0.1,0-0.1-0.1-0.2-0.1c0,0-0.1-0.1-0.1-0.1c0,0,0,0,0,0c0,0,0,0,0,0c-0.1,0-0.1-0.1-0.2-0.1
		c-0.1,0-0.1-0.1-0.2-0.1c0,0,0,0,0,0c0,0-0.1,0-0.1-0.1c-0.1,0-0.1-0.1-0.2-0.1c0,0-0.1,0-0.1,0c0,0,0,0,0,0c0,0,0,0,0,0
		c0,0-0.1,0-0.1-0.1c0,0-0.1,0-0.1-0.1c0,0,0,0,0,0c0,0,0,0,0,0c0,0-0.1,0-0.1,0c-0.1,0-0.1,0-0.2,0c0,0,0,0-0.1,0c0,0,0,0,0,0
		c0,0,0,0,0,0c-0.1,0-0.1,0-0.2,0c0,0-0.1,0-0.1,0c0,0,0,0,0,0c0,0,0,0,0,0c-0.1,0-0.1,0-0.2,0c0,0,0,0-0.1,0c0,0,0,0-0.1,0
		c0,0,0,0-0.1,0c-0.1,0-0.1,0-0.2,0c0,0,0,0,0,0c0,0,0,0,0,0c-0.1,0-0.1,0-0.2,0.1c0,0,0,0,0,0c-0.1,0-0.2,0.1-0.3,0.1l-12.2,7.1
		c0.1-0.1,0.2-0.1,0.3-0.1c0.1,0,0.1,0,0.2-0.1c0,0,0,0,0,0c0.1,0,0.2,0,0.3,0c0,0,0,0,0.1,0c0.1,0,0.2,0,0.3,0c0,0,0,0,0,0
		c0.1,0,0.2,0,0.3,0c0,0,0,0,0,0c0.1,0,0.2,0.1,0.3,0.1c0,0,0,0,0,0c0.1,0,0.2,0.1,0.3,0.1c0,0,0,0,0,0c0.1,0.1,0.2,0.1,0.4,0.2
		c0.1,0.1,0.2,0.2,0.4,0.2c0,0,0,0,0,0c0.1,0.1,0.2,0.2,0.3,0.3c0,0,0,0,0,0c0.1,0.1,0.2,0.2,0.3,0.3c0,0,0,0,0,0
		c0.1,0.1,0.2,0.2,0.3,0.3c0,0,0,0,0,0c0.1,0.1,0.2,0.2,0.3,0.4c0,0,0,0,0,0c0.1,0.1,0.2,0.3,0.3,0.4c0,0,0,0,0,0
		c0.1,0.1,0.2,0.2,0.2,0.4c0.1,0.1,0.1,0.2,0.1,0.2c0,0.1,0.1,0.1,0.1,0.2c0,0,0,0.1,0.1,0.1c0.1,0.1,0.1,0.2,0.2,0.3c0,0,0,0,0,0
		c0.1,0.1,0.1,0.3,0.2,0.4c0,0,0,0,0,0c0.1,0.1,0.1,0.3,0.2,0.4c0,0,0,0,0,0c0.1,0.1,0.1,0.3,0.1,0.4c0,0,0,0,0,0
		c0,0.1,0.1,0.3,0.1,0.4c0,0,0,0,0,0c0,0.1,0.1,0.3,0.1,0.4c0,0,0,0,0,0c0,0.1,0,0.3,0.1,0.4c0,0,0,0,0,0c0,0.1,0,0.3,0,0.4
		c0,0.1,0,0.3,0,0.4c0,0,0,0,0,0c0,0.1,0,0.2-0.1,0.3c0,0,0,0,0,0c0,0.1,0,0.2-0.1,0.3c0,0,0,0,0,0.1c0,0.1-0.1,0.2-0.1,0.3
		c0,0,0,0,0,0c0,0.1-0.1,0.2-0.1,0.3c0,0,0,0,0,0c0,0.1-0.1,0.1-0.1,0.2c0,0,0,0-0.1,0.1c0,0-0.1,0.1-0.1,0.1c0,0,0,0-0.1,0.1
		c-0.1,0.1-0.1,0.1-0.2,0.1l12.2-7.1c0.1,0,0.1-0.1,0.2-0.1c0,0,0,0,0.1-0.1c0,0,0.1-0.1,0.1-0.1c0,0,0,0,0.1-0.1
		c0.1-0.1,0.1-0.1,0.1-0.2c0,0,0,0,0,0c0,0,0,0,0,0c0.1-0.1,0.1-0.2,0.1-0.3c0,0,0,0,0,0c0,0,0,0,0,0c0-0.1,0.1-0.1,0.1-0.2
		c0,0,0-0.1,0-0.1c0,0,0,0,0-0.1c0,0,0,0,0,0c0-0.1,0-0.1,0-0.2c0,0,0,0,0-0.1c0,0,0,0,0,0c0,0,0,0,0-0.1c0-0.1,0-0.1,0-0.2
		c0,0,0-0.1,0-0.1c0,0,0,0,0,0c0,0,0,0,0,0c0-0.1,0-0.1,0-0.2c0-0.1,0-0.1,0-0.2c0,0,0,0,0,0C113,142,113,141.9,113,141.9z"/>
	<g id="XMLID_101_">
		<linearGradient id="XMLID_8_" gradientUnits="userSpaceOnUse" x1="99.6522" y1="151.3437" x2="94.2074" y2="141.9854">
			<stop  offset="0" style="stop-color:#DCDCDC"/>
			<stop  offset="1" style="stop-color:#858585"/>
		</linearGradient>
		<path id="XMLID_107_" class="st24" d="M97.1,142.8c2,1.2,3.7,4,3.7,6.3c0,2.3-1.7,3.3-3.7,2.1c-2-1.2-3.7-4-3.7-6.3
			C93.5,142.5,95.1,141.6,97.1,142.8z"/>
	</g>
	<linearGradient id="XMLID_9_" gradientUnits="userSpaceOnUse" x1="81.1966" y1="152.4605" x2="1.5702" y2="200.6958">
		<stop  offset="0" style="stop-color:#0D5074"/>
		<stop  offset="1" style="stop-color:#00395A"/>
	</linearGradient>
	<path id="XMLID_99_" class="st25" d="M77.2,148.9c0,0-54.3,23.3-66.1,30.2C-4.3,188,7.2,213,25,202.4
		c24.7-14.8,60.4-39.7,60.4-39.7S86.9,151,77.2,148.9z"/>
	<linearGradient id="XMLID_12_" gradientUnits="userSpaceOnUse" x1="84.2315" y1="161.4629" x2="7.1983" y2="208.1273">
		<stop  offset="0" style="stop-color:#3390BB"/>
		<stop  offset="1" style="stop-color:#FFFFFF"/>
	</linearGradient>
	<path id="XMLID_113_" class="st26" d="M24.1,201c-5.9,3.6-11.2,3.3-15.1,1c3.8,3.2,9.5,4.2,16.1,0.3c24.7-14.8,60.4-39.7,60.4-39.7
		s0.1-0.8,0.1-1.9C77.5,166.3,46.5,187.6,24.1,201z"/>
	<linearGradient id="XMLID_14_" gradientUnits="userSpaceOnUse" x1="85.397" y1="144.0245" x2="95.8613" y2="157.8067">
		<stop  offset="0" style="stop-color:#DCDCDC"/>
		<stop  offset="1" style="stop-color:#858585"/>
	</linearGradient>
	<path id="XMLID_111_" class="st27" d="M103.7,149c0-0.1,0-0.2,0-0.3c0,0,0-0.1,0-0.1c0,0,0,0,0-0.1c0,0,0-0.1,0-0.1
		c0-0.1,0-0.2,0-0.3c0-0.1,0-0.2,0-0.3c0,0,0,0,0,0c0,0,0,0,0,0c0-0.1,0-0.2,0-0.3c0-0.1,0-0.2-0.1-0.3c0,0,0-0.1,0-0.1
		c0,0,0,0,0-0.1c0,0,0-0.1,0-0.1c0-0.1-0.1-0.2-0.1-0.3c0-0.1,0-0.1-0.1-0.2c0,0,0,0,0,0c0,0,0,0,0,0c0-0.1-0.1-0.2-0.1-0.3
		c0-0.1-0.1-0.2-0.1-0.3c0,0,0,0,0-0.1c0,0,0,0,0,0c0-0.1,0-0.1-0.1-0.2c0-0.1-0.1-0.2-0.1-0.3c0-0.1-0.1-0.1-0.1-0.2c0,0,0,0,0,0
		c0,0,0,0,0,0c0-0.1-0.1-0.2-0.1-0.3c0-0.1-0.1-0.2-0.1-0.3c0,0,0,0,0,0c0,0,0,0,0-0.1c0-0.1-0.1-0.2-0.1-0.2
		c-0.1-0.1-0.1-0.2-0.2-0.3c0-0.1-0.1-0.1-0.1-0.2c0,0,0,0,0-0.1c0-0.1-0.1-0.2-0.2-0.2c-0.1-0.1-0.2-0.2-0.2-0.4c0,0,0,0,0-0.1
		c-0.1-0.2-0.2-0.3-0.3-0.5c0,0,0,0,0,0c0,0,0,0,0,0c-0.1-0.1-0.2-0.2-0.3-0.3c-0.1-0.1-0.1-0.2-0.2-0.3c0,0,0,0,0,0c0,0,0,0,0,0
		c-0.1-0.1-0.1-0.2-0.2-0.3c-0.1-0.1-0.1-0.2-0.2-0.2c0,0,0,0,0,0c0,0,0,0,0,0c-0.1-0.1-0.1-0.1-0.2-0.2c-0.1-0.1-0.2-0.2-0.2-0.2
		c0,0,0,0-0.1-0.1c0,0,0,0-0.1-0.1c0,0-0.1-0.1-0.1-0.1c-0.1-0.1-0.2-0.1-0.3-0.2c0,0-0.1-0.1-0.1-0.1c0,0,0,0-0.1,0
		c0,0-0.1,0-0.1-0.1c-0.1-0.1-0.2-0.1-0.2-0.2c-0.1,0-0.1-0.1-0.2-0.1c0,0,0,0,0,0c0,0,0,0,0,0c-0.1-0.1-0.2-0.1-0.2-0.2
		c-0.1-0.1-0.2-0.1-0.2-0.1c0,0,0,0-0.1,0c-0.1,0-0.1-0.1-0.2-0.1c-0.1,0-0.2-0.1-0.2-0.1c0,0-0.1,0-0.1-0.1c0,0,0,0,0,0
		c0,0,0,0,0,0c-0.1,0-0.2-0.1-0.2-0.1c-0.1,0-0.2-0.1-0.2-0.1c0,0,0,0,0,0c0,0,0,0,0,0c-0.1,0-0.1,0-0.2-0.1c-0.1,0-0.2,0-0.2-0.1
		c0,0-0.1,0-0.1,0c0,0,0,0,0,0c0,0,0,0-0.1,0c-0.1,0-0.2,0-0.2,0c-0.1,0-0.1,0-0.1,0c0,0,0,0-0.1,0c0,0,0,0,0,0c-0.1,0-0.2,0-0.3,0
		c0,0-0.1,0-0.1,0c0,0-0.1,0-0.1,0c0,0-0.1,0-0.1,0c-0.1,0-0.2,0-0.3,0c0,0,0,0,0,0c0,0,0,0-0.1,0c-0.1,0-0.2,0.1-0.3,0.1
		c0,0,0,0,0,0c-0.2,0.1-0.3,0.1-0.4,0.2L75.4,150c0.1-0.1,0.3-0.1,0.4-0.2c0.1,0,0.2-0.1,0.3-0.1c0,0,0,0,0.1,0c0.1,0,0.3,0,0.4-0.1
		c0,0,0.1,0,0.1,0c0.1,0,0.3,0,0.4,0c0,0,0,0,0.1,0c0.2,0,0.3,0,0.5,0.1c0,0,0,0,0,0c0.2,0,0.3,0.1,0.5,0.1c0,0,0,0,0,0
		c0.2,0.1,0.4,0.1,0.5,0.2c0,0,0,0,0,0c0.2,0.1,0.4,0.2,0.6,0.3c0.2,0.1,0.4,0.2,0.6,0.4c0,0,0,0,0,0c0.2,0.1,0.3,0.3,0.5,0.4
		c0,0,0,0,0.1,0c0.2,0.1,0.3,0.3,0.5,0.4c0,0,0,0,0.1,0.1c0.2,0.2,0.3,0.3,0.5,0.5c0,0,0,0,0,0c0.2,0.2,0.3,0.4,0.5,0.5c0,0,0,0,0,0
		c0.2,0.2,0.3,0.4,0.5,0.6c0,0,0,0,0,0c0.1,0.2,0.3,0.4,0.4,0.5c0.1,0.1,0.2,0.2,0.2,0.4c0.1,0.1,0.1,0.2,0.2,0.3
		c0,0,0.1,0.1,0.1,0.1c0.1,0.2,0.2,0.3,0.3,0.5c0,0,0,0,0,0.1c0.1,0.2,0.2,0.4,0.3,0.7c0,0,0,0,0,0c0.1,0.2,0.2,0.4,0.3,0.7
		c0,0,0,0,0,0c0.1,0.2,0.2,0.4,0.2,0.7c0,0,0,0,0,0c0.1,0.2,0.1,0.4,0.2,0.6c0,0,0,0,0,0.1c0.1,0.2,0.1,0.4,0.1,0.7c0,0,0,0,0,0
		c0,0.2,0.1,0.4,0.1,0.7c0,0,0,0,0,0.1c0,0.2,0,0.4,0,0.7c0,0.2,0,0.4,0,0.6c0,0,0,0,0,0.1c0,0.2,0,0.4-0.1,0.5c0,0,0,0,0,0.1
		c0,0.2-0.1,0.3-0.1,0.5c0,0,0,0.1,0,0.1c0,0.1-0.1,0.3-0.2,0.4c0,0,0,0,0,0c-0.1,0.1-0.1,0.3-0.2,0.4c0,0,0,0,0,0
		c-0.1,0.1-0.1,0.2-0.2,0.3c0,0-0.1,0.1-0.1,0.1c-0.1,0.1-0.1,0.1-0.2,0.2c0,0-0.1,0.1-0.1,0.1c-0.1,0.1-0.2,0.2-0.3,0.2l18.7-10.9
		c0.1-0.1,0.2-0.1,0.3-0.2c0,0,0.1-0.1,0.1-0.1c0.1-0.1,0.1-0.1,0.2-0.2c0,0,0.1-0.1,0.1-0.1c0.1-0.1,0.2-0.2,0.2-0.3c0,0,0,0,0,0
		c0,0,0,0,0,0c0.1-0.1,0.1-0.3,0.2-0.4c0,0,0,0,0,0c0,0,0,0,0,0c0-0.1,0.1-0.2,0.1-0.3c0,0,0-0.1,0-0.1c0,0,0-0.1,0-0.1
		c0,0,0,0,0-0.1c0-0.1,0.1-0.2,0.1-0.3c0,0,0-0.1,0-0.1c0,0,0,0,0-0.1c0,0,0-0.1,0-0.1c0-0.1,0-0.2,0-0.3c0-0.1,0-0.1,0-0.2
		c0,0,0,0,0-0.1c0,0,0,0,0-0.1c0-0.1,0-0.2,0-0.3c0-0.1,0-0.2,0-0.3c0,0,0,0,0,0C103.7,149.2,103.7,149.1,103.7,149z"/>
	<linearGradient id="XMLID_15_" gradientUnits="userSpaceOnUse" x1="9.1038" y1="172.3639" x2="84.4302" y2="172.3639">
		<stop  offset="0" style="stop-color:#3390BB"/>
		<stop  offset="1" style="stop-color:#3390BB"/>
	</linearGradient>
	<path id="XMLID_112_" class="st28" d="M84.4,157.9c-0.6-3.2-2.4-6.9-6.9-8.3c-9.6,4.7-56.4,27.8-64.3,31.9
		c-8.8,4.6-2.3,17.1,9.9,12.7C33.8,190.4,73.6,164.9,84.4,157.9z"/>
	<linearGradient id="XMLID_16_" gradientUnits="userSpaceOnUse" x1="53.0288" y1="157.8684" x2="80.8343" y2="157.8684">
		<stop  offset="0" style="stop-color:#3390BB"/>
		<stop  offset="1" style="stop-color:#3390BB"/>
	</linearGradient>
	<path id="XMLID_4_" class="st29" d="M79.9,150.8c0,0-22.6,11.3-25.5,12.5c-2.9,1.2-0.9,2.4,1.8,1.1s24.5-12.9,24.5-12.9L79.9,150.8
		z"/>
	
		<linearGradient id="XMLID_17_" gradientUnits="userSpaceOnUse" x1="1006.1741" y1="472.6846" x2="1012.3851" y2="472.6846" gradientTransform="matrix(0.6652 -0.3558 0.6768 1.265 -941.4822 -72.3046)">
		<stop  offset="0" style="stop-color:#3390BB"/>
		<stop  offset="1" style="stop-color:#3390BB"/>
	</linearGradient>
	<path id="XMLID_109_" class="st30" d="M51.9,165.4c0.2,0.4-0.6,1.2-1.7,1.8c-1.1,0.6-2.2,0.8-2.4,0.4c-0.2-0.4,0.6-1.2,1.7-1.8
		C50.6,165.3,51.7,165.1,51.9,165.4z"/>
	<defs>
		<filter id="Adobe_OpacityMaskFilter" filterUnits="userSpaceOnUse" x="116.2" y="70.6" width="76.2" height="65.2">
			<feFlood  style="flood-color:white;flood-opacity:1" result="back"/>
			<feBlend  in="SourceGraphic" in2="back" mode="normal"/>
		</filter>
	</defs>
	<mask maskUnits="userSpaceOnUse" x="116.2" y="70.6" width="76.2" height="65.2" id="XMLID_18_">
		<g id="XMLID_10_" class="st31">
			<defs>
				<filter id="Adobe_OpacityMaskFilter_1_" filterUnits="userSpaceOnUse" x="116.2" y="70.6" width="76.2" height="65.2">
					<feFlood  style="flood-color:white;flood-opacity:1" result="back"/>
					<feBlend  in="SourceGraphic" in2="back" mode="normal"/>
				</filter>
			</defs>
			<mask maskUnits="userSpaceOnUse" x="116.2" y="70.6" width="76.2" height="65.2" id="XMLID_18_">
				<g id="XMLID_41_" class="st32">
				</g>
			</mask>
			<linearGradient id="XMLID_19_" gradientUnits="userSpaceOnUse" x1="123.0093" y1="127.4077" x2="208.6004" y2="55.331">
				<stop  offset="0" style="stop-color:#FFFFFF"/>
				<stop  offset="1" style="stop-color:#000000"/>
			</linearGradient>
			<path id="XMLID_11_" class="st33" d="M168.9,70.6l-52.7,54.2c2.4,2.3,5.4,4.4,8.8,6.4c3.1,1.8,6.3,3.3,9.8,4.6l57.6-62.2
				C184.9,71.6,176.9,70.6,168.9,70.6z"/>
		</g>
	</mask>
	<linearGradient id="XMLID_20_" gradientUnits="userSpaceOnUse" x1="123.0093" y1="127.4077" x2="208.6004" y2="55.331">
		<stop  offset="0" style="stop-color:#FFFFFF"/>
		<stop  offset="1" style="stop-color:#FFFFFF"/>
	</linearGradient>
	<path id="XMLID_519_" class="st34" d="M168.9,70.6l-52.7,54.2c2.4,2.3,5.4,4.4,8.8,6.4c3.1,1.8,6.3,3.3,9.8,4.6l57.6-62.2
		C184.9,71.6,176.9,70.6,168.9,70.6z"/>
	<defs>
		<filter id="Adobe_OpacityMaskFilter_2_" filterUnits="userSpaceOnUse" x="145.2" y="76" width="69.1" height="64.8">
			<feFlood  style="flood-color:white;flood-opacity:1" result="back"/>
			<feBlend  in="SourceGraphic" in2="back" mode="normal"/>
		</filter>
	</defs>
	<mask maskUnits="userSpaceOnUse" x="145.2" y="76" width="69.1" height="64.8" id="XMLID_21_">
		<g id="XMLID_3_" class="st35">
			<defs>
				<filter id="Adobe_OpacityMaskFilter_3_" filterUnits="userSpaceOnUse" x="145.2" y="76" width="69.1" height="64.8">
					<feFlood  style="flood-color:white;flood-opacity:1" result="back"/>
					<feBlend  in="SourceGraphic" in2="back" mode="normal"/>
				</filter>
			</defs>
			<mask maskUnits="userSpaceOnUse" x="145.2" y="76" width="69.1" height="64.8" id="XMLID_21_">
				<g id="XMLID_36_" class="st36">
				</g>
			</mask>
			<linearGradient id="XMLID_22_" gradientUnits="userSpaceOnUse" x1="136.6065" y1="143.5544" x2="222.1979" y2="71.4774">
				<stop  offset="0" style="stop-color:#FFFFFF"/>
				<stop  offset="1" style="stop-color:#000000"/>
			</linearGradient>
			<path id="XMLID_5_" class="st37" d="M211.3,80.9c-3.3-1.9-7-3.6-10.8-5l-55.3,62.9c3.6,0.8,7.3,1.5,11.1,1.9l58-58
				C213.3,82.2,212.3,81.5,211.3,80.9z"/>
		</g>
	</mask>
	<linearGradient id="XMLID_23_" gradientUnits="userSpaceOnUse" x1="136.6065" y1="143.5544" x2="222.1979" y2="71.4774">
		<stop  offset="0" style="stop-color:#FFFFFF"/>
		<stop  offset="1" style="stop-color:#FFFFFF"/>
	</linearGradient>
	<path id="XMLID_525_" class="st38" d="M211.3,80.9c-3.3-1.9-7-3.6-10.8-5l-55.3,62.9c3.6,0.8,7.3,1.5,11.1,1.9l58-58
		C213.3,82.2,212.3,81.5,211.3,80.9z"/>
</g>
</svg>
