<?xml version="1.0" encoding="utf-8"?>
<!-- Generator: Adobe Illustrator 22.1.0, SVG Export Plug-In . SVG Version: 6.00 Build 0)  -->
<svg version="1.1" id="Layer_1" xmlns="http://www.w3.org/2000/svg" xmlns:xlink="http://www.w3.org/1999/xlink" x="0px" y="0px"
	 viewBox="0 0 274 257" style="enable-background:new 0 0 274 257;" xml:space="preserve">
<style type="text/css">
	.st0{fill-rule:evenodd;clip-rule:evenodd;fill:#986D53;}
	.st1{fill:#F0D7A6;}
	.st2{fill-rule:evenodd;clip-rule:evenodd;fill:#663C27;}
	.st3{fill-rule:evenodd;clip-rule:evenodd;fill:#7A4C35;}
	.st4{fill-rule:evenodd;clip-rule:evenodd;fill:#F0F9FF;}
	.st5{fill-rule:evenodd;clip-rule:evenodd;fill:#C0DCF0;}
	.st6{opacity:0.6;}
	.st7{fill:#C0DCF0;}
	.st8{opacity:0.5;fill-rule:evenodd;clip-rule:evenodd;fill:#C0DCF0;}
	.st9{fill-rule:evenodd;clip-rule:evenodd;fill:#2CD1B0;}
	.st10{fill-rule:evenodd;clip-rule:evenodd;fill:#F7BE39;}
	.st11{fill-rule:evenodd;clip-rule:evenodd;fill:#E74C3C;}
	.st12{fill-rule:evenodd;clip-rule:evenodd;fill:#9DBACF;}
	.st13{fill-rule:evenodd;clip-rule:evenodd;fill:#5D85A4;}
	.st14{fill:#9DBACF;}
	.st15{opacity:0.67;fill-rule:evenodd;clip-rule:evenodd;fill:#FFFFFF;}
	.st16{fill:#335066;}
	.st17{fill-rule:evenodd;clip-rule:evenodd;fill:#335066;}
	.st18{fill:#CFDAE3;}
	.st19{fill-rule:evenodd;clip-rule:evenodd;fill:#C29202;}
	.st20{fill-rule:evenodd;clip-rule:evenodd;fill:#CFDAE3;}
	.st21{fill-rule:evenodd;clip-rule:evenodd;fill:#647384;}
	.st22{fill-rule:evenodd;clip-rule:evenodd;fill:#788B9D;}
	.st23{opacity:0.18;fill-rule:evenodd;clip-rule:evenodd;fill:#778D9F;}
	.st24{fill-rule:evenodd;clip-rule:evenodd;fill:#75A2EB;}
	.st25{fill-rule:evenodd;clip-rule:evenodd;fill:#E3F1FF;}
	.st26{opacity:0.35;fill-rule:evenodd;clip-rule:evenodd;fill:#75A2EB;}
	.st27{opacity:0;fill-rule:evenodd;clip-rule:evenodd;fill:#75A2EB;}
	.st28{opacity:0.6;fill-rule:evenodd;clip-rule:evenodd;fill:#75A2EB;}
	.st29{fill:#75A2EB;}
	.st30{opacity:0.42;clip-path:url(#SVGID_2_);fill-rule:evenodd;clip-rule:evenodd;fill:#1F73AB;}
	.st31{clip-path:url(#SVGID_2_);}
	.st32{opacity:0.42;clip-path:url(#SVGID_4_);fill-rule:evenodd;clip-rule:evenodd;fill:#1F73AB;}
	.st33{clip-path:url(#SVGID_4_);}
	.st34{opacity:0.42;clip-path:url(#SVGID_6_);fill-rule:evenodd;clip-rule:evenodd;fill:#1F73AB;}
	.st35{clip-path:url(#SVGID_6_);}
	.st36{opacity:0.42;clip-path:url(#SVGID_8_);fill-rule:evenodd;clip-rule:evenodd;fill:#1F73AB;}
	.st37{clip-path:url(#SVGID_8_);}
	.st38{opacity:0.42;clip-path:url(#SVGID_10_);fill-rule:evenodd;clip-rule:evenodd;fill:#1F73AB;}
	.st39{clip-path:url(#SVGID_10_);}
	.st40{opacity:0.42;clip-path:url(#SVGID_12_);fill-rule:evenodd;clip-rule:evenodd;fill:#1F73AB;}
	.st41{clip-path:url(#SVGID_12_);}
	.st42{opacity:0.42;clip-path:url(#SVGID_14_);fill-rule:evenodd;clip-rule:evenodd;fill:#1F73AB;}
	.st43{clip-path:url(#SVGID_14_);}
	.st44{opacity:0.42;clip-path:url(#SVGID_16_);fill-rule:evenodd;clip-rule:evenodd;fill:#1F73AB;}
	.st45{clip-path:url(#SVGID_16_);}
	.st46{opacity:0.42;clip-path:url(#SVGID_18_);fill-rule:evenodd;clip-rule:evenodd;fill:#1F73AB;}
	.st47{clip-path:url(#SVGID_18_);}
	.st48{opacity:0.42;clip-path:url(#SVGID_20_);fill-rule:evenodd;clip-rule:evenodd;fill:#1F73AB;}
	.st49{clip-path:url(#SVGID_20_);}
	.st50{opacity:0.42;clip-path:url(#SVGID_22_);fill-rule:evenodd;clip-rule:evenodd;fill:#1F73AB;}
	.st51{clip-path:url(#SVGID_22_);}
	.st52{opacity:0.42;clip-path:url(#SVGID_24_);fill-rule:evenodd;clip-rule:evenodd;fill:#1F73AB;}
	.st53{clip-path:url(#SVGID_24_);}
	.st54{opacity:0.42;clip-path:url(#SVGID_26_);fill-rule:evenodd;clip-rule:evenodd;fill:#1F73AB;}
	.st55{clip-path:url(#SVGID_26_);}
	.st56{opacity:0.42;clip-path:url(#SVGID_28_);fill-rule:evenodd;clip-rule:evenodd;fill:#1F73AB;}
	.st57{clip-path:url(#SVGID_28_);}
	.st58{opacity:0.42;clip-path:url(#SVGID_30_);fill-rule:evenodd;clip-rule:evenodd;fill:#1F73AB;}
	.st59{clip-path:url(#SVGID_30_);}
	.st60{opacity:0.42;clip-path:url(#SVGID_32_);fill-rule:evenodd;clip-rule:evenodd;fill:#1F73AB;}
	.st61{clip-path:url(#SVGID_32_);}
	.st62{fill:#FF6969;}
	.st63{fill-rule:evenodd;clip-rule:evenodd;fill:#FF6969;}
</style>
<g>
	<path class="st0" d="M203.8,227c3.9,2.3,26.1,15,30,17.3c3.9,2.3,7.8,4.5,11.8,6.8c4.9,2.8,12.9,2.8,17.9,0l0,0
		c4.9-2.8,5-7.5,0.1-10.3c-3.9-2.3-7.9-4.5-11.8-6.8c-3.9-2.3-26.1-15-30-17.3C215.8,220.1,209.8,223.6,203.8,227L203.8,227z"/>
	<g>
		<path class="st1" d="M254.4,252c-0.2,0-0.5,0-0.7,0c-0.2,0-0.4-0.2-0.4-0.4c0-0.2,0.2-0.4,0.4-0.4c0.2,0,0.4,0,0.7,0l0.1,0
			c0.2,0,0.4,0.2,0.4,0.4c0,0.2-0.2,0.4-0.4,0.4L254.4,252z M256.8,251.8c-0.2,0-0.4-0.1-0.4-0.3c0-0.2,0.1-0.4,0.3-0.4
			c0.2,0,0.5-0.1,0.7-0.1c0.2,0,0.4,0.1,0.4,0.3c0,0.2-0.1,0.4-0.3,0.4C257.4,251.8,257.1,251.8,256.8,251.8
			C256.9,251.8,256.8,251.8,256.8,251.8z M251.5,251.8C251.4,251.8,251.4,251.8,251.5,251.8c-0.3-0.1-0.6-0.1-0.8-0.2
			c-0.2,0-0.3-0.3-0.3-0.5c0-0.2,0.3-0.3,0.5-0.3c0.2,0.1,0.5,0.1,0.7,0.2c0.2,0,0.3,0.2,0.3,0.4
			C251.8,251.6,251.6,251.8,251.5,251.8z M259.8,251.1c-0.2,0-0.3-0.1-0.4-0.3c-0.1-0.2,0-0.4,0.2-0.5c0.2-0.1,0.5-0.2,0.7-0.3
			c0.2-0.1,0.4,0,0.5,0.2c0.1,0.2,0,0.4-0.2,0.5c-0.2,0.1-0.5,0.2-0.7,0.3C259.9,251.1,259.9,251.1,259.8,251.1z M248.5,250.9
			c-0.1,0-0.1,0-0.2,0c-0.2-0.1-0.5-0.2-0.7-0.3c-0.2-0.1-0.3-0.3-0.2-0.5c0.1-0.2,0.3-0.3,0.5-0.2c0.2,0.1,0.4,0.2,0.7,0.3
			c0.2,0.1,0.3,0.3,0.2,0.5C248.8,250.8,248.7,250.9,248.5,250.9z M262.5,249.6c-0.1,0-0.2,0-0.3-0.1c-0.1-0.2-0.1-0.4,0.1-0.5
			c0.2-0.2,0.4-0.3,0.5-0.5c0.1-0.2,0.4-0.2,0.5,0c0.2,0.1,0.2,0.4,0,0.5c-0.2,0.2-0.4,0.4-0.6,0.5
			C262.7,249.6,262.6,249.6,262.5,249.6z M245.8,249.4c-0.1,0-0.1,0-0.2-0.1L245,249c-0.2-0.1-0.2-0.3-0.1-0.5
			c0.1-0.2,0.3-0.2,0.5-0.1l0.7,0.4c0.2,0.1,0.2,0.3,0.1,0.5C246.1,249.3,246,249.4,245.8,249.4z M243.2,247.9c-0.1,0-0.1,0-0.2-0.1
			l-0.7-0.4c-0.2-0.1-0.2-0.3-0.1-0.5c0.1-0.2,0.3-0.2,0.5-0.1l0.7,0.4c0.2,0.1,0.2,0.3,0.1,0.5
			C243.4,247.8,243.3,247.9,243.2,247.9z M264.3,247.2c0,0-0.1,0-0.1,0c-0.2-0.1-0.3-0.3-0.3-0.5c0.1-0.2,0.1-0.4,0.1-0.7
			c0-0.2,0.2-0.4,0.4-0.4c0.2,0,0.4,0.2,0.4,0.4c0,0.3-0.1,0.6-0.1,0.8C264.6,247.1,264.4,247.2,264.3,247.2z M240.5,246.3
			c-0.1,0-0.1,0-0.2-0.1l-0.7-0.4c-0.2-0.1-0.2-0.3-0.1-0.5c0.1-0.2,0.3-0.2,0.5-0.1l0.7,0.4c0.2,0.1,0.2,0.3,0.1,0.5
			C240.8,246.3,240.6,246.3,240.5,246.3z M237.8,244.8c-0.1,0-0.1,0-0.2-0.1l-0.7-0.4c-0.2-0.1-0.2-0.3-0.1-0.5
			c0.1-0.2,0.3-0.2,0.5-0.1l0.7,0.4c0.2,0.1,0.2,0.3,0.1,0.5C238.1,244.7,238,244.8,237.8,244.8z M263.8,244.3
			c-0.1,0-0.2-0.1-0.3-0.2c-0.1-0.2-0.3-0.4-0.4-0.6c-0.1-0.2-0.1-0.4,0-0.5c0.2-0.1,0.4-0.1,0.5,0c0.2,0.2,0.4,0.4,0.5,0.7
			c0.1,0.2,0.1,0.4-0.1,0.5C263.9,244.2,263.9,244.3,263.8,244.3z M235.2,243.2c-0.1,0-0.1,0-0.2-0.1l-0.7-0.4
			c-0.2-0.1-0.2-0.3-0.1-0.5c0.1-0.2,0.3-0.2,0.5-0.1l0.7,0.4c0.2,0.1,0.2,0.3,0.1,0.5C235.4,243.2,235.3,243.2,235.2,243.2z
			 M261.5,242.2c-0.1,0-0.1,0-0.2-0.1l-0.7-0.4c-0.2-0.1-0.2-0.3-0.1-0.5c0.1-0.2,0.3-0.2,0.5-0.1l0.7,0.4c0.2,0.1,0.2,0.3,0.1,0.5
			C261.8,242.2,261.6,242.2,261.5,242.2z M232.5,241.7c-0.1,0-0.1,0-0.2-0.1l-0.7-0.4c-0.2-0.1-0.2-0.3-0.1-0.5
			c0.1-0.2,0.3-0.2,0.5-0.1l0.7,0.4c0.2,0.1,0.2,0.3,0.1,0.5C232.8,241.6,232.6,241.7,232.5,241.7z M258.8,240.7
			c-0.1,0-0.1,0-0.2-0.1l-0.7-0.4c-0.2-0.1-0.2-0.3-0.1-0.5c0.1-0.2,0.3-0.2,0.5-0.1l0.7,0.4c0.2,0.1,0.2,0.3,0.1,0.5
			C259.1,240.6,259,240.7,258.8,240.7z M229.8,240.1c-0.1,0-0.1,0-0.2-0.1l-0.7-0.4c-0.2-0.1-0.2-0.3-0.1-0.5
			c0.1-0.2,0.3-0.2,0.5-0.1l0.7,0.4c0.2,0.1,0.2,0.3,0.1,0.5C230.1,240.1,230,240.1,229.8,240.1z M256.2,239.1c-0.1,0-0.1,0-0.2-0.1
			l-0.7-0.4c-0.2-0.1-0.2-0.3-0.1-0.5c0.1-0.2,0.3-0.2,0.5-0.1l0.7,0.4c0.2,0.1,0.2,0.3,0.1,0.5
			C256.4,239.1,256.3,239.1,256.2,239.1z M227.2,238.6c-0.1,0-0.1,0-0.2-0.1l-0.7-0.4c-0.2-0.1-0.2-0.3-0.1-0.5
			c0.1-0.2,0.3-0.2,0.5-0.1l0.7,0.4c0.2,0.1,0.2,0.3,0.1,0.5C227.4,238.5,227.3,238.6,227.2,238.6z M253.5,237.6
			c-0.1,0-0.1,0-0.2-0.1l-0.7-0.4c-0.2-0.1-0.2-0.3-0.1-0.5c0.1-0.2,0.3-0.2,0.5-0.1l0.7,0.4c0.2,0.1,0.2,0.3,0.1,0.5
			C253.8,237.5,253.6,237.6,253.5,237.6z M224.5,237c-0.1,0-0.1,0-0.2-0.1l-0.7-0.4c-0.2-0.1-0.2-0.3-0.1-0.5
			c0.1-0.2,0.3-0.2,0.5-0.1l0.7,0.4c0.2,0.1,0.2,0.3,0.1,0.5C224.8,237,224.6,237,224.5,237z M250.8,236.1c-0.1,0-0.1,0-0.2-0.1
			l-0.7-0.4c-0.2-0.1-0.2-0.3-0.1-0.5c0.1-0.2,0.3-0.2,0.5-0.1l0.7,0.4c0.2,0.1,0.2,0.3,0.1,0.5C251.1,236,251,236.1,250.8,236.1z
			 M221.8,235.5c-0.1,0-0.1,0-0.2-0.1L221,235c-0.2-0.1-0.2-0.3-0.1-0.5c0.1-0.2,0.3-0.2,0.5-0.1l0.7,0.4c0.2,0.1,0.2,0.3,0.1,0.5
			C222.1,235.4,222,235.5,221.8,235.5z M248.2,234.5c-0.1,0-0.1,0-0.2-0.1l-0.7-0.4c-0.2-0.1-0.2-0.3-0.1-0.5
			c0.1-0.2,0.3-0.2,0.5-0.1l0.7,0.4c0.2,0.1,0.2,0.3,0.1,0.5C248.4,234.5,248.3,234.5,248.2,234.5z M219.2,233.9
			c-0.1,0-0.1,0-0.2-0.1l-0.7-0.4c-0.2-0.1-0.2-0.3-0.1-0.5c0.1-0.2,0.3-0.2,0.5-0.1l0.7,0.4c0.2,0.1,0.2,0.3,0.1,0.5
			C219.4,233.8,219.3,233.9,219.2,233.9z M245.5,233c-0.1,0-0.1,0-0.2-0.1l-0.7-0.4c-0.2-0.1-0.2-0.3-0.1-0.5
			c0.1-0.2,0.3-0.2,0.5-0.1l0.7,0.4c0.2,0.1,0.2,0.3,0.1,0.5C245.8,232.9,245.6,233,245.5,233z M216.5,232.3c-0.1,0-0.1,0-0.2-0.1
			l-0.6-0.3l0.1-0.4l0.2-0.3l-0.2,0.3l0.3-0.3l0.6,0.4c0.2,0.1,0.2,0.3,0.1,0.5C216.8,232.3,216.7,232.3,216.5,232.3z M242.8,231.4
			c-0.1,0-0.1,0-0.2-0.1L242,231c-0.2-0.1-0.2-0.3-0.1-0.5c0.1-0.2,0.3-0.2,0.5-0.1l0.7,0.4c0.2,0.1,0.2,0.3,0.1,0.5
			C243.1,231.3,243,231.4,242.8,231.4z M213.9,230.8c-0.1,0-0.1,0-0.2-0.1l-0.7-0.4c-0.2-0.1-0.2-0.3-0.1-0.5
			c0.1-0.2,0.3-0.2,0.5-0.1l0.7,0.4c0.2,0.1,0.2,0.3,0.1,0.5C214.1,230.7,214,230.8,213.9,230.8z M240.2,229.8c-0.1,0-0.1,0-0.2-0.1
			l-0.7-0.4c-0.2-0.1-0.2-0.3-0.1-0.5c0.1-0.2,0.3-0.2,0.5-0.1l0.7,0.4c0.2,0.1,0.2,0.3,0.1,0.5
			C240.4,229.8,240.3,229.8,240.2,229.8z M211.2,229.2c-0.1,0-0.1,0-0.2-0.1l-0.7-0.4c-0.2-0.1-0.2-0.3-0.1-0.5
			c0.1-0.2,0.3-0.2,0.5-0.1l0.7,0.4c0.2,0.1,0.2,0.3,0.1,0.5C211.5,229.2,211.3,229.2,211.2,229.2z M237.3,228.2l0.2-0.3
			L237.3,228.2l-0.7-0.4c-0.2-0.1-0.2-0.3-0.1-0.5c0.1-0.2,0.3-0.2,0.5-0.1l0.6,0.4L237.3,228.2z M208.5,227.7c-0.1,0-0.1,0-0.2-0.1
			l-0.7-0.4c-0.2-0.1-0.2-0.3-0.1-0.5c0.1-0.2,0.3-0.2,0.5-0.1l0.7,0.4c0.2,0.1,0.2,0.3,0.1,0.5
			C208.8,227.6,208.7,227.7,208.5,227.7z M234.9,226.7c-0.1,0-0.1,0-0.2-0.1l-0.7-0.4c-0.2-0.1-0.2-0.3-0.1-0.5
			c0.1-0.2,0.3-0.2,0.5-0.1l0.7,0.4c0.2,0.1,0.2,0.3,0.1,0.5C235.1,226.7,235,226.7,234.9,226.7z M205.9,226.1c-0.1,0-0.1,0-0.2-0.1
			l-0.7-0.4c-0.2-0.1-0.2-0.3-0.1-0.5c0.1-0.2,0.3-0.2,0.5-0.1l0.7,0.4c0.2,0.1,0.2,0.3,0.1,0.5C206.1,226,206,226.1,205.9,226.1z
			 M232.2,225.2c-0.1,0-0.1,0-0.2-0.1l-0.7-0.4c-0.2-0.1-0.2-0.3-0.1-0.5c0.1-0.2,0.3-0.2,0.5-0.1l0.7,0.4c0.2,0.1,0.2,0.3,0.1,0.5
			C232.5,225.1,232.3,225.2,232.2,225.2z M229.5,223.6c-0.1,0-0.1,0-0.2-0.1l-0.7-0.4c-0.2-0.1-0.2-0.3-0.1-0.5
			c0.1-0.2,0.3-0.2,0.5-0.1l0.7,0.4c0.2,0.1,0.2,0.3,0.1,0.5C229.8,223.5,229.7,223.6,229.5,223.6z M226.9,222.1
			c-0.1,0-0.1,0-0.2-0.1l-0.7-0.4c-0.2-0.1-0.2-0.3-0.1-0.5c0.1-0.2,0.3-0.2,0.5-0.1l0.7,0.4c0.2,0.1,0.2,0.3,0.1,0.5
			C227.1,222,227,222.1,226.9,222.1z M224.2,220.5c-0.1,0-0.1,0-0.2-0.1l-0.7-0.4c-0.2-0.1-0.2-0.3-0.1-0.5c0.1-0.2,0.3-0.2,0.5-0.1
			l0.7,0.4c0.2,0.1,0.2,0.3,0.1,0.5C224.5,220.4,224.3,220.5,224.2,220.5z M221.6,218.9c-0.1,0-0.1,0-0.2-0.1l-0.7-0.4
			c-0.2-0.1-0.2-0.3-0.1-0.5c0.1-0.2,0.3-0.2,0.5-0.1l0.7,0.4c0.2,0.1,0.2,0.3,0.1,0.5C221.8,218.9,221.7,218.9,221.6,218.9z
			 M218.9,217.4c-0.1,0-0.1,0-0.2-0.1l-0.1,0c-0.2-0.1-0.2-0.3-0.1-0.5c0.1-0.2,0.3-0.2,0.5-0.1l0.1,0c0.2,0.1,0.2,0.3,0.1,0.5
			C219.1,217.3,219,217.4,218.9,217.4z"/>
	</g>
	<path class="st2" d="M257.5,244.1c1.5,0.8,1.4,2.2-0.1,3c-1.5,0.8-3.8,0.9-5.3,0c-1.5-0.8-1.5-2.2,0-3.1
		C253.6,243.3,256,243.3,257.5,244.1L257.5,244.1z"/>
	<path class="st3" d="M256.7,245.1c1,0.6,1,1.5,0,2c-1,0.6-2.6,0.6-3.6,0c-1-0.6-1-1.5,0-2C254,244.6,255.7,244.6,256.7,245.1
		L256.7,245.1z"/>
	<path class="st3" d="M189.9,144.8l75.5,43.6c2.9,1.6,3.6,6.2-0.6,8.6l-90.6,52.3c-5.2,3-10.9,2.6-14.9,0.3L83.8,206L189.9,144.8z"
		/>
	<path class="st3" d="M84.4,206.4l-77.7-45c-2.9-1.6-3.6-6.2,0.6-8.6l90.6-52.3c5.2-3,10.9-2.6,14.9-0.3l77.7,45L84.4,206.4z"/>
	<g>
		<path class="st1" d="M165.7,249.5C165.7,249.5,165.7,249.5,165.7,249.5c-0.3,0-0.5,0-0.8-0.1c-0.2,0-0.4-0.2-0.3-0.4
			c0-0.2,0.2-0.4,0.4-0.3c0.2,0,0.5,0,0.7,0c0.2,0,0.4,0.2,0.4,0.4C166.1,249.3,165.9,249.5,165.7,249.5z M168,249.3
			c-0.2,0-0.4-0.1-0.4-0.3c0-0.2,0.1-0.4,0.3-0.4c0.2,0,0.5-0.1,0.7-0.1c0.2,0,0.4,0.1,0.5,0.3c0,0.2-0.1,0.4-0.3,0.5
			C168.6,249.2,168.4,249.3,168,249.3C168.1,249.3,168.1,249.3,168,249.3z M162.7,248.9c0,0-0.1,0-0.1,0c-0.3-0.1-0.5-0.2-0.7-0.3
			c-0.2-0.1-0.3-0.3-0.2-0.5c0.1-0.2,0.3-0.3,0.5-0.2c0.2,0.1,0.4,0.2,0.7,0.3c0.2,0.1,0.3,0.3,0.2,0.5
			C163,248.8,162.9,248.9,162.7,248.9z M171,248.5c-0.1,0-0.3-0.1-0.3-0.2c-0.1-0.2,0-0.4,0.2-0.5c0.2-0.1,0.4-0.2,0.6-0.3
			c0.2-0.1,0.4-0.1,0.5,0.1c0.1,0.2,0.1,0.4-0.1,0.5c-0.3,0.1-0.5,0.3-0.7,0.4C171.1,248.5,171,248.5,171,248.5z M160,247.5
			c-0.1,0-0.1,0-0.2-0.1l-0.7-0.4c-0.2-0.1-0.2-0.3-0.1-0.5c0.1-0.2,0.3-0.2,0.5-0.1l0.7,0.4c0.2,0.1,0.2,0.3,0.1,0.5
			C160.3,247.5,160.1,247.5,160,247.5z M173.6,247c-0.1,0-0.3-0.1-0.3-0.2c-0.1-0.2,0-0.4,0.1-0.5l0.7-0.4c0.2-0.1,0.4,0,0.5,0.1
			c0.1,0.2,0,0.4-0.1,0.5l-0.7,0.4C173.8,246.9,173.7,247,173.6,247z M157.3,246c-0.1,0-0.1,0-0.2-0.1l-0.7-0.4
			c-0.2-0.1-0.2-0.3-0.1-0.5c0.1-0.2,0.3-0.2,0.5-0.1l0.7,0.4c0.2,0.1,0.2,0.3,0.1,0.5C157.6,245.9,157.5,246,157.3,246z
			 M176.3,245.4c-0.1,0-0.3-0.1-0.3-0.2c-0.1-0.2,0-0.4,0.1-0.5l0.7-0.4c0.2-0.1,0.4,0,0.5,0.1c0.1,0.2,0,0.4-0.1,0.5l-0.7,0.4
			C176.4,245.4,176.4,245.4,176.3,245.4z M154.7,244.5c-0.1,0-0.1,0-0.2-0.1l-0.7-0.4c-0.2-0.1-0.2-0.3-0.1-0.5
			c0.1-0.2,0.3-0.2,0.5-0.1l0.7,0.4c0.2,0.1,0.2,0.3,0.1,0.5C155,244.4,154.8,244.5,154.7,244.5z M179,243.9c-0.1,0-0.3-0.1-0.3-0.2
			c-0.1-0.2,0-0.4,0.1-0.5l0.7-0.4c0.2-0.1,0.4,0,0.5,0.1c0.1,0.2,0,0.4-0.1,0.5l-0.7,0.4C179.1,243.9,179,243.9,179,243.9z
			 M152,242.9c-0.1,0-0.1,0-0.2-0.1l-0.7-0.4c-0.2-0.1-0.2-0.3-0.1-0.5c0.1-0.2,0.3-0.2,0.5-0.1l0.7,0.4c0.2,0.1,0.2,0.3,0.1,0.5
			C152.3,242.9,152.2,242.9,152,242.9z M181.6,242.4c-0.1,0-0.3-0.1-0.3-0.2c-0.1-0.2,0-0.4,0.1-0.5l0.7-0.4c0.2-0.1,0.4,0,0.5,0.1
			c0.1,0.2,0,0.4-0.1,0.5l-0.7,0.4C181.7,242.3,181.7,242.4,181.6,242.4z M149.4,241.4c-0.1,0-0.1,0-0.2-0.1l-0.7-0.4
			c-0.2-0.1-0.2-0.3-0.1-0.5c0.1-0.2,0.3-0.2,0.5-0.1l0.7,0.4c0.2,0.1,0.2,0.3,0.1,0.5C149.6,241.3,149.5,241.4,149.4,241.4z
			 M184.3,240.8c-0.1,0-0.3-0.1-0.3-0.2c-0.1-0.2,0-0.4,0.1-0.5l0.7-0.4c0.2-0.1,0.4,0,0.5,0.1c0.1,0.2,0,0.4-0.1,0.5l-0.7,0.4
			C184.4,240.8,184.3,240.8,184.3,240.8z M146.7,239.9c-0.1,0-0.1,0-0.2-0.1l-0.7-0.4c-0.2-0.1-0.2-0.3-0.1-0.5
			c0.1-0.2,0.3-0.2,0.5-0.1l0.7,0.4c0.2,0.1,0.2,0.3,0.1,0.5C147,239.8,146.8,239.9,146.7,239.9z M186.9,239.3
			c-0.1,0-0.3-0.1-0.3-0.2c-0.1-0.2,0-0.4,0.1-0.5l0.7-0.4c0.2-0.1,0.4,0,0.5,0.1c0.1,0.2,0,0.4-0.1,0.5l-0.7,0.4
			C187.1,239.3,187,239.3,186.9,239.3z M144.1,238.3c-0.1,0-0.1,0-0.2-0.1l-0.7-0.4c-0.2-0.1-0.2-0.3-0.1-0.5
			c0.1-0.2,0.3-0.2,0.5-0.1l0.7,0.4c0.2,0.1,0.2,0.3,0.1,0.5C144.3,238.3,144.2,238.3,144.1,238.3z M189.6,237.8
			c-0.1,0-0.3-0.1-0.3-0.2c-0.1-0.2,0-0.4,0.1-0.5l0.7-0.4c0.2-0.1,0.4,0,0.5,0.1c0.1,0.2,0,0.4-0.1,0.5l-0.7,0.4
			C189.7,237.7,189.7,237.8,189.6,237.8z M141.4,236.8c-0.1,0-0.1,0-0.2-0.1l-0.7-0.4c-0.2-0.1-0.2-0.3-0.1-0.5
			c0.1-0.2,0.3-0.2,0.5-0.1l0.7,0.4c0.2,0.1,0.2,0.3,0.1,0.5C141.7,236.7,141.5,236.8,141.4,236.8z M192.2,236.2
			c-0.1,0-0.3-0.1-0.3-0.2c-0.1-0.2,0-0.4,0.1-0.5l0.7-0.4c0.2-0.1,0.4,0,0.5,0.1c0.1,0.2,0,0.4-0.1,0.5l-0.7,0.4
			C192.4,236.2,192.3,236.2,192.2,236.2z M138.7,235.3c-0.1,0-0.1,0-0.2-0.1l-0.7-0.4c-0.2-0.1-0.2-0.3-0.1-0.5
			c0.1-0.2,0.3-0.2,0.5-0.1l0.7,0.4c0.2,0.1,0.2,0.3,0.1,0.5C139,235.2,138.9,235.3,138.7,235.3z M194.9,234.7
			c-0.1,0-0.3-0.1-0.3-0.2c-0.1-0.2,0-0.4,0.1-0.5l0.7-0.4c0.2-0.1,0.4,0,0.5,0.1c0.1,0.2,0,0.4-0.1,0.5l-0.7,0.4
			C195,234.7,195,234.7,194.9,234.7z M136.1,233.7c-0.1,0-0.1,0-0.2-0.1l-0.7-0.4c-0.2-0.1-0.2-0.3-0.1-0.5c0.1-0.2,0.3-0.2,0.5-0.1
			l0.7,0.4c0.2,0.1,0.2,0.3,0.1,0.5C136.3,233.7,136.2,233.7,136.1,233.7z M197.6,233.1c-0.1,0-0.3-0.1-0.3-0.2
			c-0.1-0.2,0-0.4,0.1-0.5l0.7-0.4c0.2-0.1,0.4,0,0.5,0.1c0.1,0.2,0,0.4-0.1,0.5l-0.7,0.4C197.7,233.1,197.6,233.1,197.6,233.1z
			 M133.4,232.2c-0.1,0-0.1,0-0.2-0.1l-0.7-0.4c-0.2-0.1-0.2-0.3-0.1-0.5c0.1-0.2,0.3-0.2,0.5-0.1l0.7,0.4c0.2,0.1,0.2,0.3,0.1,0.5
			C133.7,232.1,133.6,232.2,133.4,232.2z M200.2,231.6c-0.1,0-0.3-0.1-0.3-0.2c-0.1-0.2,0-0.4,0.1-0.5l0.7-0.4
			c0.2-0.1,0.4,0,0.5,0.1c0.1,0.2,0,0.4-0.1,0.5l-0.7,0.4C200.3,231.6,200.3,231.6,200.2,231.6z M130.8,230.7c-0.1,0-0.1,0-0.2-0.1
			l-0.7-0.4c-0.2-0.1-0.2-0.3-0.1-0.5c0.1-0.2,0.3-0.2,0.5-0.1l0.7,0.4c0.2,0.1,0.2,0.3,0.1,0.5C131,230.6,130.9,230.7,130.8,230.7z
			 M202.9,230.1c-0.1,0-0.3-0.1-0.3-0.2c-0.1-0.2,0-0.4,0.1-0.5l0.7-0.4c0.2-0.1,0.4,0,0.5,0.1c0.1,0.2,0,0.4-0.1,0.5l-0.7,0.4
			C203,230.1,202.9,230.1,202.9,230.1z M128.1,229.1c-0.1,0-0.1,0-0.2-0.1l-0.7-0.4c-0.2-0.1-0.2-0.3-0.1-0.5
			c0.1-0.2,0.3-0.2,0.5-0.1l0.7,0.4c0.2,0.1,0.2,0.3,0.1,0.5C128.4,229.1,128.2,229.1,128.1,229.1z M205.5,228.5
			c-0.1,0-0.3-0.1-0.3-0.2c-0.1-0.2,0-0.4,0.1-0.5l0.7-0.4c0.2-0.1,0.4,0,0.5,0.1c0.1,0.2,0,0.4-0.1,0.5l-0.7,0.4
			C205.7,228.5,205.6,228.5,205.5,228.5z M125.5,227.6c-0.1,0-0.1,0-0.2-0.1l-0.7-0.4c-0.2-0.1-0.2-0.3-0.1-0.5
			c0.1-0.2,0.3-0.2,0.5-0.1l0.7,0.4c0.2,0.1,0.2,0.3,0.1,0.5C125.7,227.5,125.6,227.6,125.5,227.6z M208.2,227
			c-0.1,0-0.3-0.1-0.3-0.2c-0.1-0.2,0-0.4,0.1-0.5l0.7-0.4c0.2-0.1,0.4,0,0.5,0.1c0.1,0.2,0,0.4-0.1,0.5l-0.7,0.4
			C208.3,227,208.3,227,208.2,227z M122.8,226.1c-0.1,0-0.1,0-0.2-0.1l-0.7-0.4c-0.2-0.1-0.2-0.3-0.1-0.5c0.1-0.2,0.3-0.2,0.5-0.1
			l0.7,0.4c0.2,0.1,0.2,0.3,0.1,0.5C123.1,226,122.9,226.1,122.8,226.1z M210.8,225.5c-0.1,0-0.3-0.1-0.3-0.2
			c-0.1-0.2,0-0.4,0.1-0.5l0.7-0.4c0.2-0.1,0.4,0,0.5,0.1c0.1,0.2,0,0.4-0.1,0.5l-0.7,0.4C211,225.5,210.9,225.5,210.8,225.5z
			 M120.1,224.5c-0.1,0-0.1,0-0.2-0.1l-0.7-0.4c-0.2-0.1-0.2-0.3-0.1-0.5c0.1-0.2,0.3-0.2,0.5-0.1l0.7,0.4c0.2,0.1,0.2,0.3,0.1,0.5
			C120.4,224.5,120.3,224.5,120.1,224.5z M213.5,223.9c-0.1,0-0.3-0.1-0.3-0.2c-0.1-0.2,0-0.4,0.1-0.5l0.7-0.4
			c0.2-0.1,0.4,0,0.5,0.1c0.1,0.2,0,0.4-0.1,0.5l-0.7,0.4C213.6,223.9,213.6,223.9,213.5,223.9z M117.5,223c-0.1,0-0.1,0-0.2-0.1
			l-0.7-0.4c-0.2-0.1-0.2-0.3-0.1-0.5c0.1-0.2,0.3-0.2,0.5-0.1l0.7,0.4c0.2,0.1,0.2,0.3,0.1,0.5C117.7,222.9,117.6,223,117.5,223z
			 M216.2,222.4c-0.1,0-0.3-0.1-0.3-0.2c-0.1-0.2,0-0.4,0.1-0.5l0.7-0.4c0.2-0.1,0.4,0,0.5,0.1c0.1,0.2,0,0.4-0.1,0.5l-0.7,0.4
			C216.3,222.4,216.2,222.4,216.2,222.4z M114.8,221.5c-0.1,0-0.1,0-0.2-0.1L114,221c-0.2-0.1-0.2-0.3-0.1-0.5
			c0.1-0.2,0.3-0.2,0.5-0.1l0.7,0.4c0.2,0.1,0.2,0.3,0.1,0.5C115.1,221.4,115,221.5,114.8,221.5z M218.8,220.9
			c-0.1,0-0.3-0.1-0.3-0.2c-0.1-0.2,0-0.4,0.1-0.5l0.7-0.4c0.2-0.1,0.4,0,0.5,0.1c0.1,0.2,0,0.4-0.1,0.5l-0.7,0.4
			C218.9,220.9,218.9,220.9,218.8,220.9z M112.2,219.9c-0.1,0-0.1,0-0.2-0.1l-0.7-0.4c-0.2-0.1-0.2-0.3-0.1-0.5
			c0.1-0.2,0.3-0.2,0.5-0.1l0.7,0.4c0.2,0.1,0.2,0.3,0.1,0.5C112.4,219.9,112.3,219.9,112.2,219.9z M221.5,219.3
			c-0.1,0-0.3-0.1-0.3-0.2c-0.1-0.2,0-0.4,0.1-0.5l0.7-0.4c0.2-0.1,0.4,0,0.5,0.1c0.1,0.2,0,0.4-0.1,0.5l-0.7,0.4
			C221.6,219.3,221.5,219.3,221.5,219.3z M109.5,218.4c-0.1,0-0.1,0-0.2-0.1l-0.7-0.4c-0.2-0.1-0.2-0.3-0.1-0.5
			c0.1-0.2,0.3-0.2,0.5-0.1l0.7,0.4c0.2,0.1,0.2,0.3,0.1,0.5C109.8,218.3,109.6,218.4,109.5,218.4z M224.1,217.8
			c-0.1,0-0.3-0.1-0.3-0.2c-0.1-0.2,0-0.4,0.1-0.5l0.7-0.4c0.2-0.1,0.4,0,0.5,0.1c0.1,0.2,0,0.4-0.1,0.5l-0.7,0.4
			C224.3,217.8,224.2,217.8,224.1,217.8z M106.9,216.9c-0.1,0-0.1,0-0.2-0.1l-0.7-0.4c-0.2-0.1-0.2-0.3-0.1-0.5
			c0.1-0.2,0.3-0.2,0.5-0.1l0.7,0.4c0.2,0.1,0.2,0.3,0.1,0.5C107.1,216.8,107,216.9,106.9,216.9z M226.8,216.3
			c-0.1,0-0.3-0.1-0.3-0.2c-0.1-0.2,0-0.4,0.1-0.5l0.7-0.4c0.2-0.1,0.4,0,0.5,0.1c0.1,0.2,0,0.4-0.1,0.5l-0.7,0.4
			C226.9,216.3,226.9,216.3,226.8,216.3z M104.2,215.3c-0.1,0-0.1,0-0.2-0.1l-0.7-0.4c-0.2-0.1-0.2-0.3-0.1-0.5
			c0.1-0.2,0.3-0.2,0.5-0.1l0.7,0.4c0.2,0.1,0.2,0.3,0.1,0.5C104.5,215.3,104.3,215.3,104.2,215.3z M229.4,214.7
			c-0.1,0-0.3-0.1-0.3-0.2c-0.1-0.2,0-0.4,0.1-0.5l0.7-0.4c0.2-0.1,0.4,0,0.5,0.1c0.1,0.2,0,0.4-0.1,0.5l-0.7,0.4
			C229.6,214.7,229.5,214.7,229.4,214.7z M101.5,213.8c-0.1,0-0.1,0-0.2-0.1l-0.7-0.4c-0.2-0.1-0.2-0.3-0.1-0.5
			c0.1-0.2,0.3-0.2,0.5-0.1l0.7,0.4c0.2,0.1,0.2,0.3,0.1,0.5C101.8,213.7,101.7,213.8,101.5,213.8z M232.1,213.2
			c-0.1,0-0.3-0.1-0.3-0.2c-0.1-0.2,0-0.4,0.1-0.5l0.7-0.4c0.2-0.1,0.4,0,0.5,0.1c0.1,0.2,0,0.4-0.1,0.5l-0.7,0.4
			C232.2,213.2,232.2,213.2,232.1,213.2z M98.9,212.3c-0.1,0-0.1,0-0.2-0.1l-0.7-0.4c-0.2-0.1-0.2-0.3-0.1-0.5
			c0.1-0.2,0.3-0.2,0.5-0.1l0.7,0.4c0.2,0.1,0.2,0.3,0.1,0.5C99.1,212.2,99,212.3,98.9,212.3z M234.8,211.7c-0.1,0-0.3-0.1-0.3-0.2
			c-0.1-0.2,0-0.4,0.1-0.5l0.7-0.4c0.2-0.1,0.4,0,0.5,0.1c0.1,0.2,0,0.4-0.1,0.5l-0.7,0.4C234.9,211.7,234.8,211.7,234.8,211.7z
			 M96.2,210.7c-0.1,0-0.1,0-0.2-0.1l-0.7-0.4c-0.2-0.1-0.2-0.3-0.1-0.5c0.1-0.2,0.3-0.2,0.5-0.1l0.7,0.4c0.2,0.1,0.2,0.3,0.1,0.5
			C96.5,210.7,96.4,210.7,96.2,210.7z M237.4,210.1c-0.1,0-0.3-0.1-0.3-0.2c-0.1-0.2,0-0.4,0.1-0.5l0.7-0.4c0.2-0.1,0.4,0,0.5,0.1
			c0.1,0.2,0,0.4-0.1,0.5l-0.7,0.4C237.5,210.1,237.5,210.1,237.4,210.1z M93.6,209.2c-0.1,0-0.1,0-0.2-0.1l-0.7-0.4
			c-0.2-0.1-0.2-0.3-0.1-0.5c0.1-0.2,0.3-0.2,0.5-0.1l0.7,0.4c0.2,0.1,0.2,0.3,0.1,0.5C93.8,209.1,93.7,209.2,93.6,209.2z
			 M240.1,208.6c-0.1,0-0.3-0.1-0.3-0.2c-0.1-0.2,0-0.4,0.1-0.5l0.7-0.4c0.2-0.1,0.4,0,0.5,0.1c0.1,0.2,0,0.4-0.1,0.5l-0.7,0.4
			C240.2,208.6,240.1,208.6,240.1,208.6z M90.9,207.7c-0.1,0-0.1,0-0.2-0.1l-0.7-0.4c-0.2-0.1-0.2-0.3-0.1-0.5
			c0.1-0.2,0.3-0.2,0.5-0.1l0.7,0.4c0.2,0.1,0.2,0.3,0.1,0.5C91.2,207.6,91,207.7,90.9,207.7z M242.7,207.1c-0.1,0-0.3-0.1-0.3-0.2
			c-0.1-0.2,0-0.4,0.1-0.5l0.7-0.4c0.2-0.1,0.4,0,0.5,0.1c0.1,0.2,0,0.4-0.1,0.5l-0.7,0.4C242.9,207.1,242.8,207.1,242.7,207.1z
			 M88.2,206.1c-0.1,0-0.1,0-0.2-0.1l-0.7-0.4c-0.2-0.1-0.2-0.3-0.1-0.5c0.1-0.2,0.3-0.2,0.5-0.1l0.7,0.4c0.2,0.1,0.2,0.3,0.1,0.5
			C88.5,206.1,88.4,206.1,88.2,206.1z M245.4,205.5c-0.1,0-0.3-0.1-0.3-0.2c-0.1-0.2,0-0.4,0.1-0.5l0.7-0.4c0.2-0.1,0.4,0,0.5,0.1
			c0.1,0.2,0,0.4-0.1,0.5l-0.7,0.4C245.5,205.5,245.5,205.5,245.4,205.5z M85.6,204.6c-0.1,0-0.1,0-0.2-0.1l-0.7-0.4
			c-0.2-0.1-0.2-0.3-0.1-0.5c0.1-0.2,0.3-0.2,0.5-0.1l0.7,0.4c0.2,0.1,0.2,0.3,0.1,0.5C85.9,204.5,85.7,204.6,85.6,204.6z M248,204
			c-0.1,0-0.3-0.1-0.3-0.2c-0.1-0.2,0-0.4,0.1-0.5l0.7-0.4c0.2-0.1,0.4,0,0.5,0.1c0.1,0.2,0,0.4-0.1,0.5l-0.7,0.4
			C248.2,204,248.1,204,248,204z M82.9,203.1c-0.1,0-0.1,0-0.2-0.1l-0.7-0.4c-0.2-0.1-0.2-0.3-0.1-0.5c0.1-0.2,0.3-0.2,0.5-0.1
			l0.7,0.4c0.2,0.1,0.2,0.3,0.1,0.5C83.2,203,83.1,203.1,82.9,203.1z M250.7,202.5c-0.1,0-0.3-0.1-0.3-0.2c-0.1-0.2,0-0.4,0.1-0.5
			l0.7-0.4c0.2-0.1,0.4,0,0.5,0.1c0.1,0.2,0,0.4-0.1,0.5l-0.7,0.4C250.8,202.5,250.8,202.5,250.7,202.5z M80.3,201.5
			c-0.1,0-0.1,0-0.2-0.1l-0.7-0.4c-0.2-0.1-0.2-0.3-0.1-0.5c0.1-0.2,0.3-0.2,0.5-0.1l0.7,0.4c0.2,0.1,0.2,0.3,0.1,0.5
			C80.5,201.5,80.4,201.5,80.3,201.5z M253.4,200.9c-0.1,0-0.3-0.1-0.3-0.2c-0.1-0.2,0-0.4,0.1-0.5l0.7-0.4c0.2-0.1,0.4,0,0.5,0.1
			c0.1,0.2,0,0.4-0.1,0.5l-0.7,0.4C253.5,200.9,253.4,200.9,253.4,200.9z M77.6,200c-0.1,0-0.1,0-0.2-0.1l-0.7-0.4
			c-0.2-0.1-0.2-0.3-0.1-0.5c0.1-0.2,0.3-0.2,0.5-0.1l0.7,0.4c0.2,0.1,0.2,0.3,0.1,0.5C77.9,199.9,77.8,200,77.6,200z M256,199.4
			c-0.1,0-0.3-0.1-0.3-0.2c-0.1-0.2,0-0.4,0.1-0.5l0.7-0.4c0.2-0.1,0.4,0,0.5,0.1c0.1,0.2,0,0.4-0.1,0.5l-0.7,0.4
			C256.2,199.4,256.1,199.4,256,199.4z M75,198.5c-0.1,0-0.1,0-0.2-0.1l-0.7-0.4c-0.2-0.1-0.2-0.3-0.1-0.5c0.1-0.2,0.3-0.2,0.5-0.1
			l0.7,0.4c0.2,0.1,0.2,0.3,0.1,0.5C75.2,198.4,75.1,198.5,75,198.5z M258.7,197.9c-0.1,0-0.3-0.1-0.3-0.2c-0.1-0.2,0-0.4,0.1-0.5
			l0.7-0.4c0.2-0.1,0.4,0,0.5,0.1c0.1,0.2,0,0.4-0.1,0.5l-0.7,0.4C258.8,197.8,258.7,197.9,258.7,197.9z M72.3,196.9
			c-0.1,0-0.1,0-0.2-0.1l-0.7-0.4c-0.2-0.1-0.2-0.3-0.1-0.5c0.1-0.2,0.3-0.2,0.5-0.1l0.7,0.4c0.2,0.1,0.2,0.3,0.1,0.5
			C72.6,196.9,72.4,196.9,72.3,196.9z M261.3,196.3c-0.1,0-0.3-0.1-0.3-0.2c-0.1-0.2,0-0.4,0.1-0.5l0.7-0.4c0.2-0.1,0.4,0,0.5,0.1
			c0.1,0.2,0,0.4-0.1,0.5l-0.7,0.4C261.5,196.3,261.4,196.3,261.3,196.3z M69.6,195.4c-0.1,0-0.1,0-0.2-0.1l-0.7-0.4
			c-0.2-0.1-0.2-0.3-0.1-0.5c0.1-0.2,0.3-0.2,0.5-0.1l0.7,0.4c0.2,0.1,0.2,0.3,0.1,0.5C69.9,195.3,69.8,195.4,69.6,195.4z
			 M263.8,194.5c-0.1,0-0.2,0-0.2-0.1c-0.2-0.1-0.2-0.4-0.1-0.5c0.2-0.2,0.3-0.4,0.4-0.6c0.1-0.2,0.3-0.3,0.5-0.2
			c0.2,0.1,0.3,0.3,0.2,0.5c-0.1,0.2-0.3,0.5-0.5,0.7C264,194.5,263.9,194.5,263.8,194.5z M67,193.9c-0.1,0-0.1,0-0.2-0.1l-0.7-0.4
			c-0.2-0.1-0.2-0.3-0.1-0.5c0.1-0.2,0.3-0.2,0.5-0.1l0.7,0.4c0.2,0.1,0.2,0.3,0.1,0.5C67.3,193.8,67.1,193.9,67,193.9z M64.3,192.3
			c-0.1,0-0.1,0-0.2-0.1l-0.7-0.4c-0.2-0.1-0.2-0.3-0.1-0.5c0.1-0.2,0.3-0.2,0.5-0.1l0.7,0.4c0.2,0.1,0.2,0.3,0.1,0.5
			C64.6,192.3,64.5,192.3,64.3,192.3z M264.3,191.7c-0.1,0-0.3-0.1-0.4-0.2c-0.1-0.2-0.2-0.4-0.3-0.6c-0.1-0.2-0.1-0.4,0.1-0.5
			c0.2-0.1,0.4-0.1,0.5,0.1c0.2,0.2,0.3,0.5,0.4,0.7c0.1,0.2,0,0.4-0.2,0.5C264.4,191.7,264.4,191.7,264.3,191.7z M61.7,190.8
			c-0.1,0-0.1,0-0.2-0.1l-0.7-0.4c-0.2-0.1-0.2-0.3-0.1-0.5c0.1-0.2,0.3-0.2,0.5-0.1l0.7,0.4c0.2,0.1,0.2,0.3,0.1,0.5
			C61.9,190.7,61.8,190.8,61.7,190.8z M262.1,189.6c-0.1,0-0.1,0-0.2-0.1l-0.7-0.4c-0.2-0.1-0.2-0.3-0.1-0.5
			c0.1-0.2,0.3-0.2,0.5-0.1l0.7,0.4c0.2,0.1,0.2,0.3,0.1,0.5C262.4,189.6,262.3,189.6,262.1,189.6z M59,189.3c-0.1,0-0.1,0-0.2-0.1
			l-0.7-0.4c-0.2-0.1-0.2-0.3-0.1-0.5c0.1-0.2,0.3-0.2,0.5-0.1l0.7,0.4c0.2,0.1,0.2,0.3,0.1,0.5C59.3,189.2,59.1,189.3,59,189.3z
			 M259.5,188.1c-0.1,0-0.1,0-0.2-0.1l-0.7-0.4c-0.2-0.1-0.2-0.3-0.1-0.5c0.1-0.2,0.3-0.2,0.5-0.1l0.7,0.4c0.2,0.1,0.2,0.3,0.1,0.5
			C259.7,188,259.6,188.1,259.5,188.1z M56.4,187.7c-0.1,0-0.1,0-0.2-0.1l-0.7-0.4c-0.2-0.1-0.2-0.3-0.1-0.5
			c0.1-0.2,0.3-0.2,0.5-0.1l0.7,0.4c0.2,0.1,0.2,0.3,0.1,0.5C56.6,187.7,56.5,187.7,56.4,187.7z M256.8,186.6c-0.1,0-0.1,0-0.2-0.1
			l-0.7-0.4c-0.2-0.1-0.2-0.3-0.1-0.5c0.1-0.2,0.3-0.2,0.5-0.1l0.7,0.4c0.2,0.1,0.2,0.3,0.1,0.5C257.1,186.5,257,186.6,256.8,186.6z
			 M53.7,186.2c-0.1,0-0.1,0-0.2-0.1l-0.7-0.4c-0.2-0.1-0.2-0.3-0.1-0.5c0.1-0.2,0.3-0.2,0.5-0.1l0.7,0.4c0.2,0.1,0.2,0.3,0.1,0.5
			C54,186.1,53.8,186.2,53.7,186.2z M254.2,185c-0.1,0-0.1,0-0.2-0.1l-0.7-0.4c-0.2-0.1-0.2-0.3-0.1-0.5c0.1-0.2,0.3-0.2,0.5-0.1
			l0.7,0.4c0.2,0.1,0.2,0.3,0.1,0.5C254.4,185,254.3,185,254.2,185z M51,184.7c-0.1,0-0.1,0-0.2-0.1l-0.7-0.4
			c-0.2-0.1-0.2-0.3-0.1-0.5c0.1-0.2,0.3-0.2,0.5-0.1l0.7,0.4c0.2,0.1,0.2,0.3,0.1,0.5C51.3,184.6,51.2,184.7,51,184.7z
			 M251.5,183.5c-0.1,0-0.1,0-0.2-0.1l-0.7-0.4c-0.2-0.1-0.2-0.3-0.1-0.5c0.1-0.2,0.3-0.2,0.5-0.1l0.7,0.4c0.2,0.1,0.2,0.3,0.1,0.5
			C251.8,183.4,251.6,183.5,251.5,183.5z M48.4,183.1c-0.1,0-0.1,0-0.2-0.1l-0.7-0.4c-0.2-0.1-0.2-0.3-0.1-0.5
			c0.1-0.2,0.3-0.2,0.5-0.1l0.7,0.4c0.2,0.1,0.2,0.3,0.1,0.5C48.6,183.1,48.5,183.1,48.4,183.1z M248.8,182c-0.1,0-0.1,0-0.2-0.1
			l-0.7-0.4c-0.2-0.1-0.2-0.3-0.1-0.5c0.1-0.2,0.3-0.2,0.5-0.1l0.7,0.4c0.2,0.1,0.2,0.3,0.1,0.5C249.1,181.9,249,182,248.8,182z
			 M45.7,181.6c-0.1,0-0.1,0-0.2-0.1l-0.7-0.4c-0.2-0.1-0.2-0.3-0.1-0.5c0.1-0.2,0.3-0.2,0.5-0.1l0.7,0.4c0.2,0.1,0.2,0.3,0.1,0.5
			C46,181.5,45.9,181.6,45.7,181.6z M246.2,180.4c-0.1,0-0.1,0-0.2-0.1l-0.7-0.4c-0.2-0.1-0.2-0.3-0.1-0.5c0.1-0.2,0.3-0.2,0.5-0.1
			l0.7,0.4c0.2,0.1,0.2,0.3,0.1,0.5C246.4,180.4,246.3,180.4,246.2,180.4z M43.1,180.1c-0.1,0-0.1,0-0.2-0.1l-0.7-0.4
			c-0.2-0.1-0.2-0.3-0.1-0.5c0.1-0.2,0.3-0.2,0.5-0.1l0.7,0.4c0.2,0.1,0.2,0.3,0.1,0.5C43.3,180,43.2,180.1,43.1,180.1z
			 M243.5,178.9c-0.1,0-0.1,0-0.2-0.1l-0.7-0.4c-0.2-0.1-0.2-0.3-0.1-0.5c0.1-0.2,0.3-0.2,0.5-0.1l0.7,0.4c0.2,0.1,0.2,0.3,0.1,0.5
			C243.8,178.8,243.7,178.9,243.5,178.9z M40.4,178.5c-0.1,0-0.1,0-0.2-0.1l-0.7-0.4c-0.2-0.1-0.2-0.3-0.1-0.5
			c0.1-0.2,0.3-0.2,0.5-0.1l0.7,0.4c0.2,0.1,0.2,0.3,0.1,0.5C40.7,178.5,40.5,178.5,40.4,178.5z M240.9,177.4c-0.1,0-0.1,0-0.2-0.1
			l-0.7-0.4c-0.2-0.1-0.2-0.3-0.1-0.5c0.1-0.2,0.3-0.2,0.5-0.1l0.7,0.4c0.2,0.1,0.2,0.3,0.1,0.5C241.1,177.3,241,177.4,240.9,177.4z
			 M37.8,177c-0.1,0-0.1,0-0.2-0.1l-0.7-0.4c-0.2-0.1-0.2-0.3-0.1-0.5c0.1-0.2,0.3-0.2,0.5-0.1l0.7,0.4c0.2,0.1,0.2,0.3,0.1,0.5
			C38,176.9,37.9,177,37.8,177z M238.2,175.8c-0.1,0-0.1,0-0.2-0.1l-0.7-0.4c-0.2-0.1-0.2-0.3-0.1-0.5c0.1-0.2,0.3-0.2,0.5-0.1
			l0.7,0.4c0.2,0.1,0.2,0.3,0.1,0.5C238.5,175.8,238.3,175.8,238.2,175.8z M35.1,175.5c-0.1,0-0.1,0-0.2-0.1l-0.7-0.4
			c-0.2-0.1-0.2-0.3-0.1-0.5c0.1-0.2,0.3-0.2,0.5-0.1l0.7,0.4c0.2,0.1,0.2,0.3,0.1,0.5C35.4,175.4,35.2,175.5,35.1,175.5z
			 M235.6,174.3c-0.1,0-0.1,0-0.2-0.1l-0.7-0.4c-0.2-0.1-0.2-0.3-0.1-0.5c0.1-0.2,0.3-0.2,0.5-0.1l0.7,0.4c0.2,0.1,0.2,0.3,0.1,0.5
			C235.8,174.2,235.7,174.3,235.6,174.3z M32.4,173.9c-0.1,0-0.1,0-0.2-0.1l-0.7-0.4c-0.2-0.1-0.2-0.3-0.1-0.5
			c0.1-0.2,0.3-0.2,0.5-0.1l0.7,0.4c0.2,0.1,0.2,0.3,0.1,0.5C32.7,173.9,32.6,173.9,32.4,173.9z M232.9,172.8c-0.1,0-0.1,0-0.2-0.1
			l-0.7-0.4c-0.2-0.1-0.2-0.3-0.1-0.5c0.1-0.2,0.3-0.2,0.5-0.1l0.7,0.4c0.2,0.1,0.2,0.3,0.1,0.5C233.2,172.7,233,172.8,232.9,172.8z
			 M29.8,172.4c-0.1,0-0.1,0-0.2-0.1l-0.7-0.4c-0.2-0.1-0.2-0.3-0.1-0.5c0.1-0.2,0.3-0.2,0.5-0.1l0.7,0.4c0.2,0.1,0.2,0.3,0.1,0.5
			C30,172.3,29.9,172.4,29.8,172.4z M230.2,171.2c-0.1,0-0.1,0-0.2-0.1l-0.7-0.4c-0.2-0.1-0.2-0.3-0.1-0.5c0.1-0.2,0.3-0.2,0.5-0.1
			l0.7,0.4c0.2,0.1,0.2,0.3,0.1,0.5C230.5,171.2,230.4,171.2,230.2,171.2z M27.1,170.9c-0.1,0-0.1,0-0.2-0.1l-0.7-0.4
			c-0.2-0.1-0.2-0.3-0.1-0.5c0.1-0.2,0.3-0.2,0.5-0.1l0.7,0.4c0.2,0.1,0.2,0.3,0.1,0.5C27.4,170.8,27.3,170.9,27.1,170.9z
			 M227.6,169.7c-0.1,0-0.1,0-0.2-0.1l-0.7-0.4c-0.2-0.1-0.2-0.3-0.1-0.5c0.1-0.2,0.3-0.2,0.5-0.1l0.7,0.4c0.2,0.1,0.2,0.3,0.1,0.5
			C227.8,169.6,227.7,169.7,227.6,169.7z M24.5,169.3c-0.1,0-0.1,0-0.2-0.1l-0.7-0.4c-0.2-0.1-0.2-0.3-0.1-0.5
			c0.1-0.2,0.3-0.2,0.5-0.1l0.7,0.4c0.2,0.1,0.2,0.3,0.1,0.5C24.7,169.3,24.6,169.3,24.5,169.3z M224.9,168.2c-0.1,0-0.1,0-0.2-0.1
			l-0.7-0.4c-0.2-0.1-0.2-0.3-0.1-0.5c0.1-0.2,0.3-0.2,0.5-0.1l0.7,0.4c0.2,0.1,0.2,0.3,0.1,0.5
			C225.2,168.1,225.1,168.2,224.9,168.2z M21.8,167.8c-0.1,0-0.1,0-0.2-0.1l-0.7-0.4c-0.2-0.1-0.2-0.3-0.1-0.5
			c0.1-0.2,0.3-0.2,0.5-0.1l0.7,0.4c0.2,0.1,0.2,0.3,0.1,0.5C22.1,167.7,21.9,167.8,21.8,167.8z M222.3,166.6c-0.1,0-0.1,0-0.2-0.1
			l-0.7-0.4c-0.2-0.1-0.2-0.3-0.1-0.5c0.1-0.2,0.3-0.2,0.5-0.1l0.7,0.4c0.2,0.1,0.2,0.3,0.1,0.5
			C222.5,166.6,222.4,166.6,222.3,166.6z M19.2,166.3c-0.1,0-0.1,0-0.2-0.1l-0.7-0.4c-0.2-0.1-0.2-0.3-0.1-0.5
			c0.1-0.2,0.3-0.2,0.5-0.1l0.7,0.4c0.2,0.1,0.2,0.3,0.1,0.5C19.4,166.2,19.3,166.3,19.2,166.3z M219.6,165.1c-0.1,0-0.1,0-0.2-0.1
			l-0.7-0.4c-0.2-0.1-0.2-0.3-0.1-0.5c0.1-0.2,0.3-0.2,0.5-0.1l0.7,0.4c0.2,0.1,0.2,0.3,0.1,0.5C219.9,165,219.7,165.1,219.6,165.1z
			 M16.5,164.7c-0.1,0-0.1,0-0.2-0.1l-0.7-0.4c-0.2-0.1-0.2-0.3-0.1-0.5c0.1-0.2,0.3-0.2,0.5-0.1l0.7,0.4c0.2,0.1,0.2,0.3,0.1,0.5
			C16.8,164.7,16.6,164.7,16.5,164.7z M217,163.6c-0.1,0-0.1,0-0.2-0.1l-0.7-0.4c-0.2-0.1-0.2-0.3-0.1-0.5c0.1-0.2,0.3-0.2,0.5-0.1
			l0.7,0.4c0.2,0.1,0.2,0.3,0.1,0.5C217.2,163.5,217.1,163.6,217,163.6z M13.8,163.2c-0.1,0-0.1,0-0.2-0.1l-0.7-0.4
			c-0.2-0.1-0.2-0.3-0.1-0.5c0.1-0.2,0.3-0.2,0.5-0.1l0.7,0.4c0.2,0.1,0.2,0.3,0.1,0.5C14.1,163.1,14,163.2,13.8,163.2z M214.3,162
			c-0.1,0-0.1,0-0.2-0.1l-0.7-0.4c-0.2-0.1-0.2-0.3-0.1-0.5c0.1-0.2,0.3-0.2,0.5-0.1l0.7,0.4c0.2,0.1,0.2,0.3,0.1,0.5
			C214.6,162,214.4,162,214.3,162z M11.2,161.7c-0.1,0-0.1,0-0.2-0.1l-0.7-0.4c-0.2-0.1-0.2-0.3-0.1-0.5c0.1-0.2,0.3-0.2,0.5-0.1
			l0.7,0.4c0.2,0.1,0.2,0.3,0.1,0.5C11.4,161.6,11.3,161.7,11.2,161.7z M211.6,160.5c-0.1,0-0.1,0-0.2-0.1l-0.7-0.4
			c-0.2-0.1-0.2-0.3-0.1-0.5c0.1-0.2,0.3-0.2,0.5-0.1l0.7,0.4c0.2,0.1,0.2,0.3,0.1,0.5C211.9,160.4,211.8,160.5,211.6,160.5z
			 M8.5,160.1c-0.1,0-0.1,0-0.2-0.1c-0.2-0.1-0.5-0.3-0.7-0.5c-0.2-0.1-0.2-0.4-0.1-0.5c0.1-0.2,0.4-0.2,0.5-0.1
			c0.2,0.1,0.4,0.3,0.6,0.4c0.2,0.1,0.2,0.3,0.1,0.5C8.8,160.1,8.7,160.1,8.5,160.1z M209,159c-0.1,0-0.1,0-0.2-0.1l-0.7-0.4
			c-0.2-0.1-0.2-0.3-0.1-0.5c0.1-0.2,0.3-0.2,0.5-0.1l0.7,0.4c0.2,0.1,0.2,0.3,0.1,0.5C209.2,158.9,209.1,159,209,159z M6.9,157.7
			C6.9,157.7,6.9,157.7,6.9,157.7c-0.2,0-0.4-0.2-0.4-0.4c0-0.3,0.1-0.6,0.2-0.9c0.1-0.2,0.3-0.3,0.5-0.2c0.2,0.1,0.3,0.3,0.2,0.5
			c-0.1,0.2-0.1,0.4-0.1,0.6C7.2,157.6,7.1,157.7,6.9,157.7z M206.3,157.4c-0.1,0-0.1,0-0.2-0.1l-0.7-0.4c-0.2-0.1-0.2-0.3-0.1-0.5
			c0.1-0.2,0.3-0.2,0.5-0.1l0.7,0.4c0.2,0.1,0.2,0.3,0.1,0.5C206.6,157.4,206.5,157.4,206.3,157.4z M203.7,155.9
			c-0.1,0-0.1,0-0.2-0.1l-0.7-0.4c-0.2-0.1-0.2-0.3-0.1-0.5c0.1-0.2,0.3-0.2,0.5-0.1l0.7,0.4c0.2,0.1,0.2,0.3,0.1,0.5
			C203.9,155.8,203.8,155.9,203.7,155.9z M8.5,155.2c-0.1,0-0.2-0.1-0.3-0.1c-0.1-0.2-0.1-0.4,0.1-0.5c0.2-0.2,0.4-0.3,0.7-0.5
			c0.2-0.1,0.4-0.1,0.5,0.1c0.1,0.2,0.1,0.4-0.1,0.5c-0.2,0.1-0.4,0.3-0.6,0.4C8.6,155.2,8.5,155.2,8.5,155.2z M201,154.4
			c-0.1,0-0.1,0-0.2-0.1l-0.7-0.4c-0.2-0.1-0.2-0.3-0.1-0.5c0.1-0.2,0.3-0.2,0.5-0.1l0.7,0.4c0.2,0.1,0.2,0.3,0.1,0.5
			C201.3,154.3,201.1,154.4,201,154.4z M11.1,153.6c-0.1,0-0.3-0.1-0.3-0.2c-0.1-0.2,0-0.4,0.1-0.5l0.7-0.4c0.2-0.1,0.4,0,0.5,0.1
			c0.1,0.2,0,0.4-0.1,0.5l-0.7,0.4C11.2,153.6,11.1,153.6,11.1,153.6z M198.3,152.8c-0.1,0-0.1,0-0.2-0.1l-0.7-0.4
			c-0.2-0.1-0.2-0.3-0.1-0.5c0.1-0.2,0.3-0.2,0.5-0.1l0.7,0.4c0.2,0.1,0.2,0.3,0.1,0.5C198.6,152.8,198.5,152.8,198.3,152.8z
			 M13.7,152.1c-0.1,0-0.3-0.1-0.3-0.2c-0.1-0.2,0-0.4,0.1-0.5l0.7-0.4c0.2-0.1,0.4,0,0.5,0.1c0.1,0.2,0,0.4-0.1,0.5l-0.7,0.4
			C13.9,152.1,13.8,152.1,13.7,152.1z M195.7,151.3c-0.1,0-0.1,0-0.2-0.1l-0.7-0.4c-0.2-0.1-0.2-0.3-0.1-0.5
			c0.1-0.2,0.3-0.2,0.5-0.1l0.7,0.4c0.2,0.1,0.2,0.3,0.1,0.5C196,151.2,195.8,151.3,195.7,151.3z M16.4,150.6
			c-0.1,0-0.3-0.1-0.3-0.2c-0.1-0.2,0-0.4,0.1-0.5l0.7-0.4c0.2-0.1,0.4,0,0.5,0.1c0.1,0.2,0,0.4-0.1,0.5l-0.7,0.4
			C16.5,150.5,16.4,150.6,16.4,150.6z M193,149.8c-0.1,0-0.1,0-0.2-0.1l-0.7-0.4c-0.2-0.1-0.2-0.3-0.1-0.5c0.1-0.2,0.3-0.2,0.5-0.1
			l0.7,0.4c0.2,0.1,0.2,0.3,0.1,0.5C193.3,149.7,193.2,149.8,193,149.8z M19,149c-0.1,0-0.3-0.1-0.3-0.2c-0.1-0.2,0-0.4,0.1-0.5
			l0.7-0.4c0.2-0.1,0.4,0,0.5,0.1c0.1,0.2,0,0.4-0.1,0.5l-0.7,0.4C19.2,149,19.1,149,19,149z M190.4,148.2c-0.1,0-0.1,0-0.2-0.1
			l-0.7-0.4c-0.2-0.1-0.2-0.3-0.1-0.5c0.1-0.2,0.3-0.2,0.5-0.1l0.7,0.4c0.2,0.1,0.2,0.3,0.1,0.5
			C190.6,148.2,190.5,148.2,190.4,148.2z M21.7,147.5c-0.1,0-0.3-0.1-0.3-0.2c-0.1-0.2,0-0.4,0.1-0.5l0.7-0.4c0.2-0.1,0.4,0,0.5,0.1
			c0.1,0.2,0,0.4-0.1,0.5l-0.7,0.4C21.8,147.5,21.8,147.5,21.7,147.5z M187.7,146.7c-0.1,0-0.1,0-0.2-0.1l-0.7-0.4
			c-0.2-0.1-0.2-0.3-0.1-0.5c0.1-0.2,0.3-0.2,0.5-0.1l0.7,0.4c0.2,0.1,0.2,0.3,0.1,0.5C188,146.6,187.8,146.7,187.7,146.7z
			 M24.4,146c-0.1,0-0.3-0.1-0.3-0.2c-0.1-0.2,0-0.4,0.1-0.5l0.7-0.4c0.2-0.1,0.4,0,0.5,0.1c0.1,0.2,0,0.4-0.1,0.5l-0.7,0.4
			C24.5,145.9,24.4,146,24.4,146z M185.5,145.4c-0.1,0-0.1,0-0.2-0.1l-0.7-0.4c0,0,0,0,0,0l-0.4-0.2c-0.2-0.1-0.2-0.3-0.1-0.5
			c0.1-0.2,0.3-0.2,0.5-0.1l0.7,0.4c0,0,0,0,0,0l0.4,0.2c0.2,0.1,0.2,0.3,0.1,0.5C185.7,145.3,185.6,145.4,185.5,145.4z M27,144.4
			c-0.1,0-0.3-0.1-0.3-0.2c-0.1-0.2,0-0.4,0.1-0.5l0.7-0.4c0.2-0.1,0.4,0,0.5,0.1c0.1,0.2,0,0.4-0.1,0.5l-0.7,0.4
			C27.1,144.4,27.1,144.4,27,144.4z M182.8,143.9c-0.1,0-0.1,0-0.2-0.1l-0.7-0.4c-0.2-0.1-0.2-0.3-0.1-0.5c0.1-0.2,0.3-0.2,0.5-0.1
			l0.7,0.4c0.2,0.1,0.2,0.3,0.1,0.5C183.1,143.8,183,143.9,182.8,143.9z M29.7,142.9c-0.1,0-0.3-0.1-0.3-0.2c-0.1-0.2,0-0.4,0.1-0.5
			l0.7-0.4c0.2-0.1,0.4,0,0.5,0.1c0.1,0.2,0,0.4-0.1,0.5l-0.7,0.4C29.8,142.9,29.7,142.9,29.7,142.9z M180.2,142.3
			c-0.1,0-0.1,0-0.2-0.1l-0.7-0.4c-0.2-0.1-0.2-0.3-0.1-0.5c0.1-0.2,0.3-0.2,0.5-0.1l0.7,0.4c0.2,0.1,0.2,0.3,0.1,0.5
			C180.4,142.3,180.3,142.3,180.2,142.3z M32.3,141.3c-0.1,0-0.3-0.1-0.3-0.2c-0.1-0.2,0-0.4,0.1-0.5l0.7-0.4c0.2-0.1,0.4,0,0.5,0.1
			c0.1,0.2,0,0.4-0.1,0.5l-0.7,0.4C32.5,141.3,32.4,141.3,32.3,141.3z M177.5,140.8c-0.1,0-0.1,0-0.2-0.1l-0.7-0.4
			c-0.2-0.1-0.2-0.3-0.1-0.5c0.1-0.2,0.3-0.2,0.5-0.1l0.7,0.4c0.2,0.1,0.2,0.3,0.1,0.5C177.8,140.7,177.6,140.8,177.5,140.8z
			 M35,139.8c-0.1,0-0.3-0.1-0.3-0.2c-0.1-0.2,0-0.4,0.1-0.5l0.7-0.4c0.2-0.1,0.4,0,0.5,0.1c0.1,0.2,0,0.4-0.1,0.5l-0.7,0.4
			C35.1,139.8,35,139.8,35,139.8z M174.9,139.3c-0.1,0-0.1,0-0.2-0.1l-0.7-0.4c-0.2-0.1-0.2-0.3-0.1-0.5c0.1-0.2,0.3-0.2,0.5-0.1
			l0.7,0.4c0.2,0.1,0.2,0.3,0.1,0.5C175.1,139.2,175,139.3,174.9,139.3z M37.6,138.3c-0.1,0-0.3-0.1-0.3-0.2c-0.1-0.2,0-0.4,0.1-0.5
			l0.7-0.4c0.2-0.1,0.4,0,0.5,0.1c0.1,0.2,0,0.4-0.1,0.5l-0.7,0.4C37.8,138.3,37.7,138.3,37.6,138.3z M172.2,137.8
			c-0.1,0-0.1,0-0.2-0.1l-0.7-0.4c-0.2-0.1-0.2-0.3-0.1-0.5c0.1-0.2,0.3-0.2,0.5-0.1l0.7,0.4c0.2,0.1,0.2,0.3,0.1,0.5
			C172.5,137.7,172.3,137.8,172.2,137.8z M40.3,136.7c-0.1,0-0.3-0.1-0.3-0.2c-0.1-0.2,0-0.4,0.1-0.5l0.7-0.4c0.2-0.1,0.4,0,0.5,0.1
			c0.1,0.2,0,0.4-0.1,0.5l-0.7,0.4C40.4,136.7,40.4,136.7,40.3,136.7z M169.5,136.2c-0.1,0-0.1,0-0.2-0.1l-0.7-0.4
			c-0.2-0.1-0.2-0.3-0.1-0.5c0.1-0.2,0.3-0.2,0.5-0.1l0.7,0.4c0.2,0.1,0.2,0.3,0.1,0.5C169.8,136.1,169.7,136.2,169.5,136.2z
			 M43,135.2c-0.1,0-0.3-0.1-0.3-0.2c-0.1-0.2,0-0.4,0.1-0.5l0.7-0.4c0.2-0.1,0.4,0,0.5,0.1c0.1,0.2,0,0.4-0.1,0.5l-0.7,0.4
			C43.1,135.2,43,135.2,43,135.2z M166.9,134.7c-0.1,0-0.1,0-0.2-0.1l-0.7-0.4c-0.2-0.1-0.2-0.3-0.1-0.5c0.1-0.2,0.3-0.2,0.5-0.1
			l0.7,0.4c0.2,0.1,0.2,0.3,0.1,0.5C167.1,134.6,167,134.7,166.9,134.7z M45.6,133.7c-0.1,0-0.3-0.1-0.3-0.2c-0.1-0.2,0-0.4,0.1-0.5
			l0.7-0.4c0.2-0.1,0.4,0,0.5,0.1c0.1,0.2,0,0.4-0.1,0.5l-0.7,0.4C45.7,133.7,45.7,133.7,45.6,133.7z M164.2,133.2
			c-0.1,0-0.1,0-0.2-0.1l-0.7-0.4c-0.2-0.1-0.2-0.3-0.1-0.5c0.1-0.2,0.3-0.2,0.5-0.1l0.7,0.4c0.2,0.1,0.2,0.3,0.1,0.5
			C164.5,133.1,164.4,133.2,164.2,133.2z M48.3,132.1c-0.1,0-0.3-0.1-0.3-0.2c-0.1-0.2,0-0.4,0.1-0.5l0.7-0.4c0.2-0.1,0.4,0,0.5,0.1
			c0.1,0.2,0,0.4-0.1,0.5l-0.7,0.4C48.4,132.1,48.3,132.1,48.3,132.1z M161.6,131.6c-0.1,0-0.1,0-0.2-0.1l-0.7-0.4
			c-0.2-0.1-0.2-0.3-0.1-0.5c0.1-0.2,0.3-0.2,0.5-0.1l0.7,0.4c0.2,0.1,0.2,0.3,0.1,0.5C161.8,131.5,161.7,131.6,161.6,131.6z
			 M50.9,130.6c-0.1,0-0.3-0.1-0.3-0.2c-0.1-0.2,0-0.4,0.1-0.5l0.7-0.4c0.2-0.1,0.4,0,0.5,0.1c0.1,0.2,0,0.4-0.1,0.5l-0.7,0.4
			C51.1,130.6,51,130.6,50.9,130.6z M158.9,130.1c-0.1,0-0.1,0-0.2-0.1l-0.7-0.4c-0.2-0.1-0.2-0.3-0.1-0.5c0.1-0.2,0.3-0.2,0.5-0.1
			l0.7,0.4c0.2,0.1,0.2,0.3,0.1,0.5C159.2,130,159,130.1,158.9,130.1z M53.6,129.1c-0.1,0-0.3-0.1-0.3-0.2c-0.1-0.2,0-0.4,0.1-0.5
			l0.7-0.4c0.2-0.1,0.4,0,0.5,0.1c0.1,0.2,0,0.4-0.1,0.5l-0.7,0.4C53.7,129.1,53.6,129.1,53.6,129.1z M156.2,128.6
			c-0.1,0-0.1,0-0.2-0.1l-0.7-0.4c-0.2-0.1-0.2-0.3-0.1-0.5c0.1-0.2,0.3-0.2,0.5-0.1l0.7,0.4c0.2,0.1,0.2,0.3,0.1,0.5
			C156.5,128.5,156.4,128.6,156.2,128.6z M56.2,127.5c-0.1,0-0.3-0.1-0.3-0.2c-0.1-0.2,0-0.4,0.1-0.5l0.7-0.4c0.2-0.1,0.4,0,0.5,0.1
			c0.1,0.2,0,0.4-0.1,0.5l-0.7,0.4C56.4,127.5,56.3,127.5,56.2,127.5z M153.6,127c-0.1,0-0.1,0-0.2-0.1l-0.7-0.4
			c-0.2-0.1-0.2-0.3-0.1-0.5c0.1-0.2,0.3-0.2,0.5-0.1l0.7,0.4c0.2,0.1,0.2,0.3,0.1,0.5C153.9,127,153.7,127,153.6,127z M58.9,126
			c-0.1,0-0.3-0.1-0.3-0.2c-0.1-0.2,0-0.4,0.1-0.5l0.7-0.4c0.2-0.1,0.4,0,0.5,0.1c0.1,0.2,0,0.4-0.1,0.5l-0.7,0.4
			C59,126,59,126,58.9,126z M150.9,125.5c-0.1,0-0.1,0-0.2-0.1l-0.7-0.4c-0.2-0.1-0.2-0.3-0.1-0.5c0.1-0.2,0.3-0.2,0.5-0.1l0.7,0.4
			c0.2,0.1,0.2,0.3,0.1,0.5C151.2,125.4,151.1,125.5,150.9,125.5z M61.6,124.5c-0.1,0-0.3-0.1-0.3-0.2c-0.1-0.2,0-0.4,0.1-0.5
			l0.7-0.4c0.2-0.1,0.4,0,0.5,0.1c0.1,0.2,0,0.4-0.1,0.5l-0.7,0.4C61.7,124.5,61.6,124.5,61.6,124.5z M148.3,124
			c-0.1,0-0.1,0-0.2-0.1l-0.7-0.4c-0.2-0.1-0.2-0.3-0.1-0.5c0.1-0.2,0.3-0.2,0.5-0.1l0.7,0.4c0.2,0.1,0.2,0.3,0.1,0.5
			C148.5,123.9,148.4,124,148.3,124z M64.2,122.9c-0.1,0-0.3-0.1-0.3-0.2c-0.1-0.2,0-0.4,0.1-0.5l0.7-0.4c0.2-0.1,0.4,0,0.5,0.1
			c0.1,0.2,0,0.4-0.1,0.5l-0.7,0.4C64.3,122.9,64.3,122.9,64.2,122.9z M145.6,122.4c-0.1,0-0.1,0-0.2-0.1l-0.7-0.4
			c-0.2-0.1-0.2-0.3-0.1-0.5c0.1-0.2,0.3-0.2,0.5-0.1l0.7,0.4c0.2,0.1,0.2,0.3,0.1,0.5C145.9,122.4,145.7,122.4,145.6,122.4z
			 M66.9,121.4c-0.1,0-0.3-0.1-0.3-0.2c-0.1-0.2,0-0.4,0.1-0.5l0.7-0.4c0.2-0.1,0.4,0,0.5,0.1c0.1,0.2,0,0.4-0.1,0.5l-0.7,0.4
			C67,121.4,66.9,121.4,66.9,121.4z M143,120.9c-0.1,0-0.1,0-0.2-0.1l-0.7-0.4c-0.2-0.1-0.2-0.3-0.1-0.5c0.1-0.2,0.3-0.2,0.5-0.1
			l0.7,0.4c0.2,0.1,0.2,0.3,0.1,0.5C143.2,120.8,143.1,120.9,143,120.9z M69.5,119.9c-0.1,0-0.3-0.1-0.3-0.2c-0.1-0.2,0-0.4,0.1-0.5
			l0.7-0.4c0.2-0.1,0.4,0,0.5,0.1c0.1,0.2,0,0.4-0.1,0.5l-0.7,0.4C69.7,119.9,69.6,119.9,69.5,119.9z M140.3,119.4
			c-0.1,0-0.1,0-0.2-0.1l-0.7-0.4c-0.2-0.1-0.2-0.3-0.1-0.5c0.1-0.2,0.3-0.2,0.5-0.1l0.7,0.4c0.2,0.1,0.2,0.3,0.1,0.5
			C140.6,119.3,140.4,119.4,140.3,119.4z M72.2,118.3c-0.1,0-0.3-0.1-0.3-0.2c-0.1-0.2,0-0.4,0.1-0.5l0.7-0.4c0.2-0.1,0.4,0,0.5,0.1
			c0.1,0.2,0,0.4-0.1,0.5l-0.7,0.4C72.3,118.3,72.2,118.3,72.2,118.3z M137.6,117.8c-0.1,0-0.1,0-0.2-0.1l-0.7-0.4
			c-0.2-0.1-0.2-0.3-0.1-0.5c0.1-0.2,0.3-0.2,0.5-0.1l0.7,0.4c0.2,0.1,0.2,0.3,0.1,0.5C137.9,117.8,137.8,117.8,137.6,117.8z
			 M74.8,116.8c-0.1,0-0.3-0.1-0.3-0.2c-0.1-0.2,0-0.4,0.1-0.5l0.7-0.4c0.2-0.1,0.4,0,0.5,0.1c0.1,0.2,0,0.4-0.1,0.5l-0.7,0.4
			C75,116.8,74.9,116.8,74.8,116.8z M135,116.3c-0.1,0-0.1,0-0.2-0.1l-0.7-0.4c-0.2-0.1-0.2-0.3-0.1-0.5c0.1-0.2,0.3-0.2,0.5-0.1
			l0.7,0.4c0.2,0.1,0.2,0.3,0.1,0.5C135.2,116.2,135.1,116.3,135,116.3z M77.5,115.3c-0.1,0-0.3-0.1-0.3-0.2c-0.1-0.2,0-0.4,0.1-0.5
			l0.7-0.4c0.2-0.1,0.4,0,0.5,0.1c0.1,0.2,0,0.4-0.1,0.5l-0.7,0.4C77.6,115.3,77.6,115.3,77.5,115.3z M132.3,114.8
			c-0.1,0-0.1,0-0.2-0.1l-0.7-0.4c-0.2-0.1-0.2-0.3-0.1-0.5c0.1-0.2,0.3-0.2,0.5-0.1l0.7,0.4c0.2,0.1,0.2,0.3,0.1,0.5
			C132.6,114.7,132.5,114.8,132.3,114.8z M80.1,113.7c-0.1,0-0.3-0.1-0.3-0.2c-0.1-0.2,0-0.4,0.1-0.5l0.7-0.4c0.2-0.1,0.4,0,0.5,0.1
			c0.1,0.2,0,0.4-0.1,0.5l-0.7,0.4C80.3,113.7,80.2,113.7,80.1,113.7z M129.7,113.2c-0.1,0-0.1,0-0.2-0.1l-0.7-0.4
			c-0.2-0.1-0.2-0.3-0.1-0.5c0.1-0.2,0.3-0.2,0.5-0.1l0.7,0.4c0.2,0.1,0.2,0.3,0.1,0.5C129.9,113.2,129.8,113.2,129.7,113.2z
			 M82.8,112.2c-0.1,0-0.3-0.1-0.3-0.2c-0.1-0.2,0-0.4,0.1-0.5l0.7-0.4c0.2-0.1,0.4,0,0.5,0.1c0.1,0.2,0,0.4-0.1,0.5l-0.7,0.4
			C82.9,112.2,82.9,112.2,82.8,112.2z M127,111.7c-0.1,0-0.1,0-0.2-0.1l-0.7-0.4c-0.2-0.1-0.2-0.3-0.1-0.5c0.1-0.2,0.3-0.2,0.5-0.1
			l0.7,0.4c0.2,0.1,0.2,0.3,0.1,0.5C127.3,111.6,127.1,111.7,127,111.7z M85.5,110.7c-0.1,0-0.3-0.1-0.3-0.2c-0.1-0.2,0-0.4,0.1-0.5
			l0.7-0.4c0.2-0.1,0.4,0,0.5,0.1c0.1,0.2,0,0.4-0.1,0.5l-0.7,0.4C85.6,110.6,85.5,110.7,85.5,110.7z M124.4,110.2
			c-0.1,0-0.1,0-0.2-0.1l-0.7-0.4c-0.2-0.1-0.2-0.3-0.1-0.5c0.1-0.2,0.3-0.2,0.5-0.1l0.7,0.4c0.2,0.1,0.2,0.3,0.1,0.5
			C124.6,110.1,124.5,110.2,124.4,110.2z M88.1,109.1c-0.1,0-0.3-0.1-0.3-0.2c-0.1-0.2,0-0.4,0.1-0.5l0.7-0.4c0.2-0.1,0.4,0,0.5,0.1
			c0.1,0.2,0,0.4-0.1,0.5l-0.7,0.4C88.3,109.1,88.2,109.1,88.1,109.1z M121.7,108.6c-0.1,0-0.1,0-0.2-0.1l-0.7-0.4
			c-0.2-0.1-0.2-0.3-0.1-0.5c0.1-0.2,0.3-0.2,0.5-0.1l0.7,0.4c0.2,0.1,0.2,0.3,0.1,0.5C122,108.6,121.8,108.6,121.7,108.6z
			 M90.8,107.6c-0.1,0-0.3-0.1-0.3-0.2c-0.1-0.2,0-0.4,0.1-0.5l0.7-0.4c0.2-0.1,0.4,0,0.5,0.1c0.1,0.2,0,0.4-0.1,0.5l-0.7,0.4
			C90.9,107.6,90.8,107.6,90.8,107.6z M119,107.1c-0.1,0-0.1,0-0.2-0.1l-0.7-0.4c-0.2-0.1-0.2-0.3-0.1-0.5c0.1-0.2,0.3-0.2,0.5-0.1
			l0.7,0.4c0.2,0.1,0.2,0.3,0.1,0.5C119.3,107,119.2,107.1,119,107.1z M93.4,106.1c-0.1,0-0.3-0.1-0.3-0.2c-0.1-0.2,0-0.4,0.1-0.5
			l0.7-0.4c0.2-0.1,0.4,0,0.5,0.1c0.1,0.2,0,0.4-0.1,0.5l-0.7,0.4C93.6,106,93.5,106.1,93.4,106.1z M116.4,105.6
			c-0.1,0-0.1,0-0.2-0.1l-0.7-0.4c-0.2-0.1-0.2-0.3-0.1-0.5c0.1-0.2,0.3-0.2,0.5-0.1l0.7,0.4c0.2,0.1,0.2,0.3,0.1,0.5
			C116.6,105.5,116.5,105.6,116.4,105.6z M96.1,104.5c-0.1,0-0.3-0.1-0.3-0.2c-0.1-0.2,0-0.4,0.1-0.5l0.7-0.4c0.2-0.1,0.4,0,0.5,0.1
			c0.1,0.2,0,0.4-0.1,0.5l-0.7,0.4C96.2,104.5,96.2,104.5,96.1,104.5z M113.7,104c-0.1,0-0.1,0-0.2-0.1l-0.7-0.4
			c-0.2-0.1-0.2-0.3-0.1-0.5c0.1-0.2,0.3-0.2,0.5-0.1l0.7,0.4c0.2,0.1,0.2,0.3,0.1,0.5C114,104,113.9,104,113.7,104z M98.7,103
			c-0.1,0-0.3-0.1-0.3-0.2c-0.1-0.2,0-0.4,0.1-0.5l0.7-0.4c0.2-0.1,0.4,0,0.5,0.1c0.1,0.2,0,0.4-0.1,0.5l-0.7,0.4
			C98.9,103,98.8,103,98.7,103z M111.1,102.5c-0.1,0-0.1,0-0.2-0.1l-0.7-0.4c-0.2-0.1-0.2-0.3-0.1-0.5c0.1-0.2,0.3-0.2,0.5-0.1
			l0.7,0.4c0.2,0.1,0.2,0.3,0.1,0.5C111.3,102.4,111.2,102.5,111.1,102.5z M101.5,101.6c-0.2,0-0.3-0.1-0.4-0.3
			c-0.1-0.2,0-0.4,0.2-0.5c0.2-0.1,0.5-0.2,0.8-0.2c0.2-0.1,0.4,0.1,0.5,0.3c0.1,0.2-0.1,0.4-0.3,0.5c-0.2,0.1-0.5,0.1-0.7,0.2
			C101.6,101.6,101.5,101.6,101.5,101.6z M108.3,101.2C108.2,101.2,108.2,101.2,108.3,101.2c-0.3-0.1-0.6-0.1-0.8-0.2
			c-0.2,0-0.3-0.2-0.3-0.4c0-0.2,0.2-0.3,0.4-0.3c0.3,0,0.5,0.1,0.8,0.2c0.2,0.1,0.3,0.3,0.3,0.5
			C108.6,101.1,108.4,101.2,108.3,101.2z M104.5,101c-0.2,0-0.4-0.2-0.4-0.4c0-0.2,0.1-0.4,0.4-0.4c0.3,0,0.5,0,0.8,0c0,0,0,0,0,0
			c0.2,0,0.4,0.2,0.4,0.4c0,0.2-0.2,0.4-0.4,0.4C105,100.9,104.7,100.9,104.5,101C104.5,101,104.5,101,104.5,101z"/>
	</g>
	<path class="st4" d="M88,201.3l-62.2-35.9c-0.7-0.4-1.1-1.1-1.1-2c0-0.8,0.4-1.5,1.1-2l89.6-51.7c2.2-1.2,4.6-1.2,6.8,0l62.2,35.9
		L88,201.3z"/>
	<path class="st5" d="M88,199L25.8,163c-0.7-0.4-1.1-1.1-1.1-2c0-0.8,0.4-1.5,1.1-2l89.6-51.7c2.2-1.2,4.6-1.2,6.8,0l62.2,35.9
		L88,199z"/>
	<path class="st4" d="M88,196.6l-62.2-35.9c-0.7-0.4-1.1-1.1-1.1-2c0-0.8,0.4-1.5,1.1-2l89.6-51.7c2.2-1.2,4.6-1.2,6.8,0l62.2,35.9
		L88,196.6z"/>
	<path class="st5" d="M88,194.2l-62.2-35.9c-0.7-0.4-1.1-1.1-1.1-2c0-0.8,0.4-1.5,1.1-2l89.6-51.7c2.2-1.2,4.6-1.2,6.8,0l62.2,35.9
		L88,194.2z"/>
	<path class="st4" d="M88,191.9l-62.2-35.9c-0.7-0.4-1.1-1.1-1.1-2s0.4-1.5,1.1-2l89.6-51.7c2.2-1.2,4.6-1.2,6.8,0l62.2,35.9
		L88,191.9z"/>
	<path class="st5" d="M88,189.5l-62.2-35.9c-0.7-0.4-1.1-1.1-1.1-2c0-0.8,0.4-1.5,1.1-2l89.6-51.7c2.2-1.2,4.6-1.2,6.8,0l62.2,35.9
		L88,189.5z"/>
	<path class="st4" d="M88,187.1l-62.2-35.9c-0.7-0.4-1.1-1.1-1.1-2c0-0.8,0.4-1.5,1.1-2l89.6-51.7c2.2-1.2,4.6-1.2,6.8,0l62.2,35.9
		L88,187.1z"/>
	<g class="st6">
		<path class="st7" d="M156.5,134.1c0,0-0.1,0-0.1,0l-49.6-28.7c-0.1-0.1-0.2-0.3-0.1-0.4c0.1-0.1,0.2-0.2,0.4-0.1l49.6,28.7
			c0.1,0.1,0.2,0.3,0.1,0.4C156.7,134,156.6,134.1,156.5,134.1z"/>
	</g>
	<g class="st6">
		<path class="st7" d="M151.3,137c0,0-0.1,0-0.1,0l-49.6-28.7c-0.1-0.1-0.2-0.3-0.1-0.4c0.1-0.1,0.2-0.2,0.4-0.1l49.6,28.7
			c0.1,0.1,0.2,0.3,0.1,0.4C151.5,137,151.4,137,151.3,137z"/>
	</g>
	<g class="st6">
		<path class="st7" d="M146.1,140c0,0-0.1,0-0.1,0l-49.6-28.7c-0.1-0.1-0.2-0.3-0.1-0.4c0.1-0.1,0.2-0.2,0.4-0.1l49.6,28.7
			c0.1,0.1,0.2,0.3,0.1,0.4C146.3,140,146.2,140,146.1,140z"/>
	</g>
	<g class="st6">
		<path class="st7" d="M140.9,143c0,0-0.1,0-0.1,0l-49.6-28.7c-0.1-0.1-0.2-0.3-0.1-0.4c0.1-0.1,0.2-0.2,0.4-0.1l49.6,28.7
			c0.1,0.1,0.2,0.3,0.1,0.4C141.1,143,141,143,140.9,143z"/>
	</g>
	<g class="st6">
		<path class="st7" d="M135.7,146.3c-0.1,0-0.2,0-0.3-0.1l-49.6-28.7c-0.3-0.2-0.4-0.5-0.2-0.8c0.2-0.3,0.5-0.4,0.8-0.2l49.6,28.7
			c0.3,0.2,0.4,0.5,0.2,0.8C136.1,146.2,135.9,146.3,135.7,146.3z"/>
	</g>
	<g class="st6">
		<path class="st7" d="M130.5,149c0,0-0.1,0-0.1,0l-49.6-28.7c-0.1-0.1-0.2-0.3-0.1-0.4c0.1-0.1,0.2-0.2,0.4-0.1l49.6,28.7
			c0.1,0.1,0.2,0.3,0.1,0.4C130.7,149,130.6,149,130.5,149z"/>
	</g>
	<g class="st6">
		<path class="st7" d="M125.3,152c0,0-0.1,0-0.1,0l-49.6-28.7c-0.1-0.1-0.2-0.3-0.1-0.4c0.1-0.1,0.2-0.2,0.4-0.1l49.6,28.7
			c0.1,0.1,0.2,0.3,0.1,0.4C125.5,152,125.4,152,125.3,152z"/>
	</g>
	<g class="st6">
		<path class="st7" d="M120.1,155c0,0-0.1,0-0.1,0l-49.6-28.7c-0.1-0.1-0.2-0.3-0.1-0.4c0.1-0.1,0.2-0.2,0.4-0.1l49.6,28.7
			c0.1,0.1,0.2,0.3,0.1,0.4C120.3,155,120.2,155,120.1,155z"/>
	</g>
	<g class="st6">
		<path class="st7" d="M114.9,158c0,0-0.1,0-0.1,0l-49.6-28.7c-0.1-0.1-0.2-0.3-0.1-0.4c0.1-0.1,0.2-0.2,0.4-0.1l49.6,28.7
			c0.1,0.1,0.2,0.3,0.1,0.4C115.1,158,115,158,114.9,158z"/>
	</g>
	<g class="st6">
		<path class="st7" d="M109.7,161.3c-0.1,0-0.2,0-0.3-0.1l-49.6-28.7c-0.3-0.2-0.4-0.5-0.2-0.8c0.2-0.3,0.5-0.4,0.8-0.2l49.6,28.7
			c0.3,0.2,0.4,0.5,0.2,0.8C110.1,161.2,109.9,161.3,109.7,161.3z"/>
	</g>
	<g class="st6">
		<path class="st7" d="M104.5,164c0,0-0.1,0-0.1,0l-49.6-28.7c-0.1-0.1-0.2-0.3-0.1-0.4c0.1-0.1,0.2-0.2,0.4-0.1l49.6,28.7
			c0.1,0.1,0.2,0.3,0.1,0.4C104.7,164,104.6,164,104.5,164z"/>
	</g>
	<g class="st6">
		<path class="st7" d="M99.4,167c0,0-0.1,0-0.1,0l-49.6-28.7c-0.1-0.1-0.2-0.3-0.1-0.4c0.1-0.1,0.2-0.2,0.4-0.1l49.6,28.7
			c0.1,0.1,0.2,0.3,0.1,0.4C99.5,167,99.5,167,99.4,167z"/>
	</g>
	<g class="st6">
		<path class="st7" d="M94.2,170c0,0-0.1,0-0.1,0l-49.6-28.7c-0.1-0.1-0.2-0.3-0.1-0.4c0.1-0.1,0.2-0.2,0.4-0.1l49.6,28.7
			c0.1,0.1,0.2,0.3,0.1,0.4C94.4,170,94.3,170,94.2,170z"/>
	</g>
	<g class="st6">
		<path class="st7" d="M89,173c0,0-0.1,0-0.1,0l-49.6-28.7c-0.1-0.1-0.2-0.3-0.1-0.4c0.1-0.1,0.2-0.2,0.4-0.1l49.6,28.7
			c0.1,0.1,0.2,0.3,0.1,0.4C89.2,173,89.1,173,89,173z"/>
	</g>
	<g class="st6">
		<path class="st7" d="M83.8,176.3c-0.1,0-0.2,0-0.3-0.1l-49.6-28.7c-0.3-0.2-0.4-0.5-0.2-0.8c0.2-0.3,0.5-0.4,0.8-0.2l49.6,28.7
			c0.3,0.2,0.4,0.5,0.2,0.8C84.2,176.2,84,176.3,83.8,176.3z"/>
	</g>
	<g class="st6">
		<path class="st7" d="M166.8,128.3c-0.1,0-0.2,0-0.3-0.1l-49.6-28.7c-0.3-0.2-0.4-0.5-0.2-0.8c0.2-0.3,0.5-0.4,0.8-0.2l49.6,28.7
			c0.3,0.2,0.4,0.5,0.2,0.8C167.2,128.2,167,128.3,166.8,128.3z"/>
	</g>
	<polygon class="st8" points="88,201.3 184.4,145.7 182.3,144.5 184.4,143.3 182.3,142.2 184.4,141 182.3,139.8 184.4,138.6 
		182.3,137.4 184.4,136.2 182.3,135.1 184.4,133.9 182.3,132.7 88,187.1 	"/>
	<path class="st4" d="M186.4,146.9l62.2,35.9c0.7,0.4,1.1,1.1,1.1,2c0,0.8-0.4,1.5-1.1,2L159,238.4c-2.2,1.2-4.6,1.2-6.8,0L90,202.5
		L186.4,146.9z"/>
	<path class="st5" d="M186.4,144.5l62.2,35.9c0.7,0.4,1.1,1.1,1.1,2c0,0.8-0.4,1.5-1.1,2L159,236.1c-2.2,1.2-4.6,1.2-6.8,0L90,200.1
		L186.4,144.5z"/>
	<path class="st4" d="M186.4,142.1l62.2,35.9c0.7,0.4,1.1,1.1,1.1,2c0,0.8-0.4,1.5-1.1,2L159,233.7c-2.2,1.2-4.6,1.2-6.8,0L90,197.8
		L186.4,142.1z"/>
	<path class="st5" d="M186.4,139.8l62.2,35.9c0.7,0.4,1.1,1.1,1.1,2c0,0.8-0.4,1.5-1.1,2L159,231.3c-2.2,1.2-4.6,1.2-6.8,0L90,195.4
		L186.4,139.8z"/>
	<path class="st4" d="M186.4,137.4l62.2,35.9c0.7,0.4,1.1,1.1,1.1,2c0,0.8-0.4,1.5-1.1,2L159,229c-2.2,1.2-4.6,1.2-6.8,0L90,193
		L186.4,137.4z"/>
	<path class="st9" d="M188,217c0.5,0.3,1,0.6,1.5,0.8c0.5,0.3,1,0.6,1.5,0.8c0.6,0.3,1.3,0.5,1.9,0.5c0.7,0,1.3-0.1,1.8-0.4
		c1.9-1.1,3.8-2.2,5.7-3.3c1.9-1.1,3.8-2.2,5.7-3.3c0.5-0.3,0.7-0.7,0.6-1c-0.1-0.4-0.4-0.8-0.9-1.1c-0.5-0.3-1-0.6-1.5-0.8
		c-0.5-0.3-1-0.6-1.5-0.8c-2.5,1.4-4.9,2.9-7.4,4.3C193,214.1,190.5,215.5,188,217L188,217z"/>
	<path class="st10" d="M173.5,223c0.5,0.3,1,0.6,1.5,0.8c0.5,0.3,1,0.6,1.5,0.8c0.6,0.3,1.3,0.5,1.9,0.5c0.7,0,1.3-0.1,1.8-0.4
		c1.9-1.1,3.8-2.2,5.7-3.3c1.9-1.1,3.8-2.2,5.7-3.3c0.5-0.3,0.7-0.7,0.6-1c-0.1-0.4-0.4-0.8-0.9-1.1c-0.5-0.3-1-0.6-1.5-0.8
		c-0.5-0.3-1-0.6-1.5-0.8c-2.5,1.4-4.9,2.9-7.4,4.3C178.4,220.1,175.9,221.6,173.5,223L173.5,223z"/>
	<path class="st11" d="M159,229c0.5,0.3,1,0.6,1.5,0.8c0.5,0.3,1,0.6,1.5,0.8c0.6,0.3,1.3,0.5,1.9,0.5c0.7,0,1.3-0.1,1.8-0.4
		c1.9-1.1,3.8-2.2,5.7-3.3c1.9-1.1,3.8-2.2,5.7-3.3c0.5-0.3,0.7-0.7,0.6-1c-0.1-0.4-0.4-0.8-0.9-1.1c-0.5-0.3-1-0.6-1.5-0.8
		c-0.5-0.3-1-0.6-1.5-0.8c-2.5,1.4-4.9,2.9-7.4,4.3C163.9,226.1,161.4,227.6,159,229L159,229z"/>
	<g class="st6">
		<path class="st7" d="M230.9,182.1c0,0-0.1,0-0.1,0l-49.6-28.7c-0.1-0.1-0.2-0.3-0.1-0.4c0.1-0.1,0.2-0.2,0.4-0.1l49.6,28.7
			c0.1,0.1,0.2,0.3,0.1,0.4C231.1,182,231,182.1,230.9,182.1z"/>
	</g>
	<g class="st6">
		<path class="st7" d="M225.7,185.1c0,0-0.1,0-0.1,0l-49.6-28.7c-0.1-0.1-0.2-0.3-0.1-0.4c0.1-0.1,0.2-0.2,0.4-0.1l49.6,28.7
			c0.1,0.1,0.2,0.3,0.1,0.4C225.9,185,225.8,185.1,225.7,185.1z"/>
	</g>
	<g class="st6">
		<path class="st7" d="M220.5,188.1c0,0-0.1,0-0.1,0l-49.6-28.7c-0.1-0.1-0.2-0.3-0.1-0.4c0.1-0.1,0.2-0.2,0.4-0.1l49.6,28.7
			c0.1,0.1,0.2,0.3,0.1,0.4C220.7,188,220.6,188.1,220.5,188.1z"/>
	</g>
	<g class="st6">
		<path class="st7" d="M215.3,191.1c0,0-0.1,0-0.1,0l-49.6-28.7c-0.1-0.1-0.2-0.3-0.1-0.4c0.1-0.1,0.2-0.2,0.4-0.1l49.6,28.7
			c0.1,0.1,0.2,0.3,0.1,0.4C215.5,191,215.4,191.1,215.3,191.1z"/>
	</g>
	<g class="st6">
		<path class="st7" d="M210.1,194.3c-0.1,0-0.2,0-0.3-0.1l-49.6-28.7c-0.3-0.2-0.4-0.5-0.2-0.8c0.2-0.3,0.5-0.4,0.8-0.2l49.6,28.7
			c0.3,0.2,0.4,0.5,0.2,0.8C210.5,194.2,210.3,194.3,210.1,194.3z"/>
	</g>
	<g class="st6">
		<path class="st7" d="M204.9,197.1c0,0-0.1,0-0.1,0l-49.6-28.7c-0.1-0.1-0.2-0.3-0.1-0.4c0.1-0.1,0.2-0.2,0.4-0.1l49.6,28.7
			c0.1,0.1,0.2,0.3,0.1,0.4C205.1,197,205,197.1,204.9,197.1z"/>
	</g>
	<g class="st6">
		<path class="st7" d="M199.7,200c0,0-0.1,0-0.1,0l-49.6-28.7c-0.1-0.1-0.2-0.3-0.1-0.4c0.1-0.1,0.2-0.2,0.4-0.1l49.6,28.7
			c0.1,0.1,0.2,0.3,0.1,0.4C199.9,200,199.8,200,199.7,200z"/>
	</g>
	<g class="st6">
		<path class="st7" d="M194.5,203c0,0-0.1,0-0.1,0l-49.6-28.7c-0.1-0.1-0.2-0.3-0.1-0.4c0.1-0.1,0.2-0.2,0.4-0.1l49.6,28.7
			c0.1,0.1,0.2,0.3,0.1,0.4C194.7,203,194.6,203,194.5,203z"/>
	</g>
	<g class="st6">
		<path class="st7" d="M189.3,206c0,0-0.1,0-0.1,0l-49.6-28.7c-0.1-0.1-0.2-0.3-0.1-0.4c0.1-0.1,0.2-0.2,0.4-0.1l49.6,28.7
			c0.1,0.1,0.2,0.3,0.1,0.4C189.5,206,189.4,206,189.3,206z"/>
	</g>
	<g class="st6">
		<path class="st7" d="M184.1,209.3c-0.1,0-0.2,0-0.3-0.1l-49.6-28.7c-0.3-0.2-0.4-0.5-0.2-0.8c0.2-0.3,0.5-0.4,0.8-0.2l49.6,28.7
			c0.3,0.2,0.4,0.5,0.2,0.8C184.5,209.2,184.3,209.3,184.1,209.3z"/>
	</g>
	<g class="st6">
		<path class="st7" d="M178.9,212c0,0-0.1,0-0.1,0l-49.6-28.7c-0.1-0.1-0.2-0.3-0.1-0.4c0.1-0.1,0.2-0.2,0.4-0.1l49.6,28.7
			c0.1,0.1,0.2,0.3,0.1,0.4C179.1,212,179,212,178.9,212z"/>
	</g>
	<g class="st6">
		<path class="st7" d="M173.8,215c0,0-0.1,0-0.1,0L124,186.3c-0.1-0.1-0.2-0.3-0.1-0.4c0.1-0.1,0.2-0.2,0.4-0.1l49.6,28.7
			c0.1,0.1,0.2,0.3,0.1,0.4C174,215,173.9,215,173.8,215z"/>
	</g>
	<g class="st6">
		<path class="st7" d="M168.6,218c0,0-0.1,0-0.1,0l-49.6-28.7c-0.1-0.1-0.2-0.3-0.1-0.4c0.1-0.1,0.2-0.2,0.4-0.1l49.6,28.7
			c0.1,0.1,0.2,0.3,0.1,0.4C168.8,218,168.7,218,168.6,218z"/>
	</g>
	<g class="st6">
		<path class="st7" d="M163.4,221c0,0-0.1,0-0.1,0l-49.6-28.7c-0.1-0.1-0.2-0.3-0.1-0.4c0.1-0.1,0.2-0.2,0.4-0.1l49.6,28.7
			c0.1,0.1,0.2,0.3,0.1,0.4C163.6,221,163.5,221,163.4,221z"/>
	</g>
	<g class="st6">
		<path class="st7" d="M158.2,224.3c-0.1,0-0.2,0-0.3-0.1l-49.6-28.7c-0.3-0.2-0.4-0.5-0.2-0.8c0.2-0.3,0.5-0.4,0.8-0.2l49.6,28.7
			c0.3,0.2,0.4,0.5,0.2,0.8C158.6,224.2,158.4,224.3,158.2,224.3z"/>
	</g>
	<g class="st6">
		<path class="st7" d="M241.2,176.4c-0.1,0-0.2,0-0.3-0.1l-49.6-28.7c-0.3-0.2-0.4-0.5-0.2-0.8c0.2-0.3,0.5-0.4,0.8-0.2l49.6,28.7
			c0.3,0.2,0.4,0.5,0.2,0.8C241.6,176.2,241.4,176.4,241.2,176.4z"/>
	</g>
	<path class="st12" d="M79.7,195.4c0-5.3,3.8-4.3,8.4-1.7c6.7,3.8,8.4,6,8.4,11.4v1.1l-16.8-9.7V195.4z"/>
	<path class="st13" d="M123.8,177.7c-0.6,0.4-1,0.9-1,1.3s0.3,1,1,1.3c0.6,0.4,1.5,0.6,2.3,0.6c0.8,0,1.7-0.2,2.3-0.6
		c0.6-0.4,1-0.9,1-1.3s-0.3-1-1-1.3c-0.6-0.4-1.5-0.6-2.3-0.6C125.3,177.2,124.5,177.4,123.8,177.7L123.8,177.7z"/>
	<path class="st13" d="M112,165.3c-0.6,0.4-1,0.9-1,1.3c0,0.5,0.3,1,1,1.3c0.6,0.4,1.5,0.6,2.3,0.6c0.8,0,1.7-0.2,2.3-0.6
		c0.6-0.4,1-0.9,1-1.3c0-0.5-0.3-1-1-1.3c-0.6-0.4-1.5-0.6-2.3-0.6C113.5,164.7,112.6,164.9,112,165.3L112,165.3z"/>
	<path class="st14" d="M125,178.5c-0.3,0.6-0.1,1.4,0.5,1.7c0.6,0.3,1.4,0.1,1.7-0.5c0.3-0.5,0.4-1,0.6-1.6l0,0
		c0.1-0.6,0.2-1.2,0.2-1.8c0-1.1-0.2-2.3-0.5-3.5c-0.4-1.2-0.9-2.4-1.5-3.5c-0.6-1.1-1.4-2.1-2.3-3c-0.8-0.9-1.7-1.6-2.7-2.2l0,0
		c-0.8-0.5-1.5-0.8-2.3-0.9c-0.8-0.2-1.6-0.2-2.3,0c-0.7,0.2-1.4,0.5-2,1c-0.5,0.5-1,1.1-1.3,1.9c-0.2,0.6,0.1,1.4,0.7,1.6
		c0.6,0.2,1.4-0.1,1.6-0.7c0.2-0.4,0.4-0.7,0.6-1c0.2-0.2,0.5-0.4,0.8-0.4c0.4-0.1,0.8-0.1,1.2,0c0.5,0.1,1,0.3,1.6,0.6l0,0l0,0
		c0.8,0.4,1.5,1,2.2,1.8c0.7,0.8,1.4,1.6,1.9,2.6c0.5,0.9,1,1.9,1.3,2.9c0.3,0.9,0.4,1.9,0.4,2.8c0,0.5,0,0.9-0.1,1.3l0,0l0,0
		C125.3,177.9,125.2,178.2,125,178.5L125,178.5z"/>
	<path class="st15" d="M126.7,176.3c0,0.3,0,0.6-0.1,0.9c-0.1,0.7-0.3,1.3-0.5,1.9l-0.5,1.1c-0.6-0.3-1-0.9-0.6-1.7l0.3-0.9
		c0-0.1,0-0.2,0.1-0.3c0-0.3,0.1-0.6,0.1-0.9c0-3.9-2.6-8-5.8-10c-0.8-0.5-1.8-0.8-2.6-0.7c-0.7,0.1-1.3,0.5-1.7,1.4
		c-0.3,0.7-0.9,0.9-1.5,0.7l0.3-1.2c0.3-0.8,0.8-1.4,1.3-1.7c0.3-0.2,0.6-0.3,1-0.4c1.1-0.2,2.3,0,3.7,0.8c1.8,1,3.4,2.8,4.5,4.8
		C126,172,126.7,174.3,126.7,176.3L126.7,176.3z"/>
	<path class="st13" d="M112.8,184.1c-0.6,0.4-1,0.9-1,1.3c0,0.5,0.3,1,1,1.3c0.6,0.4,1.5,0.6,2.3,0.6c0.8,0,1.7-0.2,2.3-0.6
		c0.6-0.4,1-0.9,1-1.3c0-0.5-0.3-1-1-1.3c-0.6-0.4-1.5-0.6-2.3-0.6C114.3,183.5,113.5,183.7,112.8,184.1L112.8,184.1z"/>
	<path class="st13" d="M101,171.6c-0.6,0.4-1,0.9-1,1.3c0,0.5,0.3,1,1,1.3c0.6,0.4,1.5,0.6,2.3,0.6c0.8,0,1.7-0.2,2.3-0.6
		c0.6-0.4,1-0.9,1-1.3c0-0.5-0.3-1-1-1.3c-0.6-0.4-1.5-0.6-2.3-0.6C102.5,171.1,101.7,171.3,101,171.6L101,171.6z"/>
	<path class="st14" d="M114.1,184.9c-0.3,0.6-0.1,1.4,0.5,1.7c0.6,0.3,1.4,0.1,1.7-0.5c0.2-0.5,0.4-1,0.6-1.6h0
		c0.1-0.6,0.2-1.2,0.2-1.8c0-1.1-0.2-2.3-0.5-3.5c-0.4-1.2-0.9-2.4-1.5-3.5c-0.6-1.1-1.4-2.1-2.3-3c-0.8-0.9-1.7-1.6-2.7-2.2l0,0
		c-0.8-0.5-1.5-0.8-2.3-0.9c-0.8-0.2-1.6-0.2-2.3,0c-0.7,0.2-1.4,0.5-2,1c-0.5,0.5-1,1.1-1.3,1.9c-0.2,0.6,0.1,1.4,0.7,1.6
		c0.6,0.2,1.4-0.1,1.6-0.7c0.2-0.4,0.4-0.7,0.6-1c0.2-0.2,0.5-0.4,0.8-0.4c0.4-0.1,0.8-0.1,1.2,0c0.5,0.1,1,0.3,1.6,0.6l0,0l0,0
		c0.8,0.4,1.5,1,2.2,1.8c0.7,0.8,1.4,1.6,1.9,2.6c0.5,0.9,1,1.9,1.3,2.9c0.3,0.9,0.4,1.9,0.4,2.8c0,0.5,0,0.9-0.1,1.3l0,0l0,0
		C114.3,184.3,114.2,184.6,114.1,184.9L114.1,184.9z"/>
	<path class="st15" d="M115.7,182.7c0,0.3,0,0.6-0.1,0.9c-0.1,0.7-0.3,1.3-0.5,1.9l-0.5,1.1c-0.6-0.3-1-0.9-0.6-1.7l0.3-0.9
		c0-0.1,0-0.2,0.1-0.3c0-0.3,0.1-0.6,0.1-0.9c0-3.9-2.6-8-5.8-10c-0.8-0.5-1.8-0.8-2.6-0.7c-0.7,0.1-1.3,0.5-1.7,1.4
		c-0.3,0.7-0.9,0.9-1.5,0.7l0.3-1.2c0.3-0.8,0.8-1.4,1.3-1.7c0.3-0.2,0.6-0.3,1-0.4c1.1-0.2,2.3,0,3.7,0.8c1.8,1,3.4,2.8,4.5,4.8
		C115,178.4,115.7,180.6,115.7,182.7L115.7,182.7z"/>
	<path class="st13" d="M101.8,190.4c-0.6,0.4-1,0.9-1,1.3c0,0.5,0.3,1,1,1.3c0.6,0.4,1.5,0.6,2.3,0.6c0.8,0,1.7-0.2,2.3-0.6
		c0.6-0.4,1-0.9,1-1.3c0-0.5-0.3-1-1-1.3c-0.6-0.4-1.5-0.6-2.3-0.6C103.3,189.9,102.5,190.1,101.8,190.4L101.8,190.4z"/>
	<path class="st13" d="M90,178c-0.6,0.4-1,0.9-1,1.3c0,0.5,0.3,1,1,1.3c0.6,0.4,1.5,0.6,2.3,0.6c0.8,0,1.7-0.2,2.3-0.6
		c0.6-0.4,1-0.9,1-1.3c0-0.5-0.3-1-1-1.3c-0.6-0.4-1.5-0.6-2.3-0.6C91.5,177.4,90.7,177.6,90,178L90,178z"/>
	<path class="st14" d="M103.1,191.2c-0.3,0.6-0.1,1.4,0.5,1.7c0.6,0.3,1.4,0.1,1.7-0.5c0.2-0.5,0.4-1,0.6-1.6h0
		c0.1-0.6,0.2-1.2,0.2-1.8c0-1.1-0.2-2.3-0.5-3.5c-0.4-1.2-0.9-2.4-1.5-3.5c-0.6-1.1-1.4-2.1-2.3-3c-0.8-0.9-1.7-1.6-2.7-2.2l0,0
		c-0.8-0.5-1.5-0.8-2.3-0.9c-0.8-0.2-1.6-0.2-2.3,0c-0.7,0.2-1.4,0.5-2,1c-0.5,0.5-1,1.1-1.3,1.9c-0.2,0.6,0.1,1.4,0.7,1.6
		c0.6,0.2,1.4-0.1,1.6-0.7c0.2-0.4,0.4-0.7,0.6-1c0.2-0.2,0.5-0.4,0.8-0.4c0.4-0.1,0.8-0.1,1.2,0c0.5,0.1,1,0.3,1.6,0.6l0,0l0,0
		c0.8,0.4,1.5,1,2.2,1.8c0.7,0.8,1.4,1.6,1.9,2.6c0.5,0.9,1,1.9,1.3,2.9c0.3,0.9,0.4,1.9,0.4,2.8c0,0.5,0,0.9-0.1,1.3l0,0l0,0
		C103.3,190.6,103.2,190.9,103.1,191.2L103.1,191.2z"/>
	<path class="st15" d="M104.8,189c0,0.3,0,0.6-0.1,0.9c-0.1,0.7-0.3,1.3-0.5,1.9l-0.5,1.1c-0.6-0.3-1-0.9-0.6-1.7l0.3-0.9
		c0-0.1,0-0.2,0.1-0.3c0-0.3,0.1-0.6,0.1-0.9c0-3.9-2.6-8-5.8-10c-0.8-0.5-1.8-0.8-2.6-0.7c-0.7,0.1-1.3,0.5-1.7,1.4
		c-0.3,0.7-0.9,0.9-1.5,0.7l0.3-1.2c0.3-0.8,0.8-1.4,1.3-1.7c0.3-0.2,0.6-0.3,1-0.4c1.1-0.2,2.3,0,3.7,0.8c1.8,1,3.4,2.8,4.5,4.8
		C104,184.7,104.8,187,104.8,189L104.8,189z"/>
	<path class="st13" d="M178,146c-0.6,0.4-1,0.9-1,1.3c0,0.5,0.3,1,1,1.3c0.6,0.4,1.5,0.6,2.3,0.6c0.8,0,1.7-0.2,2.3-0.6
		c0.6-0.4,1-0.9,1-1.3c0-0.5-0.3-1-1-1.3c-0.6-0.4-1.5-0.6-2.3-0.6C179.5,145.5,178.6,145.7,178,146L178,146z"/>
	<path class="st13" d="M166.2,133.6c-0.6,0.4-1,0.9-1,1.3c0,0.5,0.3,1,1,1.3c0.6,0.4,1.5,0.6,2.3,0.6c0.8,0,1.7-0.2,2.3-0.6
		c0.6-0.4,1-0.9,1-1.3c0-0.5-0.3-1-1-1.3c-0.6-0.4-1.5-0.6-2.3-0.6C167.7,133,166.8,133.2,166.2,133.6L166.2,133.6z"/>
	<path class="st14" d="M179.2,146.8c-0.3,0.6-0.1,1.4,0.5,1.7c0.6,0.3,1.4,0.1,1.7-0.5c0.3-0.5,0.4-1,0.6-1.6l0,0
		c0.1-0.6,0.2-1.2,0.2-1.8c0-1.1-0.2-2.3-0.5-3.5c-0.4-1.2-0.9-2.4-1.5-3.5c-0.6-1.1-1.4-2.1-2.3-3c-0.8-0.9-1.7-1.6-2.7-2.2l0,0
		c-0.8-0.5-1.5-0.8-2.3-0.9c-0.8-0.2-1.6-0.2-2.3,0c-0.7,0.2-1.4,0.5-2,1c-0.5,0.5-1,1.1-1.3,1.9c-0.2,0.6,0.1,1.4,0.7,1.6
		c0.6,0.2,1.4-0.1,1.6-0.7c0.2-0.4,0.4-0.7,0.6-1c0.2-0.2,0.5-0.4,0.8-0.4c0.4-0.1,0.8-0.1,1.2,0c0.5,0.1,1,0.3,1.6,0.6l0,0l0,0
		c0.8,0.4,1.5,1,2.2,1.8c0.7,0.8,1.4,1.6,1.9,2.6c0.5,0.9,1,1.9,1.3,2.9c0.3,0.9,0.4,1.9,0.4,2.8c0,0.5,0,0.9-0.1,1.3l0,0l0,0
		C179.5,146.2,179.4,146.5,179.2,146.8L179.2,146.8z"/>
	<path class="st15" d="M180.9,144.6c0,0.3,0,0.6-0.1,0.9c-0.1,0.7-0.3,1.3-0.5,1.9l-0.5,1.1c-0.6-0.3-1-0.9-0.6-1.7l0.3-0.9
		c0-0.1,0-0.2,0.1-0.3c0-0.3,0.1-0.6,0.1-0.9c0-3.9-2.6-8-5.8-10c-0.8-0.5-1.8-0.8-2.6-0.7c-0.7,0.1-1.3,0.5-1.7,1.4
		c-0.3,0.7-0.9,0.9-1.5,0.7l0.3-1.2c0.3-0.8,0.8-1.4,1.3-1.7c0.3-0.2,0.6-0.3,1-0.4c1.1-0.2,2.3,0,3.7,0.8c1.8,1,3.4,2.8,4.5,4.8
		C180.2,140.3,180.9,142.6,180.9,144.6L180.9,144.6z"/>
	<path class="st13" d="M167,152.4c-0.6,0.4-1,0.9-1,1.3c0,0.5,0.3,1,1,1.3c0.6,0.4,1.5,0.6,2.3,0.6c0.8,0,1.7-0.2,2.3-0.6
		c0.6-0.4,1-0.9,1-1.3c0-0.5-0.3-1-1-1.3c-0.6-0.4-1.5-0.6-2.3-0.6C168.5,151.8,167.6,152,167,152.4L167,152.4z"/>
	<path class="st13" d="M155.2,139.9c-0.6,0.4-1,0.9-1,1.3s0.3,1,1,1.3c0.6,0.4,1.5,0.6,2.3,0.6c0.8,0,1.7-0.2,2.3-0.6
		c0.6-0.4,1-0.9,1-1.3s-0.3-1-1-1.3c-0.6-0.4-1.5-0.6-2.3-0.6C156.7,139.4,155.8,139.5,155.2,139.9L155.2,139.9z"/>
	<path class="st14" d="M168.2,153.2c-0.3,0.6-0.1,1.4,0.5,1.7c0.6,0.3,1.4,0.1,1.7-0.5c0.3-0.5,0.4-1,0.6-1.6h0
		c0.1-0.6,0.2-1.2,0.2-1.8c0-1.1-0.2-2.3-0.5-3.5c-0.4-1.2-0.9-2.4-1.5-3.5c-0.6-1.1-1.4-2.1-2.3-3c-0.8-0.9-1.7-1.6-2.7-2.2l0,0
		c-0.8-0.5-1.5-0.8-2.3-0.9c-0.8-0.2-1.6-0.2-2.3,0c-0.7,0.2-1.4,0.5-2,1c-0.5,0.5-1,1.1-1.3,1.9c-0.2,0.6,0.1,1.4,0.7,1.6
		c0.6,0.2,1.4-0.1,1.6-0.7c0.2-0.4,0.4-0.7,0.6-1c0.2-0.2,0.5-0.4,0.8-0.4c0.4-0.1,0.8-0.1,1.2,0c0.5,0.1,1,0.3,1.6,0.6l0,0l0,0
		c0.8,0.4,1.5,1,2.2,1.8c0.7,0.8,1.4,1.6,1.9,2.6c0.5,0.9,1,1.9,1.3,2.9c0.3,0.9,0.4,1.9,0.4,2.8c0,0.5,0,0.9-0.1,1.3l0,0l0,0
		C168.5,152.6,168.4,152.9,168.2,153.2L168.2,153.2z"/>
	<path class="st15" d="M169.9,151c0,0.3,0,0.6-0.1,0.9c-0.1,0.7-0.3,1.3-0.5,1.9l-0.5,1.1c-0.6-0.3-1-0.9-0.6-1.7l0.3-0.9
		c0-0.1,0-0.2,0.1-0.3c0-0.3,0.1-0.6,0.1-0.9c0-3.9-2.6-8-5.8-10c-0.8-0.5-1.8-0.8-2.6-0.7c-0.7,0.1-1.3,0.5-1.7,1.4
		c-0.3,0.7-0.9,0.9-1.5,0.7l0.3-1.2c0.3-0.8,0.8-1.4,1.3-1.7c0.3-0.2,0.6-0.3,1-0.4c1.1-0.2,2.3,0,3.7,0.8c1.8,1,3.4,2.8,4.5,4.8
		C169.2,146.7,169.9,148.9,169.9,151L169.9,151z"/>
	<path class="st13" d="M156,158.7c-0.6,0.4-1,0.9-1,1.3s0.3,1,1,1.3c0.6,0.4,1.5,0.6,2.3,0.6c0.8,0,1.7-0.2,2.3-0.6
		c0.6-0.4,1-0.9,1-1.3s-0.3-1-1-1.3c-0.6-0.4-1.5-0.6-2.3-0.6C157.5,158.2,156.6,158.4,156,158.7L156,158.7z"/>
	<path class="st13" d="M144.2,146.3c-0.6,0.4-1,0.9-1,1.3c0,0.5,0.3,1,1,1.3c0.6,0.4,1.5,0.6,2.3,0.6c0.8,0,1.7-0.2,2.3-0.6
		c0.6-0.4,1-0.9,1-1.3c0-0.5-0.3-1-1-1.3c-0.6-0.4-1.5-0.6-2.3-0.6C145.7,145.7,144.8,145.9,144.2,146.3L144.2,146.3z"/>
	<path class="st14" d="M157.2,159.5c-0.3,0.6-0.1,1.4,0.5,1.7c0.6,0.3,1.4,0.1,1.7-0.5c0.2-0.5,0.4-1,0.6-1.6l0,0
		c0.1-0.6,0.2-1.2,0.2-1.8c0-1.1-0.2-2.3-0.5-3.5c-0.4-1.2-0.9-2.4-1.5-3.5c-0.6-1.1-1.4-2.1-2.3-3c-0.8-0.9-1.7-1.6-2.7-2.2l0,0
		c-0.8-0.5-1.5-0.8-2.3-0.9c-0.8-0.2-1.6-0.2-2.3,0c-0.7,0.2-1.4,0.5-2,1c-0.5,0.5-1,1.1-1.3,1.9c-0.2,0.6,0.1,1.4,0.7,1.6
		c0.6,0.2,1.4-0.1,1.6-0.7c0.2-0.4,0.4-0.7,0.6-1c0.2-0.2,0.5-0.4,0.8-0.4c0.4-0.1,0.8-0.1,1.2,0c0.5,0.1,1,0.3,1.6,0.6l0,0l0,0
		c0.8,0.4,1.5,1,2.2,1.8c0.7,0.8,1.4,1.6,1.9,2.6c0.5,0.9,1,1.9,1.3,2.9c0.3,0.9,0.4,1.9,0.4,2.8c0,0.5,0,0.9-0.1,1.3h0l0,0
		C157.5,158.9,157.4,159.2,157.2,159.5L157.2,159.5z"/>
	<path class="st15" d="M158.9,157.3c0,0.3,0,0.6-0.1,0.9c-0.1,0.7-0.3,1.3-0.5,1.9l-0.5,1.1c-0.6-0.3-1-0.9-0.6-1.7l0.3-0.9
		c0-0.1,0-0.2,0.1-0.3c0-0.3,0.1-0.6,0.1-0.9c0-3.9-2.6-8-5.8-10c-0.8-0.5-1.8-0.8-2.6-0.7c-0.7,0.1-1.3,0.5-1.7,1.4
		c-0.3,0.7-0.9,0.9-1.5,0.7l0.3-1.2c0.3-0.8,0.8-1.4,1.3-1.7c0.3-0.2,0.6-0.3,1-0.4c1.1-0.2,2.3,0,3.7,0.8c1.8,1,3.4,2.8,4.5,4.8
		C158.2,153,158.9,155.3,158.9,157.3L158.9,157.3z"/>
	<path class="st2" d="M227.4,202.3l-7.9,4.5c-0.6,0.4-1,1.2-1,2.3c0,1.6,0.8,3.5,2.1,4.9l7.9-4.5c-1.2-1.4-2.1-3.3-2.1-4.9
		C226.4,203.4,226.8,202.6,227.4,202.3L227.4,202.3z"/>
	<path class="st16" d="M246.1,197l-2.8-4.8c-0.1-0.1-0.1-0.2-0.2-0.2c-0.1,0-0.2,0-0.3,0l-21.5,12.4c-0.2,0.1-0.3,0-0.4-0.1
		c-0.1-0.2,0-0.3,0.1-0.4l22.3-12.9c0.2-0.1,0.5-0.2,0.8-0.1l0,0c0.3,0.1,0.5,0.2,0.6,0.5l2.8,4.8L246.1,197z"/>
	<path class="st17" d="M249.3,190.8L249.3,190.8c-0.4,0.7-1,1.3-1.8,1.8c-0.8,0.5-1.6,0.7-2.4,0.6l0,0l3.3,5.7l0,0
		c0.4-0.7,1-1.3,1.8-1.8c0.8-0.5,1.6-0.7,2.4-0.6l0,0v0c0.9-0.5,0.9-2.2,0-3.8C251.7,191.1,250.2,190.3,249.3,190.8L249.3,190.8
		l3.3,5.7L249.3,190.8z"/>
	<path class="st18" d="M242.8,195.3c0-0.8,0.3-1.4,0.8-1.7c0.2-0.1,0.8-0.4,1-0.6c0.5-0.3,1.1-0.2,1.9,0.2c0.7,0.4,1.4,1.1,1.9,2
		c0.5,0.8,0.8,1.7,0.8,2.6c0,0.8-0.3,1.4-0.8,1.7c-0.2,0.1-0.8,0.4-1,0.6c-0.5,0.3-1.1,0.2-1.9-0.2c-0.7-0.4-1.4-1.1-1.9-2
		C243.1,197,242.8,196.1,242.8,195.3L242.8,195.3z"/>
	<path class="st19" d="M244.1,193.7l-36.2,20.9c-0.4,0.2-0.7,0.8-0.7,1.5c0,0.7,0.3,1.6,0.7,2.3c0.4,0.7,1,1.4,1.7,1.7
		c0.6,0.4,1.2,0.4,1.7,0.2l36.2-20.9c0.4-0.2,0.7-0.8,0.7-1.5c0-0.7-0.3-1.6-0.7-2.3c-0.4-0.7-1-1.4-1.7-1.7
		C245.1,193.5,244.5,193.5,244.1,193.7L244.1,193.7z"/>
	<path class="st20" d="M206.9,216c0-0.8,0.3-1.4,0.8-1.7c0.2-0.1,0.8-0.4,1-0.6c0.5-0.3,1.1-0.2,1.9,0.2c0.7,0.4,1.4,1.1,1.9,2
		c0.5,0.8,0.8,1.8,0.8,2.6c0,0.8-0.3,1.4-0.8,1.7c-0.2,0.1-0.8,0.4-1,0.6c-0.5,0.3-1.1,0.2-1.9-0.2c-0.7-0.4-1.4-1.1-1.9-2
		C207.2,217.8,206.9,216.9,206.9,216L206.9,216z"/>
	<path class="st17" d="M184.8,228l22.8-13.2c0.4-0.2,1-0.2,1.7,0.2c0.6,0.4,1.2,1,1.7,1.7c0.4,0.7,0.7,1.6,0.7,2.3
		c0,0.7-0.3,1.3-0.7,1.5l-22.8,13.2c-2.7,1.6-5.1,2.7-8.1,3.8l-6.5,2.4l-1.4-2.4l5.4-4.4C179.9,231.1,182.1,229.5,184.8,228
		L184.8,228z"/>
	<path class="st20" d="M172,237.6l-3.1,2.5l0.7,1.2l3.7-1.4c0.1,0,0.1,0,0.1-0.1c0.2-0.1,0.3-0.3,0.3-0.6c0-0.3-0.1-0.7-0.3-1
		c-0.2-0.3-0.4-0.6-0.7-0.7c-0.3-0.2-0.5-0.2-0.7-0.1C172.1,237.5,172.1,237.6,172,237.6L172,237.6z"/>
	<path class="st21" d="M168.8,240.5c0-0.2,0.1-0.3,0.1-0.3c0.1-0.1,0.2,0,0.4,0c0.1,0.1,0.3,0.2,0.4,0.4c0.1,0.2,0.1,0.3,0.1,0.5
		c0,0.2-0.1,0.3-0.1,0.3c-0.1,0.1-0.2,0-0.4,0c-0.1-0.1-0.3-0.2-0.4-0.4C168.9,240.8,168.8,240.6,168.8,240.5L168.8,240.5z"/>
	<path class="st22" d="M168.3,241.1l0.4-0.2c0.1-0.1,0.3,0,0.4,0.1c0.1,0.1,0,0.3-0.1,0.4l-0.4,0.2c-0.1,0.1-0.3,0-0.4-0.1
		C168.1,241.3,168.1,241.1,168.3,241.1L168.3,241.1z"/>
	<path class="st21" d="M169.5,240.3l-0.8,0.5l0,0.1l0.3,0.5l0.1,0l0.8-0.5C169.8,240.6,169.7,240.4,169.5,240.3L169.5,240.3z"/>
	<path class="st23" d="M168.2,241.4l80.1-46.3c0.6-1,2.1-1.9,3.1-1.9c0.4,0,0.8-0.2,1.2-0.6l0,0c0.9,1.6,0.9,3.3,0,3.8l0,0
		c-0.8,0-1.6,0.2-2.4,0.6c-0.4,0.2-0.8,0.6-1.1,0.9c-0.1,0.7-0.3,1.2-0.8,1.4l-1,0.6c-0.3,0.2-0.6,0.2-1,0.1L213,219.4
		c-0.1,0.4-0.4,0.7-0.6,0.8l-1,0.6c-0.3,0.2-0.6,0.2-1,0.1l-22.2,12.8c-2.7,1.6-5.1,2.7-8.1,3.8l-6.5,2.4c0,0-0.1,0-0.1,0.1
		l-3.7,1.4c-0.1,0.1-0.2,0-0.4,0c0,0-0.1-0.1-0.1-0.1l-0.2,0.1l-0.1,0l0,0l-0.4,0.2C168.4,241.6,168.2,241.5,168.2,241.4
		L168.2,241.4z"/>
	<path class="st0" d="M219.6,206.8l16.8-9.7c0.7-0.4,1.7-0.4,2.8,0.3c2.2,1.2,3.9,4.3,3.9,6.8l-16.8,9.7c0-2.5-1.7-5.5-3.9-6.8
		C221.3,206.5,220.3,206.4,219.6,206.8L219.6,206.8z"/>
</g>
<g>
	<polygon class="st24" points="248.3,52.5 259.9,85 271.6,117.6 249,123.1 225,144.4 236.6,98.4 248.3,52.5 245.6,63.2 163.5,15.8 
		166.2,5.1 	"/>
	<polygon class="st25" points="245.6,63.2 225,144.4 143,97.1 163.5,15.8 	"/>
	<polygon class="st26" points="232.7,114.2 225,144.4 249,123.1 	"/>
	<polygon class="st27" points="271.6,117.6 236.6,98.4 232.7,114.2 249,123.1 	"/>
	<polygon class="st28" points="248.3,52.5 236.6,98.4 271.6,117.6 	"/>
	<g>
		<path class="st29" d="M228.9,59.7c-0.1,0-0.2,0-0.3-0.1l-50.7-29.3c-0.3-0.2-0.4-0.5-0.2-0.8c0.2-0.3,0.5-0.4,0.8-0.2l50.7,29.3
			c0.3,0.2,0.4,0.5,0.2,0.8C229.3,59.6,229.1,59.7,228.9,59.7z"/>
	</g>
	<g>
		<path class="st29" d="M220.5,60c-0.1,0-0.2,0-0.3-0.1L184,39.1c-0.3-0.2-0.4-0.5-0.2-0.8c0.2-0.3,0.5-0.4,0.8-0.2l36.2,20.9
			c0.3,0.2,0.4,0.5,0.2,0.8C220.9,59.9,220.7,60,220.5,60z"/>
	</g>
	<g>
		<defs>
			<polygon id="SVGID_1_" points="172.1,19.2 165.2,15.3 168.8,1 178.4,6.5 177.6,9.8 177.2,11.4 174,9.6 173.1,13.2 176.2,15 
				174.8,20.8 			"/>
		</defs>
		<clipPath id="SVGID_2_">
			<use xlink:href="#SVGID_1_"  style="overflow:visible;"/>
		</clipPath>
		<path class="st30" d="M172.5,12.9c0.7,0.4,1.7,1,2.4,1.4c-0.3,1-0.4,1.8-0.7,2.8c-0.7-0.4-1.7-1-2.4-1.4
			C172.1,14.7,172.3,13.9,172.5,12.9L172.5,12.9z"/>
		<g class="st31">
			<path class="st7" d="M170.4,16.6c-0.4,0-0.8-0.1-1.2-0.3c-0.8-0.5-1.3-1.5-1.3-2.9c0-1.3,0.4-2.8,1.2-4.2c0.8-1.4,1.9-2.5,3-3.2
				c1.2-0.7,2.3-0.8,3.1-0.3c0.8,0.5,1.3,1.5,1.3,2.9c0,1.3-0.4,2.8-1.2,4.2c-0.8,1.4-1.9,2.5-3,3.2C171.7,16.4,171,16.6,170.4,16.6
				z M174.1,5.9c-0.5,0-1.1,0.2-1.7,0.5c-1.1,0.6-2.1,1.7-2.8,3c-0.8,1.3-1.2,2.7-1.2,4c0,1.2,0.4,2.1,1.1,2.5
				c0.7,0.4,1.7,0.3,2.7-0.3c1.1-0.6,2.1-1.7,2.8-3c0.8-1.3,1.2-2.7,1.2-4c0-1.2-0.4-2.1-1.1-2.5C174.8,6,174.4,5.9,174.1,5.9z"/>
		</g>
		<g class="st31">
			<path class="st7" d="M169.5,16c-0.4,0-0.8-0.1-1.2-0.3c-0.8-0.5-1.3-1.5-1.3-2.9c0-1.3,0.4-2.8,1.2-4.2c0.8-1.4,1.9-2.5,3-3.2
				c1.2-0.7,2.3-0.8,3.1-0.3c0.8,0.5,1.3,1.5,1.3,2.9c0,1.3-0.4,2.8-1.2,4.2c-0.8,1.4-1.9,2.5-3,3.2C170.8,15.8,170.1,16,169.5,16z
				 M173.2,5.4c-0.5,0-1.1,0.2-1.7,0.5c-1.1,0.6-2.1,1.7-2.8,3c-0.8,1.3-1.2,2.7-1.2,4c0,1.2,0.4,2.1,1.1,2.5
				c0.7,0.4,1.7,0.3,2.7-0.3c1.1-0.6,2.1-1.7,2.8-3c0.8-1.3,1.2-2.7,1.2-4c0-1.2-0.4-2.1-1.1-2.5C173.9,5.4,173.5,5.4,173.2,5.4z"/>
		</g>
	</g>
	<g>
		<defs>
			<polygon id="SVGID_3_" points="176.6,21.9 169.7,17.9 173.4,3.6 182.9,9.1 182.1,12.4 181.7,14 178.5,12.2 177.6,15.8 
				180.8,17.6 179.3,23.4 			"/>
		</defs>
		<clipPath id="SVGID_4_">
			<use xlink:href="#SVGID_3_"  style="overflow:visible;"/>
		</clipPath>
		<path class="st32" d="M177.1,15.5c0.7,0.4,1.7,1,2.4,1.4c-0.3,1-0.4,1.8-0.7,2.8c-0.7-0.4-1.7-1-2.4-1.4
			C176.6,17.3,176.8,16.5,177.1,15.5L177.1,15.5z"/>
		<g class="st33">
			<path class="st7" d="M174.9,19.2c-0.4,0-0.8-0.1-1.2-0.3c-0.8-0.5-1.3-1.5-1.3-2.9c0-1.3,0.4-2.8,1.2-4.2c0.8-1.4,1.9-2.5,3-3.2
				c1.2-0.7,2.3-0.8,3.1-0.3c0.8,0.5,1.3,1.5,1.3,2.9c0,1.3-0.4,2.8-1.2,4.2c-0.8,1.4-1.9,2.5-3,3.2C176.2,19,175.5,19.2,174.9,19.2
				z M178.6,8.5c-0.5,0-1.1,0.2-1.7,0.5c-1.1,0.6-2.1,1.7-2.8,3c-0.8,1.3-1.2,2.7-1.2,4c0,1.2,0.4,2.1,1.1,2.5
				c0.7,0.4,1.7,0.3,2.7-0.3c1.1-0.6,2.1-1.7,2.8-3c0.8-1.3,1.2-2.7,1.2-4c0-1.2-0.4-2.1-1.1-2.5C179.3,8.6,179,8.5,178.6,8.5z"/>
		</g>
		<g class="st33">
			<path class="st7" d="M174,18.6c-0.4,0-0.8-0.1-1.2-0.3c-0.8-0.5-1.3-1.5-1.3-2.9c0-1.3,0.4-2.8,1.2-4.2c0.8-1.4,1.9-2.5,3-3.2
				c1.2-0.7,2.3-0.8,3.1-0.3c0.8,0.5,1.3,1.5,1.3,2.9c0,1.3-0.4,2.8-1.2,4.2c-0.8,1.4-1.9,2.5-3,3.2C175.3,18.4,174.6,18.6,174,18.6
				z M177.7,8c-0.5,0-1.1,0.2-1.7,0.5c-1.1,0.6-2.1,1.7-2.8,3c-0.8,1.3-1.2,2.7-1.2,4c0,1.2,0.4,2.1,1.1,2.5
				c0.7,0.4,1.7,0.3,2.7-0.3c1.1-0.6,2.1-1.7,2.8-3c0.8-1.3,1.2-2.7,1.2-4c0-1.2-0.4-2.1-1.1-2.5C178.4,8,178.1,8,177.7,8z"/>
		</g>
	</g>
	<g>
		<defs>
			<polygon id="SVGID_5_" points="181.1,24.5 174.2,20.5 177.9,6.2 187.4,11.7 186.6,15 186.2,16.6 183.1,14.8 182.1,18.4 
				185.3,20.3 183.8,26 181.1,24.5 			"/>
		</defs>
		<clipPath id="SVGID_6_">
			<use xlink:href="#SVGID_5_"  style="overflow:visible;"/>
		</clipPath>
		<path class="st34" d="M181.6,18.1c0.7,0.4,1.7,1,2.4,1.4c-0.3,1-0.4,1.8-0.7,2.8c-0.7-0.4-1.7-1-2.4-1.4
			C181.1,19.9,181.3,19.1,181.6,18.1L181.6,18.1z"/>
		<g class="st35">
			<path class="st7" d="M179.4,21.8c-0.4,0-0.8-0.1-1.2-0.3c-0.8-0.5-1.3-1.5-1.3-2.9c0-1.3,0.4-2.8,1.2-4.2c0.8-1.4,1.9-2.5,3-3.2
				c1.2-0.7,2.3-0.8,3.1-0.3c0.8,0.5,1.3,1.5,1.3,2.9c0,1.3-0.4,2.8-1.2,4.2c-0.8,1.4-1.9,2.5-3,3.2C180.7,21.6,180,21.8,179.4,21.8
				z M183.1,11.1c-0.5,0-1.1,0.2-1.7,0.5c-1.1,0.6-2.1,1.7-2.8,3c-0.8,1.3-1.2,2.7-1.2,4c0,1.2,0.4,2.1,1.1,2.5
				c0.7,0.4,1.7,0.3,2.7-0.3c1.1-0.6,2.1-1.7,2.8-3c0.8-1.3,1.2-2.7,1.2-4c0-1.2-0.4-2.1-1.1-2.5C183.8,11.2,183.5,11.1,183.1,11.1z
				"/>
		</g>
		<g class="st35">
			<path class="st7" d="M178.5,21.3c-0.4,0-0.8-0.1-1.2-0.3c-0.8-0.5-1.3-1.5-1.3-2.9c0-1.3,0.4-2.8,1.2-4.2c0.8-1.4,1.9-2.5,3-3.2
				c1.2-0.7,2.3-0.8,3.1-0.3c0.8,0.5,1.3,1.5,1.3,2.9c0,1.3-0.4,2.8-1.2,4.2c-0.8,1.4-1.9,2.5-3,3.2
				C179.8,21.1,179.1,21.3,178.5,21.3z M182.2,10.6c-0.5,0-1.1,0.2-1.7,0.5c-1.1,0.6-2.1,1.7-2.8,3c-0.8,1.3-1.2,2.7-1.2,4
				c0,1.2,0.4,2.1,1.1,2.5c0.7,0.4,1.7,0.3,2.7-0.3c1.1-0.6,2.1-1.7,2.8-3c0.8-1.3,1.2-2.7,1.2-4c0-1.2-0.4-2.1-1.1-2.5
				C182.9,10.7,182.6,10.6,182.2,10.6z"/>
		</g>
	</g>
	<g>
		<defs>
			<polygon id="SVGID_7_" points="185.6,27.1 178.8,23.1 182.4,8.8 192,14.3 191.1,17.6 190.7,19.2 187.6,17.4 186.6,21 189.8,22.9 
				188.3,28.6 			"/>
		</defs>
		<clipPath id="SVGID_8_">
			<use xlink:href="#SVGID_7_"  style="overflow:visible;"/>
		</clipPath>
		<path class="st36" d="M186.1,20.7c0.7,0.4,1.7,1,2.4,1.4c-0.3,1-0.4,1.8-0.7,2.8c-0.7-0.4-1.7-1-2.4-1.4
			C185.6,22.5,185.8,21.7,186.1,20.7L186.1,20.7z"/>
		<g class="st37">
			<path class="st7" d="M183.9,24.4c-0.4,0-0.8-0.1-1.2-0.3c-0.8-0.5-1.3-1.5-1.3-2.9c0-1.3,0.4-2.8,1.2-4.2c0.8-1.4,1.9-2.5,3-3.2
				c1.2-0.7,2.3-0.8,3.1-0.3c0.8,0.5,1.3,1.5,1.3,2.9c0,1.3-0.4,2.8-1.2,4.2c-0.8,1.4-1.9,2.5-3,3.2
				C185.2,24.2,184.5,24.4,183.9,24.4z M187.6,13.7c-0.5,0-1.1,0.2-1.7,0.5c-1.1,0.6-2.1,1.7-2.8,3c-0.8,1.3-1.2,2.7-1.2,4
				c0,1.2,0.4,2.1,1.1,2.5c0.7,0.4,1.7,0.3,2.7-0.3c1.1-0.6,2.1-1.7,2.8-3c0.8-1.3,1.2-2.7,1.2-4c0-1.2-0.4-2.1-1.1-2.5
				C188.3,13.8,188,13.7,187.6,13.7z"/>
		</g>
		<g class="st37">
			<path class="st7" d="M183,23.9c-0.4,0-0.8-0.1-1.2-0.3c-0.8-0.5-1.3-1.5-1.3-2.9c0-1.3,0.4-2.8,1.2-4.2c0.8-1.4,1.9-2.5,3-3.2
				c1.2-0.7,2.3-0.8,3.1-0.3c0.8,0.5,1.3,1.5,1.3,2.9c0,1.3-0.4,2.8-1.2,4.2c-0.8,1.4-1.9,2.5-3,3.2C184.3,23.7,183.6,23.9,183,23.9
				z M186.7,13.2c-0.5,0-1.1,0.2-1.7,0.5c-1.1,0.6-2.1,1.7-2.8,3c-0.8,1.3-1.2,2.7-1.2,4c0,1.2,0.4,2.1,1.1,2.5
				c0.7,0.4,1.7,0.3,2.7-0.3c1.1-0.6,2.1-1.7,2.8-3c0.8-1.3,1.2-2.7,1.2-4c0-1.2-0.4-2.1-1.1-2.5C187.4,13.3,187.1,13.2,186.7,13.2z
				"/>
		</g>
	</g>
	<g>
		<defs>
			<polygon id="SVGID_9_" points="190.1,29.7 183.3,25.7 186.9,11.4 196.5,16.9 195.6,20.2 195.2,21.9 192.1,20 191.2,23.6 
				194.3,25.5 192.8,31.2 			"/>
		</defs>
		<clipPath id="SVGID_10_">
			<use xlink:href="#SVGID_9_"  style="overflow:visible;"/>
		</clipPath>
		<path class="st38" d="M190.6,23.3c0.7,0.4,1.7,1,2.4,1.4c-0.3,1-0.4,1.8-0.7,2.8c-0.7-0.4-1.7-1-2.4-1.4
			C190.1,25.1,190.3,24.3,190.6,23.3L190.6,23.3z"/>
		<g class="st39">
			<path class="st7" d="M188.4,27c-0.4,0-0.8-0.1-1.2-0.3c-0.8-0.5-1.3-1.5-1.3-2.9c0-1.3,0.4-2.8,1.2-4.2c0.8-1.4,1.9-2.5,3-3.2
				c1.2-0.7,2.3-0.8,3.1-0.3c0.8,0.5,1.3,1.5,1.3,2.9c0,1.3-0.4,2.8-1.2,4.2c-0.8,1.4-1.9,2.5-3,3.2C189.7,26.8,189.1,27,188.4,27z
				 M192.1,16.3c-0.5,0-1.1,0.2-1.7,0.5c-1.1,0.6-2.1,1.7-2.8,3c-0.8,1.3-1.2,2.7-1.2,4c0,1.2,0.4,2.1,1.1,2.5
				c0.7,0.4,1.7,0.3,2.7-0.3c1.1-0.6,2.1-1.7,2.8-3c0.8-1.3,1.2-2.7,1.2-4c0-1.2-0.4-2.1-1.1-2.5C192.8,16.4,192.5,16.3,192.1,16.3z
				"/>
		</g>
		<g class="st39">
			<path class="st7" d="M187.5,26.5c-0.4,0-0.8-0.1-1.2-0.3c-0.8-0.5-1.3-1.5-1.3-2.9c0-1.3,0.4-2.8,1.2-4.2c0.8-1.4,1.9-2.5,3-3.2
				c1.2-0.7,2.3-0.8,3.1-0.3c0.8,0.5,1.3,1.5,1.3,2.9c0,1.3-0.4,2.8-1.2,4.2c-0.8,1.4-1.9,2.5-3,3.2
				C188.8,26.3,188.2,26.5,187.5,26.5z M191.2,15.8c-0.5,0-1.1,0.2-1.7,0.5c-1.1,0.6-2.1,1.7-2.8,3c-0.8,1.3-1.2,2.7-1.2,4
				c0,1.2,0.4,2.1,1.1,2.5c0.7,0.4,1.7,0.3,2.7-0.3c1.1-0.6,2.1-1.7,2.8-3c0.8-1.3,1.2-2.7,1.2-4c0-1.2-0.4-2.1-1.1-2.5
				C191.9,15.9,191.6,15.8,191.2,15.8z"/>
		</g>
	</g>
	<g>
		<defs>
			<polygon id="SVGID_11_" points="194.6,32.3 187.8,28.3 191.4,14 201,19.5 200.1,22.8 199.7,24.5 196.6,22.6 195.7,26.3 
				198.8,28.1 197.4,33.8 194.6,32.3 			"/>
		</defs>
		<clipPath id="SVGID_12_">
			<use xlink:href="#SVGID_11_"  style="overflow:visible;"/>
		</clipPath>
		<path class="st40" d="M195.1,25.9c0.7,0.4,1.7,1,2.4,1.4c-0.3,1-0.4,1.8-0.7,2.8c-0.7-0.4-1.7-1-2.4-1.4
			C194.7,27.7,194.8,26.9,195.1,25.9L195.1,25.9z"/>
		<g class="st41">
			<path class="st7" d="M193,29.6c-0.4,0-0.8-0.1-1.2-0.3c-0.8-0.5-1.3-1.5-1.3-2.9c0-1.3,0.4-2.8,1.2-4.2c0.8-1.4,1.9-2.5,3-3.2
				c1.2-0.7,2.3-0.8,3.1-0.3c0.8,0.5,1.3,1.5,1.3,2.9c0,1.3-0.4,2.8-1.2,4.2c-0.8,1.4-1.9,2.5-3,3.2C194.2,29.4,193.6,29.6,193,29.6
				z M196.7,18.9c-0.5,0-1.1,0.2-1.7,0.5c-1.1,0.6-2.1,1.7-2.8,3c-0.8,1.3-1.2,2.7-1.2,4c0,1.2,0.4,2.1,1.1,2.5
				c0.7,0.4,1.7,0.3,2.7-0.3c1.1-0.6,2.1-1.7,2.8-3c0.8-1.3,1.2-2.7,1.2-4c0-1.2-0.4-2.1-1.1-2.5C197.3,19,197,18.9,196.7,18.9z"/>
		</g>
		<g class="st41">
			<path class="st7" d="M192.1,29.1c-0.4,0-0.8-0.1-1.2-0.3c-0.8-0.5-1.3-1.5-1.3-2.9c0-1.3,0.4-2.8,1.2-4.2c0.8-1.4,1.9-2.5,3-3.2
				c1.2-0.7,2.3-0.8,3.1-0.3c0.8,0.5,1.3,1.5,1.3,2.9c0,1.3-0.4,2.8-1.2,4.2c-0.8,1.4-1.9,2.5-3,3.2
				C193.3,28.9,192.7,29.1,192.1,29.1z M195.8,18.4c-0.5,0-1.1,0.2-1.7,0.5c-1.1,0.6-2.1,1.7-2.9,3c-0.8,1.3-1.2,2.7-1.2,4
				c0,1.2,0.4,2.1,1.1,2.5c0.7,0.4,1.7,0.3,2.7-0.3c1.1-0.6,2.1-1.7,2.8-3c0.8-1.3,1.2-2.7,1.2-4c0-1.2-0.4-2.1-1.1-2.5
				C196.4,18.5,196.1,18.4,195.8,18.4z"/>
		</g>
	</g>
	<g>
		<defs>
			<polygon id="SVGID_13_" points="199.2,34.9 192.3,30.9 195.9,16.6 205.5,22.1 204.7,25.4 204.3,27.1 201.1,25.2 200.2,28.9 
				203.3,30.7 201.9,36.4 			"/>
		</defs>
		<clipPath id="SVGID_14_">
			<use xlink:href="#SVGID_13_"  style="overflow:visible;"/>
		</clipPath>
		<path class="st42" d="M199.6,28.5c0.7,0.4,1.7,1,2.4,1.4c-0.3,1-0.4,1.8-0.7,2.8c-0.7-0.4-1.7-1-2.4-1.4
			C199.2,30.3,199.4,29.5,199.6,28.5L199.6,28.5z"/>
		<g class="st43">
			<path class="st7" d="M197.5,32.2c-0.4,0-0.8-0.1-1.2-0.3c-0.8-0.5-1.3-1.5-1.3-2.9c0-1.3,0.4-2.8,1.2-4.2c0.8-1.4,1.9-2.5,3-3.2
				c1.2-0.7,2.3-0.8,3.1-0.3c0.8,0.5,1.3,1.5,1.3,2.9c0,1.3-0.4,2.8-1.2,4.2c-0.8,1.4-1.9,2.5-3,3.2C198.7,32,198.1,32.2,197.5,32.2
				z M201.2,21.5c-0.5,0-1.1,0.2-1.7,0.5c-1.1,0.6-2.1,1.7-2.9,3c-0.8,1.3-1.2,2.7-1.2,4c0,1.2,0.4,2.1,1.1,2.5
				c0.7,0.4,1.7,0.3,2.7-0.3c1.1-0.6,2.1-1.7,2.8-3c0.8-1.3,1.2-2.7,1.2-4c0-1.2-0.4-2.1-1.1-2.5C201.9,21.6,201.5,21.5,201.2,21.5z
				"/>
		</g>
		<g class="st43">
			<path class="st7" d="M196.6,31.7c-0.4,0-0.8-0.1-1.2-0.3c-0.8-0.5-1.3-1.5-1.3-2.9c0-1.3,0.4-2.8,1.2-4.2c0.8-1.4,1.9-2.5,3-3.2
				c1.2-0.7,2.3-0.8,3.1-0.3c0.8,0.5,1.3,1.5,1.3,2.9c0,1.3-0.4,2.8-1.2,4.2c-0.8,1.4-1.9,2.5-3,3.2
				C197.8,31.5,197.2,31.7,196.6,31.7z M200.3,21c-0.5,0-1.1,0.2-1.7,0.5c-1.1,0.6-2.1,1.7-2.9,3c-0.8,1.3-1.2,2.7-1.2,4
				c0,1.2,0.4,2.1,1.1,2.5c0.7,0.4,1.7,0.3,2.7-0.3c1.1-0.6,2.1-1.7,2.8-3c0.8-1.3,1.2-2.7,1.2-4c0-1.2-0.4-2.1-1.1-2.5
				C201,21.1,200.6,21,200.3,21z"/>
		</g>
	</g>
	<g>
		<defs>
			<polygon id="SVGID_15_" points="203.7,37.5 196.8,33.5 200.4,19.2 210,24.7 209.2,28.1 208.8,29.7 205.6,27.9 204.7,31.5 
				207.8,33.3 206.4,39.1 			"/>
		</defs>
		<clipPath id="SVGID_16_">
			<use xlink:href="#SVGID_15_"  style="overflow:visible;"/>
		</clipPath>
		<path class="st44" d="M204.1,31.1c0.7,0.4,1.7,1,2.4,1.4c-0.3,1-0.4,1.8-0.7,2.8c-0.7-0.4-1.7-1-2.4-1.4
			C203.7,32.9,203.9,32.2,204.1,31.1L204.1,31.1z"/>
		<g class="st45">
			<path class="st7" d="M202,34.8c-0.4,0-0.8-0.1-1.2-0.3c-0.8-0.5-1.3-1.5-1.3-2.9c0-1.3,0.4-2.8,1.2-4.2c0.8-1.4,1.9-2.5,3-3.2
				c1.2-0.7,2.3-0.8,3.1-0.3c0.8,0.5,1.3,1.5,1.3,2.9c0,1.3-0.4,2.8-1.2,4.2c-0.8,1.4-1.9,2.5-3,3.2C203.3,34.6,202.6,34.8,202,34.8
				z M205.7,24.1c-0.5,0-1.1,0.2-1.7,0.5c-1.1,0.6-2.1,1.7-2.8,3c-0.8,1.3-1.2,2.7-1.2,4c0,1.2,0.4,2.1,1.1,2.5
				c0.7,0.4,1.7,0.3,2.7-0.3c1.1-0.6,2.1-1.7,2.8-3c0.8-1.3,1.2-2.7,1.2-4c0-1.2-0.4-2.1-1.1-2.5C206.4,24.2,206,24.1,205.7,24.1z"
				/>
		</g>
		<g class="st45">
			<path class="st7" d="M201.1,34.3c-0.4,0-0.8-0.1-1.2-0.3c-0.8-0.5-1.3-1.5-1.3-2.9c0-1.3,0.4-2.8,1.2-4.2c0.8-1.4,1.9-2.5,3-3.2
				c1.2-0.7,2.3-0.8,3.1-0.3c0.8,0.5,1.3,1.5,1.3,2.9c0,1.3-0.4,2.8-1.2,4.2c-0.8,1.4-1.9,2.5-3,3.2
				C202.4,34.1,201.7,34.3,201.1,34.3z M204.8,23.6c-0.5,0-1.1,0.2-1.7,0.5c-1.1,0.6-2.1,1.7-2.9,3c-0.8,1.3-1.2,2.7-1.2,4
				c0,1.2,0.4,2.1,1.1,2.5c0.7,0.4,1.7,0.3,2.7-0.3c1.1-0.6,2.1-1.7,2.8-3c0.8-1.3,1.2-2.7,1.2-4c0-1.2-0.4-2.1-1.1-2.5
				C205.5,23.7,205.1,23.6,204.8,23.6z"/>
		</g>
	</g>
	<g>
		<defs>
			<polygon id="SVGID_17_" points="208.2,40.1 201.3,36.1 204.9,21.8 214.5,27.3 213.7,30.7 213.3,32.3 210.1,30.5 209.2,34.1 
				212.3,35.9 210.9,41.7 208.2,40.1 			"/>
		</defs>
		<clipPath id="SVGID_18_">
			<use xlink:href="#SVGID_17_"  style="overflow:visible;"/>
		</clipPath>
		<path class="st46" d="M208.6,33.8c0.7,0.4,1.7,1,2.4,1.4c-0.3,1-0.4,1.8-0.7,2.8c-0.7-0.4-1.7-1-2.4-1.4
			C208.2,35.5,208.4,34.8,208.6,33.8L208.6,33.8z"/>
		<g class="st47">
			<path class="st7" d="M206.5,37.4c-0.4,0-0.8-0.1-1.2-0.3c-0.8-0.5-1.3-1.5-1.3-2.9c0-1.3,0.4-2.8,1.2-4.2c0.8-1.4,1.9-2.5,3-3.2
				c1.2-0.7,2.3-0.8,3.1-0.3c0.8,0.5,1.3,1.5,1.3,2.9c0,1.3-0.4,2.8-1.2,4.2c-0.8,1.4-1.9,2.5-3,3.2
				C207.8,37.2,207.1,37.4,206.5,37.4z M210.2,26.7c-0.5,0-1.1,0.2-1.7,0.5c-1.1,0.6-2.1,1.7-2.8,3c-0.8,1.3-1.2,2.7-1.2,4
				c0,1.2,0.4,2.1,1.1,2.5c0.7,0.4,1.7,0.3,2.7-0.3c1.1-0.6,2.1-1.7,2.8-3c0.8-1.3,1.2-2.7,1.2-4c0-1.2-0.4-2.1-1.1-2.5
				C210.9,26.8,210.6,26.7,210.2,26.7z"/>
		</g>
		<g class="st47">
			<path class="st7" d="M205.6,36.9c-0.4,0-0.8-0.1-1.2-0.3c-0.8-0.5-1.3-1.5-1.3-2.9c0-1.3,0.4-2.8,1.2-4.2c0.8-1.4,1.9-2.5,3-3.2
				c1.2-0.7,2.3-0.8,3.1-0.3c0.8,0.5,1.3,1.5,1.3,2.9c0,1.3-0.4,2.8-1.2,4.2c-0.8,1.4-1.9,2.5-3,3.2
				C206.9,36.7,206.2,36.9,205.6,36.9z M209.3,26.2c-0.5,0-1.1,0.2-1.7,0.5c-1.1,0.6-2.1,1.7-2.8,3c-0.8,1.3-1.2,2.7-1.2,4
				c0,1.2,0.4,2.1,1.1,2.5c0.7,0.4,1.7,0.3,2.7-0.3c1.1-0.6,2.1-1.7,2.8-3c0.8-1.3,1.2-2.7,1.2-4c0-1.2-0.4-2.1-1.1-2.5
				C210,26.3,209.7,26.2,209.3,26.2z"/>
		</g>
	</g>
	<g>
		<defs>
			<polygon id="SVGID_19_" points="212.7,42.7 205.8,38.7 209.5,24.4 219,29.9 218.2,33.3 217.8,34.9 214.7,33.1 213.7,36.7 
				216.9,38.5 215.4,44.3 			"/>
		</defs>
		<clipPath id="SVGID_20_">
			<use xlink:href="#SVGID_19_"  style="overflow:visible;"/>
		</clipPath>
		<path class="st48" d="M213.2,36.4c0.7,0.4,1.7,1,2.4,1.4c-0.3,1-0.4,1.8-0.7,2.8c-0.7-0.4-1.7-1-2.4-1.4
			C212.7,38.1,212.9,37.4,213.2,36.4L213.2,36.4z"/>
		<g class="st49">
			<path class="st7" d="M211,40c-0.4,0-0.8-0.1-1.2-0.3c-0.8-0.5-1.3-1.5-1.3-2.9c0-1.3,0.4-2.8,1.2-4.2c0.8-1.4,1.9-2.5,3-3.2
				c1.2-0.7,2.3-0.8,3.1-0.3c0.8,0.5,1.3,1.5,1.3,2.9c0,1.3-0.4,2.8-1.2,4.2c-0.8,1.4-1.9,2.5-3,3.2C212.3,39.8,211.6,40,211,40z
				 M214.7,29.3c-0.5,0-1.1,0.2-1.7,0.5c-1.1,0.6-2.1,1.7-2.8,3c-0.8,1.3-1.2,2.7-1.2,4c0,1.2,0.4,2.1,1.1,2.5
				c0.7,0.4,1.7,0.3,2.7-0.3c1.1-0.6,2.1-1.7,2.8-3c0.8-1.3,1.2-2.7,1.2-4c0-1.2-0.4-2.1-1.1-2.5C215.4,29.4,215.1,29.3,214.7,29.3z
				"/>
		</g>
		<g class="st49">
			<path class="st7" d="M210.1,39.5c-0.4,0-0.8-0.1-1.2-0.3c-0.8-0.5-1.3-1.5-1.3-2.9c0-1.3,0.4-2.8,1.2-4.2c0.8-1.4,1.9-2.5,3-3.2
				c1.2-0.7,2.3-0.8,3.1-0.3c0.8,0.5,1.3,1.5,1.3,2.9c0,1.3-0.4,2.8-1.2,4.2c-0.8,1.4-1.9,2.5-3,3.2
				C211.4,39.3,210.7,39.5,210.1,39.5z M213.8,28.8c-0.5,0-1.1,0.2-1.7,0.5c-1.1,0.6-2.1,1.7-2.8,3c-0.8,1.3-1.2,2.7-1.2,4
				c0,1.2,0.4,2.1,1.1,2.5c0.7,0.4,1.7,0.3,2.7-0.3c1.1-0.6,2.1-1.7,2.8-3c0.8-1.3,1.2-2.7,1.2-4c0-1.2-0.4-2.1-1.1-2.5
				C214.5,28.9,214.2,28.8,213.8,28.8z"/>
		</g>
	</g>
	<g>
		<defs>
			<polygon id="SVGID_21_" points="217.2,45.3 210.3,41.3 214,27 223.5,32.6 222.7,35.9 222.3,37.5 219.2,35.7 218.2,39.3 
				221.4,41.1 219.9,46.9 217.2,45.3 			"/>
		</defs>
		<clipPath id="SVGID_22_">
			<use xlink:href="#SVGID_21_"  style="overflow:visible;"/>
		</clipPath>
		<path class="st50" d="M217.7,39c0.7,0.4,1.7,1,2.4,1.4c-0.3,1-0.4,1.8-0.7,2.8c-0.7-0.4-1.7-1-2.4-1.4
			C217.2,40.7,217.4,40,217.7,39L217.7,39z"/>
		<g class="st51">
			<path class="st7" d="M215.5,42.6c-0.4,0-0.8-0.1-1.2-0.3c-0.8-0.5-1.3-1.5-1.3-2.9c0-1.3,0.4-2.8,1.2-4.2c0.8-1.4,1.9-2.5,3-3.2
				c1.2-0.7,2.3-0.8,3.1-0.3c0.8,0.5,1.3,1.5,1.3,2.9c0,1.3-0.4,2.8-1.2,4.2c-0.8,1.4-1.9,2.5-3,3.2
				C216.8,42.4,216.1,42.6,215.5,42.6z M219.2,32c-0.5,0-1.1,0.2-1.7,0.5c-1.1,0.6-2.1,1.7-2.8,3c-0.8,1.3-1.2,2.7-1.2,4
				c0,1.2,0.4,2.1,1.1,2.5c0.7,0.4,1.7,0.3,2.7-0.3c1.1-0.6,2.1-1.7,2.8-3c0.8-1.3,1.2-2.7,1.2-4c0-1.2-0.4-2.1-1.1-2.5
				C219.9,32,219.6,32,219.2,32z"/>
		</g>
		<g class="st51">
			<path class="st7" d="M214.6,42.1c-0.4,0-0.8-0.1-1.2-0.3c-0.8-0.5-1.3-1.5-1.3-2.9c0-1.3,0.4-2.8,1.2-4.2c0.8-1.4,1.9-2.5,3-3.2
				c1.2-0.7,2.3-0.8,3.1-0.3c0.8,0.5,1.3,1.5,1.3,2.9c0,1.3-0.4,2.8-1.2,4.2c-0.8,1.4-1.9,2.5-3,3.2
				C215.9,41.9,215.2,42.1,214.6,42.1z M218.3,31.4c-0.5,0-1.1,0.2-1.7,0.5c-1.1,0.6-2.1,1.7-2.9,3c-0.8,1.3-1.2,2.7-1.2,4
				c0,1.2,0.4,2.1,1.1,2.5c0.7,0.4,1.7,0.3,2.7-0.3c1.1-0.6,2.1-1.7,2.8-3c0.8-1.3,1.2-2.7,1.2-4c0-1.2-0.4-2.1-1.1-2.5
				C219,31.5,218.7,31.4,218.3,31.4z"/>
		</g>
	</g>
	<g>
		<defs>
			<polygon id="SVGID_23_" points="221.7,47.9 214.9,43.9 218.5,29.6 228.1,35.2 227.2,38.5 226.8,40.1 223.7,38.3 222.7,41.9 
				225.9,43.7 224.4,49.5 			"/>
		</defs>
		<clipPath id="SVGID_24_">
			<use xlink:href="#SVGID_23_"  style="overflow:visible;"/>
		</clipPath>
		<path class="st52" d="M222.2,41.6c0.7,0.4,1.7,1,2.4,1.4c-0.3,1-0.4,1.8-0.7,2.8c-0.7-0.4-1.7-1-2.4-1.4
			C221.7,43.3,221.9,42.6,222.2,41.6L222.2,41.6z"/>
		<g class="st53">
			<path class="st7" d="M220,45.2c-0.4,0-0.8-0.1-1.2-0.3c-0.8-0.5-1.3-1.5-1.3-2.9c0-1.3,0.4-2.8,1.2-4.2c0.8-1.4,1.9-2.5,3-3.2
				c1.2-0.7,2.3-0.8,3.1-0.3c0.8,0.5,1.3,1.5,1.3,2.9c0,1.3-0.4,2.8-1.2,4.2c-0.8,1.4-1.9,2.5-3,3.2C221.3,45,220.6,45.2,220,45.2z
				 M223.7,34.6c-0.5,0-1.1,0.2-1.7,0.5c-1.1,0.6-2.1,1.7-2.9,3c-0.8,1.3-1.2,2.7-1.2,4c0,1.2,0.4,2.1,1.1,2.5
				c0.7,0.4,1.7,0.3,2.7-0.3c1.1-0.6,2.1-1.7,2.8-3c0.8-1.3,1.2-2.7,1.2-4c0-1.2-0.4-2.1-1.1-2.5C224.4,34.6,224.1,34.6,223.7,34.6z
				"/>
		</g>
		<g class="st53">
			<path class="st7" d="M219.1,44.7c-0.4,0-0.8-0.1-1.2-0.3c-0.8-0.5-1.3-1.5-1.3-2.9c0-1.3,0.4-2.8,1.2-4.2c0.8-1.4,1.9-2.5,3-3.2
				c1.2-0.7,2.3-0.8,3.1-0.3c0.8,0.5,1.3,1.5,1.3,2.9c0,1.3-0.4,2.8-1.2,4.2c-0.8,1.4-1.9,2.5-3,3.2
				C220.4,44.5,219.7,44.7,219.1,44.7z M222.8,34c-0.5,0-1.1,0.2-1.7,0.5c-1.1,0.6-2.1,1.7-2.8,3c-0.8,1.3-1.2,2.7-1.2,4
				c0,1.2,0.4,2.1,1.1,2.5c0.7,0.4,1.7,0.3,2.7-0.3c1.1-0.6,2.1-1.7,2.8-3c0.8-1.3,1.2-2.7,1.2-4c0-1.2-0.4-2.1-1.1-2.5
				C223.5,34.1,223.2,34,222.8,34z"/>
		</g>
	</g>
	<g>
		<defs>
			<polygon id="SVGID_25_" points="226.2,50.5 219.4,46.6 223,32.2 232.6,37.8 231.7,41.1 231.3,42.7 228.2,40.9 227.3,44.5 
				230.4,46.3 229,52.1 226.2,50.5 			"/>
		</defs>
		<clipPath id="SVGID_26_">
			<use xlink:href="#SVGID_25_"  style="overflow:visible;"/>
		</clipPath>
		<path class="st54" d="M226.7,44.2c0.7,0.4,1.7,1,2.4,1.4c-0.3,1-0.4,1.8-0.7,2.8c-0.7-0.4-1.7-1-2.4-1.4
			C226.2,45.9,226.4,45.2,226.7,44.2L226.7,44.2z"/>
		<g class="st55">
			<path class="st7" d="M224.5,47.8c-0.4,0-0.8-0.1-1.2-0.3c-0.8-0.5-1.3-1.5-1.3-2.9c0-1.3,0.4-2.8,1.2-4.2c0.8-1.4,1.9-2.5,3-3.2
				c1.2-0.7,2.3-0.8,3.1-0.3c0.8,0.5,1.3,1.5,1.3,2.9c0,1.3-0.4,2.8-1.2,4.2c-0.8,1.4-1.9,2.5-3,3.2
				C225.8,47.6,225.2,47.8,224.5,47.8z M228.2,37.2c-0.5,0-1.1,0.2-1.7,0.5c-1.1,0.6-2.1,1.7-2.8,3c-0.8,1.3-1.2,2.7-1.2,4
				c0,1.2,0.4,2.1,1.1,2.5c0.7,0.4,1.7,0.3,2.7-0.3c1.1-0.6,2.1-1.7,2.8-3c0.8-1.3,1.2-2.7,1.2-4c0-1.2-0.4-2.1-1.1-2.5
				C228.9,37.2,228.6,37.2,228.2,37.2z"/>
		</g>
		<g class="st55">
			<path class="st7" d="M223.6,47.3c-0.4,0-0.8-0.1-1.2-0.3c-0.8-0.5-1.3-1.5-1.3-2.9c0-1.3,0.4-2.8,1.2-4.2c0.8-1.4,1.9-2.5,3-3.2
				c1.2-0.7,2.3-0.8,3.1-0.3c0.8,0.5,1.3,1.5,1.3,2.9c0,1.3-0.4,2.8-1.2,4.2c-0.8,1.4-1.9,2.5-3,3.2
				C224.9,47.1,224.3,47.3,223.6,47.3z M227.3,36.6c-0.5,0-1.1,0.2-1.7,0.5c-1.1,0.6-2.1,1.7-2.9,3c-0.8,1.3-1.2,2.7-1.2,4
				c0,1.2,0.4,2.1,1.1,2.5c0.7,0.4,1.7,0.3,2.7-0.3c1.1-0.6,2.1-1.7,2.8-3c0.8-1.3,1.2-2.7,1.2-4c0-1.2-0.4-2.1-1.1-2.5
				C228,36.7,227.7,36.6,227.3,36.6z"/>
		</g>
	</g>
	<g>
		<defs>
			<polygon id="SVGID_27_" points="230.8,53.1 223.9,49.2 227.5,34.8 237.1,40.4 236.3,43.7 235.8,45.3 232.7,43.5 231.8,47.1 
				234.9,48.9 233.5,54.7 			"/>
		</defs>
		<clipPath id="SVGID_28_">
			<use xlink:href="#SVGID_27_"  style="overflow:visible;"/>
		</clipPath>
		<path class="st56" d="M231.2,46.8c0.7,0.4,1.7,1,2.4,1.4c-0.3,1-0.4,1.8-0.7,2.8c-0.7-0.4-1.7-1-2.4-1.4
			C230.8,48.5,230.9,47.8,231.2,46.8L231.2,46.8z"/>
		<g class="st57">
			<path class="st7" d="M229.1,50.5c-0.4,0-0.8-0.1-1.2-0.3c-0.8-0.5-1.3-1.5-1.3-2.9c0-1.3,0.4-2.8,1.2-4.2c0.8-1.4,1.9-2.5,3-3.2
				c1.2-0.7,2.3-0.8,3.1-0.3c0.8,0.5,1.3,1.5,1.3,2.9c0,1.3-0.4,2.8-1.2,4.2c-0.8,1.4-1.9,2.5-3,3.2
				C230.3,50.3,229.7,50.5,229.1,50.5z M232.8,39.8c-0.5,0-1.1,0.2-1.7,0.5c-1.1,0.6-2.1,1.7-2.8,3c-0.8,1.3-1.2,2.7-1.2,4
				c0,1.2,0.4,2.1,1.1,2.5c0.7,0.4,1.7,0.3,2.7-0.3c1.1-0.6,2.1-1.7,2.8-3c0.8-1.3,1.2-2.7,1.2-4c0-1.2-0.4-2.1-1.1-2.5
				C233.4,39.9,233.1,39.8,232.8,39.8z"/>
		</g>
		<g class="st57">
			<path class="st7" d="M228.2,49.9c-0.4,0-0.8-0.1-1.2-0.3c-0.8-0.5-1.3-1.5-1.3-2.9c0-1.3,0.4-2.8,1.2-4.2c0.8-1.4,1.9-2.5,3-3.2
				c1.2-0.7,2.3-0.8,3.1-0.3c0.8,0.5,1.3,1.5,1.3,2.9c0,1.3-0.4,2.8-1.2,4.2c-0.8,1.4-1.9,2.5-3,3.2
				C229.4,49.7,228.8,49.9,228.2,49.9z M231.9,39.2c-0.5,0-1.1,0.2-1.7,0.5c-1.1,0.6-2.1,1.7-2.9,3c-0.8,1.3-1.2,2.7-1.2,4
				c0,1.2,0.4,2.1,1.1,2.5c0.7,0.4,1.7,0.3,2.7-0.3c1.1-0.6,2.1-1.7,2.8-3c0.8-1.3,1.2-2.7,1.2-4c0-1.2-0.4-2.1-1.1-2.5
				C232.5,39.3,232.2,39.2,231.9,39.2z"/>
		</g>
	</g>
	<g>
		<defs>
			<polygon id="SVGID_29_" points="235.3,55.7 228.4,51.8 232,37.4 241.6,43 240.8,46.3 240.4,47.9 237.2,46.1 236.3,49.7 
				239.4,51.5 238,57.3 235.3,55.7 			"/>
		</defs>
		<clipPath id="SVGID_30_">
			<use xlink:href="#SVGID_29_"  style="overflow:visible;"/>
		</clipPath>
		<path class="st58" d="M235.7,49.4c0.7,0.4,1.7,1,2.4,1.4c-0.3,1-0.4,1.8-0.7,2.8c-0.7-0.4-1.7-1-2.4-1.4
			C235.3,51.1,235.5,50.4,235.7,49.4L235.7,49.4z"/>
		<g class="st59">
			<path class="st7" d="M233.6,53.1c-0.4,0-0.8-0.1-1.2-0.3c-0.8-0.5-1.3-1.5-1.3-2.9c0-1.3,0.4-2.8,1.2-4.2c0.8-1.4,1.9-2.5,3-3.2
				c1.2-0.7,2.3-0.8,3.1-0.3c0.8,0.5,1.3,1.5,1.3,2.9c0,1.3-0.4,2.8-1.2,4.2c-0.8,1.4-1.9,2.5-3,3.2
				C234.8,52.9,234.2,53.1,233.6,53.1z M237.3,42.4c-0.5,0-1.1,0.2-1.7,0.5c-1.1,0.6-2.1,1.7-2.9,3c-0.8,1.3-1.2,2.7-1.2,4
				c0,1.2,0.4,2.1,1.1,2.5c0.7,0.4,1.7,0.3,2.7-0.3c1.1-0.6,2.1-1.7,2.8-3c0.8-1.3,1.2-2.7,1.2-4c0-1.2-0.4-2.1-1.1-2.5
				C238,42.5,237.6,42.4,237.3,42.4z"/>
		</g>
		<g class="st59">
			<path class="st7" d="M232.7,52.5c-0.4,0-0.8-0.1-1.2-0.3c-0.8-0.5-1.3-1.5-1.3-2.9c0-1.3,0.4-2.8,1.2-4.2c0.8-1.4,1.9-2.5,3-3.2
				c1.2-0.7,2.3-0.8,3.1-0.3c0.8,0.5,1.3,1.5,1.3,2.9c0,1.3-0.4,2.8-1.2,4.2c-0.8,1.4-1.9,2.5-3,3.2
				C233.9,52.3,233.3,52.5,232.7,52.5z M236.4,41.8c-0.5,0-1.1,0.2-1.7,0.5c-1.1,0.6-2.1,1.7-2.8,3c-0.8,1.3-1.2,2.7-1.2,4
				c0,1.2,0.4,2.1,1.1,2.5c0.7,0.4,1.7,0.3,2.7-0.3c1.1-0.6,2.1-1.7,2.8-3c0.8-1.3,1.2-2.7,1.2-4c0-1.2-0.4-2.1-1.1-2.5
				C237.1,41.9,236.7,41.8,236.4,41.8z"/>
		</g>
	</g>
	<g>
		<defs>
			<polygon id="SVGID_31_" points="239.8,58.3 232.9,54.4 236.5,40.1 246.1,45.6 245.3,48.9 244.9,50.5 241.7,48.7 240.8,52.3 
				243.9,54.1 242.5,59.9 239.8,58.3 			"/>
		</defs>
		<clipPath id="SVGID_32_">
			<use xlink:href="#SVGID_31_"  style="overflow:visible;"/>
		</clipPath>
		<path class="st60" d="M240.2,52c0.7,0.4,1.7,1,2.4,1.4c-0.3,1-0.4,1.8-0.7,2.8c-0.7-0.4-1.7-1-2.4-1.4C239.8,53.8,240,53,240.2,52
			L240.2,52z"/>
		<g class="st61">
			<path class="st7" d="M238.1,55.7c-0.4,0-0.8-0.1-1.2-0.3c-0.8-0.5-1.3-1.5-1.3-2.9c0-1.3,0.4-2.8,1.2-4.2c0.8-1.4,1.9-2.5,3-3.2
				c1.2-0.7,2.3-0.8,3.1-0.3c0.8,0.5,1.3,1.5,1.3,2.9c0,1.3-0.4,2.8-1.2,4.2c-0.8,1.4-1.9,2.5-3,3.2
				C239.4,55.5,238.7,55.7,238.1,55.7z M241.8,45c-0.5,0-1.1,0.2-1.7,0.5c-1.1,0.6-2.1,1.7-2.9,3c-0.8,1.3-1.2,2.7-1.2,4
				c0,1.2,0.4,2.1,1.1,2.5c0.7,0.4,1.7,0.3,2.7-0.3c1.1-0.6,2.1-1.7,2.8-3c0.8-1.3,1.2-2.7,1.2-4c0-1.2-0.4-2.1-1.1-2.5
				C242.5,45.1,242.1,45,241.8,45z"/>
		</g>
		<g class="st61">
			<path class="st7" d="M237.2,55.1c-0.4,0-0.8-0.1-1.2-0.3c-0.8-0.5-1.3-1.5-1.3-2.9c0-1.3,0.4-2.8,1.2-4.2c0.8-1.4,1.9-2.5,3-3.2
				c1.2-0.7,2.3-0.8,3.1-0.3c0.8,0.5,1.3,1.5,1.3,2.9c0,1.3-0.4,2.8-1.2,4.2c-0.8,1.4-1.9,2.5-3,3.2
				C238.5,54.9,237.8,55.1,237.2,55.1z M240.9,44.5c-0.5,0-1.1,0.2-1.7,0.5c-1.1,0.6-2.1,1.7-2.8,3c-0.8,1.3-1.2,2.7-1.2,4
				c0,1.2,0.4,2.1,1.1,2.5c0.7,0.4,1.7,0.3,2.7-0.3c1.1-0.6,2.1-1.7,2.8-3c0.8-1.3,1.2-2.7,1.2-4c0-1.2-0.4-2.1-1.1-2.5
				C241.6,44.5,241.2,44.5,240.9,44.5z"/>
		</g>
	</g>
	<g>
		<path class="st62" d="M210.2,87.8c-0.1,0-0.2,0-0.3-0.1c-2-1.1-4-2.3-6-3.4l-3.3-1.9c-0.2-0.1-0.4-0.4-0.3-0.7l3.2-12.5
			c0-0.2,0.2-0.3,0.4-0.4c0.2-0.1,0.4-0.1,0.5,0l3.4,1.9c2,1.1,3.9,2.3,5.9,3.4c0.2,0.1,0.4,0.4,0.3,0.7l-3.2,12.5
			c0,0.2-0.2,0.3-0.4,0.4C210.4,87.8,210.3,87.8,210.2,87.8z M201.7,81.5l2.8,1.6c1.8,1,3.5,2,5.3,3l2.8-11.2
			c-1.8-1-3.6-2.1-5.5-3.1l-2.7-1.5L201.7,81.5z"/>
	</g>
	<path class="st24" d="M167.4,36.5c1,0.6,1.5,2.2,1.2,3.6c-0.4,1.4-1.5,2.1-2.5,1.5c-1-0.6-1.5-2.2-1.2-3.6
		C165.3,36.6,166.4,35.9,167.4,36.5L167.4,36.5z"/>
	<path class="st24" d="M178.5,42.9c1,0.6,1.5,2.2,1.2,3.6c-0.4,1.4-1.5,2-2.5,1.5c-1-0.6-1.5-2.2-1.2-3.6
		C176.4,43,177.5,42.3,178.5,42.9L178.5,42.9z"/>
	<path class="st24" d="M164.1,49.9c1,0.6,1.5,2.2,1.2,3.6c-0.4,1.4-1.4,2.1-2.5,1.5c-1-0.6-1.5-2.2-1.2-3.6
		C162,49.9,163.1,49.3,164.1,49.9L164.1,49.9z"/>
	<path class="st24" d="M175.1,56.2c1,0.6,1.5,2.2,1.2,3.6c-0.4,1.4-1.4,2-2.5,1.5c-1-0.6-1.5-2.2-1.2-3.6
		C173,56.3,174.1,55.7,175.1,56.2L175.1,56.2z"/>
	<path class="st24" d="M160.7,63.2c1,0.6,1.5,2.2,1.2,3.6c-0.4,1.4-1.4,2.1-2.5,1.5c-1-0.6-1.5-2.2-1.2-3.6
		C158.6,63.3,159.7,62.6,160.7,63.2L160.7,63.2z"/>
	<path class="st24" d="M171.7,69.6c1,0.6,1.5,2.2,1.2,3.6c-0.4,1.4-1.4,2-2.5,1.5c-1-0.6-1.5-2.2-1.2-3.6
		C169.6,69.7,170.7,69,171.7,69.6L171.7,69.6z"/>
	<path class="st24" d="M157.3,76.5c1,0.6,1.5,2.2,1.2,3.6c-0.4,1.4-1.5,2.1-2.5,1.5c-1-0.6-1.5-2.2-1.2-3.6
		C155.2,76.6,156.3,75.9,157.3,76.5L157.3,76.5z"/>
	<path class="st24" d="M168.4,82.9c1,0.6,1.5,2.2,1.2,3.6c-0.4,1.4-1.5,2.1-2.5,1.5c-1-0.6-1.5-2.2-1.2-3.6
		C166.2,83,167.3,82.3,168.4,82.9L168.4,82.9z"/>
	<path class="st24" d="M153.9,89.9c1,0.6,1.5,2.2,1.2,3.6s-1.4,2.1-2.5,1.5c-1-0.6-1.5-2.2-1.2-3.6S152.9,89.3,153.9,89.9
		L153.9,89.9z"/>
	<path class="st24" d="M165,96.2c1,0.6,1.5,2.2,1.2,3.6c-0.4,1.4-1.4,2.1-2.5,1.5c-1-0.6-1.5-2.2-1.2-3.6
		C162.9,96.3,164,95.6,165,96.2L165,96.2z"/>
	<path class="st24" d="M176,102.6c1,0.6,1.5,2.2,1.2,3.6c-0.4,1.4-1.4,2-2.5,1.5c-1-0.6-1.5-2.2-1.2-3.6
		C173.9,102.7,175,102,176,102.6L176,102.6z"/>
	<path class="st24" d="M189.5,49.3c1,0.6,1.5,2.2,1.2,3.6c-0.4,1.4-1.5,2-2.5,1.5c-1-0.6-1.5-2.2-1.2-3.6
		C187.4,49.4,188.5,48.7,189.5,49.3L189.5,49.3z"/>
	<path class="st24" d="M200.5,55.6c1,0.6,1.5,2.2,1.2,3.6c-0.4,1.4-1.5,2-2.5,1.5c-1-0.6-1.5-2.2-1.2-3.6
		C198.4,55.7,199.5,55.1,200.5,55.6L200.5,55.6z"/>
	<path class="st24" d="M211.6,62c1,0.6,1.5,2.2,1.2,3.6c-0.4,1.4-1.5,2-2.5,1.5c-1-0.6-1.5-2.2-1.2-3.6
		C209.5,62.1,210.6,61.4,211.6,62L211.6,62z"/>
	<path class="st24" d="M186.1,62.6c1,0.6,1.5,2.2,1.2,3.6c-0.4,1.4-1.4,2.1-2.5,1.5c-1-0.6-1.5-2.2-1.2-3.6
		C184,62.7,185.1,62,186.1,62.6L186.1,62.6z"/>
	<path class="st24" d="M197.2,69c1,0.6,1.5,2.2,1.2,3.6c-0.4,1.4-1.5,2-2.5,1.5c-1-0.6-1.5-2.2-1.2-3.6
		C195.1,69.1,196.2,68.4,197.2,69L197.2,69z"/>
	<path class="st24" d="M208.2,75.3c1,0.6,1.5,2.2,1.2,3.6c-0.4,1.4-1.5,2.1-2.5,1.5c-1-0.6-1.5-2.2-1.2-3.6
		C206.1,75.4,207.2,74.8,208.2,75.3L208.2,75.3z"/>
	<path class="st24" d="M182.8,75.9c1,0.6,1.5,2.2,1.2,3.6c-0.4,1.4-1.4,2.1-2.5,1.5c-1-0.6-1.5-2.2-1.2-3.6
		C180.6,76,181.8,75.3,182.8,75.9L182.8,75.9z"/>
	<path class="st24" d="M193.8,82.3c1,0.6,1.5,2.2,1.2,3.6c-0.4,1.4-1.5,2-2.5,1.5c-1-0.6-1.5-2.2-1.2-3.6
		C191.7,82.4,192.8,81.7,193.8,82.3L193.8,82.3z"/>
	<path class="st24" d="M204.8,88.7c1,0.6,1.5,2.2,1.2,3.6c-0.4,1.4-1.5,2.1-2.5,1.5c-1-0.6-1.5-2.2-1.2-3.6
		C202.7,88.8,203.8,88.1,204.8,88.7L204.8,88.7z"/>
	<path class="st24" d="M179.4,89.3c1,0.6,1.5,2.2,1.2,3.6c-0.4,1.4-1.5,2.1-2.5,1.5c-1-0.6-1.5-2.2-1.2-3.6
		C177.3,89.3,178.4,88.7,179.4,89.3L179.4,89.3z"/>
	<path class="st24" d="M190.4,95.6c1,0.6,1.5,2.2,1.2,3.6c-0.4,1.4-1.5,2-2.5,1.5c-1-0.6-1.5-2.2-1.2-3.6
		C188.3,95.7,189.4,95,190.4,95.6L190.4,95.6z"/>
	<path class="st24" d="M201.4,102c1,0.6,1.5,2.2,1.2,3.6c-0.4,1.4-1.5,2.1-2.5,1.5c-1-0.6-1.5-2.2-1.2-3.6
		C199.3,102.1,200.4,101.4,201.4,102L201.4,102z"/>
	<path class="st63" d="M222.6,68.4c1,0.6,1.5,2.2,1.2,3.6c-0.4,1.4-1.5,2-2.5,1.5c-1-0.6-1.5-2.2-1.2-3.6S221.6,67.8,222.6,68.4
		L222.6,68.4z"/>
	<path class="st63" d="M233.6,74.8c1,0.6,1.5,2.2,1.2,3.6c-0.4,1.4-1.5,2.1-2.5,1.5c-1-0.6-1.5-2.2-1.2-3.6
		C231.5,74.9,232.6,74.2,233.6,74.8L233.6,74.8z"/>
	<path class="st63" d="M219.2,81.7c1,0.6,1.5,2.2,1.2,3.6c-0.4,1.4-1.5,2.1-2.5,1.5c-1-0.6-1.5-2.2-1.2-3.6
		C217.1,81.8,218.2,81.1,219.2,81.7L219.2,81.7z"/>
	<path class="st63" d="M230.3,88.1c1,0.6,1.5,2.2,1.2,3.6c-0.4,1.4-1.5,2.1-2.5,1.5c-1-0.6-1.5-2.2-1.2-3.6
		C228.2,88.2,229.3,87.5,230.3,88.1L230.3,88.1z"/>
	<path class="st63" d="M215.9,95c1,0.6,1.5,2.2,1.2,3.6c-0.4,1.4-1.5,2-2.5,1.5c-1-0.6-1.5-2.2-1.2-3.6
		C213.7,95.1,214.8,94.5,215.9,95L215.9,95z"/>
	<path class="st63" d="M226.9,101.4c1,0.6,1.5,2.2,1.2,3.6s-1.5,2.1-2.5,1.5c-1-0.6-1.5-2.2-1.2-3.6
		C224.8,101.5,225.9,100.8,226.9,101.4L226.9,101.4z"/>
	<path class="st63" d="M212.5,108.4c1,0.6,1.5,2.2,1.2,3.6c-0.4,1.4-1.5,2.1-2.5,1.5c-1-0.6-1.5-2.2-1.2-3.6
		C210.4,108.4,211.5,107.8,212.5,108.4L212.5,108.4z"/>
	<path class="st63" d="M223.5,114.7c1,0.6,1.5,2.2,1.2,3.6c-0.4,1.4-1.5,2.1-2.5,1.5c-1-0.6-1.5-2.2-1.2-3.6
		C221.4,114.8,222.5,114.2,223.5,114.7L223.5,114.7z"/>
</g>
</svg>
