<?xml version="1.0" encoding="utf-8"?>
<!-- Generator: Adobe Illustrator 22.1.0, SVG Export Plug-In . SVG Version: 6.00 Build 0)  -->
<svg version="1.1" id="Layer_1" xmlns="http://www.w3.org/2000/svg" xmlns:xlink="http://www.w3.org/1999/xlink" x="0px" y="0px"
	 viewBox="0 0 274 257" style="enable-background:new 0 0 274 257;" xml:space="preserve">
<style type="text/css">
	.st0{fill-rule:evenodd;clip-rule:evenodd;fill:#663C27;}
	.st1{fill-rule:evenodd;clip-rule:evenodd;fill:#7A4C35;}
	.st2{fill-rule:evenodd;clip-rule:evenodd;fill:#E3F4FF;}
	.st3{fill-rule:evenodd;clip-rule:evenodd;fill:#C0DCF0;}
	.st4{fill-rule:evenodd;clip-rule:evenodd;fill:#2CD1B0;}
	.st5{fill-rule:evenodd;clip-rule:evenodd;fill:#F7BE39;}
	.st6{fill-rule:evenodd;clip-rule:evenodd;fill:#E74C3C;}
	.st7{fill-rule:evenodd;clip-rule:evenodd;fill:#9DBACF;}
	.st8{fill:#A37C58;}
	.st9{fill:#F0D7A6;}
	.st10{fill-rule:evenodd;clip-rule:evenodd;fill:#986D53;}
	.st11{fill-rule:evenodd;clip-rule:evenodd;fill:#75A2EB;}
	.st12{fill-rule:evenodd;clip-rule:evenodd;fill:#E3F1FF;}
	.st13{opacity:0.35;fill-rule:evenodd;clip-rule:evenodd;fill:#75A2EB;}
	.st14{opacity:0;fill-rule:evenodd;clip-rule:evenodd;fill:#75A2EB;}
	.st15{opacity:0.6;fill-rule:evenodd;clip-rule:evenodd;fill:#75A2EB;}
	.st16{fill:#75A2EB;}
	.st17{opacity:0.42;clip-path:url(#SVGID_2_);fill-rule:evenodd;clip-rule:evenodd;fill:#1F73AB;}
	.st18{clip-path:url(#SVGID_2_);}
	.st19{fill:#C0DCF0;}
	.st20{opacity:0.42;clip-path:url(#SVGID_4_);fill-rule:evenodd;clip-rule:evenodd;fill:#1F73AB;}
	.st21{clip-path:url(#SVGID_4_);}
	.st22{opacity:0.42;clip-path:url(#SVGID_6_);fill-rule:evenodd;clip-rule:evenodd;fill:#1F73AB;}
	.st23{clip-path:url(#SVGID_6_);}
	.st24{opacity:0.42;clip-path:url(#SVGID_8_);fill-rule:evenodd;clip-rule:evenodd;fill:#1F73AB;}
	.st25{clip-path:url(#SVGID_8_);}
	.st26{opacity:0.42;clip-path:url(#SVGID_10_);fill-rule:evenodd;clip-rule:evenodd;fill:#1F73AB;}
	.st27{clip-path:url(#SVGID_10_);}
	.st28{opacity:0.42;clip-path:url(#SVGID_12_);fill-rule:evenodd;clip-rule:evenodd;fill:#1F73AB;}
	.st29{clip-path:url(#SVGID_12_);}
	.st30{opacity:0.42;clip-path:url(#SVGID_14_);fill-rule:evenodd;clip-rule:evenodd;fill:#1F73AB;}
	.st31{clip-path:url(#SVGID_14_);}
	.st32{opacity:0.42;clip-path:url(#SVGID_16_);fill-rule:evenodd;clip-rule:evenodd;fill:#1F73AB;}
	.st33{clip-path:url(#SVGID_16_);}
	.st34{opacity:0.42;clip-path:url(#SVGID_18_);fill-rule:evenodd;clip-rule:evenodd;fill:#1F73AB;}
	.st35{clip-path:url(#SVGID_18_);}
	.st36{opacity:0.42;clip-path:url(#SVGID_20_);fill-rule:evenodd;clip-rule:evenodd;fill:#1F73AB;}
	.st37{clip-path:url(#SVGID_20_);}
	.st38{opacity:0.42;clip-path:url(#SVGID_22_);fill-rule:evenodd;clip-rule:evenodd;fill:#1F73AB;}
	.st39{clip-path:url(#SVGID_22_);}
	.st40{opacity:0.42;clip-path:url(#SVGID_24_);fill-rule:evenodd;clip-rule:evenodd;fill:#1F73AB;}
	.st41{clip-path:url(#SVGID_24_);}
	.st42{opacity:0.42;clip-path:url(#SVGID_26_);fill-rule:evenodd;clip-rule:evenodd;fill:#1F73AB;}
	.st43{clip-path:url(#SVGID_26_);}
	.st44{opacity:0.42;clip-path:url(#SVGID_28_);fill-rule:evenodd;clip-rule:evenodd;fill:#1F73AB;}
	.st45{clip-path:url(#SVGID_28_);}
	.st46{opacity:0.42;clip-path:url(#SVGID_30_);fill-rule:evenodd;clip-rule:evenodd;fill:#1F73AB;}
	.st47{clip-path:url(#SVGID_30_);}
	.st48{opacity:0.42;clip-path:url(#SVGID_32_);fill-rule:evenodd;clip-rule:evenodd;fill:#1F73AB;}
	.st49{clip-path:url(#SVGID_32_);}
	.st50{fill:#FF6969;}
	.st51{fill-rule:evenodd;clip-rule:evenodd;fill:#FF6969;}
	.st52{fill-rule:evenodd;clip-rule:evenodd;fill:#335066;}
	.st53{fill-rule:evenodd;clip-rule:evenodd;fill:#476B86;}
	.st54{fill-rule:evenodd;clip-rule:evenodd;fill:#FFFFFF;}
	.st55{fill-rule:evenodd;clip-rule:evenodd;fill:#ABD5FC;}
	.st56{fill-rule:evenodd;clip-rule:evenodd;fill:#FCB0C9;}
	.st57{fill-rule:evenodd;clip-rule:evenodd;fill:#FFD063;}
	.st58{fill-rule:evenodd;clip-rule:evenodd;fill:#99F799;}
	.st59{opacity:0.65;fill-rule:evenodd;clip-rule:evenodd;fill:#CFDAE3;}
	.st60{opacity:0.22;fill-rule:evenodd;clip-rule:evenodd;fill:#FFFFFF;}
</style>
<g>
	<path class="st0" d="M105.1,131.1l62.3,36c3.5,2,3.3,5.5-0.5,7.7l-81,46.8c-3.8,2.2-9.8,2.3-13.3,0.3l-62.3-36L105.1,131.1z"/>
	<path class="st0" d="M98.6,109.2L3.8,164c-1.7,1-2.7,3-2.7,5.9c0,5.9,4.1,13,9.2,15.9l94.8-54.8c-5.1-2.9-9.2-10-9.2-15.9
		C95.9,112.2,97,110.2,98.6,109.2L98.6,109.2z"/>
	<path class="st1" d="M98.6,109.2L3.8,164c1.7-1,4-0.8,6.5,0.6l2.2-1.3l92.7-53.5C102.6,108.4,100.3,108.3,98.6,109.2L98.6,109.2z"
		/>
	<path class="st2" d="M102.4,132.6l55.6,32.1c0.6,0.4,1,1,1,1.7c0,0.7-0.4,1.4-1,1.7L78,214.5c-1.9,1.1-4.1,1.1-6.1,0l-55.6-32.1
		L102.4,132.6z"/>
	<path class="st3" d="M102.4,130.5l55.6,32.1c0.6,0.4,1,1,1,1.7c0,0.7-0.4,1.4-1,1.7L78,212.4c-1.9,1.1-4.1,1.1-6.1,0l-55.6-32.1
		L102.4,130.5z"/>
	<path class="st2" d="M102.4,128.4l55.6,32.1c0.6,0.4,1,1,1,1.7c0,0.7-0.4,1.4-1,1.7L78,210.2c-1.9,1.1-4.1,1.1-6.1,0l-55.6-32.1
		L102.4,128.4z"/>
	<path class="st3" d="M102.4,126.3l55.6,32.1c0.6,0.4,1,1,1,1.7c0,0.7-0.4,1.4-1,1.7L78,208.1c-1.9,1.1-4.1,1.1-6.1,0L16.3,176
		L102.4,126.3z"/>
	<path class="st2" d="M102.4,124.1l55.6,32.1c0.6,0.4,1,1,1,1.7c0,0.7-0.4,1.4-1,1.7L78,206c-1.9,1.1-4.1,1.1-6.1,0l-55.6-32.1
		l9-5.3L102.4,124.1z"/>
	<path class="st3" d="M102.4,122l55.6,32.1c0.6,0.4,1,1,1,1.7c0,0.7-0.4,1.4-1,1.7L78,203.9c-1.9,1.1-4.1,1.1-6.1,0l-55.6-32.1
		L102.4,122z"/>
	<path class="st2" d="M102.4,119.9l55.6,32.1c0.6,0.4,1,1,1,1.7c0,0.7-0.4,1.4-1,1.7L78,201.8c-1.9,1.1-4.1,1.1-6.1,0l-55.6-32.1
		L102.4,119.9z"/>
	<path class="st3" d="M102.4,117.8l55.6,32.1c0.6,0.4,1,1,1,1.7c0,0.7-0.4,1.4-1,1.7L78,199.7c-1.9,1.1-4.1,1.1-6.1,0l-55.6-32.1
		L102.4,117.8z"/>
	<path class="st4" d="M103.9,195.3c0.4,0.3,0.9,0.5,1.3,0.8c0.4,0.3,0.9,0.5,1.3,0.8c0.5,0.3,1.1,0.4,1.7,0.5c0.6,0,1.2-0.1,1.6-0.3
		c1.7-1,3.4-2,5.1-2.9c1.7-1,3.4-2,5.1-2.9c0.4-0.2,0.6-0.6,0.6-0.9c-0.1-0.4-0.3-0.7-0.8-1c-0.4-0.3-0.9-0.5-1.3-0.8
		c-0.4-0.3-0.9-0.5-1.3-0.8c-2.2,1.3-4.4,2.6-6.6,3.8C108.3,192.7,106.1,194,103.9,195.3L103.9,195.3z"/>
	<path class="st5" d="M90.9,200.7c0.4,0.3,0.9,0.5,1.3,0.8c0.4,0.3,0.9,0.5,1.3,0.8c0.5,0.3,1.1,0.4,1.7,0.5c0.6,0,1.2-0.1,1.6-0.3
		c1.7-1,3.4-2,5.1-2.9c1.7-1,3.4-2,5.1-2.9c0.4-0.2,0.6-0.6,0.5-0.9c-0.1-0.3-0.3-0.7-0.8-1c-0.4-0.3-0.9-0.5-1.3-0.8
		c-0.4-0.3-0.9-0.5-1.3-0.8c-2.2,1.3-4.4,2.6-6.6,3.8C95.3,198.1,93.1,199.4,90.9,200.7L90.9,200.7z"/>
	<path class="st6" d="M77.9,206c0.4,0.3,0.9,0.5,1.3,0.8c0.4,0.3,0.9,0.5,1.3,0.8c0.5,0.3,1.1,0.5,1.7,0.5c0.6,0,1.2-0.1,1.6-0.3
		c1.7-1,3.4-2,5.1-2.9c1.7-1,3.4-2,5.1-2.9c0.4-0.2,0.6-0.6,0.6-0.9c-0.1-0.3-0.3-0.7-0.8-1c-0.4-0.3-0.9-0.5-1.3-0.8
		c-0.4-0.3-0.9-0.5-1.3-0.8c-2.2,1.3-4.4,2.6-6.6,3.8C82.3,203.5,80.1,204.8,77.9,206L77.9,206z"/>
	<path class="st7" d="M16.3,183.2c4.3,2.5,5.2-1,5.2-6c0-4.9-1-9.5-5.2-11.9l-0.9-0.5v17.9L16.3,183.2z"/>
	<g>
		<path class="st8" d="M79.7,221.4c-0.1,0-0.3-0.1-0.3-0.3c0-0.1,0.1-0.3,0.3-0.3c0.2,0,0.3,0,0.5,0c0.1,0,0.3,0.1,0.3,0.2
			c0,0.1-0.1,0.3-0.2,0.3C80,221.4,79.8,221.4,79.7,221.4C79.7,221.4,79.7,221.4,79.7,221.4z M78.1,221.4
			C78,221.4,78,221.4,78.1,221.4c-0.2,0-0.4,0-0.6-0.1c-0.1,0-0.2-0.2-0.2-0.3c0-0.1,0.1-0.2,0.3-0.2c0.2,0,0.3,0,0.5,0.1
			c0.1,0,0.3,0.1,0.2,0.3C78.3,221.3,78.2,221.4,78.1,221.4z M81.8,221.1c-0.1,0-0.2-0.1-0.3-0.2c0-0.1,0.1-0.3,0.2-0.3
			c0.2,0,0.3-0.1,0.5-0.1c0.1,0,0.3,0,0.3,0.2c0,0.1,0,0.3-0.2,0.3C82.2,221,82,221.1,81.8,221.1C81.8,221.1,81.8,221.1,81.8,221.1z
			 M76,221C76,221,75.9,221,76,221c-0.3-0.1-0.4-0.1-0.6-0.2c-0.1-0.1-0.2-0.2-0.1-0.3c0.1-0.1,0.2-0.2,0.3-0.1
			c0.2,0.1,0.3,0.1,0.5,0.2c0.1,0,0.2,0.2,0.2,0.3C76.2,220.9,76.1,221,76,221z M83.7,220.4c-0.1,0-0.2-0.1-0.2-0.1
			c-0.1-0.1,0-0.3,0.1-0.4c0.1,0,0.1-0.1,0.2-0.1l0.2-0.1c0.1-0.1,0.3,0,0.4,0.1c0.1,0.1,0,0.3-0.1,0.4l-0.2,0.1
			c-0.1,0-0.1,0.1-0.2,0.1C83.8,220.4,83.8,220.4,83.7,220.4z M74.1,220c0,0-0.1,0-0.1,0l-0.5-0.3c-0.1-0.1-0.2-0.2-0.1-0.4
			c0.1-0.1,0.2-0.2,0.4-0.1l0.5,0.3c0.1,0.1,0.2,0.2,0.1,0.4C74.3,220,74.2,220,74.1,220z M85.6,219.3c-0.1,0-0.2,0-0.2-0.1
			c-0.1-0.1,0-0.3,0.1-0.4l0.5-0.3c0.1-0.1,0.3,0,0.4,0.1c0.1,0.1,0,0.3-0.1,0.4l-0.5,0.3C85.7,219.3,85.6,219.3,85.6,219.3z
			 M72.2,219c0,0-0.1,0-0.1,0l-0.5-0.3c-0.1-0.1-0.2-0.2-0.1-0.4c0.1-0.1,0.2-0.2,0.4-0.1l0.5,0.3c0.1,0.1,0.2,0.2,0.1,0.4
			C72.4,218.9,72.3,219,72.2,219z M87.4,218.3c-0.1,0-0.2,0-0.2-0.1c-0.1-0.1,0-0.3,0.1-0.4l0.5-0.3c0.1-0.1,0.3,0,0.4,0.1
			c0.1,0.1,0,0.3-0.1,0.4l-0.5,0.3C87.5,218.2,87.5,218.3,87.4,218.3z M70.4,217.9c0,0-0.1,0-0.1,0l-0.5-0.3
			c-0.1-0.1-0.2-0.2-0.1-0.4c0.1-0.1,0.2-0.2,0.4-0.1l0.5,0.3c0.1,0.1,0.2,0.2,0.1,0.4C70.6,217.8,70.5,217.9,70.4,217.9z
			 M89.3,217.2c-0.1,0-0.2,0-0.2-0.1c-0.1-0.1,0-0.3,0.1-0.4l0.5-0.3c0.1-0.1,0.3,0,0.4,0.1c0.1,0.1,0,0.3-0.1,0.4l-0.5,0.3
			C89.4,217.2,89.3,217.2,89.3,217.2z M68.6,216.8c0,0-0.1,0-0.1,0l-0.5-0.3c-0.1-0.1-0.2-0.2-0.1-0.4c0.1-0.1,0.2-0.2,0.4-0.1
			l0.5,0.3c0.1,0.1,0.2,0.2,0.1,0.4C68.7,216.8,68.6,216.8,68.6,216.8z M91.1,216.1c-0.1,0-0.2,0-0.2-0.1c-0.1-0.1,0-0.3,0.1-0.4
			l0.5-0.3c0.1-0.1,0.3,0,0.4,0.1c0.1,0.1,0,0.3-0.1,0.4l-0.5,0.3C91.2,216.1,91.2,216.1,91.1,216.1z M66.7,215.8c0,0-0.1,0-0.1,0
			l-0.5-0.3c-0.1-0.1-0.2-0.2-0.1-0.4c0.1-0.1,0.2-0.2,0.4-0.1l0.5,0.3c0.1,0.1,0.2,0.2,0.1,0.4C66.9,215.7,66.8,215.8,66.7,215.8z
			 M93,215.1c-0.1,0-0.2,0-0.2-0.1c-0.1-0.1,0-0.3,0.1-0.4l0.5-0.3c0.1-0.1,0.3,0,0.4,0.1c0.1,0.1,0,0.3-0.1,0.4l-0.5,0.3
			C93,215.1,93,215.1,93,215.1z M64.9,214.7c0,0-0.1,0-0.1,0l-0.5-0.3c-0.1-0.1-0.2-0.2-0.1-0.4c0.1-0.1,0.2-0.2,0.4-0.1l0.5,0.3
			c0.1,0.1,0.2,0.2,0.1,0.4C65.1,214.7,65,214.7,64.9,214.7z M94.8,214c-0.1,0-0.2,0-0.2-0.1c-0.1-0.1,0-0.3,0.1-0.4l0.5-0.3
			c0.1-0.1,0.3,0,0.4,0.1c0.1,0.1,0,0.3-0.1,0.4l-0.5,0.3C94.9,214,94.8,214,94.8,214z M63,213.6c0,0-0.1,0-0.1,0l-0.5-0.3
			c-0.1-0.1-0.2-0.2-0.1-0.4c0.1-0.1,0.2-0.2,0.4-0.1l0.5,0.3c0.1,0.1,0.2,0.2,0.1,0.4C63.2,213.6,63.1,213.6,63,213.6z M96.6,212.9
			c-0.1,0-0.2,0-0.2-0.1c-0.1-0.1,0-0.3,0.1-0.4l0.5-0.3c0.1-0.1,0.3,0,0.4,0.1c0.1,0.1,0,0.3-0.1,0.4l-0.5,0.3
			C96.7,212.9,96.7,212.9,96.6,212.9z M61.2,212.6c0,0-0.1,0-0.1,0l-0.5-0.3c-0.1-0.1-0.2-0.2-0.1-0.4c0.1-0.1,0.2-0.2,0.4-0.1
			l0.5,0.3c0.1,0.1,0.2,0.2,0.1,0.4C61.4,212.5,61.3,212.6,61.2,212.6z M98.5,211.9c-0.1,0-0.2,0-0.2-0.1c-0.1-0.1,0-0.3,0.1-0.4
			l0.5-0.3c0.1-0.1,0.3,0,0.4,0.1c0.1,0.1,0,0.3-0.1,0.4l-0.5,0.3C98.6,211.9,98.5,211.9,98.5,211.9z M59.3,211.5c0,0-0.1,0-0.1,0
			l-0.5-0.3c-0.1-0.1-0.2-0.2-0.1-0.4c0.1-0.1,0.2-0.2,0.4-0.1l0.5,0.3c0.1,0.1,0.2,0.2,0.1,0.4C59.5,211.5,59.4,211.5,59.3,211.5z
			 M100.3,210.8c-0.1,0-0.2,0-0.2-0.1c-0.1-0.1,0-0.3,0.1-0.4l0.5-0.3c0.1-0.1,0.3,0,0.4,0.1c0.1,0.1,0,0.3-0.1,0.4l-0.5,0.3
			C100.4,210.8,100.4,210.8,100.3,210.8z M57.5,210.5c0,0-0.1,0-0.1,0l-0.5-0.3c-0.1-0.1-0.2-0.2-0.1-0.4c0.1-0.1,0.2-0.2,0.4-0.1
			l0.5,0.3c0.1,0.1,0.2,0.2,0.1,0.4C57.7,210.4,57.6,210.5,57.5,210.5z M102.2,209.8c-0.1,0-0.2,0-0.2-0.1c-0.1-0.1,0-0.3,0.1-0.4
			l0.5-0.3c0.1-0.1,0.3,0,0.4,0.1c0.1,0.1,0,0.3-0.1,0.4l-0.5,0.3C102.3,209.7,102.2,209.8,102.2,209.8z M55.7,209.4
			c0,0-0.1,0-0.1,0l-0.5-0.3c-0.1-0.1-0.2-0.2-0.1-0.4c0.1-0.1,0.2-0.2,0.4-0.1l0.5,0.3c0.1,0.1,0.2,0.2,0.1,0.4
			C55.8,209.3,55.8,209.4,55.7,209.4z M104,208.7c-0.1,0-0.2,0-0.2-0.1c-0.1-0.1,0-0.3,0.1-0.4l0.5-0.3c0.1-0.1,0.3,0,0.4,0.1
			c0.1,0.1,0,0.3-0.1,0.4l-0.5,0.3C104.1,208.7,104,208.7,104,208.7z M53.8,208.3c0,0-0.1,0-0.1,0l-0.5-0.3
			c-0.1-0.1-0.2-0.2-0.1-0.4c0.1-0.1,0.2-0.2,0.4-0.1l0.5,0.3c0.1,0.1,0.2,0.2,0.1,0.4C54,208.3,53.9,208.3,53.8,208.3z
			 M105.8,207.6c-0.1,0-0.2,0-0.2-0.1c-0.1-0.1,0-0.3,0.1-0.4l0.5-0.3c0.1-0.1,0.3,0,0.4,0.1c0.1,0.1,0,0.3-0.1,0.4l-0.5,0.3
			C105.9,207.6,105.9,207.6,105.8,207.6z M52,207.3c0,0-0.1,0-0.1,0l-0.5-0.3c-0.1-0.1-0.2-0.2-0.1-0.4c0.1-0.1,0.2-0.2,0.4-0.1
			l0.5,0.3c0.1,0.1,0.2,0.2,0.1,0.4C52.2,207.2,52.1,207.3,52,207.3z M107.7,206.6c-0.1,0-0.2,0-0.2-0.1c-0.1-0.1,0-0.3,0.1-0.4
			l0.5-0.3c0.1-0.1,0.3,0,0.4,0.1c0.1,0.1,0,0.3-0.1,0.4l-0.5,0.3C107.8,206.5,107.7,206.6,107.7,206.6z M50.1,206.2
			c0,0-0.1,0-0.1,0l-0.5-0.3c-0.1-0.1-0.2-0.2-0.1-0.4c0.1-0.1,0.2-0.2,0.4-0.1l0.5,0.3c0.1,0.1,0.2,0.2,0.1,0.4
			C50.3,206.1,50.2,206.2,50.1,206.2z M109.5,205.5c-0.1,0-0.2,0-0.2-0.1c-0.1-0.1,0-0.3,0.1-0.4l0.5-0.3c0.1-0.1,0.3,0,0.4,0.1
			c0.1,0.1,0,0.3-0.1,0.4l-0.5,0.3C109.6,205.5,109.6,205.5,109.5,205.5z M48.3,205.1c0,0-0.1,0-0.1,0l-0.5-0.3
			c-0.1-0.1-0.2-0.2-0.1-0.4c0.1-0.1,0.2-0.2,0.4-0.1l0.5,0.3c0.1,0.1,0.2,0.2,0.1,0.4C48.5,205.1,48.4,205.1,48.3,205.1z
			 M111.4,204.4c-0.1,0-0.2,0-0.2-0.1c-0.1-0.1,0-0.3,0.1-0.4l0.5-0.3c0.1-0.1,0.3,0,0.4,0.1c0.1,0.1,0,0.3-0.1,0.4l-0.5,0.3
			C111.5,204.4,111.4,204.4,111.4,204.4z M46.5,204.1c0,0-0.1,0-0.1,0l-0.5-0.3c-0.1-0.1-0.2-0.2-0.1-0.4c0.1-0.1,0.2-0.2,0.4-0.1
			l0.5,0.3c0.1,0.1,0.2,0.2,0.1,0.4C46.6,204,46.5,204.1,46.5,204.1z M113.2,203.4c-0.1,0-0.2,0-0.2-0.1c-0.1-0.1,0-0.3,0.1-0.4
			l0.5-0.3c0.1-0.1,0.3,0,0.4,0.1c0.1,0.1,0,0.3-0.1,0.4l-0.5,0.3C113.3,203.4,113.3,203.4,113.2,203.4z M44.6,203c0,0-0.1,0-0.1,0
			l-0.5-0.3c-0.1-0.1-0.2-0.2-0.1-0.4c0.1-0.1,0.2-0.2,0.4-0.1l0.5,0.3c0.1,0.1,0.2,0.2,0.1,0.4C44.8,203,44.7,203,44.6,203z
			 M115.1,202.3c-0.1,0-0.2,0-0.2-0.1c-0.1-0.1,0-0.3,0.1-0.4l0.5-0.3c0.1-0.1,0.3,0,0.4,0.1c0.1,0.1,0,0.3-0.1,0.4l-0.5,0.3
			C115.1,202.3,115.1,202.3,115.1,202.3z M42.8,201.9c0,0-0.1,0-0.1,0l-0.5-0.3c-0.1-0.1-0.2-0.2-0.1-0.4c0.1-0.1,0.2-0.2,0.4-0.1
			l0.5,0.3c0.1,0.1,0.2,0.2,0.1,0.4C43,201.9,42.9,201.9,42.8,201.9z M116.9,201.2c-0.1,0-0.2,0-0.2-0.1c-0.1-0.1,0-0.3,0.1-0.4
			l0.5-0.3c0.1-0.1,0.3,0,0.4,0.1c0.1,0.1,0,0.3-0.1,0.4l-0.5,0.3C117,201.2,116.9,201.2,116.9,201.2z M40.9,200.9c0,0-0.1,0-0.1,0
			l-0.5-0.3c-0.1-0.1-0.2-0.2-0.1-0.4c0.1-0.1,0.2-0.2,0.4-0.1l0.5,0.3c0.1,0.1,0.2,0.2,0.1,0.4C41.1,200.8,41,200.9,40.9,200.9z
			 M118.7,200.2c-0.1,0-0.2,0-0.2-0.1c-0.1-0.1,0-0.3,0.1-0.4l0.5-0.3c0.1-0.1,0.3,0,0.4,0.1c0.1,0.1,0,0.3-0.1,0.4l-0.5,0.3
			C118.8,200.2,118.8,200.2,118.7,200.2z M39.1,199.8c0,0-0.1,0-0.1,0l-0.5-0.3c-0.1-0.1-0.2-0.2-0.1-0.4c0.1-0.1,0.2-0.2,0.4-0.1
			l0.5,0.3c0.1,0.1,0.2,0.2,0.1,0.4C39.3,199.8,39.2,199.8,39.1,199.8z M120.6,199.1c-0.1,0-0.2,0-0.2-0.1c-0.1-0.1,0-0.3,0.1-0.4
			l0.5-0.3c0.1-0.1,0.3,0,0.4,0.1c0.1,0.1,0,0.3-0.1,0.4l-0.5,0.3C120.7,199.1,120.6,199.1,120.6,199.1z M37.2,198.8
			c0,0-0.1,0-0.1,0l-0.5-0.3c-0.1-0.1-0.2-0.2-0.1-0.4c0.1-0.1,0.2-0.2,0.4-0.1l0.5,0.3c0.1,0.1,0.2,0.2,0.1,0.4
			C37.4,198.7,37.3,198.8,37.2,198.8z M122.4,198.1c-0.1,0-0.2,0-0.2-0.1c-0.1-0.1,0-0.3,0.1-0.4l0.5-0.3c0.1-0.1,0.3,0,0.4,0.1
			c0.1,0.1,0,0.3-0.1,0.4l-0.5,0.3C122.5,198,122.5,198.1,122.4,198.1z M35.4,197.7c0,0-0.1,0-0.1,0l-0.5-0.3
			c-0.1-0.1-0.2-0.2-0.1-0.4c0.1-0.1,0.2-0.2,0.4-0.1l0.5,0.3c0.1,0.1,0.2,0.2,0.1,0.4C35.6,197.6,35.5,197.7,35.4,197.7z
			 M124.3,197c-0.1,0-0.2,0-0.2-0.1c-0.1-0.1,0-0.3,0.1-0.4l0.5-0.3c0.1-0.1,0.3,0,0.4,0.1c0.1,0.1,0,0.3-0.1,0.4l-0.5,0.3
			C124.4,197,124.3,197,124.3,197z M33.6,196.6c0,0-0.1,0-0.1,0l-0.5-0.3c-0.1-0.1-0.2-0.2-0.1-0.4c0.1-0.1,0.2-0.2,0.4-0.1l0.5,0.3
			c0.1,0.1,0.2,0.2,0.1,0.4C33.7,196.6,33.7,196.6,33.6,196.6z M126.1,195.9c-0.1,0-0.2,0-0.2-0.1c-0.1-0.1,0-0.3,0.1-0.4l0.5-0.3
			c0.1-0.1,0.3,0,0.4,0.1c0.1,0.1,0,0.3-0.1,0.4l-0.5,0.3C126.2,195.9,126.1,195.9,126.1,195.9z M31.7,195.6c0,0-0.1,0-0.1,0
			l-0.5-0.3c-0.1-0.1-0.2-0.2-0.1-0.4c0.1-0.1,0.2-0.2,0.4-0.1l0.5,0.3c0.1,0.1,0.2,0.2,0.1,0.4C31.9,195.5,31.8,195.6,31.7,195.6z
			 M127.9,194.9c-0.1,0-0.2,0-0.2-0.1c-0.1-0.1,0-0.3,0.1-0.4l0.5-0.3c0.1-0.1,0.3,0,0.4,0.1c0.1,0.1,0,0.3-0.1,0.4l-0.5,0.3
			C128,194.9,128,194.9,127.9,194.9z M29.9,194.5c0,0-0.1,0-0.1,0l-0.5-0.3c-0.1-0.1-0.2-0.2-0.1-0.4c0.1-0.1,0.2-0.2,0.4-0.1
			L30,194c0.1,0.1,0.2,0.2,0.1,0.4C30.1,194.4,30,194.5,29.9,194.5z M129.8,193.8c-0.1,0-0.2,0-0.2-0.1c-0.1-0.1,0-0.3,0.1-0.4
			l0.5-0.3c0.1-0.1,0.3,0,0.4,0.1c0.1,0.1,0,0.3-0.1,0.4l-0.5,0.3C129.9,193.8,129.8,193.8,129.8,193.8z M28,193.4c0,0-0.1,0-0.1,0
			l-0.5-0.3c-0.1-0.1-0.2-0.2-0.1-0.4c0.1-0.1,0.2-0.2,0.4-0.1l0.5,0.3c0.1,0.1,0.2,0.2,0.1,0.4C28.2,193.4,28.1,193.4,28,193.4z
			 M131.6,192.7c-0.1,0-0.2,0-0.2-0.1c-0.1-0.1,0-0.3,0.1-0.4l0.5-0.3c0.1-0.1,0.3,0,0.4,0.1c0.1,0.1,0,0.3-0.1,0.4l-0.5,0.3
			C131.7,192.7,131.7,192.7,131.6,192.7z M26.2,192.4c0,0-0.1,0-0.1,0l-0.5-0.3c-0.1-0.1-0.2-0.2-0.1-0.4c0.1-0.1,0.2-0.2,0.4-0.1
			l0.5,0.3c0.1,0.1,0.2,0.2,0.1,0.4C26.4,192.3,26.3,192.4,26.2,192.4z M133.5,191.7c-0.1,0-0.2,0-0.2-0.1c-0.1-0.1,0-0.3,0.1-0.4
			l0.5-0.3c0.1-0.1,0.3,0,0.4,0.1c0.1,0.1,0,0.3-0.1,0.4l-0.5,0.3C133.6,191.7,133.5,191.7,133.5,191.7z M24.4,191.3
			c0,0-0.1,0-0.1,0l-0.5-0.3c-0.1-0.1-0.2-0.2-0.1-0.4c0.1-0.1,0.2-0.2,0.4-0.1l0.5,0.3c0.1,0.1,0.2,0.2,0.1,0.4
			C24.5,191.3,24.4,191.3,24.4,191.3z M135.3,190.6c-0.1,0-0.2,0-0.2-0.1c-0.1-0.1,0-0.3,0.1-0.4l0.5-0.3c0.1-0.1,0.3,0,0.4,0.1
			c0.1,0.1,0,0.3-0.1,0.4l-0.5,0.3C135.4,190.6,135.4,190.6,135.3,190.6z M22.5,190.2c0,0-0.1,0-0.1,0l-0.5-0.3
			c-0.1-0.1-0.2-0.2-0.1-0.4c0.1-0.1,0.2-0.2,0.4-0.1l0.5,0.3c0.1,0.1,0.2,0.2,0.1,0.4C22.7,190.2,22.6,190.2,22.5,190.2z
			 M137.2,189.5c-0.1,0-0.2,0-0.2-0.1c-0.1-0.1,0-0.3,0.1-0.4l0.5-0.3c0.1-0.1,0.3,0,0.4,0.1c0.1,0.1,0,0.3-0.1,0.4l-0.5,0.3
			C137.2,189.5,137.2,189.5,137.2,189.5z M20.7,189.2c0,0-0.1,0-0.1,0l-0.5-0.3c-0.1-0.1-0.2-0.2-0.1-0.4c0.1-0.1,0.2-0.2,0.4-0.1
			l0.5,0.3c0.1,0.1,0.2,0.2,0.1,0.4C20.9,189.1,20.8,189.2,20.7,189.2z M139,188.5c-0.1,0-0.2,0-0.2-0.1c-0.1-0.1,0-0.3,0.1-0.4
			l0.5-0.3c0.1-0.1,0.3,0,0.4,0.1c0.1,0.1,0,0.3-0.1,0.4l-0.5,0.3C139.1,188.5,139,188.5,139,188.5z M18.8,188.1c0,0-0.1,0-0.1,0
			l-0.5-0.3c-0.1-0.1-0.2-0.2-0.1-0.4c0.1-0.1,0.2-0.2,0.4-0.1l0.5,0.3c0.1,0.1,0.2,0.2,0.1,0.4C19,188.1,18.9,188.1,18.8,188.1z
			 M140.8,187.4c-0.1,0-0.2,0-0.2-0.1c-0.1-0.1,0-0.3,0.1-0.4l0.5-0.3c0.1-0.1,0.3,0,0.4,0.1c0.1,0.1,0,0.3-0.1,0.4l-0.5,0.3
			C140.9,187.4,140.9,187.4,140.8,187.4z M17,187.1c0,0-0.1,0-0.1,0l-0.5-0.3c-0.1-0.1-0.2-0.2-0.1-0.4c0.1-0.1,0.2-0.2,0.4-0.1
			l0.5,0.3c0.1,0.1,0.2,0.2,0.1,0.4C17.2,187,17.1,187.1,17,187.1z M142.7,186.4c-0.1,0-0.2,0-0.2-0.1c-0.1-0.1,0-0.3,0.1-0.4
			l0.5-0.3c0.1-0.1,0.3,0,0.4,0.1c0.1,0.1,0,0.3-0.1,0.4l-0.5,0.3C142.8,186.3,142.7,186.4,142.7,186.4z M15.1,186c0,0-0.1,0-0.1,0
			l-0.5-0.3c-0.1-0.1-0.2-0.2-0.1-0.4c0.1-0.1,0.2-0.2,0.4-0.1l0.5,0.3c0.1,0.1,0.2,0.2,0.1,0.4C15.3,185.9,15.2,186,15.1,186z
			 M144.5,185.3c-0.1,0-0.2,0-0.2-0.1c-0.1-0.1,0-0.3,0.1-0.4l0.5-0.3c0.1-0.1,0.3,0,0.4,0.1c0.1,0.1,0,0.3-0.1,0.4l-0.5,0.3
			C144.6,185.3,144.6,185.3,144.5,185.3z M13.3,184.9c0,0-0.1,0-0.1,0l-0.2-0.1c-0.1-0.1-0.2-0.1-0.3-0.2c-0.1-0.1-0.2-0.2-0.1-0.4
			c0.1-0.1,0.2-0.2,0.4-0.1c0.1,0.1,0.2,0.1,0.3,0.2l0.2,0.1c0.1,0.1,0.2,0.2,0.1,0.4C13.5,184.9,13.4,184.9,13.3,184.9z
			 M146.4,184.2c-0.1,0-0.2,0-0.2-0.1c-0.1-0.1,0-0.3,0.1-0.4l0.5-0.3c0.1-0.1,0.3,0,0.4,0.1c0.1,0.1,0,0.3-0.1,0.4l-0.5,0.3
			C146.5,184.2,146.4,184.2,146.4,184.2z M11.6,183.7c-0.1,0-0.1,0-0.2-0.1c-0.1-0.1-0.3-0.2-0.4-0.4c-0.1-0.1-0.1-0.3,0-0.4
			c0.1-0.1,0.3-0.1,0.4,0c0.1,0.1,0.3,0.2,0.4,0.3c0.1,0.1,0.1,0.3,0,0.4C11.7,183.7,11.6,183.7,11.6,183.7z M148.2,183.2
			c-0.1,0-0.2,0-0.2-0.1c-0.1-0.1,0-0.3,0.1-0.4l0.5-0.3c0.1-0.1,0.3,0,0.4,0.1c0.1,0.1,0,0.3-0.1,0.4l-0.5,0.3
			C148.3,183.2,148.2,183.2,148.2,183.2z M10,182.3c-0.1,0-0.1,0-0.2-0.1c-0.1-0.1-0.2-0.3-0.4-0.4c-0.1-0.1-0.1-0.3,0-0.4
			c0.1-0.1,0.3-0.1,0.4,0c0.1,0.1,0.2,0.3,0.3,0.4c0.1,0.1,0.1,0.3,0,0.4C10.1,182.2,10.1,182.3,10,182.3z M150,182.1
			c-0.1,0-0.2,0-0.2-0.1c-0.1-0.1,0-0.3,0.1-0.4l0.5-0.3c0.1-0.1,0.3,0,0.4,0.1c0.1,0.1,0,0.3-0.1,0.4l-0.5,0.3
			C150.1,182.1,150.1,182.1,150,182.1z M151.9,181c-0.1,0-0.2,0-0.2-0.1c-0.1-0.1,0-0.3,0.1-0.4l0.5-0.3c0.1-0.1,0.3,0,0.4,0.1
			c0.1,0.1,0,0.3-0.1,0.4L152,181C152,181,151.9,181,151.9,181z M8.7,180.6c-0.1,0-0.2,0-0.2-0.1c-0.1-0.1-0.2-0.3-0.3-0.4
			c-0.1-0.1-0.1-0.3,0.1-0.4c0.1-0.1,0.3-0.1,0.4,0.1c0.1,0.1,0.2,0.3,0.3,0.4c0.1,0.1,0.1,0.3-0.1,0.4
			C8.8,180.6,8.7,180.6,8.7,180.6z M153.7,180c-0.1,0-0.2,0-0.2-0.1c-0.1-0.1,0-0.3,0.1-0.4l0.5-0.3c0.1-0.1,0.3,0,0.4,0.1
			c0.1,0.1,0,0.3-0.1,0.4l-0.5,0.3C153.8,180,153.8,180,153.7,180z M155.6,178.9c-0.1,0-0.2,0-0.2-0.1c-0.1-0.1,0-0.3,0.1-0.4
			l0.5-0.3c0.1-0.1,0.3,0,0.4,0.1c0.1,0.1,0,0.3-0.1,0.4l-0.5,0.3C155.7,178.9,155.6,178.9,155.6,178.9z M7.5,178.8
			c-0.1,0-0.2,0-0.2-0.1c-0.1-0.2-0.2-0.3-0.3-0.5c-0.1-0.1,0-0.3,0.1-0.4c0.1-0.1,0.3,0,0.4,0.1c0.1,0.2,0.2,0.3,0.3,0.5
			c0.1,0.1,0,0.3-0.1,0.4C7.6,178.8,7.5,178.8,7.5,178.8z M157.4,177.9c-0.1,0-0.2,0-0.2-0.1c-0.1-0.1,0-0.3,0.1-0.4l0.5-0.3
			c0.1-0.1,0.3,0,0.4,0.1c0.1,0.1,0,0.3-0.1,0.4l-0.5,0.3C157.5,177.8,157.5,177.9,157.4,177.9z M6.5,177c-0.1,0-0.2-0.1-0.2-0.2
			c-0.1-0.2-0.2-0.3-0.2-0.5C6,176.2,6,176,6.1,176c0.1-0.1,0.3,0,0.4,0.1c0.1,0.2,0.1,0.3,0.2,0.5c0.1,0.1,0,0.3-0.1,0.4
			C6.6,177,6.5,177,6.5,177z M159.3,176.8c-0.1,0-0.2,0-0.2-0.1c-0.1-0.1,0-0.3,0.1-0.4l0.5-0.3c0.1-0.1,0.3,0,0.4,0.1
			c0.1,0.1,0,0.3-0.1,0.4l-0.5,0.3C159.3,176.8,159.3,176.8,159.3,176.8z M161.1,175.7c-0.1,0-0.2,0-0.2-0.1c-0.1-0.1,0-0.3,0.1-0.4
			l0.5-0.3c0.1-0.1,0.3,0,0.4,0.1c0.1,0.1,0,0.3-0.1,0.4l-0.5,0.3C161.2,175.7,161.1,175.7,161.1,175.7z M5.6,175
			c-0.1,0-0.2-0.1-0.2-0.2c-0.1-0.2-0.1-0.3-0.2-0.5c0-0.1,0-0.3,0.2-0.3c0.1,0,0.3,0,0.3,0.2c0.1,0.2,0.1,0.3,0.2,0.5
			C5.9,174.8,5.9,174.9,5.6,175C5.7,175,5.7,175,5.6,175z M162.9,174.7c-0.1,0-0.2,0-0.2-0.1c-0.1-0.1,0-0.3,0.1-0.4l0.5-0.3
			c0.1-0.1,0.3,0,0.4,0.1c0.1,0.1,0,0.3-0.1,0.4l-0.5,0.3C163,174.6,163,174.7,162.9,174.7z M164.8,173.6c-0.1,0-0.2,0-0.2-0.1
			c-0.1-0.1,0-0.3,0.1-0.4l0.2-0.1c0.1,0,0.2-0.1,0.2-0.2c0.1-0.1,0.3,0,0.4,0.1c0.1,0.1,0,0.3-0.1,0.4c-0.1,0.1-0.2,0.1-0.3,0.2
			l-0.2,0.1C164.9,173.6,164.8,173.6,164.8,173.6z M5,173c-0.1,0-0.2-0.1-0.3-0.2c0-0.2-0.1-0.4-0.1-0.5c0-0.1,0.1-0.3,0.2-0.3
			c0.1,0,0.3,0.1,0.3,0.2c0,0.2,0.1,0.3,0.1,0.5C5.3,172.8,5.2,172.9,5,173C5.1,173,5,173,5,173z M166.4,172.3c-0.1,0-0.1,0-0.2-0.1
			c-0.1-0.1-0.1-0.3,0-0.4c0.1-0.1,0.2-0.3,0.3-0.4c0.1-0.1,0.2-0.2,0.4-0.1c0.1,0.1,0.2,0.2,0.1,0.4c-0.1,0.2-0.2,0.3-0.3,0.5
			C166.6,172.2,166.5,172.3,166.4,172.3z M4.6,170.9c-0.1,0-0.2-0.1-0.3-0.2c0-0.2,0-0.4-0.1-0.5c0-0.1,0.1-0.3,0.2-0.3
			c0.2,0,0.3,0.1,0.3,0.2c0,0.2,0,0.3,0.1,0.5C4.9,170.7,4.8,170.9,4.6,170.9C4.7,170.9,4.6,170.9,4.6,170.9z M167,170.3
			c-0.1,0-0.2-0.1-0.3-0.2c0-0.2-0.1-0.3-0.1-0.4c-0.1-0.1,0-0.3,0.1-0.3c0.1-0.1,0.3,0,0.3,0.1c0.1,0.2,0.1,0.4,0.2,0.6
			C167.3,170.1,167.2,170.3,167,170.3C167,170.3,167,170.3,167,170.3z M4.6,168.8C4.5,168.8,4.5,168.8,4.6,168.8
			c-0.2,0-0.3-0.1-0.3-0.3c0-0.2,0-0.4,0-0.5c0-0.1,0.1-0.3,0.3-0.2c0.1,0,0.3,0.1,0.2,0.3c0,0.2,0,0.3,0,0.5
			C4.8,168.7,4.7,168.8,4.6,168.8z M165.8,168.6c-0.1,0-0.1,0-0.2-0.1c-0.1-0.1-0.3-0.2-0.4-0.3c-0.1-0.1-0.2-0.2-0.1-0.4
			c0.1-0.1,0.2-0.2,0.4-0.1c0.2,0.1,0.3,0.2,0.5,0.3c0.1,0.1,0.1,0.3,0,0.4C166,168.5,165.9,168.6,165.8,168.6z M164,167.5
			c0,0-0.1,0-0.1,0l-0.5-0.3c-0.1-0.1-0.2-0.2-0.1-0.4c0.1-0.1,0.2-0.2,0.4-0.1l0.5,0.3c0.1,0.1,0.2,0.2,0.1,0.4
			C164.2,167.4,164.1,167.5,164,167.5z M4.9,166.7C4.8,166.7,4.8,166.7,4.9,166.7c-0.2,0-0.3-0.2-0.3-0.3c0-0.2,0.1-0.4,0.2-0.5
			c0-0.1,0.2-0.2,0.3-0.2c0.1,0,0.2,0.2,0.2,0.3c-0.1,0.2-0.1,0.3-0.2,0.5C5.1,166.6,5,166.7,4.9,166.7z M162.2,166.4
			c0,0-0.1,0-0.1,0l-0.5-0.3c-0.1-0.1-0.2-0.2-0.1-0.4c0.1-0.1,0.2-0.2,0.4-0.1l0.5,0.3c0.1,0.1,0.2,0.2,0.1,0.4
			C162.4,166.4,162.3,166.4,162.2,166.4z M160.3,165.3c0,0-0.1,0-0.1,0l-0.2-0.1c-0.1-0.1-0.2-0.2-0.1-0.4c0.1-0.1,0.2-0.2,0.4-0.1
			l0.2,0.1c0.1,0.1,0.2,0.2,0.1,0.4C160.5,165.3,160.4,165.3,160.3,165.3z M5.7,164.7c-0.1,0-0.1,0-0.2,0c-0.1-0.1-0.2-0.2-0.1-0.4
			c0.1-0.2,0.2-0.3,0.3-0.4c0.1-0.1,0.3-0.1,0.4,0c0.1,0.1,0.1,0.3,0,0.4c-0.1,0.1-0.2,0.3-0.3,0.4C5.9,164.7,5.8,164.7,5.7,164.7z"
			/>
	</g>
	<path class="st1" d="M105.1,109.8l62.3,36c2.6,1.5,3.3,5.5-0.5,7.7l-81,46.8c-4.6,2.7-9.8,2.3-13.3,0.3l-62.3-36L105.1,109.8z"/>
	<g>
		<path class="st9" d="M79.5,200.6c-0.1,0-0.3-0.1-0.3-0.3c0-0.1,0.1-0.3,0.3-0.3c0.2,0,0.3,0,0.5,0c0.2,0,0.3,0.1,0.3,0.2
			c0,0.1-0.1,0.3-0.2,0.3C79.9,200.5,79.7,200.5,79.5,200.6C79.5,200.6,79.5,200.6,79.5,200.6z M77.9,200.5
			C77.9,200.5,77.9,200.5,77.9,200.5c-0.2,0-0.4,0-0.6-0.1c-0.1,0-0.2-0.2-0.2-0.3c0-0.1,0.1-0.3,0.3-0.2c0.2,0,0.3,0,0.5,0.1
			c0.1,0,0.3,0.1,0.2,0.3C78.2,200.4,78.1,200.5,77.9,200.5z M81.6,200.3c-0.1,0-0.2-0.1-0.3-0.2c0-0.1,0.1-0.3,0.2-0.3
			c0.2,0,0.3-0.1,0.5-0.1c0.1,0,0.3,0,0.3,0.2c0,0.1,0,0.3-0.2,0.3C82.1,200.2,81.9,200.2,81.6,200.3
			C81.7,200.2,81.7,200.3,81.6,200.3z M75.9,200.1C75.8,200.1,75.8,200.1,75.9,200.1c-0.3-0.1-0.4-0.1-0.6-0.2
			c-0.1-0.1-0.2-0.2-0.1-0.3c0.1-0.1,0.2-0.2,0.3-0.1c0.2,0.1,0.3,0.1,0.5,0.2c0.1,0,0.2,0.2,0.2,0.3C76.1,200,76,200.1,75.9,200.1z
			 M83.6,199.5c-0.1,0-0.2-0.1-0.2-0.1c-0.1-0.1,0-0.3,0.1-0.4c0.1,0,0.1-0.1,0.2-0.1l0.2-0.1c0.1-0.1,0.3,0,0.4,0.1
			c0.1,0.1,0,0.3-0.1,0.4l-0.2,0.1c-0.1,0-0.1,0.1-0.2,0.1C83.7,199.5,83.7,199.5,83.6,199.5z M74,199.2c0,0-0.1,0-0.1,0l-0.5-0.3
			c-0.1-0.1-0.2-0.2-0.1-0.4c0.1-0.1,0.2-0.2,0.4-0.1l0.5,0.3c0.1,0.1,0.2,0.2,0.1,0.4C74.2,199.1,74.1,199.2,74,199.2z M85.5,198.4
			c-0.1,0-0.2,0-0.2-0.1c-0.1-0.1,0-0.3,0.1-0.4l0.5-0.3c0.1-0.1,0.3,0,0.4,0.1c0.1,0.1,0,0.3-0.1,0.4l-0.5,0.3
			C85.6,198.4,85.5,198.4,85.5,198.4z M72.1,198.1c0,0-0.1,0-0.1,0l-0.5-0.3c-0.1-0.1-0.2-0.2-0.1-0.4c0.1-0.1,0.2-0.2,0.4-0.1
			l0.5,0.3c0.1,0.1,0.2,0.2,0.1,0.4C72.3,198,72.2,198.1,72.1,198.1z M87.3,197.4c-0.1,0-0.2,0-0.2-0.1c-0.1-0.1,0-0.3,0.1-0.4
			l0.5-0.3c0.1-0.1,0.3,0,0.4,0.1c0.1,0.1,0,0.3-0.1,0.4l-0.5,0.3C87.4,197.4,87.4,197.4,87.3,197.4z M70.3,197c0,0-0.1,0-0.1,0
			l-0.5-0.3c-0.1-0.1-0.2-0.2-0.1-0.4c0.1-0.1,0.2-0.2,0.4-0.1l0.5,0.3c0.1,0.1,0.2,0.2,0.1,0.4C70.5,197,70.4,197,70.3,197z
			 M89.2,196.3c-0.1,0-0.2,0-0.2-0.1c-0.1-0.1,0-0.3,0.1-0.4l0.5-0.3c0.1-0.1,0.3,0,0.4,0.1c0.1,0.1,0,0.3-0.1,0.4l-0.5,0.3
			C89.2,196.3,89.2,196.3,89.2,196.3z M68.4,196c0,0-0.1,0-0.1,0l-0.5-0.3c-0.1-0.1-0.2-0.2-0.1-0.4c0.1-0.1,0.2-0.2,0.4-0.1
			l0.5,0.3c0.1,0.1,0.2,0.2,0.1,0.4C68.6,195.9,68.5,196,68.4,196z M91,195.3c-0.1,0-0.2,0-0.2-0.1c-0.1-0.1,0-0.3,0.1-0.4l0.5-0.3
			c0.1-0.1,0.3,0,0.4,0.1c0.1,0.1,0,0.3-0.1,0.4l-0.5,0.3C91.1,195.2,91,195.3,91,195.3z M66.6,194.9c0,0-0.1,0-0.1,0l-0.5-0.3
			c-0.1-0.1-0.2-0.2-0.1-0.4c0.1-0.1,0.2-0.2,0.4-0.1l0.5,0.3c0.1,0.1,0.2,0.2,0.1,0.4C66.8,194.9,66.7,194.9,66.6,194.9z
			 M92.8,194.2c-0.1,0-0.2,0-0.2-0.1c-0.1-0.1,0-0.3,0.1-0.4l0.5-0.3c0.1-0.1,0.3,0,0.4,0.1c0.1,0.1,0,0.3-0.1,0.4l-0.5,0.3
			C92.9,194.2,92.9,194.2,92.8,194.2z M64.8,193.8c0,0-0.1,0-0.1,0l-0.5-0.3c-0.1-0.1-0.2-0.2-0.1-0.4c0.1-0.1,0.2-0.2,0.4-0.1
			l0.5,0.3c0.1,0.1,0.2,0.2,0.1,0.4C64.9,193.8,64.9,193.8,64.8,193.8z M94.7,193.1c-0.1,0-0.2,0-0.2-0.1c-0.1-0.1,0-0.3,0.1-0.4
			l0.5-0.3c0.1-0.1,0.3,0,0.4,0.1c0.1,0.1,0,0.3-0.1,0.4l-0.5,0.3C94.8,193.1,94.7,193.1,94.7,193.1z M62.9,192.8c0,0-0.1,0-0.1,0
			l-0.5-0.3c-0.1-0.1-0.2-0.2-0.1-0.4c0.1-0.1,0.2-0.2,0.4-0.1l0.5,0.3c0.1,0.1,0.2,0.2,0.1,0.4C63.1,192.7,63,192.8,62.9,192.8z
			 M96.5,192.1c-0.1,0-0.2,0-0.2-0.1c-0.1-0.1,0-0.3,0.1-0.4l0.5-0.3c0.1-0.1,0.3,0,0.4,0.1c0.1,0.1,0,0.3-0.1,0.4l-0.5,0.3
			C96.6,192.1,96.6,192.1,96.5,192.1z M61.1,191.7c0,0-0.1,0-0.1,0l-0.5-0.3c-0.1-0.1-0.2-0.2-0.1-0.4c0.1-0.1,0.2-0.2,0.4-0.1
			l0.5,0.3c0.1,0.1,0.2,0.2,0.1,0.4C61.3,191.7,61.2,191.7,61.1,191.7z M98.4,191c-0.1,0-0.2,0-0.2-0.1c-0.1-0.1,0-0.3,0.1-0.4
			l0.5-0.3c0.1-0.1,0.3,0,0.4,0.1c0.1,0.1,0,0.3-0.1,0.4l-0.5,0.3C98.5,191,98.4,191,98.4,191z M59.2,190.6c0,0-0.1,0-0.1,0
			l-0.5-0.3c-0.1-0.1-0.2-0.2-0.1-0.4c0.1-0.1,0.2-0.2,0.4-0.1l0.5,0.3c0.1,0.1,0.2,0.2,0.1,0.4C59.4,190.6,59.3,190.6,59.2,190.6z
			 M100.2,189.9c-0.1,0-0.2,0-0.2-0.1c-0.1-0.1,0-0.3,0.1-0.4l0.5-0.3c0.1-0.1,0.3,0,0.4,0.1c0.1,0.1,0,0.3-0.1,0.4l-0.5,0.3
			C100.3,189.9,100.3,189.9,100.2,189.9z M57.4,189.6c0,0-0.1,0-0.1,0l-0.5-0.3c-0.1-0.1-0.2-0.2-0.1-0.4c0.1-0.1,0.2-0.2,0.4-0.1
			l0.5,0.3c0.1,0.1,0.2,0.2,0.1,0.4C57.6,189.5,57.5,189.6,57.4,189.6z M102,188.9c-0.1,0-0.2,0-0.2-0.1c-0.1-0.1,0-0.3,0.1-0.4
			l0.5-0.3c0.1-0.1,0.3,0,0.4,0.1c0.1,0.1,0,0.3-0.1,0.4l-0.5,0.3C102.1,188.9,102.1,188.9,102,188.9z M55.6,188.5c0,0-0.1,0-0.1,0
			l-0.5-0.3c-0.1-0.1-0.2-0.2-0.1-0.4c0.1-0.1,0.2-0.2,0.4-0.1l0.5,0.3c0.1,0.1,0.2,0.2,0.1,0.4C55.7,188.5,55.6,188.5,55.6,188.5z
			 M103.9,187.8c-0.1,0-0.2,0-0.2-0.1c-0.1-0.1,0-0.3,0.1-0.4l0.5-0.3c0.1-0.1,0.3,0,0.4,0.1c0.1,0.1,0,0.3-0.1,0.4l-0.5,0.3
			C104,187.8,103.9,187.8,103.9,187.8z M53.7,187.5c0,0-0.1,0-0.1,0l-0.5-0.3c-0.1-0.1-0.2-0.2-0.1-0.4c0.1-0.1,0.2-0.2,0.4-0.1
			l0.5,0.3c0.1,0.1,0.2,0.2,0.1,0.4C53.9,187.4,53.8,187.5,53.7,187.5z M105.7,186.8c-0.1,0-0.2,0-0.2-0.1c-0.1-0.1,0-0.3,0.1-0.4
			l0.5-0.3c0.1-0.1,0.3,0,0.4,0.1c0.1,0.1,0,0.3-0.1,0.4l-0.5,0.3C105.8,186.7,105.8,186.8,105.7,186.8z M51.9,186.4
			c0,0-0.1,0-0.1,0l-0.5-0.3c-0.1-0.1-0.2-0.2-0.1-0.4c0.1-0.1,0.2-0.2,0.4-0.1l0.5,0.3c0.1,0.1,0.2,0.2,0.1,0.4
			C52.1,186.3,52,186.4,51.9,186.4z M107.6,185.7c-0.1,0-0.2,0-0.2-0.1c-0.1-0.1,0-0.3,0.1-0.4l0.5-0.3c0.1-0.1,0.3,0,0.4,0.1
			c0.1,0.1,0,0.3-0.1,0.4l-0.5,0.3C107.7,185.7,107.6,185.7,107.6,185.7z M50,185.3c0,0-0.1,0-0.1,0l-0.5-0.3
			c-0.1-0.1-0.2-0.2-0.1-0.4c0.1-0.1,0.2-0.2,0.4-0.1l0.5,0.3c0.1,0.1,0.2,0.2,0.1,0.4C50.2,185.3,50.1,185.3,50,185.3z
			 M109.4,184.6c-0.1,0-0.2,0-0.2-0.1c-0.1-0.1,0-0.3,0.1-0.4l0.5-0.3c0.1-0.1,0.3,0,0.4,0.1c0.1,0.1,0,0.3-0.1,0.4l-0.5,0.3
			C109.5,184.6,109.5,184.6,109.4,184.6z M48.2,184.3c0,0-0.1,0-0.1,0l-0.5-0.3c-0.1-0.1-0.2-0.2-0.1-0.4c0.1-0.1,0.2-0.2,0.4-0.1
			l0.5,0.3c0.1,0.1,0.2,0.2,0.1,0.4C48.4,184.2,48.3,184.3,48.2,184.3z M111.3,183.6c-0.1,0-0.2,0-0.2-0.1c-0.1-0.1,0-0.3,0.1-0.4
			l0.5-0.3c0.1-0.1,0.3,0,0.4,0.1c0.1,0.1,0,0.3-0.1,0.4l-0.5,0.3C111.3,183.5,111.3,183.6,111.3,183.6z M46.3,183.2
			c0,0-0.1,0-0.1,0l-0.5-0.3c-0.1-0.1-0.2-0.2-0.1-0.4c0.1-0.1,0.2-0.2,0.4-0.1l0.5,0.3c0.1,0.1,0.2,0.2,0.1,0.4
			C46.5,183.2,46.4,183.2,46.3,183.2z M113.1,182.5c-0.1,0-0.2,0-0.2-0.1c-0.1-0.1,0-0.3,0.1-0.4l0.5-0.3c0.1-0.1,0.3,0,0.4,0.1
			c0.1,0.1,0,0.3-0.1,0.4l-0.5,0.3C113.2,182.5,113.1,182.5,113.1,182.5z M44.5,182.1c0,0-0.1,0-0.1,0l-0.5-0.3
			c-0.1-0.1-0.2-0.2-0.1-0.4c0.1-0.1,0.2-0.2,0.4-0.1l0.5,0.3c0.1,0.1,0.2,0.2,0.1,0.4C44.7,182.1,44.6,182.1,44.5,182.1z
			 M114.9,181.4c-0.1,0-0.2,0-0.2-0.1c-0.1-0.1,0-0.3,0.1-0.4l0.5-0.3c0.1-0.1,0.3,0,0.4,0.1c0.1,0.1,0,0.3-0.1,0.4l-0.5,0.3
			C115,181.4,115,181.4,114.9,181.4z M42.7,181.1c0,0-0.1,0-0.1,0l-0.5-0.3c-0.1-0.1-0.2-0.2-0.1-0.4c0.1-0.1,0.2-0.2,0.4-0.1
			l0.5,0.3c0.1,0.1,0.2,0.2,0.1,0.4C42.8,181,42.8,181.1,42.7,181.1z M116.8,180.4c-0.1,0-0.2,0-0.2-0.1c-0.1-0.1,0-0.3,0.1-0.4
			l0.5-0.3c0.1-0.1,0.3,0,0.4,0.1c0.1,0.1,0,0.3-0.1,0.4l-0.5,0.3C116.9,180.4,116.8,180.4,116.8,180.4z M40.8,180c0,0-0.1,0-0.1,0
			l-0.5-0.3c-0.1-0.1-0.2-0.2-0.1-0.4c0.1-0.1,0.2-0.2,0.4-0.1l0.5,0.3c0.1,0.1,0.2,0.2,0.1,0.4C41,180,40.9,180,40.8,180z
			 M118.6,179.3c-0.1,0-0.2,0-0.2-0.1c-0.1-0.1,0-0.3,0.1-0.4l0.5-0.3c0.1-0.1,0.3,0,0.4,0.1c0.1,0.1,0,0.3-0.1,0.4l-0.5,0.3
			C118.7,179.3,118.7,179.3,118.6,179.3z M39,178.9c0,0-0.1,0-0.1,0l-0.5-0.3c-0.1-0.1-0.2-0.2-0.1-0.4c0.1-0.1,0.2-0.2,0.4-0.1
			l0.5,0.3c0.1,0.1,0.2,0.2,0.1,0.4C39.2,178.9,39.1,178.9,39,178.9z M120.5,178.2c-0.1,0-0.2,0-0.2-0.1c-0.1-0.1,0-0.3,0.1-0.4
			l0.5-0.3c0.1-0.1,0.3,0,0.4,0.1c0.1,0.1,0,0.3-0.1,0.4l-0.5,0.3C120.6,178.2,120.5,178.2,120.5,178.2z M37.1,177.9
			c0,0-0.1,0-0.1,0l-0.5-0.3c-0.1-0.1-0.2-0.2-0.1-0.4c0.1-0.1,0.2-0.2,0.4-0.1l0.5,0.3c0.1,0.1,0.2,0.2,0.1,0.4
			C37.3,177.8,37.2,177.9,37.1,177.9z M122.3,177.2c-0.1,0-0.2,0-0.2-0.1c-0.1-0.1,0-0.3,0.1-0.4l0.5-0.3c0.1-0.1,0.3,0,0.4,0.1
			c0.1,0.1,0,0.3-0.1,0.4l-0.5,0.3C122.4,177.2,122.4,177.2,122.3,177.2z M35.3,176.8c0,0-0.1,0-0.1,0l-0.5-0.3
			c-0.1-0.1-0.2-0.2-0.1-0.4c0.1-0.1,0.2-0.2,0.4-0.1l0.5,0.3c0.1,0.1,0.2,0.2,0.1,0.4C35.5,176.8,35.4,176.8,35.3,176.8z
			 M124.1,176.1c-0.1,0-0.2,0-0.2-0.1c-0.1-0.1,0-0.3,0.1-0.4l0.5-0.3c0.1-0.1,0.3,0,0.4,0.1c0.1,0.1,0,0.3-0.1,0.4l-0.5,0.3
			C124.2,176.1,124.2,176.1,124.1,176.1z M33.5,175.8c0,0-0.1,0-0.1,0l-0.5-0.3c-0.1-0.1-0.2-0.2-0.1-0.4c0.1-0.1,0.2-0.2,0.4-0.1
			l0.5,0.3c0.1,0.1,0.2,0.2,0.1,0.4C33.6,175.7,33.5,175.8,33.5,175.8z M126,175.1c-0.1,0-0.2,0-0.2-0.1c-0.1-0.1,0-0.3,0.1-0.4
			l0.5-0.3c0.1-0.1,0.3,0,0.4,0.1c0.1,0.1,0,0.3-0.1,0.4l-0.5,0.3C126.1,175,126,175.1,126,175.1z M31.6,174.7c0,0-0.1,0-0.1,0
			l-0.5-0.3c-0.1-0.1-0.2-0.2-0.1-0.4c0.1-0.1,0.2-0.2,0.4-0.1l0.5,0.3c0.1,0.1,0.2,0.2,0.1,0.4C31.8,174.6,31.7,174.7,31.6,174.7z
			 M127.8,174c-0.1,0-0.2,0-0.2-0.1c-0.1-0.1,0-0.3,0.1-0.4l0.5-0.3c0.1-0.1,0.3,0,0.4,0.1c0.1,0.1,0,0.3-0.1,0.4L128,174
			C127.9,174,127.9,174,127.8,174z M29.8,173.6c0,0-0.1,0-0.1,0l-0.5-0.3c-0.1-0.1-0.2-0.2-0.1-0.4c0.1-0.1,0.2-0.2,0.4-0.1l0.5,0.3
			c0.1,0.1,0.2,0.2,0.1,0.4C30,173.6,29.9,173.6,29.8,173.6z M129.7,172.9c-0.1,0-0.2,0-0.2-0.1c-0.1-0.1,0-0.3,0.1-0.4l0.5-0.3
			c0.1-0.1,0.3,0,0.4,0.1c0.1,0.1,0,0.3-0.1,0.4l-0.5,0.3C129.8,172.9,129.7,172.9,129.7,172.9z M27.9,172.6c0,0-0.1,0-0.1,0
			l-0.5-0.3c-0.1-0.1-0.2-0.2-0.1-0.4c0.1-0.1,0.2-0.2,0.4-0.1l0.5,0.3c0.1,0.1,0.2,0.2,0.1,0.4C28.1,172.5,28,172.6,27.9,172.6z
			 M131.5,171.9c-0.1,0-0.2,0-0.2-0.1c-0.1-0.1,0-0.3,0.1-0.4l0.5-0.3c0.1-0.1,0.3,0,0.4,0.1c0.1,0.1,0,0.3-0.1,0.4l-0.5,0.3
			C131.6,171.9,131.6,171.9,131.5,171.9z M26.1,171.5c0,0-0.1,0-0.1,0l-0.5-0.3c-0.1-0.1-0.2-0.2-0.1-0.4c0.1-0.1,0.2-0.2,0.4-0.1
			l0.5,0.3c0.1,0.1,0.2,0.2,0.1,0.4C26.3,171.5,26.2,171.5,26.1,171.5z M133.4,170.8c-0.1,0-0.2,0-0.2-0.1c-0.1-0.1,0-0.3,0.1-0.4
			l0.5-0.3c0.1-0.1,0.3,0,0.4,0.1c0.1,0.1,0,0.3-0.1,0.4l-0.5,0.3C133.4,170.8,133.4,170.8,133.4,170.8z M24.2,170.4
			c0,0-0.1,0-0.1,0l-0.5-0.3c-0.1-0.1-0.2-0.2-0.1-0.4c0.1-0.1,0.2-0.2,0.4-0.1l0.5,0.3c0.1,0.1,0.2,0.2,0.1,0.4
			C24.4,170.4,24.3,170.4,24.2,170.4z M135.2,169.7c-0.1,0-0.2,0-0.2-0.1c-0.1-0.1,0-0.3,0.1-0.4l0.5-0.3c0.1-0.1,0.3,0,0.4,0.1
			c0.1,0.1,0,0.3-0.1,0.4l-0.5,0.3C135.3,169.7,135.2,169.7,135.2,169.7z M22.4,169.4c0,0-0.1,0-0.1,0l-0.5-0.3
			c-0.1-0.1-0.2-0.2-0.1-0.4c0.1-0.1,0.2-0.2,0.4-0.1l0.5,0.3c0.1,0.1,0.2,0.2,0.1,0.4C22.6,169.3,22.5,169.4,22.4,169.4z
			 M137,168.7c-0.1,0-0.2,0-0.2-0.1c-0.1-0.1,0-0.3,0.1-0.4l0.5-0.3c0.1-0.1,0.3,0,0.4,0.1c0.1,0.1,0,0.3-0.1,0.4l-0.5,0.3
			C137.1,168.7,137.1,168.7,137,168.7z M20.6,168.3c0,0-0.1,0-0.1,0L20,168c-0.1-0.1-0.2-0.2-0.1-0.4c0.1-0.1,0.2-0.2,0.4-0.1
			l0.5,0.3c0.1,0.1,0.2,0.2,0.1,0.4C20.7,168.3,20.7,168.3,20.6,168.3z M138.9,167.6c-0.1,0-0.2,0-0.2-0.1c-0.1-0.1,0-0.3,0.1-0.4
			l0.5-0.3c0.1-0.1,0.3,0,0.4,0.1c0.1,0.1,0,0.3-0.1,0.4l-0.5,0.3C139,167.6,138.9,167.6,138.9,167.6z M18.7,167.2c0,0-0.1,0-0.1,0
			l-0.5-0.3c-0.1-0.1-0.2-0.2-0.1-0.4c0.1-0.1,0.2-0.2,0.4-0.1l0.5,0.3c0.1,0.1,0.2,0.2,0.1,0.4C18.9,167.2,18.8,167.2,18.7,167.2z
			 M140.7,166.5c-0.1,0-0.2,0-0.2-0.1c-0.1-0.1,0-0.3,0.1-0.4l0.5-0.3c0.1-0.1,0.3,0,0.4,0.1c0.1,0.1,0,0.3-0.1,0.4l-0.5,0.3
			C140.8,166.5,140.8,166.5,140.7,166.5z M16.9,166.2c0,0-0.1,0-0.1,0l-0.5-0.3c-0.1-0.1-0.2-0.2-0.1-0.4c0.1-0.1,0.2-0.2,0.4-0.1
			l0.5,0.3c0.1,0.1,0.2,0.2,0.1,0.4C17.1,166.1,17,166.2,16.9,166.2z M142.6,165.5c-0.1,0-0.2,0-0.2-0.1c-0.1-0.1,0-0.3,0.1-0.4
			l0.5-0.3c0.1-0.1,0.3,0,0.4,0.1c0.1,0.1,0,0.3-0.1,0.4l-0.5,0.3C142.7,165.5,142.6,165.5,142.6,165.5z M15,165.1c0,0-0.1,0-0.1,0
			l-0.5-0.3c-0.1-0.1-0.2-0.2-0.1-0.4c0.1-0.1,0.2-0.2,0.4-0.1l0.5,0.3c0.1,0.1,0.2,0.2,0.1,0.4C15.2,165.1,15.1,165.1,15,165.1z
			 M144.4,164.4c-0.1,0-0.2,0-0.2-0.1c-0.1-0.1,0-0.3,0.1-0.4l0.5-0.3c0.1-0.1,0.3,0,0.4,0.1c0.1,0.1,0,0.3-0.1,0.4l-0.5,0.3
			C144.5,164.4,144.5,164.4,144.4,164.4z M13.2,164.1c0,0-0.1,0-0.1,0l-0.5-0.3c-0.1-0.1-0.2-0.2-0.1-0.4c0.1-0.1,0.2-0.2,0.4-0.1
			l0.5,0.3c0.1,0.1,0.2,0.2,0.1,0.4C13.4,164,13.3,164.1,13.2,164.1z M146.3,163.4c-0.1,0-0.2,0-0.2-0.1c-0.1-0.1,0-0.3,0.1-0.4
			l0.5-0.3c0.1-0.1,0.3,0,0.4,0.1c0.1,0.1,0,0.3-0.1,0.4l-0.5,0.3C146.3,163.3,146.3,163.4,146.3,163.4z M11.3,163c0,0-0.1,0-0.1,0
			c-0.1-0.1-0.3-0.1-0.5-0.2c-0.1-0.1-0.2-0.2-0.1-0.4c0.1-0.1,0.2-0.2,0.4-0.1c0.2,0.1,0.3,0.2,0.5,0.2c0.1,0.1,0.2,0.2,0.1,0.4
			C11.5,163,11.4,163,11.3,163z M148.1,162.3c-0.1,0-0.2,0-0.2-0.1c-0.1-0.1,0-0.3,0.1-0.4l0.5-0.3c0.1-0.1,0.3,0,0.4,0.1
			c0.1,0.1,0,0.3-0.1,0.4l-0.5,0.3C148.2,162.3,148.1,162.3,148.1,162.3z M9.4,162.2C9.3,162.2,9.3,162.2,9.4,162.2
			c-0.2-0.1-0.4-0.1-0.6-0.1c-0.1,0-0.2-0.2-0.2-0.3c0-0.1,0.2-0.2,0.3-0.2c0.2,0,0.4,0.1,0.5,0.1c0.1,0,0.2,0.2,0.2,0.3
			C9.6,162.2,9.5,162.2,9.4,162.2z M149.9,161.2c-0.1,0-0.2,0-0.2-0.1c-0.1-0.1,0-0.3,0.1-0.4l0.5-0.3c0.1-0.1,0.3,0,0.4,0.1
			c0.1,0.1,0,0.3-0.1,0.4l-0.5,0.3C150,161.2,150,161.2,149.9,161.2z M151.8,160.2c-0.1,0-0.2,0-0.2-0.1c-0.1-0.1,0-0.3,0.1-0.4
			l0.5-0.3c0.1-0.1,0.3,0,0.4,0.1c0.1,0.1,0,0.3-0.1,0.4l-0.5,0.3C151.9,160.2,151.8,160.2,151.8,160.2z M153.6,159.1
			c-0.1,0-0.2,0-0.2-0.1c-0.1-0.1,0-0.3,0.1-0.4l0.5-0.3c0.1-0.1,0.3,0,0.4,0.1c0.1,0.1,0,0.3-0.1,0.4l-0.5,0.3
			C153.7,159.1,153.7,159.1,153.6,159.1z M155.5,158c-0.1,0-0.2,0-0.2-0.1c-0.1-0.1,0-0.3,0.1-0.4l0.5-0.3c0.1-0.1,0.3,0,0.4,0.1
			c0.1,0.1,0,0.3-0.1,0.4l-0.5,0.3C155.6,158,155.5,158,155.5,158z M157.3,157c-0.1,0-0.2,0-0.2-0.1c-0.1-0.1,0-0.3,0.1-0.4l0.5-0.3
			c0.1-0.1,0.3,0,0.4,0.1c0.1,0.1,0,0.3-0.1,0.4l-0.5,0.3C157.4,157,157.3,157,157.3,157z M159.1,155.9c-0.1,0-0.2,0-0.2-0.1
			c-0.1-0.1,0-0.3,0.1-0.4l0.5-0.3c0.1-0.1,0.3,0,0.4,0.1c0.1,0.1,0,0.3-0.1,0.4l-0.5,0.3C159.2,155.9,159.2,155.9,159.1,155.9z
			 M161,154.8c-0.1,0-0.2,0-0.2-0.1c-0.1-0.1,0-0.3,0.1-0.4l0.5-0.3c0.1-0.1,0.3,0,0.4,0.1c0.1,0.1,0,0.3-0.1,0.4l-0.5,0.3
			C161.1,154.8,161,154.8,161,154.8z M162.8,153.8c-0.1,0-0.2,0-0.2-0.1c-0.1-0.1,0-0.3,0.1-0.4l0.5-0.3c0.1-0.1,0.3,0,0.4,0.1
			c0.1,0.1,0,0.3-0.1,0.4l-0.5,0.3C162.9,153.8,162.9,153.8,162.8,153.8z M164.7,152.7c-0.1,0-0.2,0-0.2-0.1c-0.1-0.1,0-0.3,0.1-0.4
			l0.2-0.1c0.1-0.1,0.2-0.1,0.3-0.2c0.1-0.1,0.3,0,0.4,0.1c0.1,0.1,0,0.3-0.1,0.4c-0.1,0.1-0.2,0.1-0.3,0.2l-0.2,0.1
			C164.8,152.7,164.7,152.7,164.7,152.7z M166.3,151.4c-0.1,0-0.1,0-0.2-0.1c-0.1-0.1-0.1-0.3,0-0.4c0.1-0.1,0.2-0.3,0.3-0.4
			c0.1-0.1,0.2-0.2,0.4-0.1c0.1,0.1,0.2,0.2,0.1,0.4c-0.1,0.2-0.2,0.3-0.3,0.5C166.5,151.4,166.4,151.4,166.3,151.4z M166.9,149.4
			c-0.1,0-0.2-0.1-0.3-0.2c0-0.2-0.1-0.3-0.1-0.4c-0.1-0.1,0-0.3,0.1-0.3c0.1-0.1,0.3,0,0.3,0.1c0.1,0.2,0.1,0.4,0.2,0.6
			C167.2,149.2,167.1,149.4,166.9,149.4C166.9,149.4,166.9,149.4,166.9,149.4z M165.7,147.7c-0.1,0-0.1,0-0.2-0.1
			c-0.1-0.1-0.3-0.2-0.4-0.3c-0.1-0.1-0.2-0.2-0.1-0.4c0.1-0.1,0.2-0.2,0.4-0.1c0.2,0.1,0.3,0.2,0.5,0.3c0.1,0.1,0.1,0.3,0,0.4
			C165.9,147.6,165.8,147.7,165.7,147.7z M163.9,146.6c0,0-0.1,0-0.1,0l-0.5-0.3c-0.1-0.1-0.2-0.2-0.1-0.4c0.1-0.1,0.2-0.2,0.4-0.1
			l0.5,0.3c0.1,0.1,0.2,0.2,0.1,0.4C164.1,146.5,164,146.6,163.9,146.6z M162.1,145.5c0,0-0.1,0-0.1,0l-0.5-0.3
			c-0.1-0.1-0.2-0.2-0.1-0.4c0.1-0.1,0.2-0.2,0.4-0.1l0.5,0.3c0.1,0.1,0.2,0.2,0.1,0.4C162.2,145.5,162.2,145.5,162.1,145.5z
			 M160.2,144.5c0,0-0.1,0-0.1,0l-0.5-0.3c-0.1-0.1-0.2-0.2-0.1-0.4c0.1-0.1,0.2-0.2,0.4-0.1l0.5,0.3c0.1,0.1,0.2,0.2,0.1,0.4
			C160.4,144.4,160.3,144.5,160.2,144.5z M158.4,143.4c0,0-0.1,0-0.1,0l-0.5-0.3c-0.1-0.1-0.2-0.2-0.1-0.4c0.1-0.1,0.2-0.2,0.4-0.1
			l0.5,0.3c0.1,0.1,0.2,0.2,0.1,0.4C158.6,143.4,158.5,143.4,158.4,143.4z M156.5,142.3c0,0-0.1,0-0.1,0l-0.5-0.3
			c-0.1-0.1-0.2-0.2-0.1-0.4c0.1-0.1,0.2-0.2,0.4-0.1l0.5,0.3c0.1,0.1,0.2,0.2,0.1,0.4C156.7,142.3,156.6,142.3,156.5,142.3z
			 M154.7,141.3c0,0-0.1,0-0.1,0l-0.5-0.3c-0.1-0.1-0.2-0.2-0.1-0.4c0.1-0.1,0.2-0.2,0.4-0.1l0.5,0.3c0.1,0.1,0.2,0.2,0.1,0.4
			C154.9,141.2,154.8,141.3,154.7,141.3z M152.9,140.2c0,0-0.1,0-0.1,0l-0.5-0.3c-0.1-0.1-0.2-0.2-0.1-0.4c0.1-0.1,0.2-0.2,0.4-0.1
			l0.5,0.3c0.1,0.1,0.2,0.2,0.1,0.4C153,140.2,152.9,140.2,152.9,140.2z M151,139.1c0,0-0.1,0-0.1,0l-0.5-0.3
			c-0.1-0.1-0.2-0.2-0.1-0.4c0.1-0.1,0.2-0.2,0.4-0.1l0.5,0.3c0.1,0.1,0.2,0.2,0.1,0.4C151.2,139.1,151.1,139.1,151,139.1z
			 M149.2,138.1c0,0-0.1,0-0.1,0l-0.5-0.3c-0.1-0.1-0.2-0.2-0.1-0.4c0.1-0.1,0.2-0.2,0.4-0.1l0.5,0.3c0.1,0.1,0.2,0.2,0.1,0.4
			C149.4,138,149.3,138.1,149.2,138.1z M147.3,137c0,0-0.1,0-0.1,0l-0.5-0.3c-0.1-0.1-0.2-0.2-0.1-0.4c0.1-0.1,0.2-0.2,0.4-0.1
			l0.5,0.3c0.1,0.1,0.2,0.2,0.1,0.4C147.5,137,147.4,137,147.3,137z M145.5,136c0,0-0.1,0-0.1,0l-0.5-0.3c-0.1-0.1-0.2-0.2-0.1-0.4
			c0.1-0.1,0.2-0.2,0.4-0.1l0.5,0.3c0.1,0.1,0.2,0.2,0.1,0.4C145.7,135.9,145.6,136,145.5,136z M143.6,134.9c0,0-0.1,0-0.1,0
			l-0.5-0.3c-0.1-0.1-0.2-0.2-0.1-0.4c0.1-0.1,0.2-0.2,0.4-0.1l0.5,0.3c0.1,0.1,0.2,0.2,0.1,0.4
			C143.8,134.8,143.7,134.9,143.6,134.9z M141.8,133.8c0,0-0.1,0-0.1,0l-0.5-0.3c-0.1-0.1-0.2-0.2-0.1-0.4c0.1-0.1,0.2-0.2,0.4-0.1
			l0.5,0.3c0.1,0.1,0.2,0.2,0.1,0.4C142,133.8,141.9,133.8,141.8,133.8z M140,132.8c0,0-0.1,0-0.1,0l-0.5-0.3
			c-0.1-0.1-0.2-0.2-0.1-0.4c0.1-0.1,0.2-0.2,0.4-0.1l0.5,0.3c0.1,0.1,0.2,0.2,0.1,0.4C140.1,132.7,140.1,132.8,140,132.8z
			 M138.1,131.7c0,0-0.1,0-0.1,0l-0.5-0.3c-0.1-0.1-0.2-0.2-0.1-0.4c0.1-0.1,0.2-0.2,0.4-0.1l0.5,0.3c0.1,0.1,0.2,0.2,0.1,0.4
			C138.3,131.7,138.2,131.7,138.1,131.7z M136.3,130.6c0,0-0.1,0-0.1,0l-0.5-0.3c-0.1-0.1-0.2-0.2-0.1-0.4c0.1-0.1,0.2-0.2,0.4-0.1
			l0.5,0.3c0.1,0.1,0.2,0.2,0.1,0.4C136.5,130.6,136.4,130.6,136.3,130.6z M134.4,129.6c0,0-0.1,0-0.1,0l-0.5-0.3
			c-0.1-0.1-0.2-0.2-0.1-0.4c0.1-0.1,0.2-0.2,0.4-0.1l0.5,0.3c0.1,0.1,0.2,0.2,0.1,0.4C134.6,129.5,134.5,129.6,134.4,129.6z
			 M132.6,128.5c0,0-0.1,0-0.1,0l-0.5-0.3c-0.1-0.1-0.2-0.2-0.1-0.4c0.1-0.1,0.2-0.2,0.4-0.1l0.5,0.3c0.1,0.1,0.2,0.2,0.1,0.4
			C132.8,128.5,132.7,128.5,132.6,128.5z M130.8,127.4c0,0-0.1,0-0.1,0l-0.5-0.3c-0.1-0.1-0.2-0.2-0.1-0.4c0.1-0.1,0.2-0.2,0.4-0.1
			l0.5,0.3c0.1,0.1,0.2,0.2,0.1,0.4C130.9,127.4,130.8,127.4,130.8,127.4z M128.9,126.4c0,0-0.1,0-0.1,0l-0.5-0.3
			c-0.1-0.1-0.2-0.2-0.1-0.4c0.1-0.1,0.2-0.2,0.4-0.1l0.5,0.3c0.1,0.1,0.2,0.2,0.1,0.4C129.1,126.3,129,126.4,128.9,126.4z
			 M127.1,125.3c0,0-0.1,0-0.1,0l-0.5-0.3c-0.1-0.1-0.2-0.2-0.1-0.4c0.1-0.1,0.2-0.2,0.4-0.1l0.5,0.3c0.1,0.1,0.2,0.2,0.1,0.4
			C127.3,125.3,127.2,125.3,127.1,125.3z M125.2,124.3c0,0-0.1,0-0.1,0l-0.5-0.3c-0.1-0.1-0.2-0.2-0.1-0.4c0.1-0.1,0.2-0.2,0.4-0.1
			l0.5,0.3c0.1,0.1,0.2,0.2,0.1,0.4C125.4,124.2,125.3,124.3,125.2,124.3z M123.4,123.2c0,0-0.1,0-0.1,0l-0.5-0.3
			c-0.1-0.1-0.2-0.2-0.1-0.4c0.1-0.1,0.2-0.2,0.4-0.1l0.5,0.3c0.1,0.1,0.2,0.2,0.1,0.4C123.6,123.1,123.5,123.2,123.4,123.2z
			 M121.5,122.1c0,0-0.1,0-0.1,0l-0.5-0.3c-0.1-0.1-0.2-0.2-0.1-0.4c0.1-0.1,0.2-0.2,0.4-0.1l0.5,0.3c0.1,0.1,0.2,0.2,0.1,0.4
			C121.7,122.1,121.6,122.1,121.5,122.1z M119.7,121.1c0,0-0.1,0-0.1,0l-0.5-0.3c-0.1-0.1-0.2-0.2-0.1-0.4c0.1-0.1,0.2-0.2,0.4-0.1
			l0.5,0.3c0.1,0.1,0.2,0.2,0.1,0.4C119.9,121,119.8,121.1,119.7,121.1z M117.9,120c0,0-0.1,0-0.1,0l-0.5-0.3
			c-0.1-0.1-0.2-0.2-0.1-0.4c0.1-0.1,0.2-0.2,0.4-0.1l0.5,0.3c0.1,0.1,0.2,0.2,0.1,0.4C118,120,118,120,117.9,120z M116,118.9
			c0,0-0.1,0-0.1,0l-0.5-0.3c-0.1-0.1-0.2-0.2-0.1-0.4c0.1-0.1,0.2-0.2,0.4-0.1l0.5,0.3c0.1,0.1,0.2,0.2,0.1,0.4
			C116.2,118.9,116.1,118.9,116,118.9z M114.2,117.9c0,0-0.1,0-0.1,0l-0.5-0.3c-0.1-0.1-0.2-0.2-0.1-0.4c0.1-0.1,0.2-0.2,0.4-0.1
			l0.5,0.3c0.1,0.1,0.2,0.2,0.1,0.4C114.4,117.8,114.3,117.9,114.2,117.9z M112.3,116.8c0,0-0.1,0-0.1,0l-0.5-0.3
			c-0.1-0.1-0.2-0.2-0.1-0.4c0.1-0.1,0.2-0.2,0.4-0.1l0.5,0.3c0.1,0.1,0.2,0.2,0.1,0.4C112.5,116.8,112.4,116.8,112.3,116.8z
			 M110.5,115.7c0,0-0.1,0-0.1,0l-0.5-0.3c-0.1-0.1-0.2-0.2-0.1-0.4c0.1-0.1,0.2-0.2,0.4-0.1l0.5,0.3c0.1,0.1,0.2,0.2,0.1,0.4
			C110.7,115.7,110.6,115.7,110.5,115.7z M108.7,114.7c0,0-0.1,0-0.1,0l-0.5-0.3c-0.1-0.1-0.2-0.2-0.1-0.4c0.1-0.1,0.2-0.2,0.4-0.1
			l0.5,0.3c0.1,0.1,0.2,0.2,0.1,0.4C108.8,114.6,108.7,114.7,108.7,114.7z M106.8,113.6c0,0-0.1,0-0.1,0l-0.5-0.3
			c-0.1-0.1-0.2-0.2-0.1-0.4c0.1-0.1,0.2-0.2,0.4-0.1l0.5,0.3c0.1,0.1,0.2,0.2,0.1,0.4C107,113.6,106.9,113.6,106.8,113.6z
			 M105,112.6c0,0-0.1,0-0.1,0l-0.5-0.3c-0.1-0.1-0.2-0.2-0.1-0.4c0.1-0.1,0.2-0.2,0.4-0.1l0.5,0.3c0.1,0.1,0.2,0.2,0.1,0.4
			C105.2,112.5,105.1,112.6,105,112.6z M103.1,111.5c0,0-0.1,0-0.1,0l-0.2-0.1c0,0-0.1-0.1-0.3-0.1c-0.1-0.1-0.2-0.2-0.1-0.4
			c0.1-0.1,0.2-0.2,0.4-0.1c0.2,0.1,0.3,0.2,0.3,0.2l0.2,0.1c0.1,0.1,0.2,0.2,0.1,0.4C103.3,111.4,103.2,111.5,103.1,111.5z
			 M101.2,110.6C101.2,110.6,101.2,110.6,101.2,110.6c-0.2-0.1-0.4-0.1-0.6-0.2c-0.1,0-0.2-0.2-0.2-0.3c0-0.1,0.2-0.2,0.3-0.2
			c0.2,0.1,0.4,0.1,0.5,0.2c0.1,0,0.2,0.2,0.2,0.3C101.4,110.5,101.3,110.6,101.2,110.6z M98.6,110.1c-0.1,0-0.3-0.1-0.3-0.2
			c0-0.1,0.1-0.3,0.2-0.3c0.1,0,0.3,0,0.4,0c0.1,0,0.1,0,0.2,0c0.1,0,0.3,0.1,0.3,0.3c0,0.1-0.1,0.3-0.3,0.3c-0.1,0-0.1,0-0.2,0
			C98.8,110.1,98.7,110.1,98.6,110.1C98.6,110.1,98.6,110.1,98.6,110.1z"/>
	</g>
	<path class="st0" d="M120.1,201.7l-2,1.2c0.5,0.3,1,0.3,1.4,0.1C119.9,202.7,120.1,202.3,120.1,201.7L120.1,201.7z"/>
	<path class="st10" d="M115.6,180.3l16.6-9.6l2.5,1.4c1.3,0.7,2,2,2,3.5v16.5c0,0.6-0.2,1-0.6,1.2l-16.6,9.6
		c0.4-0.2,0.6-0.6,0.6-1.2v-16.5c0-1.5-0.7-2.8-2-3.5L115.6,180.3z"/>
	<path class="st10" d="M134.6,172.1c-3.4-1.9-6.8-3.9-10.2-5.9c-3.4-1.9-6.7-3.9-10.1-5.8c-4.2-2.4-11.4-2.3-15.9,0.4l0,0
		c-4.5,2.6-4.8,6.8-0.6,9.2c3.4,1.9,6.8,3.9,10.1,5.8c3.4,1.9,6.8,3.9,10.2,5.9C123.6,178.5,129.1,175.3,134.6,172.1L134.6,172.1z"
		/>
	<g>
		<path class="st9" d="M121.9,199.4c-0.1,0-0.3-0.1-0.3-0.3v-0.5c0-0.1,0.1-0.3,0.3-0.3s0.3,0.1,0.3,0.3v0.5
			C122.1,199.2,122,199.4,121.9,199.4z M121.9,197.2c-0.1,0-0.3-0.1-0.3-0.3v-0.5c0-0.1,0.1-0.3,0.3-0.3s0.3,0.1,0.3,0.3v0.5
			C122.1,197.1,122,197.2,121.9,197.2z M121.9,195.1c-0.1,0-0.3-0.1-0.3-0.3v-0.5c0-0.1,0.1-0.3,0.3-0.3s0.3,0.1,0.3,0.3v0.5
			C122.1,195,122,195.1,121.9,195.1z M134.9,193.5c-0.1,0-0.3-0.1-0.3-0.3v-0.5c0-0.1,0.1-0.3,0.3-0.3c0.1,0,0.3,0.1,0.3,0.3v0.5
			C135.1,193.3,135,193.5,134.9,193.5z M121.9,193c-0.1,0-0.3-0.1-0.3-0.3v-0.5c0-0.1,0.1-0.3,0.3-0.3s0.3,0.1,0.3,0.3v0.5
			C122.1,192.9,122,193,121.9,193z M134.9,191.3c-0.1,0-0.3-0.1-0.3-0.3v-0.5c0-0.1,0.1-0.3,0.3-0.3c0.1,0,0.3,0.1,0.3,0.3v0.5
			C135.1,191.2,135,191.3,134.9,191.3z M121.9,190.8c-0.1,0-0.3-0.1-0.3-0.3V190c0-0.1,0.1-0.3,0.3-0.3s0.3,0.1,0.3,0.3v0.5
			C122.1,190.7,122,190.8,121.9,190.8z M134.9,189.2c-0.1,0-0.3-0.1-0.3-0.3v-0.5c0-0.1,0.1-0.3,0.3-0.3c0.1,0,0.3,0.1,0.3,0.3v0.5
			C135.1,189.1,135,189.2,134.9,189.2z M121.9,188.7c-0.1,0-0.3-0.1-0.3-0.3v-0.5c0-0.1,0.1-0.3,0.3-0.3s0.3,0.1,0.3,0.3v0.5
			C122.1,188.6,122,188.7,121.9,188.7z M134.9,187.1c-0.1,0-0.3-0.1-0.3-0.3v-0.5c0-0.1,0.1-0.3,0.3-0.3c0.1,0,0.3,0.1,0.3,0.3v0.5
			C135.1,187,135,187.1,134.9,187.1z M121.9,186.6c-0.1,0-0.3-0.1-0.3-0.3v-0.5c0-0.1,0.1-0.3,0.3-0.3s0.3,0.1,0.3,0.3v0.5
			C122.1,186.5,122,186.6,121.9,186.6z M134.9,185c-0.1,0-0.3-0.1-0.3-0.3v-0.5c0-0.1,0.1-0.3,0.3-0.3c0.1,0,0.3,0.1,0.3,0.3v0.5
			C135.1,184.8,135,185,134.9,185z M121.9,184.5c-0.1,0-0.3-0.1-0.3-0.3v-0.1c0-0.1,0-0.3,0-0.4c0-0.1,0.1-0.3,0.2-0.3
			c0.2,0,0.3,0.1,0.3,0.2c0,0.2,0,0.3,0,0.5v0.1C122.1,184.3,122,184.5,121.9,184.5z M134.9,182.8c-0.1,0-0.3-0.1-0.3-0.3V182
			c0-0.1,0.1-0.3,0.3-0.3c0.1,0,0.3,0.1,0.3,0.3v0.5C135.1,182.7,135,182.8,134.9,182.8z M121.4,182.4c-0.1,0-0.2,0-0.2-0.1
			c-0.1-0.1-0.2-0.3-0.3-0.4c-0.1-0.1-0.1-0.3,0.1-0.4c0.1-0.1,0.3-0.1,0.4,0.1c0.1,0.2,0.2,0.3,0.3,0.5c0.1,0.1,0,0.3-0.1,0.4
			C121.4,182.4,121.4,182.4,121.4,182.4z M119.9,180.9c0,0-0.1,0-0.1,0l-0.5-0.3c-0.1-0.1-0.2-0.2-0.1-0.4c0.1-0.1,0.2-0.2,0.4-0.1
			l0.4,0.2c0.1,0.1,0.2,0.2,0.1,0.4C120,180.9,120,180.9,119.9,180.9z M134.9,180.7c-0.1,0-0.3-0.1-0.3-0.3v-0.5
			c0-0.1,0.1-0.3,0.3-0.3c0.1,0,0.3,0.1,0.3,0.3v0.5C135.1,180.6,135,180.7,134.9,180.7z M118.1,179.9c0,0-0.1,0-0.1,0l-0.5-0.3
			c-0.1-0.1-0.2-0.2-0.1-0.4c0.1-0.1,0.2-0.2,0.4-0.1l0.5,0.3c0.1,0.1,0.2,0.2,0.1,0.4C118.2,179.8,118.1,179.9,118.1,179.9z
			 M116.2,178.8c0,0-0.1,0-0.1,0l-0.5-0.3c-0.1-0.1-0.2-0.2-0.1-0.4c0.1-0.1,0.2-0.2,0.4-0.1l0.5,0.3c0.1,0.1,0.2,0.2,0.1,0.4
			C116.4,178.7,116.3,178.8,116.2,178.8z M134.9,178.6c-0.1,0-0.3-0.1-0.3-0.3v-0.5c0-0.1,0.1-0.3,0.3-0.3c0.1,0,0.3,0.1,0.3,0.3
			v0.5C135.1,178.5,135,178.6,134.9,178.6z M114.4,177.7c0,0-0.1,0-0.1,0l-0.5-0.3c-0.1-0.1-0.2-0.2-0.1-0.4
			c0.1-0.1,0.2-0.2,0.4-0.1l0.5,0.3c0.1,0.1,0.2,0.2,0.1,0.4C114.5,177.7,114.5,177.7,114.4,177.7z M112.5,176.7c0,0-0.1,0-0.1,0
			l-0.5-0.3c-0.1-0.1-0.2-0.2-0.1-0.4c0.1-0.1,0.2-0.2,0.4-0.1l0.5,0.3c0.1,0.1,0.2,0.2,0.1,0.4
			C112.7,176.6,112.6,176.7,112.5,176.7z M134.8,176.4c-0.1,0-0.2-0.1-0.3-0.2c0-0.2,0-0.3-0.1-0.5c0-0.1,0.1-0.3,0.2-0.3
			c0.1,0,0.3,0.1,0.3,0.2c0,0.2,0.1,0.4,0.1,0.6C135.1,176.3,135,176.4,134.8,176.4C134.9,176.4,134.8,176.4,134.8,176.4z
			 M110.7,175.6c0,0-0.1,0-0.1,0l-0.5-0.3c-0.1-0.1-0.2-0.2-0.1-0.4c0.1-0.1,0.2-0.2,0.4-0.1l0.5,0.3c0.1,0.1,0.2,0.2,0.1,0.4
			C110.9,175.6,110.8,175.6,110.7,175.6z M108.8,174.5c0,0-0.1,0-0.1,0l-0.5-0.3c-0.1-0.1-0.2-0.2-0.1-0.4c0.1-0.1,0.2-0.2,0.4-0.1
			l0.5,0.3c0.1,0.1,0.2,0.2,0.1,0.4C109,174.5,108.9,174.5,108.8,174.5z M134.1,174.5c-0.1,0-0.2,0-0.2-0.1
			c-0.1-0.1-0.2-0.3-0.3-0.4c-0.1-0.1-0.1-0.3,0-0.4c0.1-0.1,0.3-0.1,0.4,0c0.1,0.1,0.3,0.3,0.4,0.4c0.1,0.1,0.1,0.3-0.1,0.4
			C134.2,174.5,134.1,174.5,134.1,174.5z M107,173.5c0,0-0.1,0-0.1,0l-0.5-0.3c-0.1-0.1-0.2-0.2-0.1-0.4c0.1-0.1,0.2-0.2,0.4-0.1
			l0.5,0.3c0.1,0.1,0.2,0.2,0.1,0.4C107.2,173.4,107.1,173.5,107,173.5z M132.4,173.2c0,0-0.1,0-0.1,0l-0.5-0.3
			c-0.1-0.1-0.2-0.2-0.1-0.4c0.1-0.1,0.2-0.2,0.4-0.1l0.5,0.3c0.1,0.1,0.2,0.2,0.1,0.4C132.6,173.1,132.5,173.2,132.4,173.2z
			 M105.2,172.4c0,0-0.1,0-0.1,0l-0.5-0.3c-0.1-0.1-0.2-0.2-0.1-0.4c0.1-0.1,0.2-0.2,0.4-0.1l0.5,0.3c0.1,0.1,0.2,0.2,0.1,0.4
			C105.3,172.4,105.2,172.4,105.2,172.4z M130.6,172.1c0,0-0.1,0-0.1,0l-0.5-0.3c-0.1-0.1-0.2-0.2-0.1-0.4c0.1-0.1,0.2-0.2,0.4-0.1
			l0.5,0.3c0.1,0.1,0.2,0.2,0.1,0.4C130.8,172.1,130.7,172.1,130.6,172.1z M103.3,171.3c0,0-0.1,0-0.1,0l-0.5-0.3
			c-0.1-0.1-0.2-0.2-0.1-0.4c0.1-0.1,0.2-0.2,0.4-0.1l0.5,0.3c0.1,0.1,0.2,0.2,0.1,0.4C103.5,171.3,103.4,171.3,103.3,171.3z
			 M128.7,171.1c0,0-0.1,0-0.1,0l-0.5-0.3c-0.1-0.1-0.2-0.2-0.1-0.4c0.1-0.1,0.2-0.2,0.4-0.1l0.5,0.3c0.1,0.1,0.2,0.2,0.1,0.4
			C128.9,171,128.8,171.1,128.7,171.1z M101.5,170.3c0,0-0.1,0-0.1,0l-0.5-0.3c-0.1-0.1-0.2-0.2-0.1-0.4c0.1-0.1,0.2-0.2,0.4-0.1
			l0.5,0.3c0.1,0.1,0.2,0.2,0.1,0.4C101.7,170.2,101.6,170.3,101.5,170.3z M126.9,170c0,0-0.1,0-0.1,0l-0.5-0.3
			c-0.1-0.1-0.2-0.2-0.1-0.4c0.1-0.1,0.2-0.2,0.4-0.1l0.5,0.3c0.1,0.1,0.2,0.2,0.1,0.4C127.1,169.9,127,170,126.9,170z M99.5,169.2
			c-0.2-0.1-0.3-0.2-0.5-0.3c-0.1-0.1-0.2-0.2-0.1-0.4c0.1-0.1,0.2-0.2,0.4-0.1c0.1,0.1,0.3,0.2,0.4,0.3L99.5,169.2z M125.1,168.9
			c0,0-0.1,0-0.1,0l-0.5-0.3c-0.1-0.1-0.2-0.2-0.1-0.4c0.1-0.1,0.2-0.2,0.4-0.1l0.5,0.3c0.1,0.1,0.2,0.2,0.1,0.4
			C125.2,168.9,125.1,168.9,125.1,168.9z M98,167.9c-0.1,0-0.2,0-0.2-0.1c-0.1-0.2-0.2-0.3-0.3-0.5c-0.1-0.1,0-0.3,0.1-0.4
			c0.1-0.1,0.3,0,0.4,0.1c0.1,0.1,0.2,0.3,0.3,0.4c0.1,0.1,0.1,0.3,0,0.4C98.1,167.9,98.1,167.9,98,167.9z M123.2,167.9
			c0,0-0.1,0-0.1,0l-0.5-0.3c-0.1-0.1-0.2-0.2-0.1-0.4c0.1-0.1,0.2-0.2,0.4-0.1l0.5,0.3c0.1,0.1,0.2,0.2,0.1,0.4
			C123.4,167.8,123.3,167.9,123.2,167.9z M121.4,166.8c0,0-0.1,0-0.1,0l-0.5-0.3c-0.1-0.1-0.2-0.2-0.1-0.4c0.1-0.1,0.2-0.2,0.4-0.1
			l0.5,0.3c0.1,0.1,0.2,0.2,0.1,0.4C121.6,166.7,121.5,166.8,121.4,166.8z M97.3,165.9c-0.1,0-0.3-0.1-0.3-0.2c0-0.2,0-0.4,0-0.6
			c0-0.1,0.2-0.2,0.3-0.2c0.1,0,0.2,0.2,0.2,0.3c0,0.1,0,0.3,0,0.4C97.5,165.7,97.4,165.9,97.3,165.9
			C97.3,165.9,97.3,165.9,97.3,165.9z M119.5,165.7c0,0-0.1,0-0.1,0l-0.5-0.3c-0.1-0.1-0.2-0.2-0.1-0.4c0.1-0.1,0.2-0.2,0.4-0.1
			l0.5,0.3c0.1,0.1,0.2,0.2,0.1,0.4C119.7,165.7,119.6,165.7,119.5,165.7z M117.7,164.7c0,0-0.1,0-0.1,0l-0.5-0.3
			c-0.1-0.1-0.2-0.2-0.1-0.4c0.1-0.1,0.2-0.2,0.4-0.1l0.5,0.3c0.1,0.1,0.2,0.2,0.1,0.4C117.9,164.6,117.8,164.7,117.7,164.7z
			 M97.9,163.9c-0.1,0-0.1,0-0.1,0c-0.1-0.1-0.2-0.2-0.1-0.4c0.1-0.1,0.2-0.3,0.3-0.4c0.1-0.1,0.3-0.1,0.4,0c0.1,0.1,0.1,0.3,0,0.4
			c-0.1,0.1-0.2,0.3-0.3,0.4C98.1,163.9,98,163.9,97.9,163.9z M115.8,163.6c0,0-0.1,0-0.1,0l-0.5-0.3c-0.1-0.1-0.2-0.2-0.1-0.4
			c0.1-0.1,0.2-0.2,0.4-0.1l0.5,0.3c0.1,0.1,0.2,0.2,0.1,0.4C116,163.6,115.9,163.6,115.8,163.6z M114,162.5c0,0-0.1,0-0.1,0
			l-0.5-0.3c-0.1-0.1-0.2-0.2-0.1-0.4c0.1-0.1,0.2-0.2,0.4-0.1l0.5,0.3c0.1,0.1,0.2,0.2,0.1,0.4C114.2,162.5,114.1,162.5,114,162.5z
			 M99.4,162.4c-0.1,0-0.2,0-0.2-0.1c-0.1-0.1-0.1-0.3,0.1-0.4c0.1-0.1,0.3-0.2,0.5-0.3c0.1-0.1,0.3,0,0.4,0.1
			c0.1,0.1,0,0.3-0.1,0.4c-0.1,0.1-0.3,0.2-0.4,0.3C99.5,162.4,99.5,162.4,99.4,162.4z M112.2,161.5c0,0-0.1,0-0.1,0
			c-0.2-0.1-0.3-0.1-0.5-0.2c-0.1-0.1-0.2-0.2-0.1-0.3c0.1-0.1,0.2-0.2,0.3-0.1c0.2,0.1,0.3,0.1,0.5,0.2c0.1,0.1,0.2,0.2,0.1,0.4
			C112.3,161.4,112.3,161.5,112.2,161.5z M101.3,161.4c-0.1,0-0.2-0.1-0.2-0.2c-0.1-0.1,0-0.3,0.1-0.3c0.2-0.1,0.3-0.1,0.5-0.2
			c0.1,0,0.3,0,0.3,0.2c0.1,0.1,0,0.3-0.2,0.3c-0.2,0.1-0.3,0.1-0.5,0.2C101.4,161.4,101.3,161.4,101.3,161.4z M110.2,160.8
			C110.1,160.8,110.1,160.8,110.2,160.8c-0.2,0-0.4-0.1-0.6-0.1c-0.1,0-0.2-0.2-0.2-0.3c0-0.1,0.2-0.2,0.3-0.2
			c0.2,0,0.4,0.1,0.5,0.1c0.1,0,0.2,0.2,0.2,0.3C110.4,160.7,110.3,160.8,110.2,160.8z M103.3,160.8c-0.1,0-0.2-0.1-0.3-0.2
			c0-0.1,0.1-0.3,0.2-0.3c0.2,0,0.4-0.1,0.5-0.1c0.1,0,0.3,0.1,0.3,0.2c0,0.1-0.1,0.3-0.2,0.3C103.7,160.7,103.5,160.7,103.3,160.8
			C103.3,160.8,103.3,160.8,103.3,160.8z M105.4,160.4c-0.1,0-0.3-0.1-0.3-0.2c0-0.1,0.1-0.3,0.2-0.3c0.2,0,0.4,0,0.5,0
			c0.2,0,0.3,0.1,0.3,0.3c0,0.1-0.1,0.3-0.3,0.3C105.8,160.4,105.6,160.4,105.4,160.4C105.4,160.4,105.4,160.4,105.4,160.4z
			 M108.1,160.4C108.1,160.4,108,160.4,108.1,160.4c-0.2,0-0.4,0-0.5,0c-0.1,0-0.3-0.1-0.3-0.3c0-0.1,0.1-0.3,0.3-0.3
			c0.2,0,0.4,0,0.5,0c0.1,0,0.3,0.1,0.2,0.3C108.3,160.3,108.2,160.4,108.1,160.4z"/>
	</g>
	<path class="st0" d="M109.6,163.3c1.7,1,1.6,2.7-0.3,3.7c-1.9,1.1-4.7,1.1-6.5,0.2c-1.7-1-1.6-2.7,0.2-3.8
		C104.9,162.4,107.9,162.3,109.6,163.3L109.6,163.3z"/>
	<path class="st1" d="M109.5,162.6c1.7,1,1.6,2.6-0.3,3.6c-1.8,1-4.7,1.1-6.4,0.1c-1.7-1-1.6-2.6,0.2-3.6
		C104.9,161.7,107.8,161.7,109.5,162.6L109.5,162.6z"/>
</g>
<g>
	<polygon class="st11" points="189.6,45.9 199.7,74.1 209.8,102.3 190.3,107.1 169.5,125.5 179.6,85.7 189.6,45.9 187.3,55.2 
		116.2,14.1 118.6,4.9 	"/>
	<polygon class="st12" points="187.3,55.2 169.5,125.5 98.4,84.5 116.2,14.1 	"/>
	<polygon class="st13" points="176.1,99.3 169.5,125.5 190.3,107.1 	"/>
	<polygon class="st14" points="209.8,102.3 179.6,85.7 176.1,99.3 190.3,107.1 	"/>
	<polygon class="st15" points="189.6,45.9 179.6,85.7 209.8,102.3 	"/>
	<g>
		<path class="st16" d="M172.8,52.2c-0.1,0-0.2,0-0.3-0.1l-43.9-25.3c-0.3-0.1-0.3-0.5-0.2-0.7c0.1-0.3,0.5-0.3,0.7-0.2l43.9,25.3
			c0.3,0.1,0.3,0.5,0.2,0.7C173.2,52.1,173,52.2,172.8,52.2z"/>
	</g>
	<g>
		<path class="st16" d="M165.5,52.4c-0.1,0-0.2,0-0.3-0.1L134,34.3c-0.3-0.1-0.3-0.5-0.2-0.7c0.1-0.3,0.5-0.3,0.7-0.2l31.3,18.1
			c0.3,0.1,0.3,0.5,0.2,0.7C165.9,52.3,165.7,52.4,165.5,52.4z"/>
	</g>
	<g>
		<defs>
			<polygon id="SVGID_1_" points="123.6,17.1 117.7,13.7 120.8,1.3 129.1,6.1 128.4,8.9 128.1,10.3 125.3,8.8 124.5,11.9 
				127.2,13.5 126,18.5 			"/>
		</defs>
		<clipPath id="SVGID_2_">
			<use xlink:href="#SVGID_1_"  style="overflow:visible;"/>
		</clipPath>
		<path class="st17" d="M124,11.6c0.6,0.3,1.5,0.9,2.1,1.2c-0.2,0.9-0.4,1.5-0.6,2.4c-0.6-0.3-1.5-0.9-2.1-1.2
			C123.6,13.1,123.8,12.5,124,11.6L124,11.6z"/>
		<g class="st18">
			<path class="st19" d="M122.2,14.8c-0.4,0-0.7-0.1-1-0.3c-0.7-0.4-1.1-1.3-1.1-2.5c0-1.1,0.4-2.4,1.1-3.6c0.7-1.2,1.6-2.2,2.6-2.7
				c1-0.6,2-0.7,2.7-0.3c0.7,0.4,1.1,1.3,1.1,2.5c0,1.1-0.4,2.4-1.1,3.6c-0.7,1.2-1.6,2.2-2.6,2.7C123.3,14.6,122.7,14.8,122.2,14.8
				z M125.4,5.5c-0.5,0-1,0.2-1.5,0.5c-0.9,0.5-1.8,1.5-2.5,2.6c-0.7,1.1-1,2.4-1,3.4c0,1,0.3,1.8,1,2.2c0.6,0.4,1.5,0.3,2.4-0.3
				c0.9-0.5,1.8-1.5,2.5-2.6c0.7-1.1,1-2.4,1-3.4c0-1-0.3-1.8-1-2.2C126,5.6,125.7,5.5,125.4,5.5z"/>
		</g>
		<g class="st18">
			<path class="st19" d="M121.4,14.3c-0.4,0-0.7-0.1-1-0.3c-0.7-0.4-1.1-1.3-1.1-2.5c0-1.1,0.4-2.4,1.1-3.6c0.7-1.2,1.6-2.2,2.6-2.7
				c1-0.6,2-0.7,2.7-0.3c0.7,0.4,1.1,1.3,1.1,2.5c0,1.1-0.4,2.4-1.1,3.6c-0.7,1.2-1.6,2.2-2.6,2.7C122.5,14.2,121.9,14.3,121.4,14.3
				z M124.6,5.1c-0.5,0-1,0.2-1.5,0.5c-0.9,0.5-1.8,1.5-2.5,2.6c-0.7,1.1-1,2.4-1,3.4c0,1,0.3,1.8,1,2.2c0.6,0.4,1.5,0.3,2.4-0.3
				c0.9-0.5,1.8-1.5,2.5-2.6c0.7-1.1,1-2.4,1-3.4c0-1-0.3-1.8-1-2.2C125.2,5.2,124.9,5.1,124.6,5.1z"/>
		</g>
	</g>
	<g>
		<defs>
			<polygon id="SVGID_3_" points="127.6,19.4 121.6,15.9 124.7,3.5 133,8.3 132.3,11.2 132,12.6 129.2,11 128.4,14.2 131.2,15.7 
				129.9,20.7 			"/>
		</defs>
		<clipPath id="SVGID_4_">
			<use xlink:href="#SVGID_3_"  style="overflow:visible;"/>
		</clipPath>
		<path class="st20" d="M127.9,13.9c0.6,0.3,1.5,0.9,2.1,1.2c-0.2,0.9-0.4,1.5-0.6,2.4c-0.6-0.3-1.5-0.9-2.1-1.2
			C127.6,15.4,127.7,14.7,127.9,13.9L127.9,13.9z"/>
		<g class="st21">
			<path class="st19" d="M126.1,17.1c-0.4,0-0.7-0.1-1-0.3c-0.7-0.4-1.1-1.3-1.1-2.5c0-1.1,0.4-2.4,1.1-3.6c0.7-1.2,1.6-2.2,2.6-2.7
				c1-0.6,2-0.7,2.7-0.3c0.7,0.4,1.1,1.3,1.1,2.5c0,1.1-0.4,2.4-1.1,3.6c-0.7,1.2-1.6,2.2-2.6,2.7C127.2,16.9,126.6,17.1,126.1,17.1
				z M129.3,7.8c-0.5,0-1,0.2-1.5,0.5c-0.9,0.5-1.8,1.5-2.5,2.6c-0.7,1.1-1,2.4-1,3.4c0,1,0.3,1.8,1,2.2c0.6,0.4,1.5,0.3,2.4-0.3
				c0.9-0.5,1.8-1.5,2.5-2.6c0.7-1.1,1-2.4,1-3.4c0-1-0.3-1.8-1-2.2C129.9,7.9,129.6,7.8,129.3,7.8z"/>
		</g>
		<g class="st21">
			<path class="st19" d="M125.3,16.6c-0.4,0-0.7-0.1-1-0.3c-0.7-0.4-1.1-1.3-1.1-2.5c0-1.1,0.4-2.4,1.1-3.6c0.7-1.2,1.6-2.2,2.6-2.7
				c1-0.6,2-0.7,2.7-0.3c0.7,0.4,1.1,1.3,1.1,2.5c0,1.1-0.4,2.4-1.1,3.6c-0.7,1.2-1.6,2.2-2.6,2.7C126.4,16.4,125.8,16.6,125.3,16.6
				z M128.5,7.3c-0.5,0-1,0.2-1.5,0.5c-0.9,0.5-1.8,1.5-2.5,2.6c-0.7,1.1-1,2.4-1,3.4c0,1,0.3,1.8,1,2.2c0.6,0.4,1.5,0.3,2.4-0.3
				c0.9-0.5,1.8-1.5,2.5-2.6c0.7-1.1,1-2.4,1-3.4c0-1-0.3-1.8-1-2.2C129.1,7.4,128.8,7.3,128.5,7.3z"/>
		</g>
	</g>
	<g>
		<defs>
			<polygon id="SVGID_5_" points="131.5,21.6 125.5,18.2 128.7,5.8 136.9,10.6 136.2,13.5 135.9,14.9 133.1,13.3 132.3,16.4 
				135.1,18 133.8,23 131.5,21.6 			"/>
		</defs>
		<clipPath id="SVGID_6_">
			<use xlink:href="#SVGID_5_"  style="overflow:visible;"/>
		</clipPath>
		<path class="st22" d="M131.9,16.1c0.6,0.3,1.5,0.9,2.1,1.2c-0.2,0.9-0.4,1.5-0.6,2.4c-0.6-0.3-1.5-0.9-2.1-1.2
			C131.5,17.7,131.6,17,131.9,16.1L131.9,16.1z"/>
		<g class="st23">
			<path class="st19" d="M130,19.3c-0.4,0-0.7-0.1-1-0.3c-0.7-0.4-1.1-1.3-1.1-2.5c0-1.1,0.4-2.4,1.1-3.6c0.7-1.2,1.6-2.2,2.6-2.7
				c1-0.6,2-0.7,2.7-0.3c0.7,0.4,1.1,1.3,1.1,2.5c0,1.1-0.4,2.4-1.1,3.6c-0.7,1.2-1.6,2.2-2.6,2.7C131.1,19.1,130.5,19.3,130,19.3z
				 M133.2,10.1c-0.5,0-1,0.2-1.5,0.5c-0.9,0.5-1.8,1.5-2.5,2.6c-0.7,1.1-1,2.4-1,3.4c0,1,0.3,1.8,1,2.2c0.6,0.4,1.5,0.3,2.4-0.3
				c0.9-0.5,1.8-1.5,2.5-2.6c0.7-1.1,1-2.4,1-3.4c0-1-0.3-1.8-1-2.2C133.8,10.1,133.5,10.1,133.2,10.1z"/>
		</g>
		<g class="st23">
			<path class="st19" d="M129.2,18.8c-0.4,0-0.7-0.1-1-0.3c-0.7-0.4-1.1-1.3-1.1-2.5c0-1.1,0.4-2.4,1.1-3.6c0.7-1.2,1.6-2.2,2.6-2.7
				c1-0.6,2-0.7,2.7-0.3c0.7,0.4,1.1,1.3,1.1,2.5c0,1.1-0.4,2.4-1.1,3.6c-0.7,1.2-1.6,2.2-2.6,2.7C130.3,18.7,129.7,18.8,129.2,18.8
				z M132.4,9.6c-0.5,0-1,0.2-1.5,0.5c-0.9,0.5-1.8,1.5-2.5,2.6c-0.7,1.1-1,2.4-1,3.4c0,1,0.3,1.8,1,2.2c0.6,0.4,1.5,0.3,2.4-0.3
				c0.9-0.5,1.8-1.5,2.5-2.6c0.7-1.1,1-2.4,1-3.4c0-1-0.3-1.8-1-2.2C133,9.7,132.7,9.6,132.4,9.6z"/>
		</g>
	</g>
	<g>
		<defs>
			<polygon id="SVGID_7_" points="135.4,23.9 129.4,20.4 132.6,8 140.9,12.8 140.1,15.7 139.8,17.1 137.1,15.5 136.2,18.7 139,20.2 
				137.7,25.2 			"/>
		</defs>
		<clipPath id="SVGID_8_">
			<use xlink:href="#SVGID_7_"  style="overflow:visible;"/>
		</clipPath>
		<path class="st24" d="M135.8,18.4c0.6,0.3,1.5,0.9,2.1,1.2c-0.2,0.9-0.4,1.5-0.6,2.4c-0.6-0.3-1.5-0.9-2.1-1.2
			C135.4,19.9,135.5,19.3,135.8,18.4L135.8,18.4z"/>
		<g class="st25">
			<path class="st19" d="M133.9,21.6c-0.4,0-0.7-0.1-1-0.3c-0.7-0.4-1.1-1.3-1.1-2.5c0-1.1,0.4-2.4,1.1-3.6c0.7-1.2,1.6-2.2,2.6-2.7
				c1-0.6,2-0.7,2.7-0.3c0.7,0.4,1.1,1.3,1.1,2.5c0,1.1-0.4,2.4-1.1,3.6c-0.7,1.2-1.6,2.2-2.6,2.7C135,21.4,134.4,21.6,133.9,21.6z
				 M137.1,12.3c-0.5,0-1,0.2-1.5,0.5c-0.9,0.5-1.8,1.5-2.5,2.6c-0.7,1.1-1,2.4-1,3.4c0,1,0.3,1.8,1,2.2c0.6,0.4,1.5,0.3,2.4-0.3
				c0.9-0.5,1.8-1.5,2.5-2.6c0.7-1.1,1-2.4,1-3.4c0-1-0.3-1.8-1-2.2C137.7,12.4,137.4,12.3,137.1,12.3z"/>
		</g>
		<g class="st25">
			<path class="st19" d="M133.1,21.1c-0.4,0-0.7-0.1-1-0.3c-0.7-0.4-1.1-1.3-1.1-2.5c0-1.1,0.4-2.4,1.1-3.6c0.7-1.2,1.6-2.2,2.6-2.7
				c1-0.6,2-0.7,2.7-0.3c0.7,0.4,1.1,1.3,1.1,2.5c0,1.1-0.4,2.4-1.1,3.6c-0.7,1.2-1.6,2.2-2.6,2.7C134.2,20.9,133.7,21.1,133.1,21.1
				z M136.3,11.9c-0.5,0-1,0.2-1.5,0.5c-0.9,0.5-1.8,1.5-2.5,2.6c-0.7,1.1-1,2.4-1,3.4c0,1,0.3,1.8,1,2.2c0.6,0.4,1.5,0.3,2.4-0.3
				c0.9-0.5,1.8-1.5,2.5-2.6c0.7-1.1,1-2.4,1-3.4c0-1-0.3-1.8-1-2.2C136.9,11.9,136.6,11.9,136.3,11.9z"/>
		</g>
	</g>
	<g>
		<defs>
			<polygon id="SVGID_9_" points="139.3,26.1 133.3,22.7 136.5,10.3 144.8,15.1 144,18 143.7,19.4 141,17.8 140.2,20.9 142.9,22.5 
				141.6,27.5 			"/>
		</defs>
		<clipPath id="SVGID_10_">
			<use xlink:href="#SVGID_9_"  style="overflow:visible;"/>
		</clipPath>
		<path class="st26" d="M139.7,20.6c0.6,0.3,1.5,0.9,2.1,1.2c-0.2,0.9-0.4,1.5-0.6,2.4c-0.6-0.3-1.5-0.9-2.1-1.2
			C139.3,22.2,139.4,21.5,139.7,20.6L139.7,20.6z"/>
		<g class="st27">
			<path class="st19" d="M137.8,23.8c-0.4,0-0.7-0.1-1-0.3c-0.7-0.4-1.1-1.3-1.1-2.5c0-1.1,0.4-2.4,1.1-3.6c0.7-1.2,1.6-2.2,2.6-2.7
				c1-0.6,2-0.7,2.7-0.3c0.7,0.4,1.1,1.3,1.1,2.5c0,1.1-0.4,2.4-1.1,3.6c-0.7,1.2-1.6,2.2-2.6,2.7C138.9,23.7,138.3,23.8,137.8,23.8
				z M141,14.6c-0.5,0-1,0.2-1.5,0.5c-0.9,0.5-1.8,1.5-2.5,2.6c-0.7,1.1-1,2.4-1,3.4c0,1,0.3,1.8,1,2.2c0.6,0.4,1.5,0.3,2.4-0.3
				c0.9-0.5,1.8-1.5,2.5-2.6c0.7-1.1,1-2.4,1-3.4c0-1-0.3-1.8-1-2.2C141.6,14.6,141.3,14.6,141,14.6z"/>
		</g>
		<g class="st27">
			<path class="st19" d="M137,23.4c-0.4,0-0.7-0.1-1-0.3c-0.7-0.4-1.1-1.3-1.1-2.5c0-1.1,0.4-2.4,1.1-3.6c0.7-1.2,1.6-2.2,2.6-2.7
				c1-0.6,2-0.7,2.7-0.3c0.7,0.4,1.1,1.3,1.1,2.5c0,1.1-0.4,2.4-1.1,3.6c-0.7,1.2-1.6,2.2-2.6,2.7C138.1,23.2,137.6,23.4,137,23.4z
				 M140.2,14.1c-0.5,0-1,0.2-1.5,0.5c-0.9,0.5-1.8,1.5-2.5,2.6c-0.7,1.1-1,2.4-1,3.4c0,1,0.3,1.8,1,2.2c0.6,0.4,1.5,0.3,2.4-0.3
				c0.9-0.5,1.8-1.5,2.5-2.6c0.7-1.1,1-2.4,1-3.4c0-1-0.3-1.8-1-2.2C140.8,14.2,140.5,14.1,140.2,14.1z"/>
		</g>
	</g>
	<g>
		<defs>
			<polygon id="SVGID_11_" points="143.2,28.4 137.2,25 140.4,12.6 148.7,17.4 147.9,20.2 147.6,21.6 144.9,20.1 144.1,23.2 
				146.8,24.8 145.5,29.8 143.2,28.4 			"/>
		</defs>
		<clipPath id="SVGID_12_">
			<use xlink:href="#SVGID_11_"  style="overflow:visible;"/>
		</clipPath>
		<path class="st28" d="M143.6,22.9c0.6,0.3,1.5,0.9,2.1,1.2c-0.2,0.9-0.4,1.5-0.6,2.4c-0.6-0.3-1.5-0.9-2.1-1.2
			C143.2,24.4,143.4,23.8,143.6,22.9L143.6,22.9z"/>
		<g class="st29">
			<path class="st19" d="M141.7,26.1c-0.4,0-0.7-0.1-1-0.3c-0.7-0.4-1.1-1.3-1.1-2.5c0-1.1,0.4-2.4,1.1-3.6c0.7-1.2,1.6-2.2,2.6-2.7
				c1-0.6,2-0.7,2.7-0.3c0.7,0.4,1.1,1.3,1.1,2.5c0,1.1-0.4,2.4-1.1,3.6c-0.7,1.2-1.6,2.2-2.6,2.7C142.8,25.9,142.2,26.1,141.7,26.1
				z M144.9,16.8c-0.5,0-1,0.2-1.5,0.5c-0.9,0.5-1.8,1.5-2.5,2.6c-0.7,1.1-1,2.4-1,3.4c0,1,0.3,1.8,1,2.2c0.6,0.4,1.5,0.3,2.4-0.3
				c0.9-0.5,1.8-1.5,2.5-2.6c0.7-1.1,1-2.4,1-3.4c0-1-0.3-1.8-1-2.2C145.5,16.9,145.2,16.8,144.9,16.8z"/>
		</g>
		<g class="st29">
			<path class="st19" d="M140.9,25.6c-0.4,0-0.7-0.1-1-0.3c-0.7-0.4-1.1-1.3-1.1-2.5c0-1.1,0.4-2.4,1.1-3.6c0.7-1.2,1.6-2.2,2.6-2.7
				c1-0.6,2-0.7,2.7-0.3c0.7,0.4,1.1,1.3,1.1,2.5c0,1.1-0.4,2.4-1.1,3.6c-0.7,1.2-1.6,2.2-2.6,2.7C142,25.4,141.5,25.6,140.9,25.6z
				 M144.1,16.4c-0.5,0-1,0.2-1.5,0.5c-0.9,0.5-1.8,1.5-2.5,2.6c-0.7,1.1-1,2.4-1,3.4c0,1,0.3,1.8,1,2.2c0.6,0.4,1.5,0.3,2.4-0.3
				c0.9-0.5,1.8-1.5,2.5-2.6c0.7-1.1,1-2.4,1-3.4c0-1-0.3-1.8-1-2.2C144.7,16.4,144.5,16.4,144.1,16.4z"/>
		</g>
	</g>
	<g>
		<defs>
			<polygon id="SVGID_13_" points="147.1,30.7 141.1,27.2 144.3,14.8 152.6,19.6 151.9,22.5 151.5,23.9 148.8,22.3 148,25.4 
				150.7,27 149.4,32 			"/>
		</defs>
		<clipPath id="SVGID_14_">
			<use xlink:href="#SVGID_13_"  style="overflow:visible;"/>
		</clipPath>
		<path class="st30" d="M147.5,25.2c0.6,0.3,1.5,0.9,2.1,1.2c-0.2,0.9-0.4,1.5-0.6,2.4c-0.6-0.3-1.5-0.9-2.1-1.2
			C147.1,26.7,147.3,26,147.5,25.2L147.5,25.2z"/>
		<g class="st31">
			<path class="st19" d="M145.6,28.3c-0.4,0-0.7-0.1-1-0.3c-0.7-0.4-1.1-1.3-1.1-2.5c0-1.1,0.4-2.4,1.1-3.6c0.7-1.2,1.6-2.2,2.6-2.7
				c1-0.6,2-0.7,2.7-0.3c0.7,0.4,1.1,1.3,1.1,2.5c0,1.1-0.4,2.4-1.1,3.6c-0.7,1.2-1.6,2.2-2.6,2.7C146.7,28.2,146.2,28.3,145.6,28.3
				z M148.8,19.1c-0.5,0-1,0.2-1.5,0.5c-0.9,0.5-1.8,1.5-2.5,2.6c-0.7,1.1-1,2.4-1,3.4c0,1,0.3,1.8,1,2.2c0.6,0.4,1.5,0.3,2.4-0.3
				c0.9-0.5,1.8-1.5,2.5-2.6c0.7-1.1,1-2.4,1-3.4c0-1-0.3-1.8-1-2.2C149.4,19.2,149.1,19.1,148.8,19.1z"/>
		</g>
		<g class="st31">
			<path class="st19" d="M144.8,27.9c-0.4,0-0.7-0.1-1-0.3c-0.7-0.4-1.1-1.3-1.1-2.5c0-1.1,0.4-2.4,1.1-3.6c0.7-1.2,1.6-2.2,2.6-2.7
				c1-0.6,2-0.7,2.7-0.3c0.7,0.4,1.1,1.3,1.1,2.5c0,1.1-0.4,2.4-1.1,3.6c-0.7,1.2-1.6,2.2-2.6,2.7C145.9,27.7,145.4,27.9,144.8,27.9
				z M148,18.6c-0.5,0-1,0.2-1.5,0.5c-0.9,0.5-1.8,1.5-2.5,2.6c-0.7,1.1-1,2.4-1,3.4c0,1,0.3,1.8,1,2.2c0.6,0.4,1.5,0.3,2.4-0.3
				c0.9-0.5,1.8-1.5,2.5-2.6c0.7-1.1,1-2.4,1-3.4c0-1-0.3-1.8-1-2.2C148.6,18.7,148.4,18.6,148,18.6z"/>
		</g>
	</g>
	<g>
		<defs>
			<polygon id="SVGID_15_" points="151,32.9 145.1,29.5 148.2,17.1 156.5,21.9 155.8,24.7 155.4,26.1 152.7,24.6 151.9,27.7 
				154.6,29.3 153.4,34.3 			"/>
		</defs>
		<clipPath id="SVGID_16_">
			<use xlink:href="#SVGID_15_"  style="overflow:visible;"/>
		</clipPath>
		<path class="st32" d="M151.4,27.4c0.6,0.3,1.5,0.9,2.1,1.2c-0.2,0.9-0.4,1.5-0.6,2.4c-0.6-0.3-1.5-0.9-2.1-1.2
			C151,28.9,151.2,28.3,151.4,27.4L151.4,27.4z"/>
		<g class="st33">
			<path class="st19" d="M149.5,30.6c-0.4,0-0.7-0.1-1-0.3c-0.7-0.4-1.1-1.3-1.1-2.5c0-1.1,0.4-2.4,1.1-3.6c0.7-1.2,1.6-2.2,2.6-2.7
				c1-0.6,2-0.7,2.7-0.3c0.7,0.4,1.1,1.3,1.1,2.5c0,1.1-0.4,2.4-1.1,3.6c-0.7,1.2-1.6,2.2-2.6,2.7C150.6,30.4,150.1,30.6,149.5,30.6
				z M152.7,21.3c-0.5,0-1,0.2-1.5,0.5c-0.9,0.5-1.8,1.5-2.5,2.6c-0.7,1.1-1,2.4-1,3.4c0,1,0.3,1.8,1,2.2c0.6,0.4,1.5,0.3,2.4-0.3
				c0.9-0.5,1.8-1.5,2.5-2.6c0.7-1.1,1-2.4,1-3.4c0-1-0.3-1.8-1-2.2C153.3,21.4,153,21.3,152.7,21.3z"/>
		</g>
		<g class="st33">
			<path class="st19" d="M148.8,30.1c-0.4,0-0.7-0.1-1-0.3c-0.7-0.4-1.1-1.3-1.1-2.5c0-1.1,0.4-2.4,1.1-3.6c0.7-1.2,1.6-2.2,2.6-2.7
				c1-0.6,2-0.7,2.7-0.3c0.7,0.4,1.1,1.3,1.1,2.5c0,1.1-0.4,2.4-1.1,3.6c-0.7,1.2-1.6,2.2-2.6,2.7C149.9,30,149.3,30.1,148.8,30.1z
				 M152,20.9c-0.5,0-1,0.2-1.5,0.5c-0.9,0.5-1.8,1.5-2.5,2.6c-0.7,1.1-1,2.4-1,3.4c0,1,0.3,1.8,1,2.2c0.6,0.3,1.5,0.3,2.4-0.3
				c0.9-0.5,1.8-1.5,2.5-2.6c0.7-1.1,1-2.4,1-3.4c0-1-0.3-1.8-1-2.2C152.6,21,152.3,20.9,152,20.9z"/>
		</g>
	</g>
	<g>
		<defs>
			<polygon id="SVGID_17_" points="154.9,35.2 149,31.7 152.1,19.3 160.4,24.1 159.7,27 159.3,28.4 156.6,26.8 155.8,30 158.5,31.5 
				157.3,36.5 154.9,35.2 			"/>
		</defs>
		<clipPath id="SVGID_18_">
			<use xlink:href="#SVGID_17_"  style="overflow:visible;"/>
		</clipPath>
		<path class="st34" d="M155.3,29.7c0.6,0.3,1.5,0.9,2.1,1.2c-0.2,0.9-0.4,1.5-0.6,2.4c-0.6-0.3-1.5-0.9-2.1-1.2
			C154.9,31.2,155.1,30.5,155.3,29.7L155.3,29.7z"/>
		<g class="st35">
			<path class="st19" d="M153.4,32.9c-0.4,0-0.7-0.1-1-0.3c-0.7-0.4-1.1-1.3-1.1-2.5c0-1.1,0.4-2.4,1.1-3.6c0.7-1.2,1.6-2.2,2.6-2.7
				c1-0.6,2-0.7,2.7-0.3c0.7,0.4,1.1,1.3,1.1,2.5c0,1.1-0.4,2.4-1.1,3.6c-0.7,1.2-1.6,2.2-2.6,2.7C154.5,32.7,154,32.9,153.4,32.9z
				 M156.6,23.6c-0.5,0-1,0.2-1.5,0.5c-0.9,0.5-1.8,1.5-2.5,2.6c-0.7,1.1-1,2.4-1,3.4c0,1,0.3,1.8,1,2.2c0.6,0.4,1.5,0.3,2.4-0.3
				c0.9-0.5,1.8-1.5,2.5-2.6c0.7-1.1,1-2.4,1-3.4c0-1-0.3-1.8-1-2.2C157.2,23.7,157,23.6,156.6,23.6z"/>
		</g>
		<g class="st35">
			<path class="st19" d="M152.7,32.4c-0.4,0-0.7-0.1-1-0.3c-0.7-0.4-1.1-1.3-1.1-2.5c0-1.1,0.4-2.4,1.1-3.6c0.7-1.2,1.6-2.2,2.6-2.7
				c1-0.6,2-0.7,2.7-0.3c0.7,0.4,1.1,1.3,1.1,2.5c0,1.1-0.4,2.4-1.1,3.6c-0.7,1.2-1.6,2.2-2.6,2.7C153.8,32.2,153.2,32.4,152.7,32.4
				z M155.9,23.1c-0.5,0-1,0.2-1.5,0.5c-0.9,0.5-1.8,1.5-2.5,2.6c-0.7,1.1-1,2.4-1,3.4c0,1,0.3,1.8,1,2.2c0.6,0.4,1.5,0.3,2.4-0.3
				c0.9-0.5,1.8-1.5,2.5-2.6c0.7-1.1,1-2.4,1-3.4c0-1-0.3-1.8-1-2.2C156.5,23.2,156.2,23.1,155.9,23.1z"/>
		</g>
	</g>
	<g>
		<defs>
			<polygon id="SVGID_19_" points="158.8,37.4 152.9,34 156,21.6 164.3,26.4 163.6,29.3 163.2,30.7 160.5,29.1 159.7,32.2 
				162.4,33.8 161.2,38.8 			"/>
		</defs>
		<clipPath id="SVGID_20_">
			<use xlink:href="#SVGID_19_"  style="overflow:visible;"/>
		</clipPath>
		<path class="st36" d="M159.2,31.9c0.6,0.3,1.5,0.9,2.1,1.2c-0.2,0.9-0.4,1.5-0.6,2.4c-0.6-0.3-1.5-0.9-2.1-1.2
			C158.8,33.5,159,32.8,159.2,31.9L159.2,31.9z"/>
		<g class="st37">
			<path class="st19" d="M157.4,35.1c-0.4,0-0.7-0.1-1-0.3c-0.7-0.4-1.1-1.3-1.1-2.5c0-1.1,0.4-2.4,1.1-3.6c0.7-1.2,1.6-2.2,2.6-2.7
				c1-0.6,2-0.7,2.7-0.3c0.7,0.4,1.1,1.3,1.1,2.5c0,1.1-0.4,2.4-1.1,3.6c-0.7,1.2-1.6,2.2-2.6,2.7C158.5,34.9,157.9,35.1,157.4,35.1
				z M160.6,25.9c-0.5,0-1,0.2-1.5,0.5c-0.9,0.5-1.8,1.5-2.5,2.6c-0.7,1.1-1,2.4-1,3.4c0,1,0.3,1.8,1,2.2c0.6,0.4,1.5,0.3,2.4-0.3
				c0.9-0.5,1.8-1.5,2.5-2.6c0.7-1.1,1-2.4,1-3.4c0-1-0.3-1.8-1-2.2C161.2,25.9,160.9,25.9,160.6,25.9z"/>
		</g>
		<g class="st37">
			<path class="st19" d="M156.6,34.7c-0.4,0-0.7-0.1-1-0.3c-0.7-0.4-1.1-1.3-1.1-2.5c0-1.1,0.4-2.4,1.1-3.6c0.7-1.2,1.6-2.2,2.6-2.7
				c1-0.6,2-0.7,2.7-0.3c0.7,0.4,1.1,1.3,1.1,2.5c0,1.1-0.4,2.4-1.1,3.6c-0.7,1.2-1.6,2.2-2.6,2.7C157.7,34.5,157.1,34.7,156.6,34.7
				z M159.8,25.4c-0.5,0-1,0.2-1.5,0.5c-0.9,0.5-1.8,1.5-2.5,2.6c-0.7,1.1-1,2.4-1,3.4c0,1,0.3,1.8,1,2.2c0.6,0.4,1.5,0.3,2.4-0.3
				c0.9-0.5,1.8-1.5,2.5-2.6c0.7-1.1,1-2.4,1-3.4c0-1-0.3-1.8-1-2.2C160.4,25.5,160.1,25.4,159.8,25.4z"/>
		</g>
	</g>
	<g>
		<defs>
			<polygon id="SVGID_21_" points="162.7,39.7 156.8,36.2 159.9,23.8 168.2,28.6 167.5,31.5 167.1,32.9 164.4,31.3 163.6,34.5 
				166.3,36 165.1,41 162.7,39.7 			"/>
		</defs>
		<clipPath id="SVGID_22_">
			<use xlink:href="#SVGID_21_"  style="overflow:visible;"/>
		</clipPath>
		<path class="st38" d="M163.1,34.2c0.6,0.3,1.5,0.9,2.1,1.2c-0.2,0.9-0.4,1.5-0.6,2.4c-0.6-0.3-1.5-0.9-2.1-1.2
			C162.7,35.7,162.9,35.1,163.1,34.2L163.1,34.2z"/>
		<g class="st39">
			<path class="st19" d="M161.3,37.4c-0.4,0-0.7-0.1-1-0.3c-0.7-0.4-1.1-1.3-1.1-2.5c0-1.1,0.4-2.4,1.1-3.6c0.7-1.2,1.6-2.2,2.6-2.7
				c1-0.6,2-0.7,2.7-0.3c0.7,0.4,1.1,1.3,1.1,2.5c0,1.1-0.4,2.4-1.1,3.6c-0.7,1.2-1.6,2.2-2.6,2.7C162.4,37.2,161.8,37.4,161.3,37.4
				z M164.5,28.1c-0.5,0-1,0.2-1.5,0.5c-0.9,0.5-1.8,1.5-2.5,2.6c-0.7,1.1-1,2.4-1,3.4c0,1,0.3,1.8,1,2.2c0.6,0.4,1.5,0.3,2.4-0.3
				c0.9-0.5,1.8-1.5,2.5-2.6c0.7-1.1,1-2.4,1-3.4c0-1-0.3-1.8-1-2.2C165.1,28.2,164.8,28.1,164.5,28.1z"/>
		</g>
		<g class="st39">
			<path class="st19" d="M160.5,36.9c-0.4,0-0.7-0.1-1-0.3c-0.7-0.4-1.1-1.3-1.1-2.5c0-1.1,0.4-2.4,1.1-3.6c0.7-1.2,1.6-2.2,2.6-2.7
				c1-0.6,2-0.7,2.7-0.3c0.7,0.4,1.1,1.3,1.1,2.5c0,1.1-0.4,2.4-1.1,3.6c-0.7,1.2-1.6,2.2-2.6,2.7C161.6,36.7,161,36.9,160.5,36.9z
				 M163.7,27.7c-0.5,0-1,0.2-1.5,0.5c-0.9,0.5-1.8,1.5-2.5,2.6c-0.7,1.1-1,2.4-1,3.4c0,1,0.3,1.8,1,2.2c0.6,0.4,1.5,0.3,2.4-0.3
				c0.9-0.5,1.8-1.5,2.5-2.6c0.7-1.1,1-2.4,1-3.4c0-1-0.3-1.8-1-2.2C164.3,27.7,164,27.7,163.7,27.7z"/>
		</g>
	</g>
	<g>
		<defs>
			<polygon id="SVGID_23_" points="166.6,41.9 160.7,38.5 163.8,26.1 172.1,30.9 171.4,33.8 171,35.2 168.3,33.6 167.5,36.7 
				170.2,38.3 169,43.3 			"/>
		</defs>
		<clipPath id="SVGID_24_">
			<use xlink:href="#SVGID_23_"  style="overflow:visible;"/>
		</clipPath>
		<path class="st40" d="M167,36.4c0.6,0.3,1.5,0.9,2.1,1.2c-0.2,0.9-0.4,1.5-0.6,2.4c-0.6-0.3-1.5-0.9-2.1-1.2
			C166.6,38,166.8,37.3,167,36.4L167,36.4z"/>
		<g class="st41">
			<path class="st19" d="M165.2,39.6c-0.4,0-0.7-0.1-1-0.3c-0.7-0.4-1.1-1.3-1.1-2.5c0-1.1,0.4-2.4,1.1-3.6c0.7-1.2,1.6-2.2,2.6-2.7
				c1-0.6,2-0.7,2.7-0.3c0.7,0.4,1.1,1.3,1.1,2.5c0,1.1-0.4,2.4-1.1,3.6c-0.7,1.2-1.6,2.2-2.6,2.7C166.3,39.5,165.7,39.6,165.2,39.6
				z M168.4,30.4c-0.5,0-1,0.2-1.5,0.5c-0.9,0.5-1.8,1.5-2.5,2.6c-0.7,1.1-1,2.4-1,3.4c0,1,0.3,1.8,1,2.2c0.6,0.4,1.5,0.3,2.4-0.3
				c0.9-0.5,1.8-1.5,2.5-2.6c0.7-1.1,1-2.4,1-3.4c0-1-0.3-1.8-1-2.2C169,30.4,168.7,30.4,168.4,30.4z"/>
		</g>
		<g class="st41">
			<path class="st19" d="M164.4,39.2c-0.4,0-0.7-0.1-1-0.3c-0.7-0.4-1.1-1.3-1.1-2.5c0-1.1,0.4-2.4,1.1-3.6c0.7-1.2,1.6-2.2,2.6-2.7
				c1-0.6,2-0.7,2.7-0.3c0.7,0.4,1.1,1.3,1.1,2.5c0,1.1-0.4,2.4-1.1,3.6c-0.7,1.2-1.6,2.2-2.6,2.7C165.5,39,164.9,39.2,164.4,39.2z
				 M167.6,29.9c-0.5,0-1,0.2-1.5,0.5c-0.9,0.5-1.8,1.5-2.5,2.6c-0.7,1.1-1,2.4-1,3.4c0,1,0.3,1.8,1,2.2c0.6,0.4,1.5,0.3,2.4-0.3
				c0.9-0.5,1.8-1.5,2.5-2.6c0.7-1.1,1-2.4,1-3.4c0-1-0.3-1.8-1-2.2C168.2,30,167.9,29.9,167.6,29.9z"/>
		</g>
	</g>
	<g>
		<defs>
			<polygon id="SVGID_25_" points="170.5,44.2 164.6,40.8 167.7,28.4 176,33.2 175.3,36 175,37.4 172.2,35.9 171.4,39 174.1,40.6 
				172.9,45.6 170.5,44.2 			"/>
		</defs>
		<clipPath id="SVGID_26_">
			<use xlink:href="#SVGID_25_"  style="overflow:visible;"/>
		</clipPath>
		<path class="st42" d="M170.9,38.7c0.6,0.3,1.5,0.9,2.1,1.2c-0.2,0.9-0.4,1.5-0.6,2.4c-0.6-0.3-1.5-0.9-2.1-1.2
			C170.6,40.2,170.7,39.6,170.9,38.7L170.9,38.7z"/>
		<g class="st43">
			<path class="st19" d="M169.1,41.9c-0.4,0-0.7-0.1-1-0.3c-0.7-0.4-1.1-1.3-1.1-2.5c0-1.1,0.4-2.4,1.1-3.6c0.7-1.2,1.6-2.2,2.6-2.7
				c1-0.6,2-0.7,2.7-0.3c0.7,0.4,1.1,1.3,1.1,2.5c0,1.1-0.4,2.4-1.1,3.6c-0.7,1.2-1.6,2.2-2.6,2.7C170.2,41.7,169.6,41.9,169.1,41.9
				z M172.3,32.6c-0.5,0-1,0.2-1.5,0.5c-0.9,0.5-1.8,1.5-2.5,2.6c-0.7,1.1-1,2.4-1,3.4c0,1,0.3,1.8,1,2.2c0.6,0.4,1.5,0.3,2.4-0.3
				c0.9-0.5,1.8-1.5,2.5-2.6c0.7-1.1,1-2.4,1-3.4c0-1-0.3-1.8-1-2.2C172.9,32.7,172.6,32.6,172.3,32.6z"/>
		</g>
		<g class="st43">
			<path class="st19" d="M168.3,41.4c-0.4,0-0.7-0.1-1-0.3c-0.7-0.4-1.1-1.3-1.1-2.5c0-1.1,0.4-2.4,1.1-3.6c0.7-1.2,1.6-2.2,2.6-2.7
				c1-0.6,2-0.7,2.7-0.3c0.7,0.4,1.1,1.3,1.1,2.5c0,1.1-0.4,2.4-1.1,3.6c-0.7,1.2-1.6,2.2-2.6,2.7C169.4,41.2,168.8,41.4,168.3,41.4
				z M171.5,32.2c-0.5,0-1,0.2-1.5,0.5c-0.9,0.5-1.8,1.5-2.5,2.6c-0.7,1.1-1,2.4-1,3.4c0,1,0.3,1.8,1,2.2c0.6,0.4,1.5,0.3,2.4-0.3
				c0.9-0.5,1.8-1.5,2.5-2.6c0.7-1.1,1-2.4,1-3.4c0-1-0.3-1.8-1-2.2C172.1,32.2,171.8,32.2,171.5,32.2z"/>
		</g>
	</g>
	<g>
		<defs>
			<polygon id="SVGID_27_" points="174.5,46.5 168.5,43 171.6,30.6 179.9,35.4 179.2,38.3 178.9,39.7 176.1,38.1 175.3,41.2 
				178.1,42.8 176.8,47.8 			"/>
		</defs>
		<clipPath id="SVGID_28_">
			<use xlink:href="#SVGID_27_"  style="overflow:visible;"/>
		</clipPath>
		<path class="st44" d="M174.8,41c0.6,0.3,1.5,0.9,2.1,1.2c-0.2,0.9-0.4,1.5-0.6,2.4c-0.6-0.3-1.5-0.9-2.1-1.2
			C174.5,42.5,174.6,41.8,174.8,41L174.8,41z"/>
		<g class="st45">
			<path class="st19" d="M173,44.1c-0.4,0-0.7-0.1-1-0.3c-0.7-0.4-1.1-1.3-1.1-2.5c0-1.1,0.4-2.4,1.1-3.6c0.7-1.2,1.6-2.2,2.6-2.7
				c1-0.6,2-0.7,2.7-0.3c0.7,0.4,1.1,1.3,1.1,2.5c0,1.1-0.4,2.4-1.1,3.6c-0.7,1.2-1.6,2.2-2.6,2.7C174.1,44,173.5,44.1,173,44.1z
				 M176.2,34.9c-0.5,0-1,0.2-1.5,0.5c-0.9,0.5-1.8,1.5-2.5,2.6c-0.7,1.1-1,2.4-1,3.4c0,1,0.3,1.8,1,2.2c0.6,0.4,1.5,0.3,2.4-0.3
				c0.9-0.5,1.8-1.5,2.5-2.6s1-2.4,1-3.4c0-1-0.3-1.8-1-2.2C176.8,35,176.5,34.9,176.2,34.9z"/>
		</g>
		<g class="st45">
			<path class="st19" d="M172.2,43.7c-0.4,0-0.7-0.1-1-0.3c-0.7-0.4-1.1-1.3-1.1-2.5c0-1.1,0.4-2.4,1.1-3.6c0.7-1.2,1.6-2.2,2.6-2.7
				c1-0.6,2-0.7,2.7-0.3c0.7,0.4,1.1,1.3,1.1,2.5c0,1.1-0.4,2.4-1.1,3.6c-0.7,1.2-1.6,2.2-2.6,2.7C173.3,43.5,172.7,43.7,172.2,43.7
				z M175.4,34.4c-0.5,0-1,0.2-1.5,0.5c-0.9,0.5-1.8,1.5-2.5,2.6c-0.7,1.1-1,2.4-1,3.4c0,1,0.3,1.8,1,2.2c0.6,0.3,1.5,0.3,2.4-0.3
				c0.9-0.5,1.8-1.5,2.5-2.6c0.7-1.1,1-2.4,1-3.4c0-1-0.3-1.8-1-2.2C176,34.5,175.7,34.4,175.4,34.4z"/>
		</g>
	</g>
	<g>
		<defs>
			<polygon id="SVGID_29_" points="178.4,48.7 172.4,45.3 175.6,32.9 183.8,37.7 183.1,40.5 182.8,41.9 180.1,40.4 179.2,43.5 
				182,45.1 180.7,50.1 178.4,48.7 			"/>
		</defs>
		<clipPath id="SVGID_30_">
			<use xlink:href="#SVGID_29_"  style="overflow:visible;"/>
		</clipPath>
		<path class="st46" d="M178.8,43.2c0.6,0.3,1.5,0.9,2.1,1.2c-0.2,0.9-0.4,1.5-0.6,2.4c-0.6-0.3-1.5-0.9-2.1-1.2
			C178.4,44.7,178.5,44.1,178.8,43.2L178.8,43.2z"/>
		<g class="st47">
			<path class="st19" d="M176.9,46.4c-0.4,0-0.7-0.1-1-0.3c-0.7-0.4-1.1-1.3-1.1-2.5c0-1.1,0.4-2.4,1.1-3.6c0.7-1.2,1.6-2.2,2.6-2.7
				c1-0.6,2-0.7,2.7-0.3c0.7,0.4,1.1,1.3,1.1,2.5c0,1.1-0.4,2.4-1.1,3.6c-0.7,1.2-1.6,2.2-2.6,2.7C178,46.2,177.4,46.4,176.9,46.4z
				 M180.1,37.1c-0.5,0-1,0.2-1.5,0.5c-0.9,0.5-1.8,1.5-2.5,2.6c-0.7,1.1-1,2.4-1,3.4c0,1,0.3,1.8,1,2.2c0.6,0.4,1.5,0.3,2.4-0.3
				c0.9-0.5,1.8-1.5,2.5-2.6c0.7-1.1,1-2.4,1-3.4c0-1-0.3-1.8-1-2.2C180.7,37.2,180.4,37.1,180.1,37.1z"/>
		</g>
		<g class="st47">
			<path class="st19" d="M176.1,45.9c-0.4,0-0.7-0.1-1-0.3c-0.7-0.4-1.1-1.3-1.1-2.5c0-1.1,0.4-2.4,1.1-3.6c0.7-1.2,1.6-2.2,2.6-2.7
				c1-0.6,2-0.7,2.7-0.3c0.7,0.4,1.1,1.3,1.1,2.5c0,1.1-0.4,2.4-1.1,3.6c-0.7,1.2-1.6,2.2-2.6,2.7C177.2,45.8,176.6,45.9,176.1,45.9
				z M179.3,36.7c-0.5,0-1,0.2-1.5,0.5c-0.9,0.5-1.8,1.5-2.5,2.6c-0.7,1.1-1,2.4-1,3.4c0,1,0.3,1.8,1,2.2c0.6,0.4,1.5,0.3,2.4-0.3
				c0.9-0.5,1.8-1.5,2.5-2.6c0.7-1.1,1-2.4,1-3.4c0-1-0.3-1.8-1-2.2C179.9,36.8,179.6,36.7,179.3,36.7z"/>
		</g>
	</g>
	<g>
		<defs>
			<polygon id="SVGID_31_" points="182.3,51 176.3,47.5 179.5,35.1 187.8,39.9 187,42.8 186.7,44.2 184,42.6 183.2,45.8 185.9,47.3 
				184.6,52.3 182.3,51 			"/>
		</defs>
		<clipPath id="SVGID_32_">
			<use xlink:href="#SVGID_31_"  style="overflow:visible;"/>
		</clipPath>
		<path class="st48" d="M182.7,45.5c0.6,0.3,1.5,0.9,2.1,1.2c-0.2,0.9-0.4,1.5-0.6,2.4c-0.6-0.3-1.5-0.9-2.1-1.2
			C182.3,47,182.4,46.3,182.7,45.5L182.7,45.5z"/>
		<g class="st49">
			<path class="st19" d="M180.8,48.7c-0.4,0-0.7-0.1-1-0.3c-0.7-0.4-1.1-1.3-1.1-2.5c0-1.1,0.4-2.4,1.1-3.6c0.7-1.2,1.6-2.2,2.6-2.7
				c1-0.6,2-0.7,2.7-0.3c0.7,0.4,1.1,1.3,1.1,2.5c0,1.1-0.4,2.4-1.1,3.6c-0.7,1.2-1.6,2.2-2.6,2.7C181.9,48.5,181.3,48.7,180.8,48.7
				z M184,39.4c-0.5,0-1,0.2-1.5,0.5c-0.9,0.5-1.8,1.5-2.5,2.6c-0.7,1.1-1,2.4-1,3.4c0,1,0.3,1.8,1,2.2c0.6,0.3,1.5,0.3,2.4-0.3
				c0.9-0.5,1.8-1.5,2.5-2.6c0.7-1.1,1-2.4,1-3.4c0-1-0.3-1.8-1-2.2C184.6,39.5,184.3,39.4,184,39.4z"/>
		</g>
		<g class="st49">
			<path class="st19" d="M180,48.2c-0.4,0-0.7-0.1-1-0.3c-0.7-0.4-1.1-1.3-1.1-2.5c0-1.1,0.4-2.4,1.1-3.6c0.7-1.2,1.6-2.2,2.6-2.7
				c1-0.6,2-0.7,2.7-0.3c0.7,0.4,1.1,1.3,1.1,2.5c0,1.1-0.4,2.4-1.1,3.6c-0.7,1.2-1.6,2.2-2.6,2.7C181.1,48,180.6,48.2,180,48.2z
				 M183.2,38.9c-0.5,0-1,0.2-1.5,0.5c-0.9,0.5-1.8,1.5-2.5,2.6c-0.7,1.1-1,2.4-1,3.4c0,1,0.3,1.8,1,2.2c0.6,0.4,1.5,0.3,2.4-0.3
				c0.9-0.5,1.8-1.5,2.5-2.6c0.7-1.1,1-2.4,1-3.4c0-1-0.3-1.8-1-2.2C183.8,39,183.5,38.9,183.2,38.9z"/>
		</g>
	</g>
	<g>
		<path class="st50" d="M156.7,76.5c-0.1,0-0.2,0-0.3-0.1c-1.7-1-3.4-2-5.2-3l-2.8-1.6c-0.2-0.1-0.3-0.4-0.2-0.6l2.7-10.8
			c0-0.2,0.2-0.3,0.3-0.4c0.2-0.1,0.3-0.1,0.5,0l2.9,1.7c1.7,1,3.4,2,5.1,2.9c0.2,0.1,0.3,0.4,0.3,0.6l-2.7,10.8
			c0,0.2-0.2,0.3-0.3,0.4C156.8,76.5,156.8,76.5,156.7,76.5z M149.3,71.1l2.5,1.4c1.5,0.9,3,1.8,4.6,2.6l2.5-9.7
			c-1.6-0.9-3.2-1.8-4.7-2.7l-2.3-1.3L149.3,71.1z"/>
	</g>
	<path class="st11" d="M119.6,32.1c0.9,0.5,1.3,1.9,1,3.1c-0.3,1.2-1.3,1.8-2.1,1.3c-0.9-0.5-1.3-1.9-1-3.1
		C117.8,32.2,118.8,31.6,119.6,32.1L119.6,32.1z"/>
	<path class="st11" d="M129.2,37.6c0.9,0.5,1.3,1.9,1,3.1c-0.3,1.2-1.3,1.8-2.1,1.3c-0.9-0.5-1.3-1.9-1-3.1
		C127.4,37.7,128.3,37.1,129.2,37.6L129.2,37.6z"/>
	<path class="st11" d="M116.7,43.6c0.9,0.5,1.3,1.9,1,3.1c-0.3,1.2-1.3,1.8-2.1,1.3c-0.9-0.5-1.3-1.9-1-3.1
		C114.9,43.7,115.8,43.1,116.7,43.6L116.7,43.6z"/>
	<path class="st11" d="M126.3,49.1c0.9,0.5,1.3,1.9,1,3.1c-0.3,1.2-1.3,1.8-2.1,1.3c-0.9-0.5-1.3-1.9-1-3.1
		C124.4,49.2,125.4,48.6,126.3,49.1L126.3,49.1z"/>
	<path class="st11" d="M113.8,55.2c0.9,0.5,1.3,1.9,1,3.1c-0.3,1.2-1.3,1.8-2.1,1.3c-0.9-0.5-1.3-1.9-1-3.1
		C112,55.2,112.9,54.7,113.8,55.2L113.8,55.2z"/>
	<path class="st11" d="M123.3,60.7c0.9,0.5,1.3,1.9,1,3.1c-0.3,1.2-1.3,1.8-2.1,1.3c-0.9-0.5-1.3-1.9-1-3.1
		C121.5,60.8,122.5,60.2,123.3,60.7L123.3,60.7z"/>
	<path class="st11" d="M110.9,66.7c0.9,0.5,1.3,1.9,1,3.1c-0.3,1.2-1.3,1.8-2.1,1.3c-0.9-0.5-1.3-1.9-1-3.1
		C109,66.8,110,66.2,110.9,66.7L110.9,66.7z"/>
	<path class="st11" d="M120.4,72.2c0.9,0.5,1.3,1.9,1,3.1c-0.3,1.2-1.3,1.8-2.1,1.3c-0.9-0.5-1.3-1.9-1-3.1
		C118.6,72.3,119.5,71.7,120.4,72.2L120.4,72.2z"/>
	<path class="st11" d="M107.9,78.3c0.9,0.5,1.3,1.9,1,3.1c-0.3,1.2-1.3,1.8-2.1,1.3c-0.9-0.5-1.3-1.9-1-3.1
		C106.1,78.3,107.1,77.8,107.9,78.3L107.9,78.3z"/>
	<path class="st11" d="M117.5,83.8c0.9,0.5,1.3,1.9,1,3.1c-0.3,1.2-1.3,1.8-2.1,1.3c-0.9-0.5-1.3-1.9-1-3.1
		C115.7,83.9,116.6,83.3,117.5,83.8L117.5,83.8z"/>
	<path class="st11" d="M127,89.3c0.9,0.5,1.3,1.9,1,3.1c-0.3,1.2-1.3,1.8-2.1,1.3c-0.9-0.5-1.3-1.9-1-3.1
		C125.2,89.4,126.2,88.8,127,89.3L127,89.3z"/>
	<path class="st11" d="M138.7,43.1c0.9,0.5,1.3,1.9,1,3.1c-0.3,1.2-1.3,1.8-2.1,1.3c-0.9-0.5-1.3-1.9-1-3.1
		C136.9,43.2,137.9,42.6,138.7,43.1L138.7,43.1z"/>
	<path class="st11" d="M148.3,48.6c0.9,0.5,1.3,1.9,1,3.1c-0.3,1.2-1.3,1.8-2.1,1.3c-0.9-0.5-1.3-1.9-1-3.1
		C146.5,48.7,147.4,48.1,148.3,48.6L148.3,48.6z"/>
	<path class="st11" d="M157.8,54.1c0.9,0.5,1.3,1.9,1,3.1c-0.3,1.2-1.3,1.8-2.1,1.3c-0.9-0.5-1.3-1.9-1-3.1
		C156,54.2,157,53.6,157.8,54.1L157.8,54.1z"/>
	<path class="st11" d="M135.8,54.7c0.9,0.5,1.3,1.9,1,3.1c-0.3,1.2-1.3,1.8-2.1,1.3c-0.9-0.5-1.3-1.9-1-3.1
		C134,54.7,134.9,54.2,135.8,54.7L135.8,54.7z"/>
	<path class="st11" d="M145.4,60.2c0.9,0.5,1.3,1.9,1,3.1c-0.3,1.2-1.3,1.8-2.1,1.3c-0.9-0.5-1.3-1.9-1-3.1
		C143.5,60.3,144.5,59.7,145.4,60.2L145.4,60.2z"/>
	<path class="st11" d="M154.9,65.7c0.9,0.5,1.3,1.9,1,3.1c-0.3,1.2-1.3,1.8-2.1,1.3c-0.9-0.5-1.3-1.9-1-3.1
		C153.1,65.8,154,65.2,154.9,65.7L154.9,65.7z"/>
	<path class="st11" d="M132.9,66.2c0.9,0.5,1.3,1.9,1,3.1c-0.3,1.2-1.3,1.8-2.1,1.3c-0.9-0.5-1.3-1.9-1-3.1
		C131.1,66.3,132,65.7,132.9,66.2L132.9,66.2z"/>
	<path class="st11" d="M142.4,71.7c0.9,0.5,1.3,1.9,1,3.1c-0.3,1.2-1.3,1.8-2.1,1.3c-0.9-0.5-1.3-1.9-1-3.1
		C140.6,71.8,141.6,71.2,142.4,71.7L142.4,71.7z"/>
	<path class="st11" d="M152,77.2c0.9,0.5,1.3,1.9,1,3.1c-0.3,1.2-1.3,1.8-2.1,1.3c-0.9-0.5-1.3-1.9-1-3.1
		C150.2,77.3,151.1,76.7,152,77.2L152,77.2z"/>
	<path class="st11" d="M130,77.8c0.9,0.5,1.3,1.9,1,3.1c-0.3,1.2-1.3,1.8-2.1,1.3c-0.9-0.5-1.3-1.9-1-3.1
		C128.1,77.8,129.1,77.2,130,77.8L130,77.8z"/>
	<path class="st11" d="M139.5,83.3c0.9,0.5,1.3,1.9,1,3.1c-0.3,1.2-1.3,1.8-2.1,1.3c-0.9-0.5-1.3-1.9-1-3.1
		C137.7,83.3,138.6,82.8,139.5,83.3L139.5,83.3z"/>
	<path class="st11" d="M149.1,88.8c0.9,0.5,1.3,1.9,1,3.1c-0.3,1.2-1.3,1.8-2.1,1.3c-0.9-0.5-1.3-1.9-1-3.1
		C147.3,88.9,148.2,88.3,149.1,88.8L149.1,88.8z"/>
	<path class="st51" d="M167.4,59.7c0.9,0.5,1.3,1.9,1,3.1c-0.3,1.2-1.3,1.8-2.1,1.3c-0.9-0.5-1.3-1.9-1-3.1
		C165.6,59.8,166.5,59.2,167.4,59.7L167.4,59.7z"/>
	<path class="st51" d="M177,65.2c0.9,0.5,1.3,1.9,1,3.1c-0.3,1.2-1.3,1.8-2.1,1.3c-0.9-0.5-1.3-1.9-1-3.1
		C175.1,65.3,176.1,64.7,177,65.2L177,65.2z"/>
	<path class="st51" d="M164.5,71.2c0.9,0.5,1.3,1.9,1,3.1c-0.3,1.2-1.3,1.8-2.1,1.3c-0.9-0.5-1.3-1.9-1-3.1
		C162.7,71.3,163.6,70.7,164.5,71.2L164.5,71.2z"/>
	<path class="st51" d="M174,76.7c0.9,0.5,1.3,1.9,1,3.1c-0.3,1.2-1.3,1.8-2.1,1.3c-0.9-0.5-1.3-1.9-1-3.1
		C172.2,76.8,173.2,76.2,174,76.7L174,76.7z"/>
	<path class="st51" d="M161.5,82.8c0.9,0.5,1.3,1.9,1,3.1c-0.3,1.2-1.3,1.8-2.1,1.3c-0.9-0.5-1.3-1.9-1-3.1
		C159.7,82.8,160.7,82.3,161.5,82.8L161.5,82.8z"/>
	<path class="st51" d="M171.1,88.3c0.9,0.5,1.3,1.9,1,3.1c-0.3,1.2-1.3,1.8-2.1,1.3c-0.9-0.5-1.3-1.9-1-3.1
		C169.3,88.4,170.2,87.8,171.1,88.3L171.1,88.3z"/>
	<path class="st51" d="M158.6,94.3c0.9,0.5,1.3,1.9,1,3.1c-0.3,1.2-1.3,1.8-2.1,1.3c-0.9-0.5-1.3-1.9-1-3.1
		C156.8,94.4,157.8,93.8,158.6,94.3L158.6,94.3z"/>
	<path class="st51" d="M168.2,99.8c0.9,0.5,1.3,1.9,1,3.1c-0.3,1.2-1.3,1.8-2.1,1.3c-0.9-0.5-1.3-1.9-1-3.1
		C166.4,99.9,167.3,99.3,168.2,99.8L168.2,99.8z"/>
</g>
<g>
	<polygon class="st52" points="171.6,226.5 222,255.7 272.5,226.5 222,197.4 	"/>
	<polygon class="st52" points="222,139.2 272.5,168.3 272.5,226.5 222,197.4 	"/>
	<polygon class="st53" points="222,139.2 171.6,226.5 222,197.4 	"/>
	<polygon class="st54" points="222,192 175.1,219.1 175.1,225 222,252.1 268.9,225 268.9,219.1 	"/>
	<polygon class="st55" points="222,186.6 175.1,213.6 175.1,219.5 222,246.6 268.9,219.5 268.9,213.6 	"/>
	<polygon class="st54" points="222,180.6 175.1,207.7 175.1,213.6 222,240.7 268.9,213.6 268.9,207.7 	"/>
	<polygon class="st56" points="222,174.7 175.1,201.8 175.1,207.7 222,234.8 268.9,207.7 268.9,201.8 	"/>
	<polygon class="st54" points="222,168.8 175.1,195.9 175.1,201.8 222,228.9 268.9,201.8 268.9,195.9 	"/>
	<polygon class="st57" points="222,162.9 175.1,190 175.1,195.9 222,223 268.9,195.9 268.9,190 	"/>
	<polygon class="st54" points="222,157 175.1,184.1 175.1,190 222,217.1 268.9,190 268.9,184.1 	"/>
	<polygon class="st58" points="222,151.1 175.1,178.2 175.1,184.1 222,211.2 268.9,184.1 268.9,178.2 	"/>
	<polygon class="st59" points="222,252.1 222,204.8 268.9,178.2 268.9,225 	"/>
	<polygon class="st60" points="222,204.8 175.1,178.2 222,151.1 268.9,178.2 	"/>
	<polygon class="st53" points="272.5,168.3 222,255.7 272.5,226.5 	"/>
</g>
</svg>
