<svg xmlns="http://www.w3.org/2000/svg" xmlns:xlink="http://www.w3.org/1999/xlink" viewBox="0 0 13 13"><defs><style>.a{fill:#4242d6;}.b{clip-path:url(#a);}</style><clipPath id="a"><rect class="a" width="13" height="13"/></clipPath></defs><g class="b"><path class="a" d="M7.583,0V1.083h3.575l-6.8,6.8.758.758,6.8-6.8V5.417H13V0ZM2.167,2.167A2.173,2.173,0,0,0,0,4.333v6.5A2.173,2.173,0,0,0,2.167,13h6.5a2.173,2.173,0,0,0,2.167-2.167V5.417L9.75,6.5v4.333a1.087,1.087,0,0,1-1.083,1.083h-6.5a1.087,1.087,0,0,1-1.083-1.083v-6.5A1.087,1.087,0,0,1,2.167,3.25H6.5L7.583,2.167Zm0,0"/></g></svg>