<?xml version="1.0" encoding="utf-8"?>
<!-- Generator: Adobe Illustrator 22.1.0, SVG Export Plug-In . SVG Version: 6.00 Build 0)  -->
<svg version="1.0" id="Layer_1" xmlns="http://www.w3.org/2000/svg" xmlns:xlink="http://www.w3.org/1999/xlink" x="0px" y="0px"
	 viewBox="0 0 274 257" enable-background="new 0 0 274 257" xml:space="preserve">
<path opacity="0.2" fill="#3D3D3D" enable-background="new    " d="M193.7,122.7c-6.5-6-9.9-5.2-18.5-0.5c-5,2.8-5.3,9.7-1.2,10.7
	c4.1,1,6.2-4.1,6.7-0.2c0.5,3.9,0.7,5.8,6.5,6.7C193,140.3,197.7,131.4,193.7,122.7z"/>
<path opacity="0.2" fill="#3D3D3D" enable-background="new    " d="M31.5,209.2c1.2-0.3,18.1-4.3,16.3,0
	c-1.3,8.5-18.5,13.4-12.9,14.7s13,7.3,2.3,11.7s-22.1,2.6-24-4.6C11.4,223.8,15.6,212.7,31.5,209.2z"/>
<path opacity="0.2" fill="#3D3D3D" enable-background="new    " d="M166.1,232.4c-7.9-3.1-16.8-4.1-25.4,0.6
	c-5,2.8-5.7,9.2-1.6,10.2c4.1,1,11.1-2.6,11.6,1.3c0.5,3.9,4.8,10.5,10.6,11.4C167,256.7,184.5,239.5,166.1,232.4z"/>
<path fill="#DCDCDC" d="M234.1,237.9L234.1,237.9L234.1,237.9z"/>
<g>
	<g>
		<path opacity="0.2" fill="#3D3D3D" enable-background="new    " d="M82.8,191.2c0,1.9-4.4,10.6,2,12.6c6.4,1.9,15.9-5.9,17.2-16.1
			c1.3-10.2-1.2-13.2-4.9-14.9c-3.7-1.7-19.6,6.4-19.3,12.7C78,191.3,82.8,189.3,82.8,191.2z"/>
		<g>
			<path fill="#F2A983" d="M61.4,120.6c-0.5-0.6-2-0.4-2.6-0.3c-0.3,0.5-0.8,1.3-1.3,1.8l0,0c-0.1,0.1-0.2,0.2-0.3,0.3
				c-0.6,0.7-1.3,1.4-1.2,2.6c0,0.8,0,1.4-0.1,1.9l0,0l0,0c0,0.3,0,0.5,0.1,0.7c0,0.1,0,0.2,0.1,0.2c0.2,1.4,0.6,3.7,0.9,4
				c0.4,0.3,1,0.3,1.7,0c0.7-0.3,1.4-1.6,1.6-2.7c0.2-0.8,0.9-3,1.2-3.9l0.8-0.9C62.2,123.7,62,121.3,61.4,120.6z"/>
			<path fill="#E2E9ED" d="M62.1,120.6c-0.8-1.5-2.6-1.1-3.3-0.9c-0.2,0.3-0.4,0.7-0.4,0.7c0.1,0,2.2-0.5,2.9,0.3
				c0.7,0.8,0.9,3.9,0.9,3.9l0.7-1.1C62.9,122.6,62.7,121.6,62.1,120.6z"/>
			<path opacity="0.5" fill="#CB825C" enable-background="new    " d="M58.6,131.9c0.7-0.3,1.4-1.6,1.6-2.7c0.2-0.8,0.9-3,1.2-3.9
				l0.8-0.9c0-0.6-0.2-2.4-0.7-3.3l-1.2,1.2c0,0-1.2,0-1.8,1s-0.8,3.6-0.6,4.9c0.2,1.2,0.9,2.4-0.7,4
				C57.7,132.2,58.1,132.1,58.6,131.9z"/>
			<path fill="#F2A983" d="M59.4,122.3c0,0,0.6,2.5,1.2,2.5s1.6,0.3,1.5-1.2c-0.1-1.5-0.2-2.7-1.2-2.9C60,120.4,59.1,121,59.4,122.3
				z"/>
			<g>
				<path fill="#162A3D" d="M78.2,86.5c0,0-3.5,1.7-5.4,6.1c-1.9,4.5-4.9,9.5-6.1,11.3s-3.2,4.7-4.3,6.8s-3.7,8.9-3.7,8.9
					s2.5-1,3.5,0.8c1,1.9,0.9,3.9,0.9,3.9s4.8-6.6,5.8-8c1-1.4,1.7-3.5,3.2-5.4c0.9-1.1,2.5-3.9,4.3-5.6
					C76.2,99.8,76.6,90.8,78.2,86.5z"/>
				<path opacity="0.5" fill="#091929" enable-background="new    " d="M71.8,106.4c-0.3,0-3.4-0.9-3.4-0.9s0.3,3.6-1.2,6.5
					c-1.2,2.3-4,6.7-5.1,8.4c0,0.1,0.1,0.1,0.1,0.2c1,1.9,0.9,3.9,0.9,3.9s4.8-6.6,5.8-8c1-1.4,1.7-3.5,3.2-5.4
					c0.9-1.1,2.5-3.9,4.3-5.6c0-0.8-0.1-1.7-0.1-2.6C74.4,104.9,71.9,106.4,71.8,106.4z"/>
				<polygon fill="#000F28" points="78.9,128.8 78.4,116.5 81.1,119.7 80.7,127.6 				"/>
				<path fill="#D5DCE0" d="M80.3,123.9c0,0,1.5,3.4,5,5c3.5,1.6,6.5,1.4,9,0.4c2.5-0.9,6.8-2.6,6.8-7.7c0,0-3.9-3.1-2.8-7.5
					s2.3-12.1,2.3-12.1L98,91.4l-4-3.6c0,0-5.9,4.2-8.4,3.3c-2.5-0.9-4.6-3.9-4.6-3.9L77.7,93c0,0,0,18.4,0.7,20.3
					C79.1,115.3,80.3,123.9,80.3,123.9z"/>
				<g>
					<g>
						<path fill="#2E373A" d="M91.3,172.8c-0.3,0.3-2.5,3.6-5.2,4.9c-2.6,1.3-6.4,5.1-5.7,7.1s5.9-0.2,7.5-1
							c1.7-0.9,6.6-3.5,6.6-3.5l0.2-6.1L91.3,172.8z"/>
						<path fill="#0B0B0B" d="M87.9,183.7c-1.7,0.9-6.8,3-7.5,1c0-0.1,0-0.2-0.1-0.3c0,0.3,0,0.6,0.1,0.8c0.7,2,5.9-0.2,7.5-1
							c1.7-0.9,6.6-3.5,6.6-3.5l-0.2-0.4C93.4,180.8,89.4,183,87.9,183.7z"/>
					</g>
					<g>
						<path fill="#2E373A" d="M91.1,188.2c0,0-2.3,3.6-3.4,5c-1.1,1.4-3.4,6.5-2.1,7.2c1.2,0.6,4.3,0.9,7.4-1.7s3.9-6.9,4.4-8.3
							c0.5-1.4-0.3-4.9-0.3-4.9L91.1,188.2z"/>
						<path fill="#0B0B0B" d="M97.6,189.3c0,0.4-0.1,0.9-0.2,1.2c-0.5,1.4-1.3,5.7-4.4,8.3c-3.1,2.6-6.2,2.3-7.4,1.7
							c-0.1,0-0.1-0.1-0.2-0.2c0,0.4,0.1,0.7,0.4,0.8c1.2,0.6,4.3,0.9,7.4-1.7s3.9-6.9,4.4-8.3C97.8,190.6,97.7,189.9,97.6,189.3z"
							/>
					</g>
					<g>
						<path fill="#162A3D" d="M100.7,121.3L100.7,121.3L100.7,121.3z"/>
						<path fill="#162A3D" d="M99.2,157.9c0.8-4.6,4.3-22.7,4-28.1c-0.2-4-1.6-6.8-2.2-8c-0.1,4.9-4.3,6.5-6.8,7.5
							c-2.2,0.8-4.7,1.1-7.7,0.1c0.4,2.6,1,6.3,1.6,7.8c0.9,2.5,0.3,16.2,0.3,18.7c0.1,2.5,1.3,9.9,1.6,15.7
							c0.3,5.8-1.7,20.6-1.7,20.6s3.2,0.7,6.7-0.8c2.1-0.9,3.9-4.4,3.9-4.4s1.5-14,1.6-17.4C100.6,166.3,98.5,162.6,99.2,157.9z"/>
					</g>
					<g>
						<path fill="#162A3D" d="M100.7,121.3L100.7,121.3L100.7,121.3z"/>
						<path fill="#091929" d="M88.4,155.9c-0.1-2.5,0.5-16.2-0.3-18.7c-0.5-1.5-1.2-5.2-1.6-7.8c0,0,0,0,0.1,0
							c-0.4-0.1-0.9-0.3-1.3-0.5c-3.5-1.6-5-5-5-5s-1.8,7.5-1.5,14.2s1.7,11.8,2.6,15.4c0.7,2.6,6,12.9,8.7,18.1
							C89.8,165.8,88.5,158.4,88.4,155.9z"/>
					</g>
				</g>
				<path fill="#D88F69" d="M92.5,81.8C91.8,83,91,84,90.2,84.7c-1.7,1.6-4.4,2.9-6.5,3.3c-0.3,0.2-0.4,0.7,0.6,3.5
					c0.7,1.8,2.9,2.3,6.1,0.2c3.2-2.1,3.7-4.6,3.7-4.6S92.3,84.3,92.5,81.8z"/>
				<path opacity="0.15" fill="#D88F69" enable-background="new    " d="M92.5,81.8C91.8,83,91,84,90.2,84.7
					c-1.7,1.6-4.4,2.9-6.5,3.3c0,0.1,0.1,0.2,0.1,0.3c1-0.1,3-0.4,4.9-1.4c2-1,3.8,0.8,4.7,1.8c0.6-1,0.7-1.7,0.7-1.7
					S92.3,84.3,92.5,81.8z"/>
				<path fill="#203447" d="M94.9,141.6c3.3-1,8-2.8,9.7-7.4c0,0-0.9-8-2.4-11.8c-1.5-3.8-3-4.4-2.8-8.3c0.2-3.5,4.3-16.5,4.3-16.5
					l0.2-4.3c-3.2-3.8-6.8-4.8-9.4-6.8c0,0-0.6,2.7-2.8,5.8c-2.2,3.1-5.5,11.3-4.6,21.2c0.7,7.4,2.6,19.9,3.6,25.6
					C90.9,141.1,93,142.2,94.9,141.6z"/>
				<path fill="#203447" d="M77.7,136.3l-1.1-1.4c0,0,0.8-7.6,0.8-11.1c0-3.6-0.2-10.7-0.8-15.6c-0.6-4.9-0.3-16.5,1.5-21.6l5.6-1
					c0,0-2.4,4-3.9,12.1c-0.7,3.6-0.5,9.7-0.3,16.9c0.2,6.5,0.3,14,0.3,19.1C79.8,136,80,138.2,77.7,136.3z"/>
				<path fill="#B61617" d="M83.2,92.3l0.8,3c0,0-2,5.7-2.3,12c-0.4,7.5,0.1,15.9,0.1,15.9l1.9,2.6l1.9-1.8c0,0-0.6-12.6-0.8-17
					c-0.3-6.9,0.3-11.4,0.3-11.4l2.3-1.6l-1.9-2.8L83.2,92.3z"/>
				<path fill="#E2E9ED" d="M93.2,85.3c0,0-1.5,4.6-7.6,5.9l1.3,4c0,0,5.9-3.2,7.8-7.2L93.2,85.3z"/>
				<path fill="#E2E9ED" d="M83.5,87.2h-1.4c-0.8,3.5,0.8,7.1,0.8,7.1l2.8-3.2C83.7,90,83.5,87.2,83.5,87.2z"/>
				<path fill="#334659" d="M93.4,85.4c-0.1,0,0.2,0.2,0.1,0.5c-0.1,0.5-1.5,4-3.8,8.5c-2.6,5.1-3.6,15.8-2.2,23.8
					c0,0,2.6-13.5,6.2-20l-2.1-2.3l2.8-1.3l1.2-7.3C95.7,87.3,94.2,85.3,93.4,85.4z"/>
				<path fill="#334659" d="M83.7,87c0,0-4.3,8.9-4.1,16.1c0.2,6.8-0.1,11.4-0.1,11.4s-2.8-12.5-1.9-20.7l2.5-0.5l-1.5-2.6l4.2-5.4
					L83.7,87z"/>
				<path opacity="0.5" fill="#162A3D" enable-background="new    " d="M104.6,134.2c0,0-0.9-8-2.4-11.8c-1.5-3.8-3-4.4-2.8-8.3
					c0.2-3.5,4.3-16.5,4.3-16.5v-0.3l-4.4,3.7c0,0-2.2,9.9-1.8,14c0.4,3.8,5.1,15.5,3.7,23.8C102.7,137.6,103.9,136.1,104.6,134.2z"
					/>
				<g>
					<path fill="#334659" d="M102,92.9c-2.8,0.6-4.8,4.1-3.4,8.1c1.3,4,5.1,16.3,5.1,16.3l0.8,19c0,0,3,1.2,6.1,2.2
						c0,0,0.6-18.4,0.7-22.2c0.1-3.9-2.9-14.8-3.8-17.5C106.6,96.1,104.5,92.3,102,92.9z"/>
					<path fill="#E2E9ED" d="M104.6,136.3l-0.1,0.7l5.6,2.2l0.1-0.8C107.6,137.5,105.1,136.5,104.6,136.3z"/>
					<path fill="#F2A983" d="M104.5,137c0,0-1.6,0.6-2.6,1.9c-1,1.3-3.7,5.2-2.8,5.3c1,0.2,2.6-2.2,3.2-2.4c0.6-0.2,1.5,0.9,1.4,1.8
						c0,1-1.7,2.9-2.2,3.3c-0.5,0.4-1.7,0.8-1.3,1.2c0.4,0.4,1.8,0.1,3,0c1.2-0.1,3.2-1.4,3.9-2.4s1.3-2.7,1.5-3.3
						c0.1-0.5,0.2-2.3,0.3-3.7L104.5,137z"/>
					<path fill="#D88F69" d="M105.9,145c-0.3,0-0.8,0.8-1.5,1.4c-0.5,0.4-1.8,1.4-2.5,1.8c0.4,0,0.8-0.1,1.2-0.1
						c1.2-0.1,3.2-1.4,3.9-2.4c0.4-0.5,0.7-1.2,0.9-1.8C106.8,144.5,106.2,145,105.9,145z"/>
				</g>
				<polygon fill="#162A3D" points="92.8,126.8 93.2,130.1 100,127.7 93.7,129.1 				"/>
				<g>
					<path fill="#F2A983" d="M91.8,69.9c-2.2-1.5-5.6-1.3-8,0.3c-2.4,1.6-3,3.6-3.3,4.5c-0.2,0.9-0.5,1.6-0.7,2.3
						c-0.2,0.7,0.5,1.5,0.5,1.5c-0.8,1-0.2,3.2,0,3.8c-0.1,0.2-0.1,0.4-0.1,0.5c0,0.3,0.2,0.5,0.4,0.6c0.2,0.7,0.3,1.6,0.3,2
						c0,0.5-0.1,2.4,2.1,2.4c2.1,0,5.2-1.2,7.1-2.8c1.9-1.5,4-4.7,4.5-7.8C95.2,74,93.9,71.3,91.8,69.9z"/>
					<g>
						<path fill="#D88F69" d="M81.5,83.5c0-0.1-0.5,0-0.9-0.1l0,0c0.2,0.7,0.3,1.6,0.3,2c0,0.4,0,1.6,0.9,2.1
							C82,84.8,81.5,83.5,81.5,83.5z"/>
						<path fill="#D88F69" d="M81.5,79.7c0.3-0.9-1.6-1.9-1.6-1.9c0.2,0.4,0.4,0.7,0.4,0.7c-0.8,1-0.2,3.2,0,3.8l0,0
							C80.6,81.6,81.3,80.4,81.5,79.7z"/>
					</g>
					<path opacity="0.25" fill="#F2A983" enable-background="new    " d="M91.8,69.9c-2.2-1.5-5.6-1.3-8,0.3c-2.4,1.6-3,3.6-3.3,4.5
						c-0.1,0.2-0.1,0.4-0.2,0.7c3.3,2,8,0.9,8,0.9s0.6,1.2,0.4,2.1c-0.2,0.9,0.5,1.2,0.3,3.4s-2.3,3.6-2.3,3.6L86.3,87
						c1.4-0.5,2.7-1.3,3.8-2.1c1.9-1.5,4-4.7,4.5-7.8C95.2,74,93.9,71.3,91.8,69.9z"/>
					<path fill="#563317" d="M87.5,68c-4.5,0-7.4,3.7-7.9,5c-0.5,1.3,0.3,2.3,3.3,2.9s5.6-0.3,5.6-0.3c0.6,0.5,1,1.9,0.8,2.6
						c-0.2,0.8,0.4,1.1,0.5,1.9c0.1,0.9,0,1.6-0.7,3c-0.7,1.4-3.1,2.5-3.7,2.6c-0.5,0.1-0.7-0.4-1.1-0.9c-0.4-0.5-1.8-1.4-2.8-1.5
						c-0.2,0-0.8,0-0.8,0.2c-0.1,0.2,0.1,1.5,0.1,1.5s-0.3,1.1,0,1.9c0.3,0.8,1.1,1.3,2.9,1.2c1.8-0.1,4.7-1.5,6.3-2.8
						c0.7-0.6,1-3.5,1.1-4.4c0.1-0.9,1.2-2,1.6-1.9c0.4,0,1.1,0.9,1.1,0.9s1-2.1,1.2-5.3C95.1,71.5,92,68,87.5,68z M83.6,85.8
						c-0.1,0.6-0.7,0.7-1,0.6c-0.5-0.2-0.2-0.7-0.8-0.9c-0.5-0.2-0.5,0.4-0.7,0.4c-0.2-0.1-0.3-1.2-0.2-1.3c0.1-0.2,0.5-0.1,0.7,0
						C82.5,84.8,83.7,85.1,83.6,85.8z"/>
					<path fill="#F2A983" d="M91,82.8c0.3,0.2,0.9,0.4,2-0.9c1.2-1.3,1.2-2.4,0.6-2.8c-0.6-0.4-1.1-0.2-1.4,0.3
						C91.8,79.9,91,82.8,91,82.8z"/>
					<path fill="#49260A" d="M88.5,75.7c0.3,0.2,0.5,0.6,0.7,1.1c0.9-1.1,2.7-2.5,2.7-2.5C90.9,74.8,88.5,75.7,88.5,75.7z"/>
					<path opacity="0.25" fill="#F2A983" enable-background="new    " d="M91,82.8c0.3,0.2,0.9,0.4,2-0.9c1.2-1.3,1.2-2.4,0.6-2.8
						c-0.6-0.4-1.1-0.2-1.4,0.3C91.8,79.9,91,82.8,91,82.8z"/>
				</g>
			</g>
		</g>
	</g>
	<g>
		<path fill="#1A272B" d="M27.8,226.2c0,0,1.1,1.1,0.6,2c-0.5,0.9-2,0.8-2.7,0c-0.6-0.8-3.2-4.2-5.2-6c-2.1-1.8-2.4-2.1-2.4-2.1
			s-3,1.7-2.9,3.9c0.1,2.1,2.4,3.8,2.4,6.1c0,2.2,0,4.1,0,4.1h1.1c0,0,0-4,0-4.7c0-0.8,0.9-1.8,2.1-1c1.2,0.8,5.1,4.5,7.4,4.6
			c2.4,0.1,4.5-2.4,5.8-3.6c1.3-1.2,1.7-2.2,1.3-2.7C34.9,226.1,27.8,226.2,27.8,226.2z"/>
		<path fill="#1A272B" d="M29.4,206.8c0.8,0,2.8-0.1,4.1,1.3c1.4,1.4,2.9,3.7,3.6,4.1c0.8,0.4,1.3-0.1,1.1-0.6
			c-0.2-0.5-0.9-0.6-0.9-0.6l-0.6-1.1c0,0,2.8-1.6,3.5-1.4c0.7,0.2,1,2.7,0,5.3c-1,2.5-1.4,2.5-3.2,2.3c-1.8-0.2-5.3-1.6-5.3-1.6
			s-0.6,2.4-0.3,5.6l-0.9,0.2c0,0-0.2-4.1-0.7-5.3c-0.4-1.2-2-2.6-2.4-4.5C27.1,208.5,29.4,206.8,29.4,206.8z"/>
		<path fill="#BD8668" d="M29.5,206.8c0.8,0,2.7-0.1,4,1.3c1.4,1.4,2.9,3.7,3.6,4.1c0.8,0.4,1.3-0.1,1.1-0.6
			c-0.2-0.5-0.9-0.6-0.9-0.6l-0.6-1.1c0,0-0.4-2.8-0.9-4.6c-0.3-1.1-1-2.8-1.4-3.9c-1.5,0.7-4.4,1.3-5.3,1.5
			C29.4,204,29.7,205.6,29.5,206.8z"/>
		<path fill="#BD8668" d="M20.5,222.2c2.1,1.8,4.6,5.2,5.2,6c0.6,0.8,2.1,0.9,2.7,0c0.4-0.8-0.2-1.6-0.5-1.9c-1.5-0.6-2.2-3.1-2-6.1
			c0.1-1.8,0.4-3.1,0.6-3.8L21,214c-0.6,4.2-2,5.7-2.7,6.2C18.5,220.5,19.1,221.1,20.5,222.2z"/>
		<path fill="#D88F69" d="M59.5,128.4c0.3-0.8-0.4-1.8-0.6-1.9c-0.2-0.2-0.7,0.5-1.2,0.8c-0.5,0.3-1.4,0.6-1.4,0.6l0.2,0.1
			c0,0-1.9,3.7-1.9,3.8c0.1,0.2,1.8,1.4,2.5,0.9C57.9,132.1,59.3,129.2,59.5,128.4z"/>
		<path fill="#1A272B" d="M28.7,203c0,0,5-0.8,6.3-1.9l-4.3-15.5l-6.6,5.1L28.7,203z"/>
		<path fill="#1A272B" d="M10.4,144.3c0,0-4,6.3-3.3,12.5c0.7,6.3,7,7.8,7,7.8l6.1,9.1l-1.4-20.3l-3.2-4.7L10.4,144.3z"/>
		<path fill="#273438" d="M15.5,113.3l-3.7-4.7c0,0-2.5,0.6-2.1,8.6c0.3,8,0.1,15.3,0,17.8c-0.1,2.5,4.3,9.2,4.3,9.2l3.4-6.1
			L15.5,113.3z"/>
		<path fill="#F2A983" d="M28.8,112.8c0,0-0.4-4.4,0.2-6c0.6-1.7,1.2-1.9,1.9-2.1c0.6-0.2,1.8,0.1,3-2.6c1.2-2.7,0.7-3.8,0.9-4.9
			c0.2-1.1,0.5-1.9,0.3-3c-0.2-1.1-0.7-5.1-4-6.4c-3.3-1.3-7.2-0.9-9.2,0.4c-2.1,1.3-3.7,4.3-3.5,7.3c0.1,3,1.8,4.8,1.9,6.8
			c0.1,2-1.1,4.6-2.2,6.2c-1.2,1.6,1.5,3.8,3.2,4.5C25,114.6,28.8,112.8,28.8,112.8z"/>
		<path fill="#D88F69" d="M30.6,101.9c-0.3-2-0.3-4.1-0.3-4.1l-3.6,2.9c0,0,0.6,7.5-1.5,10.9c-0.4,0.7-0.4,1.3-0.2,1.9
			c2.1-0.1,3.7-0.8,3.7-0.8s-0.4-4.4,0.2-6c0.6-1.7,1.2-1.9,1.9-2.1c0.3-0.1,0.7,0,1.2-0.3C31.4,103.8,30.7,103,30.6,101.9z"/>
		<path fill="#273438" d="M19.5,217.8l7,2.9c0,0,5.4-29.4,6.4-33.2c1-3.8,2-19.4,2-23.7s-1.9-12-1.9-12s-12.7-0.4-17.5-3.2
			c0,0-3.4,6.1-2,12.2c1.4,6.1,5.2,8.8,5.9,11.4c0.7,2.6,2.1,16.5,2.1,16.5S20.4,205.2,19.5,217.8z"/>
		<path fill="#344145" d="M6.2,154.4c0,0,0.3,2.4,8.9,5.8c9.9,3.8,20.5-2.9,20.5-2.9s-3.1-12.5-3-14.3c0.2-1.8,3-8.4,3.6-10.2
			s3.1-2.3,3.1-7.5c0-3.4-4.2-9.1-7.4-11.3c-2.4-1.7-6.7-2.2-11.2-3.7c-4.5-1.5-3.2-2.2-3.2-2.2s-3.4-1.7-5.3,0
			c-1.9,1.7-2.5,5-1.4,8.6c1,3.6,5.7,9.7,4.5,16.6C14.2,140.3,8,144.2,6.2,154.4z"/>
		<path fill="#FFFFFF" d="M18.5,106.4c0,0,0.4,0.5,4.4,2c4.9,1.8,8,4,9.7,6.1c0,0-8.7-0.9-12.7-2.1s-3.6-4.8-3.6-4.8L18.5,106.4z"/>
		<g>
			<path fill="#613323" d="M34.4,89.6c-1-1.9-3-4.6-9.8-3.6s-7.3,7.8-6.7,11.1l2.1,5.7c0.1,0.1-0.1,2.1,2.1,2.9c2.3,0.8,4.2,0.3,5-1
				c0.8-1.3,1.1-3.4,1.6-4.3c0.8-1.8,2.4-2.3,2.8-1.1c0.1,0.2,0.2,0.4,0.2,0.3c0,0,0.1-0.1,0.2-0.1c0.3-0.1,0.7-1.9,1.1-3
				c0.4-1,1.3-3.3,1.7-3.8C34.6,92.7,35.4,91.5,34.4,89.6z"/>
		</g>
		<path fill="#F2A983" d="M30.9,102.2c-0.1,0.2-1.5,0.4-1.3-2c0.1-2.4,1.7-3,1.7-1.3C31.4,100.6,30.9,102.2,30.9,102.2z"/>
		<g>
			<path fill="#542616" d="M31.5,99.3c0.1,0.2,0.2,0.4,0.2,0.3c0,0,0.1-0.1,0.2-0.1c0.3-0.1,0.7-1.8,1-2.9c-0.4,1-1.3,1.7-2,1.1
				c-0.8-0.7-3.9,2.4-6.1,3.3c-2.3,0.9-2.8-1.5-2.9-1.6l-3.1,0.3l1.1,3.1c0.1,0.1-0.1,2.1,2.1,2.9c2.3,0.8,4.2,0.3,5-1
				c0.8-1.3,1.1-3.4,1.6-4.3C29.5,98.5,31.1,98,31.5,99.3z"/>
			<path fill="#542616" d="M33.1,96.2L33.1,96.2C33,96.2,33.1,96.2,33.1,96.2z"/>
		</g>
		<path fill="#542616" d="M22.6,99c0,0,2.2,2.1,4.7-0.7c0,0-2.8,1.1-3.8,0.2c0,0,0.4-2,1.7-2.6c0,0-1.7,0-2.6,0.8
			c0,0,0.1-1.4,0.5-2.1c0,0-2.7,0.7-3.2,2.6C19.5,99.1,22.6,99,22.6,99z"/>
		<path fill="#D4DBDF" d="M19.2,98.5c0,0,0.2-2.4,1.9-2.1c1.4,0.2,2.1,1.5,1.8,2.9c-0.3,1.4-1.8,2.7-2.8,2
			C19.1,100.7,19.2,98.5,19.2,98.5z"/>
		<g>
			<path fill="#613323" d="M14.2,124.9c-0.1,0.1-0.1,0.1-0.1,0.1C14.1,125.1,14.1,125,14.2,124.9z"/>
			<path fill="#613323" d="M22.9,127.2c0-2.7-1.1-12.7-0.9-16.3c0.2-3.6-0.5-9.8-0.1-10.5c0.5-1.1-0.1-2.9-1.9-2.9
				c0,0-2.2,1.1-2.8,7.5c-0.3,3.2-0.8,7.7-1.3,11.5c-0.9,4.5-1.4,7.7-1.7,8.4c0.2-0.2,0.6-0.7,1-1.5c0,0.5-0.1,0.9-0.1,1.2
				c0,0.4,0,0.7,0.1,1.1l0,0c-0.3,4.1-0.6,5-0.6,5s0.6-1.2,1.3-2.7c0.2,2.6,1.7,6.2,1.7,6.2s-0.5-2.5-0.2-3.6c0,0,0.3,1.1,0.9,1.8
				c0,0,0-0.8,0.2-1.7c0.4,1.9,1.1,3.8,1.1,3.8c0.2-0.5,0.4-1.8,0.5-3.2c0.4,1.2,0.7,2.5,0.7,2.5c0.5-0.6,1.3-3.4,1.3-3.4
				c0.1,0.7,0.1,1.7,0.1,1.7C23.1,129.3,22.9,127.2,22.9,127.2z"/>
		</g>
		<path opacity="0.5" fill="#273438" enable-background="new    " d="M31.1,132.5c-1,4.2-2.2,8.2-2.7,13.1c-0.3,3.4,0,10.6,0.2,14.8
			c4.2-1.2,7.1-3,7.1-3s-3.1-12.5-3-14.3c0.2-1.8,3-8.4,3.6-10.2s3.1-2.3,3.1-7.5c0-1.3-0.6-3-1.6-4.7l-7.2,4.4
			C30.8,125.2,32.1,128.3,31.1,132.5z"/>
		<path fill="#F2A983" d="M55.1,125.8c0.3-0.1,1.3-2.6,1.8-2.5s1,0.9,0.4,2.1c-0.5,1.2-1,2.1-0.6,2.5c0.4,0.3,1.3,1.7,0.9,2.7
			c-0.4,1.1-0.8,1.5-2.4,1.8c-1.6,0.3-8.4,3.5-8.4,3.5l0.1-5.5c0,0,4.2-0.3,4.7-0.6C52.2,129.3,53.6,126.5,55.1,125.8z"/>
		<path fill="#414E52" d="M47.7,130.2c0,0,1.7,3-1.5,6.4c0,0-3.7-0.1-5.3-0.5c-1.5-0.3-11.3-10.3-12.4-12.6
			c-2.1-4.4-0.5-7.7,2.9-8.1c3.1-0.4,4.8,1.2,6.7,5.1c2,3.9,6,9,6,9L47.7,130.2z"/>
		<path fill="#344145" d="M46.2,136.6c1.1-1.2,1.6-2.4,1.8-3.4c-1,0-2.9-0.1-3.7-0.1c-1.2-0.1-2.1,0.7-2.5,1.5
			c-0.3,0.6-1.6,0.6-3.4-0.3c1.2,1.1,2.1,1.8,2.5,1.9C42.5,136.5,46.2,136.6,46.2,136.6z"/>
	</g>
</g>
<g>
	<g>
		<path fill="#C5A87C" d="M181.2,7.8c0,0-0.8,1.5-0.8,3s0.1,1.3,0.3,2.2c0.2,1,0.9,3.9,0.2,4.5c-0.7,0.7-2.2-0.1-2.2-0.1
			s0.7,1.5,2.1,0.9c0,0,0.3,1.4-1.2,1.7c0,0,1.1,0,1.3-0.4c0,0,0.2,0.5-0.2,1.2s0.7,0.2,1.6-0.7c1-0.8,1.4-8.9,1.5-9.1
			C183.9,10.7,181.2,7.8,181.2,7.8z"/>
		<path fill="#F2A983" d="M172.9,37c-0.3-0.5-0.7-1.1-1.6-1.4c-2.1-0.9-4.3,0-4.3,0c-2.7,0.7-14,4.2-15.8,4.4
			c-1.9,0.2-2.5-0.8-5-1.9c-2.5-1.1-3.8-1.1-4-0.5c-0.2,0.7,2.9,1.4,3.1,2c0.1,0.3-2.3,0.8-4.1,0.7c-1.9-0.1-3.1-0.3-3.9,0
			c-0.8,0.3,0.2,1.6,0.4,2c0.3,0.4,2.9,1.9,4.9,2.2c2.1,0.3,4.1,0.1,5.4-0.4c1.3-0.5,4.5-0.8,4.5-0.8s8.9,0.2,13.4-0.8
			c4.3-1,5.5-1.4,7-3.4C172.9,38.4,172.9,37.7,172.9,37z"/>
		<g>
			<path fill="#B27454" d="M178,123.7c0,0-1.6,1.7-0.8,3.3c0.9,1.5,3.9,0.9,4.5-0.3c0.6-1.2,2.3-3.5,3.1-4.9
				c0.8-1.4,2.4-4.1,2.4-5.1s-1-1.2-1.2-2.4c-0.2-1.2-0.6-2.4-0.1-5.4c0.5-3.1,0.8-5.5,1-7.9c0.1-2.4-0.7-8.4-1.1-10.3
				c-0.4-1.9-0.3-19.2-0.3-19.2l-1.7-1.3c0,0-1.4,0.4-3-2.7c-1.7-3.1-4.3-8-5.9-9.2c0,0-1.5,6.1-0.5,13.6s2.7,14.6,3,16.4
				c0.3,1.7,0.4,3,0.9,4.8s2.3,15.2,2.7,18.2c0.4,3,0.5,5.6-0.2,7.6C180.1,121,178,123.7,178,123.7z"/>
			<path fill="#2E373A" d="M178.2,123.5c0,0-0.8,1.9,0,2.6c0.8,0.7,2.5,0.6,3.2-0.1c0.6-0.8,2.6-3.6,3.1-4.6c0.6-0.9,2.4-4,2.3-5.6
				c0,0,1,0.3,0.7,1.8s-1.3,5.1-1.7,6.5c-0.3,1.4-0.3,2.1-0.3,2.1l-0.5,0.1l0.2-3.5c0,0-1.3,1.3-1.8,2.4c-0.5,1.1-0.1,2-1.3,2.9
				c-1.2,0.9-3.2,1.6-4.6,1.9c-1.3,0.3-3.2,0.6-3.4,0.2c-0.2-0.4,0.3-1.2,0.8-2.2c0.6-0.9,1.1-1.5,1.4-2.2
				C176.7,125,177.8,123.7,178.2,123.5z"/>
			<path fill="#CC8E6E" d="M183.9,70.3c0,0-0.2,11.3,0,16.6c0.2,5.3,0.9,7.5,1.6,10s1.7,8,1.5,13.3c-0.2,5.3-0.3,6.1-0.4,7.9
				c-0.1,1.9-0.5,7.2-0.9,8.7c-0.4,1.5-1,2.1-1.2,3.2s-0.9,3.4,1.5,3.6c2.5,0.2,3.8-1.8,4.5-4.1c0.8-2.3,0.9-5.5,1.2-7.1
				c0.3-1.7,0-3-0.3-3.8s-0.3-2.4,0-3.6c0.3-1.2,2.4-11.9,2.4-16.3s-1.5-4.1-1.4-6.7c0.1-2.6,1.6-9.7,2.1-11.8
				c0.5-2.1,4.2-14,1.6-18.4C195.9,61.9,188.6,62.2,183.9,70.3z"/>
			<path fill="#313131" d="M193.1,92.1c0,0-2.9-1.6-7.3-1.3c-8.5,0.6-7.6,1.6-8.5,0.6c0,0-4.3-21.5-4.2-26.8c0.3-7.4,3-10.8,3-10.8
				s2.1,2.8,4.8,3.6c2.9,0.9,11-0.4,13.6-3.2c0,0,3.5,4.1,3.3,10.8C197.7,70.6,193.1,92.1,193.1,92.1z"/>
			<path fill="#2E373A" d="M191.2,118.1c0,0,0.3,1.7,0.1,3.4c-0.2,1.7-0.8,5.6-1.3,6.8c-0.5,1.3-2.7,2.7-4.4,2.2
				c-1.7-0.4-1-1.2-1-1.2s-0.8,1.1-1.2,2.8s-0.6,2.8-0.3,3.3c0.3,0.5,1.4,0.2,2.6-0.4c1.3-0.5,4.1-1.8,4.7-3.5
				c0.7-1.7,0.7-2.3,0.9-3.7s0.7-3.2,1.2-4.4c0.5-1.2,0.9-2.8,0.4-3.9C192.5,118.6,191.2,118.1,191.2,118.1z"/>
		</g>
		<path fill="#5099DA" d="M183.4,19.9c-0.1,0-0.3,0-0.5,0h-0.1H183.4z"/>
		<path fill="#7AB9EC" d="M180.5,57.8c-1.6-0.5-5.6-2.3-5.8-3.5c-0.3-1.3,0.8-2.3,1.2-3.4c0.4-1,0-8,0-8s-5.5-3.1-3.3-7.7
			c2.3-4.9,3.3-4.5,4.4-7.8c1-3.3,3-7.4,3-7.4s4-1.2,8.3,0.1s6.3,2,7.6,3.3c1.4,1.4,5.7,6,5.7,7.5c0.1,1.6-2.7,9.2-4.3,11.4
			c-1.6,2.2-3.4,5.8-3.6,7.2c-0.2,1.4,0.7,4.2,0.9,4.4c0.1,0.2,0.8,0,0,0.9c-0.8,0.9-2.2,3-6.9,3.4
			C183.1,58.7,182.9,58.6,180.5,57.8z"/>
		<path fill="#5B97C1" d="M176.9,27.4C178,24.1,180,20,180,20l-0.8,0.2c-2.4,1.3-5.1,7.3-6,8.6c-0.7,1-3.3,3.3-4.6,5
			c-0.4,0-0.7,0.1-0.7,0.4c0,0.5-0.4,1.1-0.4,1.1l-0.5,0.1c0,0,1.2,0.3,2.2,2.4c0.6,1.2,0.6,2,0.4,3.4l2.1-0.7c0,0,0.6-0.1,1.3-0.2
			c-1-1.3-1.6-3.2-0.6-5.3C174.9,30.3,175.8,30.7,176.9,27.4z"/>
		<path fill="#D88F69" d="M194.1,21.5c-0.9-1.3-0.6-4-0.6-4l-6.6,0.7c-0.7,2.2-4.6,4.4-5,5.1c-1.9,2.8-2.2,13.2-1,13.9
			c0,0,4.8-6.3,12.3-11.4c1.4-1,1.6-2.7,1.6-2.7S195,22.8,194.1,21.5z"/>
		<path fill="#95CEF4" d="M180.7,37.5c0,0,0.7-1.5,2.8-4c3-3.7,8.5-7.6,9.8-9.6c0.9-1.5,0.8-2.3,0.8-2.3s2.1,1.2-2.4,7.2
			c0,0-0.6-0.3-4.2,2.4C184.6,33.2,181.5,36.5,180.7,37.5z"/>
		<path fill="#A7DCF9" d="M181,38.2c0,0-3-12.6,5.1-18.4c0,0-3.8,1-7.5,6.6C178.7,26.4,178.4,33.8,181,38.2z"/>
		<path fill="#95CEF4" d="M186.1,19.8c0,0-2.9,0.3-5.5,2.5c-2.6,2.1-6.3,5.8-5.6,5.5c0.7-0.2,3.7-1.4,3.7-1.4
			C182.3,20.8,186.1,19.8,186.1,19.8z"/>
		<path opacity="0.5" fill="#50C4F2" enable-background="new    " d="M175.2,42.5c0.4,0.3,0.6,0.4,0.6,0.4s0,0.5,0.1,1.2
			c3.5-1.3,3.9-3,3.9-3C178.4,42.6,176.7,42.8,175.2,42.5z"/>
		<path fill="#5B97C1" d="M193.7,40.3c0,0-0.1,4.7-5.2,6.5c-5.1,1.8-8.2-3.6-8.2-3.6s1.9,4.2,5.7,4.4c3.8,0.2,6.2-0.9,6.7-0.7
			c0.4,0.2,0.1,5,0,6.3c-0.1,1.1,0.3,2.6,0.5,3.2c0.6-0.5,1-1.1,1.3-1.4c0.8-0.9,0.2-0.7,0-0.9c-0.1-0.2-1.1-3-0.9-4.4
			c0.1-0.9,1-2.8,2-4.6c0.1-1.7,0.2-3.6,0.2-3.6L193.7,40.3z"/>
		<path opacity="0.5" fill="#50C4F2" enable-background="new    " d="M173.4,33.5c-0.1-0.2-0.2-0.5-0.3-0.8l-0.2-2.4
			c0,0-0.8,3.8-2.2,5.6c-0.6,0.7-0.6,1.3-0.6,1.3c0,0.2-0.5,0.3-1.2,0.4l0,0c0,0,0,0.1,0.1,0.1c0.1,0.1,0.1,0.2,0.2,0.3
			c0.6,1.2,0.6,2,0.4,3.4l2.1-0.7c0,0,0.6-0.1,1.3-0.2c-1-1.3-1.6-3.2-0.6-5.3C172.9,34.6,173.2,34,173.4,33.5z"/>
		<path fill="#95CEF4" d="M167.9,35.3l-0.3,0.1l-1.7,0.5c0,0,2.7,3.2,2.6,5.9c0,0,1,0.1,2.2-0.7C170.6,41.1,170,36.9,167.9,35.3z"/>
		<path fill="#F2A983" d="M181.7,9.5c0,0-0.1,3.8-0.3,4.7c-0.2,0.9-0.4,2.5,0.3,4.7c0.7,2.3,1.6,5.3,3.7,5.3c2.1,0,5.5-2.6,6.8-4.3
			s1.4-2.4,1.4-2.4s2.7-4.9,2.9-7.7s-1.4-7.5-6.4-7.8C185.1,1.7,181.9,5.6,181.7,9.5z"/>
		<path fill="#DD9576" d="M184.3,20c-0.3-0.1-0.6-0.3-0.6-0.7c0-0.4,0.9-2.1,1-3c0.2-0.9-0.8-1.6-1.9-2.3c-0.5-0.3-0.9-0.5-1.3-0.7
			c0,0.3-0.1,0.6-0.1,0.8c-0.2,0.9-0.4,2.5,0.3,4.7c0.7,2.1,1.5,4.9,3.2,5.3c-0.1-0.9-0.4-1-0.3-1.2c0.1-0.3,0-0.2-0.1-0.6
			c-0.1-0.3-0.1-0.4-0.1-0.4c-0.8-0.2-1-1-1-1c0.3,0.2,1.1,0.4,1.1,0.4l0.1-0.3c0,0,0-0.3,0.1-0.4C184.8,20.4,184.6,20.1,184.3,20z"
			/>
		<g>
			<polygon fill="#6FCAF7" points="191.2,40 184.4,38.2 185.1,33.3 191.9,35 			"/>
			<polygon fill="#FFFFFF" points="190.9,39.5 184,37.8 185.1,33.3 191.9,35 			"/>
			<polygon fill="#979797" points="187.3,34.8 185.5,34.3 184.8,37.2 186.6,37.7 			"/>
			<polygon fill="#3B4447" points="188.8,34.6 187.7,34.3 187.9,33.6 189,33.8 			"/>
			<g>
				
					<rect x="189.1" y="34.4" transform="matrix(0.2454 -0.9694 0.9694 0.2454 107.8996 210.6145)" fill="#979797" width="0.2" height="3.1"/>
				
					<rect x="189" y="35" transform="matrix(0.246 -0.9693 0.9693 0.246 107.1193 210.8948)" fill="#979797" width="0.2" height="3.1"/>
			</g>
		</g>
		<path fill="#2E373A" d="M192.5,123.5c-0.2,0.6-0.3,0.5-0.4,1s-0.3,4.5-0.4,5.2l0.7-0.1C192.4,129.7,192.5,124.7,192.5,123.5z"/>
		<g>
			<path fill="#F2A983" d="M194.6,73.8c-0.2,1.6,1,4,0.3,6.4s-2.2,3.3-2.9,4c-0.7,0.6-0.7-0.3-0.5-1.1c0.3-0.8,0.4-4.7,0.1-5.6
				s-0.7,0.4-0.7,1.6c0,1.2-0.6,1.2-0.9,0.8s-0.6-2.5-0.3-3.5c0.3-1.1,0.7-2.6,1.1-3.3c0.5-0.8,1.4-1.7,1.8-3.1
				c0,0,1.3-12.3,2.6-15.4c0,0,1.1-1.1,2.9-1.1c1.9,0.1,2.3,1.2,2.1,3.2c-0.1,1.9-2.6,8.7-3.6,11.1
				C195.8,70.1,194.7,72.5,194.6,73.8z"/>
			<path fill="#D88F69" d="M195.1,77.9c-0.5,1.5-1.2,2.6-1.6,2.6c-0.4,0-0.5,0.5-0.6,0.8c-0.1,0.4-0.6,2.7-0.6,2.7
				c0.8-0.6,2-1.6,2.6-3.7C195.1,79.4,195.1,78.6,195.1,77.9z"/>
		</g>
		<path fill="#70CFFF" d="M195.4,23c0,0-0.6-1.2-1.2-1.4l0,0c0.2,0.2,0.9,2.5-2.4,7.2c0,0,0.6,0.3,1.1,1.2c0.5,1,1.3,3.2,1.9,2.6
			C195.2,31.9,196.7,26.9,195.4,23z"/>
		<path fill="#95CEF4" d="M200,29.5c-3.2-1.2-5.4,1.6-5.7,4.8c-0.3,3.2,0.5,10.3,0.5,11.7c0,1.5-0.6,6.5-0.5,7.4
			c0.1,1,0.7,1.2,0.7,1.2l-0.3,1.9c0,0,2,0.1,2.7,0.3c1.9,0.5,2.8,1,2.8,1l0.4-1.3l0.4-1.4c0,0,0.5,0,0.9-0.9c0.3-0.9,0.1-3.9,0-5.5
			c-0.1-1.6,0-8.5,0.2-10C202.1,37.2,203.2,30.6,200,29.5z"/>
		<path fill="#5B97C1" d="M201.8,54.2c0.3-0.9,0.1-3.9,0-5.5c-0.1-1.1,0-4.9,0.1-7.5c-0.5,2.2-0.9,5.7-0.8,6.8
			c0.2,1.6,0.4,4.8,0,5.9c-0.4,1.1-1.6,0.8-1.6,0.8l-1-3l0.4,3H197c0,0,1.5,0.3,3.1,0.8c0.3,0.1,0.5,0.2,0.7,0.3l0.2-0.7
			C201,55.1,201.5,55.1,201.8,54.2z"/>
		<path fill="#EBCEA2" d="M185.3,11.8c3.1-0.5,6.8,0.2,7.5,3c0.1,0.3,0.1,0.7,0.1,1c0,0.3,0,0.6-0.1,0.9c-0.3,1.5-1.4,3-1.9,4.6
			c-0.1,0.3-0.2,0.5-0.2,0.8s0,0.6,0,0.9c-0.6,1.7-0.6,3.9,0.1,5.8c0.1,0.3,0.2,0.6,0.4,0.9c0.9,2.4,3.2,2.4,5,3.3
			c-0.5-0.9-2.3-0.9-0.9-2.3c0.9-0.9,1.9,0.9,2.6,0c0.1-0.2,0.2-0.4,0.2-0.5c0.1-0.2,0.1-0.4,0.1-0.6c-0.1-0.6-0.1-1-0.3-1.2
			c-0.1-0.3-0.4-0.4-0.8-0.4c0.2,0.2,0.5,0.5,0.6,0.6c0.2,0.2,0.3,0.3,0.3,0.3c0.9-0.5,1.3-1.3,1.5-2.1c0.1-0.3,0.1-0.6,0.2-0.9
			c0.1-0.7,0.1-1.2,0.6-1.6c-0.3,0-0.6-0.1-0.8-0.2c-2.4-3.6,0.8-8.2-2.4-11.4c1.4,0.9,0.9,2.8,1.9,3.7c-0.5-1.4-0.5-2.3-0.6-3.5
			c0-0.3,0-0.6-0.1-0.9c-0.3-3.4-1.2-6.7-3.7-9.1c-1.4-0.7-2.4-0.6-3.2-0.2c-0.8,0.5-1.4,1.3-2.1,2.1c-0.7,0.7-2.1,2.3-3.1,3.8
			C185.2,9.9,184.6,11.3,185.3,11.8z"/>
		<path fill="#EBCEA2" d="M186.2,10l-0.8,1.8c0,0-1.3-1.4-2.5-1.4c-0.9,0-2.5,0.1-2.2,2.5c0,0-0.5-1.2-0.5-2.5
			c0-1.1,0.6-2.3,1.4-4.1c0.9-2.3,4.2-4.5,7.6-4.5c2-0.1,2.6,0.2,3,1.3C192.6,4.1,186.2,10,186.2,10z"/>
		<path opacity="0.36" fill="#C5A87C" enable-background="new    " d="M189.5,11c-1.1,0-2.3,0.3-3.1,0.6c1.6-0.2,4.4-0.3,5.3,1.2
			c1,1.7,1.6,3.3,1.2,5l0,0C194.7,13.9,191.5,10.9,189.5,11z"/>
		<path opacity="0.36" fill="#C5A87C" enable-background="new    " d="M182,9.8c-0.9,0.1-1.2,1-1.3,1.8c0.3-1.2,1.4-1.3,2.2-1.3
			c0.9,0,2,0.9,2.3,1.2C184.7,11,183.3,9.6,182,9.8z"/>
	</g>
</g>
<g>
	<path opacity="0.2" fill="#3D3D3D" enable-background="new    " d="M120.3,134.3c-0.8,0.8-13.7,10-6.3,12.7
		c7.3,2.7,13.3,0.3,16.9-0.9c3.6-1.2,1.5-3.1,5.5-4.8c3.9-1.6,19.2-10.5,16.8-13.7c-2.4-3.1-14.9-0.4-19.8,0.3
		C127.3,129,126.4,128.2,120.3,134.3z"/>
	<g>
		<path fill="#005369" d="M150.7,42.9c0,0,3,1.7,2.9,4.2s-2.3,4.5-2.3,4.5L150.7,42.9z"/>
		<path fill="#D78E69" d="M142.3,33.2c0.1-0.4,0.5-0.9,1-1.5c0.8-0.8,0.6-2.1-0.4-2.7c-0.3-0.2-0.5-0.4-0.6-0.5c0,0-1.6,5.9-0.8,7.7
			c0.1,0.2,0.2,0.3,0.3,0.4c0.4-0.4,0.7-0.6,0.7-0.6S142.1,34.2,142.3,33.2z"/>
		<path fill="#BC8568" d="M141.5,101.2c0,0-1.3,3-2.3,5.4c-1,2.3-5.7,11.7-7.3,14.5c-1.6,2.8-4.1,7-4.7,8.9c-0.6,2-1.6,7.3-1.6,8
			c0,0.6-0.1,0.6,0.2,0.9c0.3,0.3,1.3,1.3,0.6,1.5c-0.6,0.2-2.1-0.4-2.4-2.4c-0.3-2.1-2-7.9-2-7.9s0.6,0,1.1-0.7
			c0.4-0.7,3.4-13.1,3.7-14.9c0.3-1.8,3.2-6.5,4.2-8.5c1.1-2,1.3-1.7,1.7-3.6c0.4-1.8,0.5-5.6,0.5-5.6L141.5,101.2z"/>
		<path fill="#BC8568" d="M140.7,99.3c0,0,0,8.5,0.3,11s1.8,9.1,2.6,11.8c0.8,2.7,1.2,4.5,1.4,5.1c0.2,0.5,0.2,1.1,0.6,1.2
			c0.3,0.1,1.9,0.1,1.9,0.1s0.4,1.3,0.3,1.7c-0.1,0.5-1.8,0.9-2.1,0.9s-3.9-1.8-3.9-1.8l-2.5-2.5l-1.1-1.8c0,0,0.7-0.4,0.4-1.3
			s-3.6-9.9-3.6-9.9l1-15.3L140.7,99.3z"/>
		<g>
			<path fill="#F1A882" d="M125.9,76.4c-0.1-1-0.2-2.2-0.5-3.3c-0.3-1.1-1.5-2-1.3-3.6l-3.3-0.9c0,0-0.1,3.1-0.5,3.9
				c-0.3,0.8-1.1,3-0.9,4.2c0.2,1.3,1.4,3.1,1.8,3.3c0.4,0.2,1.4,2.5,1.8,2.5c0.4,0,0.4-0.7,0.4-1.2c0-0.6-0.2-1.5-0.2-2.2
				c0-0.8,0.2-2.4,0.4-3.1s0.6-1.3,0.7-0.7s0.3,3.3,0.9,3.3C125.9,78.6,126,77.4,125.9,76.4z"/>
			<path fill="none" d="M125.9,76.4c-0.1-1-0.2-2.2-0.5-3.3c-0.3-1.1-1.5-2-1.3-3.6l-3.3-0.9c0,0-0.1,3.1-0.5,3.9
				c-0.3,0.8-1.1,3-0.9,4.2c0.2,1.3,1.4,3.1,1.8,3.3c0.4,0.2,1.4,2.5,1.8,2.5c0.4,0,0.4-0.7,0.4-1.2c0-0.6-0.2-1.5-0.2-2.2
				c0-0.8,0.2-2.4,0.4-3.1s0.6-1.3,0.7-0.7s0.3,3.3,0.9,3.3C125.9,78.6,126,77.4,125.9,76.4z"/>
			<path fill="#D78E69" d="M125.4,73.2c-0.3-1.1-1.5-2-1.3-3.6l-2-0.5c-0.1,0.7-0.2,1.5,0.1,2.1c0.6,1.1,0.3,1.9,0,2.6
				c-0.3,0.7-1.3,2.3-1.3,2.9s-0.1,1.4,0.5,2c0.6,0.6,1.1,0.9,1.1,1.4c0,0.3-0.5,0.4-1,0.4c0.5,0.7,1.2,2.2,1.6,2.2
				c0.4,0,0.4-0.7,0.4-1.2c0-0.6-0.2-1.5-0.2-2.2c0-0.8,0.2-2.4,0.4-3.1s0.6-1.3,0.7-0.7s0.3,3.3,0.9,3.3s0.7-1.2,0.6-2.2
				C125.8,75.4,125.7,74.2,125.4,73.2z"/>
		</g>
		<g>
			<path fill="#F1A882" d="M161.3,76.5c-0.6-1-2.5-4.6-2.5-4.6l-3.1,1.2c0,0,1.3,1.5,1.3,2.3c0.1,0.8,0,2,0.5,3
				c0.5,1.1,0.4,1.8,0.5,2.1c0,0.3-0.6,0.6-0.6,0.6s-0.3,0-0.8-0.2c-0.5-0.2-0.4,0.2-0.3,0.4c0.2,0.2,0.7,0.8,0.9,0.8s0.7,0,0.7,0
				s0.2,0.7,0.4,0.7s0.7-0.2,1.1-0.5c0.4-0.4,0.7-0.2,0.7-0.2s0.3,0.3,0.5,0.2c0.1-0.1,1.2-1.5,1.3-2.3
				C162,79.4,161.9,77.5,161.3,76.5z"/>
			<path fill="#D78E69" d="M160.9,79.9c-0.1,0.1-0.3,0.4-0.4,0.4s-0.4,0.3-0.7,0.4s-0.5,0-0.6-0.4c0-0.4-0.2-2.2-0.4-3
				c-0.2-0.8-0.2-1.5-0.7-2.2c-0.3-0.4-0.9-1.6-1.3-2.4l-1.1,0.5c0,0,1.3,1.5,1.3,2.3c0.1,0.8,0,2,0.5,3c0.5,1.1,0.4,1.8,0.5,2.1
				c0,0.3-0.6,0.6-0.6,0.6s-0.3,0-0.8-0.2c-0.5-0.2-0.4,0.2-0.3,0.4c0.2,0.2,0.7,0.8,0.9,0.8s0.7,0,0.7,0s0.2,0.7,0.4,0.7
				s0.7-0.2,1.1-0.5c0.4-0.4,0.7-0.2,0.7-0.2s0.3,0.3,0.5,0.2c0.1-0.1,1.2-1.5,1.3-2.3c0-0.2,0-0.6,0-1c-0.3,0.1-0.6,0.3-0.6,0.3
				S161.1,79.8,160.9,79.9z"/>
		</g>
		<path fill="#FFFFFF" d="M159,71.6l0.7,1.6c0,0-0.3,1.4-1.5,1.9s-2.4-0.2-2.4-0.2l-1.1-2.2C154.7,72.7,157.7,73.2,159,71.6z"/>
		<path fill="#FFFFFF" d="M120.3,69v1.4c0,0,0.1,0.9,1.6,1c1.6,0.1,2.6-0.9,2.6-0.9l0.2-2.2L120.3,69z"/>
		<path fill="#D3DADD" d="M149.4,72.7c0,0,1.1,3.7,0.4,7.3c-0.7,3.5-7.3,21.8-7.3,21.8s-3.8,0.3-6.2-0.2c-2.5-0.6-3.8-2.2-3.8-2.2
			l0.1-5.6l-2.3-14.4c0,0-3.2-2.4-2.1-7.5C129.3,66.7,149.4,72.7,149.4,72.7z"/>
		<path fill="#003A50" d="M130.4,33.8c0,0-3.2-0.8-4.6,3c-1.4,3.8-2.6,11.6-3,13.6c-0.4,1.9-1.1,5.8-1.2,6.2c0,0.4-1.2,3.7-1.4,6.7
			c-0.3,3,0,6.1,0,6.1s0.3,1.8,2.6,1.2c2.3-0.6,2-1.4,2-1.4s0.7-4.3,1.5-6.5c0.8-2.2,1.4-7.8,2-9.7c0.6-1.8,2.2-8.5,2.8-11.4
			C131.7,38.7,132.5,35.4,130.4,33.8z"/>
		<path fill="#005369" d="M140.9,36.7h3.1c0,0,2.4,1.9,3.3,2.1c3,0.7,3.3,4.8,3.3,9.4c0.1,4.6-4.4,9.3-4.2,12.2s4.6,10.7,4.6,17.5
			c0,0-4.7,2.5-12,1.6c-7.3-0.9-11.9-4.8-11.9-4.8s0.8-6.4,1.7-8.4c0.9-2.1,3.2-6.6,3.9-8.6s-0.1-7.3-1.9-9.8
			c-1.8-2.5-4.2-7.1-3.4-10.6c0.9-3.5,2.4-3.5,2.4-3.5L140.9,36.7z"/>
		<path fill="#0D6076" d="M145.1,51.1c0,0-0.2-4.7,0-6.6c0.2-2,1.2-5.3,3.5-5.2c2.3,0.1,2.9,3.1,3.3,6.3c0.4,3.2,1.4,8,2.2,10.2
			c0.7,2.2,1.4,4.6,2.1,6c0.6,1.4,2.2,6,2.5,7.4c0.4,1.4,0.6,2.8,0.6,2.8s-0.3,1.4-1.5,2.1c-1.3,0.7-3-0.4-3-0.4s-4.1-7.2-4.8-9.2
			c-0.7-2-1.9-5.5-2.4-7C146.9,55.8,145.5,53.2,145.1,51.1z"/>
		<path fill="#0D6076" d="M144,36.7l-1.4-1.2c0,0-1.8,0.5-5.1,0c-3.3-0.5-4-1.8-4-1.8s-2.2,2.5,1.9,3.7
			C139.4,38.6,144,36.7,144,36.7z"/>
		<path fill="#F1A882" d="M146.3,22l-0.7,3c0,0,0.3,0.2,0.4,0.8s-0.6,5.7-1.4,5.8c-0.5,0.1-2.3-0.3-3.5-0.6c-1.2-0.3-2,0-2.6-1.9
			C137.7,27.1,146.5,21.2,146.3,22z"/>
		<path fill="#613323" d="M136.8,36.2c0,0,10.8,0.7,9.1,0c-4.3-1.8-3.8-11.4-3.3-11.6c0.5-0.2,3-0.7,3.5-2c0.4-1.3,0.5-2.9-0.4-4.6
			c-0.9-1.7-2.9-1.7-2.9-1.7s-1.2-1.1-3.5-1.1s-5,1.2-6.4,4s-3,13.1-2.5,14.5C130.8,35.2,132.1,35.4,136.8,36.2z"/>
		<path fill="#542616" d="M139.4,26.3c0.7-0.6,2.6-2.3,2.6-2.3s-2.8,5-1.8,8.4c0.4,1.3,1.3,2.3,2.4,3.1c-1.1-0.3-2.2-0.9-3.2-2.3
			c0,0-1.1-1.4-1-3.2C138.6,28.3,138.8,26.9,139.4,26.3z"/>
		
			<linearGradient id="SVGID_1_" gradientUnits="userSpaceOnUse" x1="118" y1="121.6815" x2="129.4212" y2="121.6815" gradientTransform="matrix(1 0 0 -1 0 258)">
			<stop  offset="0" style="stop-color:#3C3F41"/>
			<stop  offset="1" style="stop-color:#232628"/>
		</linearGradient>
		<path fill="url(#SVGID_1_)" d="M122.1,130c0,0-1.5,0.3-2.4,1.7c-0.8,1.3-0.4,3.6-0.4,5c0,1.3-1.3,4.6-1.3,4.6l0.7,0.2
			c0,0,2.7-5.9,2.7-5.5s1.1,1.9,1.5,3.9c0.4,1.9,1.1,2.4,3.2,2.7c1.6,0.3,3-1.3,3.2-1.9s0.5-1-0.9-1.4c-1.4-0.3-2.6-0.5-2.6-0.5
			s0.4,0.9,0,0.7c-0.4-0.2-0.8-2.5-0.9-4.2C124.9,133.6,124,130.4,122.1,130z"/>
		
			<linearGradient id="SVGID_2_" gradientUnits="userSpaceOnUse" x1="136.9259" y1="127.7" x2="150.1591" y2="127.7" gradientTransform="matrix(1 0 0 -1 0 258)">
			<stop  offset="0" style="stop-color:#3C3F41"/>
			<stop  offset="1" style="stop-color:#232628"/>
		</linearGradient>
		<path fill="url(#SVGID_2_)" d="M138.1,124.7c0,0-1.4,1.6-1.2,3.2c0.2,1.6,0.8,2.5,1.2,4.1c0.4,1.6,0.8,3.9,0.8,3.9h0.6
			c0,0-1.1-5.6-0.3-5.9c0.9-0.3,1.1-0.1,2.2,0.6c1.1,0.7,4.5,2.5,5.6,1.6s2.9-3,3-4c0.2-1-0.2-1.2-1.2-1c-1,0.2-3.7,0.8-3.7,0.8
			l0.3,0.4c0,0,1.6,0.2,1.3,0.8c-0.3,0.7-0.5,1-1.8,0.4c-1.3-0.6-3.2-3.1-4.4-3.7C139.4,125.2,138.1,124.7,138.1,124.7z"/>
	</g>
</g>
<g>
	<path opacity="0.2" fill="#3D3D3D" enable-background="new    " d="M259.6,181c-7.9-3.1-22.3-2.7-30.9,2c-5,2.8-1.4,5.8,2.7,6.8
		c4.1,1,12.2-0.7,12.7,3.2c0.5,3.9,4.8,10.5,10.6,11.4C260.5,205.3,278,188.1,259.6,181z"/>
	<g>
		<g>
			<path fill="#2E373A" d="M259,188.1c-0.2,0.3-0.9,1.1-1,1.2c-0.7,0.9-8.4,8.2-4.9,10.4c2.9,1.7,7.9-1.1,9-3.3
				c1-2.2,0.9-3.7,2.2-5.1c0.8-0.8,1.7-1.8,2-3.1c-0.2-1.9-1.9-1.8-3.3-2.1C261.6,185.7,260.1,186.6,259,188.1z"/>
			<path d="M266.4,188.2c0,0-0.1,0-0.2-0.1v0.1c-0.3,1.3-1.2,2.4-2,3.1c-1.3,1.3-1.1,2.8-2.2,5.1c-1,2.2-6.1,5-9,3.3
				c-0.4-0.3-0.7-0.6-0.8-1c0,0.1,0,0.1-0.1,0.2c-0.1,0.9,0.1,1.6,0.9,2c3,1.5,7.9-1.1,9-3.3c1-2.2,0.9-3.6,2.1-4.9v0.4
				c0,0,1.6-1.3,2.5-3L266.4,188.2z"/>
		</g>
		<g>
			<path fill="#F2A983" d="M235.6,131.6c-0.1,0-0.1,0-0.1-0.3s0.4-1.7,0.8-2.7c0.4-1.1,0.3-2.4,0.2-3.3c-0.1-0.9,1.7-3.3,2.8-5.1
				l-5-0.3c-0.5,1.1-0.9,2.1-1,2.6c-0.6,1.5-1.3,2.5-2.1,3.6s-2,2.6-2,3.2c-0.1,0.6,0.3,3.8,0.6,4.3c0.2,0.6,3.5,1,4.1,0.9
				s0.3-0.6,0.3-0.6c0.2-0.2,0.4-0.9,0.4-0.9s0.7,0.2,1.2,0c0.5-0.2,1.5-0.6,1.4-1.2C236.9,131.2,235.8,131.6,235.6,131.6z"/>
			<path fill="#D88F69" d="M233.2,133.9c-0.3-0.2-0.7-0.7-0.7-1.4c0-0.7,0.1-2.4,0-2.8c-0.1-0.4-0.6-0.9-1.1-1
				c-0.5-0.2-0.9-0.4-0.7,0.2c0.2,0.6,0.5,1.3,0.2,1.6c-0.3,0.3-0.5,0-0.3,0.8c0.2,0.8-0.2,1.4-0.2,1.4s2.1,0.6,2.4,1.7
				c0.4,0,0.8,0.1,1,0c0.5-0.1,0.3-0.4,0.3-0.5C234,134,233.4,134.1,233.2,133.9z"/>
		</g>
		<path fill="#E2E9ED" d="M232.7,123.2l-0.5,1c0,0,3.5,0.9,4.7,3l0.8-1.8C237.7,125.4,236,124,232.7,123.2z"/>
		<path fill="#162A3D" d="M245.4,85.3c0,0-0.4-1-0.7-1c-0.9,0.1-4.1,3-4.5,8.2s-0.2,13.2-0.2,13.2l-7.7,17.8c0,0,3.8,0.6,5.1,3.3
			l4.5-5.8L245.4,85.3z"/>
		<g>
			<path fill="#2E373A" d="M250.1,177.7l-8.7-0.4h-0.2c0,0-0.8,2-2.6,2.8c-1.8,0.7-6.6,2.7-7.9,4.5c-1.1,1.5,1.3,3.6,6.4,2.3
				c3.6-0.9,4-2.7,8.2-2.8c2.9-0.1,5.2-1.1,5.7-1.6L250.1,177.7z"/>
			<path fill="#000508" d="M245.3,184.1c-4.2,0.1-4.6,1.9-8.2,2.8c-3.9,1-6.3-0.1-6.6-1.3c-0.4,1.4,2,3,6.6,1.9
				c3.4-0.8,4-2.5,7.7-2.8l0.1,0.5c0,0,4.6,0,6.2-1.3v-1.4C250.6,183,248.2,184.1,245.3,184.1z"/>
			<path fill="#091929" d="M241.7,122.4c0,0-2.7,7-2.7,13s0.6,12.6,1,15.6c0.4,3.1-0.5,25.7-1.4,29.1c0,0,7.3,3.5,11.9-0.6
				c0,0,0.7-8.3,0.8-11.5s0.5-7.7,0.2-11.2c-0.3-3.1,0.2-6,1-11.8c0.7-5.3,0.6-18,0.6-18s-7.2-1.4-9.2-3
				C242,122.4,241.7,122.4,241.7,122.4z"/>
		</g>
		<path fill="#162A3D" d="M246.9,123c0,0-0.3,5,0.9,7.9c1.2,2.8,1.5,5.2,1.5,5.3c0.4,3.5,0.7,4.5,1.2,7.8c1,6.8,3.1,14.6,4.1,18.1
			s1.8,25.6,1.7,28.5c0,0,4.5,2,7.8,0.2c2.5-1.3,2.8-4.2,2.8-4.2s-0.2-9.8,0.2-12.5s-0.7-8.8-1.2-10.1c-0.5-1.3-1.4-6.8-0.8-11.2
			c0.7-4.4,0.2-23.9-2.5-26.5h-8.7L246.9,123z"/>
		<path fill="#D88F69" d="M258.9,78.9c0,0-0.5,3.7,0.9,5.5c0,0-5.6,7.4-9.9,6.3c-4.3-1.1-1.1-5.8-1.1-5.8L258.9,78.9z"/>
		<path fill="#D5DCE0" d="M259.2,85.8l1.7-0.3c0,0,4.7,3.4,8.4,7.3c0,0-3.3,15.2-4.6,17c-1.2,1.8-2.6,6-2.8,7.3s0.9,6.8,1.1,7.5
			c0.1,0.7,0.7,2.1-1.1,2.6c-1.8,0.5-9,2.1-14.6,1.1c-4.7-0.8-7.5-3.7-7.8-4.5c-0.4-0.8,1-3.5,1.3-4.7c0.3-1.2,0.2-6.4,0.5-9.1
			c0.3-2.7,0.3-8.1,0.3-8.1s-0.8-1.8-0.2-5.7s2.1-9.6,4-11.6l4.3-0.1c0,0-1.5,4.3-0.5,4.9s4.2,1.7,5.2,0.8
			C255.3,89.1,259.2,85.8,259.2,85.8z"/>
		<path fill="#7AB9EC" d="M251.4,93.1l-1.3-3.4l-2.2,2.6l0.5,2.4c0,0-4.3,12.6-4.6,26.4l2.1,3.8l2.3-2.3c0,0,0.6-14.8,1-18
			c0.4-3.1,0.6-9.7,0.6-9.7L251.4,93.1z"/>
		<path fill="#E2E9ED" d="M249.1,85.8c0,0-0.3,2.8,1.1,3.5c1.2,0.6,5.2-1,9.1-6l1.7,2.2c0,0-4.8,7.6-9.3,9l-1.5-4.5l-2.9,3.5
			C247.2,93.6,246.5,88.7,249.1,85.8z"/>
		<path fill="#73BDFF" d="M263.1,124.6c-0.1-0.7-1.3-6.1-1.1-7.5c0.2-1.3,1.6-5.5,2.8-7.3c0.8-1.1,2.1-7.3,3-11.7l-5.1,4.4
			c0.2,0.4-1.2,7.6-2,9.9c-0.8,2.3-1,4.7-0.8,7.8c0.1,2.3-2.6,5.4-2,7.8c1.9-0.3,3.5-0.7,4.2-0.9
			C263.8,126.6,263.2,125.2,263.1,124.6z"/>
		<path fill="#203447" d="M260.1,84.4c0,0-1.9,3.5-3.3,6.7c-1.1,2.5-4.6,9.7-6.6,21.6c-0.5,3-0.5,7.3-0.8,10.7
			c-0.5,5.2,0.2,8.8,0.5,11.7c0.4,3.2,3.7,6.2,7.8,5.7c5.9-0.7,9.5-3.5,9.5-3.5s-5.6-14.8-5-20.5c0.6-5.7,7.6-24.3,7.6-24.3
			l-7.5-6.6L260.1,84.4z"/>
		<path fill="#203447" d="M238.4,136.2c-0.8-0.6-0.6-0.6-1.1-1.7c0,0-0.9-1.9,0.9-10.3c1.8-8.5,2.9-18.2,2.4-22
			c-0.5-3.9,0.7-14.4,4.2-17.8l4.7-0.7c0,0-4.8,9.2-5.3,20.8c-0.1,1.8,0,3.1-0.2,5.3c-0.8,7.8-2.6,17.8-2.6,23.5
			C241.3,135.5,239.5,136.9,238.4,136.2z"/>
		<path fill="#334659" d="M262.5,85.6l-2.4-1.8c0,0-1.9,4.1-3.3,7.2c-1.1,2.4-4.9,10.2-6.6,21.6l9.6-15.3l-2.1-2.8l2.3,0.2
			L262.5,85.6z"/>
		<path fill="#334659" d="M247.5,83.6c-1.3,2.3-4.2,8-4.2,8l1.1,1.5l-1.8,0.8c0,0-0.4,11.5,1.3,15.8c0.1-2,0.2-3.8,0.2-5.3
			c0.5-11.6,6.3-20.8,6.3-20.8L247.5,83.6L247.5,83.6z"/>
		<g>
			<path fill="#F2A983" d="M257.6,67c-2.4-1.4-5.9-1-8.4,0.9c-2.4,1.9-3,4-3.1,4.9c-0.2,0.9-0.4,1.8-0.6,2.5
				c-0.2,0.7,0.6,1.6,0.6,1.6c-0.7,1,0,3.4,0.2,3.9c-0.1,0.2-0.1,0.4-0.1,0.5c0.1,0.3,0.3,0.5,0.5,0.6c0.2,0.8,0.4,1.7,0.5,2
				c0,0.6,0.1,2.5,2.3,2.4s5.4-1.6,7.3-3.4c1.9-1.7,3.8-5.1,4.2-8.5C261.5,71.2,260,68.4,257.6,67z"/>
			<path fill="#D88F69" d="M246.4,80.8L246.4,80.8c0.3-0.8,1-2,1.1-2.8c0.2-1-1.8-1.9-1.8-1.9l0,0c0.2,0.4,0.5,0.7,0.5,0.7
				C245.4,77.9,246.2,80.2,246.4,80.8z"/>
			<path opacity="0.15" fill="#F2A983" enable-background="new    " d="M257.6,67c-2.4-1.4-5.9-1-8.4,0.9c-1.9,1.5-2.7,3.1-3,4.2
				c0.4,0.7,0.9,1.3,1.6,1.4c2.2,0.3,4.3-0.5,5.4-0.2c0.9,0.2,1.4,1.8,1.6,3.2c0.2,1.4,1.1,1.9,0.9,3.5c-0.2,1.4-2,3.6-2.5,5.2
				c1.3-0.6,2.6-1.4,3.5-2.3c1.9-1.7,3.8-5.1,4.2-8.5C261.5,71.2,260,68.4,257.6,67z"/>
			<path fill="#563317" d="M257.8,66c-3.7-2.2-7.7-1-9.7,0.6c-0.7,0.6-1.5,1.4-2.3,3.1c-0.7,1.4-0.5,4.1,2.7,4.2
				c1.7,0,4-0.4,5.7-0.9c1.9,1.1,1.3,3.1,1.6,3.8c0.3,0.6,0.6,1.5,1,1.7c0.3,0.1,0.7-0.3,0.8-0.5c0.3-0.4,2.2-2.9,2.6,0.1
				c0.5-1.1,0.8-2.3,0.9-3.5c0.1-0.5,0.1-1,0.1-1.4l0,0C261.6,71.8,261.3,68.1,257.8,66z"/>
			<path fill="#634024" d="M255.7,76.7c0.3,0.6,0.6,1.5,1,1.7c0.3,0.1,0.7-0.3,0.8-0.5c0.3-0.4,2.2-2.9,2.6,0.1
				c0.5-1.1,0.8-2.3,0.9-3.5c0.1-0.5,0.1-1,0.1-1.4c-1.9,1.1-4.3,1.7-5.6,1.9C255.6,75.7,255.5,76.4,255.7,76.7z"/>
			<path fill="#D88F69" d="M248.3,86.1c0-2.8-0.6-4.1-0.6-4.1c0-0.1-0.5,0-0.9-0.1l0,0c0.2,0.8,0.4,1.7,0.5,2
				C247.3,84.4,247.3,85.6,248.3,86.1z"/>
			<path fill="#F2A983" d="M257.6,80.7c0.3,0.2,0.9,0.4,2.1-1c1.1-1.4,1-2.6,0.4-3c-0.6-0.4-1.2-0.1-1.5,0.4
				C258.3,77.6,257.6,80.7,257.6,80.7z"/>
			<path opacity="0.15" fill="#F2A983" enable-background="new    " d="M257.6,80.7c0.3,0.2,0.9,0.4,2.1-1c1.1-1.4,1-2.6,0.4-3
				c-0.6-0.4-1.2-0.1-1.5,0.4C258.3,77.6,257.6,80.7,257.6,80.7z"/>
		</g>
		<path opacity="0.5" fill="#162A3D" enable-background="new    " d="M259.6,123.9c2.6,0.8,4,8.9,3.9,15.3l0,0c2.4-1,3.8-2,3.8-2
			s-5.2-13.8-5-19.9l-11.5,2.6l-1.1,0.2l0,0c0,0.8-0.1,1.5-0.1,2.2l0,0c0,0.1,0,0.1,0,0.2c0,0.3,0,0.5-0.1,0.8c0,0.2,0,0.3,0,0.4
			C251.9,123.6,257.3,123.2,259.6,123.9z"/>
		<polygon fill="#162A3D" points="254,125.1 254.5,128.7 261.5,126.9 255.1,128 		"/>
		<g>
			<path fill="#F2A983" d="M246.3,116c0,0-0.5-0.8-1-1.1c-0.5-0.3-1.9-0.1-2.9-0.3c-1-0.1-2.2-0.5-2.8-0.6c-0.6-0.1-0.9,0.7-0.4,1.3
				c0.6,0.6,1.1,0.9,2.5,0.9c1.3,0.1,2.3,0,1.9,1.2C243.3,118.7,246.3,116,246.3,116z"/>
			<g>
				<polygon fill="#414E52" points="247.1,130 234.5,124.7 227.4,102.1 240,107.4 				"/>
				<polygon fill="#037F91" points="236.5,106.5 236,104.9 230.9,102.7 231.4,104.3 				"/>
			</g>
			<path fill="#F2A983" d="M249.7,118.1c-0.9,0.1-1.2-0.7-2.1-1.5c-1-0.8-1.8-1.6-2.5-1.7c-0.7-0.1-1.4,2-1.6,2.4
				c-0.2,0.3-0.9,0.7-1.5,0.9c-0.6,0.1-2.1,0.1-2.9-0.5s-2.3-2.4-2.3-2.4c-1.6-0.5,0.3,3.9,0.9,4.7c0.6,0.7,2.8,2.2,3.2,2.5
				c0.5,0.2,4-0.5,5.1-0.4c1.1,0.1,3.3,0.8,5.5,0.5l0.7-4.9C251,117.8,250,118,249.7,118.1z"/>
			<path fill="#D88F69" d="M251.7,120.5c-1.2-0.1-4-0.3-5.1-0.3c-1.4,0-3.5,0.6-4.9,0.6c-1.2,0-4.3-2.7-5.6-4.7
				c0.2,1.2,1.1,3.2,1.5,3.7c0.6,0.7,2.8,2.2,3.2,2.5c0.5,0.2,4-0.5,5.1-0.4c1.1,0.1,3.3,0.8,5.5,0.5L251.7,120.5z"/>
			<polygon fill="#E2E9ED" points="248.6,117.2 247.7,117.2 247.4,123 248.9,123 			"/>
			<path fill="#334659" d="M248.3,117l-0.2,6.4c0,0,17.3-0.3,20.1-2.6s3.8-12.9,3.9-15.1c0.1-2.3,0.9-8.8-1.8-12.9
				c-1.2-1.8-6-0.6-6.4,6.2c-0.4,6.7-0.7,15.9-0.7,15.9L248.3,117z"/>
		</g>
	</g>
</g>
<g>
	<path opacity="0.2" fill="#3D3D3D" enable-background="new    " d="M218.1,201c1.2-0.3,8.8-1,7,3.3c-1.7,4.2-9,8-3.4,9.3
		s15,6,4.3,10.4s-26.4,2.1-28.3-5.1C195.9,211.7,202.2,204.5,218.1,201z"/>
	<path fill="#A36C4E" d="M209.4,205.4c0,0,1.8-2.4,1.2-4.7c-0.6-2.2-4.8-11.5-4-17.5c0.8-6,1.7-7.7,1.7-10.3c0-2.7-0.9-6-0.9-6
		l9,1.4c0,0-0.3,4.9-1,8c-0.6,3.1-1.3,6.8-1.1,14.3c0.3,7.5,0.3,13.8,0.6,14.8c0.3,1,1.9,0.8,2.3,0.8s1.5,1.4,0,2.3
		C215.8,209.4,209.4,205.4,209.4,205.4z"/>
	<path fill="#151F22" d="M209.9,204.2c0,0-2.5,2.7-1.4,5.2c1.1,2.5,4,0.9,6,1.4s3.2,0.6,3.9-1.3c0.7-1.9,0.6-4.7,0.2-5
		c-0.5-0.3-1.6-0.2-2.2,0.4c-0.5,0.6-0.8,1.4-0.8,1.4s2,0.1,2,0.9c0,0.8-1,1.5-1.8,1C215,207.5,212.7,204.4,209.9,204.2z"/>
	<path fill="#BD8668" d="M209.4,209.2l0.2-0.9c0,0,1.6-1,2.5-3.4c0.8-2.4,2.2-12.4,3.6-15.9c1.4-3.6,5.5-10.4,5.5-10.4
		s-2.2-6.3-3.3-9l12.2-1.4c0,0,0.1,9.6-0.3,11.2c-0.4,1.6-4.4,9.5-6.1,13c-1.6,3.5-6.8,13.1-7.3,15.3c-0.5,2.2-1.7,7.9-0.3,8.9
		c1.5,1,2.7,1.5,1.5,2.2c-1.2,0.7-5.5-1.2-5.9-3.7C211.2,212.6,209.4,209.2,209.4,209.2z"/>
	<path fill="#2E383B" d="M209.6,208.3c0,0-3.9,1.2-3.5,3.3c0.3,2.1,1.3,4.5,0.9,6c-0.4,1.4-0.9,3.5-0.9,3.5h1c0,0,1-5,2-5.1
		s1.5,1.2,2.6,2.9s2.7,3,4.6,3c2,0,5-1.6,5.7-2.2s-0.1-1.5-1-1.7c-0.9-0.2-4.6-1.2-5.2-1.6c0,0,1.1,1.1,0.4,1.4
		c-0.6,0.3-1.2,0.5-1.8-1.5C213.8,214.3,211.8,209.4,209.6,208.3z"/>
	<path fill="#151F22" d="M211.6,218.8c0.8,1.2,1.8,2.2,3,2.7c-1.9-1.4-3.3-3.9-4-5.1c-1-1.6-3.6-4.1-3.6-4.1
		c-0.3-0.4-0.7-0.6-1.1-0.8c0.3,2.1,1.3,4.5,0.9,6c-0.4,1.4-0.9,3.5-0.9,3.5h1c0,0,1-5,2-5.1C210.1,215.8,210.5,217.1,211.6,218.8z"
		/>
	<path fill="#A46D4F" d="M217.8,169.6c0.4,1.1,1,2.7,1.6,4.2c3.3,0.4,7,0.5,10.6,0.3c0.1-2.9,0-5.9,0-5.9L217.8,169.6z"/>
	<path fill="#895234" d="M208.2,171.8c2,0.5,4.6,1.1,7.7,1.5c0.3-2.6,0.5-5.1,0.5-5.1l-9-1.4C207.4,166.8,208,169.4,208.2,171.8z"/>
	<path fill="#F2A983" d="M205.2,139.4l-0.7-7.3l1.3-7.6c-0.9-1.8-1.7-3.5-2-4.7c-1-3.4-1.2-8.4,2.2-10.4c0,0-5,0.6-5.5,4.5
		c-0.5,3.9-0.9,12.2-1,14.8c-0.2,2.6-0.6,6.8-0.4,8c0.2,1.2,3.8,8.4,3.9,10c0.1,1.3-0.1,3.1,0.4,4.1
		C203.5,147.2,204.2,142.4,205.2,139.4z"/>
	<path fill="#D88F69" d="M199.1,136.9c0.4,1.6,3.7,8.3,3.9,9.8c0.1,1.3,0,3.2,0.5,4.2c0.2-3.7,1.5-8.5,2.5-11.5l-1.4-7.3l1.3-7.6
		c-0.9-1.7-1.7-3.4-2-4.7l-1.8-3.1c0,0,1.5,3.7,1.5,5.4s-1,8.9-1.3,10.6c-0.2,1.7,0.2,1.9-0.4,3
		C201.2,136.6,200.1,136.9,199.1,136.9z"/>
	<path fill="#F2A983" d="M221.5,96.1c0,0-0.1,0.9,0,1.5c0.1,0.6,0.4,1.1,0.3,2.2s-1.3,4.5-1.6,5.1s-1.9,0.8-1.9,0.8
		s-0.7,1.9-0.4,3.3c0.3,1.4,0.7,2.6,2,3.4c0,0-3.6,1.1-8.2,0.9c-4.5-0.2-4.9-1.7-4-2.5c1-0.8,1.5-1.1,1.5-1.1s0.8-2.9,0.5-4.4
		c-0.4-1.5-2.9-6.3-2.4-9.9c0.4-3.6,2.6-6.7,8.1-6.2C220.9,89.7,221.5,96.1,221.5,96.1z"/>
	<path fill="#D88F69" d="M219.9,112.4c-1.3-0.8-1.7-2-2-3.4c-0.3-1.4,0.3-3.3,0.4-3.3c0.1,0,1.3-0.1,1.8-0.6
		c-0.7,0.1-1.1,0.1-1.4-0.2c-0.3-0.4,0.6-4.8,0.6-4.8l-1.2-1l-2.8-0.3c0,0-2.3,6.3-1.4,10c0.7,3.1,4.2,4,5.3,4.2
		C219.7,112.7,219.9,112.4,219.9,112.4z"/>
	<path fill="#F2A983" d="M220.2,98.9c0,0-0.9-1.3-1.3-0.1c-0.2,0.7-0.1,2.4,0.1,3.1c0.3,0.7,0.8,0.1,0.9-0.4
		C220,101,220.2,98.9,220.2,98.9z"/>
	<path fill="#414E52" d="M226.8,143c0.9,3,1.8,6.5,2.1,9.1c0.3,2.6,1.3,15.5,1.5,19.1c0,0,0.7,1.1-5.6,1.6s-18.2-3.1-18.2-3.1
		s-1.9-0.6-2.7-2.5c0.5-8.2,0.1-9.2-0.4-12.5c-0.4-2.9,0.6-9.2,1.9-13.4C214.9,146,222.2,144.9,226.8,143z"/>
	<g>
		<path fill="#F0E3D0" d="M207.3,111.5l-1.4-2c0,0-5.2-0.3-5.8,5.3c-0.6,5.5-1.6,19.7-1.5,21c0.1,1.3,4,10.7,4,10.7s3-0.8,3.9-1.6
			l-1.8-12.4l1.9-9.8L207.3,111.5z"/>
		<path fill="#E3D6C3" d="M202.7,146.4c0,0-2.6-6.3-3.6-9.3c2.5-0.7,3.2-3.2,3.9-9.4c0.7-6.5-0.9-10.9-0.9-10.9l3.5,4.1l1.2,1.1v0.6
			l-1.9,9.8l1.8,12.4C205.7,145.6,202.7,146.4,202.7,146.4z"/>
	</g>
	<path fill="#F0E3D0" d="M228.8,148.2c-1.4,0.6-3.7,1.5-6.4,2c-3.6,0.7-13.5,0-18.4-6c0.5-2.9,1.2-5.5,2-6.8c2-3,3.7-3,3.3-5.3
		s-4.7-8.9-5.6-12.3c-1-3.4-1.2-8.4,2.2-10.4l3.6,0.3c0,0-2.6,0.9,2.2,2.3c4.8,1.4,6.2,0.1,8.2,0.1c0,0,5.1,3.1,6.4,6.3
		c1.2,3.3,5.4,2.8,3.1,8.7c-0.6,1.6-3.7,6.7-3.6,9.2C225.8,138.3,227.7,143.5,228.8,148.2z"/>
	<path fill="#E3D6C3" d="M220.5,112.2c0,0-5-2.4-8.6-2.7c-2.5-0.2-3.3,0.3-3.3,0.3s-3,3.5,2.2,5.1c6.9,2.1,10.4-2,10.4-2
		L220.5,112.2z"/>
	<path fill="#F0E3D0" d="M220.5,112.2c0,0-5-2.4-8.6-2.7c-2.5-0.2-3.3,0.3-3.3,0.3s-2.9,2.4,2.2,4.1c5.2,1.7,10.4-1,10.4-1
		L220.5,112.2z"/>
	<path fill="#E3D6C3" d="M204.1,144.2c0.5-2.9,1.2-5.5,2-6.8c2-3,3.7-3,3.3-5.3c-0.2-1.3-1.7-4-3.1-6.7c1.5,1.4,6.1,6.1,6.3,8.3
		c0,0,0.5,1.7,2.4,2.4s-2.4,1-4.3,2.3c-1,0.7-2.1,3-2.4,4.1c-0.4,1.6-0.7,3.1-0.7,4.7C206.3,146.5,205.1,145.5,204.1,144.2z"/>
	<path fill="#E3D6C3" d="M227.7,122.6c0.3,2.9,0.3,5.8,0.3,6.9c0,1.7-2.4,4.5-2.3,7c0.1,1.1,0.7,3.3,1.5,5.9
		c-3.3,0.4-2.9-5.5-2.7-8.9c0.2-3.7-2.2-9.8-2.2-9.8L227.7,122.6z"/>
	<path fill="#E3D6C3" d="M226.3,118.5c-0.1-0.3-0.3-0.6-0.5-1c-3.8,0.5-8,3.3-7.2,8.3c0.8,5.1,5.8,11.6,8,14.3
		c-0.5-1.6-0.8-3-0.8-3.8c-0.1-2.5,3-7.6,3.6-9.2C231.7,121.3,227.5,121.7,226.3,118.5z"/>
	<g>
		<path fill="#F2A983" d="M251.5,130.7c-0.6,0-2.1-0.2-2.1-0.8c0-0.6,1-1.4,1.1-1.9c0.2-0.5,0.2-0.9-0.2-1c-0.4-0.1-1.3,0.4-1.5,0.8
			c-0.3,0.4-0.6,1-0.9,1.2s-0.8,1.5-1.2,2.4c-0.3,0.9-0.2,1.7-2.2,2.1s-6.7,1-6.7,1l0.5,5.5c0,0,8.1-2.9,9.3-3.2s2.5,0,3-0.2
			s0.7-0.9,1.1-1.1c0.3-0.2,1.5-0.3,1.6-0.9s0-0.8,0-0.8s1.3-0.7,1.3-1.2c0-0.5-0.1-1.2-0.1-1.2s0.6-0.8,0.6-1.6s-0.2-0.9-0.6-1
			c-0.4-0.1-0.5,0.9-0.5,0.9l-1.4,0.8C252.6,130.6,251.7,130.7,251.5,130.7z"/>
		<path fill="#D88F69" d="M254.6,132.6c0-0.5-0.1-1.2-0.1-1.2l0,0c-0.4,0.2-0.8,0.5-1.1,0.6c-0.4,0.2-0.7,0.3-0.6,0.6
			c0,0.3,0.4,0.9,0,1.3c-0.4,0.4-0.8,0.9-1.1,1.2c-0.2,0.2-0.3,0.4-0.3,0.6c0.1-0.1,0.2-0.3,0.3-0.3c0.3-0.2,1.5-0.3,1.6-0.9
			s0-0.8,0-0.8S254.6,133.1,254.6,132.6z"/>
		<path fill="#EFF6FA" d="M244.8,133.2l1.1-0.3c0,0,1.5,2.6,1,5.4l-2.4,0.5L244.8,133.2z"/>
		<path fill="#F0E3D0" d="M245.1,133c0,0,1.4,3.1,0.7,6c0,0-11.9,3.2-15.3,3c-3.3-0.2-7.9-9.5-9.4-12.4c-1.6-2.8-4.5-11.2-0.6-13.2
			c3.9-2,6.4,1.7,8.3,7c1.9,5.4,4.5,11.3,4.5,11.3L245.1,133z"/>
	</g>
	<g>
		<path fill="#613323" d="M211.5,107.3c0,0,1.8,0.4,3.4-0.5c1.6-0.9,2-1.4,2.2-2.2c0.3-0.9,0.2-2.2,0.2-2.2s0.9-2.1,1.4-2.2
			c0.5-0.2,2-1.4,2.4-2.7s0.2-4.5-0.7-6.3c-0.9-1.8-3-1.7-3-1.7s-1.2-1.1-3.6-1.1c-2.4,0-5.1,1.2-6.6,4.1c-1.4,2.9-1.4,7.2-0.9,8.6
			C206.9,102.5,206.7,106.5,211.5,107.3z"/>
		<path fill="#542616" d="M217.2,104.6c0.3-0.9,0.2-2.2,0.2-2.2s-1.8,3.2-5.4,3.8c-1.4,0.2-2.8-0.2-4-0.8c0.7,0.9,1.8,1.6,3.6,1.9
			c0,0,1.8,0.4,3.4-0.5C216.5,106,216.9,105.5,217.2,104.6z"/>
		<path fill="#4A2213" d="M211.1,105.2l-5.6-1.5c0,0-1.4,1.3-0.8,3.1c0.6,1.9,0.8,3.3,3.4,3.4C210.7,110.4,214,107.7,211.1,105.2z"
			/>
		<path fill="#542616" d="M206,105c0,0,0.9,2,3.3,1.5c2.4-0.5,2.4-1,2.4-2.4s-1.5-1.8-1.5-1.8s0.5-1.7-1.8-2.3
			c-2.2-0.6-2.6,1.3-2.6,1.3s-1.5,0-1.4,1.6C204.6,104.5,206,105,206,105z"/>
		<path fill="#471909" d="M209.9,103c0,0-1.1,0-2.3-0.5c-0.8-0.3-1.3-1.2-1.6-1.7c-0.1,0.2-0.2,0.5-0.2,0.5c0.5,0.3,1.6,1.9,1.6,1.9
			c1.1-0.5,2.4,0.5,2.4,0.5V103H209.9z"/>
		<path fill="#471909" d="M206.3,104.4c-0.3,0.2-0.5,0.3-0.8,0.3c0.3,0.2,0.5,0.3,0.5,0.3s0,0.1,0.1,0.2c0.7-0.6,1-1.6,1-1.7
			C207.1,103.6,207,104,206.3,104.4z"/>
	</g>
</g>
<g>
	<g>
		<path fill="#F2A983" d="M128.9,145.1l-4.2,0.4c0,0-1.8-2.4-2.7-2.9c-0.9-0.5-4.2-2-4.7-1.8c-0.5,0.2-0.9,1.3,0.9,2
			c1.8,0.8,1.6,1.7,1.2,2c-0.4,0.3-1.9,0.3-2.5,0c-1-0.4-6.2-1.9-6.5-1.9c-0.4,0-2,0.5,0,2.8c1,1.1,3,3.4,5.9,4.5
			c1.6,0.6,6.6-0.5,9.5-0.6c3,0,4,0.2,4,0.2L128.9,145.1z"/>
		<path fill="#DFE6EA" d="M154.6,120.8l-2.5,0.3c0,0-2.5,0.5-3.8,5.1c-1.3,4.6-5.1,16.8-5.1,16.8s-12.1,1.6-13.8,1.6
			c-1.7,0.1-4.4,0.9-4.4,0.9s-0.8,3.1-0.7,4.6l3.6,0.7c0,0,0.7,1,2.6,1.3c1.9,0.3,14.7,1.1,18,0C151.7,151,154.6,120.8,154.6,120.8z
			"/>
		<path fill="#D88F69" d="M167.8,115.8l-8,0.4c-5.7,4.9-3.3,10.5-2.5,11.3c0.8,0.9,3.5,1.9,6.3,0c2.8-1.9,4.8-7,4.8-7
			C167.5,119.1,167.8,115.8,167.8,115.8z"/>
		<g>
			<path d="M153.6,234.9c-2,1.1-3.3,3.2-7.3,5.2c-2.3,1.2-7.9,2.1-7.6-0.5c0-0.1,0-0.3,0.1-0.4c-0.2,0.4-0.3,0.8-0.3,1.1
				c-0.2,2.6,5.3,1.6,7.6,0.5c4-2,5.3-4.1,7.3-5.2c0.2-0.1,0.5-0.3,0.9-0.5v0.6l3.9-1.9c0,0,0.2-0.7,0.2-1.4
				C157.9,233,155,234.1,153.6,234.9z"/>
			<path fill="#313131" d="M150.6,230c-1-0.2,0-2.3-4.1,1.9c-0.3,0.2-0.6,0.4-1,0.5c-2.3,1-6.7,4.9-6.9,7.3
				c-0.2,2.6,5.3,1.6,7.6,0.5c4-2,5.3-4.1,7.3-5.2c1.5-0.9,4.7-2.2,4.8-2.5c0.1-0.2,0.2-0.5,0.2-0.9
				C154.2,227.4,152.6,230.4,150.6,230z"/>
		</g>
		<g>
			<path fill="#313131" d="M161.4,241.9c-0.2,0.3-0.3,0.6-0.5,0.7c-0.8,1-6.2,8-3.1,9.6c3.1,1.6,8.4-1.2,9.6-3.5
				c1.1-2.4,0.9-4,2.3-5.4c0.8-0.8,1.8-1.9,2.2-3.3c-1.3-1.3-2.8-0.4-5.4,0C165,240.2,164,239.4,161.4,241.9z"/>
			<path d="M171.9,240c-0.3,1.4-1.3,2.5-2.2,3.3c-1.4,1.4-1.2,3-2.3,5.4c-1.1,2.4-6.4,5.2-9.6,3.5c-0.6-0.3-0.9-0.8-0.9-1.4
				c-0.1,0.9,0.1,1.7,0.9,2.1c3.1,1.6,8.4-1.2,9.6-3.5c1.1-2.3,0.9-3.9,2.2-5.3v0.4c0,0,1.5-1.2,2.4-3l-0.1-1.7
				C171.9,239.9,171.9,240,171.9,240z"/>
		</g>
		<path fill="#444443" d="M159.2,173.4l-0.4-6.4c0,0-8.7-1.5-12.5-6.3c0,0-2.3,21.1-0.9,30.4c1.4,9.2,2.5,20.8,3,24.9
			c0.4,4.1,0,12.1-1.9,16c0,0,7.1,3.9,12.2,0l0.5-21.9L159.2,173.4z"/>
		<path fill="#5D5D5C" d="M154,165.6c0,0,0.5,9.4,1.3,12.5c0.7,2.6,2.1,5.4,2.2,6.1c0.8,6.3,1.5,13.4,1.8,16.1
			c0.6,5.2,2.5,15.3,3.1,18.8c0.5,3.5-0.9,22.8-0.9,22.8s5,1.8,11.5-2.4c0,0,1.1-19.2,0.4-24.4c-0.7-5.1-1.5-6.4-1.8-10
			c-0.3-3.4,2.5-13.9,2.4-22.6c-0.1-8.7-3.3-20.6-3.3-20.6S169,167.7,154,165.6z"/>
		<path fill="#ECF3F7" d="M168,119.7c0,0-3.4,5.4-8.2,6c0,0-3.4-0.8-1.9-6.6c0,0-4,0.5-5.5,1.7s-3.7,7-3.9,8.2
			c-0.2,1.2-1.5,6.2-1.3,9c0.2,2.8,0.1,6.9,0,10.7c-0.1,3.8-0.6,7.6-1.3,9.2c-0.6,1.5-0.8,4.2,1.6,5.8c2.5,1.6,5.5,3.3,11.1,3.5
			c5.5,0.2,12.2-2.3,12.9-3.8c0.6-1.5-0.2-2.5-0.6-3.2c-0.5-0.7-2.1-4.2-1.1-6.2s6.8-10.7,7.4-15.1c0.6-4.4,0.6-7.9-0.8-10.4
			C175.1,126.1,168,119.7,168,119.7z"/>
		<g>
			<path opacity="0.3" fill="#BAC1C5" enable-background="new    " d="M161.2,131.6l-2.1-5.5l-3.5,4.1c0,0-0.6-1.6-0.6-4.1
				c-0.1,2.9,0.6,4.8,0.6,4.8l3.5-4.1l2.1,5.5c3.7-2.8,7.5-7.9,8.6-10.2c-0.1-0.1-0.2-0.2-0.3-0.3
				C168.2,124.3,164.6,129,161.2,131.6z"/>
		</g>
		<path fill="#444443" d="M160.5,129.8l-1.5-3.7l-2.5,2.8l0.6,2.6c0,0-6.1,15.8-6.6,29.1l2.8,4.6l2.7-2.9c0,0,1.9-18,2.3-21.5
			s0.3-9,0.3-9L160.5,129.8z"/>
		<polygon fill="#979797" points="155.1,149.8 151.8,148.8 151.8,148.2 155.1,149.2 		"/>
		<path fill="#F4FBFF" d="M161.2,131.6c3.7-2.8,7.5-7.9,8.6-10.2c-1-1-1.8-1.6-1.8-1.6s-3.4,5.4-8.2,6c0,0-3.4-0.8-1.9-6.6
			c0,0-0.8,0.1-1.8,0.3c-2.3,5.8-0.6,10.7-0.6,10.7l3.5-4.1L161.2,131.6z"/>
		<g>
			<path fill="#F2A983" d="M169.3,111.2l-1.3,4.2c0,0,0.8,0.5,1.3,0c0.5-0.5,1.7-2.1,1.9-4C171.3,109.5,169.3,111.2,169.3,111.2z"/>
			<path fill="#F2A983" d="M155.1,105.4c0,0-0.3,5.3-0.5,6.4s0.1,4.4,1.2,7.7c1.1,3.2,0.9,3.5,3.1,3.8s3.2-0.9,5-1.9
				c1.8-1,3.8-4,4.4-5.9c0.7-2,2.4-7.1,2.4-8.7c0-1.6-1.3-6.8-6-7.6C160.2,98.3,156.3,100.1,155.1,105.4z"/>
			<path fill="#D88F69" d="M157.2,117.1c0,0,0.7-2,0.9-3.1c0.2-1-0.9-1.4-1.9-1.9c-0.5-0.3-1.1-0.7-1.5-1.1c0,0.4-0.1,0.7-0.1,0.8
				c-0.2,1.1,0.1,4.4,1.2,7.7c1,2.7,1,3.4,2.3,3.7c0.1-0.7,0.4-1.4,0.4-1.9c0-0.7,0.1-1.3,0.2-1.8c0.1-0.5-0.4-1-0.4-1
				C156.8,118.3,157.2,117.1,157.2,117.1z"/>
			<path fill="#995F35" d="M169.7,111.5c0.6-1.9,1.1-3.8,1.1-4.7c0-1.6-1.3-6.8-6-7.6c-4.7-0.9-8.7,1-9.8,6.2c0,0,0,0.2,0,0.4
				c0.3-0.1,0.5-0.2,0.7-0.2c0.4,0.2,0.7,2.3,3,2.6c2.3,0.3,4.8-1.1,6.1-0.6c1.3,0.5,1.8,1.5,1.8,2s-0.2,0.8,0.3,0.8
				s1.3,1.6,1.2,2.3L169.7,111.5z"/>
			<path fill="#8C5228" d="M166.6,109.5C166.6,109.5,166.6,109.6,166.6,109.5c0,0.6-0.2,0.9,0.3,0.9s1.3,1.6,1.2,2.3l1.7-1.2
				c0.6-1.9,1.1-3.8,1.1-4.7c0-0.2,0-0.4,0-0.6C170.3,108,167.8,109.1,166.6,109.5z"/>
		</g>
		<g>
			<polygon fill="#BAC1C5" points="167.3,144.9 158.9,142.8 159.8,136.6 168.2,138.8 			"/>
			<polygon fill="#FFFFFF" points="166.8,144.3 158.4,142.2 159.8,136.6 168.2,138.8 			"/>
			<polygon fill="#979797" points="162.4,138.5 160.2,137.9 159.3,141.5 161.6,142.1 			"/>
			<polygon fill="#3B4447" points="164.3,138.2 162.9,137.9 163.2,137 164.5,137.3 			"/>
			<g>
				
					<rect x="164.6" y="138.1" transform="matrix(0.245 -0.9695 0.9695 0.245 -11.3663 265.4658)" fill="#979797" width="0.3" height="3.8"/>
				
					<rect x="164.5" y="138.9" transform="matrix(0.246 -0.9693 0.9693 0.246 -12.2705 265.7802)" fill="#979797" width="0.3" height="3.8"/>
			</g>
		</g>
		<path opacity="0.3" fill="#BAC1C5" enable-background="new    " d="M176.6,141.2c-0.9-0.7-4.9-2.6-7.2-0.7
			c-2.5,2.1,0,10.2-1.1,11.6c-1.1,1.5-1.9,1.9-2.1,3.9c-0.2,1.9,2,2,2.9,3.4c0.9,1.3,0.1,2.5-0.4,4.1c-0.5,1.6-2.3,1.7-2.3,1.7v-0.7
			c-0.3,0.9-0.9,1.5-1.6,2c3.4-0.8,6.3-2.1,6.7-3.1c0.6-1.5-0.2-2.5-0.6-3.2c-0.5-0.7-2.1-4.2-1.1-6.2
			C170.7,152.4,175,145.8,176.6,141.2z"/>
		<path fill="#F2A983" d="M171,179.4c0,0,0.3,1.2-0.3,1.8c-0.6,0.6-2.8,2.3-3.6,3.9c-0.8,1.6-2.8,4.7-2.1,5.3s2.1-0.5,2.3-1.2
			c0.3-0.7,1.7-2.9,2.4-1.5s0.6,1.8-0.1,3.1c-0.8,1.3-2.1,2.4-2.5,2.8c-0.3,0.4,0.4,0.9,1.3,0.8s3-0.6,4.3-1.6s2-3.2,2.5-4.6
			c0.5-1.4,0-4.4,0-5.5s0.3-6.8,0.3-6.8l-4.9-0.3L171,179.4z"/>
		<path fill="#F4FBFF" d="M177.1,130.3c-1.9-1.9-3.9-0.8-6.2,3c-2.3,3.8-1,10.9-1,10.9c0.8,1.9,0.9,15.8,0.3,18.4
			c-0.5,2.7,0.2,11-0.3,13.1c-0.6,2.1,0.9,4,0.9,4l-0.3,1.9c2.3,1.5,5.1,1.8,5.1,1.8l0.1-4c0,0,1.5-4,2-6.4s0.9-9.7,1.2-12.4
			c0.2-2.7,1.2-9.8,1.9-17.9C181.4,134.7,179,132.2,177.1,130.3z"/>
		<path opacity="0.3" fill="#BAC1C5" enable-background="new    " d="M176.3,177.4c-1.2,1.3-3.7,2.2-3.7,2.2h3v-0.2
			C175.6,179.5,175.9,178.6,176.3,177.4L176.3,177.4z"/>
		<path opacity="0.3" fill="#BAC1C5" enable-background="new    " d="M130.5,152.1c1.1,0.2,5.7,0.5,10.1,0.6
			c-1.6-0.7-6.1-1.1-8.6-1.3c-3.1-0.3-3.7-3.7-3.7-3.7c-0.3,1.5-0.3,2.6-0.2,3.4C128.3,151.2,129.1,151.8,130.5,152.1z"/>
		<path fill="#D88F69" d="M174.4,190.2c-0.1,0-0.2,0.1-0.2,0.1c-0.2,0-1,0-1.3,0s-0.8,0.2-1.3,0.9c-0.5,0.6-1.8,2.2-2.2,2.6
			c-0.2,0.2-0.7,0.4-1.2,0.7c0.1,0,0.1,0,0.2,0c0.9-0.1,3-0.6,4.3-1.6C173.4,192.2,174,191.2,174.4,190.2z"/>
	</g>
</g>
</svg>
