<?xml version="1.0" encoding="utf-8"?>
<!-- Generator: Adobe Illustrator 22.1.0, SVG Export Plug-In . SVG Version: 6.00 Build 0)  -->
<svg version="1.1" id="Layer_1" xmlns="http://www.w3.org/2000/svg" xmlns:xlink="http://www.w3.org/1999/xlink" x="0px" y="0px"
	 viewBox="0 0 274 257" style="enable-background:new 0 0 274 257;" xml:space="preserve">
<style type="text/css">
	.st0{fill:#8CB835;}
	.st1{fill:#D0D4DE;}
	.st2{fill:#E5EAF5;}
	.st3{opacity:0.7;}
	.st4{fill:#A2A3A3;}
	.st5{fill:#C7C7C7;}
	.st6{fill:#B2B6BE;}
	.st7{fill:#E6E6E6;}
	.st8{fill:#709CBA;}
	.st9{fill:#FFFFFF;}
	.st10{fill:#3C5669;}
	.st11{fill:#FF8A74;}
	.st12{fill:#C64F34;}
	.st13{fill:#C6C7C7;}
	.st14{fill:#C0C4CD;}
	.st15{fill:#92959C;}
	.st16{opacity:0.33;fill:url(#SVGID_1_);}
	.st17{opacity:0.33;fill:url(#SVGID_2_);}
	.st18{opacity:0.33;fill:url(#SVGID_3_);}
	.st19{opacity:0.33;fill:url(#SVGID_4_);}
	.st20{opacity:0.33;fill:url(#SVGID_5_);}
	.st21{opacity:0.33;fill:url(#SVGID_6_);}
	.st22{opacity:0.33;fill:url(#SVGID_7_);}
	.st23{enable-background:new    ;}
	.st24{fill:#F7F7F7;}
	.st25{fill:#ECECEC;}
	.st26{fill:#D1D3D4;}
	.st27{fill:#B1B3B6;}
	.st28{fill:#A7A9AC;}
	.st29{opacity:0.33;fill:url(#SVGID_8_);}
	.st30{opacity:0.33;fill:url(#SVGID_9_);}
	.st31{opacity:0.33;fill:url(#SVGID_10_);}
	.st32{opacity:0.33;fill:url(#SVGID_11_);}
	.st33{opacity:0.33;fill:url(#SVGID_12_);}
	.st34{opacity:0.33;fill:url(#SVGID_13_);}
	.st35{opacity:0.33;fill:url(#SVGID_14_);}
	.st36{opacity:0.33;fill:url(#SVGID_15_);}
	.st37{opacity:0.33;fill:url(#SVGID_16_);}
	.st38{opacity:0.33;fill:url(#SVGID_17_);}
	.st39{opacity:0.33;fill:url(#SVGID_18_);}
	.st40{opacity:0.33;fill:url(#SVGID_19_);}
	.st41{opacity:0.33;fill:url(#SVGID_20_);}
	.st42{opacity:0.33;fill:url(#SVGID_21_);}
	.st43{opacity:0.33;fill:url(#SVGID_22_);}
	.st44{opacity:0.33;fill:url(#SVGID_23_);}
	.st45{opacity:0.33;fill:url(#SVGID_24_);}
	.st46{opacity:0.33;fill:url(#SVGID_25_);}
	.st47{opacity:0.33;fill:url(#SVGID_26_);}
	.st48{opacity:0.33;fill:url(#SVGID_27_);}
	.st49{opacity:0.7;fill:#B1B3B6;}
	.st50{fill:#A9DCF5;}
	.st51{fill:#86D4F5;}
	.st52{fill:url(#SVGID_28_);}
	.st53{fill:#F2F2F2;}
	.st54{opacity:0.4;fill:#29ABE2;}
</style>
<g>
	<g>
		<g>
			<polygon class="st0" points="160.4,155 182.5,142.3 159.7,129.1 137.7,141.9 			"/>
			<polygon class="st0" points="227.6,193.8 249.6,181 227.4,168.2 205.4,180.9 			"/>
			<polygon class="st0" points="182.6,167.8 204.7,155.1 182.5,142.3 160.4,155 			"/>
			<polygon class="st0" points="205.4,180.9 227.4,168.2 204.7,155.1 182.6,167.8 			"/>
			<polygon class="st0" points="137.7,141.9 159.7,129.1 137,116 114.9,128.7 			"/>
			<polygon class="st0" points="114.9,128.7 137,116 114.8,103.2 92.7,115.9 			"/>
			<polygon class="st0" points="204.7,155.1 226.7,142.3 204.5,129.5 182.5,142.3 			"/>
			<polygon class="st0" points="227.4,168.2 249.5,155.5 226.7,142.3 204.7,155.1 			"/>
			<polygon class="st0" points="249.6,181 271.7,168.3 249.5,155.5 227.4,168.2 			"/>
			<polygon class="st0" points="182.5,142.3 204.5,129.5 181.8,116.4 159.7,129.1 			"/>
			<polygon class="st0" points="114.8,103.2 136.8,90.4 114.1,77.3 92,90 			"/>
			<polygon class="st0" points="137,116 159,103.2 136.8,90.4 114.8,103.2 			"/>
			<polygon class="st0" points="159.7,129.1 181.8,116.4 159,103.2 137,116 			"/>
			<polygon class="st0" points="182.3,219.9 204.4,207.1 182.2,194.3 160.1,207 			"/>
			<polygon class="st1" points="160.1,207 182.2,194.3 159.4,181.2 137.4,193.9 			"/>
			<polygon class="st1" points="137.4,193.9 159.4,181.2 137.2,168.4 115.2,181.1 			"/>
			<polygon class="st0" points="69.7,154.8 91.7,142.1 69.5,129.3 47.5,142 			"/>
			<polygon class="st0" points="115.2,181.1 137.2,168.4 114.5,155.2 92.4,168 			"/>
			<polygon class="st0" points="92.4,168 114.5,155.2 91.7,142.1 69.7,154.8 			"/>
			<polygon class="st0" points="69.5,129.3 92.7,115.9 70,102.8 46.8,116.1 			"/>
			<polygon class="st0" points="91.7,142.1 114.9,128.7 92.7,115.9 69.5,129.3 			"/>
			<polygon class="st0" points="204.4,207.1 227.6,193.8 205.4,180.9 182.2,194.3 			"/>
			<polygon class="st1" points="159.4,181.2 182.6,167.8 160.4,155 137.2,168.4 			"/>
			<polygon class="st1" points="182.2,194.3 205.4,180.9 182.6,167.8 159.4,181.2 			"/>
			<polygon class="st0" points="137.2,168.4 160.4,155 137.7,141.9 114.5,155.2 			"/>
			<polygon class="st0" points="114.5,155.2 137.7,141.9 114.9,128.7 91.7,142.1 			"/>
			<polygon class="st0" points="181.1,90.5 204.2,77.1 182,64.3 158.9,77.7 			"/>
			<polygon class="st0" points="203.8,103.6 227,90.3 204.2,77.1 181.1,90.5 			"/>
			<polygon class="st0" points="226.6,116.8 249.7,103.4 227,90.3 203.8,103.6 			"/>
			<polygon class="st0" points="181.8,116.4 203.8,103.6 181.1,90.5 159,103.2 			"/>
			<polygon class="st0" points="159,103.2 181.1,90.5 158.9,77.7 136.8,90.4 			"/>
			<polygon class="st0" points="136.8,90.4 158.9,77.7 136.1,64.6 114.1,77.3 			"/>
			<polygon class="st0" points="114.1,77.3 136.1,64.6 113.9,51.7 91.9,64.5 			"/>
			<polygon class="st0" points="204.5,129.5 226.6,116.8 203.8,103.6 181.8,116.4 			"/>
			<polygon class="st0" points="116,232.5 138.1,219.8 115.3,206.6 93.3,219.4 			"/>
			<polygon class="st0" points="138.2,245.3 160.3,232.6 138.1,219.8 116,232.5 			"/>
			<polygon class="st0" points="93.3,219.4 115.3,206.6 93.1,193.8 71.1,206.6 			"/>
			<polygon class="st0" points="48.3,193.4 70.4,180.7 47.6,167.6 25.6,180.3 			"/>
			<polygon class="st0" points="25.6,180.3 47.6,167.6 25.4,154.7 3.4,167.5 			"/>
			<polygon class="st0" points="71.1,206.6 93.1,193.8 70.4,180.7 48.3,193.4 			"/>
			<polygon class="st0" points="93.1,193.8 115.2,181.1 92.4,168 70.4,180.7 			"/>
			<polygon class="st0" points="115.3,206.6 137.4,193.9 115.2,181.1 93.1,193.8 			"/>
			<polygon class="st0" points="47.6,167.6 69.7,154.8 47.5,142 25.4,154.7 			"/>
			<polygon class="st0" points="138.1,219.8 160.1,207 137.4,193.9 115.3,206.6 			"/>
			<polygon class="st0" points="70.4,180.7 92.4,168 69.7,154.8 47.6,167.6 			"/>
			<polygon class="st0" points="160.3,232.6 182.3,219.9 160.1,207 138.1,219.8 			"/>
		</g>
	</g>
</g>
<g>
	<g>
		<g>
			<g>
				<path class="st2" d="M147.1,93.8v2.6l40.3,23.2V117L147.1,93.8z"/>
			</g>
			<g class="st3">
				<path class="st4" d="M187.4,117v2.6l30.1-17.6v-2.6L187.4,117z"/>
			</g>
		</g>
		<polygon class="st5" points="150.2,95.7 147.2,94 177.2,76.5 217.4,99.4 187.5,117 		"/>
	</g>
	<g>
		<polygon class="st6" points="216,99 187,115.9 187,98.2 216,81.3 		"/>
	</g>
	<g>
		<path class="st2" d="M148.3,59.5v34.1l38.7,22.3V81.8L148.3,59.5z"/>
	</g>
	<g>
		<polygon class="st7" points="153.3,96.6 153.4,96.5 153.3,96.5 		"/>
		<polygon class="st8" points="150.5,77.2 150.5,78.1 150.5,93.7 158.1,98.2 158.1,81.6 		"/>
		<polygon class="st9" points="150.5,93.7 150.5,93.7 149.7,94.4 158.1,99.3 158.1,98.2 		"/>
		<polygon class="st6" points="150.5,78.1 150.5,77.2 150.5,77.1 149.7,76.7 149.7,94.4 150.5,93.7 150.5,93.7 		"/>
	</g>
	<g>
		<polygon class="st8" points="159.6,82.4 159.6,83.4 159.6,99 167.2,103.4 167.2,86.9 		"/>
		<polygon class="st9" points="159.6,99 159.6,99 158.8,99.6 167.2,104.5 167.2,103.4 		"/>
		<polygon class="st6" points="159.6,83.4 159.6,82.4 159.6,82.4 158.8,81.9 158.8,99.6 159.6,99 159.6,99 		"/>
	</g>
	<g>
		<polygon class="st7" points="171.6,107.1 171.7,107 171.6,107 		"/>
		<polygon class="st8" points="168.8,87.7 168.8,88.6 168.7,104.2 176.4,108.7 176.4,92.1 		"/>
		<polygon class="st9" points="168.7,104.3 168.7,104.3 167.9,104.9 176.4,109.8 176.4,108.7 		"/>
		<polygon class="st6" points="168.7,88.7 168.7,87.7 168.8,87.7 167.9,87.2 167.9,104.9 168.7,104.3 168.7,104.3 		"/>
	</g>
	<g>
		<polygon class="st7" points="181,112.6 181.1,112.5 181,112.5 		"/>
		<polygon class="st8" points="178.2,93.2 178.2,94.1 178.2,109.7 185.8,114.2 185.8,97.6 		"/>
		<polygon class="st9" points="178.2,109.7 178.2,109.7 177.4,110.4 185.8,115.3 185.8,114.2 		"/>
		<polygon class="st6" points="178.2,94.1 178.2,93.2 178.2,93.1 177.3,92.7 177.3,110.4 178.2,109.7 178.2,109.7 		"/>
	</g>
	<g>
		<polygon class="st7" points="192.8,112.8 192.7,112.7 192.8,112.6 		"/>
		<polygon class="st10" points="195.6,93.3 195.6,94.3 195.6,109.9 188,114.3 188,97.8 		"/>
		<polygon class="st9" points="195.6,109.9 195.6,109.9 196.4,110.5 188,115.4 188,114.3 		"/>
		<polygon class="st2" points="195.6,94.3 195.6,93.3 195.6,93.3 196.5,92.8 196.5,110.5 195.6,109.9 195.6,109.9 		"/>
	</g>
	<g>
		<polygon class="st7" points="202.2,107.3 202.1,107.2 202.2,107.2 		"/>
		<polygon class="st10" points="205.1,87.7 205.1,88.7 205.1,104.4 197.5,108.9 197.5,92.2 		"/>
		<polygon class="st9" points="205.1,104.4 205.1,104.4 205.9,105.1 197.5,110 197.5,108.9 		"/>
		<polygon class="st2" points="205.1,88.7 205.1,87.7 205.1,87.7 205.9,87.2 205.9,105.1 205.1,104.4 205.1,104.4 		"/>
	</g>
	<g>
		<polygon class="st7" points="211.5,101.8 211.4,101.7 211.5,101.6 		"/>
		<polygon class="st10" points="214.3,82.3 214.3,83.3 214.3,98.9 206.7,103.3 206.7,86.8 		"/>
		<polygon class="st9" points="214.3,98.9 214.3,98.9 215.1,99.6 206.7,104.4 206.7,103.3 		"/>
		<polygon class="st2" points="214.3,83.3 214.3,82.3 214.3,82.3 215.1,81.8 215.1,99.6 214.3,98.9 214.3,98.9 		"/>
	</g>
	<g>
		<path class="st11" d="M148.3,27.3v48.8L187,98.5V49.6L148.3,27.3z"/>
	</g>
	<g>
		<polygon class="st12" points="216,81.3 187,98.3 187,49.5 215.8,32.5 		"/>
	</g>
	<g>
		<g>
			<path class="st12" d="M187,75.8v21.1l28.1-16.2V60.1L187,75.8z"/>
		</g>
		<g>
			<polygon class="st11" points="149.5,75.4 187,97 187,75.8 149.5,54.2 			"/>
		</g>
		<g>
			<g>
				<polygon class="st10" points="206.6,76.5 203.8,78.1 187,87.8 187,96.2 188.5,95.4 206.6,84.9 				"/>
				<g>
					<polygon class="st5" points="205.9,76.9 205,77.4 205,83.6 187,94 187,95.1 205,84.6 205.9,84.1 					"/>
				</g>
				<g>
					<polygon class="st12" points="206.6,76.5 205.9,76.9 205.9,84.1 205,84.6 187,95.1 187,96.2 205,85.8 205.9,85.3 206.6,84.9 
											"/>
				</g>
			</g>
			<g>
				<polygon class="st8" points="173.7,80.1 167.8,76.9 167.8,85.3 178.2,91.1 187,96.2 187,87.8 				"/>
				<g>
					<polygon class="st9" points="168.1,83.3 168.2,77.1 167.3,76.6 167.3,83.8 168.2,84.4 187,95.1 187,94 					"/>
				</g>
				<polygon class="st11" points="168.2,84.4 167.3,83.8 167.3,76.6 166.6,76.2 166.6,84.6 167.3,85 168.2,85.5 187,96.2 187,95.1 
									"/>
			</g>
		</g>
		<g>
			<g>
				<polygon class="st10" points="206.6,67.4 203.8,69 187,78.8 187,87.2 188.5,86.4 206.6,75.8 				"/>
				<g>
					<polygon class="st5" points="205.9,67.8 205,68.3 205,74.5 187,85 187,86.1 205,75.6 205.9,75.1 					"/>
				</g>
				<g>
					<polygon class="st12" points="206.6,67.4 205.9,67.8 205.9,75.1 205,75.6 187,86.1 187,87.2 205,76.7 205.9,76.2 206.6,75.8 
											"/>
				</g>
			</g>
			<g>
				<polygon class="st8" points="173.7,71 167.8,67.9 167.8,76.2 178.2,82.1 187,87.2 187,78.8 				"/>
				<g>
					<polygon class="st9" points="168.1,74.3 168.1,68 167.2,67.5 167.2,74.8 168.1,75.3 187,86.1 187,85 					"/>
				</g>
				<polygon class="st11" points="168.1,75.3 167.2,74.8 167.2,67.5 166.5,67.1 166.5,75.5 167.2,75.9 168.1,76.5 187,87.2 
					187,86.1 				"/>
			</g>
		</g>
		<g>
			<g>
				<g>
					<polygon class="st10" points="208.6,69.5 212.8,67.1 212.8,64.9 208.6,67.3 					"/>
				</g>
				<g>
					<polygon class="st5" points="208.6,68.7 208.6,69.5 212.8,67.1 212.8,64.9 212.2,65.3 212.2,66.7 					"/>
				</g>
			</g>
			<g>
				<g>
					<polygon class="st10" points="208.6,73.5 212.8,71.2 212.8,69 208.6,71.3 					"/>
				</g>
				<g>
					<polygon class="st5" points="208.6,72.8 208.6,73.5 212.8,71.2 212.8,69 212.2,69.3 212.2,70.8 					"/>
				</g>
			</g>
			<g>
				<g>
					<polygon class="st10" points="208.6,77.6 212.8,75.2 212.8,73 208.6,75.4 					"/>
				</g>
				<g>
					<polygon class="st5" points="208.6,76.8 208.6,77.6 212.8,75.2 212.8,73 212.2,73.4 212.2,74.8 					"/>
				</g>
			</g>
			<g>
				<g>
					<polygon class="st10" points="208.6,81.6 212.8,79.3 212.8,77.1 208.6,79.4 					"/>
				</g>
				<g>
					<polygon class="st5" points="208.6,80.9 208.6,81.6 212.8,79.3 212.8,77.1 212.2,77.5 212.2,78.9 					"/>
				</g>
			</g>
		</g>
		<g>
			<g>
				<g>
					<polygon class="st8" points="165.7,69.4 161.5,67.1 161.5,64.9 165.7,67.2 					"/>
				</g>
				<g>
					<polygon class="st9" points="165.7,68.7 165.7,69.4 161.5,67.1 161.5,64.9 162.1,65.3 162.1,66.7 					"/>
				</g>
			</g>
			<g>
				<g>
					<polygon class="st8" points="165.7,73.5 161.5,71.2 161.5,69 165.7,71.3 					"/>
				</g>
				<g>
					<polygon class="st9" points="165.7,72.8 165.7,73.5 161.5,71.2 161.5,69 162.1,69.4 162.1,70.8 					"/>
				</g>
			</g>
			<g>
				<g>
					<polygon class="st8" points="165.7,77.6 161.5,75.3 161.5,73.1 165.7,75.5 					"/>
				</g>
				<g>
					<polygon class="st9" points="165.7,76.9 165.7,77.6 161.5,75.3 161.5,73.1 162.1,73.5 162.1,74.9 					"/>
				</g>
			</g>
			<g>
				<g>
					<polygon class="st8" points="165.8,81.7 161.6,79.4 161.6,77.2 165.8,79.6 					"/>
				</g>
				<g>
					<polygon class="st9" points="165.8,81 165.8,81.7 161.6,79.4 161.6,77.2 162.3,77.6 162.3,79 					"/>
				</g>
			</g>
		</g>
		<g>
			<g>
				<g>
					<polygon class="st8" points="160.2,66.8 156,64.4 156.1,62.2 160.2,64.6 					"/>
				</g>
				<g>
					<polygon class="st9" points="160.2,66 160.2,66.8 156,64.4 156.1,62.2 156.7,62.6 156.7,64 					"/>
				</g>
			</g>
			<g>
				<g>
					<polygon class="st8" points="160.2,70.9 156,68.5 156.1,66.3 160.2,68.7 					"/>
				</g>
				<g>
					<polygon class="st9" points="160.2,70.1 160.2,70.9 156,68.5 156.1,66.3 156.7,66.7 156.7,68.1 					"/>
				</g>
			</g>
			<g>
				<g>
					<polygon class="st8" points="160.2,75 156,72.6 156.1,70.4 160.2,72.8 					"/>
				</g>
				<g>
					<polygon class="st9" points="160.2,74.2 160.2,75 156,72.6 156.1,70.4 156.7,70.8 156.7,72.2 					"/>
				</g>
			</g>
			<g>
				<g>
					<polygon class="st8" points="160.4,79.1 156.2,76.7 156.2,74.5 160.4,76.9 					"/>
				</g>
				<g>
					<polygon class="st9" points="160.4,78.3 160.4,79.1 156.2,76.7 156.2,74.5 156.8,74.9 156.8,76.3 					"/>
				</g>
			</g>
		</g>
		<g>
			<g>
				<g>
					<polygon class="st8" points="154.9,63.9 150.7,61.5 150.7,59.3 154.9,61.7 					"/>
				</g>
				<g>
					<polygon class="st9" points="154.9,63.1 154.9,63.9 150.7,61.5 150.7,59.3 151.3,59.7 151.3,61.1 					"/>
				</g>
			</g>
			<g>
				<g>
					<polygon class="st8" points="154.9,68 150.7,65.6 150.7,63.4 154.9,65.8 					"/>
				</g>
				<g>
					<polygon class="st9" points="154.9,67.2 154.9,68 150.7,65.6 150.7,63.4 151.3,63.8 151.3,65.2 					"/>
				</g>
			</g>
			<g>
				<g>
					<polygon class="st8" points="154.9,72.1 150.7,69.7 150.7,67.5 154.9,69.9 					"/>
				</g>
				<g>
					<polygon class="st9" points="154.9,71.3 154.9,72.1 150.7,69.7 150.7,67.5 151.3,67.9 151.3,69.3 					"/>
				</g>
			</g>
			<g>
				<g>
					<polygon class="st8" points="155.1,76.2 150.9,73.8 150.9,71.6 155.1,74 					"/>
				</g>
				<g>
					<polygon class="st9" points="155.1,75.4 155.1,76.2 150.9,73.8 150.9,71.6 151.5,72 151.5,73.4 					"/>
				</g>
			</g>
		</g>
	</g>
	<g>
		<g>
			<path class="st12" d="M187,53.8v21.1l28.1-16.2V38.1L187,53.8z"/>
		</g>
		<g>
			<polygon class="st11" points="149.5,53.4 187,75 187,53.8 149.5,32.2 			"/>
		</g>
		<g>
			<g>
				<polygon class="st10" points="206.6,54.5 203.8,56.1 187,65.8 187,74.2 188.5,73.4 206.6,62.9 				"/>
				<g>
					<polygon class="st5" points="205.9,54.9 205,55.4 205,61.6 187,72 187,73.1 205,62.6 205.9,62.1 					"/>
				</g>
				<g>
					<polygon class="st12" points="206.6,54.5 205.9,54.9 205.9,62.1 205,62.6 187,73.1 187,74.2 205,63.8 205.9,63.3 206.6,62.9 
											"/>
				</g>
			</g>
			<g>
				<polygon class="st8" points="173.7,58.1 167.8,54.9 167.8,63.3 178.2,69.1 187,74.2 187,65.8 				"/>
				<g>
					<polygon class="st9" points="168.1,61.3 168.2,55.1 167.3,54.6 167.3,61.8 168.2,62.4 187,73.1 187,72 					"/>
				</g>
				<polygon class="st11" points="168.2,62.4 167.3,61.8 167.3,54.6 166.6,54.2 166.6,62.6 167.3,63 168.2,63.5 187,74.2 187,73.1 
									"/>
			</g>
		</g>
		<g>
			<g>
				<polygon class="st10" points="206.6,45.4 203.8,47 187,56.8 187,65.2 188.5,64.4 206.6,53.8 				"/>
				<g>
					<polygon class="st5" points="205.9,45.8 205,46.3 205,52.5 187,63 187,64.1 205,53.6 205.9,53.1 					"/>
				</g>
				<g>
					<polygon class="st12" points="206.6,45.4 205.9,45.8 205.9,53.1 205,53.6 187,64.1 187,65.2 205,54.7 205.9,54.2 206.6,53.8 
											"/>
				</g>
			</g>
			<g>
				<polygon class="st8" points="173.7,49 167.8,45.9 167.8,54.2 178.2,60.1 187,65.2 187,56.8 				"/>
				<g>
					<polygon class="st9" points="168.1,52.3 168.1,46 167.2,45.5 167.2,52.8 168.1,53.3 187,64.1 187,63 					"/>
				</g>
				<polygon class="st11" points="168.1,53.3 167.2,52.8 167.2,45.5 166.5,45.1 166.5,53.5 167.2,53.9 168.1,54.5 187,65.2 
					187,64.1 				"/>
			</g>
		</g>
		<g>
			<g>
				<g>
					<polygon class="st10" points="208.6,47.5 212.8,45.1 212.8,42.9 208.6,45.3 					"/>
				</g>
				<g>
					<polygon class="st5" points="208.6,46.7 208.6,47.5 212.8,45.1 212.8,42.9 212.2,43.3 212.2,44.7 					"/>
				</g>
			</g>
			<g>
				<g>
					<polygon class="st10" points="208.6,51.5 212.8,49.2 212.8,47 208.6,49.3 					"/>
				</g>
				<g>
					<polygon class="st5" points="208.6,50.8 208.6,51.5 212.8,49.2 212.8,47 212.2,47.3 212.2,48.8 					"/>
				</g>
			</g>
			<g>
				<g>
					<polygon class="st10" points="208.6,55.6 212.8,53.2 212.8,51 208.6,53.4 					"/>
				</g>
				<g>
					<polygon class="st5" points="208.6,54.8 208.6,55.6 212.8,53.2 212.8,51 212.2,51.4 212.2,52.8 					"/>
				</g>
			</g>
			<g>
				<g>
					<polygon class="st10" points="208.6,59.6 212.8,57.3 212.8,55.1 208.6,57.4 					"/>
				</g>
				<g>
					<polygon class="st5" points="208.6,58.9 208.6,59.6 212.8,57.3 212.8,55.1 212.2,55.5 212.2,56.9 					"/>
				</g>
			</g>
		</g>
		<g>
			<g>
				<g>
					<polygon class="st8" points="165.7,47.4 161.5,45.1 161.5,42.9 165.7,45.2 					"/>
				</g>
				<g>
					<polygon class="st9" points="165.7,46.7 165.7,47.4 161.5,45.1 161.5,42.9 162.1,43.3 162.1,44.7 					"/>
				</g>
			</g>
			<g>
				<g>
					<polygon class="st8" points="165.7,51.5 161.5,49.2 161.5,47 165.7,49.4 					"/>
				</g>
				<g>
					<polygon class="st9" points="165.7,50.8 165.7,51.5 161.5,49.2 161.5,47 162.1,47.4 162.1,48.8 					"/>
				</g>
			</g>
			<g>
				<g>
					<polygon class="st8" points="165.7,55.6 161.5,53.3 161.5,51.1 165.7,53.5 					"/>
				</g>
				<g>
					<polygon class="st9" points="165.7,54.9 165.7,55.6 161.5,53.3 161.5,51.1 162.1,51.5 162.1,52.9 					"/>
				</g>
			</g>
			<g>
				<g>
					<polygon class="st8" points="165.8,59.7 161.6,57.4 161.6,55.2 165.8,57.6 					"/>
				</g>
				<g>
					<polygon class="st9" points="165.8,59 165.8,59.7 161.6,57.4 161.6,55.2 162.3,55.6 162.3,57 					"/>
				</g>
			</g>
		</g>
		<g>
			<g>
				<g>
					<polygon class="st8" points="160.2,44.8 156,42.4 156.1,40.2 160.2,42.6 					"/>
				</g>
				<g>
					<polygon class="st9" points="160.2,44 160.2,44.8 156,42.4 156.1,40.2 156.7,40.6 156.7,42 					"/>
				</g>
			</g>
			<g>
				<g>
					<polygon class="st8" points="160.2,48.9 156,46.5 156.1,44.3 160.2,46.7 					"/>
				</g>
				<g>
					<polygon class="st9" points="160.2,48.1 160.2,48.9 156,46.5 156.1,44.3 156.7,44.7 156.7,46.1 					"/>
				</g>
			</g>
			<g>
				<g>
					<polygon class="st8" points="160.2,53 156,50.6 156.1,48.4 160.2,50.8 					"/>
				</g>
				<g>
					<polygon class="st9" points="160.2,52.2 160.2,53 156,50.6 156.1,48.4 156.7,48.8 156.7,50.2 					"/>
				</g>
			</g>
			<g>
				<g>
					<polygon class="st8" points="160.4,57.1 156.2,54.7 156.2,52.5 160.4,54.9 					"/>
				</g>
				<g>
					<polygon class="st9" points="160.4,56.3 160.4,57.1 156.2,54.7 156.2,52.5 156.8,52.9 156.8,54.3 					"/>
				</g>
			</g>
		</g>
		<g>
			<g>
				<g>
					<polygon class="st8" points="154.9,41.9 150.7,39.5 150.7,37.3 154.9,39.7 					"/>
				</g>
				<g>
					<polygon class="st9" points="154.9,41.1 154.9,41.9 150.7,39.5 150.7,37.3 151.3,37.7 151.3,39.1 					"/>
				</g>
			</g>
			<g>
				<g>
					<polygon class="st8" points="154.9,46 150.7,43.6 150.7,41.4 154.9,43.8 					"/>
				</g>
				<g>
					<polygon class="st9" points="154.9,45.2 154.9,46 150.7,43.6 150.7,41.4 151.3,41.8 151.3,43.2 					"/>
				</g>
			</g>
			<g>
				<g>
					<polygon class="st8" points="154.9,50.1 150.7,47.7 150.7,45.5 154.9,47.9 					"/>
				</g>
				<g>
					<polygon class="st9" points="154.9,49.3 154.9,50.1 150.7,47.7 150.7,45.5 151.3,45.9 151.3,47.3 					"/>
				</g>
			</g>
			<g>
				<g>
					<polygon class="st8" points="155.1,54.2 150.9,51.8 150.9,49.6 155.1,52 					"/>
				</g>
				<g>
					<polygon class="st9" points="155.1,53.4 155.1,54.2 150.9,51.8 150.9,49.6 151.5,50 151.5,51.4 					"/>
				</g>
			</g>
		</g>
	</g>
	<g>
		<g class="st3">
			<path class="st13" d="M148.3,31.7v4.6L187,58.6v-4.6L148.3,31.7z"/>
		</g>
		<g class="st3">
			<path class="st13" d="M187,54v4.6l28.9-16.9V37L187,54z"/>
		</g>
		<polygon class="st9" points="148.4,28.4 145.2,26.5 176.6,8.1 218.6,32.1 187.1,50.7 		"/>
		<polygon class="st1" points="186.8,48.4 151.5,28 151.2,27.9 176.5,13 212.1,33.6 211.8,33.7 		"/>
		<g>
			<polygon class="st14" points="214.6,32.1 212.1,33.6 176.5,13 176.5,10.1 			"/>
			<polygon class="st15" points="176.5,10.1 176.5,10.1 176.5,13 176.5,13 151.2,27.9 148.7,26.4 			"/>
		</g>
		<g>
			
				<linearGradient id="SVGID_1_" gradientUnits="userSpaceOnUse" x1="222.5518" y1="24.0601" x2="230.4619" y2="20.2196" gradientTransform="matrix(1 0 0 1 -46.0469 0)">
				<stop  offset="0" style="stop-color:#333333"/>
				<stop  offset="1" style="stop-color:#CCCCCC"/>
			</linearGradient>
			<polygon class="st16" points="177.8,20.8 176.9,24.8 181.5,24.8 184.3,23.3 178.4,20 			"/>
			<g>
				<polygon class="st9" points="176.8,23.8 169.6,19.6 173.7,17.2 181,21.4 				"/>
				<polygon class="st15" points="181,22.4 176.8,24.8 176.8,23.8 181,21.4 				"/>
				<polygon class="st14" points="176.8,24.8 169.6,20.6 169.6,19.6 176.8,23.8 				"/>
			</g>
			
				<linearGradient id="SVGID_2_" gradientUnits="userSpaceOnUse" x1="222.0336" y1="22.0564" x2="226.5369" y2="19.87" gradientTransform="matrix(1 0 0 1 -46.0469 0)">
				<stop  offset="0" style="stop-color:#333333"/>
				<stop  offset="1" style="stop-color:#CCCCCC"/>
			</linearGradient>
			<polygon class="st17" points="176.9,20.3 176.3,22.7 178.3,22.7 180.4,21.5 177.2,19.7 			"/>
			<g>
				<polygon class="st9" points="176.3,21.9 171.6,19.2 174,17.8 178.7,20.5 				"/>
				<polygon class="st15" points="178.7,21.4 176.3,22.7 176.3,21.9 178.7,20.5 				"/>
				<polygon class="st14" points="176.3,22.7 171.6,20 171.6,19.2 176.3,21.9 				"/>
			</g>
		</g>
		<g>
			
				<linearGradient id="SVGID_3_" gradientUnits="userSpaceOnUse" x1="55.373" y1="30.7339" x2="63.2851" y2="26.8925" gradientTransform="matrix(1 0 0 1 132.6563 0)">
				<stop  offset="0" style="stop-color:#333333"/>
				<stop  offset="1" style="stop-color:#CCCCCC"/>
			</linearGradient>
			<polygon class="st18" points="189.3,27.5 188.4,31.5 193,31.5 195.9,30 189.9,26.6 			"/>
			<g>
				<polygon class="st9" points="188.4,30.4 181.1,26.3 185.3,23.9 192.5,28 				"/>
				<polygon class="st15" points="192.5,29 188.4,31.5 188.4,30.4 192.5,28 				"/>
				<polygon class="st14" points="188.4,31.5 181.1,27.3 181.1,26.3 188.4,30.4 				"/>
			</g>
			
				<linearGradient id="SVGID_4_" gradientUnits="userSpaceOnUse" x1="54.857" y1="28.7311" x2="59.3585" y2="26.5456" gradientTransform="matrix(1 0 0 1 132.6563 0)">
				<stop  offset="0" style="stop-color:#333333"/>
				<stop  offset="1" style="stop-color:#CCCCCC"/>
			</linearGradient>
			<polygon class="st19" points="188.4,27 187.8,29.4 189.8,29.3 191.9,28.2 188.8,26.4 			"/>
			<g>
				<polygon class="st9" points="187.8,28.6 183.1,25.8 185.5,24.5 190.2,27.2 				"/>
				<polygon class="st15" points="190.2,28 187.8,29.4 187.8,28.6 190.2,27.2 				"/>
				<polygon class="st14" points="187.8,29.4 183.1,26.7 183.1,25.8 187.8,28.6 				"/>
			</g>
		</g>
		<g>
			
				<linearGradient id="SVGID_5_" gradientUnits="userSpaceOnUse" x1="66.6885" y1="36.9143" x2="74.5986" y2="33.0738" gradientTransform="matrix(1 0 0 1 132.6563 0)">
				<stop  offset="0" style="stop-color:#333333"/>
				<stop  offset="1" style="stop-color:#CCCCCC"/>
			</linearGradient>
			<polygon class="st20" points="200.6,33.7 199.7,37.7 204.3,37.7 207.2,36.2 201.2,32.8 			"/>
			<g>
				<polygon class="st9" points="199.7,36.6 192.4,32.4 196.6,30 203.8,34.2 				"/>
				<polygon class="st15" points="203.8,35.2 199.7,37.6 199.7,36.6 203.8,34.2 				"/>
				<polygon class="st14" points="199.7,37.6 192.4,33.4 192.4,32.4 199.7,36.6 				"/>
			</g>
			
				<linearGradient id="SVGID_6_" gradientUnits="userSpaceOnUse" x1="66.1692" y1="34.9125" x2="70.6717" y2="32.7265" gradientTransform="matrix(1 0 0 1 132.6563 0)">
				<stop  offset="0" style="stop-color:#333333"/>
				<stop  offset="1" style="stop-color:#CCCCCC"/>
			</linearGradient>
			<polygon class="st21" points="199.7,33.1 199.2,35.6 201.1,35.5 203.2,34.3 200.1,32.6 			"/>
			<g>
				<polygon class="st9" points="199.1,34.7 194.4,32 196.8,30.7 201.5,33.4 				"/>
				<polygon class="st15" points="201.5,34.2 199.1,35.6 199.1,34.7 201.5,33.4 				"/>
				<polygon class="st14" points="199.1,35.6 194.4,32.9 194.4,32 199.1,34.7 				"/>
			</g>
		</g>
		<g>
			<polygon class="st1" points="145.2,30.2 145.3,26.6 187.1,50.7 187.1,50.7 187.1,54.4 187.1,54.4 			"/>
			<polygon class="st6" points="218.6,32.1 218.6,35.8 187.1,54.4 187.1,50.7 			"/>
		</g>
		<g>
			
				<linearGradient id="SVGID_7_" gradientUnits="userSpaceOnUse" x1="344.9956" y1="27.9166" x2="351.8998" y2="27.9166" gradientTransform="matrix(1 0 0 1 -179.4102 0)">
				<stop  offset="0" style="stop-color:#333333"/>
				<stop  offset="1" style="stop-color:#CCCCCC"/>
			</linearGradient>
			<polygon class="st22" points="166.4,27.1 165.6,30.5 168.7,29.9 172.5,27.6 168.3,25.3 			"/>
			<g>
				<g>
					<g class="st23">
						<g>
							<polygon class="st15" points="171.1,26.4 171.1,27.4 165.6,30.5 165.6,29.5 							"/>
						</g>
						<g>
							<polygon class="st24" points="165.6,29.5 165.6,30.5 159.6,27.1 159.6,26.1 							"/>
						</g>
						<g>
							<polygon class="st9" points="171.1,26.4 165.6,29.5 159.6,26.1 165.1,22.9 							"/>
						</g>
						<path class="st25" d="M167.8,27.6c-1.3,0.7-3.5,0.7-4.9,0c-1.4-0.7-1.4-2,0-2.7c1.3-0.7,3.5-0.7,4.9,0
							C169.1,25.6,169.1,26.8,167.8,27.6z"/>
						<g>
							<path class="st26" d="M162.9,25.4c1.3-0.7,3.5-0.7,4.9,0c0.6,0.3,0.9,0.7,1,1.1c0.1-0.6-0.2-1.2-1-1.6
								c-1.3-0.7-3.5-0.7-4.9,0c-0.8,0.4-1.1,1-1,1.6C162,26.1,162.3,25.7,162.9,25.4z"/>
						</g>
					</g>
				</g>
				<g>
					<path class="st27" d="M167.9,24.7c-1.4-0.8-3.7-0.8-5.1,0c-1.4,0.8-1.4,2.1,0,3c1.4,0.8,3.7,0.8,5.1,0
						C169.3,26.9,169.3,25.5,167.9,24.7z M167.8,27.6c-1.3,0.7-3.5,0.7-4.9,0c-1.4-0.7-1.4-2,0-2.7c1.3-0.7,3.5-0.7,4.9,0
						C169.1,25.6,169.1,26.8,167.8,27.6z"/>
					<g>
						<g>
							<g>
								<path class="st28" d="M167.6,24.8c1.6,0.9-1.5,1.2-1.6,1.2c-0.2,0-0.3,0-0.4-0.1c-0.1-0.1-0.1-0.1-0.1-0.1
									C165.4,25.6,165.7,23.8,167.6,24.8C167.5,24.8,167.5,24.8,167.6,24.8z"/>
							</g>
							<g>
								<path class="st28" d="M164.5,25.5c0.3,0.2,0.5,0.3,0.5,0.3c0.3,0.3,0,0.3,0,0.3c-0.3,0.1-1.9,0.5-2.5,0.2
									c-0.2-0.1-0.3-0.3-0.1-0.7C162.7,24.7,163.8,25.1,164.5,25.5z"/>
							</g>
							<g>
								<path class="st28" d="M166.4,26.6c0.6,0.4,1.4,1-0.2,1.3c-0.6,0.1-1,0-1.2-0.1c-0.6-0.3,0.2-1.3,0.3-1.4c0,0,0.1-0.2,0.6,0
									C165.9,26.3,166.1,26.4,166.4,26.6z"/>
							</g>
						</g>
						<g>
							<g>
								<path class="st26" d="M165.9,25.6c0.5,0.3,0.5,0.7,0,0.9c-0.4,0.3-1.2,0.3-1.6,0c-0.4-0.3-0.5-0.7,0-0.9
									C164.8,25.3,165.5,25.3,165.9,25.6z"/>
							</g>
							<g>
								<path class="st9" d="M165.5,25.5c0.2,0.1,0.2,0.3,0,0.4c-0.2,0.1-0.5,0.1-0.7,0c-0.2-0.1-0.2-0.3,0-0.4
									C165,25.4,165.3,25.4,165.5,25.5z"/>
							</g>
						</g>
					</g>
				</g>
			</g>
		</g>
		<g>
			
				<linearGradient id="SVGID_8_" gradientUnits="userSpaceOnUse" x1="356.2041" y1="34.7247" x2="363.1083" y2="34.7247" gradientTransform="matrix(1 0 0 1 -179.4102 0)">
				<stop  offset="0" style="stop-color:#333333"/>
				<stop  offset="1" style="stop-color:#CCCCCC"/>
			</linearGradient>
			<polygon class="st29" points="177.6,33.9 176.8,37.4 179.9,36.7 183.7,34.4 179.5,32.1 			"/>
			<g>
				<g>
					<g class="st23">
						<g>
							<polygon class="st15" points="182.3,33.2 182.3,34.2 176.8,37.3 176.8,36.3 							"/>
						</g>
						<g>
							<polygon class="st24" points="176.8,36.3 176.8,37.3 170.8,33.9 170.8,32.9 							"/>
						</g>
						<g>
							<polygon class="st9" points="182.3,33.2 176.8,36.3 170.8,32.9 176.3,29.7 							"/>
						</g>
						<path class="st25" d="M179,34.4c-1.3,0.7-3.5,0.7-4.9,0c-1.4-0.7-1.4-2,0-2.7c1.3-0.7,3.5-0.7,4.9,0
							C180.3,32.4,180.3,33.6,179,34.4z"/>
						<g>
							<path class="st26" d="M174.1,32.2c1.3-0.7,3.5-0.7,4.9,0c0.6,0.3,0.9,0.7,1,1.1c0.1-0.6-0.2-1.2-1-1.6
								c-1.4-0.7-3.5-0.7-4.9,0c-0.8,0.4-1.1,1-1,1.6C173.2,32.9,173.5,32.5,174.1,32.2z"/>
						</g>
					</g>
				</g>
				<g>
					<path class="st27" d="M179.1,31.5c-1.4-0.8-3.7-0.8-5.1,0c-1.4,0.8-1.4,2.1,0,3c1.4,0.8,3.7,0.8,5.1,0
						C180.5,33.7,180.5,32.4,179.1,31.5z M179,34.4c-1.3,0.7-3.5,0.7-4.9,0c-1.4-0.7-1.4-2,0-2.7c1.3-0.7,3.5-0.7,4.9,0
						C180.3,32.4,180.3,33.6,179,34.4z"/>
					<g>
						<g>
							<g>
								<path class="st28" d="M178.8,31.7c1.6,0.9-1.5,1.2-1.6,1.2c-0.2,0-0.3,0-0.4-0.1c-0.1-0.1-0.1-0.1-0.1-0.1
									C176.7,32.4,176.9,30.6,178.8,31.7C178.7,31.6,178.7,31.6,178.8,31.7z"/>
							</g>
							<g>
								<path class="st28" d="M175.7,32.3c0.3,0.2,0.5,0.3,0.5,0.3c0.3,0.3,0,0.3,0,0.3c-0.3,0.1-1.9,0.5-2.5,0.2
									c-0.2-0.1-0.3-0.3-0.1-0.7C173.9,31.5,175,31.9,175.7,32.3z"/>
							</g>
							<g>
								<path class="st28" d="M177.6,33.4c0.6,0.4,1.4,1-0.2,1.3c-0.6,0.1-1,0-1.2-0.1c-0.6-0.3,0.2-1.3,0.3-1.4c0,0,0.1-0.2,0.6,0
									C177.1,33.2,177.3,33.3,177.6,33.4z"/>
							</g>
						</g>
						<g>
							<g>
								<path class="st26" d="M177.1,32.4c0.5,0.3,0.5,0.7,0,0.9c-0.4,0.3-1.2,0.3-1.6,0c-0.5-0.3-0.5-0.7,0-0.9
									C176,32.1,176.7,32.1,177.1,32.4z"/>
							</g>
							<g>
								<path class="st9" d="M176.7,32.3c0.2,0.1,0.2,0.3,0,0.4c-0.2,0.1-0.5,0.1-0.7,0c-0.2-0.1-0.2-0.3,0-0.4
									C176.2,32.2,176.5,32.2,176.7,32.3z"/>
							</g>
						</g>
					</g>
				</g>
			</g>
		</g>
		<g>
			
				<linearGradient id="SVGID_9_" gradientUnits="userSpaceOnUse" x1="367.964" y1="41.6899" x2="374.8682" y2="41.6899" gradientTransform="matrix(1 0 0 1 -179.4102 0)">
				<stop  offset="0" style="stop-color:#333333"/>
				<stop  offset="1" style="stop-color:#CCCCCC"/>
			</linearGradient>
			<polygon class="st30" points="189.3,40.9 188.6,44.3 191.6,43.7 195.5,41.4 191.2,39.1 			"/>
			<g>
				<g>
					<g class="st23">
						<g>
							<polygon class="st15" points="194.1,40.1 194.1,41.1 188.6,44.3 188.6,43.3 							"/>
						</g>
						<g>
							<polygon class="st24" points="188.6,43.3 188.6,44.3 182.5,40.8 182.5,39.8 							"/>
						</g>
						<g>
							<polygon class="st9" points="194.1,40.1 188.6,43.3 182.5,39.8 188.1,36.7 							"/>
						</g>
						<path class="st25" d="M190.7,41.3c-1.3,0.7-3.5,0.7-4.9,0c-1.4-0.7-1.4-2,0-2.7c1.3-0.7,3.5-0.7,4.9,0
							C192.1,39.4,192.1,40.6,190.7,41.3z"/>
						<g>
							<path class="st26" d="M185.8,39.1c1.3-0.7,3.5-0.7,4.9,0c0.6,0.3,0.9,0.7,1,1.1c0.1-0.6-0.2-1.2-1-1.6
								c-1.3-0.7-3.5-0.7-4.9,0c-0.8,0.4-1.1,1-1,1.6C185,39.8,185.3,39.4,185.8,39.1z"/>
						</g>
					</g>
				</g>
				<g>
					<path class="st27" d="M190.8,38.5c-1.4-0.8-3.7-0.8-5.1,0c-1.4,0.8-1.4,2.1,0,3c1.4,0.8,3.7,0.8,5.1,0
						C192.3,40.6,192.2,39.3,190.8,38.5z M190.7,41.3c-1.3,0.7-3.5,0.7-4.9,0c-1.4-0.7-1.4-2,0-2.7c1.3-0.7,3.5-0.7,4.9,0
						C192.1,39.4,192.1,40.6,190.7,41.3z"/>
					<g>
						<g>
							<g>
								<path class="st28" d="M190.5,38.6c1.6,0.9-1.5,1.2-1.6,1.2c-0.2,0-0.3,0-0.4-0.1c-0.1-0.1-0.1-0.1-0.1-0.1
									C188.4,39.4,188.6,37.6,190.5,38.6C190.5,38.6,190.5,38.6,190.5,38.6z"/>
							</g>
							<g>
								<path class="st28" d="M187.4,39.3c0.3,0.2,0.5,0.3,0.5,0.3c0.3,0.3,0,0.3,0,0.3c-0.3,0.1-1.9,0.5-2.5,0.2
									c-0.2-0.1-0.3-0.3-0.1-0.7C185.7,38.4,186.8,38.9,187.4,39.3z"/>
							</g>
							<g>
								<path class="st28" d="M189.4,40.4c0.6,0.4,1.4,1-0.2,1.3c-0.6,0.1-1,0-1.2-0.1c-0.6-0.3,0.2-1.3,0.3-1.4c0,0,0.1-0.2,0.6,0
									C188.8,40.1,189.1,40.2,189.4,40.4z"/>
							</g>
						</g>
						<g>
							<g>
								<path class="st26" d="M188.9,39.4c0.5,0.3,0.5,0.7,0,0.9c-0.4,0.3-1.2,0.3-1.6,0c-0.4-0.3-0.5-0.7,0-0.9
									C187.7,39.1,188.4,39.1,188.9,39.4z"/>
							</g>
							<g>
								<path class="st9" d="M188.4,39.2c0.2,0.1,0.2,0.3,0,0.4c-0.2,0.1-0.5,0.1-0.7,0c-0.2-0.1-0.2-0.3,0-0.4
									C187.9,39.1,188.2,39.1,188.4,39.2z"/>
							</g>
						</g>
					</g>
				</g>
			</g>
		</g>
	</g>
</g>
<g>
	<g>
		<g>
			<g>
				<path class="st2" d="M86.1,128.3v2.6l40.3,23.2v-2.6L86.1,128.3z"/>
			</g>
			<g class="st3">
				<path class="st4" d="M126.4,151.5v2.6l30.1-17.6v-2.6L126.4,151.5z"/>
			</g>
		</g>
		<polygon class="st5" points="89.2,130.2 86.2,128.4 116.2,110.9 156.5,133.9 126.5,151.5 		"/>
	</g>
	<g>
		<polygon class="st6" points="155,133.4 126,150.4 126,132.7 155,115.7 		"/>
	</g>
	<g>
		<path class="st2" d="M87.3,94v34.1l38.7,22.3v-34.1L87.3,94z"/>
	</g>
	<g>
		<polygon class="st7" points="92.4,131.1 92.5,131 92.4,130.9 		"/>
		<polygon class="st8" points="89.5,111.6 89.5,112.6 89.5,128.2 97.1,132.6 97.1,116.1 		"/>
		<polygon class="st9" points="89.5,128.2 89.5,128.2 88.7,128.8 97.1,133.7 97.1,132.6 		"/>
		<polygon class="st6" points="89.5,112.6 89.5,111.6 89.5,111.6 88.7,111.1 88.7,128.8 89.5,128.2 89.5,128.2 		"/>
	</g>
	<g>
		<polygon class="st8" points="98.6,116.9 98.6,117.8 98.6,133.4 106.2,137.9 106.2,121.4 		"/>
		<polygon class="st9" points="98.6,133.4 98.6,133.5 97.8,134.1 106.2,139 106.2,137.9 		"/>
		<polygon class="st6" points="98.6,117.8 98.6,116.9 98.6,116.9 97.8,116.4 97.8,134.1 98.6,133.5 98.6,133.4 		"/>
	</g>
	<g>
		<polygon class="st7" points="110.6,141.6 110.7,141.5 110.6,141.4 		"/>
		<polygon class="st8" points="107.8,122.1 107.8,123.1 107.8,138.7 115.4,143.1 115.4,126.6 		"/>
		<polygon class="st9" points="107.8,138.7 107.8,138.8 107,139.4 115.4,144.3 115.4,143.2 		"/>
		<polygon class="st6" points="107.8,123.1 107.8,122.2 107.8,122.1 107,121.7 107,139.4 107.8,138.8 107.8,138.7 		"/>
	</g>
	<g>
		<polygon class="st7" points="120.1,147.1 120.2,147 120.1,146.9 		"/>
		<polygon class="st8" points="117.2,127.6 117.2,128.6 117.2,144.2 124.8,148.6 124.8,132.1 		"/>
		<polygon class="st9" points="117.2,144.2 117.2,144.2 116.4,144.8 124.8,149.7 124.8,148.6 		"/>
		<polygon class="st6" points="117.2,128.6 117.2,127.6 117.2,127.6 116.4,127.1 116.4,144.8 117.2,144.2 117.2,144.2 		"/>
	</g>
	<g>
		<polygon class="st7" points="131.8,147.2 131.7,147.1 131.8,147.1 		"/>
		<polygon class="st10" points="134.6,127.8 134.6,128.7 134.7,144.3 127.1,148.8 127.1,132.2 		"/>
		<polygon class="st9" points="134.7,144.3 134.7,144.4 135.5,145 127.1,149.9 127.1,148.8 		"/>
		<polygon class="st2" points="134.7,128.7 134.7,127.8 134.6,127.7 135.5,127.3 135.5,145 134.7,144.4 134.7,144.3 		"/>
	</g>
	<g>
		<polygon class="st7" points="141.3,141.8 141.2,141.7 141.3,141.6 		"/>
		<polygon class="st10" points="144.1,122.2 144.1,123.2 144.1,138.9 136.5,143.3 136.5,126.7 		"/>
		<polygon class="st9" points="144.1,138.9 144.1,138.9 144.9,139.5 136.5,144.5 136.5,143.3 		"/>
		<polygon class="st2" points="144.1,123.2 144.1,122.2 144.1,122.2 144.9,121.7 144.9,139.5 144.1,138.9 144.1,138.9 		"/>
	</g>
	<g>
		<polygon class="st7" points="150.5,136.2 150.4,136.2 150.5,136.1 		"/>
		<polygon class="st10" points="153.3,116.8 153.3,117.8 153.4,133.4 145.7,137.8 145.7,121.3 		"/>
		<polygon class="st9" points="153.4,133.4 153.4,133.4 154.2,134 145.7,138.9 145.7,137.8 		"/>
		<polygon class="st2" points="153.4,117.8 153.4,116.8 153.3,116.8 154.2,116.3 154.2,134 153.4,133.4 153.4,133.4 		"/>
	</g>
	<g>
		<path class="st11" d="M87.3,61.8v48.8l38.7,22.3V84.1L87.3,61.8z"/>
	</g>
	<g>
		<polygon class="st12" points="155,115.7 126,132.8 126,83.9 154.9,67 		"/>
	</g>
	<g>
		<g>
			<path class="st12" d="M126,110.3v21.1l28.1-16.2V94.5L126,110.3z"/>
		</g>
		<g>
			<polygon class="st11" points="88.5,109.9 126,131.4 126,110.3 88.5,88.7 			"/>
		</g>
		<g>
			<g>
				<polygon class="st10" points="145.7,110.9 142.8,112.5 126,122.3 126,130.7 127.5,129.9 145.7,119.4 				"/>
				<g>
					<polygon class="st5" points="145,111.3 144.1,111.8 144.1,118 126,128.5 126,129.6 144.1,119.1 145,118.6 					"/>
				</g>
				<g>
					<polygon class="st12" points="145.7,110.9 145,111.3 145,118.6 144.1,119.1 126,129.6 126,130.7 144.1,120.2 145,119.7 
						145.7,119.4 					"/>
				</g>
			</g>
			<g>
				<polygon class="st8" points="112.7,114.6 106.8,111.4 106.8,119.7 117.2,125.6 126,130.7 126,122.3 				"/>
				<g>
					<polygon class="st9" points="107.2,117.8 107.2,111.5 106.3,111 106.3,118.3 107.2,118.8 126.1,129.6 126.1,128.5 					"/>
				</g>
				<polygon class="st11" points="107.2,118.8 106.3,118.3 106.3,111 105.6,110.6 105.6,119 106.3,119.4 107.2,120 126.1,130.7 
					126.1,129.6 				"/>
			</g>
		</g>
		<g>
			<g>
				<polygon class="st10" points="145.7,101.9 142.8,103.5 126,113.2 126,121.7 127.5,120.8 145.7,110.3 				"/>
				<g>
					<polygon class="st5" points="145,102.3 144.1,102.8 144.1,109 126,119.5 126,120.5 144.1,110.1 145,109.6 					"/>
				</g>
				<g>
					<polygon class="st12" points="145.7,101.9 145,102.3 145,109.6 144.1,110.1 126,120.5 126,121.7 144.1,111.2 145,110.7 
						145.7,110.3 					"/>
				</g>
			</g>
			<g>
				<polygon class="st8" points="112.7,105.5 106.8,102.3 106.8,110.7 117.2,116.5 126,121.7 126,113.2 				"/>
				<g>
					<polygon class="st9" points="107.2,108.7 107.2,102.5 106.3,102 106.3,109.3 107.2,109.8 126,120.5 126,119.5 					"/>
				</g>
				<polygon class="st11" points="107.2,109.8 106.3,109.3 106.3,102 105.6,101.6 105.6,110 106.3,110.4 107.2,110.9 126,121.7 
					126,120.5 				"/>
			</g>
		</g>
		<g>
			<g>
				<g>
					<polygon class="st10" points="147.7,103.9 151.8,101.6 151.8,99.4 147.7,101.7 					"/>
				</g>
				<g>
					<polygon class="st5" points="147.7,103.2 147.7,103.9 151.8,101.6 151.8,99.4 151.2,99.8 151.2,101.2 					"/>
				</g>
			</g>
			<g>
				<g>
					<polygon class="st10" points="147.7,108 151.8,105.6 151.8,103.4 147.7,105.8 					"/>
				</g>
				<g>
					<polygon class="st5" points="147.7,107.2 147.7,108 151.8,105.6 151.8,103.4 151.2,103.8 151.2,105.2 					"/>
				</g>
			</g>
			<g>
				<g>
					<polygon class="st10" points="147.7,112 151.8,109.7 151.8,107.5 147.7,109.8 					"/>
				</g>
				<g>
					<polygon class="st5" points="147.7,111.3 147.7,112 151.8,109.7 151.8,107.5 151.2,107.9 151.2,109.3 					"/>
				</g>
			</g>
			<g>
				<g>
					<polygon class="st10" points="147.7,116.1 151.8,113.8 151.8,111.6 147.7,113.9 					"/>
				</g>
				<g>
					<polygon class="st5" points="147.7,115.3 147.7,116.1 151.8,113.8 151.8,111.6 151.2,111.9 151.2,113.4 					"/>
				</g>
			</g>
		</g>
		<g>
			<g>
				<g>
					<polygon class="st8" points="104.7,103.9 100.5,101.6 100.5,99.4 104.7,101.7 					"/>
				</g>
				<g>
					<polygon class="st9" points="104.7,103.1 104.7,103.9 100.5,101.6 100.5,99.4 101.1,99.7 101.1,101.2 					"/>
				</g>
			</g>
			<g>
				<g>
					<polygon class="st8" points="104.7,108 100.5,105.7 100.5,103.5 104.7,105.8 					"/>
				</g>
				<g>
					<polygon class="st9" points="104.7,107.2 104.7,108 100.5,105.7 100.5,103.5 101.1,103.8 101.1,105.3 					"/>
				</g>
			</g>
			<g>
				<g>
					<polygon class="st8" points="104.7,112.1 100.5,109.8 100.5,107.6 104.7,109.9 					"/>
				</g>
				<g>
					<polygon class="st9" points="104.7,111.3 104.7,112.1 100.5,109.8 100.5,107.6 101.1,107.9 101.1,109.4 					"/>
				</g>
			</g>
			<g>
				<g>
					<polygon class="st8" points="104.8,116.2 100.7,113.9 100.7,111.7 104.8,114 					"/>
				</g>
				<g>
					<polygon class="st9" points="104.8,115.4 104.8,116.2 100.7,113.9 100.7,111.7 101.3,112 101.3,113.5 					"/>
				</g>
			</g>
		</g>
		<g>
			<g>
				<g>
					<polygon class="st8" points="99.3,101.2 95.1,98.9 95.1,96.7 99.3,99 					"/>
				</g>
				<g>
					<polygon class="st9" points="99.3,100.5 99.3,101.2 95.1,98.9 95.1,96.7 95.7,97.1 95.7,98.5 					"/>
				</g>
			</g>
			<g>
				<g>
					<polygon class="st8" points="99.3,105.3 95.1,103 95.1,100.8 99.3,103.1 					"/>
				</g>
				<g>
					<polygon class="st9" points="99.3,104.6 99.3,105.3 95.1,103 95.1,100.8 95.7,101.2 95.7,102.6 					"/>
				</g>
			</g>
			<g>
				<g>
					<polygon class="st8" points="99.3,109.4 95.1,107.1 95.1,104.9 99.3,107.2 					"/>
				</g>
				<g>
					<polygon class="st9" points="99.3,108.7 99.3,109.4 95.1,107.1 95.1,104.9 95.7,105.3 95.7,106.7 					"/>
				</g>
			</g>
			<g>
				<g>
					<polygon class="st8" points="99.4,113.5 95.2,111.2 95.2,109 99.4,111.3 					"/>
				</g>
				<g>
					<polygon class="st9" points="99.4,112.8 99.4,113.5 95.2,111.2 95.2,109 95.9,109.4 95.9,110.8 					"/>
				</g>
			</g>
		</g>
		<g>
			<g>
				<g>
					<polygon class="st8" points="93.9,98.3 89.7,96 89.7,93.8 93.9,96.1 					"/>
				</g>
				<g>
					<polygon class="st9" points="93.9,97.6 93.9,98.3 89.7,96 89.7,93.8 90.4,94.1 90.4,95.6 					"/>
				</g>
			</g>
			<g>
				<g>
					<polygon class="st8" points="93.9,102.4 89.7,100.1 89.7,97.9 93.9,100.2 					"/>
				</g>
				<g>
					<polygon class="st9" points="93.9,101.7 93.9,102.4 89.7,100.1 89.7,97.9 90.4,98.2 90.4,99.7 					"/>
				</g>
			</g>
			<g>
				<g>
					<polygon class="st8" points="93.9,106.5 89.7,104.2 89.7,102 93.9,104.3 					"/>
				</g>
				<g>
					<polygon class="st9" points="93.9,105.8 93.9,106.5 89.7,104.2 89.7,102 90.4,102.4 90.4,103.8 					"/>
				</g>
			</g>
			<g>
				<g>
					<polygon class="st8" points="94.1,110.6 89.9,108.3 89.9,106.1 94.1,108.4 					"/>
				</g>
				<g>
					<polygon class="st9" points="94.1,109.9 94.1,110.6 89.9,108.3 89.9,106.1 90.5,106.5 90.5,107.9 					"/>
				</g>
			</g>
		</g>
	</g>
	<g>
		<g>
			<path class="st12" d="M126,88.3v21.1l28.1-16.2V72.5L126,88.3z"/>
		</g>
		<g>
			<polygon class="st11" points="88.5,87.9 126,109.4 126,88.3 88.5,66.7 			"/>
		</g>
		<g>
			<g>
				<polygon class="st10" points="145.7,88.9 142.8,90.5 126,100.3 126,108.7 127.5,107.9 145.7,97.4 				"/>
				<g>
					<polygon class="st5" points="145,89.3 144.1,89.8 144.1,96 126,106.5 126,107.6 144.1,97.1 145,96.6 					"/>
				</g>
				<g>
					<polygon class="st12" points="145.7,88.9 145,89.3 145,96.6 144.1,97.1 126,107.6 126,108.7 144.1,98.3 145,97.8 145.7,97.4 
											"/>
				</g>
			</g>
			<g>
				<polygon class="st8" points="112.7,92.6 106.8,89.4 106.8,97.7 117.2,103.6 126,108.7 126,100.3 				"/>
				<g>
					<polygon class="st9" points="107.2,95.8 107.2,89.5 106.3,89 106.3,96.3 107.2,96.8 126.1,107.6 126.1,106.5 					"/>
				</g>
				<polygon class="st11" points="107.2,96.8 106.3,96.3 106.3,89 105.6,88.6 105.6,97 106.3,97.4 107.2,98 126.1,108.7 
					126.1,107.6 				"/>
			</g>
		</g>
		<g>
			<g>
				<polygon class="st10" points="145.7,79.9 142.8,81.5 126,91.2 126,99.7 127.5,98.8 145.7,88.3 				"/>
				<g>
					<polygon class="st5" points="145,80.3 144.1,80.8 144.1,87 126,97.5 126,98.5 144.1,88.1 145,87.6 					"/>
				</g>
				<g>
					<polygon class="st12" points="145.7,79.9 145,80.3 145,87.6 144.1,88.1 126,98.5 126,99.7 144.1,89.2 145,88.7 145.7,88.3 
											"/>
				</g>
			</g>
			<g>
				<polygon class="st8" points="112.7,83.5 106.8,80.3 106.8,88.7 117.2,94.5 126,99.7 126,91.2 				"/>
				<g>
					<polygon class="st9" points="107.2,86.7 107.2,80.5 106.3,80 106.3,87.3 107.2,87.8 126,98.5 126,97.5 					"/>
				</g>
				<polygon class="st11" points="107.2,87.8 106.3,87.3 106.3,80 105.6,79.6 105.6,88 106.3,88.4 107.2,88.9 126,99.7 126,98.5 
									"/>
			</g>
		</g>
		<g>
			<g>
				<g>
					<polygon class="st10" points="147.7,81.9 151.8,79.6 151.8,77.4 147.7,79.7 					"/>
				</g>
				<g>
					<polygon class="st5" points="147.7,81.2 147.7,81.9 151.8,79.6 151.8,77.4 151.2,77.8 151.2,79.2 					"/>
				</g>
			</g>
			<g>
				<g>
					<polygon class="st10" points="147.7,86 151.8,83.6 151.8,81.4 147.7,83.8 					"/>
				</g>
				<g>
					<polygon class="st5" points="147.7,85.2 147.7,86 151.8,83.6 151.8,81.4 151.2,81.8 151.2,83.2 					"/>
				</g>
			</g>
			<g>
				<g>
					<polygon class="st10" points="147.7,90 151.8,87.7 151.8,85.5 147.7,87.9 					"/>
				</g>
				<g>
					<polygon class="st5" points="147.7,89.3 147.7,90 151.8,87.7 151.8,85.5 151.2,85.9 151.2,87.3 					"/>
				</g>
			</g>
			<g>
				<g>
					<polygon class="st10" points="147.7,94.1 151.8,91.8 151.8,89.6 147.7,91.9 					"/>
				</g>
				<g>
					<polygon class="st5" points="147.7,93.3 147.7,94.1 151.8,91.8 151.8,89.6 151.2,89.9 151.2,91.4 					"/>
				</g>
			</g>
		</g>
		<g>
			<g>
				<g>
					<polygon class="st8" points="104.7,81.9 100.5,79.6 100.5,77.4 104.7,79.7 					"/>
				</g>
				<g>
					<polygon class="st9" points="104.7,81.1 104.7,81.9 100.5,79.6 100.5,77.4 101.1,77.7 101.1,79.2 					"/>
				</g>
			</g>
			<g>
				<g>
					<polygon class="st8" points="104.7,86 100.5,83.7 100.5,81.5 104.7,83.8 					"/>
				</g>
				<g>
					<polygon class="st9" points="104.7,85.2 104.7,86 100.5,83.7 100.5,81.5 101.1,81.8 101.1,83.3 					"/>
				</g>
			</g>
			<g>
				<g>
					<polygon class="st8" points="104.7,90.1 100.5,87.8 100.5,85.6 104.7,87.9 					"/>
				</g>
				<g>
					<polygon class="st9" points="104.7,89.3 104.7,90.1 100.5,87.8 100.5,85.6 101.1,85.9 101.1,87.4 					"/>
				</g>
			</g>
			<g>
				<g>
					<polygon class="st8" points="104.8,94.2 100.7,91.9 100.7,89.7 104.8,92 					"/>
				</g>
				<g>
					<polygon class="st9" points="104.8,93.4 104.8,94.2 100.7,91.9 100.7,89.7 101.3,90 101.3,91.5 					"/>
				</g>
			</g>
		</g>
		<g>
			<g>
				<g>
					<polygon class="st8" points="99.3,79.2 95.1,76.9 95.1,74.7 99.3,77 					"/>
				</g>
				<g>
					<polygon class="st9" points="99.3,78.5 99.3,79.2 95.1,76.9 95.1,74.7 95.7,75.1 95.7,76.5 					"/>
				</g>
			</g>
			<g>
				<g>
					<polygon class="st8" points="99.3,83.3 95.1,81 95.1,78.8 99.3,81.1 					"/>
				</g>
				<g>
					<polygon class="st9" points="99.3,82.6 99.3,83.3 95.1,81 95.1,78.8 95.7,79.2 95.7,80.6 					"/>
				</g>
			</g>
			<g>
				<g>
					<polygon class="st8" points="99.3,87.4 95.1,85.1 95.1,82.9 99.3,85.2 					"/>
				</g>
				<g>
					<polygon class="st9" points="99.3,86.7 99.3,87.4 95.1,85.1 95.1,82.9 95.7,83.3 95.7,84.7 					"/>
				</g>
			</g>
			<g>
				<g>
					<polygon class="st8" points="99.4,91.5 95.2,89.2 95.2,87 99.4,89.3 					"/>
				</g>
				<g>
					<polygon class="st9" points="99.4,90.8 99.4,91.5 95.2,89.2 95.2,87 95.9,87.4 95.9,88.8 					"/>
				</g>
			</g>
		</g>
		<g>
			<g>
				<g>
					<polygon class="st8" points="93.9,76.3 89.7,74 89.7,71.8 93.9,74.1 					"/>
				</g>
				<g>
					<polygon class="st9" points="93.9,75.6 93.9,76.3 89.7,74 89.7,71.8 90.4,72.1 90.4,73.6 					"/>
				</g>
			</g>
			<g>
				<g>
					<polygon class="st8" points="93.9,80.4 89.7,78.1 89.7,75.9 93.9,78.2 					"/>
				</g>
				<g>
					<polygon class="st9" points="93.9,79.7 93.9,80.4 89.7,78.1 89.7,75.9 90.4,76.3 90.4,77.7 					"/>
				</g>
			</g>
			<g>
				<g>
					<polygon class="st8" points="93.9,84.5 89.7,82.2 89.7,80 93.9,82.3 					"/>
				</g>
				<g>
					<polygon class="st9" points="93.9,83.8 93.9,84.5 89.7,82.2 89.7,80 90.4,80.4 90.4,81.8 					"/>
				</g>
			</g>
			<g>
				<g>
					<polygon class="st8" points="94.1,88.6 89.9,86.3 89.9,84.1 94.1,86.4 					"/>
				</g>
				<g>
					<polygon class="st9" points="94.1,87.9 94.1,88.6 89.9,86.3 89.9,84.1 90.5,84.5 90.5,85.9 					"/>
				</g>
			</g>
		</g>
	</g>
	<g>
		<g class="st3">
			<path class="st13" d="M87.3,66.1v4.6L126,93.1v-4.6L87.3,66.1z"/>
		</g>
		<g class="st3">
			<path class="st13" d="M126,88.4v4.6l28.9-16.9v-4.6L126,88.4z"/>
		</g>
		<polygon class="st9" points="87.4,62.8 84.3,61 115.6,42.6 157.6,66.6 126.2,85.2 		"/>
		<polygon class="st1" points="125.9,82.9 90.5,62.5 90.2,62.3 115.5,47.4 151.2,68 150.9,68.2 		"/>
		<g>
			<polygon class="st14" points="153.6,66.6 151.2,68 115.5,47.4 115.5,44.6 			"/>
			<polygon class="st15" points="115.5,44.6 115.5,44.6 115.5,47.4 115.5,47.4 90.2,62.3 87.7,60.9 			"/>
		</g>
		<g>
			
				<linearGradient id="SVGID_10_" gradientUnits="userSpaceOnUse" x1="161.5816" y1="58.5204" x2="169.4919" y2="54.6799" gradientTransform="matrix(1 0 0 1 -46.0469 0)">
				<stop  offset="0" style="stop-color:#333333"/>
				<stop  offset="1" style="stop-color:#CCCCCC"/>
			</linearGradient>
			<polygon class="st31" points="116.8,55.3 115.9,59.3 120.5,59.3 123.4,57.8 117.4,54.4 			"/>
			<g>
				<polygon class="st9" points="115.9,58.2 108.6,54 112.8,51.6 120,55.8 				"/>
				<polygon class="st15" points="120,56.8 115.9,59.2 115.9,58.2 120,55.8 				"/>
				<polygon class="st14" points="115.9,59.2 108.6,55 108.6,54 115.9,58.2 				"/>
			</g>
			
				<linearGradient id="SVGID_11_" gradientUnits="userSpaceOnUse" x1="161.0638" y1="56.5176" x2="165.5663" y2="54.3316" gradientTransform="matrix(1 0 0 1 -46.0469 0)">
				<stop  offset="0" style="stop-color:#333333"/>
				<stop  offset="1" style="stop-color:#CCCCCC"/>
			</linearGradient>
			<polygon class="st32" points="115.9,54.7 115.3,57.2 117.3,57.1 119.4,55.9 116.3,54.2 			"/>
			<g>
				<polygon class="st9" points="115.3,56.3 110.6,53.6 113,52.3 117.7,55 				"/>
				<polygon class="st15" points="117.7,55.8 115.3,57.2 115.3,56.3 117.7,55 				"/>
				<polygon class="st14" points="115.3,57.2 110.6,54.5 110.6,53.6 115.3,56.3 				"/>
			</g>
		</g>
		<g>
			
				<linearGradient id="SVGID_12_" gradientUnits="userSpaceOnUse" x1="-5.5975" y1="65.1955" x2="2.3155" y2="61.3536" gradientTransform="matrix(1 0 0 1 132.6563 0)">
				<stop  offset="0" style="stop-color:#333333"/>
				<stop  offset="1" style="stop-color:#CCCCCC"/>
			</linearGradient>
			<polygon class="st33" points="128.4,62 127.4,65.9 132,66 134.9,64.5 128.9,61.1 			"/>
			<g>
				<polygon class="st9" points="127.4,64.9 120.1,60.7 124.3,58.3 131.5,62.5 				"/>
				<polygon class="st15" points="131.5,63.5 127.4,65.9 127.4,64.9 131.5,62.5 				"/>
				<polygon class="st14" points="127.4,65.9 120.1,61.7 120.1,60.7 127.4,64.9 				"/>
			</g>
			
				<linearGradient id="SVGID_13_" gradientUnits="userSpaceOnUse" x1="-6.1124" y1="63.1931" x2="-1.6118" y2="61.008" gradientTransform="matrix(1 0 0 1 132.6563 0)">
				<stop  offset="0" style="stop-color:#333333"/>
				<stop  offset="1" style="stop-color:#CCCCCC"/>
			</linearGradient>
			<polygon class="st34" points="127.5,61.4 126.9,63.9 128.8,63.8 130.9,62.6 127.8,60.9 			"/>
			<g>
				<polygon class="st9" points="126.8,63 122.1,60.3 124.5,58.9 129.2,61.6 				"/>
				<polygon class="st15" points="129.2,62.5 126.8,63.9 126.8,63 129.2,61.6 				"/>
				<polygon class="st14" points="126.8,63.9 122.1,61.2 122.1,60.3 126.8,63 				"/>
			</g>
		</g>
		<g>
			
				<linearGradient id="SVGID_14_" gradientUnits="userSpaceOnUse" x1="5.7191" y1="71.3762" x2="13.6283" y2="67.5362" gradientTransform="matrix(1 0 0 1 132.6563 0)">
				<stop  offset="0" style="stop-color:#333333"/>
				<stop  offset="1" style="stop-color:#CCCCCC"/>
			</linearGradient>
			<polygon class="st35" points="139.7,68.1 138.7,72.1 143.4,72.2 146.2,70.7 140.2,67.3 			"/>
			<g>
				<polygon class="st9" points="138.7,71.1 131.4,66.9 135.6,64.5 142.9,68.7 				"/>
				<polygon class="st15" points="142.9,69.7 138.7,72.1 138.7,71.1 142.9,68.7 				"/>
				<polygon class="st14" points="138.7,72.1 131.4,67.9 131.4,66.9 138.7,71.1 				"/>
			</g>
			
				<linearGradient id="SVGID_15_" gradientUnits="userSpaceOnUse" x1="5.1983" y1="69.3733" x2="9.7017" y2="67.1868" gradientTransform="matrix(1 0 0 1 132.6563 0)">
				<stop  offset="0" style="stop-color:#333333"/>
				<stop  offset="1" style="stop-color:#CCCCCC"/>
			</linearGradient>
			<polygon class="st36" points="138.8,67.6 138.2,70.1 140.2,70 142.2,68.8 139.1,67 			"/>
			<g>
				<polygon class="st9" points="138.1,69.2 133.5,66.5 135.9,65.1 140.6,67.8 				"/>
				<polygon class="st15" points="140.6,68.7 138.1,70.1 138.1,69.2 140.6,67.8 				"/>
				<polygon class="st14" points="138.1,70.1 133.5,67.3 133.5,66.5 138.1,69.2 				"/>
			</g>
		</g>
		<g>
			<polygon class="st1" points="84.3,64.6 84.3,61 126.2,85.2 126.2,85.2 126.2,88.9 126.2,88.9 			"/>
			<polygon class="st6" points="157.6,66.6 157.6,70.2 126.2,88.9 126.2,85.2 			"/>
		</g>
		<g>
			
				<linearGradient id="SVGID_16_" gradientUnits="userSpaceOnUse" x1="284.0255" y1="62.3769" x2="290.9297" y2="62.3769" gradientTransform="matrix(1 0 0 1 -179.4102 0)">
				<stop  offset="0" style="stop-color:#333333"/>
				<stop  offset="1" style="stop-color:#CCCCCC"/>
			</linearGradient>
			<polygon class="st37" points="105.4,61.6 104.6,65 107.7,64.4 111.5,62.1 107.3,59.7 			"/>
			<g>
				<g>
					<g class="st23">
						<g>
							<polygon class="st15" points="110.1,60.8 110.1,61.8 104.6,65 104.6,64 							"/>
						</g>
						<g>
							<polygon class="st24" points="104.6,64 104.6,65 98.6,61.5 98.6,60.5 							"/>
						</g>
						<g>
							<polygon class="st9" points="110.1,60.8 104.6,64 98.6,60.5 104.1,57.3 							"/>
						</g>
						<path class="st25" d="M106.8,62c-1.3,0.7-3.5,0.7-4.9,0c-1.4-0.7-1.4-2,0-2.7c1.3-0.7,3.5-0.7,4.9,0
							C108.1,60.1,108.1,61.3,106.8,62z"/>
						<g>
							<path class="st26" d="M101.9,59.8c1.3-0.7,3.5-0.7,4.9,0c0.6,0.3,0.9,0.7,1,1.1c0.1-0.6-0.2-1.2-1-1.6
								c-1.3-0.7-3.5-0.7-4.9,0c-0.8,0.4-1.1,1-1,1.6C101,60.5,101.3,60.1,101.9,59.8z"/>
						</g>
					</g>
				</g>
				<g>
					<path class="st27" d="M106.9,59.2c-1.4-0.8-3.7-0.8-5.1,0c-1.4,0.8-1.4,2.1,0,3c1.4,0.8,3.7,0.8,5.1,0
						C108.3,61.3,108.3,60,106.9,59.2z M106.8,62c-1.3,0.7-3.5,0.7-4.9,0c-1.4-0.7-1.4-2,0-2.7c1.3-0.7,3.5-0.7,4.9,0
						C108.1,60.1,108.1,61.3,106.8,62z"/>
					<g>
						<g>
							<g>
								<path class="st28" d="M106.6,59.3c1.6,0.9-1.5,1.2-1.6,1.2c-0.2,0-0.3,0-0.4-0.1c-0.1-0.1-0.1-0.1-0.1-0.1
									C104.5,60.1,104.7,58.3,106.6,59.3C106.5,59.3,106.6,59.3,106.6,59.3z"/>
							</g>
							<g>
								<path class="st28" d="M103.5,60c0.3,0.2,0.5,0.3,0.5,0.3c0.3,0.3,0,0.3,0,0.3c-0.3,0.1-1.9,0.5-2.5,0.2
									c-0.2-0.1-0.3-0.3-0.1-0.7C101.7,59.1,102.8,59.6,103.5,60z"/>
							</g>
							<g>
								<path class="st28" d="M105.4,61.1c0.6,0.4,1.4,1-0.2,1.3c-0.6,0.1-1,0-1.2-0.1c-0.6-0.3,0.2-1.3,0.3-1.4c0,0,0.1-0.2,0.6,0
									C104.9,60.8,105.1,60.9,105.4,61.1z"/>
							</g>
						</g>
						<g>
							<g>
								<path class="st26" d="M105,60c0.5,0.3,0.5,0.7,0,0.9c-0.4,0.3-1.2,0.3-1.6,0c-0.4-0.3-0.5-0.7,0-0.9
									C103.8,59.8,104.5,59.8,105,60z"/>
							</g>
							<g>
								<path class="st9" d="M104.5,59.9c0.2,0.1,0.2,0.3,0,0.4c-0.2,0.1-0.5,0.1-0.7,0c-0.2-0.1-0.2-0.3,0-0.4
									C104,59.8,104.3,59.8,104.5,59.9z"/>
							</g>
						</g>
					</g>
				</g>
			</g>
		</g>
		<g>
			
				<linearGradient id="SVGID_17_" gradientUnits="userSpaceOnUse" x1="295.234" y1="69.1869" x2="302.1382" y2="69.1869" gradientTransform="matrix(1 0 0 1 -179.4102 0)">
				<stop  offset="0" style="stop-color:#333333"/>
				<stop  offset="1" style="stop-color:#CCCCCC"/>
			</linearGradient>
			<polygon class="st38" points="116.6,68.4 115.8,71.8 118.9,71.2 122.7,68.9 118.5,66.6 			"/>
			<g>
				<g>
					<g class="st23">
						<g>
							<polygon class="st15" points="121.3,67.6 121.3,68.6 115.8,71.8 115.8,70.8 							"/>
						</g>
						<g>
							<polygon class="st24" points="115.8,70.8 115.8,71.8 109.8,68.3 109.8,67.3 							"/>
						</g>
						<g>
							<polygon class="st9" points="121.3,67.6 115.8,70.8 109.8,67.3 115.3,64.2 							"/>
						</g>
						<path class="st25" d="M118,68.8c-1.3,0.7-3.5,0.7-4.9,0c-1.4-0.7-1.4-2,0-2.7c1.3-0.7,3.5-0.7,4.9,0
							C119.3,66.9,119.3,68.1,118,68.8z"/>
						<g>
							<path class="st26" d="M113.1,66.6c1.3-0.7,3.5-0.7,4.9,0c0.6,0.3,0.9,0.7,1,1.1c0.1-0.6-0.2-1.2-1-1.6
								c-1.4-0.7-3.5-0.7-4.9,0c-0.8,0.4-1.1,1-1,1.6C112.2,67.3,112.6,66.9,113.1,66.6z"/>
						</g>
					</g>
				</g>
				<g>
					<path class="st27" d="M118.1,66c-1.4-0.8-3.7-0.8-5.1,0c-1.4,0.8-1.4,2.1,0,3c1.4,0.8,3.7,0.8,5.1,0
						C119.5,68.1,119.5,66.8,118.1,66z M118,68.8c-1.3,0.7-3.5,0.7-4.9,0c-1.4-0.7-1.4-2,0-2.7c1.3-0.7,3.5-0.7,4.9,0
						C119.3,66.9,119.3,68.1,118,68.8z"/>
					<g>
						<g>
							<g>
								<path class="st28" d="M117.8,66.1c1.6,0.9-1.5,1.2-1.6,1.2c-0.2,0-0.3,0-0.4-0.1c-0.1-0.1-0.1-0.1-0.1-0.1
									C115.7,66.9,115.9,65.1,117.8,66.1C117.8,66.1,117.8,66.1,117.8,66.1z"/>
							</g>
							<g>
								<path class="st28" d="M114.7,66.8c0.3,0.2,0.5,0.3,0.5,0.3c0.3,0.3,0,0.3,0,0.3c-0.3,0.1-1.9,0.5-2.5,0.2
									c-0.2-0.1-0.3-0.3-0.1-0.7C112.9,65.9,114.1,66.4,114.7,66.8z"/>
							</g>
							<g>
								<path class="st28" d="M116.6,67.9c0.6,0.4,1.4,1-0.2,1.3c-0.6,0.1-1,0-1.2-0.1c-0.6-0.3,0.2-1.3,0.3-1.4c0,0,0.1-0.2,0.6,0
									C116.1,67.6,116.3,67.7,116.6,67.9z"/>
							</g>
						</g>
						<g>
							<g>
								<path class="st26" d="M116.2,66.8c0.5,0.3,0.5,0.7,0,0.9c-0.4,0.3-1.2,0.3-1.6,0c-0.5-0.3-0.5-0.7,0-0.9
									C115,66.6,115.7,66.6,116.2,66.8z"/>
							</g>
							<g>
								<path class="st9" d="M115.7,66.7c0.2,0.1,0.2,0.3,0,0.4c-0.2,0.1-0.5,0.1-0.7,0c-0.2-0.1-0.2-0.3,0-0.4
									C115.2,66.6,115.5,66.6,115.7,66.7z"/>
							</g>
						</g>
					</g>
				</g>
			</g>
		</g>
		<g>
			
				<linearGradient id="SVGID_18_" gradientUnits="userSpaceOnUse" x1="306.994" y1="76.1511" x2="313.898" y2="76.1511" gradientTransform="matrix(1 0 0 1 -179.4102 0)">
				<stop  offset="0" style="stop-color:#333333"/>
				<stop  offset="1" style="stop-color:#CCCCCC"/>
			</linearGradient>
			<polygon class="st39" points="128.4,75.3 127.6,78.8 130.7,78.2 134.5,75.8 130.3,73.5 			"/>
			<g>
				<g>
					<g class="st23">
						<g>
							<polygon class="st15" points="133.1,74.6 133.1,75.6 127.6,78.8 127.6,77.8 							"/>
						</g>
						<g>
							<polygon class="st24" points="127.6,77.8 127.6,78.8 121.6,75.3 121.6,74.3 							"/>
						</g>
						<g>
							<polygon class="st9" points="133.1,74.6 127.6,77.8 121.6,74.3 127.1,71.1 							"/>
						</g>
						<path class="st25" d="M129.8,75.8c-1.3,0.7-3.5,0.7-4.9,0c-1.4-0.7-1.4-2,0-2.7c1.3-0.7,3.5-0.7,4.9,0
							C131.1,73.8,131.1,75.1,129.8,75.8z"/>
						<g>
							<path class="st26" d="M124.9,73.6c1.3-0.7,3.5-0.7,4.9,0c0.6,0.3,0.9,0.7,1,1.1c0.1-0.6-0.2-1.2-1-1.6
								c-1.3-0.7-3.5-0.7-4.9,0c-0.8,0.4-1.1,1-1,1.6C124,74.3,124.3,73.9,124.9,73.6z"/>
						</g>
					</g>
				</g>
				<g>
					<path class="st27" d="M129.9,73c-1.4-0.8-3.7-0.8-5.1,0c-1.4,0.8-1.4,2.1,0,3c1.4,0.8,3.7,0.8,5.1,0
						C131.3,75.1,131.3,73.8,129.9,73z M129.8,75.8c-1.3,0.7-3.5,0.7-4.9,0c-1.4-0.7-1.4-2,0-2.7c1.3-0.7,3.5-0.7,4.9,0
						C131.1,73.8,131.1,75.1,129.8,75.8z"/>
					<g>
						<g>
							<g>
								<path class="st28" d="M129.6,73.1c1.6,0.9-1.5,1.2-1.6,1.2c-0.2,0-0.3,0-0.4-0.1c-0.1-0.1-0.1-0.1-0.1-0.1
									C127.4,73.9,127.7,72.1,129.6,73.1C129.5,73,129.5,73.1,129.6,73.1z"/>
							</g>
							<g>
								<path class="st28" d="M126.5,73.7c0.3,0.2,0.5,0.3,0.5,0.3c0.3,0.3,0,0.3,0,0.3c-0.3,0.1-1.9,0.5-2.5,0.2
									c-0.2-0.1-0.3-0.3-0.1-0.7C124.7,72.9,125.8,73.4,126.5,73.7z"/>
							</g>
							<g>
								<path class="st28" d="M128.4,74.8c0.6,0.4,1.4,1-0.2,1.3c-0.6,0.1-1,0-1.2-0.1c-0.6-0.3,0.2-1.3,0.3-1.4c0,0,0.1-0.2,0.6,0
									C127.9,74.6,128.1,74.7,128.4,74.8z"/>
							</g>
						</g>
						<g>
							<g>
								<path class="st26" d="M127.9,73.8c0.5,0.3,0.5,0.7,0,0.9c-0.4,0.3-1.2,0.3-1.6,0c-0.4-0.3-0.5-0.7,0-0.9
									C126.8,73.6,127.5,73.6,127.9,73.8z"/>
							</g>
							<g>
								<path class="st9" d="M127.5,73.7c0.2,0.1,0.2,0.3,0,0.4c-0.2,0.1-0.5,0.1-0.7,0c-0.2-0.1-0.2-0.3,0-0.4
									C127,73.6,127.3,73.6,127.5,73.7z"/>
							</g>
						</g>
					</g>
				</g>
			</g>
		</g>
	</g>
</g>
<g>
	<g>
		<g>
			<g>
				<path class="st2" d="M25.2,164.1v2.6l40.3,23.2v-2.6L25.2,164.1z"/>
			</g>
			<g class="st3">
				<path class="st4" d="M65.4,187.3v2.6l30.1-17.6v-2.6L65.4,187.3z"/>
			</g>
		</g>
		<polygon class="st5" points="28.3,166 25.3,164.2 55.2,146.7 95.5,169.6 65.5,187.3 		"/>
	</g>
	<g>
		<polygon class="st6" points="94.1,169.2 65,186.2 65,168.5 94.1,151.5 		"/>
	</g>
	<g>
		<path class="st2" d="M26.4,129.7v34.1L65,186.2V152L26.4,129.7z"/>
	</g>
	<g>
		<polygon class="st7" points="31.4,166.8 31.5,166.8 31.4,166.7 		"/>
		<polygon class="st8" points="28.6,147.4 28.6,148.4 28.5,164 36.2,168.4 36.2,151.9 		"/>
		<polygon class="st9" points="28.6,164 28.6,164 27.7,164.6 36.2,169.5 36.2,168.4 		"/>
		<polygon class="st6" points="28.6,148.4 28.6,147.4 28.6,147.4 27.7,146.9 27.7,164.6 28.6,164 28.6,164 		"/>
	</g>
	<g>
		<polygon class="st8" points="37.7,152.7 37.7,153.6 37.6,169.2 45.2,173.7 45.2,157.1 		"/>
		<polygon class="st9" points="37.6,169.2 37.6,169.2 36.8,169.9 45.2,174.8 45.2,173.7 		"/>
		<polygon class="st6" points="37.6,153.6 37.6,152.7 37.6,152.6 36.8,152.2 36.8,169.9 37.6,169.2 37.6,169.2 		"/>
	</g>
	<g>
		<polygon class="st7" points="49.7,177.3 49.8,177.3 49.7,177.2 		"/>
		<polygon class="st8" points="46.8,157.9 46.8,158.9 46.8,174.5 54.4,178.9 54.4,162.4 		"/>
		<polygon class="st9" points="46.8,174.5 46.8,174.5 46,175.2 54.4,180.1 54.4,179 		"/>
		<polygon class="st6" points="46.8,158.9 46.8,158 46.8,157.9 46,157.5 46,175.2 46.8,174.5 46.8,174.5 		"/>
	</g>
	<g>
		<polygon class="st7" points="59.1,182.8 59.2,182.8 59.1,182.7 		"/>
		<polygon class="st8" points="56.3,163.4 56.2,164.4 56.2,180 63.8,184.4 63.8,167.9 		"/>
		<polygon class="st9" points="56.2,180 56.2,180 55.4,180.6 63.8,185.5 63.8,184.4 		"/>
		<polygon class="st6" points="56.2,164.4 56.2,163.4 56.2,163.4 55.4,162.9 55.4,180.6 56.2,180 56.2,180 		"/>
	</g>
	<g>
		<polygon class="st7" points="70.8,183 70.7,182.9 70.8,182.9 		"/>
		<polygon class="st10" points="73.7,163.6 73.7,164.5 73.7,180.1 66.1,184.6 66.1,168 		"/>
		<polygon class="st9" points="73.7,180.1 73.7,180.1 74.5,180.8 66.1,185.7 66.1,184.6 		"/>
		<polygon class="st2" points="73.7,164.5 73.7,163.6 73.7,163.5 74.5,163.1 74.5,180.8 73.7,180.1 73.7,180.1 		"/>
	</g>
	<g>
		<polygon class="st7" points="80.3,177.6 80.2,177.5 80.3,177.4 		"/>
		<polygon class="st10" points="83.1,158 83.1,159 83.1,174.7 75.5,179.1 75.5,162.5 		"/>
		<polygon class="st9" points="83.1,174.7 83.1,174.7 84,175.3 75.5,180.2 75.5,179.1 		"/>
		<polygon class="st2" points="83.1,159 83.1,158 83.1,158 84,157.5 84,175.3 83.1,174.7 83.1,174.7 		"/>
	</g>
	<g>
		<polygon class="st7" points="89.5,172 89.4,171.9 89.5,171.9 		"/>
		<polygon class="st10" points="92.4,152.6 92.4,153.6 92.4,169.1 84.8,173.6 84.8,157.1 		"/>
		<polygon class="st9" points="92.4,169.1 92.4,169.2 93.2,169.8 84.8,174.7 84.8,173.6 		"/>
		<polygon class="st2" points="92.4,153.6 92.4,152.6 92.4,152.6 93.2,152.1 93.2,169.8 92.4,169.2 92.4,169.1 		"/>
	</g>
	<g>
		<path class="st11" d="M26.4,97.6v48.8L65,168.7v-48.8L26.4,97.6z"/>
	</g>
	<g>
		<polygon class="st12" points="94.1,151.5 65,168.6 65,119.7 93.9,102.7 		"/>
	</g>
	<g>
		<g>
			<path class="st12" d="M65.1,146v21.1l28.1-16.2v-20.6L65.1,146z"/>
		</g>
		<g>
			<polygon class="st11" points="27.6,145.6 65.1,167.2 65.1,146 27.6,124.5 			"/>
		</g>
		<g>
			<g>
				<polygon class="st10" points="84.7,146.7 81.8,148.3 65.1,158.1 65.1,166.5 66.5,165.7 84.7,155.1 				"/>
				<g>
					<polygon class="st5" points="84,147.1 83.1,147.6 83.1,153.8 65,164.3 65,165.4 83.1,154.9 84,154.4 					"/>
				</g>
				<g>
					<polygon class="st12" points="84.7,146.7 84,147.1 84,154.4 83.1,154.9 65,165.4 65,166.5 83.1,156 84,155.5 84.7,155.1 					
						"/>
				</g>
			</g>
			<g>
				<polygon class="st8" points="51.8,150.3 45.9,147.2 45.9,155.5 56.2,161.4 65.1,166.5 65.1,158.1 				"/>
				<g>
					<polygon class="st9" points="46.2,153.6 46.2,147.3 45.3,146.8 45.3,154.1 46.2,154.6 65.1,165.4 65.1,164.3 					"/>
				</g>
				<polygon class="st11" points="46.2,154.6 45.3,154.1 45.3,146.8 44.6,146.4 44.6,154.8 45.3,155.2 46.2,155.7 65.1,166.5 
					65.1,165.4 				"/>
			</g>
		</g>
		<g>
			<g>
				<polygon class="st10" points="84.7,137.7 81.8,139.3 65.1,149 65.1,157.4 66.5,156.6 84.7,146.1 				"/>
				<g>
					<polygon class="st5" points="84,138 83.1,138.6 83.1,144.8 65,155.2 65,156.3 83.1,145.8 84,145.3 					"/>
				</g>
				<g>
					<polygon class="st12" points="84.7,137.7 84,138 84,145.3 83.1,145.8 65,156.3 65,157.4 83.1,147 84,146.5 84.7,146.1 					"/>
				</g>
			</g>
			<g>
				<polygon class="st8" points="51.8,141.3 45.9,138.1 45.9,146.5 56.2,152.3 65.1,157.4 65.1,149 				"/>
				<g>
					<polygon class="st9" points="46.2,144.5 46.2,138.3 45.3,137.8 45.3,145 46.2,145.6 65.1,156.3 65.1,155.2 					"/>
				</g>
				<polygon class="st11" points="46.2,145.6 45.3,145 45.3,137.8 44.6,137.4 44.6,145.8 45.3,146.2 46.2,146.7 65.1,157.4 
					65.1,156.3 				"/>
			</g>
		</g>
		<g>
			<g>
				<g>
					<polygon class="st10" points="86.7,139.7 90.9,137.4 90.9,135.2 86.7,137.5 					"/>
				</g>
				<g>
					<polygon class="st5" points="86.7,139 86.7,139.7 90.9,137.4 90.9,135.2 90.2,135.5 90.2,137 					"/>
				</g>
			</g>
			<g>
				<g>
					<polygon class="st10" points="86.7,143.8 90.9,141.4 90.9,139.2 86.7,141.6 					"/>
				</g>
				<g>
					<polygon class="st5" points="86.7,143 86.7,143.8 90.9,141.4 90.9,139.2 90.2,139.6 90.2,141 					"/>
				</g>
			</g>
			<g>
				<g>
					<polygon class="st10" points="86.7,147.8 90.9,145.5 90.9,143.3 86.7,145.6 					"/>
				</g>
				<g>
					<polygon class="st5" points="86.7,147.1 86.7,147.8 90.9,145.5 90.9,143.3 90.2,143.7 90.2,145.1 					"/>
				</g>
			</g>
			<g>
				<g>
					<polygon class="st10" points="86.7,151.9 90.9,149.5 90.9,147.3 86.7,149.7 					"/>
				</g>
				<g>
					<polygon class="st5" points="86.7,151.1 86.7,151.9 90.9,149.5 90.9,147.3 90.2,147.7 90.2,149.1 					"/>
				</g>
			</g>
		</g>
		<g>
			<g>
				<g>
					<polygon class="st8" points="43.7,139.7 39.5,137.3 39.5,135.1 43.7,137.5 					"/>
				</g>
				<g>
					<polygon class="st9" points="43.7,138.9 43.7,139.7 39.5,137.3 39.5,135.1 40.2,135.5 40.2,136.9 					"/>
				</g>
			</g>
			<g>
				<g>
					<polygon class="st8" points="43.7,143.8 39.5,141.4 39.5,139.3 43.7,141.6 					"/>
				</g>
				<g>
					<polygon class="st9" points="43.7,143 43.7,143.8 39.5,141.4 39.5,139.3 40.2,139.6 40.2,141 					"/>
				</g>
			</g>
			<g>
				<g>
					<polygon class="st8" points="43.7,147.9 39.5,145.5 39.5,143.4 43.7,145.7 					"/>
				</g>
				<g>
					<polygon class="st9" points="43.7,147.1 43.7,147.9 39.5,145.5 39.5,143.4 40.2,143.7 40.2,145.1 					"/>
				</g>
			</g>
			<g>
				<g>
					<polygon class="st8" points="43.9,152 39.7,149.7 39.7,147.5 43.9,149.8 					"/>
				</g>
				<g>
					<polygon class="st9" points="43.9,151.2 43.9,152 39.7,149.7 39.7,147.5 40.3,147.8 40.3,149.2 					"/>
				</g>
			</g>
		</g>
		<g>
			<g>
				<g>
					<polygon class="st8" points="38.3,137 34.1,134.7 34.1,132.5 38.3,134.8 					"/>
				</g>
				<g>
					<polygon class="st9" points="38.3,136.3 38.3,137 34.1,134.7 34.1,132.5 34.8,132.8 34.8,134.3 					"/>
				</g>
			</g>
			<g>
				<g>
					<polygon class="st8" points="38.3,141.1 34.1,138.8 34.1,136.6 38.3,138.9 					"/>
				</g>
				<g>
					<polygon class="st9" points="38.3,140.4 38.3,141.1 34.1,138.8 34.1,136.6 34.8,136.9 34.8,138.4 					"/>
				</g>
			</g>
			<g>
				<g>
					<polygon class="st8" points="38.3,145.2 34.1,142.9 34.1,140.7 38.3,143 					"/>
				</g>
				<g>
					<polygon class="st9" points="38.3,144.5 38.3,145.2 34.1,142.9 34.1,140.7 34.8,141 34.8,142.5 					"/>
				</g>
			</g>
			<g>
				<g>
					<polygon class="st8" points="38.5,149.3 34.3,147 34.3,144.8 38.5,147.1 					"/>
				</g>
				<g>
					<polygon class="st9" points="38.5,148.6 38.5,149.3 34.3,147 34.3,144.8 34.9,145.1 34.9,146.6 					"/>
				</g>
			</g>
		</g>
		<g>
			<g>
				<g>
					<polygon class="st8" points="33,134.1 28.8,131.8 28.8,129.6 33,131.9 					"/>
				</g>
				<g>
					<polygon class="st9" points="33,133.3 33,134.1 28.8,131.8 28.8,129.6 29.4,129.9 29.4,131.4 					"/>
				</g>
			</g>
			<g>
				<g>
					<polygon class="st8" points="33,138.2 28.8,135.9 28.8,133.7 33,136 					"/>
				</g>
				<g>
					<polygon class="st9" points="33,137.4 33,138.2 28.8,135.9 28.8,133.7 29.4,134 29.4,135.5 					"/>
				</g>
			</g>
			<g>
				<g>
					<polygon class="st8" points="33,142.3 28.8,140 28.8,137.8 33,140.1 					"/>
				</g>
				<g>
					<polygon class="st9" points="33,141.6 33,142.3 28.8,140 28.8,137.8 29.4,138.1 29.4,139.6 					"/>
				</g>
			</g>
			<g>
				<g>
					<polygon class="st8" points="33.1,146.4 28.9,144.1 28.9,141.9 33.1,144.2 					"/>
				</g>
				<g>
					<polygon class="st9" points="33.1,145.7 33.1,146.4 28.9,144.1 28.9,141.9 29.6,142.2 29.6,143.7 					"/>
				</g>
			</g>
		</g>
	</g>
	<g>
		<g>
			<path class="st12" d="M65.1,124.1v21.1l28.1-16.2v-20.6L65.1,124.1z"/>
		</g>
		<g>
			<polygon class="st11" points="27.6,123.6 65.1,145.2 65.1,124.1 27.6,102.5 			"/>
		</g>
		<g>
			<g>
				<polygon class="st10" points="84.7,124.7 81.8,126.3 65.1,136.1 65.1,144.5 66.5,143.7 84.7,133.1 				"/>
				<g>
					<polygon class="st5" points="84,125.1 83.1,125.6 83.1,131.8 65,142.3 65,143.4 83.1,132.9 84,132.4 					"/>
				</g>
				<g>
					<polygon class="st12" points="84.7,124.7 84,125.1 84,132.4 83.1,132.9 65,143.4 65,144.5 83.1,134 84,133.5 84.7,133.1 					
						"/>
				</g>
			</g>
			<g>
				<polygon class="st8" points="51.8,128.3 45.9,125.2 45.9,133.5 56.2,139.4 65.1,144.5 65.1,136.1 				"/>
				<g>
					<polygon class="st9" points="46.2,131.6 46.2,125.3 45.3,124.8 45.3,132.1 46.2,132.6 65.1,143.4 65.1,142.3 					"/>
				</g>
				<polygon class="st11" points="46.2,132.6 45.3,132.1 45.3,124.8 44.6,124.4 44.6,132.8 45.3,133.2 46.2,133.8 65.1,144.5 
					65.1,143.4 				"/>
			</g>
		</g>
		<g>
			<g>
				<polygon class="st10" points="84.7,115.7 81.8,117.3 65.1,127 65.1,135.4 66.5,134.6 84.7,124.1 				"/>
				<g>
					<polygon class="st5" points="84,116 83.1,116.6 83.1,122.8 65,133.2 65,134.3 83.1,123.8 84,123.3 					"/>
				</g>
				<g>
					<polygon class="st12" points="84.7,115.7 84,116 84,123.3 83.1,123.8 65,134.3 65,135.4 83.1,125 84,124.5 84.7,124.1 					"/>
				</g>
			</g>
			<g>
				<polygon class="st8" points="51.8,119.3 45.9,116.1 45.9,124.5 56.2,130.3 65.1,135.4 65.1,127 				"/>
				<g>
					<polygon class="st9" points="46.2,122.5 46.2,116.3 45.3,115.8 45.3,123 46.2,123.6 65.1,134.3 65.1,133.2 					"/>
				</g>
				<polygon class="st11" points="46.2,123.6 45.3,123 45.3,115.8 44.6,115.4 44.6,123.8 45.3,124.2 46.2,124.7 65.1,135.5 
					65.1,134.3 				"/>
			</g>
		</g>
		<g>
			<g>
				<g>
					<polygon class="st10" points="86.7,117.7 90.9,115.4 90.9,113.2 86.7,115.5 					"/>
				</g>
				<g>
					<polygon class="st5" points="86.7,117 86.7,117.7 90.9,115.4 90.9,113.2 90.2,113.5 90.2,115 					"/>
				</g>
			</g>
			<g>
				<g>
					<polygon class="st10" points="86.7,121.8 90.9,119.4 90.9,117.2 86.7,119.6 					"/>
				</g>
				<g>
					<polygon class="st5" points="86.7,121 86.7,121.8 90.9,119.4 90.9,117.2 90.2,117.6 90.2,119 					"/>
				</g>
			</g>
			<g>
				<g>
					<polygon class="st10" points="86.7,125.8 90.9,123.5 90.9,121.3 86.7,123.6 					"/>
				</g>
				<g>
					<polygon class="st5" points="86.7,125.1 86.7,125.8 90.9,123.5 90.9,121.3 90.2,121.7 90.2,123.1 					"/>
				</g>
			</g>
			<g>
				<g>
					<polygon class="st10" points="86.7,129.9 90.9,127.5 90.9,125.3 86.7,127.7 					"/>
				</g>
				<g>
					<polygon class="st5" points="86.7,129.1 86.7,129.9 90.9,127.5 90.9,125.3 90.2,125.7 90.2,127.1 					"/>
				</g>
			</g>
		</g>
		<g>
			<g>
				<g>
					<polygon class="st8" points="43.7,117.7 39.5,115.3 39.5,113.2 43.7,115.5 					"/>
				</g>
				<g>
					<polygon class="st9" points="43.7,116.9 43.7,117.7 39.5,115.3 39.5,113.2 40.2,113.5 40.2,114.9 					"/>
				</g>
			</g>
			<g>
				<g>
					<polygon class="st8" points="43.7,121.8 39.5,119.4 39.5,117.3 43.7,119.6 					"/>
				</g>
				<g>
					<polygon class="st9" points="43.7,121 43.7,121.8 39.5,119.4 39.5,117.3 40.2,117.6 40.2,119 					"/>
				</g>
			</g>
			<g>
				<g>
					<polygon class="st8" points="43.7,125.9 39.5,123.6 39.5,121.4 43.7,123.7 					"/>
				</g>
				<g>
					<polygon class="st9" points="43.7,125.1 43.7,125.9 39.5,123.6 39.5,121.4 40.2,121.7 40.2,123.1 					"/>
				</g>
			</g>
			<g>
				<g>
					<polygon class="st8" points="43.9,130 39.7,127.7 39.7,125.5 43.9,127.8 					"/>
				</g>
				<g>
					<polygon class="st9" points="43.9,129.2 43.9,130 39.7,127.7 39.7,125.5 40.3,125.8 40.3,127.3 					"/>
				</g>
			</g>
		</g>
		<g>
			<g>
				<g>
					<polygon class="st8" points="38.3,115 34.1,112.7 34.1,110.5 38.3,112.8 					"/>
				</g>
				<g>
					<polygon class="st9" points="38.3,114.3 38.3,115 34.1,112.7 34.1,110.5 34.8,110.8 34.8,112.3 					"/>
				</g>
			</g>
			<g>
				<g>
					<polygon class="st8" points="38.3,119.1 34.1,116.8 34.1,114.6 38.3,116.9 					"/>
				</g>
				<g>
					<polygon class="st9" points="38.3,118.4 38.3,119.1 34.1,116.8 34.1,114.6 34.8,114.9 34.8,116.4 					"/>
				</g>
			</g>
			<g>
				<g>
					<polygon class="st8" points="38.3,123.2 34.1,120.9 34.1,118.7 38.3,121 					"/>
				</g>
				<g>
					<polygon class="st9" points="38.3,122.5 38.3,123.2 34.1,120.9 34.1,118.7 34.8,119 34.8,120.5 					"/>
				</g>
			</g>
			<g>
				<g>
					<polygon class="st8" points="38.5,127.3 34.3,125 34.3,122.8 38.5,125.1 					"/>
				</g>
				<g>
					<polygon class="st9" points="38.5,126.6 38.5,127.3 34.3,125 34.3,122.8 34.9,123.2 34.9,124.6 					"/>
				</g>
			</g>
		</g>
		<g>
			<g>
				<g>
					<polygon class="st8" points="33,112.1 28.8,109.8 28.8,107.6 33,109.9 					"/>
				</g>
				<g>
					<polygon class="st9" points="33,111.3 33,112.1 28.8,109.8 28.8,107.6 29.4,107.9 29.4,109.4 					"/>
				</g>
			</g>
			<g>
				<g>
					<polygon class="st8" points="33,116.2 28.8,113.9 28.8,111.7 33,114 					"/>
				</g>
				<g>
					<polygon class="st9" points="33,115.4 33,116.2 28.8,113.9 28.8,111.7 29.4,112 29.4,113.5 					"/>
				</g>
			</g>
			<g>
				<g>
					<polygon class="st8" points="33,120.3 28.8,118 28.8,115.8 33,118.1 					"/>
				</g>
				<g>
					<polygon class="st9" points="33,119.6 33,120.3 28.8,118 28.8,115.8 29.4,116.1 29.4,117.6 					"/>
				</g>
			</g>
			<g>
				<g>
					<polygon class="st8" points="33.1,124.4 28.9,122.1 28.9,119.9 33.1,122.2 					"/>
				</g>
				<g>
					<polygon class="st9" points="33.1,123.7 33.1,124.4 28.9,122.1 28.9,119.9 29.6,120.2 29.6,121.7 					"/>
				</g>
			</g>
		</g>
	</g>
	<g>
		<g class="st3">
			<path class="st13" d="M26.4,101.9v4.6L65,128.8v-4.6L26.4,101.9z"/>
		</g>
		<g class="st3">
			<path class="st13" d="M65,124.2v4.6l28.9-16.9v-4.6L65,124.2z"/>
		</g>
		<polygon class="st9" points="26.4,98.6 23.3,96.8 54.7,78.4 96.6,102.4 65.2,121 		"/>
		<polygon class="st1" points="64.9,118.7 29.6,98.3 29.2,98.1 54.5,83.2 90.2,103.8 89.9,104 		"/>
		<g>
			<polygon class="st14" points="92.7,102.4 90.2,103.8 54.5,83.2 54.5,80.4 			"/>
			<polygon class="st15" points="54.5,80.4 54.5,80.4 54.5,83.2 54.5,83.2 29.2,98.1 26.8,96.7 			"/>
		</g>
		<g>
			
				<linearGradient id="SVGID_19_" gradientUnits="userSpaceOnUse" x1="100.6115" y1="94.3069" x2="108.5218" y2="90.4664" gradientTransform="matrix(1 0 0 1 -46.0469 0)">
				<stop  offset="0" style="stop-color:#333333"/>
				<stop  offset="1" style="stop-color:#CCCCCC"/>
			</linearGradient>
			<polygon class="st40" points="55.9,91.1 54.9,95 59.5,95.1 62.4,93.6 56.4,90.2 			"/>
			<g>
				<polygon class="st9" points="54.9,94 47.6,89.8 51.8,87.4 59,91.6 				"/>
				<polygon class="st15" points="59,92.6 54.9,95 54.9,94 59,91.6 				"/>
				<polygon class="st14" points="54.9,95 47.6,90.8 47.6,89.8 54.9,94 				"/>
			</g>
			
				<linearGradient id="SVGID_20_" gradientUnits="userSpaceOnUse" x1="100.0936" y1="92.304" x2="104.5961" y2="90.118" gradientTransform="matrix(1 0 0 1 -46.0469 0)">
				<stop  offset="0" style="stop-color:#333333"/>
				<stop  offset="1" style="stop-color:#CCCCCC"/>
			</linearGradient>
			<polygon class="st41" points="55,90.5 54.4,93 56.3,92.9 58.4,91.7 55.3,90 			"/>
			<g>
				<polygon class="st9" points="54.3,92.1 49.6,89.4 52,88.1 56.7,90.8 				"/>
				<polygon class="st15" points="56.7,91.6 54.3,93 54.3,92.1 56.7,90.8 				"/>
				<polygon class="st14" points="54.3,93 49.6,90.3 49.6,89.4 54.3,92.1 				"/>
			</g>
		</g>
		<g>
			
				<linearGradient id="SVGID_21_" gradientUnits="userSpaceOnUse" x1="-66.5677" y1="100.9819" x2="-58.6547" y2="97.14" gradientTransform="matrix(1 0 0 1 132.6563 0)">
				<stop  offset="0" style="stop-color:#333333"/>
				<stop  offset="1" style="stop-color:#CCCCCC"/>
			</linearGradient>
			<polygon class="st42" points="67.4,97.7 66.4,101.7 71.1,101.8 73.9,100.3 67.9,96.9 			"/>
			<g>
				<polygon class="st9" points="66.4,100.7 59.2,96.5 63.3,94.1 70.6,98.3 				"/>
				<polygon class="st15" points="70.6,99.3 66.4,101.7 66.4,100.7 70.6,98.3 				"/>
				<polygon class="st14" points="66.4,101.7 59.2,97.5 59.2,96.5 66.4,100.7 				"/>
			</g>
			
				<linearGradient id="SVGID_22_" gradientUnits="userSpaceOnUse" x1="-67.0825" y1="98.9795" x2="-62.5819" y2="96.7944" gradientTransform="matrix(1 0 0 1 132.6563 0)">
				<stop  offset="0" style="stop-color:#333333"/>
				<stop  offset="1" style="stop-color:#CCCCCC"/>
			</linearGradient>
			<polygon class="st43" points="66.5,97.2 65.9,99.7 67.9,99.6 69.9,98.4 66.8,96.7 			"/>
			<g>
				<polygon class="st9" points="65.9,98.8 61.2,96.1 63.6,94.7 68.3,97.4 				"/>
				<polygon class="st15" points="68.3,98.3 65.9,99.7 65.9,98.8 68.3,97.4 				"/>
				<polygon class="st14" points="65.9,99.7 61.2,96.9 61.2,96.1 65.9,98.8 				"/>
			</g>
		</g>
		<g>
			
				<linearGradient id="SVGID_23_" gradientUnits="userSpaceOnUse" x1="-55.251" y1="107.1627" x2="-47.3418" y2="103.3226" gradientTransform="matrix(1 0 0 1 132.6563 0)">
				<stop  offset="0" style="stop-color:#333333"/>
				<stop  offset="1" style="stop-color:#CCCCCC"/>
			</linearGradient>
			<polygon class="st44" points="78.7,103.9 77.8,107.9 82.4,108 85.2,106.4 79.3,103.1 			"/>
			<g>
				<polygon class="st9" points="77.7,106.9 70.5,102.7 74.6,100.3 81.9,104.5 				"/>
				<polygon class="st15" points="81.9,105.5 77.7,107.9 77.7,106.9 81.9,104.5 				"/>
				<polygon class="st14" points="77.7,107.9 70.5,103.7 70.5,102.7 77.7,106.9 				"/>
			</g>
			
				<linearGradient id="SVGID_24_" gradientUnits="userSpaceOnUse" x1="-55.7719" y1="105.1597" x2="-51.2684" y2="102.9732" gradientTransform="matrix(1 0 0 1 132.6563 0)">
				<stop  offset="0" style="stop-color:#333333"/>
				<stop  offset="1" style="stop-color:#CCCCCC"/>
			</linearGradient>
			<polygon class="st45" points="77.8,103.4 77.2,105.8 79.2,105.8 81.3,104.6 78.1,102.8 			"/>
			<g>
				<polygon class="st9" points="77.2,105 72.5,102.3 74.9,100.9 79.6,103.6 				"/>
				<polygon class="st15" points="79.6,104.5 77.2,105.8 77.2,105 79.6,103.6 				"/>
				<polygon class="st14" points="77.2,105.8 72.5,103.1 72.5,102.3 77.2,105 				"/>
			</g>
		</g>
		<g>
			<polygon class="st1" points="23.3,100.4 23.3,96.8 65.2,121 65.2,121 65.2,124.6 65.2,124.6 			"/>
			<polygon class="st6" points="96.6,102.4 96.6,106 65.2,124.6 65.2,121 			"/>
		</g>
		<g>
			
				<linearGradient id="SVGID_25_" gradientUnits="userSpaceOnUse" x1="223.0554" y1="98.1634" x2="229.9595" y2="98.1634" gradientTransform="matrix(1 0 0 1 -179.4102 0)">
				<stop  offset="0" style="stop-color:#333333"/>
				<stop  offset="1" style="stop-color:#CCCCCC"/>
			</linearGradient>
			<polygon class="st46" points="44.4,97.4 43.6,100.8 46.7,100.2 50.5,97.9 46.3,95.5 			"/>
			<g>
				<g>
					<g class="st23">
						<g>
							<polygon class="st15" points="49.2,96.6 49.2,97.6 43.7,100.8 43.7,99.8 							"/>
						</g>
						<g>
							<polygon class="st24" points="43.7,99.8 43.7,100.8 37.6,97.3 37.6,96.3 							"/>
						</g>
						<g>
							<polygon class="st9" points="49.2,96.6 43.7,99.8 37.6,96.3 43.1,93.1 							"/>
						</g>
						<path class="st25" d="M45.8,97.8c-1.3,0.7-3.5,0.7-4.9,0c-1.4-0.7-1.4-2,0-2.7c1.3-0.7,3.5-0.7,4.9,0
							C47.2,95.9,47.2,97.1,45.8,97.8z"/>
						<g>
							<path class="st26" d="M40.9,95.6c1.3-0.7,3.5-0.7,4.9,0c0.6,0.3,0.9,0.7,1,1.1c0.1-0.6-0.2-1.2-1-1.6c-1.3-0.7-3.5-0.7-4.9,0
								c-0.8,0.4-1.1,1-1,1.6C40.1,96.3,40.4,95.9,40.9,95.6z"/>
						</g>
					</g>
				</g>
				<g>
					<path class="st27" d="M45.9,95c-1.4-0.8-3.7-0.8-5.1,0c-1.4,0.8-1.4,2.1,0,3c1.4,0.8,3.7,0.8,5.1,0
						C47.3,97.1,47.3,95.8,45.9,95z M45.8,97.8c-1.3,0.7-3.5,0.7-4.9,0c-1.4-0.7-1.4-2,0-2.7c1.3-0.7,3.5-0.7,4.9,0
						C47.2,95.9,47.2,97.1,45.8,97.8z"/>
					<g>
						<g>
							<g>
								<path class="st28" d="M45.6,95.1c1.6,0.9-1.5,1.2-1.6,1.2c-0.2,0-0.3,0-0.4-0.1c-0.1-0.1-0.1-0.1-0.1-0.1
									C43.5,95.9,43.7,94.1,45.6,95.1C45.6,95.1,45.6,95.1,45.6,95.1z"/>
							</g>
							<g>
								<path class="st28" d="M42.5,95.7C42.8,95.9,43,96,43,96c0.3,0.3,0,0.3,0,0.3c-0.3,0.1-1.9,0.5-2.5,0.2
									c-0.2-0.1-0.3-0.3-0.1-0.7C40.8,94.9,41.9,95.4,42.5,95.7z"/>
							</g>
							<g>
								<path class="st28" d="M44.4,96.9c0.6,0.4,1.4,1-0.2,1.3c-0.6,0.1-1,0-1.2-0.1c-0.6-0.3,0.2-1.3,0.3-1.4c0,0,0.1-0.2,0.6,0
									C43.9,96.6,44.2,96.7,44.4,96.9z"/>
							</g>
						</g>
						<g>
							<g>
								<path class="st26" d="M44,95.8c0.5,0.3,0.5,0.7,0,0.9c-0.4,0.3-1.2,0.3-1.6,0c-0.4-0.3-0.5-0.7,0-0.9
									C42.8,95.6,43.5,95.6,44,95.8z"/>
							</g>
							<g>
								<path class="st9" d="M43.5,95.7c0.2,0.1,0.2,0.3,0,0.4c-0.2,0.1-0.5,0.1-0.7,0c-0.2-0.1-0.2-0.3,0-0.4
									C43,95.6,43.3,95.6,43.5,95.7z"/>
							</g>
						</g>
					</g>
				</g>
			</g>
		</g>
		<g>
			
				<linearGradient id="SVGID_26_" gradientUnits="userSpaceOnUse" x1="234.2639" y1="104.9733" x2="241.1681" y2="104.9733" gradientTransform="matrix(1 0 0 1 -179.4102 0)">
				<stop  offset="0" style="stop-color:#333333"/>
				<stop  offset="1" style="stop-color:#CCCCCC"/>
			</linearGradient>
			<polygon class="st47" points="55.7,104.2 54.9,107.6 57.9,107 61.8,104.7 57.5,102.3 			"/>
			<g>
				<g>
					<g class="st23">
						<g>
							<polygon class="st15" points="60.4,103.4 60.4,104.4 54.9,107.6 54.9,106.6 							"/>
						</g>
						<g>
							<polygon class="st24" points="54.9,106.6 54.9,107.6 48.8,104.1 48.8,103.1 							"/>
						</g>
						<g>
							<polygon class="st9" points="60.4,103.4 54.9,106.6 48.8,103.1 54.4,99.9 							"/>
						</g>
						<path class="st25" d="M57,104.6c-1.3,0.7-3.5,0.7-4.9,0c-1.4-0.7-1.4-2,0-2.7c1.3-0.7,3.5-0.7,4.9,0
							C58.4,102.7,58.4,103.9,57,104.6z"/>
						<g>
							<path class="st26" d="M52.1,102.4c1.3-0.7,3.5-0.7,4.9,0c0.6,0.3,0.9,0.7,1,1.1c0.1-0.6-0.2-1.2-1-1.6
								c-1.4-0.7-3.5-0.7-4.9,0c-0.8,0.4-1.1,1-1,1.6C51.3,103.1,51.6,102.7,52.1,102.4z"/>
						</g>
					</g>
				</g>
				<g>
					<path class="st27" d="M57.1,101.8c-1.4-0.8-3.7-0.8-5.1,0c-1.4,0.8-1.4,2.1,0,3c1.4,0.8,3.7,0.8,5.1,0
						C58.6,103.9,58.5,102.6,57.1,101.8z M57,104.6c-1.3,0.7-3.5,0.7-4.9,0c-1.4-0.7-1.4-2,0-2.7c1.3-0.7,3.5-0.7,4.9,0
						C58.4,102.7,58.4,103.9,57,104.6z"/>
					<g>
						<g>
							<g>
								<path class="st28" d="M56.8,101.9c1.6,0.9-1.5,1.2-1.6,1.2c-0.2,0-0.3,0-0.4-0.1c-0.1-0.1-0.1-0.1-0.1-0.1
									C54.7,102.7,54.9,100.9,56.8,101.9C56.8,101.9,56.8,101.9,56.8,101.9z"/>
							</g>
							<g>
								<path class="st28" d="M53.7,102.6c0.3,0.2,0.5,0.3,0.5,0.3c0.3,0.3,0,0.3,0,0.3c-0.3,0.1-1.9,0.5-2.5,0.2
									c-0.2-0.1-0.3-0.3-0.1-0.7C52,101.7,53.1,102.2,53.7,102.6z"/>
							</g>
							<g>
								<path class="st28" d="M55.7,103.7c0.6,0.4,1.4,1-0.2,1.3c-0.6,0.1-1,0-1.2-0.1c-0.6-0.3,0.2-1.3,0.3-1.4c0,0,0.1-0.2,0.6,0
									C55.1,103.4,55.4,103.5,55.7,103.7z"/>
							</g>
						</g>
						<g>
							<g>
								<path class="st26" d="M55.2,102.6c0.5,0.3,0.5,0.7,0,0.9c-0.4,0.3-1.2,0.3-1.6,0c-0.5-0.3-0.5-0.7,0-0.9
									C54,102.4,54.7,102.4,55.2,102.6z"/>
							</g>
							<g>
								<path class="st9" d="M54.7,102.5c0.2,0.1,0.2,0.3,0,0.4c-0.2,0.1-0.5,0.1-0.7,0c-0.2-0.1-0.2-0.3,0-0.4
									C54.2,102.4,54.5,102.4,54.7,102.5z"/>
							</g>
						</g>
					</g>
				</g>
			</g>
		</g>
		<g>
			
				<linearGradient id="SVGID_27_" gradientUnits="userSpaceOnUse" x1="246.0239" y1="111.9376" x2="252.9279" y2="111.9376" gradientTransform="matrix(1 0 0 1 -179.4102 0)">
				<stop  offset="0" style="stop-color:#333333"/>
				<stop  offset="1" style="stop-color:#CCCCCC"/>
			</linearGradient>
			<polygon class="st48" points="67.4,111.1 66.6,114.6 69.7,113.9 73.5,111.6 69.3,109.3 			"/>
			<g>
				<g>
					<g class="st23">
						<g>
							<polygon class="st15" points="72.1,110.4 72.1,111.4 66.6,114.6 66.6,113.6 							"/>
						</g>
						<g>
							<polygon class="st24" points="66.6,113.6 66.6,114.6 60.6,111.1 60.6,110.1 							"/>
						</g>
						<g>
							<polygon class="st9" points="72.1,110.4 66.6,113.6 60.6,110.1 66.1,106.9 							"/>
						</g>
						<path class="st25" d="M68.8,111.6c-1.3,0.7-3.5,0.7-4.9,0c-1.4-0.7-1.4-2,0-2.7c1.3-0.7,3.5-0.7,4.9,0
							C70.1,109.6,70.1,110.8,68.8,111.6z"/>
						<g>
							<path class="st26" d="M63.9,109.4c1.3-0.7,3.5-0.7,4.9,0c0.6,0.3,0.9,0.7,1,1.1c0.1-0.6-0.2-1.2-1-1.6
								c-1.3-0.7-3.5-0.7-4.9,0c-0.8,0.4-1.1,1-1,1.6C63,110.1,63.3,109.7,63.9,109.4z"/>
						</g>
					</g>
				</g>
				<g>
					<path class="st27" d="M68.9,108.8c-1.4-0.8-3.7-0.8-5.1,0c-1.4,0.8-1.4,2.1,0,3c1.4,0.8,3.7,0.8,5.1,0
						C70.3,110.9,70.3,109.6,68.9,108.8z M68.8,111.6c-1.3,0.7-3.5,0.7-4.9,0c-1.4-0.7-1.4-2,0-2.7c1.3-0.7,3.5-0.7,4.9,0
						C70.1,109.6,70.1,110.8,68.8,111.6z"/>
					<g>
						<g>
							<g>
								<path class="st28" d="M68.6,108.9c1.6,0.9-1.5,1.2-1.6,1.2c-0.2,0-0.3,0-0.4-0.1c-0.1-0.1-0.1-0.1-0.1-0.1
									C66.5,109.6,66.7,107.8,68.6,108.9C68.5,108.8,68.6,108.8,68.6,108.9z"/>
							</g>
							<g>
								<path class="st28" d="M65.5,109.5c0.3,0.2,0.5,0.3,0.5,0.3c0.3,0.3,0,0.3,0,0.3c-0.3,0.1-1.9,0.5-2.5,0.2
									c-0.2-0.1-0.3-0.3-0.1-0.7C63.7,108.7,64.8,109.1,65.5,109.5z"/>
							</g>
							<g>
								<path class="st28" d="M67.4,110.6c0.6,0.4,1.4,1-0.2,1.3c-0.6,0.1-1,0-1.2-0.1c-0.6-0.3,0.2-1.3,0.3-1.4c0,0,0.1-0.2,0.6,0
									C66.9,110.4,67.1,110.5,67.4,110.6z"/>
							</g>
						</g>
						<g>
							<g>
								<path class="st26" d="M67,109.6c0.5,0.3,0.5,0.7,0,0.9c-0.4,0.3-1.2,0.3-1.6,0c-0.4-0.3-0.5-0.7,0-0.9
									C65.8,109.3,66.5,109.3,67,109.6z"/>
							</g>
							<g>
								<path class="st9" d="M66.5,109.5c0.2,0.1,0.2,0.3,0,0.4c-0.2,0.1-0.5,0.1-0.7,0c-0.2-0.1-0.2-0.3,0-0.4
									C66,109.4,66.3,109.4,66.5,109.5z"/>
							</g>
						</g>
					</g>
				</g>
			</g>
		</g>
	</g>
</g>
<g>
	<path class="st49" d="M178.6,172.8c8.5,5,8.5,13.2,0.1,18.2c-8.4,5-22.2,5-30.7,0c-8.5-5-8.5-13.2-0.1-18.2
		C156.4,167.8,170.1,167.8,178.6,172.8L178.6,172.8z"/>
	<path class="st50" d="M174.9,170.9c8.5,4.9,8.5,12.9,0.1,17.8c-8.4,4.9-22.2,4.9-30.7,0c-8.5-4.9-8.5-12.9-0.1-17.8
		C152.7,166,166.4,166,174.9,170.9L174.9,170.9z"/>
	<path class="st51" d="M174.9,170.9c-8.5-4.9-22.2-4.9-30.7,0c-4.2,2.4-6.3,5.6-6.3,8.8l0,5.3c0-3.2,2.1-6.4,6.3-8.8
		c8.4-4.9,22.2-4.9,30.7,0l0,0C174.9,174.4,174.9,172.7,174.9,170.9L174.9,170.9z M175,170.9c0,1.8,0,3.5,0,5.3
		c4.3,2.5,6.4,5.7,6.4,8.9c0-1.6,0-3.7,0-5.3C181.3,176.6,179.2,173.4,175,170.9z"/>
	<path class="st50" d="M181.3,179.8l0,5.3c0,3.2-2.1,3-6.3,5.5l0-1.9C179.2,186.2,181.3,183,181.3,179.8L181.3,179.8z"/>
	<path class="st50" d="M137.9,185l0-5.3c0,3.2,2.1,6.5,6.4,8.9c8.5,4.9,22.2,4.9,30.7,0l0,1.9c-8.4,4.9-22.2,4.9-30.7,0
		C140.1,188.1,137.9,188.2,137.9,185L137.9,185z"/>
	<linearGradient id="SVGID_28_" gradientUnits="userSpaceOnUse" x1="136.2664" y1="187.5192" x2="183.0163" y2="187.5192">
		<stop  offset="0" style="stop-color:#CCE0F4"/>
		<stop  offset="0.6578" style="stop-color:#4D9FCE"/>
		<stop  offset="0.9944" style="stop-color:#1180BC"/>
	</linearGradient>
	<path class="st52" d="M182.5,184.5c0-0.1,0.1-0.2,0.1-0.3c0,0,0,0,0-0.1c0-0.1,0.1-0.2,0.1-0.3c0,0,0,0,0-0.1
		c0.4-1.5,0.3-2.4,0.3-3.9c0,1.4-0.4,2.7-1.1,4c-0.4,0.8-0.9,1.5-1.6,2.3c-0.2,0.2-0.4,0.4-0.6,0.6c-0.8,0.8-1.7,1.5-2.7,2.1
		c-0.3,0.2-0.6,0.4-0.9,0.6c-0.2,0.1-0.5,0.3-0.8,0.4c-0.1,0.1-0.2,0.1-0.4,0.2c-0.1,0.1-0.2,0.1-0.4,0.2c-1.5,0.8-3.2,1.4-4.8,1.8
		c-0.2,0.1-0.4,0.1-0.6,0.2c-3.8,0.9-7.8,1.3-11.7,1.1c-1.1-0.1-2.2-0.2-3.2-0.3c-1.3-0.2-2.7-0.4-4-0.8c-0.2-0.1-0.4-0.1-0.7-0.2
		c-3.1-0.9-6.1-2.1-8.6-4.1c-0.8-0.6-1.5-1.3-2.2-2c-0.2-0.2-0.4-0.5-0.6-0.7c-0.7-0.9-1.3-1.9-1.6-3c0,0,0-0.1,0-0.1
		c0-0.1,0-0.2-0.1-0.2c-0.1-0.4-0.2-0.9-0.3-1.4c0,0,0-0.1,0-0.1c0-0.1,0-0.2,0-0.2c0-0.1,0-0.3,0-0.4c0,1.8-0.2,2.9,0.5,4.6
		c0,0,0,0,0,0.1c0,0.1,0.1,0.2,0.1,0.3c0.3,0.8,0.8,1.6,1.4,2.4c0.2,0,0.7,0.9,0.9,1c0.3,0.4,0.7,0.7,1.1,1c0.8,0.7,1.6,1.3,2.5,1.8
		c1.8,1.1,3.8,1.9,5.8,2.6c5.7,1.8,11.9,2.1,17.8,1.1c1.7-0.3,3.4-0.7,5-1.3c1.7-0.6,3.3-1.2,4.8-2.1c2.8-1.6,4.7-3.5,5.7-5.5
		C182.2,185.4,182.3,185,182.5,184.5z"/>
	<path class="st53" d="M176.1,170.2c-9.1-5.3-23.9-5.3-33,0c-9.1,5.3-9,13.8,0.1,19.1c9.1,5.3,23.9,5.3,33,0
		C185.3,184.1,185.3,175.5,176.1,170.2z M144.4,188.7c-8.5-4.9-8.5-12.9-0.1-17.8c8.4-4.9,22.2-4.9,30.7,0
		c8.5,4.9,8.5,12.9,0.1,17.8C166.6,193.6,152.9,193.6,144.4,188.7z"/>
	<path class="st54" d="M141.1,186.3c0.1-3.2,2.2-6.4,6.3-8.9c6.9-4.1,17.2-4.9,25.4-2.3c-8.5-3.9-20.8-3.6-28.6,1.1
		c-3,1.8-4.9,4-5.8,6.3C139,183.7,139.9,185,141.1,186.3z"/>
</g>
</svg>
