<?xml version="1.0" encoding="utf-8"?>
<!-- Generator: Adobe Illustrator 22.1.0, SVG Export Plug-In . SVG Version: 6.00 Build 0)  -->
<svg version="1.1" id="Layer_1" xmlns="http://www.w3.org/2000/svg" xmlns:xlink="http://www.w3.org/1999/xlink" x="0px" y="0px"
	 viewBox="0 0 274 257" style="enable-background:new 0 0 274 257;" xml:space="preserve">
<style type="text/css">
	.st0{opacity:0.2;}
	.st1{fill:#3D3D3D;}
	.st2{fill:#0A7838;}
	.st3{fill:#0B6B32;}
	.st4{fill:#0B5E2D;}
	.st5{fill:#02963C;}
	.st6{fill:#346E91;}
	.st7{fill:#3A7AAF;}
	.st8{fill:#2E627C;}
	.st9{fill:#4188CE;}
	.st10{fill:#AD3B3B;}
	.st11{fill:#933535;}
	.st12{fill:#C13E3E;}
	.st13{fill:#E84646;}
	.st14{fill:#C6AE47;}
	.st15{fill:#A8943A;}
	.st16{fill:#E2C64D;}
	.st17{fill:#FFE266;}
</style>
<g class="st0">
	<path class="st1" d="M161.3,133.6c3.2,1.8,2.2,5.1,2.7,6.8c0.3,0.9,0.6,1.2,1.7,2l23.7-13.7l-52.5-30.3l-52.5,30.3l23.7,13.7
		c-1.4,0.7-1.9,0.8-3.5,1c-3,0.3-8.6-0.3-11.8,1.5c-4.4,2.6-4.4,6.7,0,9.3c4.4,2.6,11.6,2.6,16.1,0c3.2-1.8,2.2-5.1,2.7-6.8
		c0.3-0.9,0.6-1.2,1.7-2l23.7,13.7l23.7-13.7c-1.4-0.7-1.9-0.8-3.5-1c-3-0.3-8.6,0.3-11.8-1.5c-4.4-2.6-4.4-6.7,0-9.3
		C149.7,131,156.9,131,161.3,133.6z"/>
	<path class="st1" d="M61.9,162.8c3.2-1.8,8.8-1.3,11.8-1.5c1.5-0.1,2.1-0.3,3.5-1l-23.7-13.7L1,176.9l52.5,30.3l23.7-13.7
		c1.1,0.8,1.5,1.1,1.7,2c0.5,1.7-0.5,5,2.7,6.8c4.4,2.6,11.6,2.6,16.1,0c4.4-2.6,4.4-6.7,0-9.3c-3.2-1.8-8.8-1.3-11.8-1.5
		c-1.5-0.1-2.1-0.3-3.5-1l23.7-13.7l-23.7-13.7c-1.1,0.8-1.5,1.1-1.7,2c-0.5,1.7,0.5,5-2.7,6.8c-4.4,2.6-11.6,2.6-16.1,0
		C57.5,169.5,57.5,165.3,61.9,162.8z"/>
	<path class="st1" d="M220.3,146.6l-23.7,13.7c-1.1-0.8-1.5-1.1-1.7-2c-0.5-1.7,0.5-5-2.7-6.8c-4.4-2.6-11.6-2.6-16.1,0
		c-4.4,2.6-4.4,6.7,0,9.3c3.2,1.8,8.8,1.3,11.8,1.5c1.5,0.1,2.1,0.3,3.5,1l-23.7,13.7l23.7,13.7c1.1-0.8,1.5-1.1,1.7-2
		c0.5-1.7-0.5-5,2.7-6.8c4.4-2.6,11.6-2.6,16.1,0c4.4,2.6,4.4,6.7,0,9.3c-3.2,1.8-8.8,1.3-11.8,1.5c-1.5,0.1-2.1,0.3-3.5,1
		l23.7,13.7l52.5-30.3L220.3,146.6z"/>
	<path class="st1" d="M189.4,225l-23.7-13.7c1.4-0.7,1.9-0.8,3.5-1c3-0.3,8.6,0.3,11.8-1.5c4.4-2.6,4.4-6.7,0-9.3
		c-4.4-2.6-11.6-2.6-16.1,0c-3.2,1.8-2.2,5.1-2.7,6.8c-0.3,0.9-0.6,1.2-1.7,2l-23.7-13.7l-23.7,13.7c1.4,0.7,1.9,0.8,3.5,1
		c3,0.3,8.6-0.3,11.8,1.5c4.4,2.6,4.4,6.7,0,9.3c-4.4,2.6-11.6,2.6-16.1,0c-3.2-1.8-2.2-5.1-2.7-6.8c-0.3-0.9-0.6-1.2-1.7-2
		L84.4,225l52.5,30.3L189.4,225z"/>
</g>
<g>
	<g>
		<g>
			<polygon class="st2" points="84.4,32.5 84.4,61 136.9,91.3 136.9,62.8 			"/>
			<path class="st2" d="M89.5,53v28.5c-0.1,1.8,1,3.6,3.3,4.9c4.4,2.6,11.6,2.6,16.1,0c3.2-1.8,2.2-5.1,2.7-6.8
				c0.3-0.9,0.6-1.2,1.7-2l0-28.5L89.5,53z"/>
			<path class="st3" d="M89.5,53v28.5c-0.1,1.8,1,3.6,3.3,4.9l0-34L89.5,53z"/>
			<path class="st4" d="M113.2,77.6l0-28.5c-1.1,0.8-1.5,1.1-1.7,2l0,28.5C111.8,78.8,112.1,78.4,113.2,77.6z"/>
		</g>
		<g>
			<polygon class="st2" points="169.2,24.2 136.9,39.1 160.5,71.6 165.7,74.6 			"/>
			<polygon class="st4" points="161.3,37.3 161.3,72.1 164,73.6 164,44.1 165,35.6 			"/>
			<polygon class="st4" points="145.3,37.3 123.2,44.7 145.3,46.6 			"/>
			<polygon class="st3" points="136.9,62.8 136.9,91.3 160.5,77.6 160.5,49.1 			"/>
			<polygon class="st3" points="165.7,46.1 165.7,74.6 189.4,61 189.4,32.5 			"/>
		</g>
		<path class="st5" d="M161.3,37.3c3.2,1.8,2.2,5.1,2.7,6.8c0.3,0.9,0.6,1.2,1.7,2l23.7-13.7L136.9,2.1L84.4,32.5L108,46.1
			c-1.4,0.7-1.9,0.8-3.5,1c-3,0.3-8.6-0.3-11.8,1.5c-4.4,2.6-4.4,6.7,0,9.3c4.4,2.6,11.6,2.6,16.1,0c3.2-1.8,2.2-5.1,2.7-6.8
			c0.3-0.9,0.6-1.2,1.7-2l23.7,13.7l23.7-13.7c-1.4-0.7-1.9-0.8-3.5-1c-3-0.3-8.6,0.3-11.8-1.5c-4.4-2.6-4.4-6.7,0-9.3
			C149.7,34.7,156.9,34.7,161.3,37.3z"/>
	</g>
	<g>
		<g>
			<polygon class="st6" points="53.5,110.9 53.5,139.4 106,109.1 106,80.6 			"/>
			<path class="st7" d="M77.1,97.2v28.5c1.1,0.8,1.5,1.1,1.7,2c0.5,1.7-0.5,5,2.7,6.8c4.4,2.6,11.6,2.6,16.1,0
				c2.2-1.3,3.4-3,3.3-4.7v-28.5L77.1,97.2z"/>
			<path class="st8" d="M97.6,101.4v33.1c2.2-1.3,3.4-3,3.3-4.7v-28.4H97.6z"/>
			<path class="st8" d="M77.1,97.2v28.5c1.1,0.8,1.5,1.1,1.7,2V99.3C78.6,98.4,78.3,98,77.1,97.2z"/>
		</g>
		<polygon class="st7" points="1,80.6 1,109.1 53.5,139.4 53.5,110.9 		"/>
		<g>
			<polygon class="st7" points="53.5,58.3 49.6,94.4 77.1,76.2 77.1,63.9 			"/>
			<polygon class="st6" points="73.7,64.9 77.1,63.9 77.1,97.2 73.7,85.3 			"/>
			<polygon class="st8" points="42.2,75.4 54.3,90.2 61.9,75.7 61.9,66.5 			"/>
		</g>
		<path class="st9" d="M61.9,66.5c3.2-1.8,8.8-1.3,11.8-1.5c1.5-0.1,2.1-0.3,3.5-1L53.5,50.3L1,80.6l52.5,30.3l23.7-13.7
			c1.1,0.8,1.5,1.1,1.7,2c0.5,1.7-0.5,5,2.7,6.8c4.4,2.6,11.6,2.6,16.1,0c4.4-2.6,4.4-6.7,0-9.3c-3.2-1.8-8.8-1.3-11.8-1.5
			c-1.5-0.1-2.1-0.3-3.5-1L106,80.6L82.3,66.9c-1.1,0.8-1.5,1.1-1.7,2c-0.5,1.7,0.5,5-2.7,6.8c-4.4,2.6-11.6,2.6-16.1,0
			C57.5,73.2,57.5,69,61.9,66.5z"/>
	</g>
	<g>
		<g>
			<path class="st10" d="M172.8,60.1l0,28.5c0.1,1.6,1.2,3.1,3.3,4.3c3.2,1.8,8.8,1.3,11.8,1.5c1.5,0.1,2.1,0.3,3.5,1l5.2-3V63.9
				L172.8,60.1z"/>
			<polygon class="st11" points="189.9,61.8 187.9,65.9 187.9,94.5 191.4,95.5 191.4,66.9 			"/>
			<path class="st12" d="M172.8,60.1l0,28.5c0.1,1.6,1.2,3.1,3.3,4.3V64.4l1.3-5.3L172.8,60.1z"/>
		</g>
		<g>
			<polygon class="st10" points="181.3,91.3 191.4,122.8 234.2,107 196.6,66.6 			"/>
			<polygon class="st11" points="189.7,80.1 193.1,92.2 193.1,122 195.8,121.2 195.8,85.4 			"/>
			<polygon class="st12" points="224.4,76.4 211.9,85.4 211.9,100.7 			"/>
			<polygon class="st12" points="196.6,97.2 196.6,125.8 220.3,139.4 220.3,110.9 			"/>
			<polygon class="st12" points="167.8,80.6 167.8,109.1 191.4,122.8 191.4,94.2 			"/>
		</g>
		<polygon class="st10" points="220.3,110.9 220.3,139.4 272.8,109.1 272.8,80.6 		"/>
		<path class="st13" d="M220.3,50.3l-23.7,13.7c-1.1-0.8-1.5-1.1-1.7-2c-0.5-1.7,0.5-5-2.7-6.8c-4.4-2.6-11.6-2.6-16.1,0
			c-4.4,2.6-4.4,6.7,0,9.3c3.2,1.8,8.8,1.3,11.8,1.5c1.5,0.1,2.1,0.3,3.5,1l-23.7,13.7l23.7,13.7c1.1-0.8,1.5-1.1,1.7-2
			c0.5-1.7-0.5-5,2.7-6.8c4.4-2.6,11.6-2.6,16.1,0c4.4,2.6,4.4,6.7,0,9.3c-3.2,1.8-8.8,1.3-11.8,1.5c-1.5,0.1-2.1,0.3-3.5,1
			l23.7,13.7l52.5-30.3L220.3,50.3z"/>
	</g>
	<g>
		<g>
			<path class="st14" d="M160.5,112.1l0,28.5l5.2,3c1.4-0.7,1.9-0.8,3.5-1c3-0.3,8.6,0.3,11.8-1.5c2.1-1.2,3.2-2.8,3.3-4.3v-28.5
				L160.5,112.1z"/>
			<path class="st15" d="M165.7,143.6c1.4-0.7,1.9-0.8,3.5-1l0-28.5c-1.5,0.1-2.1,0.3-3.5,1L165.7,143.6z"/>
			<path class="st15" d="M182.1,106.5l-1.2,6l0,28.5c2.1-1.2,3.2-2.8,3.3-4.3v-28.5L182.1,106.5z"/>
		</g>
		<g>
			<polygon class="st14" points="113.2,112.1 113.2,136.8 148.7,112.1 			"/>
			<polygon class="st16" points="113.2,112.1 113.2,136.8 116.7,130.8 116.7,113.1 			"/>
			<polygon class="st15" points="128.5,114.6 128.5,134 140.1,112.7 			"/>
		</g>
		<polygon class="st16" points="84.4,128.7 84.4,157.3 136.9,187.6 136.9,159 		"/>
		<polygon class="st14" points="136.9,159 136.9,187.6 189.4,157.3 189.4,128.7 		"/>
		<path class="st17" d="M189.4,128.7l-23.7-13.7c1.4-0.7,1.9-0.8,3.5-1c3-0.3,8.6,0.3,11.8-1.5c4.4-2.6,4.4-6.7,0-9.3
			c-4.4-2.6-11.6-2.6-16.1,0c-3.2,1.8-2.2,5.1-2.7,6.8c-0.3,0.9-0.6,1.2-1.7,2l-23.7-13.7l-23.7,13.7c1.4,0.7,1.9,0.8,3.5,1
			c3,0.3,8.6-0.3,11.8,1.5c4.4,2.6,4.4,6.7,0,9.3c-4.4,2.6-11.6,2.6-16.1,0c-3.2-1.8-2.2-5.1-2.7-6.8c-0.3-0.9-0.6-1.2-1.7-2
			l-23.7,13.7l52.5,30.3L189.4,128.7z"/>
	</g>
</g>
</svg>
