<?xml version="1.0" encoding="utf-8"?>
<!-- Generator: Adobe Illustrator 22.1.0, SVG Export Plug-In . SVG Version: 6.00 Build 0)  -->
<svg version="1.0" id="Layer_1" xmlns="http://www.w3.org/2000/svg" xmlns:xlink="http://www.w3.org/1999/xlink" x="0px" y="0px"
	 viewBox="0 0 274 257" enable-background="new 0 0 274 257" xml:space="preserve">
<g>
	<path opacity="0.25" fill="#020406" d="M143,93.3c0,0.4,0.3,1,0.7,1.2l5.9,3.4l24,13.9l4.7,2.7c0.2,0.1,0.3,0.2,0.5,0.2
		c1.5,0.8,2.9,0.7,3.7-0.2l59.4-34.6c2.7-1.5,3-4,3-5.4c0-4.9,0-3.9,0-6.7c0-4.5-3.3-5.6-4.7-6.4l-4.7-2.7l-28-16.1
		c-1.4-0.8-60.7,45.5-60.9,47.9l-3.4,2.4C143,93,143,93.1,143,93.3z M143.5,77.3c-0.1,0-0.2,0-0.3,0
		C143.3,77.3,143.4,77.3,143.5,77.3z M145.3,93.9l6.6,3.8c0,0,0.2,0.1,0.2,0.1c1.1,0.6,5.7,3.3,10.8,6.3L145.3,93.9z"/>
	<g enable-background="new    ">
		<defs>
			<path id="SVGID_1_" enable-background="new    " d="M199.2,50.3l-56.1,39.4c0.1-0.1,0.3-0.1,0.5,0l56.1-39.4
				C199.6,50.3,199.4,50.3,199.2,50.3z"/>
		</defs>
		<clipPath id="SVGID_2_">
			<use xlink:href="#SVGID_1_"  overflow="visible"/>
		</clipPath>
		<g clip-path="url(#SVGID_2_)" enable-background="new    ">
			<path fill="#3A4934" d="M143.7,89.8l56.1-39.4c-0.2-0.1-0.4-0.1-0.5,0l-56.1,39.4C143.3,89.6,143.5,89.6,143.7,89.8L143.7,89.8z"
				/>
		</g>
	</g>
	<g>
		<polygon fill="#3A4934" points="145.3,90.7 207.1,48 199.7,50.4 143.7,89.8 		"/>
	</g>
	<g enable-background="new    ">
		<defs>
			<path id="SVGID_3_" enable-background="new    " d="M152.1,94.6l61.8-42.7C213.9,51.9,152.1,94.6,152.1,94.6
				C152.1,94.6,152.1,94.6,152.1,94.6z"/>
		</defs>
		<clipPath id="SVGID_4_">
			<use xlink:href="#SVGID_3_"  overflow="visible"/>
		</clipPath>
		<g clip-path="url(#SVGID_4_)" enable-background="new    ">
			<path fill="#CFD1D4" d="M152.1,94.6l61.8-42.7C213.9,51.9,152.1,94.6,152.1,94.6C152.1,94.6,152.1,94.6,152.1,94.6z"/>
		</g>
	</g>
	<g enable-background="new    ">
		<defs>
			<path id="SVGID_5_" enable-background="new    " d="M213.7,44.6c-0.9-0.5-1.7-0.5-2.2-0.2l-61.8,35.9c0.6-0.3,1.4-0.3,2.2,0.2
				C168.7,70.7,196.9,54.4,213.7,44.6z"/>
		</defs>
		<clipPath id="SVGID_6_">
			<use xlink:href="#SVGID_5_"  overflow="visible"/>
		</clipPath>
		<g clip-path="url(#SVGID_6_)" enable-background="new    ">
			<path fill="#CFD1D4" d="M151.9,80.5l61.8-35.9c-0.9-0.5-1.7-0.5-2.2-0.2l-61.8,35.9C150.2,80,151,80,151.9,80.5L151.9,80.5z"/>
		</g>
	</g>
	<g>
		<path fill="#68696B" d="M151.8,94.5c0,0,0.2,0.1,0.2,0.1C152,94.6,151.9,94.5,151.8,94.5z"/>
	</g>
	<g>
		<path fill="#68696B" d="M151.9,94.5l0.2,0.1C152.1,94.6,151.9,94.5,151.9,94.5z"/>
	</g>
	<g>
		<polygon fill="#B1B3B6" points="151.9,80.5 213.7,44.6 207.1,40.8 145.3,76.7 		"/>
	</g>
	<g>
		<path fill="#9FA1A3" d="M146.2,75.7l2.5,1.5l0.3,0.2c-0.1-0.1-0.2-0.2-0.4-0.2l-2.1-1.2C146.5,75.8,146.3,75.7,146.2,75.7z"/>
	</g>
	<path fill="#BBB69D" d="M146.5,87.8c0.2-1.9,0.1-9.2-1.2-11.1l6.6,3.8c0.1,0,27.3,15.9,27.4,15.9c6.1,1.5,2.9,10.2,2.9,12.1
		c0,1.9-1.3,2.7-2.9,1.9c-0.1,0-27.4-15.9-27.5-16l-6.6-3.8C146.1,90.2,146.4,89.2,146.5,87.8z"/>
	<g enable-background="new    ">
		<defs>
			<path id="SVGID_7_" enable-background="new    " d="M213.9,44.7L152,80.6C152.1,80.6,213.9,44.7,213.9,44.7
				c-18.6,10.8-43,25-61.7,35.8C170.9,69.7,195.3,55.5,213.9,44.7z"/>
		</defs>
		<clipPath id="SVGID_8_">
			<use xlink:href="#SVGID_7_"  overflow="visible"/>
		</clipPath>
		<g clip-path="url(#SVGID_8_)" enable-background="new    ">
			<path fill="#CFD1D4" d="M152.1,80.6l61.8-35.9C213.9,44.7,152,80.6,152.1,80.6C152.1,80.6,152.1,80.6,152.1,80.6z"/>
		</g>
	</g>
	<g>
		<path fill="#68696B" d="M152.1,80.6c0,0-0.2-0.1-0.2-0.1C151.9,80.6,152,80.6,152.1,80.6z"/>
	</g>
	<g>
		<polygon fill="#B1B3B6" points="152,80.6 213.9,44.7 213.7,44.6 151.9,80.5 		"/>
	</g>
	<path fill="#505A45" d="M203.4,39.1c0.9-0.5,2.7-0.5,4,0.3l28,16.1l4.7,2.7l-61.8,35.9l-4.7-2.7l-25-14.3l0.1,0l-2.5-1.4l-2.6-1.5
		c-0.2-0.1-0.4-0.1-0.5,0L203.4,39.1z"/>
	<g>
		<g enable-background="new    ">
			<path fill="#5A654F" d="M181.7,111.7l60.1-35c2.7-1.5,3-4,3-5.4c0-4.9,0-3.9,0-6.7c0-4.5-3.3-5.6-4.7-6.4L178.4,94
				c1.1,0.6,3.8,2.3,4.6,5.6c0.8,3.4,0,7.6,0,9.2C183,110.3,182.5,111.3,181.7,111.7L181.7,111.7z"/>
		</g>
	</g>
	<g>
		<path fill="#6A7460" d="M143.7,74.2c-0.4-0.2-0.7,0-0.7,0.4c0,0.4,0.3,1,0.7,1.2l1.6,0.9l33.2,19.3l0.2,0.1
			c0.5,0.3,3.3,1.5,3.3,5.1c0,2.9-0.1,5.7-0.1,7c0,1.9-1.3,2.9-3.9,1.3l-32.6-18.9l-1.6-0.9c-0.4-0.2-0.7,0-0.7,0.4
			c0,0.4,0.3,1,0.7,1.2l5.9,3.4l24,13.9l4.7,2.7c0.2,0.1,0.3,0.2,0.5,0.2c2.4,1.2,4.4,0.2,4.6-2.5c0.1-2.3,0.1-5.5,0.1-8.2
			c0-4.3-4.5-6.2-5.9-7.1l1.4,0.9L143.7,74.2z"/>
	</g>
	<path fill="#EDD160" d="M190.3,103.1c0-4.9,0-3.9,0-6.7c0-4.5-3.3-5.6-4.7-6.4l3.6-2.2c1.4,0.8,4.7,2,4.7,6.4c0,2.7,0,1.7,0,6.7
		c0,1.4-0.3,3.9-3,5.4l-3.3,1.9C189.9,106.7,190.2,104.4,190.3,103.1z"/>
	<g>
		<path fill="#5A3D2F" d="M190.9,32.3c0.1-0.1,0.3-0.1,0.4,0l1.4,0.8l-55.8,35.3l-1.4-0.8c-0.2-0.1-0.3-0.1-0.4,0L190.9,32.3z"/>
		<path fill="#CFCDBF" d="M138,66c0.2-1.6,0.1-7.8-1.1-9.4l5.6,3.2c0.1,0,30.5,17.5,30.5,17.5c5.1,1.2,2.5,8.6,2.5,10.2
			c0,1.6-1.1,2.3-2.5,1.6c-0.1,0-30.5-17.5-30.6-17.5l-5.6-3.2C137.6,68,137.8,67.2,138,66z"/>
		<path fill="#9A4D45" d="M187,24.3c0.7-0.4,2.3-0.5,3.4,0.2l31.1,17.7l4,2.3l-53.2,30.9l-4-2.3L139.7,57l0.1,0l-2.1-1.2l-2.2-1.2
			c-0.2-0.1-0.3-0.1-0.4,0L187,24.3z"/>
		<g>
			<g enable-background="new    ">
				<path fill="#BC5A51" d="M175.1,90.3l51.8-30.1c2.3-1.3,2.5-3.4,2.5-4.6c0-4.2,0-3.3,0-5.6c0-3.8-2.8-4.8-4-5.4l-53.6,30.6
					c0.9,0.5,3.7,2.1,4.4,4.9c0.7,2.9,0,6.5,0,7.8C176.2,89.1,175.8,89.9,175.1,90.3L175.1,90.3z"/>
			</g>
		</g>
		<g>
			<path fill="#7F543D" d="M135.5,54.5c-0.3-0.2-0.6,0-0.6,0.3c0,0.4,0.3,0.8,0.6,1l1.4,0.8L172.3,77l0.2,0.1
				c0.4,0.3,2.8,1.2,2.8,4.3c0,2.4-0.1,4.8-0.1,5.9c0,1.6-1.1,2.4-3.3,1.1l-35-20.1l-1.4-0.8c-0.3-0.2-0.6,0-0.6,0.3
				c0,0.4,0.3,0.8,0.6,1l5,2.9l27.7,15.8l4,2.3c0.2,0.1,0.3,0.1,0.4,0.2c2,1.1,3.8,0.2,3.9-2.2c0.1-1.9,0.1-4.7,0.1-6.9
				c0-3.6-3.8-5.3-5-6l1.2,0.7L135.5,54.5z"/>
		</g>
	</g>
	<g>
		<polygon fill="#202731" points="193.8,2 193.8,13 141.3,49.4 139,46.6 139,35.6 141.3,32.4 		"/>
		<path fill="#334D58" d="M237.7,44.6l-49.9,29c-0.3,0.2-0.8,0.3-1.2,0.3c-0.4,0-0.9-0.1-1.2-0.3c0,0,0,1.5,0,1.5
			c0.7,0.4,1.8,0.4,2.5,0l49.9-29c0.3-0.2,0.5-0.5,0.5-0.7v-1.5C238.2,44.2,238,44.5,237.7,44.6z"/>
		<g>
			<path fill="#51717C" d="M237.6,43.2c0.7,0.4,0.7,1,0,1.4l-49.9,29c-0.7,0.4-1.8,0.4-2.5,0L140.9,48l52.8-30.5L237.6,43.2z"/>
		</g>
		<g>
			<g enable-background="new    ">
				<g>
					<polygon fill="#E0E8ED" points="186.3,57.7 186.3,73 142.8,47.2 142.8,31.9 					"/>
				</g>
				<g>
					<polygon fill="#ADBAC5" points="235.5,30.1 235.5,44.6 186.3,73 186.3,57.7 					"/>
				</g>
				<g>
					<polygon fill="#7A7B7C" points="185.9,57.3 143.9,32.3 183.5,9.6 226.7,34.7 					"/>
				</g>
			</g>
		</g>
		<path fill="#334D58" d="M139.9,33.1c1.4-0.6,4,0.7,4,0.8L185.3,58l0,1.3l-42.4-24.9c-1.4-0.8-3.3,0.5-3.3,2.6v7.5
			c0,0.2,0,2.6,2.4,4l43.2,25.2v1.5l-44.1-25.9c-1.2-0.6-3.1-1.9-3.1-5.4l0-7.4C138.1,36.4,138.1,33.8,139.9,33.1z"/>
		<path fill="#334D58" d="M237.7,29.1l-49.9,29c-0.7,0.4-1.8,0.4-2.5,0l0,1.3c0.3,0.2,0.8,0.3,1.3,0.3c0.4,0,0.9-0.1,1.2-0.3
			c0,0,49.9-29.2,49.9-29.2c0.3-0.2,0.5-0.5,0.5-0.7v-1.1C238.2,28.6,238,28.9,237.7,29.1z"/>
		<path fill="#51717C" d="M191.1,1.7c0.7-0.4,1.5-0.4,2.1-0.1l0.5,0.3c0,0,43.9,25.7,43.9,25.7c0.7,0.4,0.7,1,0,1.4l-49.9,29
			c-0.7,0.4-1.8,0.4-2.5,0l-41.1-23.9c0,0-2.1-1.2-3.2-1.2c-0.9,0-2,0.6-2,0.6L191.1,1.7z"/>
	</g>
</g>
<g>
	<g>
		<path fill="#856A44" d="M124.7,124.9c-0.2,0-0.3-0.1-0.4-0.3l-13.4-31.3c-0.1-0.2,0-0.5,0.2-0.6c0.2-0.1,0.5,0,0.6,0.2l13.4,31.3
			c0.1,0.2,0,0.5-0.2,0.6C124.8,124.9,124.7,124.9,124.7,124.9z"/>
	</g>
	<g>
		<g>
			<path fill="#856A44" d="M35.1,73.1c-0.2,0-0.3-0.1-0.4-0.3L21.3,41.6c-0.1-0.2,0-0.5,0.2-0.6c0.2-0.1,0.5,0,0.6,0.2l13.4,31.3
				c0.1,0.2,0,0.5-0.2,0.6C35.2,73.1,35.2,73.1,35.1,73.1z"/>
		</g>
		<g>
			<g enable-background="new    ">
				<g enable-background="new    ">
					<defs>
						<path id="SVGID_9_" enable-background="new    " d="M15.4,36.5c0.4-0.2,0.7-0.4,1.1-0.6c0.1-0.1,0.2-0.1,0.3-0.1
							c0.4,0,0.6,0.1,0.9,0.2c0.8,0.5,1.1,1.5,1,2c0,0.4-0.5,0.9-0.5,0.9l-1.1,0.6c0,0,0.5-0.5,0.5-0.9c0-0.5-0.2-1.5-1-2
							c-0.2-0.1-0.5-0.2-0.9-0.2C15.6,36.4,15.5,36.4,15.4,36.5z"/>
					</defs>
					<clipPath id="SVGID_10_">
						<use xlink:href="#SVGID_9_"  overflow="visible"/>
					</clipPath>
					<g clip-path="url(#SVGID_10_)" enable-background="new    ">
						<path fill="#A1864C" d="M15.4,36.5l1.1-0.6c0.1-0.1,0.2-0.1,0.3-0.1c0.4,0,0.6,0.1,0.9,0.2c0.2,0.1,0.3,0.2,0.4,0.4L17.1,37
							c-0.1-0.1-0.3-0.3-0.4-0.4c-0.2-0.1-0.5-0.2-0.9-0.2C15.6,36.4,15.5,36.4,15.4,36.5L15.4,36.5z"/>
						<path fill="#D1C097" d="M17.1,37l1.1-0.6c0.2,0.2,0.3,0.4,0.4,0.6l-1.1,0.6C17.3,37.4,17.2,37.2,17.1,37L17.1,37z"/>
						<path fill="#A1864C" d="M17.4,37.6l1.1-0.6c0.2,0.4,0.2,0.8,0.2,1c0,0.4-0.5,0.9-0.5,0.9l-1.1,0.6c0,0,0.5-0.5,0.5-0.9
							C17.7,38.3,17.6,37.9,17.4,37.6L17.4,37.6z"/>
					</g>
				</g>
				<g enable-background="new    ">
					<defs>
						<path id="SVGID_11_" enable-background="new    " d="M17.1,39.5l1.1-0.6c0,0,0.1,0.2,0.6,0.6c1,0.5,3.4,1.4,9.4,1.7
							c4.5,0.2,8,1,11.8,3.2l-1.1,0.6c-3.8-2.2-7.3-3-11.8-3.2c-6.1-0.3-8.5-1.1-9.4-1.7C17.2,39.8,17.1,39.5,17.1,39.5z"/>
					</defs>
					<clipPath id="SVGID_12_">
						<use xlink:href="#SVGID_11_"  overflow="visible"/>
					</clipPath>
					<g clip-path="url(#SVGID_12_)" enable-background="new    ">
						<path fill="#A1864C" d="M17.1,39.5l1.1-0.6C18.2,38.9,17.1,39.5,17.1,39.5C17.1,39.5,17.1,39.5,17.1,39.5z"/>
						<path fill="#D1C097" d="M17.1,39.5l1.1-0.6c0,0,0,0.1,0.1,0.1l-1.1,0.6C17.2,39.6,17.1,39.6,17.1,39.5L17.1,39.5z"/>
						<path fill="#CAAD4C" d="M17.2,39.7l1.1-0.6c0.1,0.1,0.2,0.2,0.5,0.4c1,0.5,3.4,1.4,9.4,1.7c4.5,0.2,8,1,11.8,3.2l-1.1,0.6
							c-3.8-2.2-7.3-3-11.8-3.2c-6.1-0.3-8.5-1.1-9.4-1.7C17.4,39.9,17.3,39.8,17.2,39.7L17.2,39.7z"/>
					</g>
				</g>
				<g>
					<polygon fill="#897442" points="63.5,66.2 64.6,65.6 64.8,67.2 63.7,67.8 					"/>
				</g>
				<g enable-background="new    ">
					<defs>
						<path id="SVGID_13_" enable-background="new    " d="M38.9,44.9l1.1-0.6c3.1,1.8,6.4,4.5,10.5,8.7c9.9,10,13.7,12.3,14,12.5
							l-1.1,0.6c-0.4-0.2-4.1-2.5-14-12.5C45.3,49.5,42,46.7,38.9,44.9z"/>
					</defs>
					<clipPath id="SVGID_14_">
						<use xlink:href="#SVGID_13_"  overflow="visible"/>
					</clipPath>
					<g clip-path="url(#SVGID_14_)" enable-background="new    ">
						<path fill="#CAAD4C" d="M38.9,44.9l1.1-0.6c3.1,1.8,6.4,4.5,10.5,8.7c9.9,10,13.7,12.3,14,12.5l-1.1,0.6
							c-0.4-0.2-4.1-2.5-14-12.5C45.3,49.5,42,46.7,38.9,44.9L38.9,44.9z"/>
					</g>
				</g>
				<g>
					<path fill="#77603E" d="M38.9,44.9c3.1,1.8,6.4,4.5,10.5,8.7c9.9,10,13.7,12.3,14,12.5l0.2,1.6c-0.3-0.2-6.4-4.3-10.9-8.4
						c-4.8-4.4-8-7.3-15.5-11.6c-6.6-3.8-15.7-4-19.7-6.4c-0.5-0.3-0.9-0.6-1.2-0.9c-2-2.1-1.8-4.1-0.7-4.1c0.4,0,0.6,0.1,0.9,0.2
						c0.8,0.5,1.1,1.5,1,2c0,0.4-0.5,0.9-0.5,0.9c0,0,0.1,0.2,0.6,0.6c1,0.5,3.4,1.4,9.4,1.7C31.6,42,35.1,42.7,38.9,44.9z"/>
				</g>
			</g>
		</g>
		<g>
			<path fill="#B3924C" d="M86,150.1c0,8.1-10.4,14.7-23.2,14.7c-12.8,0-23.2-6.6-23.2-14.7c0-8.1,10.4-14.7,23.2-14.7
				C75.6,135.4,86,142,86,150.1z"/>
			<path fill="#EFD46F" d="M62.8,135.3c-11.7,0-21.2,5.8-22,13.1c0.8,7.3,10.3,13.1,22,13.1c11.7,0,21.2-5.8,22-13.1
				C84.1,141.1,74.5,135.3,62.8,135.3z"/>
			<path fill="#B3924C" d="M82.5,147.5c0,6.6-8.8,11.9-19.7,11.9c-10.9,0-19.7-5.3-19.7-11.9c0-6.6,8.8-11.9,19.7-11.9
				C73.7,135.6,82.5,141,82.5,147.5z"/>
			<path fill="#EFD46F" d="M63,135.3c-9.9,0-18.1,4.9-18.7,11.1c0.6,6.2,8.8,11.1,18.7,11.1c9.9,0,18.1-4.9,18.7-11.1
				C81.1,140.2,72.9,135.3,63,135.3z"/>
		</g>
		<g>
			<g enable-background="new    ">
				<g enable-background="new    ">
					<defs>
						<path id="SVGID_15_" enable-background="new    " d="M72.1,147.6c0.4-1.6-0.4-3.3-2.4-4.6c0,0,0.1-0.5-0.2-1.1
							c-0.1-0.1-0.1-0.2-0.2-0.2c0.2,0.2,0.6,0.4,0.8,0.6c0.2,0.1,0.4,0.3,0.5,0.5c0.2,0.2,0.5,0.5,0.7,0.8c0,0.1,0.3,0.4,0.5,0.8
							c0.1,0.2,0.4,0.8,0.5,1.7C72.3,146.9,72.2,147.4,72.1,147.6z"/>
					</defs>
					<clipPath id="SVGID_16_">
						<use xlink:href="#SVGID_15_"  overflow="visible"/>
					</clipPath>
					<g clip-path="url(#SVGID_16_)" enable-background="new    ">
						<path fill="#7D7045" d="M72.1,147.6c0.2-0.8,0.6-3.6-2.9-5.9c0.1,0.1,0.2,0.1,0.2,0.2c0.3,0.6,0.3,1.1,0.2,1.1
							C71.8,144.4,72.6,146.1,72.1,147.6L72.1,147.6z"/>
					</g>
				</g>
				<g>
					<path fill="#CCB55F" d="M69.8,143c3.5,2.3,3.3,5.8-0.6,7.7c-3.8,2-9.8,1.7-13.3-0.6c-3.5-2.3-3.3-5.8,0.6-7.7
						C60.3,140.5,66.2,140.7,69.8,143z"/>
				</g>
				<g enable-background="new    ">
					<defs>
						<path id="SVGID_17_" enable-background="new    " d="M54.6,143c0.3-0.4,0.8-0.9,1.3-1.2c0.2-0.1,0.4-0.3,0.6-0.4
							c0.2-0.1,0.4-0.2,0.5-0.3c0.2-0.1,0.4-0.2,0.6-0.3c0.2-0.1,0.9-0.4,1.8-0.6c0.9-0.2,1.6-0.3,1.9-0.3c0.6-0.1,1.1-0.1,1.3-0.1
							c0.4,0,0.5,0,1.3,0.1c0.2,0,0.5,0,0.6,0.1c0.4,0.1,0.9,0.1,1.3,0.2c0,0,0.9,0.2,1.8,0.6c0.2,0.1,0.4,0.2,0.6,0.3
							c0.3,0.2,0.7,0.4,1.1,0.6c0.1,0.1,0.2,0.1,0.2,0.2c0.3,0.6,0.3,1.1,0.2,1.1c-3.5-2.3-9.5-2.6-13.3-0.6c-2.3,1.2-3.3,2.9-3,4.6
							C53.3,146.3,53.2,144.7,54.6,143z"/>
					</defs>
					<clipPath id="SVGID_18_">
						<use xlink:href="#SVGID_17_"  overflow="visible"/>
					</clipPath>
					<g clip-path="url(#SVGID_18_)" enable-background="new    ">
						<path fill="#7D7045" d="M54.6,143c-1.3,1.6-1.3,3.1-1.2,4c-0.3-1.7,0.7-3.4,3-4.6c3.8-2,9.8-1.7,13.3,0.6c0,0,0.1-0.5-0.2-1.1
							c-0.1-0.1-0.1-0.2-0.2-0.2c-2.4-1.4-5-2-8-1.8C57,140.3,55.1,142.4,54.6,143L54.6,143z"/>
					</g>
				</g>
				<g>
					<path fill="#B3924C" d="M67,142c2.1,1.4,1.9,3.4-0.3,4.6c-2.3,1.2-5.8,1-7.9-0.4c-2.1-1.4-1.9-3.4,0.3-4.6
						C61.4,140.5,64.9,140.6,67,142z"/>
				</g>
				<g enable-background="new    ">
					<defs>
						<path id="SVGID_19_" enable-background="new    " d="M53.4,147c-0.1-0.3-0.1-0.6-0.1-0.8c0-0.4,0.1-0.7,0.1-1
							c0.1-0.3,0.2-0.7,0.3-0.9c0.2-0.5,0.5-0.9,0.6-1c0.1-0.1,0.1-0.2,0.2-0.3c0.1-0.1,0.3-0.3,0.4-0.5c0.2-0.2,0.5-0.5,0.9-0.8
							c0.2-0.2,0.6-0.4,1.1-0.6c0.6-0.3,1.2-0.5,1.2-0.5c0.4-0.1,0.8-0.3,1.2-0.4c0.7-0.2,1.3-0.2,1.3-0.2c0.4-0.1,0.9-0.1,1.3-0.1
							c0.2,0,0.4,0,0.6,0c0.8,0,0.9,0,1.3,0.1c0.5,0,0.5,0,1.3,0.2c0.2,0,0.4,0.1,0.6,0.1c0.4,0.1,1,0.3,1.2,0.3
							c0.2,0.1,0.7,0.2,1.2,0.5c0.4,0.2,0.7,0.4,1.1,0.6c-0.7-0.5-2.2,0.3-2.3,0.3c-2.1-1.4-5.6-1.5-7.9-0.4
							c-2.3,1.2-2.4,3.2-0.3,4.6c2.1,1.4,5.6,1.5,7.9,0.4c2.3-1.2,2.4-3.2,0.3-4.6c0.1,0,1.5-0.8,2.3-0.3c0.3,0.2,0.7,0.5,0.9,0.7
							c0.2,0.2,0.5,0.4,0.6,0.7c0.3,0.3,0.7,0.9,0.9,1.3c0.1,0.3,0.4,0.9,0.5,1.7c0.1,0.4,0.1,1-0.1,1.6c-0.3,1.2-1.3,2.3-2.9,3.1
							c-3.8,2-9.8,1.7-13.3-0.6C54.5,149.2,53.6,148.1,53.4,147z"/>
					</defs>
					<clipPath id="SVGID_20_">
						<use xlink:href="#SVGID_19_"  overflow="visible"/>
					</clipPath>
					<g clip-path="url(#SVGID_20_)" enable-background="new    ">
						<path fill="#CAAD4C" d="M53.4,147c-0.5-2.6,1.5-5.3,4.7-6.4c1.8-0.6,6.5-1.7,11.1,1c-0.7-0.4-2.1,0.3-2.2,0.3
							c-2.1-1.4-5.6-1.5-7.9-0.4c-2.3,1.2-2.4,3.2-0.3,4.6c2.1,1.4,5.6,1.5,7.9,0.4c2.3-1.2,2.4-3.2,0.3-4.6c0.1,0,1.5-0.8,2.3-0.3
							c0.7,0.5,1.7,1.2,2.4,2.7c0.6,1.2,0.7,2.2,0.4,3.3c-0.3,1.2-1.3,2.3-2.9,3.1c-3.8,2-9.8,1.7-13.3-0.6
							C54.5,149.2,53.6,148.1,53.4,147L53.4,147z"/>
						<path fill="#EFD46F" d="M70.5,147.6c0,1.1-1.2,2.3-4.4,3c-1.9,0.4-5.5,0.4-7-0.8c-0.1-0.1-0.3-0.5,0.4-0.4
							c0.2,0,2.3,0.7,5.8,0.1c1.2-0.2,2.7-0.5,4.3-1.5C70.2,147.6,70.5,147.6,70.5,147.6z"/>
					</g>
				</g>
			</g>
		</g>
		<g>
			<path fill="#CAAD4C" d="M65.4,145.1c0,0-0.2,1.8-2.7,1.8c-2.6-0.1-2.6-1.9-2.6-1.9l0.6-77.6l5.3,0.2L65.4,145.1z"/>
			<path fill="#CAAD4C" d="M65.4,145.1c0,0-0.2,1.8-2.7,1.8c-2.6-0.1-2.6-1.9-2.6-1.9l0.6-77.6l5.3,0.2L65.4,145.1z"/>
			<path fill="#EFD46F" d="M63,146.8c0.5,0,0.9-0.1,1.2-0.2l0.7-78.6l-1.2,0L63,146.8z"/>
			<path fill="#A2864B" d="M60.7,146c0.3,0.3,0.6,0.5,1.2,0.7l0.7-78.9l-1.2,0L60.7,146z"/>
		</g>
		<path fill="#B3924C" d="M68.3,66.2c0,2.9-2.3,5.2-5.2,5.2c-2.9,0-5.2-2.3-5.2-5.2c0-2.9,2.3-5.2,5.2-5.2
			C66,61,68.3,63.3,68.3,66.2z"/>
		<path fill="#CAAD4C" d="M66.5,65.9c0,1.9-1.5,3.4-3.4,3.4c-1.9,0-3.4-1.5-3.4-3.4c0-1.9,1.5-3.4,3.4-3.4
			C65,62.5,66.5,64,66.5,65.9z"/>
		<g>
			<g enable-background="new    ">
				<g enable-background="new    ">
					<defs>
						<path id="SVGID_21_" enable-background="new    " d="M65.6,55.7l0,6.8c0,0.4-0.2,0.7-0.7,1c-1,0.6-2.6,0.6-3.5,0
							c-0.5-0.3-0.7-0.7-0.7-1l0-6.8c0,0.4,0.2,0.7,0.7,1c1,0.6,2.6,0.6,3.5,0C65.4,56.5,65.6,56.1,65.6,55.7z"/>
					</defs>
					<use xlink:href="#SVGID_21_"  overflow="visible" fill="#A2864B"/>
					<clipPath id="SVGID_22_">
						<use xlink:href="#SVGID_21_"  overflow="visible"/>
					</clipPath>
					<g clip-path="url(#SVGID_22_)" enable-background="new    ">
						<path fill="#A2864B" d="M65.6,55.7l0,6.8c0,0.4-0.2,0.7-0.7,1c-1,0.6-2.6,0.6-3.5,0c-0.5-0.3-0.7-0.7-0.7-1l0-6.8
							c0,0.4,0.2,0.7,0.7,1c1,0.6,2.6,0.6,3.5,0C65.4,56.5,65.6,56.1,65.6,55.7L65.6,55.7z"/>
					</g>
				</g>
				<g>
					<path fill="#A2864B" d="M64.9,54.7c1,0.6,1,1.5,0,2.1c-1,0.6-2.6,0.6-3.5,0c-1-0.6-1-1.5,0-2.1C62.3,54.1,63.9,54.1,64.9,54.7z
						"/>
				</g>
			</g>
		</g>
		<path fill="#B3924C" d="M67,53.4c0,2.1-1.7,3.9-3.9,3.9c-2.1,0-3.9-1.7-3.9-3.9c0-2.1,1.7-3.9,3.9-3.9C65.3,49.5,67,51.2,67,53.4z
			"/>
		<path opacity="0.4" fill="#FFFFFF" d="M65.7,52.3c0,0.9-0.8,1.7-1.7,1.7c-0.9,0-1.7-0.8-1.7-1.7c0-0.9,0.8-1.7,1.7-1.7
			C64.9,50.6,65.7,51.4,65.7,52.3z"/>
		<g>
			<g enable-background="new    ">
				<g enable-background="new    ">
					<defs>
						<path id="SVGID_23_" enable-background="new    " d="M65.2,66.5l1.1-0.6c0.4,0.2,4.2,2.3,14.1,3.7c4.1,0.6,7.4,1.7,10.5,3.4
							l-1.1,0.6c-3.1-1.8-6.4-2.8-10.5-3.4C69.4,68.8,65.6,66.7,65.2,66.5z"/>
					</defs>
					<clipPath id="SVGID_24_">
						<use xlink:href="#SVGID_23_"  overflow="visible"/>
					</clipPath>
					<g clip-path="url(#SVGID_24_)" enable-background="new    ">
						<path fill="#CAAD4C" d="M65.2,66.5l1.1-0.6c0.4,0.2,4.2,2.3,14.1,3.7c4.1,0.6,7.4,1.7,10.5,3.4l-1.1,0.6
							c-3.1-1.8-6.4-2.8-10.5-3.4C69.4,68.8,65.6,66.7,65.2,66.5L65.2,66.5z"/>
					</g>
				</g>
				<g enable-background="new    ">
					<defs>
						<path id="SVGID_25_" enable-background="new    " d="M112.7,92.8c-0.4,0.2-0.7,0.4-1.1,0.6c-0.1,0-0.2,0-0.6-0.2
							c-1-0.6-3.4-2.5-9.4-9.2c-4.4-4.9-8-8.2-11.8-10.4l1.1-0.6c3.8,2.2,7.3,5.5,11.8,10.4c6,6.7,8.5,8.6,9.4,9.2
							C112.5,92.9,112.6,92.9,112.7,92.8z"/>
					</defs>
					<clipPath id="SVGID_26_">
						<use xlink:href="#SVGID_25_"  overflow="visible"/>
					</clipPath>
					<g clip-path="url(#SVGID_26_)">
						<path fill="#CAAD4C" d="M89.9,73.7l1.1-0.6c3.8,2.2,7.3,5.5,11.8,10.4c6,6.7,8.5,8.6,9.4,9.2c0.4,0.2,0.5,0.2,0.6,0.2
							l-1.1,0.6c-0.1,0-0.2,0-0.6-0.2c-1-0.6-3.4-2.5-9.4-9.2C97.2,79.2,93.7,75.9,89.9,73.7L89.9,73.7z"/>
					</g>
				</g>
				<g enable-background="new    ">
					<defs>
						<path id="SVGID_27_" enable-background="new    " d="M111.5,91c0.4-0.2,0.7-0.4,1.1-0.6c0.2-0.1,0.4-0.1,0.7,0.1
							c0.2,0.1,0.5,0.4,0.9,0.8c0.8,0.9,1.1,2.6,0.2,3.1c-0.4,0.2-0.7,0.4-1.1,0.6c0.9-0.5,0.6-2.2-0.2-3.1
							c-0.4-0.4-0.6-0.7-0.9-0.8C111.9,90.9,111.6,90.9,111.5,91z"/>
					</defs>
					<clipPath id="SVGID_28_">
						<use xlink:href="#SVGID_27_"  overflow="visible"/>
					</clipPath>
					<g clip-path="url(#SVGID_28_)" enable-background="new    ">
						<path fill="#A1864C" d="M111.5,91l1.1-0.6c0.2-0.1,0.4-0.1,0.7,0.1c0.2,0.1,0.5,0.4,0.9,0.8l-1.1,0.6
							c-0.3-0.4-0.6-0.6-0.9-0.8C111.9,90.9,111.6,90.9,111.5,91L111.5,91z"/>
						<path fill="#D1C097" d="M113,91.9l1.1-0.6c0.2,0.3,0.4,0.5,0.5,0.8l-1.1,0.6C113.4,92.4,113.3,92.1,113,91.9
							C113,91.9,113,91.9,113,91.9z"/>
						<path fill="#A1864C" d="M113.5,92.7l1.1-0.6c0.4,0.9,0.4,1.9-0.3,2.3l-1.1,0.6C113.9,94.6,113.9,93.5,113.5,92.7L113.5,92.7z"
							/>
					</g>
				</g>
				<g>
					<path fill="#77603E" d="M89.9,73.7c3.8,2.2,7.3,5.5,11.8,10.4c6,6.7,8.5,8.6,9.4,9.2c0.6,0.3,0.6,0.2,0.6,0.2
						c0-0.1-0.5-1.1-0.5-1.5c0-0.5,0.2-1.3,1-0.8c0.2,0.1,0.5,0.4,0.9,0.8c1,1.2,1.2,3.4-0.8,3.2c-0.3,0-0.7-0.2-1.2-0.5
						c-4-2.3-13.1-12.6-19.7-16.4c-7.5-4.3-10.7-5-15.5-6.2c-4.5-1.1-10.6-4-10.9-4.2l0.2-1.3c0.4,0.2,4.2,2.3,14.1,3.7
						C83.5,70.8,86.8,71.9,89.9,73.7z"/>
				</g>
			</g>
		</g>
		<g>
			<path fill="#77603E" d="M39,80.5c0,6.2-8.1,12.7-18.1,12.7c-10,0-18.1-6.5-18.1-12.7c0-6.2,8.1-11.3,18.1-11.3
				C30.9,69.3,39,74.3,39,80.5z"/>
			<path fill="#EFD46F" d="M39.2,78.6c0,5.6-8.2,10.1-18.3,10.1c-10.1,0-18.3-4.5-18.3-10.1c0-5.6,8.2-10.1,18.3-10.1
				C31.1,68.5,39.2,73,39.2,78.6z"/>
			<path fill="#B3924C" d="M38,78.5c0,5.2-7.6,9.4-17.1,9.4c-9.4,0-17.1-4.2-17.1-9.4c0-5.2,7.6-9.4,17.1-9.4
				C30.4,69.1,38,73.3,38,78.5z"/>
			<path opacity="0.5" fill="#77603E" d="M33.2,72c0.4,3.2-0.4,6.6-1.8,8.7c-2.4,3.6-5.6,6.3-12.1,7.2c0.6,0,1.1,0,1.7,0
				c9.4,0,17.1-4.2,17.1-9.4C38,76,36.2,73.7,33.2,72z"/>
		</g>
		<path fill="#E2C66E" d="M20.4,40.1l1.4,0.3c0-0.1-0.2-0.5-0.3-0.6c-0.4-0.4-1-0.7-1.6-0.6c-0.6,0.1-1.1,0.4-1.5,1
			c-0.2,0.4-0.5,1.1-0.6,1.1L4.9,82.9c-0.1,0.2,0,0.5,0.3,0.6c0,0,0.1,0,0.1,0c0.2,0,0.3-0.1,0.4-0.3l12.9-41.5c0,0,0.3-0.6,0.5-1
			c0.2-0.3,0.5-0.5,0.8-0.6C20,40,20.2,40,20.4,40.1z"/>
		<g>
			<path fill="#77603E" d="M128.6,132.3c0,6.2-8.1,12.7-18.1,12.7c-10,0-18.1-6.5-18.1-12.7c0-6.2,8.1-11.3,18.1-11.3
				C120.5,121,128.6,126.1,128.6,132.3z"/>
			<path fill="#EFD46F" d="M128.8,130.3c0,5.6-8.2,10.1-18.3,10.1c-10.1,0-18.3-4.5-18.3-10.1c0-5.6,8.2-10.1,18.3-10.1
				C120.6,120.2,128.8,124.7,128.8,130.3z"/>
			<path fill="#B3924C" d="M127.6,130.3c0,5.2-7.6,9.4-17.1,9.4c-9.4,0-17.1-4.2-17.1-9.4c0-5.2,7.6-9.4,17.1-9.4
				C119.9,120.9,127.6,125.1,127.6,130.3z"/>
			<path opacity="0.5" fill="#77603E" d="M122.8,123.8c0.4,3.2-0.4,6.6-1.8,8.7c-2.4,3.6-5.6,6.3-12.1,7.2c0.6,0,1.1,0,1.7,0
				c9.4,0,17.1-4.2,17.1-9.4C127.6,127.7,125.8,125.4,122.8,123.8z"/>
		</g>
		<path fill="#E2C66E" d="M109.9,91.9l1.4,0.3c0-0.1-0.2-0.5-0.3-0.6c-0.4-0.4-1-0.7-1.6-0.6c-0.6,0.1-1.1,0.4-1.5,1
			c-0.2,0.4-0.5,1.1-0.6,1.1l-12.9,41.6c-0.1,0.2,0,0.5,0.3,0.6c0,0,0.1,0,0.1,0c0.2,0,0.3-0.1,0.4-0.3l12.9-41.5c0,0,0.3-0.6,0.5-1
			c0.2-0.3,0.5-0.5,0.8-0.6C109.6,91.8,109.8,91.8,109.9,91.9z"/>
	</g>
</g>
<g>
	<g>
		<path opacity="0.3" fill="#4D5355" d="M271.1,247.8c-0.1-1.4-0.7-2.3-1.5-2.7c-30.4-16.2-44-20.3-47.5-21.3
			c-0.9-0.2-1.9-0.2-3,0.5l-22-10.5c7.9-4.5,12.8-10.5,12.8-17.2c0-13.8-20.6-24.9-46-24.9c-25.4,0-46,11.2-46,24.9
			c0,13.8,20.6,24.9,46,24.9c8.2,0,15.9-1.2,22.5-3.2c4.4,2.1,9.1,4.3,13.5,6.4l10.4,4.9c0.1,1.4,0.7,2.3,1.5,2.7
			c15.7,10.6,47.5,21.3,47.5,21.3c-0.1,0-0.1-0.1-0.1-0.1c0.9,0.5,3.4,0,4.9-0.4C267.9,252.1,271.4,250.6,271.1,247.8z"/>
	</g>
	<g>
		<path fill="#6D5138" d="M210.8,189.3c0,16-20.3,28.9-45.4,28.9c-25.1,0-45.4-12.9-45.4-28.9c0-16,20.3-28.9,45.4-28.9
			C190.4,160.4,210.8,173.4,210.8,189.3z"/>
		<ellipse fill="#957447" cx="165.3" cy="185.9" rx="43.2" ry="25.7"/>
		<path fill="#6D5138" d="M204,184.2c0,12.9-17.3,23.4-38.7,23.4c-21.4,0-38.7-10.5-38.7-23.4c0-12.9,17.3-23.4,38.7-23.4
			C186.7,160.9,204,171.3,204,184.2z"/>
		<path fill="#B1885F" d="M165.3,160.7c-19.5,0-35.5,9.6-36.8,21.7c1.3,12.1,17.2,21.7,36.8,21.7s35.5-9.6,36.8-21.7
			C200.8,170.3,184.9,160.7,165.3,160.7z"/>
	</g>
	<g>
		<g>
			<g enable-background="new    ">
				<path fill="#906944" d="M201.6,158c-1.1-2.4-2.5-4.8-4.3-6.7c-1.5-1.7-3.1-3.1-4.8-4.1c-3.1-1.8-6.4-1.2-8.5-0.3
					c-4.4,1.7-7.6,4.8-7.6,4.8c2-1.2,5.5-1.4,8.6,0.4c1.7,1,3.4,2.4,4.8,4.1c1.7,2,3.2,4.3,4.3,6.7c1.2,2.7,1.9,5.6,1.9,8.3
					c0,3.5-1.2,5.9-3.2,7.1c0,0,3.9-0.2,7.7-4.1c1.6-1.6,3.1-4.3,3.1-7.8C203.5,163.6,202.8,160.7,201.6,158z"/>
				<g>
					<path fill="#5D4524" d="M184.9,152c6.1,3.5,11,12.1,11,19.1c0,7-5,9.8-11.1,6.3c-6.1-3.5-11-12.1-11-19.1
						C173.8,151.3,178.8,148.5,184.9,152z"/>
				</g>
			</g>
		</g>
		<g>
			<g enable-background="new    ">
				<path fill="#7D583D" d="M191.8,162.9c-0.9-2-2.1-3.9-3.5-5.6c-1.2-1.4-2.6-2.5-4-3.4c-2.5-1.5-4.9-1.6-6.5-0.6l-5.9,4
					c1.7-1,1.3,0.4,3.8,1.9c1.4,0.8,2.8,2,4,3.4c1.4,1.6,2.7,3.6,3.5,5.6c1,2.3,1.6,4.7,1.6,6.9c0,2.9-1,4.9-2.7,5.9l8.6-5.2
					c1.6-1,2.7-3,2.7-5.9C193.4,167.5,192.8,165.1,191.8,162.9z"/>
				<g>
					<path fill="#5D4524" d="M175.7,159.1c5.1,2.9,9.1,10,9.1,15.8c0,5.8-4.1,8.2-9.2,5.2c-5.1-2.9-6.4-11.2-6.4-17
						C169.2,157.3,170.6,156.2,175.7,159.1z"/>
				</g>
			</g>
		</g>
		<g>
			<g enable-background="new    ">
				<path fill="#906944" d="M187.6,166.6c-1-2.3-2.4-4.5-4-6.4c-1.4-1.6-2.9-2.9-4.6-3.8c-2.9-1.7-5.5-1.8-7.4-0.7l-16.5,9.6
					c1.9-1.1,4.5-0.9,7.4,0.7c1.6,0.9,3.2,2.3,4.6,3.8c1.6,1.9,3,4.1,4,6.4c1.1,2.6,1.8,5.3,1.8,7.8c0,3.3-1.2,5.6-3,6.7l16.5-9.6
					c1.9-1.1,3-3.4,3-6.7C189.4,171.9,188.7,169.2,187.6,166.6z"/>
				<g>
					<path fill="#5D4524" d="M162.5,166c5.8,3.3,10.4,11.4,10.4,18c0,6.6-4.7,9.3-10.5,6c-5.8-3.3-10.4-11.4-10.4-18
						C152,165.3,156.7,162.7,162.5,166z"/>
				</g>
			</g>
		</g>
		<g>
			<g enable-background="new    ">
				<path fill="#75573B" d="M168.5,177.3c-0.9-2-2.1-3.9-3.5-5.6c-1.2-1.4-2.6-2.5-4-3.4c-2.5-1.5-4.9-1.6-6.5-0.6l-8.6,5.2
					c1.7-1,4-0.8,6.5,0.6c1.4,0.8,2.8,2,4,3.4c1.4,1.6,2.7,3.6,3.5,5.6c1,2.3,1.6,4.7,1.6,6.9c0,2.9-1,4.9-2.7,5.9l8.6-5.2
					c1.6-1,2.7-3,2.7-5.9C170.1,182,169.5,179.6,168.5,177.3z"/>
				<g>
					<path fill="#5D4524" d="M152.4,173.6c5.1,2.9,9.1,10,9.1,15.8c0,5.8-4.1,8.2-9.2,5.2c-5.1-2.9-9.1-10-9.1-15.8
						C143.2,173,147.3,170.6,152.4,173.6z"/>
				</g>
			</g>
		</g>
		<g>
			<g enable-background="new    ">
				<path fill="#906944" d="M163.3,180.7c-1.1-2.4-2.5-4.8-4.3-6.7c-1.5-1.7-3.1-3.1-4.8-4.1c-3.1-1.8-6.4-1.2-8.5-0.3
					c-4.4,1.7-7.6,4.8-7.6,4.8c2-1.2,5.5-1.4,8.6,0.4c1.7,1,3.4,2.4,4.8,4.1c1.7,2,3.2,4.3,4.3,6.7c1.2,2.7,1.9,5.6,1.9,8.3
					c0,3.5-1.2,5.9-3.2,7.1c0,0,3.9-0.2,7.7-4.1c1.6-1.6,3.1-4.3,3.1-7.8C165.2,186.4,164.5,183.5,163.3,180.7z"/>
				<g>
					<path fill="#5D4524" d="M146.6,174.8c6.1,3.5,11,12.1,11,19.1c0,7-5,9.8-11.1,6.3c-6.1-3.5-11-12.1-11-19.1
						C135.6,174.1,140.5,171.3,146.6,174.8z"/>
				</g>
			</g>
		</g>
		<path opacity="0.3" fill="#FFFFFF" d="M183.6,160.3c-0.9-1.1-2-2-3-2.8l-15.9,10.1c0.8,0.7,1.7,1.5,2.4,2.3
			c0.8,0.9,1.5,1.9,2.2,2.9l16.1-10.2C184.8,161.8,184.2,161,183.6,160.3z"/>
		<path opacity="0.3" fill="#FFFFFF" d="M192.8,147.4l-7.8,4.7c1.6,1,3.2,2.3,4.6,3.8l7.7-4.7C195.9,149.7,194.4,148.4,192.8,147.4z
			"/>
		<path opacity="0.3" fill="#FFFFFF" d="M159.1,174c-1.2-1.3-2.5-2.5-3.9-3.4l-7.8,4.7c1.4,0.9,2.8,2.2,4,3.6
			c0.1,0.1,0.2,0.2,0.3,0.4l7.7-4.7C159.4,174.4,159.2,174.2,159.1,174z"/>
	</g>
	<g>
		<g enable-background="new    ">
			<g enable-background="new    ">
				<path fill="#A47C4C" d="M183.3,174.3c-0.5-0.4-1.3-0.5-2.3-0.1c-0.1,0-0.3,0.1-0.4,0.2c0,0-0.1,0-0.1,0.1
					c-0.1,0-0.2,0.1-0.2,0.1c0,0-0.1,0.1-0.1,0.1c-0.1,0-0.1,0.1-0.2,0.1c-0.1,0-0.1,0.1-0.2,0.1c-0.1,0.1-0.1,0.1-0.2,0.2
					c0,0-0.1,0-0.1,0.1c-1.2,1-2.2,2.6-2.4,4c-0.1,1,0.1,1.7,0.6,2.1c2.8,2.2,54,43.3,56.8,45.6c-0.5-0.4-0.8-1.2-0.6-2.1
					c0.2-1.4,1.2-3,2.5-4c0.1-0.1,0.1-0.1,0.2-0.2c0,0,0.1-0.1,0.1-0.1c0.1-0.1,0.1-0.1,0.2-0.2c0,0,0.1-0.1,0.1-0.1
					c0.1,0,0.2-0.1,0.2-0.1c0,0,0.1,0,0.1-0.1c0.1-0.1,0.2-0.1,0.4-0.2c0.9-0.4,1.7-0.3,2.3,0.1L183.3,174.3z"/>
				<path fill="#D1BA98" d="M236.3,220.7l-56.8-45.6c-0.6,0.5-1.1,1.1-1.5,1.7l56.8,45.6C235.2,221.8,235.7,221.2,236.3,220.7
					L236.3,220.7z"/>
				<path fill="#755139" d="M234.8,222.4L178,176.9c-0.5,0.7-0.8,1.5-0.9,2.3c-0.1,1,0.1,1.7,0.6,2.1l56.8,45.6
					c-0.5-0.4-0.8-1.2-0.6-2.1C234,223.9,234.4,223.2,234.8,222.4L234.8,222.4z"/>
			</g>
			<g>
				<path fill="#5D4524" d="M237.9,219.8c-1.9,0.7-3.6,2.9-3.9,4.9c-0.3,2,1,3,2.9,2.3c1.9-0.7,3.6-2.9,3.9-4.9
					C241,220.1,239.7,219,237.9,219.8z"/>
			</g>
		</g>
	</g>
	<g>
		<g enable-background="new    ">
			<g enable-background="new    ">
				<path fill="#A47C4C" d="M229.7,209.3c-0.8-0.5-1.8-0.7-3.2-0.2c-0.2,0.1-0.4,0.1-0.5,0.2c-0.1,0-0.1,0.1-0.2,0.1
					c-0.1,0.1-0.2,0.1-0.3,0.2c-0.1,0-0.1,0.1-0.2,0.1c-0.1,0.1-0.2,0.1-0.3,0.2c-0.1,0.1-0.1,0.1-0.2,0.2c-0.1,0.1-0.2,0.1-0.3,0.2
					c0,0-0.1,0.1-0.1,0.1c-0.6,0.5-1.2,1.2-1.7,1.8c0,0-0.1,0.1-0.1,0.1c-0.1,0.1-0.2,0.3-0.3,0.4c-0.6,1-1.1,2.1-1.2,3.2
					c-0.2,1.4,0.1,2.4,0.8,3c3.9,3.1,37.3,28.6,41.2,31.8c-0.7-0.6-1.1-1.6-0.8-3c0.3-2,1.7-4.2,3.4-5.6c0.1-0.1,0.2-0.2,0.3-0.2
					c0.1,0,0.1-0.1,0.2-0.1c0.1-0.1,0.2-0.1,0.3-0.2c0.1,0,0.1-0.1,0.2-0.1c0.1-0.1,0.2-0.1,0.3-0.2c0.1,0,0.1-0.1,0.2-0.1
					c0.2-0.1,0.3-0.2,0.5-0.2c1.3-0.5,2.4-0.4,3.2,0.2C245.2,218.2,232.8,211.1,229.7,209.3z"/>
				<path fill="#755139" d="M263.6,244.6l-41.2-31.8c-0.6,1-1.1,2.1-1.2,3.2c-0.2,1.4,0.2,2.3,0.8,3c12.8,14,41.2,31.8,41.2,31.8
					c-0.7-0.6-1.1-1.6-0.8-3C262.5,246.7,262.9,245.6,263.6,244.6L263.6,244.6z"/>
			</g>
			<g>
				<path fill="#5D4524" d="M267.8,240.9c-2.6,1-5.1,4.1-5.5,6.9c-0.4,2.8,1.4,4.2,4,3.2c2.6-1,5.1-4.1,5.5-6.9
					C272.2,241.3,270.4,239.9,267.8,240.9z"/>
			</g>
		</g>
	</g>
</g>
</svg>
