<?xml version="1.0" encoding="utf-8"?>
<!-- Generator: Adobe Illustrator 22.1.0, SVG Export Plug-In . SVG Version: 6.00 Build 0)  -->
<svg version="1.1" id="Layer_1" xmlns="http://www.w3.org/2000/svg" xmlns:xlink="http://www.w3.org/1999/xlink" x="0px" y="0px"
	 viewBox="0 0 274 257" style="enable-background:new 0 0 274 257;" xml:space="preserve">
<style type="text/css">
	.st0{clip-path:url(#SVGID_2_);fill-rule:evenodd;clip-rule:evenodd;fill:#4CC997;}
	.st1{clip-path:url(#SVGID_2_);fill-rule:evenodd;clip-rule:evenodd;fill:#C0DCF0;}
	.st2{clip-path:url(#SVGID_2_);fill-rule:evenodd;clip-rule:evenodd;fill:#E3F4FF;}
	.st3{opacity:0.5;clip-path:url(#SVGID_2_);fill-rule:evenodd;clip-rule:evenodd;fill:#FFFFFF;}
	.st4{opacity:0.5;clip-path:url(#SVGID_2_);fill-rule:evenodd;clip-rule:evenodd;fill:#A8A8A8;}
	.st5{clip-path:url(#SVGID_4_);fill-rule:evenodd;clip-rule:evenodd;fill:#3B87EB;}
	.st6{clip-path:url(#SVGID_4_);fill-rule:evenodd;clip-rule:evenodd;fill:#C0DCF0;}
	.st7{clip-path:url(#SVGID_4_);fill-rule:evenodd;clip-rule:evenodd;fill:#F0F9FF;}
	.st8{opacity:0.5;clip-path:url(#SVGID_4_);fill-rule:evenodd;clip-rule:evenodd;fill:#FFFFFF;}
	.st9{opacity:0.5;clip-path:url(#SVGID_4_);fill-rule:evenodd;clip-rule:evenodd;fill:#A8A8A8;}
	.st10{clip-path:url(#SVGID_6_);fill-rule:evenodd;clip-rule:evenodd;fill:#DE477A;}
	.st11{clip-path:url(#SVGID_6_);fill-rule:evenodd;clip-rule:evenodd;fill:#C0DCF0;}
	.st12{clip-path:url(#SVGID_6_);fill-rule:evenodd;clip-rule:evenodd;fill:#F0F9FF;}
	.st13{opacity:0.5;clip-path:url(#SVGID_6_);fill-rule:evenodd;clip-rule:evenodd;fill:#FFFFFF;}
	.st14{opacity:0.5;clip-path:url(#SVGID_6_);fill-rule:evenodd;clip-rule:evenodd;fill:#A8A8A8;}
	.st15{opacity:0.2;fill:#3D3D3D;}
	.st16{fill:#624834;}
	.st17{fill:#57402E;}
	.st18{fill:#4A3626;}
	.st19{fill:#4F3B29;}
	.st20{fill:#6B5337;}
	.st21{fill:#473725;}
	.st22{fill:#755B3C;}
	.st23{fill:#654F33;}
	.st24{fill:#D9B71C;}
	.st25{fill:#705839;}
	.st26{fill:#5E4A30;}
	.st27{fill:#4F3D28;}
	.st28{fill:#4E3F28;}
	.st29{opacity:0.2;}
	.st30{fill:#333333;}
	.st31{fill:#5B482F;}
	.st32{fill:#82673F;}
	.st33{fill:#705937;}
	.st34{fill:#57442C;}
	.st35{fill:#5E4931;}
	.st36{fill:#FFFFFF;}
	.st37{fill:#785F3B;}
	.st38{fill:#634C33;}
	.st39{fill:#6C5437;}
	.st40{fill:#614B32;}
	.st41{fill:#424242;}
</style>
<g>
	<g>
		<defs>
			<rect id="SVGID_1_" x="99.2" y="23" transform="matrix(0.5 -0.866 0.866 0.5 18.8445 196.6599)" width="161" height="118.1"/>
		</defs>
		<clipPath id="SVGID_2_">
			<use xlink:href="#SVGID_1_"  style="overflow:visible;"/>
		</clipPath>
		<polygon class="st0" points="136.1,39.5 201.4,1.7 201.4,112.1 136.1,149.8 		"/>
		<polygon class="st1" points="138.5,40.8 203.9,3.1 203.9,113.4 138.5,151.2 		"/>
		<polygon class="st2" points="140.9,42.2 206.4,4.5 206.4,114.8 140.9,152.6 		"/>
		<polygon class="st1" points="143.4,43.6 208.8,5.8 208.8,116.2 143.4,154 		"/>
		<polygon class="st2" points="145.8,45 211.2,7.3 211.2,117.6 145.8,155.4 		"/>
		<polygon class="st1" points="148.3,46.5 213.6,8.8 213.6,119.1 148.3,156.8 		"/>
		<polygon class="st2" points="150.7,47.9 216,10.2 216,120.5 150.7,158.2 		"/>
		<polygon class="st1" points="153.1,49.3 218.4,11.5 218.4,121.9 153.1,159.6 		"/>
		<polygon class="st2" points="155.5,50.7 220.9,12.9 220.9,123.3 155.5,161 		"/>
		<polygon class="st0" points="158,162.4 223.3,124.7 223.3,14.4 158,52.1 136.1,39.5 136.1,149.8 		"/>
		<polygon class="st3" points="142.9,55.1 147,57.5 151.2,59.9 151.2,88.6 151.2,117.3 147,114.9 142.9,112.5 142.9,83.8 		"/>
		<path class="st4" d="M147,128.7c3.2,1.8,5.7,6.6,5.7,10.7c0,4.1-2.6,5.9-5.7,4.1c-3.2-1.8-5.7-6.6-5.7-10.7
			C141.3,128.7,143.9,126.9,147,128.7L147,128.7z"/>
		<polygon class="st4" points="136.1,39.5 158,52.1 158,162.4 136.1,149.8 		"/>
		<path class="st4" d="M147,130.3c2.5,1.4,4.5,5.2,4.5,8.4c0,3.2-2,4.6-4.5,3.2c-2.5-1.4-4.5-5.2-4.5-8.4
			C142.6,130.3,144.6,128.8,147,130.3L147,130.3z"/>
	</g>
	<g>
		<defs>
			<rect id="SVGID_3_" x="123.9" y="37.2" transform="matrix(0.5 -0.866 0.866 0.5 18.8445 225.0881)" width="161" height="118.1"/>
		</defs>
		<clipPath id="SVGID_4_">
			<use xlink:href="#SVGID_3_"  style="overflow:visible;"/>
		</clipPath>
		<polygon class="st5" points="160.7,53.7 226,16 226,126.3 160.7,164 		"/>
		<polygon class="st6" points="163.1,55.1 228.5,17.3 228.5,127.6 163.1,165.4 		"/>
		<polygon class="st7" points="165.6,56.5 231,18.7 231,129 165.6,166.8 		"/>
		<polygon class="st6" points="168,57.9 233.4,20.1 233.4,130.4 168,168.2 		"/>
		<polygon class="st7" points="170.4,59.3 235.9,21.5 235.9,131.8 170.4,169.6 		"/>
		<polygon class="st6" points="172.9,60.7 238.2,23 238.2,133.3 172.9,171 		"/>
		<polygon class="st7" points="175.3,62.1 240.6,24.4 240.6,134.7 175.3,172.4 		"/>
		<polygon class="st6" points="177.7,63.5 243.1,25.8 243.1,136.1 177.7,173.8 		"/>
		<polygon class="st7" points="180.2,64.9 245.5,27.2 245.5,137.5 180.2,175.2 		"/>
		<polygon class="st5" points="182.6,176.6 247.9,138.9 247.9,28.6 182.6,66.3 160.7,53.7 160.7,164 		"/>
		<polygon class="st8" points="167.5,69.4 171.7,71.7 175.8,74.1 175.8,102.8 175.8,131.5 171.7,129.1 167.5,126.7 167.5,98.1 		"/>
		<polygon class="st9" points="160.7,53.7 182.6,66.3 182.6,176.6 160.7,164 		"/>
		<path class="st9" d="M171.7,142.9c3.2,1.8,5.7,6.6,5.7,10.7c0,4.1-2.6,5.9-5.7,4.1c-3.2-1.8-5.7-6.6-5.7-10.7
			C166,142.9,168.5,141.1,171.7,142.9L171.7,142.9z"/>
		<path class="st9" d="M171.7,144.5c2.5,1.4,4.5,5.2,4.5,8.4c0,3.2-2,4.6-4.5,3.2c-2.5-1.4-4.5-5.2-4.5-8.4
			C167.2,144.5,169.2,143.1,171.7,144.5L171.7,144.5z"/>
	</g>
	<g>
		<defs>
			<rect id="SVGID_5_" x="148.5" y="51.4" transform="matrix(0.5 -0.866 0.866 0.5 18.8444 253.5167)" width="161" height="118.1"/>
		</defs>
		<clipPath id="SVGID_6_">
			<use xlink:href="#SVGID_5_"  style="overflow:visible;"/>
		</clipPath>
		<polygon class="st10" points="185.4,67.9 250.7,30.2 250.7,140.5 185.4,178.2 		"/>
		<polygon class="st11" points="187.8,69.3 253.2,31.5 253.2,141.8 187.8,179.6 		"/>
		<polygon class="st12" points="190.2,70.7 255.6,32.9 255.6,143.2 190.2,181 		"/>
		<polygon class="st11" points="192.6,72.1 258.1,34.3 258.1,144.6 192.6,182.4 		"/>
		<polygon class="st12" points="195,73.5 260.5,35.7 260.5,146 195,183.8 		"/>
		<polygon class="st11" points="197.5,74.9 262.8,37.2 262.8,147.5 197.5,185.2 		"/>
		<polygon class="st12" points="199.9,76.3 265.2,38.6 265.2,148.9 199.9,186.6 		"/>
		<polygon class="st11" points="202.3,77.7 267.7,40 267.7,150.3 202.3,188 		"/>
		<polygon class="st12" points="204.8,79.1 270.1,41.4 270.1,151.7 204.8,189.4 		"/>
		<polygon class="st10" points="207.2,190.8 272.5,153.1 272.5,42.8 207.2,80.5 185.4,67.9 185.4,178.2 		"/>
		<polygon class="st13" points="192.2,83.6 196.3,85.9 200.4,88.3 200.4,117 200.4,145.7 196.3,143.3 192.2,141 192.2,112.3 		"/>
		<path class="st14" d="M196.3,157.1c3.2,1.8,5.7,6.6,5.7,10.7c0,4.1-2.6,5.9-5.7,4.1c-3.2-1.8-5.7-6.6-5.7-10.7
			S193.1,155.3,196.3,157.1L196.3,157.1z"/>
		<polygon class="st14" points="185.4,67.9 207.2,80.5 207.2,190.8 185.4,178.2 		"/>
		<path class="st14" d="M196.3,158.7c2.5,1.4,4.5,5.2,4.5,8.4c0,3.2-2,4.6-4.5,3.2c-2.5-1.4-4.5-5.2-4.5-8.4
			S193.8,157.3,196.3,158.7L196.3,158.7z"/>
	</g>
</g>
<g>
	<path class="st15" d="M182.4,245.9c-5-2.6-11.6-6.1-18.6-9.8c-16-8.5-35.8-19-47.4-25c-0.3-0.1-0.4-0.3-0.5-0.6
		c0-0.2,0.1-0.4,0.4-0.6c0.9-0.5,0.9-1.3,0-1.8l-2.1-1.2c-0.9-0.5-2.3-0.5-3.2,0l-0.3,0.2c-0.3,0.2-0.6,0.2-1,0.2
		c-0.4,0-0.7-0.1-1-0.3c-1.4-0.9-3.8-2.6-6.6-4.4c18.2-13.1,16.6-32.2-4.5-44.1c-22.4-12.6-58.2-12.2-80,0.8
		c-21.8,13-21.3,33.8,1.1,46.3c20.6,11.6,52.7,12.2,74.6,2c3.2,1.6,6,3.1,7.6,3.8c0.3,0.1,0.4,0.3,0.5,0.6c0,0.2-0.1,0.4-0.4,0.6
		l-0.3,0.2c-0.9,0.5-0.9,1.3,0,1.8l2.1,1.2c0.9,0.5,2.3,0.5,3.2,0c0.3-0.2,0.6-0.2,1-0.2c0.4,0,0.7,0.1,1,0.3
		c10.3,6.7,28.5,18.3,43,27.5c6.4,4.1,12.4,7.9,16.9,10.8c1.3,0.8,3.1,1.3,5,1.3c1.9,0,3.7-0.4,5.1-1.2l4.6-2.6
		c1.4-0.8,2.1-1.8,2.1-3C184.6,247.7,183.8,246.7,182.4,245.9z"/>
	<g>
		<path class="st16" d="M4.7,164.6c0.1-0.8,0.3-1.9,0.5-2.6c0.1-0.5,0.3-1.2,0.5-1.7c0.3-0.9,0.8-2,1.2-2.9c0.5-1.1,1.3-2.4,2-3.4
			c0.3-0.5,0.9-1.2,1.2-1.7c0.8-1.1,2.1-2.4,3.1-3.4c0.8-0.8,1.9-1.8,2.8-2.4c0.7-0.5,1.6-1.2,2.3-1.7c0.9-0.6,2.1-1.4,3.1-1.9
			c0.9-0.5,2-1.1,2.9-1.6c1-0.5,2.4-1.1,3.4-1.6c3.7-1.6,6.9-2.5,6.9-2.5c2.2-0.6,5.1-1.4,7.3-1.8c2.6-0.5,5.1-0.9,7.8-1.1
			c2.6-0.3,5.3-0.4,7.9-0.4c4,0,7.1,0.2,8,0.3c1.5,0.1,4.4,0.4,7.9,1c1,0.2,4.1,0.7,7.7,1.8c2.1,0.6,4.9,1.5,6.9,2.3
			c1.1,0.5,2.6,1.1,3.7,1.6c0.9,0.4,2.1,1.1,3,1.6l0,0c1.1,0.6,2.5,1.5,3.5,2.2c1.1,0.7,2.5,1.8,3.5,2.6c1.1,1,2.6,2.4,3.6,3.5
			c0.8,0.9,1.8,2.1,2.4,3.1c0.9,1.3,1.7,2.8,2.1,3.6c0.5,1,1,2.4,1.3,3.4c0.2,0.8,0.5,1.8,0.6,2.6c0.1,1,0.2,2.4,0.3,3.4
			c0,7.8-5,15.7-15.2,21.7c-20.7,12.4-54.6,12.7-75.9,0.8C10,183.4,4.6,175.3,4.6,167.2C4.6,166.4,4.6,165.4,4.7,164.6z"/>
		<g>
			
				<ellipse transform="matrix(1 -2.835223e-03 2.835223e-03 1 -0.4622 0.1658)" class="st17" cx="58.2" cy="163.1" rx="48.8" ry="28.3"/>
		</g>
		<g>
			
				<ellipse transform="matrix(1 -2.834891e-03 2.834891e-03 1 -0.4392 0.1656)" class="st17" cx="58.2" cy="155" rx="35.2" ry="20.4"/>
		</g>
		<path class="st16" d="M98.3,158.9c0-0.8-0.1-1.9-0.2-2.7c-0.1-0.6-0.3-1.5-0.5-2.1c-0.3-0.8-0.6-1.9-1-2.7c-0.5-1.1-1-2-1.6-2.8
			c-0.5-0.7-1.3-1.7-1.9-2.4c-0.8-0.8-1.9-1.9-2.7-2.6c-0.7-0.7-1.8-1.4-2.6-2c-0.8-0.5-1.8-1.2-2.6-1.6c-0.6-0.3-1.5-0.3-2.4,0.3
			c14,7.8,14.3,20.7,0.7,28.9c-13.6,8.1-35.9,8.3-49.8,0.5c-14-7.8-14.3-20.7-0.7-28.9c13.6-8.1,35.9-8.3,49.8-0.5
			c0.9-0.6,1.8-0.6,2.4-0.3l0,0c-0.7-0.3-1.5-0.8-2.2-1.2c-0.8-0.4-1.9-0.9-2.8-1.2c-1.5-0.6-3.5-1.3-5.1-1.7
			c-1.8-0.5-3.7-0.9-5.7-1.3c-2.6-0.5-4.6-0.6-5.8-0.7c-0.4,0-2.8-0.2-5.9-0.2c-1.7,0-4.1,0.1-5.8,0.3c-2,0.2-3.8,0.5-5.7,0.8
			c-1.6,0.3-3.8,0.9-5.4,1.3c0,0-2.4,0.7-5.1,1.8c-0.8,0.3-1.8,0.8-2.5,1.2c-0.7,0.3-1.5,0.8-2.2,1.2c-0.7,0.4-1.6,1-2.3,1.5
			c-0.5,0.4-1.2,0.9-1.7,1.3c-0.7,0.5-1.5,1.2-2.1,1.8c-0.7,0.8-1.7,1.8-2.4,2.6c-0.3,0.4-0.7,0.9-0.9,1.3c-0.5,0.8-1.1,1.8-1.5,2.6
			c-0.3,0.7-0.7,1.5-0.9,2.2c-0.1,0.4-0.3,0.9-0.4,1.3c-0.1,0.6-0.3,1.4-0.4,2.1c-0.1,0.6-0.1,1.4-0.1,2c0,6,4.1,12.1,12.1,16.6
			c15.9,8.9,41.2,8.6,56.7-0.6C94.5,170.6,98.3,164.7,98.3,158.9z"/>
		<path class="st18" d="M98.3,163l0-4.1c0,5.8-3.8,11.7-11.3,16.2c-15.4,9.2-40.8,9.5-56.7,0.6c-8.1-4.5-12.1-10.5-12.1-16.6l0,4.1
			c0,6,4.1,12.1,12.1,16.6c15.9,8.9,41.2,8.6,56.7-0.6C94.6,174.7,98.3,168.8,98.3,163z"/>
		<path class="st19" d="M111.9,178.4l0-11.5c0,7.8-5,15.7-15.2,21.7c-20.7,12.4-54.6,12.7-75.9,0.8C10,183.4,4.6,175.3,4.6,167.2
			l0,11.5c0,8.1,5.5,16.2,16.3,22.2c21.3,11.9,55.2,11.6,75.9-0.8C106.9,194.1,112,186.2,111.9,178.4z"/>
	</g>
	<path class="st15" d="M97.5,188.4c0-2.2-1.6-4.8-3.6-5.9c0,0,0,0,0,0c-1.4-0.8-4.2-2.3-5.6-3c-0.4-0.2-0.8-0.8-0.8-1.3
		c0-0.8,0-2.5,0-3.3c0-2.2-1.6-4.8-3.6-5.9c-0.1,0-0.1-0.1-0.2-0.1c-1-1-3-2.9-5.1-4.9c10.5-6.4,10.3-16.5-0.6-22.8
		c-11-6.4-28.8-6.4-39.8,0c-11,6.4-10.9,16.7,0.1,23.1c9,5.2,22.4,6.1,33,2.9c2.2,2,4.2,3.8,5.5,5c0,0,0.1,0.1,0.1,0.1
		c1.4,1.3,2.6,4.1,2.6,6.3c0,0.8,0,2.5,0,3.3c0,0.5,0.3,1.1,0.6,1.4c1,0.9,3.1,2.8,4.1,3.7c0,0,0,0,0,0c1.4,1.3,2.6,4.1,2.6,6.3
		c0,1.3,0,11.3,0,11.5c3.4-1.3,6.6-2.8,9.6-4.6c0.3-0.2,0.6-0.3,0.8-0.5C97.5,199.7,97.5,189.7,97.5,188.4z"/>
	<g>
		<g>
			<g>
				<path class="st20" d="M41,129.6c-0.7,0.4-1.7,1-2.4,1.5c-0.4,0.3-0.8,0.6-1.2,0.9c-0.6,0.5-1.3,1.1-1.8,1.7
					c-0.4,0.4-0.9,1-1.2,1.4c-0.2,0.3-0.5,0.6-0.6,0.9c-0.3,0.4-0.6,0.9-0.8,1.3c-0.2,0.3-0.3,0.6-0.5,0.9c-0.2,0.4-0.4,0.9-0.5,1.2
					c-0.1,0.4-0.3,0.8-0.4,1.2c-0.2,0.5-0.3,1.3-0.4,1.8c-0.1,0.4-0.1,0.8-0.2,1.2c0,0.3-0.1,1.3,0,2.4c0.1,1.1,0.2,1.9,0.4,2.5
					c0.1,0.4,0.3,1,0.4,1.5c0.1,0.3,0.3,0.7,0.4,1c0.4,0.9,0.8,1.6,1.3,2.5c0.3,0.5,0.8,1.1,1.1,1.5c0.2,0.3,0.6,0.7,0.8,1
					c0.5,0.5,1.2,1.2,1.7,1.7c0.7,0.6,1.6,1.3,2.4,1.8c0.7,0.5,1.6,1,2.4,1.4c0.6,0.3,1.3,0.6,1.9,0.9c0.5,0.2,1.1,0.5,1.6,0.6
					c0.5,0.2,1.3,0.4,1.8,0.6c0.5,0.2,1.2,0.3,1.7,0.5c1.5,0.4,2.8,0.6,3.6,0.7c1.9,0.3,3.6,0.4,3.6,0.4c0.5,0,1.3,0.1,1.8,0.1
					c1.1,0,2.5-0.1,3.6-0.1c1.2-0.1,3-0.4,3.6-0.4c0,0,1.7-0.3,3.6-0.8c0.5-0.1,1.8-0.5,3.5-1.2c0.9-0.4,2.1-0.9,3-1.4
					c0.5-0.3,1.2-0.7,1.7-1c0.4-0.2,0.9-0.6,1.2-0.8c0.3-0.3,0.8-0.6,1.2-0.9c0.3-0.3,0.8-0.7,1.1-1c0.9-0.9,1.4-1.4,2.3-2.7
					c0.2-0.3,0.5-0.7,0.7-1c0.3-0.5,0.6-1.1,0.9-1.6c0.1-0.3,0.3-0.7,0.4-1c0.2-0.5,0.4-1.1,0.5-1.5c0.1-0.3,0.2-0.7,0.3-1.1
					c0.1-0.4,0.2-1,0.2-1.5c0-0.4,0.1-1,0.1-1.5c0-0.6,0-1.2-0.1-2.1c-0.1-0.6-0.2-1.3-0.4-1.9c-0.1-0.4-0.2-0.8-0.4-1.2
					c-0.1-0.4-0.3-0.8-0.5-1.2c-0.3-0.6-0.6-1.3-0.9-1.8c0,0-0.6-1.1-1.4-2.1c-0.7-0.9-1-1.1-2-2.1c-0.5-0.4-1.1-1-1.6-1.4
					c-0.7-0.5-1.6-1.1-2.3-1.6c-0.8-0.5-1.9-1-2.8-1.5c-0.6-0.3-1.4-0.6-2.1-0.9c-0.6-0.2-1.3-0.5-1.9-0.6c-0.5-0.1-1.2-0.3-1.7-0.5
					c-0.5-0.1-1.3-0.3-1.8-0.4c-1.1-0.2-2.5-0.4-3.5-0.5c-0.6-0.1-1.3-0.1-1.8-0.1c-0.5,0-1.3-0.1-1.8-0.1c-0.5,0-1.3,0-1.8,0
					c-2,0.1-3.6,0.3-3.6,0.3c-1.7,0.2-2.4,0.3-3.5,0.6c-0.5,0.1-1.2,0.3-1.7,0.4c-0.5,0.1-1.2,0.4-1.7,0.5c-0.5,0.2-1.1,0.4-1.6,0.6
					c-0.5,0.2-1.2,0.5-1.7,0.7C42.3,128.9,41.5,129.3,41,129.6c0.5-0.3,1-0.4,1.7-0.4c8.8-5,22.9-4.8,31.5,0.3
					c8.6,5.1,8.4,13.3-0.4,18.3s-22.9,4.8-31.5-0.3c-8.6-5.1-8.4-13.3,0.4-18.3C42,129.2,41.5,129.4,41,129.6z"/>
				<path class="st21" d="M73.7,147.8c-8.8,5-22.9,4.8-31.5-0.3c-8.6-5.1-8.4-13.3,0.4-18.3c8.8-5,22.9-4.8,31.5,0.3
					C82.8,134.7,82.6,142.9,73.7,147.8z M73.6,129.6c-8.3-4.9-21.9-5.1-30.4-0.3l0,0c-4.3,2.4-6.5,5.7-6.5,8.9
					c1.3-0.5,2.2-1.6,2.2-2.8c0,2.8,1.8,5.6,5.5,7.8c7.4,4.4,19.7,4.6,27.3,0.3c3.9-2.2,5.8-5.1,5.9-8c0,1.2,0.8,2.3,2.2,2.8
					C79.7,135.1,77.7,132,73.6,129.6z"/>
				<path class="st22" d="M39.6,117.2c-0.8,0.5-1.8,1.1-2.6,1.7c-0.4,0.3-1,0.8-1.4,1.1c-0.3,0.3-0.7,0.6-0.9,0.9
					c-0.4,0.4-0.8,0.9-1.2,1.4c-0.4,0.5-0.8,1.1-1.1,1.6c-0.1,0.3-0.3,0.6-0.4,0.8c-0.2,0.5-0.5,1.2-0.7,1.7
					c-0.1,0.3-0.2,0.7-0.2,0.9c-0.1,0.3-0.1,0.6-0.1,0.9c-0.3,2.1,0.2,3.7,0.4,4.5c0.1,0.5,0.4,1.2,0.8,2.1c0.1,0.2,0.3,0.6,0.4,0.8
					c0.2,0.3,0.5,0.8,0.8,1.1c0.2,0.2,0.4,0.6,0.6,0.8c0.4,0.4,0.9,0.9,1.3,1.3c0.6,0.5,1.4,1.2,2,1.7c0.5,0.4,1.2,0.9,1.8,1.2
					c0.8,0.5,2,1.1,2.9,1.5c0.6,0.3,1.5,0.6,2.1,0.9c0.6,0.2,1.4,0.5,2,0.7c0.5,0.2,1.3,0.4,1.8,0.5c1.4,0.4,2.8,0.6,3.9,0.8
					c1.9,0.3,3.4,0.4,4,0.4c1.9,0.1,3.5,0.1,4.1,0c0.6,0,1.4-0.1,2-0.1c0.6,0,1.4-0.1,2-0.2c0,0,1.8-0.2,3.9-0.7
					c0.6-0.1,1.3-0.3,1.9-0.5c0.6-0.2,1.3-0.4,1.9-0.6c0.5-0.2,1.2-0.4,1.7-0.6c0.5-0.2,1.2-0.5,1.8-0.8c0.6-0.3,1.3-0.6,1.9-1
					c0.7-0.4,1.7-1,2.4-1.5c0.3-0.2,0.8-0.6,1.1-0.8c0.5-0.4,1.2-1,1.6-1.5c0.2-0.2,0.5-0.5,0.7-0.8c0.3-0.4,0.7-0.9,1-1.3
					c0.2-0.3,0.5-0.8,0.7-1.2c0.2-0.4,0.5-1,0.7-1.5c0.1-0.3,0.2-0.7,0.3-1c0.1-0.3,0.2-0.7,0.2-1c0.1-0.4,0.1-1,0.1-1.5
					c0-0.3,0-0.8,0-1.1c0-0.3-0.1-0.8-0.2-1.2c-0.1-0.5-0.3-1.2-0.5-1.7c-0.1-0.4-0.4-1-0.6-1.3c-0.1-0.3-0.3-0.6-0.5-0.9
					c-0.3-0.5-0.7-1-1-1.5c-0.2-0.3-0.5-0.6-0.7-0.9c-0.5-0.6-1.2-1.2-1.8-1.7c-0.7-0.6-1.6-1.2-2.3-1.7c-0.6-0.4-1.5-0.9-2.2-1.3
					c-0.5-0.3-1.3-0.6-1.9-0.9c-1-0.4-2.4-0.9-3.4-1.3c-2.8-0.9-5.2-1.2-5.9-1.3c-0.6-0.1-1.4-0.2-2-0.2c-0.6,0-1.4-0.1-2-0.2
					c-0.6,0-1.4-0.1-2-0.1c-0.6,0-1.4,0-2,0c-0.6,0-1.4,0.1-2,0.1c-1.2,0.1-2.8,0.3-4,0.5c-0.6,0.1-1.4,0.3-1.9,0.4
					c-0.6,0.1-1.3,0.3-1.9,0.5c-0.6,0.1-1.3,0.4-1.9,0.6c-0.5,0.2-1.2,0.4-1.7,0.6c-0.5,0.2-1.2,0.5-1.8,0.8
					C40.9,116.5,40.2,116.9,39.6,117.2c0.3-0.2,0.7-0.1,1.1,0.1c9.9-5.6,25.8-5.4,35.4,0.4c9.6,5.8,9.4,15-0.5,20.5
					c-9.9,5.6-25.8,5.4-35.4-0.4c-9.6-5.8-9.4-15,0.5-20.5C40.3,117.1,39.9,117.1,39.6,117.2z"/>
				<path class="st23" d="M41,117.5c0,0-0.2-0.1-0.3-0.2c-9.9,5.6-10.1,14.8-0.5,20.5c9.6,5.8,25.5,5.9,35.4,0.4
					c9.9-5.6,10.1-14.8,0.5-20.5c-9.6-5.8-25.5-5.9-35.4-0.4C40.8,117.4,41,117.5,41,117.5c9.8-5.5,25.4-5.3,34.9,0.4
					c9.5,5.7,9.3,14.7-0.5,20.2c-9.8,5.5-25.4,5.3-34.9-0.4S31.3,123,41,117.5z"/>
				<path class="st24" d="M33.6,108.6l-0.1,19.1c0,3.6,2.3,7.2,7,10c9.5,5.7,25.1,5.8,34.9,0.4c5-2.8,7.5-6.5,7.5-10.2l0.1-19.1
					c0,3.7-2.5,7.4-7.5,10.2c-9.8,5.5-25.4,5.3-34.9-0.4C35.9,115.8,33.6,112.2,33.6,108.6z"/>
				<path class="st25" d="M39.7,94.4c-0.7,0.4-1.7,1-2.4,1.5c-0.3,0.2-0.8,0.6-1.1,0.8c-0.3,0.3-0.8,0.7-1.1,1
					c-0.4,0.4-0.9,1-1.3,1.4c-0.2,0.2-0.4,0.5-0.6,0.8c-0.2,0.3-0.6,0.8-0.8,1.2c-0.1,0.2-0.3,0.5-0.4,0.7c-0.1,0.3-0.3,0.7-0.5,1.1
					c-0.1,0.4-0.3,1-0.4,1.5c-0.1,0.3-0.1,0.7-0.2,1c-0.1,0.4-0.1,1-0.1,1.4c0,0.3,0,0.6,0,0.9c0.1,1.1,0.3,2,0.4,2.2
					c0.1,0.4,0.3,0.9,0.5,1.3c0.1,0.3,0.3,0.6,0.4,0.9c0.2,0.4,0.6,1,0.9,1.4c0.2,0.3,0.5,0.6,0.7,0.9c0.4,0.5,1,1.2,1.5,1.7
					c0.6,0.6,1.5,1.3,2.2,1.8c0.5,0.4,1.2,0.8,1.7,1.1c0.9,0.5,2.1,1.1,3,1.6c0.6,0.3,1.4,0.6,2,0.8c0.6,0.2,1.3,0.5,1.9,0.6
					c0.5,0.2,1.3,0.4,1.8,0.5c2.9,0.7,5.6,1,7.9,1.2c3.8,0.2,6.9-0.1,8.1-0.3c0.8-0.1,2.2-0.3,3.9-0.7c1.3-0.3,2.6-0.6,3.7-1
					c1.2-0.4,2.3-0.8,3.5-1.4c0.5-0.2,1.1-0.5,1.5-0.8c0.5-0.3,1.1-0.7,1.6-1c0.4-0.2,0.9-0.6,1.2-0.9c0.4-0.3,1-0.8,1.4-1.1
					c0.3-0.3,0.7-0.6,0.9-0.9c0.4-0.4,0.8-0.9,1.2-1.4c0.2-0.2,0.5-0.6,0.6-0.9c0.3-0.5,0.7-1.1,0.9-1.6c0.3-0.5,0.5-1.2,0.7-1.7
					c0.1-0.3,0.2-0.7,0.2-0.9c0.1-0.5,0.2-1.2,0.2-1.7c0-0.3,0-1.3-0.1-2c-0.1-0.4-0.1-0.8-0.2-1.2c-0.1-0.3-0.2-0.7-0.3-1
					c-0.2-0.5-0.4-1.1-0.6-1.5c-0.2-0.3-0.4-0.8-0.6-1.1c-0.2-0.4-0.6-0.8-0.8-1.2c-0.2-0.3-0.5-0.6-0.7-0.8c-0.4-0.4-0.9-1-1.3-1.3
					c-0.6-0.5-1.4-1.2-2.1-1.6c-1-0.7-1.6-1-2.8-1.7c-0.6-0.3-1.3-0.7-1.9-0.9c-1-0.4-2.3-0.9-3.4-1.2c-0.6-0.2-1.4-0.4-2.1-0.6
					c-0.6-0.1-1.4-0.3-2-0.4c-0.6-0.1-1.4-0.2-1.9-0.3c-0.6-0.1-1.4-0.2-2-0.2c-0.6,0-1.4-0.1-2-0.2c-0.6,0-1.4-0.1-2-0.1
					c-0.6,0-1.4,0-2,0c-0.6,0-1.4,0.1-2,0.1c-1.2,0.1-2.8,0.3-4,0.5c-0.6,0.1-1.4,0.3-1.9,0.4c-0.6,0.1-1.3,0.3-1.9,0.5
					c-0.6,0.1-1.3,0.4-1.9,0.6c-0.5,0.2-1.2,0.4-1.7,0.6c-0.5,0.2-1.2,0.5-1.8,0.8C41,93.7,40.2,94.1,39.7,94.4
					c0.2-0.1,0.4-0.1,0.7-0.1c10.2-5.7,26.5-5.6,36.4,0.4c9.9,5.9,9.7,15.4-0.5,21.1s-26.5,5.6-36.4-0.4s-9.7-15.4,0.5-21.1
					C40.1,94.2,39.9,94.3,39.7,94.4z"/>
				<path class="st26" d="M76.2,115.7c-10.2,5.7-26.5,5.6-36.4-0.4c-9.9-5.9-9.7-15.4,0.5-21.1c10.2-5.7,26.5-5.6,36.4,0.4
					C86.6,100.6,86.4,110,76.2,115.7z M72.4,113.9c-0.6,0.3-1.2,0.5-1.8,0.8C71.2,114.5,71.8,114.2,72.4,113.9z M69.7,115.1
					c-0.3,0.1-0.6,0.2-0.9,0.3C69.1,115.3,69.4,115.2,69.7,115.1z M68.3,115.5c-0.3,0.1-0.6,0.2-1,0.3
					C67.6,115.7,67.9,115.6,68.3,115.5z M65.8,116.1c-0.5,0.1-1,0.2-1.5,0.3C64.8,116.3,65.3,116.2,65.8,116.1z M63.2,116.6
					c-0.9,0.1-1.7,0.2-2.6,0.2C61.5,116.8,62.4,116.7,63.2,116.6z M55.9,116.8c0.5,0,1.1,0.1,1.6,0.1c0.9,0,1.8,0,2.6,0
					c-0.9,0-1.8,0-2.6,0C56.9,116.9,56.4,116.8,55.9,116.8c-4.9-0.3-9.7-1.6-13.4-3.8c-0.6-0.3-1.1-0.7-1.6-1c0.5,0.4,1,0.7,1.6,1
					C46.2,115.2,51,116.5,55.9,116.8z M77.4,99.7c-0.1-0.2-0.2-0.4-0.4-0.8c-0.1-0.2-0.3-0.5-0.5-0.8c-0.2-0.2-0.4-0.5-0.6-0.7
					c-0.2-0.2-0.5-0.5-0.8-0.7c-0.7-0.6-1.2-1-2.2-1.6c-0.4-0.2-0.9-0.5-1.3-0.7c-0.4-0.2-0.9-0.4-1.3-0.6c-0.8-0.3-1.8-0.7-2.5-0.9
					c-0.4-0.1-1-0.3-1.5-0.4c-0.4-0.1-1-0.2-1.5-0.3c-0.9-0.2-2.2-0.3-3.1-0.4c0,0-1.4-0.2-3.2-0.2c-3.1,0-5.8,0.3-7.9,0.8
					c-1.7,0.4-2.9,0.8-2.9,0.8c-0.5,0.2-1.1,0.4-1.6,0.6c-0.7,0.3-1.5,0.7-2.2,1l0,0c-0.5,0.3-1.1,0.7-1.5,1
					c-0.2,0.1-0.5,0.4-0.7,0.5c-0.3,0.2-0.7,0.6-0.9,0.8c-0.2,0.2-0.5,0.6-0.8,0.9c-0.1,0.2-0.3,0.4-0.4,0.6
					c-0.1,0.1-0.2,0.3-0.2,0.4c-0.1,0.1-0.2,0.3-0.2,0.5c0,0.1-0.1,0.2-0.1,0.3c0,0.1-0.1,0.3-0.1,0.4c0,0.1-0.1,0.3-0.1,0.4
					c0,0.2,0,0.4,0,0.5c0,2.8,1.8,5.6,5.5,7.8c7.4,4.4,19.7,4.6,27.3,0.3c3.9-2.2,5.8-5.1,5.9-8c0-0.2,0-0.4-0.1-0.7
					C77.5,100,77.4,99.7,77.4,99.7z M67.9,92.6C67.9,92.6,67.9,92.6,67.9,92.6C67.9,92.6,67.9,92.6,67.9,92.6z M40.4,111.6
					c-0.2-0.2-0.5-0.4-0.7-0.6C40,111.2,40.2,111.4,40.4,111.6z M36.8,107c0.1,0.2,0.2,0.4,0.3,0.6c0.1,0.2,0.2,0.4,0.3,0.6
					c-0.1-0.2-0.2-0.4-0.3-0.6C37,107.4,36.9,107.2,36.8,107c-0.1-0.2-0.2-0.4-0.2-0.6C36.7,106.6,36.8,106.8,36.8,107z M36.4,105.5
					c0,0.2,0.1,0.4,0.1,0.6C36.5,105.9,36.4,105.7,36.4,105.5c-0.1-0.5-0.1-1-0.1-1.5c0,0,0-0.1,0-0.1c0,0,0,0.1,0,0.1
					C36.2,104.5,36.3,105,36.4,105.5z M36.4,102.7c0,0.3-0.1,0.5-0.1,0.8C36.3,103.3,36.3,103,36.4,102.7z M80.3,104.2
					c0-0.6-0.1-1.2-0.2-1.8C80.3,103,80.4,103.6,80.3,104.2c0,0.5-0.1,1-0.2,1.6C80.3,105.2,80.3,104.7,80.3,104.2z M80.1,106
					c-0.1,0.4-0.2,0.8-0.4,1.2C79.9,106.8,80,106.4,80.1,106z M79.3,108c-0.1,0.1-0.2,0.3-0.2,0.4C79.1,108.3,79.2,108.2,79.3,108z"
					/>
				<path class="st27" d="M43.7,107.1c-0.8-0.5-1.3-0.9-2.1-1.5c-0.3-0.2-0.6-0.6-0.9-0.9c-0.2-0.2-0.4-0.4-0.5-0.6
					c-0.3-0.3-0.5-0.7-0.6-0.9c-0.1-0.2-0.2-0.4-0.3-0.7c-0.1-0.2-0.2-0.5-0.2-0.6c0-0.1,0-0.2-0.1-0.3c0-0.3,0-0.3,0-0.5
					c0,2.8,1.8,5.6,5.5,7.8c7.4,4.4,19.7,4.6,27.3,0.3c3.9-2.2,5.8-5.1,5.9-8c0,0.1,0,0.2,0,0.2c0,0.1,0,0.2,0,0.4
					c0,0.3-0.1,0.6-0.1,0.6c0,0.1-0.1,0.2-0.1,0.3c0,0.1-0.1,0.3-0.2,0.4c0,0.1-0.1,0.2-0.2,0.3c-0.1,0.1-0.2,0.3-0.3,0.4
					c-0.5,0.7-0.9,1.1-1.1,1.4c-0.2,0.2-0.6,0.5-0.8,0.7c-0.2,0.2-0.5,0.4-0.7,0.5c-0.2,0.2-0.5,0.4-0.7,0.5
					c-0.3,0.2-0.6,0.4-0.9,0.5c-0.3,0.2-0.7,0.4-1,0.5c-0.4,0.2-1,0.5-1.4,0.6c-0.7,0.3-1.5,0.6-2.8,0.9c-0.9,0.2-2,0.5-2.9,0.7
					c-3.6,0.6-7.5,0.7-11.2,0.2c-1.5-0.2-2.6-0.5-3-0.6c-1.1-0.3-1.1-0.3-2.8-0.8c-0.4-0.1-0.9-0.3-1.2-0.5
					c-0.4-0.2-0.9-0.4-1.3-0.6C44.6,107.6,44,107.4,43.7,107.1z"/>
				<path class="st25" d="M85.5,89.3c-0.1-0.6-0.3-1.5-0.4-2.1c-0.1-0.4-0.3-1-0.5-1.5c-0.2-0.5-0.4-1-0.7-1.5
					c-0.2-0.3-0.4-0.7-0.6-1c-0.3-0.5-0.7-1.1-1-1.5c-0.5-0.6-1.1-1.4-1.7-1.9c-0.5-0.5-1.2-1.2-1.8-1.6c-0.7-0.6-1.7-1.2-2.4-1.7
					c-0.5-0.3-1.2-0.7-1.8-1c-0.4-0.2-1-0.5-1.5-0.7c-0.6-0.3-1.4-0.6-2-0.8c-0.5-0.2-1.3-0.5-1.8-0.6c-0.5-0.1-1.2-0.3-1.7-0.5
					c-0.5-0.1-1.3-0.3-1.8-0.4c-1.1-0.2-2.5-0.4-3.5-0.5c-0.5-0.1-1.3-0.1-1.8-0.1c-0.5,0-1.3-0.1-1.8-0.1c-0.5,0-1.3,0-1.8,0
					c-2,0.1-3.5,0.3-3.6,0.3c-0.5,0.1-1.3,0.2-1.8,0.3c-0.5,0.1-1.2,0.2-1.7,0.3c-0.5,0.1-1.2,0.3-1.7,0.4c-0.5,0.1-1.2,0.4-1.7,0.5
					c-0.5,0.2-1.1,0.4-1.6,0.6c-0.5,0.2-1.2,0.5-1.7,0.7c-0.6,0.2-1.3,0.6-1.8,0.9c-0.8,0.5-1.8,1.1-2.5,1.6
					c-1.1,0.9-1.7,1.4-2.5,2.1c-0.5,0.5-1.1,1.2-1.5,1.7c-0.2,0.3-0.5,0.7-0.7,1c-0.3,0.5-0.7,1.1-1,1.6c-0.2,0.3-0.4,0.7-0.5,1
					c-0.2,0.4-0.4,1.1-0.6,1.5c-0.4,1.2-0.6,2.2-0.6,2.5c0,0.3-0.1,0.7-0.1,1.1c0,0.4-0.1,0.9-0.1,1.3c0,0.6,0.1,1.3,0.1,1.9
					c0,0.4,0.1,0.8,0.2,1.2c0.1,0.4,0.2,0.8,0.3,1.2c0.2,0.6,0.4,1.3,0.6,1.8c0.1,0.4,0.4,0.8,0.6,1.2c0.2,0.4,0.5,0.8,0.7,1.2
					c0.7,1.1,1.6,2.1,1.6,2.2c0.2,0.3,0.5,0.6,0.8,0.9c0.4,0.4,1,1,1.4,1.4c0.6,0.5,1.5,1.2,2.2,1.7c0.7,0.5,1.7,1.1,2.5,1.5
					c0.6,0.3,1.3,0.7,1.9,0.9c0.5,0.2,1.1,0.4,1.5,0.6c0.6,0.2,1.3,0.5,1.9,0.6c0.5,0.2,1.2,0.3,1.7,0.5c1.3,0.3,2.5,0.5,3.6,0.7
					c1.9,0.3,3.6,0.4,3.6,0.4c0.5,0,1.3,0.1,1.8,0.1c1.1,0,2.5-0.1,3.6-0.1c0.4,0,2.2-0.2,3.6-0.4c0.6-0.1,2-0.3,3.5-0.8
					c0.5-0.1,1.1-0.3,1.6-0.5c0.6-0.2,1.3-0.4,1.8-0.7c0.4-0.2,1-0.4,1.5-0.6c0.6-0.3,1.3-0.6,1.9-1c0.4-0.2,0.9-0.5,1.2-0.7
					c0.7-0.5,1.6-1.1,2.3-1.6c0.2-0.2,1.3-1.1,2.1-1.9c0.4-0.4,0.9-1,1.2-1.4c0.3-0.4,0.6-0.9,0.9-1.3c0.6-0.9,1.1-2,1.1-2.1
					c0.2-0.5,0.5-1.3,0.7-1.8c0.1-0.4,0.2-0.8,0.3-1.2c0.1-0.4,0.2-0.8,0.2-1.2c0.1-0.6,0.1-1.3,0.2-1.9
					C85.7,91.4,85.7,90.1,85.5,89.3z"/>
				<path class="st28" d="M47.5,88.1c5.8,3.5,15.4,3.6,21.4,0.2c6-3.4,6.1-8.9,0.3-12.4c-5.8-3.5-15.4-3.6-21.4-0.2l0,0
					C41.8,79,41.7,84.6,47.5,88.1z"/>
				<path class="st26" d="M72.6,92.7c-8.1,4.5-21,4.4-28.9-0.3c-7.9-4.7-7.7-12.2,0.4-16.7c8.1-4.5,21-4.4,28.9,0.3
					C80.9,80.7,80.7,88.2,72.6,92.7z M69.5,75.7c0.1,0.1,0.2,0.1,0.3,0.2C69.7,75.8,69.6,75.8,69.5,75.7z M69.2,75.9
					c-1.1-0.6-2.3-1.2-3.6-1.6c-0.8-0.2-1.5-0.4-1.7-0.4c-0.8-0.1-1.8-0.3-2.6-0.4c-0.4,0-0.9-0.1-1.3-0.1c-0.4,0-0.9,0-1.4,0
					c-0.4,0-1,0-1.4,0c-0.4,0-1,0-1.4,0.1c-0.8,0.1-1.8,0.2-2.6,0.3c-0.4,0.1-0.9,0.2-1.3,0.3c-0.2,0-0.4,0.1-0.7,0.2
					c-1.2,0.4-2.3,0.8-3.4,1.4l0,0c-6,3.4-6.1,8.9-0.3,12.4c5.8,3.5,15.4,3.6,21.4,0.2C74.9,84.9,75,79.4,69.2,75.9z"/>
			</g>
			<g class="st29">
				<g>
					<path class="st30" d="M68.6,150c-6.9,2.1-15.3,1.9-22-0.4c-1.6,2.8-2.6,6.3-2.6,9.1c0,2.2,0.6,3.7,1.7,4l1.5,0.5
						c2.2,0.6,2.3,0.6,3.5,0.9c2.4,0.4,2.4,0.4,3.6,0.5c2.4,0.2,2.4,0.2,3.6,0.2c2.4,0,2.4,0,3.6-0.1c2.4-0.2,2.4-0.2,3.6-0.4
						c2.3-0.5,2.3-0.5,3.5-0.8l0.8-0.2c1-0.3,1.6-1.7,1.6-4C70.9,156.4,70,152.8,68.6,150L68.6,150z"/>
				</g>
				<g>
					<path class="st30" d="M68.2,149.3c-6.7,2-14.7,1.9-21.2-0.4c-0.1,0.2-0.3,0.5-0.4,0.7c6.7,2.4,15.1,2.5,22,0.4
						C68.5,149.8,68.3,149.4,68.2,149.3L68.2,149.3z"/>
				</g>
				<g>
					<path class="st30" d="M67.2,145.3c-6,1.8-13.2,1.7-19-0.4c0,1.2-0.4,2.7-1.1,3.9c6.4,2.3,14.5,2.4,21.2,0.4
						C67.6,148,67.2,146.5,67.2,145.3L67.2,145.3z"/>
				</g>
				<g>
					<path class="st30" d="M69.9,140.7c-7.8,2.3-17.2,2.2-24.7-0.5c-0.7,0.6-1.2,2-1.2,3c0,0.6,0.2,0.9,0.4,1l1.6,0.5
						c2.4,0.7,2.5,0.7,3.8,0.9c2.6,0.4,2.6,0.4,4,0.6c2.7,0.2,2.7,0.2,4,0.2c2.7,0,2.7,0,4-0.1c2.6-0.3,2.7-0.3,4-0.5
						c2.5-0.5,2.6-0.5,3.9-0.9l0.8-0.2c0.2-0.1,0.4-0.4,0.4-1C71,142.7,70.5,141.3,69.9,140.7L69.9,140.7z"/>
				</g>
				<g>
					<path class="st30" d="M69.7,140.5c-7.6,2.3-16.9,2.1-24.3-0.5c0,0-0.1,0.1-0.2,0.2c7.5,2.7,16.9,2.8,24.7,0.5
						C69.8,140.6,69.7,140.5,69.7,140.5L69.7,140.5z"/>
				</g>
				<g>
					<path class="st30" d="M69.5,121.4c-7.7,2.3-17.1,2-24.5-0.7L45,139.8c7.4,2.8,16.8,3,24.5,0.7L69.5,121.4L69.5,121.4z"/>
				</g>
				<g>
					<path class="st30" d="M67.5,115.7c-6.4,1.7-14,1.5-20.2-0.6c-0.5,0.7-1.4,2.1-1.8,2.8c-0.5,0.7-0.8,1.8-0.8,2.6
						c0,0.6,0.2,0.9,0.4,1l1.1,0.3c2.4,0.7,2.5,0.7,3.8,0.9c2.6,0.4,2.6,0.4,4,0.6c2.7,0.2,2.7,0.2,4,0.2c2.7,0,2.7,0,4-0.1
						c2.7-0.3,2.7-0.3,4-0.5c1-0.2,2.3-0.5,3.3-0.7C70.6,121.6,68.9,118.5,67.5,115.7L67.5,115.7z"/>
				</g>
				<g>
					<path class="st30" d="M66.3,111.3c-5.6,1.5-12.3,1.3-17.7-0.5c0,1.4-0.6,3.2-1.4,4.4c6.2,2.1,13.7,2.3,20.2,0.6
						C66.8,114.5,66.3,112.7,66.3,111.3L66.3,111.3z"/>
				</g>
				<g>
					<path class="st30" d="M66.9,109.6c-0.8,0.2-1.8,0.4-2.6,0.6c-2.1,0.3-2.1,0.3-3.1,0.4c-2.1,0.1-2.1,0.1-3.2,0.1
						c-2.1-0.1-2.1-0.1-3.2-0.2c-2-0.2-2.1-0.3-3.1-0.5c-1.9-0.4-2-0.4-3-0.7l-0.8-0.3c0.4,0.1,0.7,0.8,0.7,1.7
						c5.4,1.8,12,2,17.7,0.5C66.4,110,66.7,109.7,66.9,109.6L66.9,109.6z"/>
				</g>
				<g>
					<path class="st30" d="M65.8,93.3c-5.3,1.4-11.5,1.2-16.5-0.5c-0.3,0.4-0.9,1.2-1.2,1.6c5.7,1.9,12.7,2.1,18.7,0.6
						C66.6,94.6,66.1,93.7,65.8,93.3L65.8,93.3z"/>
				</g>
				<g>
					<path class="st30" d="M65.3,91.7C60.4,93,54.7,92.9,50,91.3c-0.2,0.5-0.4,1.1-0.7,1.5c5.1,1.7,11.2,1.9,16.5,0.5
						C65.6,92.9,65.5,92.3,65.3,91.7L65.3,91.7z"/>
				</g>
				<g>
					<path class="st30" d="M64.6,90c-4.4,1.2-9.6,1-13.9-0.4c-0.4,0.4-0.5,1.1-0.8,1.7c4.7,1.6,10.4,1.7,15.3,0.5
						C65.1,91.1,64.9,90.4,64.6,90L64.6,90z"/>
				</g>
				<g>
					<path class="st30" d="M66.8,95c-6,1.6-13,1.4-18.7-0.6c-2,2.8-3.5,7.2-3.5,10.6c0,2.2,0.6,3.7,1.6,4l1,0.3
						c2.2,0.6,2.3,0.6,3.5,0.9c2.3,0.4,2.3,0.4,3.6,0.5c2.4,0.2,2.4,0.2,3.6,0.2c2.4,0,2.4,0,3.6-0.1c2.3-0.2,2.4-0.2,3.6-0.4
						c0.9-0.2,2.1-0.4,3.1-0.7C70.7,108.9,69.9,100.3,66.8,95L66.8,95z"/>
				</g>
			</g>
		</g>
		<g>
			<g>
				<path class="st31" d="M78.5,123.5l-1-0.6c-0.6-0.4-1.5-0.3-2.5,0.2c-2,1.1-3.7,3.9-3.7,6.2c0,1.2,0.4,2,1.1,2.4l1,0.6
					c-0.7-0.4-1.1-1.2-1.1-2.4c0-2.3,1.7-5.1,3.7-6.2C76.9,123.1,77.8,123.1,78.5,123.5z"/>
				<path class="st32" d="M71.6,132.2c0-0.2,0-0.6,0.1-1.2c0.1-0.7,0.2-1.2,0.2-1.2c0-0.2,0.1-0.4,0.2-0.6c0.1-0.2,0.1-0.4,0.2-0.6
					c0.1-0.2,0.2-0.4,0.2-0.6c0.1-0.2,0.2-0.4,0.3-0.6c0.1-0.2,0.2-0.4,0.3-0.6c0.6-1,1.1-1.9,1.8-2.6c0.2-0.2,0.5-0.6,0.9-0.9
					c0.5-0.5,1-0.8,1-0.8c0.1-0.1,0.3-0.2,0.5-0.3c0.2-0.1,0.4-0.3,0.6-0.4c0.6-0.3,0.8-0.4,1.3-0.6c0.2-0.1,0.5-0.1,0.8-0.2
					c0.1,0,0.3,0,0.4,0c0.2,0,0.4,0,0.6,0c0.1,0,0.3,0,0.4,0c0,0,0.4,0,0.9,0.2c0.1,0,0.3,0.1,0.5,0.2c0.1,0,0.2,0.1,0.3,0.2
					l0.3,0.2c0.1,0.1,0.3,0.2,0.4,0.3c0.1,0.1,0.3,0.3,0.5,0.5c0.1,0.2,0.3,0.4,0.4,0.5c0.1,0.2,0.3,0.4,0.3,0.6
					c0.2,0.4,0.4,0.8,0.5,1.4c0,0.2,0.1,0.4,0.1,0.6c0,0.3,0,0.7,0.1,1c0,0.8-0.1,1.5-0.3,2.4c0,0.2-0.2,0.6-0.4,1.2
					c-0.2,0.5-0.4,0.9-0.5,1.1c-0.2,0.3-0.6,1.2-1.3,2.2c-0.2,0.3-0.8,1.1-1.7,1.9c-0.7,0.6-1.3,1.1-1.9,1.4
					c-0.2,0.1-0.5,0.2-0.7,0.3c-0.1,0.1-0.3,0.1-0.4,0.2c-0.2,0.1-0.6,0.2-0.8,0.2c-0.2,0.1-0.6,0.1-0.8,0.1c-0.2,0-0.4,0-0.6,0
					c-0.1,0-0.3,0-0.4,0c-0.4-0.1-0.7-0.2-0.8-0.2c-0.1,0-0.3-0.1-0.4-0.2c-0.1,0-0.2-0.1-0.3-0.2l-0.3-0.2c-0.1,0-0.1-0.1-0.2-0.1
					c0,0,0,0,0,0c-0.1-0.1-0.2-0.1-0.2-0.2c-0.1-0.1-0.2-0.1-0.3-0.2c-0.2-0.1-0.4-0.4-0.5-0.5c-0.2-0.3-0.6-0.8-0.8-1.6
					c-0.1-0.2-0.2-0.6-0.3-1.1c0-0.2,0-0.5-0.1-0.7C71.6,132.5,71.6,132.3,71.6,132.2z M76.4,136.4c0.9,0.5,2.1,0.5,3.5-0.3
					c2.8-1.6,5.1-5.4,5.1-8.7c0-1.6-0.5-2.8-1.5-3.3c-0.9-0.5-2.1-0.5-3.5,0.3c-2.8,1.6-5.1,5.4-5.1,8.7
					C74.9,134.7,75.5,135.9,76.4,136.4z"/>
				<path class="st33" d="M80,124.4c1.4-0.8,2.6-0.8,3.5-0.3c0.9,0.5,1.5,1.7,1.5,3.3c0,3.2-2.3,7.1-5.1,8.7
					c-1.4,0.8-2.6,0.8-3.5,0.3c-0.9-0.5-1.5-1.7-1.5-3.3C74.9,129.8,77.2,126,80,124.4z M78.8,135.7c0.2,0,0.4,0,0.4,0
					c0.1,0,0.2,0,0.3-0.1c0.1,0,0.2-0.1,0.3-0.1c0.1-0.1,0.3-0.2,0.5-0.2c0.1,0,0.4-0.3,0.7-0.4c0.2-0.1,0.4-0.3,0.6-0.5
					c0.1-0.1,0.2-0.2,0.3-0.3c0.7-0.7,1.1-1.4,1.4-1.8c0.4-0.7,0.7-1.4,0.9-2.1c0.1-0.5,0.2-0.8,0.2-0.8c0-0.1,0.1-0.3,0.1-0.5
					c0-0.2,0-0.5,0.1-0.7c0-0.2,0-0.7-0.1-1.1c0-0.1-0.1-0.2-0.2-0.4c-0.1-0.1-0.2-0.2-0.2-0.2c-0.7-0.4-1.6-0.3-2.6,0.2
					c-2.1,1.2-3.8,4.1-3.8,6.5c0,1.2,0.4,2.1,1.1,2.5C78.6,135.6,78.7,135.7,78.8,135.7z"/>
				<path class="st34" d="M81.3,126.6c1-0.6,2-0.6,2.6-0.2c1,0.6,2,1.2,3,1.8l0,0l0,0l0,0c0,0,0,0,0,0c-0.2-0.1-0.5-0.1-0.7,0
					c-0.4,0.1-0.8,0.3-0.9,0.4c-0.3,0.2-0.8,0.5-1,0.7c-0.4,0.4-0.4,0.4-0.6,0.6c-0.2,0.2-0.2,0.2-0.6,0.7c-0.1,0.2-0.5,0.6-0.8,1.2
					c-0.2,0.3-0.4,0.7-0.6,1.3c-0.3,0.7-0.4,1.3-0.5,1.4c-0.1,0.2-0.1,0.5-0.1,0.7c0,0.3,0,0.5-0.1,0.8c0,0,0,0.6,0.1,1
					c0,0.1,0.1,0.3,0.2,0.4c0.1,0.1,0.1,0.2,0.2,0.2c0,0,0,0,0,0c-0.5-0.3-1-0.6-1.5-0.9c-0.5-0.3-1-0.6-1.5-0.9
					c-0.7-0.4-1.1-1.3-1.1-2.5C77.5,130.7,79.2,127.8,81.3,126.6z"/>
				<path class="st35" d="M81,135.6c0.1-0.5,0.1-0.8,0.1-0.9c0-0.1,0.1-0.3,0.1-0.5c0.1-0.3,0.2-0.6,0.3-0.9c0,0,0.2-0.6,0.4-0.9
					c0.1-0.3,0.3-0.6,0.5-0.9c0.1-0.1,0.2-0.3,0.3-0.4c0,0,0.2-0.4,0.6-0.8c0.4-0.5,0.6-0.7,0.7-0.7c0.4-0.4,0.5-0.5,0.7-0.7
					c0.5-0.4,0.8-0.6,0.8-0.6c0.1-0.1,0.2-0.2,0.4-0.2c0.2-0.1,0.4-0.2,0.5-0.3c0.3-0.1,0.6-0.2,1.1-0.4c0.1,0,0.3-0.1,0.4-0.1
					c0.3,0,0.3,0,0.6,0c0.1,0,0.2,0,0.3,0c0.1,0,0.3,0,0.5,0.1c0.2,0,0.5,0.1,0.8,0.3c0.1,0,0.2,0.1,0.3,0.1c0.1,0,0.1,0.1,0.2,0.1
					c0,0,0,0,0,0c0.1,0,0.1,0.1,0.2,0.1c0,0,0,0,0,0c0,0,0,0,0,0l0,0c3.5,2.5,16.8,11.7,20.9,14.7c-0.7-0.5-1.6-0.4-2.7,0.1
					c-2,1.1-3.7,3.9-3.7,6.3c0,1.3,0.4,2.1,1.2,2.5c-4.6-2.2-19.2-9.1-23.1-10.9l0,0c0,0,0,0,0,0c0,0,0,0,0,0
					c-0.1,0-0.2-0.1-0.5-0.3c-0.2-0.1-0.2-0.2-0.4-0.3c0,0-0.3-0.3-0.6-0.6c-0.4-0.5-0.7-1.1-0.8-1.8C80.9,136.8,80.9,136,81,135.6z
					"/>
				<path class="st36" d="M115.1,144.6c1.3-0.7,2.5-0.8,3.4-0.4c1.1,0.5,1.7,1.7,1.7,3.6c0,3.3-2.4,7.4-5.3,9
					c-1.5,0.8-2.9,0.9-3.8,0.2c-0.9-0.6-1.4-1.8-1.4-3.3C109.8,150.2,112.2,146.2,115.1,144.6z M114.2,156.3c0.2,0,0.5-0.1,0.6-0.2
					c0.2-0.1,0.4-0.2,0.5-0.2c0.1,0,0.5-0.3,0.7-0.4c0.2-0.2,0.4-0.4,0.6-0.5c0.1-0.1,0.2-0.2,0.3-0.3c0.2-0.2,0.2-0.2,0.6-0.7
					c0.1-0.1,0.2-0.3,0.3-0.4c0,0,0.3-0.3,0.5-0.8c0.4-0.7,0.7-1.4,1-2.2c0.2-0.5,0.2-0.9,0.2-0.9c0-0.1,0.1-0.3,0.1-0.5
					c0-0.2,0-0.5,0.1-0.7c0-0.2,0-0.4,0-0.7c0-0.3-0.1-0.5-0.2-0.6c0-0.1-0.1-0.3-0.2-0.4c-0.1-0.1-0.2-0.2-0.3-0.2
					c-0.7-0.3-1.6-0.3-2.6,0.3c-2.2,1.2-4,4.3-4,6.8c0,1.2,0.4,2.1,1,2.5C113.7,156.3,114,156.3,114.2,156.3z"/>
				<path class="st37" d="M104.5,151.5c0-0.2,0-0.6,0.1-1.3c0.1-0.7,0.3-1.3,0.3-1.3c0.1-0.2,0.1-0.4,0.2-0.6
					c0.1-0.2,0.1-0.4,0.2-0.6c0.1-0.2,0.2-0.4,0.2-0.6c0.1-0.2,0.2-0.4,0.3-0.6c0.1-0.2,0.2-0.4,0.3-0.6c0.1-0.2,0.2-0.4,0.3-0.6
					c0.2-0.3,0.5-0.8,0.7-1.1c0,0,0.3-0.4,0.8-1c0.2-0.2,0.6-0.6,0.9-1c0.6-0.5,1-0.8,1-0.8c0.1-0.1,0.3-0.2,0.5-0.3
					c0.2-0.1,0.5-0.3,0.7-0.4c0.1-0.1,0.3-0.2,0.5-0.2c0.3-0.1,0.6-0.3,0.9-0.3c0.2-0.1,0.6-0.1,0.8-0.2c0.1,0,0.3,0,0.4,0
					c0.2,0,0.4,0,0.6,0c0.1,0,0.3,0,0.4,0c0,0,0.4,0,0.9,0.2c0.1,0.1,0.3,0.1,0.5,0.2c0.1,0,0.2,0.1,0.3,0.2l2.1,1.2
					c-0.4-0.2-0.8-0.3-1.2-0.4c0.4,0.1,0.8,0.2,1.2,0.4c0.1,0.1,0.3,0.2,0.4,0.3c0.1,0.1,0.3,0.3,0.5,0.5c0.1,0.2,0.3,0.4,0.5,0.6
					c0.1,0.2,0.3,0.4,0.4,0.6c0.2,0.4,0.4,0.9,0.5,1.4c0,0.2,0.1,0.4,0.1,0.6c0,0.3,0,0.7,0.1,1.1c0,0.9-0.1,1.6-0.3,2.5
					c0,0.2-0.2,0.6-0.4,1.2c-0.2,0.5-0.4,1-0.5,1.2c-0.2,0.4-0.6,1.3-1.3,2.2c-0.2,0.3-0.8,1.1-1.7,2c-0.7,0.6-1.3,1.1-2,1.5
					c-0.2,0.1-0.5,0.3-0.7,0.4c-0.1,0.1-0.3,0.1-0.5,0.2c-0.2,0.1-0.6,0.2-0.8,0.2c-0.2,0.1-0.6,0.1-0.8,0.1c-0.2,0-0.4,0-0.6,0
					c-0.1,0-0.3,0-0.4,0c-0.4-0.1-0.8-0.2-0.9-0.2c-0.1,0-0.3-0.1-0.4-0.2c-0.1,0-0.2-0.1-0.3-0.2l0,0l-2.1-1.2
					c-0.1,0-0.1-0.1-0.2-0.1c0,0,0,0,0,0c-0.1-0.1-0.2-0.1-0.2-0.2c-0.1-0.1-0.2-0.2-0.3-0.2c-0.2-0.1-0.4-0.4-0.5-0.5
					c-0.3-0.3-0.6-0.8-0.9-1.6c-0.1-0.2-0.2-0.6-0.3-1.1c0-0.2-0.1-0.5-0.1-0.7C104.5,151.9,104.5,151.7,104.5,151.5z"/>
				<g>
					<path class="st38" d="M187,189.9c0-1.5-1-2.1-2.3-1.4c-1.3,0.7-2.3,2.5-2.3,4c0,1.5,1,2.1,2.3,1.4
						C186,193.1,187,191.3,187,189.9z"/>
				</g>
				<path class="st39" d="M189,187.2c0-0.2,0-0.4,0-0.6c0-0.2,0-0.6-0.1-0.8c0-0.4-0.2-0.8-0.3-1.2c-0.1-0.3-0.2-0.6-0.3-0.9
					c-0.1-0.3-0.3-0.7-0.5-1c-0.2-0.3-0.5-0.7-0.7-1c-0.1-0.2-0.3-0.4-0.4-0.5c-0.1-0.1-0.3-0.3-0.4-0.4c-0.3-0.3-0.7-0.5-1-0.8
					c-0.2-0.1-0.5-0.3-0.7-0.4c-1.2-0.6-2.9-0.5-4.7,0.5c-3.9,2.2-7,7.5-7.1,12c0,2.2,0.7,3.7,1.9,4.5l0,0c0.3,0.2,0.8,0.4,1.1,0.6
					c0.2,0.1,0.5,0.2,0.7,0.3c0.4,0.1,0.8,0.2,1.2,0.3c0.6,0.1,1.1,0.1,1.3,0.1c0.3,0,0.8,0,1.2-0.1c0.4-0.1,0.8-0.2,1.2-0.3
					c0.3-0.1,0.7-0.2,0.9-0.3c0.2-0.1,0.4-0.2,0.6-0.3c0.3-0.1,0.6-0.3,0.9-0.5c0.3-0.2,0.7-0.5,1-0.8c0.1-0.1,0.3-0.3,0.5-0.4
					c0.2-0.2,0.6-0.6,0.8-0.8c0.2-0.2,0.6-0.7,0.7-0.9c0.1-0.1,0.2-0.3,0.3-0.5c0.1-0.1,0.2-0.3,0.3-0.5c0.1-0.1,0.2-0.3,0.3-0.5
					c0.1-0.3,0.2-0.3,0.5-1c0.1-0.2,0.1-0.4,0.2-0.5c0,0,0.2-0.4,0.3-1.1c0.1-0.4,0.2-0.9,0.2-1.2C189,188.1,189,187.8,189,187.2
					c0,1-0.7,1.9-2,2.6c0,1.5-1.1,3.3-2.3,4c-1.3,0.7-2.3,0.1-2.3-1.4c0-1.5,1.1-3.3,2.3-4c1.3-0.7,2.3-0.1,2.3,1.4
					C188.3,189.1,189,188.2,189,187.2z"/>
				<path class="st40" d="M184.6,179.7c-21.9-11.1-43.7-22.1-65.6-33.2c-0.7-0.4-1.6-0.3-2.7,0.3c-2.2,1.2-4,4.3-4,6.8
					c0,1.2,0.4,2.1,1.1,2.6l0,0c20.4,13.5,40.9,27,61.3,40.6c-1.2-0.8-1.9-2.4-1.9-4.5c0.1-4.5,3.2-9.9,7.1-12
					C181.8,179.2,183.4,179.1,184.6,179.7z"/>
			</g>
			<g class="st29">
				<g>
					<path class="st41" d="M74.7,124.6c0.4-0.4,0.7-0.6,1.2-0.9c0.6-0.3,1.1-0.5,1.8-0.4c-0.3-0.1-1-0.6-1-0.6
						c-0.5-0.1-1.2,0.1-1.8,0.4c-0.4,0.2-0.8,0.6-1.2,0.9C73.7,124.1,74.5,124.5,74.7,124.6L74.7,124.6z"/>
				</g>
				<g>
					<path class="st41" d="M78.3,125.7c0.5-0.5,1.1-1,1.7-1.3c0.9-0.5,1.8-0.7,2.5-0.6c0.4-0.9,0.1-2-0.6-2.4
						c-0.1,0-0.2-0.1-0.3-0.2c-0.1-0.1-0.3-0.1-0.4-0.1c-0.4,0-0.5,0-0.9,0c-0.5,0.1-0.6,0.1-1.2,0.2c-0.5,0.2-0.8,0.3-1.5,0.6
						c-0.6,0.4-0.6,0.4-1,0.7c-0.6,0.5-0.6,0.5-0.9,0.8l-0.1,0.1c0.1-0.1,0.4-0.1,0.8,0.1c0.1,0,0.2,0.1,0.3,0.2
						C77.3,124.2,78.1,125.1,78.3,125.7L78.3,125.7z"/>
				</g>
				<g>
					<path class="st41" d="M80,127.6c0.4-0.4,0.8-0.7,1.3-1c0.7-0.4,1.3-0.5,1.9-0.5c-0.7-0.4-1-1.5-0.6-2.4
						c-0.7-0.1-1.6,0.1-2.5,0.6c-0.6,0.3-1.2,0.8-1.7,1.3C78.5,126.3,79.3,127.2,80,127.6L80,127.6z"/>
				</g>
				<g>
					<path class="st41" d="M83,129.3c0.4-0.4,0.7-0.7,1.3-1c0.7-0.4,1.3-0.5,1.9-0.5c-0.8-0.4-2.3-1.3-3-1.8
						c-0.6-0.1-1.2,0.1-1.9,0.5c-0.5,0.3-0.9,0.6-1.3,1C80.7,128,82.2,128.9,83,129.3L83,129.3z"/>
				</g>
				<g>
					<path class="st41" d="M84,129.5l0.1-0.1c0.4-0.3,0.4-0.3,0.6-0.5c0.3-0.2,0.4-0.3,0.6-0.4c0.2-0.1,0.3-0.2,0.6-0.3
						c0.2-0.1,0.2-0.1,0.4-0.1c0.1,0,0.1,0,0.2,0c0.1,0,0.1,0,0.2,0c0,0,0,0,0.1,0c-0.2,0-0.3-0.1-0.5-0.2c-0.6-0.1-1.2,0.1-1.9,0.5
						c-0.4,0.3-0.8,0.5-1.3,1C83.4,129.6,83.8,129.7,84,129.5L84,129.5z"/>
				</g>
				<g>
					<path class="st41" d="M85.2,129.6c0.6-0.5,1.1-1,1.8-1.3c1-0.5,1.8-0.7,2.6-0.6c-0.2-0.1-0.4-0.2-0.6-0.2l-0.2,0
						c-0.3,0-0.4,0-0.6,0c-0.3,0-0.4,0-0.7,0.1c-0.4,0.1-0.4,0.1-0.8,0.2c-0.4,0.2-0.5,0.2-0.9,0.4c-0.5,0.3-0.5,0.3-0.8,0.5
						c-0.5,0.4-0.5,0.4-0.8,0.6l-0.1,0.1C84.2,129.2,84.7,129.3,85.2,129.6L85.2,129.6z"/>
				</g>
				<g>
					<path class="st41" d="M107.7,143.8c0.4-0.4,0.8-0.7,1.2-0.9c0.7-0.4,1.3-0.5,1.8-0.4c-4.2-2.9-17.7-12.3-21.3-14.8
						c-0.8-0.1-1.6,0.1-2.6,0.6c-0.6,0.3-1.2,0.8-1.8,1.3C88.9,132,103.2,141,107.7,143.8L107.7,143.8z"/>
				</g>
				<g>
					<path class="st41" d="M113.3,145.9c0.6-0.5,1-0.9,1.8-1.3c1-0.5,1.9-0.7,2.6-0.6c0.4-0.9,0.1-2-0.6-2.4
						c-0.5-0.3-1.6-0.9-2.1-1.2c-0.1-0.1-0.3-0.1-0.5-0.2c-0.5,0-0.5,0-1,0c-0.5,0.1-0.6,0.1-1.2,0.2c-0.5,0.2-0.9,0.3-1.5,0.7
						c-0.6,0.4-0.7,0.4-1.1,0.7c-0.6,0.5-0.6,0.5-1,0.8l-0.1,0.1c0.1-0.1,0.4-0.1,0.9,0.1c0.5,0.3,1.6,0.9,2.1,1.2
						C112.3,144.4,113,145.3,113.3,145.9L113.3,145.9z"/>
				</g>
				<g>
					<path class="st41" d="M115,147.8c0.4-0.4,0.9-0.8,1.4-1c0.7-0.4,1.4-0.6,2-0.5c-0.7-0.4-1.1-1.4-0.7-2.4
						c-0.8-0.1-1.7,0.1-2.6,0.6c-0.6,0.4-1,0.6-1.8,1.3C113.5,146.6,114.3,147.4,115,147.8L115,147.8z"/>
				</g>
				<g>
					<path class="st41" d="M184.7,191.2C184.7,191.2,184.7,191.2,184.7,191.2C184.7,191.2,184.7,191.1,184.7,191.2
						c0.1-0.2,0.9-2.2,1.2-3c1.4-3.4,0.3-7.5-2.5-8.9c-16.3-8.3-48.8-25-65.1-33c-0.6-0.1-1.3,0.1-2,0.5c-0.5,0.3-0.9,0.6-1.4,1
						c15.6,8.4,46.9,25.6,62.6,34.2c2.6,1.4,5.5,4.7,6.4,7.1C184.2,189.6,184.7,191,184.7,191.2L184.7,191.2z"/>
				</g>
			</g>
		</g>
	</g>
</g>
</svg>
