<svg xmlns="http://www.w3.org/2000/svg" viewBox="0 0 25 20"><defs><style>.a{fill:#fbef47;}</style></defs><path class="a" d="M2.5,0A2.507,2.507,0,0,0,0,2.5V14.167a2.507,2.507,0,0,0,2.5,2.5h20a2.507,2.507,0,0,0,2.5-2.5V2.5A2.507,2.507,0,0,0,22.5,0Zm0,1.667h20a.836.836,0,0,1,.833.833V14.167A.836.836,0,0,1,22.5,15H2.5a.836.836,0,0,1-.833-.833V2.5A.836.836,0,0,1,2.5,1.667ZM9.125,3.625a.891.891,0,0,0-.792.833V12.25a.807.807,0,0,0,.417.708.757.757,0,0,0,.833,0L16.25,9.083a.859.859,0,0,0,.417-.708.807.807,0,0,0-.417-.708L9.583,3.708a.579.579,0,0,0-.458-.083ZM10,5.917l4.167,2.458L10,10.792ZM6.667,18.333V20H18.333V18.333Zm0,0"/></svg>