<?xml version="1.0" encoding="utf-8"?>
<!-- Generator: Adobe Illustrator 22.1.0, SVG Export Plug-In . SVG Version: 6.00 Build 0)  -->
<svg version="1.0" id="Layer_1" xmlns="http://www.w3.org/2000/svg" xmlns:xlink="http://www.w3.org/1999/xlink" x="0px" y="0px"
	 viewBox="0 0 274 257" enable-background="new 0 0 274 257" xml:space="preserve">
<g>
	<g>
		<g>
			<g>
				<g>
					<path opacity="0.2" fill="#3D3D3D" d="M182.3,250.7c1.2,0,2.4-0.3,3.2-0.8l81.9-47.3c1.1-0.6,1.7-1.6,1.7-2.6
						c0-1-0.6-2-1.7-2.6l-1.1-0.6l0,0c-0.2-0.2-0.5-0.5-0.8-0.6l-117.9-68.5c-0.9-0.5-2-0.8-3.2-0.8c-1.2,0-2.3,0.3-3.2,0.8
						l-81.9,47.3c-1.1,0.6-1.7,1.6-1.7,2.6c0,1,0.6,2,1.7,2.6l1.1,0.6l0,0c0.2,0.2,0.5,0.5,0.8,0.6l117.9,68.5
						C180,250.4,181.1,250.7,182.3,250.7z"/>
					<g>
						<path fill="#A18548" d="M61.3,178l117.9,68.5c1.4,0.8,3.7,0.8,5.2,0l81.9-47.3c0.7-0.4,1.1-1,1.1-1.5l0,1.1
							c0,0.5-0.4,1.1-1.1,1.5l-81.9,47.3c-1.4,0.8-3.7,0.8-5.2,0L61.3,179.1c-0.7-0.4-1.1-0.9-1.1-1.5l0-1.1
							C60.2,177.1,60.6,177.6,61.3,178z"/>
						<g>
							<path fill="#CFA95F" d="M61.3,175c-1.4,0.8-1.4,2.2,0,3l117.9,68.5c1.4,0.8,3.7,0.8,5.2,0l81.9-47.3c1.4-0.8,1.4-2.2,0-3
								l-117.9-68.5c-1.4-0.8-3.7-0.8-5.1,0L61.3,175z"/>
						</g>
					</g>
					<g>
						<path fill="#B09050" d="M61.8,174.1l117.9,68.5c1.4,0.8,3.7,0.8,5.2,0l81.9-47.3c0.7-0.4,1.1-1,1.1-1.5l0,1.1
							c0,0.5-0.4,1.1-1.1,1.5l-81.9,47.3c-1.4,0.8-3.7,0.8-5.2,0L61.8,175.2c-0.7-0.4-1.1-0.9-1.1-1.5l0-1.1
							C60.8,173.2,61.1,173.7,61.8,174.1z"/>
						<g>
							<path fill="#CFA95F" d="M61.8,171.2c-1.4,0.8-1.4,2.2,0,3l117.9,68.5c1.4,0.8,3.7,0.8,5.2,0l81.9-47.3c1.4-0.8,1.4-2.2,0-3
								l-117.9-68.5c-1.4-0.8-3.7-0.8-5.1,0L61.8,171.2z"/>
						</g>
					</g>
					<g>
						<polygon fill="#DBDBDB" points="63.4,168.5 63.4,172.5 181.8,241.3 181.8,237.3 						"/>
					</g>
					<g>
						<g>
							<polygon fill="#F5F5F5" points="151.6,124.7 69.5,167.8 183.7,233.8 265.4,184.7 							"/>
						</g>
						<g>
							<polygon fill="#FFFFFF" points="147.2,120.1 63.4,168.5 181.8,237.3 265.5,188.9 							"/>
						</g>
						<g>
							<g>
								<path fill="#DCDCDC" d="M240.5,200.4c-0.1,0.2-0.3,0.3-0.6,0.4c-0.1,0-0.1,0-0.2,0.1c0,0-0.1,0-0.1,0l-0.1,0
									c-0.1,0-0.1,0-0.2,0c-0.1,0-0.2,0-0.2,0c-0.3,0-0.6-0.1-0.9-0.2c-0.1-0.1-0.3-0.1-0.4-0.2c-0.1-0.1-0.2-0.1-0.3-0.2
									c-0.4-0.3-0.6-0.6-0.8-0.9c-0.1-0.2-0.2-0.3-0.2-0.5c-0.1-0.2-0.1-0.3-0.2-0.5c-0.2-0.6-0.4-1.3-0.4-1.9c0-0.3,0-0.6,0-1
									c0,0,0,0,0,0.1l0,0.1l-0.1,0l-0.3-0.1l-0.2-0.1c0,0.1,0,0.2-0.1,0.4c-0.1,0.3-0.3,0.6-0.7,0.9c-0.1,0.1-0.2,0.1-0.3,0.2
									l-0.2,0.1c-0.1,0-0.1,0-0.2,0.1c-0.2,0.1-0.5,0.1-0.8,0.1c-0.2,0-0.4,0-0.6,0c-0.1,0.1-0.2,0.1-0.3,0.2
									c-0.3,0.2-0.6,0.3-1,0.3c-0.2,0-0.4,0-0.6,0c-0.1,0-0.2,0-0.3,0c0,0.1,0,0.1,0.1,0.2c0,0.1,0.1,0.2,0.1,0.4
									c0,0.1,0,0.2,0,0.4c0,0.1,0,0.2,0,0.4c0,0.1,0,0.2-0.1,0.4l0,0.1l-0.1,0c-0.2-0.1-0.5-0.1-0.7-0.2c-0.2-0.1-0.4-0.2-0.6-0.2
									c-0.1,0-0.2-0.1-0.3-0.1c0,0-0.1,0-0.1,0c-0.1,0-0.1-0.1-0.2-0.1c-0.2-0.1-0.3-0.2-0.5-0.3c-0.5-0.5-0.9-1.1-0.9-1.6
									c0-0.1,0-0.1,0-0.2c0-0.1,0-0.1,0-0.2l0.1-0.2c0-0.1,0.1-0.1,0.1-0.2c0-0.1,0.1-0.1,0.1-0.2c0-0.1,0.1-0.1,0.2-0.2
									c0.1-0.1,0.3-0.2,0.4-0.3c0.3-0.2,0.7-0.4,1.2-0.5c0.2,0,0.5-0.1,0.7-0.1c0.2,0,0.5,0.1,0.7,0.1c-0.2-0.1-0.5-0.1-0.7-0.1
									c-0.2,0-0.5,0-0.7,0.1c-0.5,0.1-0.8,0.3-1.2,0.5c-0.2,0.1-0.3,0.2-0.4,0.3c-0.1,0.1-0.1,0.1-0.1,0.2
									c-0.1,0.1-0.1,0.1-0.1,0.2s-0.1,0.1-0.1,0.2l-0.1,0.2c0,0.1,0,0.1,0,0.2c0,0.1,0,0.1,0,0.2c0,0.1,0,0.1,0,0.2l0.1,0.2
									c0,0.1,0.1,0.1,0.1,0.2c0,0.1,0.1,0.1,0.1,0.2l0.1,0.2l0.2,0.2c0,0.1,0.1,0.1,0.2,0.2c0.1,0.1,0.1,0.1,0.2,0.2
									c0.1,0.1,0.3,0.2,0.4,0.3c0,0,0.1,0.1,0.1,0.1c0,0,0.1,0,0.1,0.1c0.1,0,0.2,0.1,0.3,0.1c0.2,0.1,0.4,0.2,0.6,0.2
									c0.2,0.1,0.3,0.1,0.5,0.1c0-0.1,0-0.2,0.1-0.3c0-0.1,0-0.2,0-0.4c0-0.1,0-0.2,0-0.4c0-0.1-0.1-0.2-0.1-0.4
									c0-0.1-0.1-0.2-0.1-0.3c-0.2,0-0.3-0.1-0.4-0.2c-0.1-0.1-0.3-0.2-0.3-0.3c-0.1-0.1-0.1-0.2-0.2-0.3c0-0.1,0-0.2,0.1-0.3
									l0.1-0.1l0.1,0.1c0.1,0.1,0.2,0.2,0.3,0.3c0.1,0.1,0.2,0.2,0.3,0.3c0.1,0.1,0.1,0.2,0.2,0.3c0.1,0,0.3,0.1,0.4,0.1
									c0.1,0,0.3,0,0.5,0c0.3,0,0.6-0.2,0.8-0.3c0.1,0,0.1-0.1,0.2-0.1c-0.2,0-0.5-0.1-0.7-0.2c-0.1,0-0.1-0.1-0.2-0.1
									c-0.1,0-0.1-0.1-0.1-0.1c-0.1-0.1-0.2-0.2-0.2-0.2c-0.1-0.2-0.1-0.3-0.1-0.5c0-0.3,0.3-0.6,0.5-0.9l0.1-0.1l0.2,0.1
									c0.1,0.1,0.3,0.1,0.4,0.2c0.4,0.2,0.7,0.5,0.8,0.8c0,0.1,0.1,0.2,0.1,0.3c0,0.1,0,0.2-0.1,0.3c0,0.1-0.1,0.1-0.1,0.2
									c0.1,0,0.3,0,0.4,0c0.2,0,0.5-0.1,0.7-0.1c0,0,0.1,0,0.1-0.1l0.2-0.1c0.1,0,0.2-0.1,0.3-0.1c0.3-0.2,0.5-0.5,0.6-0.8
									c0.1-0.2,0.1-0.3,0.1-0.5l-0.2-0.1l-0.2-0.1l-0.2-0.1L234,195l-0.2-0.2l-0.1-0.2l-0.1-0.2l-0.1-0.2l-0.1-0.2l0-0.2l0-0.2
									l0-0.2l0.1-0.2l0.1-0.2l0.2,0.2c0.5,0.5,1,1.1,1.3,1.7c0,0.1,0.1,0.2,0.1,0.4l0.1,0l0.2,0.1l0.1,0c0.3-0.9,0.3-1.9,0-2.9
									c0-0.1-0.1-0.1-0.1-0.2l0.2,0c0,0.1,0.1,0.2,0.1,0.2c0.1,0.1,0.2,0.2,0.3,0.3c0.1,0.1,0.2,0.1,0.3,0.1l0.1-0.1l0.1-0.2
									l0-0.2l0-0.2l0-0.2l-0.1-0.2l-0.1-0.2l-0.1-0.1c-0.1,0.2-0.2,0.4-0.3,0.5l-0.3-0.1l-0.2-0.1l-0.2-0.1l-0.2-0.1l-0.2-0.1
									l-0.1-0.1l-0.1-0.1l-0.1-0.1l-0.1-0.1l-0.1-0.1l0-0.1l0-0.1l0-0.1l0-0.1l0-0.1l0.1-0.1l0-0.1l0.1,0l0.3,0.1l0.3,0.1l0.3,0.1
									l0.2,0.2l0.2,0.2l0.2,0.2l0.2,0.2c0.1,0,0.1-0.1,0.1-0.2c-0.5-0.6-0.9-1.2-1.3-1.8c-0.4-0.6-0.8-1.2-1.1-1.8
									c-0.1-0.2-0.2-0.3-0.2-0.5c0-0.2,0-0.3,0.1-0.5c0.2-0.1,0.4-0.3,0.7-0.3c0.2,0,0.4,0,0.5,0.1c0.1,0,0.1,0.1,0.2,0.1
									c0.5,0.6,0.9,1.2,1.1,1.8c0.2,0.6,0.3,1.3,0.2,1.9c0,0.3-0.1,0.5-0.2,0.7c0.5,0.6,0.9,1.2,1.4,1.8c0.2,0.2,0.3,0.5,0.5,0.7
									l1.4-3.7l0.4,0c-0.2,0.8-0.2,1.6-0.1,2.4c0,0.2,0.1,0.4,0.2,0.5c0.1,0.1,0.1,0.1,0.1,0.1c0,0,0.1,0,0.1,0
									c0.2,0,0.3,0,0.5-0.1c0.3-0.1,0.5-0.2,0.8-0.3c0.1-0.1,0.3-0.1,0.5-0.1c0.1,0,0.2,0,0.4,0c-0.5-1.6-1-3.3-1.2-4.9
									c-0.1-0.4-0.1-0.9-0.2-1.3c-0.1-0.4-0.1-0.9-0.1-1.3c-0.1-0.9-0.1-1.7-0.1-2.6c0.2,0,0.4,0.1,0.5,0.2
									c0.4,0.2,0.7,0.6,0.7,0.9c-0.1-0.3-0.4-0.7-0.8-0.9c-0.1-0.1-0.3-0.1-0.4-0.2c0,0.8,0.1,1.7,0.2,2.5c0,0.4,0.1,0.9,0.2,1.3
									c0.1,0.4,0.1,0.8,0.2,1.3c0.3,1.7,0.8,3.4,1.4,5l0.1,0.2l-0.3-0.1c-0.1,0-0.2,0-0.4,0c-0.1,0-0.3,0.1-0.4,0.1
									c-0.3,0.1-0.5,0.2-0.9,0.4c-0.2,0.1-0.3,0.1-0.6,0.1c-0.1,0-0.1,0-0.2,0c-0.1,0-0.1,0-0.1,0c-0.1,0-0.1,0-0.2-0.1
									c0,0-0.1,0-0.1-0.1c-0.1-0.1-0.2-0.2-0.2-0.3c0-0.1,0-0.2-0.1-0.3c-0.1-0.4-0.1-0.7-0.1-1.1l-1.1,2.8
									c0.2,0.3,0.3,0.5,0.5,0.8c0.4,0.6,0.7,1.2,1,1.9c0.3,0.6,0.5,1.3,0.6,1.9l0.1,0.5c0,0.2,0,0.3,0,0.5
									C240.8,199.8,240.7,200.1,240.5,200.4z M239.7,200.6c0.2-0.1,0.4-0.2,0.5-0.3c0.2-0.3,0.3-0.6,0.3-0.9c0-0.2,0-0.3,0-0.5
									l-0.1-0.5c-0.1-0.6-0.3-1.3-0.6-1.9c-0.3-0.6-0.6-1.2-1-1.8c-0.1-0.2-0.2-0.3-0.3-0.5l-0.1,0.2l-0.2-0.4
									c-0.2-0.4-0.6-0.7-1-1c-0.7,1.1-1,2.4-1,3.6c0,0.6,0.2,1.3,0.4,1.9c0.1,0.2,0.1,0.3,0.2,0.5c0.1,0.2,0.2,0.3,0.2,0.5
									c0.2,0.3,0.4,0.6,0.7,0.8c0.1,0.1,0.2,0.1,0.2,0.2c0.3,0.2,0.6,0.3,1,0.3c0.1,0,0.1,0,0.2,0l0.1,0l0.1,0l0.1,0l0.1,0
									C239.6,200.7,239.6,200.7,239.7,200.6L239.7,200.6z M235.3,189.3c0.4,0.5,0.8,1.1,1.2,1.6c0.1-0.2,0.1-0.4,0.1-0.6
									c0.1-0.6,0-1.3-0.2-1.9c-0.2-0.6-0.6-1.2-1.1-1.8c0,0-0.1-0.1-0.2-0.1c0,0-0.1,0-0.1,0c-0.1,0-0.1,0-0.2,0
									c-0.1,0-0.1,0-0.2,0c-0.2,0-0.5,0.1-0.6,0.2c0,0-0.1,0.1-0.1,0.1c0,0,0,0.1,0,0.1c0,0.1,0,0.2,0,0.2c0,0.2,0.1,0.3,0.2,0.5
									C234.5,188.1,234.8,188.7,235.3,189.3L235.3,189.3z M235.9,193.1c0.2,0.5,0.2,1,0.2,1.5c0.2-0.6,0.5-1.2,0.8-1.8l0.1-0.2
									l0.2,0.1c0.1,0,0.1,0.1,0.2,0.1c0.1,0.1,0.2,0.1,0.4,0.2c0-0.1-0.1-0.1-0.1-0.2c-0.4-0.5-0.8-1.1-1.2-1.6
									c0,0.1-0.1,0.1-0.1,0.2l0,0.1l0.1,0.2l0.1,0.2l0.1,0.2l0,0.2l0,0.2l0,0.2l-0.1,0.2l-0.1,0.2l0,0.1l-0.1,0
									C236.2,193.2,236,193.2,235.9,193.1C235.9,193.1,235.9,193.1,235.9,193.1L235.9,193.1z M235.9,192.2
									c0.1-0.2,0.2-0.4,0.3-0.6l-0.1-0.2l-0.2-0.2l-0.2-0.2l-0.2-0.2l-0.2-0.2l-0.3-0.1l-0.3-0.1l-0.2-0.1l0,0.1l0,0.1l0,0.1
									l0,0.1l0,0.1l0,0.1l0.1,0.1l0.1,0.1l0.1,0.1l0.1,0.1l0.1,0.1l0.1,0.1l0.2,0.1l0.2,0.1l0.2,0.1L235.9,192.2L235.9,192.2z
									 M231.5,196.9c0.2,0.1,0.4,0.1,0.7,0.2c0.1-0.1,0.1-0.1,0.1-0.2c0-0.1,0.1-0.2,0.1-0.3c0-0.1,0-0.2-0.1-0.3
									c-0.1-0.3-0.4-0.5-0.7-0.7c-0.1,0-0.1-0.1-0.2-0.1c-0.2,0.2-0.3,0.5-0.3,0.7c0,0.1,0,0.3,0.1,0.4c0.1,0.1,0.1,0.1,0.2,0.2
									c0,0,0.1,0,0.1,0.1C231.4,196.9,231.5,196.9,231.5,196.9L231.5,196.9z M234.6,195.2l0.2,0.1c0-0.1,0-0.1,0-0.2
									c-0.1-0.3-0.3-0.6-0.5-0.8c-0.2-0.2-0.3-0.4-0.5-0.6l0,0.1l0,0.2l0,0.2l0.1,0.2l0.1,0.2l0.1,0.2l0.1,0.2l0.1,0.1l0.2,0.1
									L234.6,195.2L234.6,195.2z M229.8,197.5C229.8,197.5,229.8,197.5,229.8,197.5c0.1,0,0-0.1,0-0.1c-0.1-0.1-0.2-0.2-0.3-0.3
									c0,0-0.1-0.1-0.1-0.1c0,0.1,0,0.2,0.1,0.3C229.6,197.3,229.7,197.4,229.8,197.5L229.8,197.5z"/>
								<path fill="#2873C9" d="M239,201.1C239,201.1,239,201.1,239,201.1c-0.4,0-0.7-0.1-1-0.2c-0.1-0.1-0.3-0.1-0.4-0.2
									c-0.1-0.1-0.2-0.1-0.3-0.2c-0.4-0.3-0.6-0.6-0.9-0.9l-0.1-0.1c-0.1-0.1-0.1-0.2-0.2-0.4c0-0.1,0-0.1-0.1-0.2
									c-0.1-0.1-0.1-0.2-0.1-0.3c-0.2-0.6-0.4-1.3-0.4-2c0-0.2,0-0.5,0-0.7l-0.4-0.1c0,0.1,0,0.1-0.1,0.2
									c-0.1,0.4-0.4,0.7-0.7,0.9c-0.1,0.1-0.2,0.1-0.3,0.2l-0.2,0.1c-0.1,0-0.1,0-0.1,0.1l-0.1,0c-0.3,0.1-0.5,0.1-0.8,0.2
									c-0.2,0-0.4,0-0.5,0c-0.1,0.1-0.1,0.1-0.2,0.2c-0.3,0.2-0.6,0.3-1,0.4c-0.2,0-0.4,0-0.6,0c0,0,0,0,0,0
									c0,0.1,0.1,0.2,0.1,0.3c0,0.1,0,0.3,0,0.4c0,0.1,0,0.3,0,0.4c0,0.1,0,0.3-0.1,0.4l-0.1,0.2l-0.3-0.1c-0.1,0-0.1,0-0.2,0
									c-0.2,0-0.3-0.1-0.5-0.1c-0.2-0.1-0.4-0.1-0.5-0.2l-0.1,0c-0.1,0-0.1-0.1-0.2-0.1l-0.1-0.1c0,0-0.1,0-0.1-0.1
									c-0.1,0-0.1-0.1-0.2-0.1c-0.2-0.1-0.3-0.2-0.5-0.4c-0.6-0.5-0.9-1.1-0.9-1.7c0-0.1,0-0.2,0-0.2c0,0,0,0,0-0.1
									c0,0,0-0.1,0-0.2l0.1-0.2c0-0.1,0-0.1,0.1-0.2c0,0,0,0,0-0.1c0-0.1,0.1-0.2,0.2-0.2l0,0c0-0.1,0.1-0.1,0.1-0.2
									c0.1-0.1,0.3-0.3,0.5-0.4c0.4-0.2,0.8-0.4,1.3-0.5c0.3-0.1,0.5-0.1,0.8-0.1c0.3,0,0.5,0.1,0.7,0.2l-0.1,0.3
									c-0.2-0.1-0.5-0.1-0.7-0.1c-0.2,0-0.4,0-0.7,0.1c-0.4,0.1-0.8,0.2-1.1,0.5c-0.2,0.1-0.3,0.2-0.4,0.3c0,0-0.1,0.1-0.1,0.1
									l0,0.1c0,0.1-0.1,0.1-0.1,0.2c0,0,0,0.1,0,0.1c0,0,0,0.1,0,0.1l-0.1,0.2c0,0,0,0.1,0,0.1c0,0,0,0.1,0,0.1c0,0.1,0,0.1,0,0.2
									c0,0,0,0.1,0,0.1c0,0,0,0.1,0,0.1l0,0.2c0,0,0,0.1,0,0.1c0,0,0,0,0,0.1l0,0c0,0,0,0.1,0.1,0.1l0.1,0.2l0.1,0.2
									c0,0.1,0.1,0.1,0.2,0.2c0,0,0,0,0.1,0.1c0,0,0.1,0.1,0.1,0.1c0.1,0.1,0.3,0.2,0.4,0.3c0.1,0,0.1,0.1,0.1,0.1
									c0,0,0.1,0,0.1,0.1c0,0,0.1,0,0.1,0.1c0,0,0.1,0.1,0.2,0.1l0.1,0c0.2,0.1,0.3,0.1,0.5,0.2c0.1,0,0.2,0.1,0.4,0.1
									c0,0,0-0.1,0-0.1c0-0.1,0-0.2,0-0.3c0-0.1,0-0.2,0-0.3c0-0.1-0.1-0.2-0.1-0.3c0-0.1,0-0.1-0.1-0.2c-0.1,0-0.3-0.1-0.4-0.2
									c-0.2-0.1-0.3-0.2-0.4-0.3c-0.1-0.1-0.2-0.3-0.2-0.4c0-0.2,0-0.3,0.1-0.4l0.2-0.3l0.3,0.3c0.1,0.1,0.2,0.2,0.3,0.3
									c0.1,0.1,0.2,0.2,0.3,0.3c0.1,0.1,0.1,0.2,0.2,0.3c0.1,0,0.2,0,0.3,0c0.1,0,0.3,0,0.4,0c0.2,0,0.4-0.1,0.6-0.2
									c-0.1,0-0.2-0.1-0.4-0.1c-0.1,0-0.1-0.1-0.2-0.1c-0.1,0-0.1-0.1-0.2-0.1c-0.1-0.1-0.2-0.2-0.2-0.3c-0.1-0.2-0.2-0.4-0.1-0.6
									c0.1-0.4,0.3-0.7,0.5-1l0.2-0.2l0.3,0.1c0.1,0.1,0.3,0.1,0.4,0.2c0.4,0.3,0.8,0.6,0.9,0.9c0.1,0.1,0.1,0.3,0.1,0.4
									c0,0.1,0,0.2-0.1,0.4c0,0,0.1,0,0.1,0c0.2,0,0.5-0.1,0.6-0.1l0.1,0c0,0,0.1,0,0.1,0l0.1-0.1c0.1,0,0.2-0.1,0.2-0.1
									c0.3-0.2,0.5-0.4,0.5-0.7c0-0.1,0.1-0.2,0.1-0.3l-0.1-0.1l-0.2-0.1l-0.2-0.1l-0.2-0.2l-0.2-0.2l-0.1-0.2l-0.1-0.2l-0.1-0.2
									l-0.1-0.2l0-0.2l0-0.2l0-0.2l0.2-0.7l0.4,0.4c0.5,0.5,1,1.1,1.3,1.7c0,0.1,0.1,0.2,0.1,0.3l0,0l0.2,0.1
									c0.3-0.9,0.3-1.8-0.1-2.6c-0.1-0.1-0.1-0.2-0.1-0.3l0-0.2l0.5-0.1l0,0.1c0,0.1,0.1,0.1,0.1,0.2c0.1,0.1,0.1,0.1,0.2,0.2
									c0,0,0.1,0.1,0.2,0.1l0.1-0.2l0-0.2l0-0.2l0-0.2l-0.1-0.2c0,0.1-0.1,0.2-0.2,0.3l-0.1,0.1l-0.4-0.1l-0.2-0.1l-0.2-0.1
									l-0.2-0.1l-0.2-0.1l-0.2-0.1l-0.1-0.1l-0.1-0.1l-0.1-0.1l-0.1-0.1l-0.1-0.2l0-0.2l0-0.2l0-0.2l0-0.2l0.1-0.4l0.5,0.2
									l0.3,0.1l0.3,0.1l0.4,0.3c-0.3-0.5-0.6-0.9-0.9-1.3c-0.4-0.6-0.7-1.2-1.1-1.8c-0.1-0.2-0.2-0.3-0.2-0.5c0-0.3,0-0.5,0.2-0.6
									c0.2-0.2,0.5-0.3,0.8-0.3c0.2,0,0.4,0,0.6,0.1c0.1,0,0.2,0.1,0.2,0.2c0.5,0.6,0.9,1.2,1.1,1.9c0.2,0.7,0.3,1.4,0.2,2
									c0,0.2-0.1,0.5-0.1,0.7l0.3,0.4c0.3,0.5,0.7,0.9,1,1.3c0.1,0.1,0.2,0.3,0.3,0.4l1.4-3.6l0.7,0l0,0.2
									c-0.2,0.8-0.2,1.6-0.1,2.3l0,0.1c0,0.1,0.1,0.3,0.1,0.3c0,0,0.1,0,0.1,0c0,0,0,0,0.1,0c0,0,0,0,0,0l0,0c0.2,0,0.3,0,0.4-0.1
									c0.2-0.1,0.3-0.1,0.5-0.2c0.1-0.1,0.2-0.1,0.4-0.2c0.1-0.1,0.3-0.1,0.5-0.2c0.1,0,0.1,0,0.2,0c-0.5-1.6-0.9-3.2-1.2-4.7
									c-0.1-0.5-0.1-0.9-0.2-1.3c-0.1-0.5-0.1-0.9-0.1-1.3c-0.1-0.9-0.1-1.7-0.1-2.6l0-0.2l0.1,0l0,0l0.1,0c0.3,0,0.5,0.1,0.6,0.2
									c0.5,0.3,0.8,0.7,0.8,1l-0.3,0.1c-0.1-0.3-0.3-0.6-0.7-0.8c-0.1,0-0.1-0.1-0.2-0.1c0,0.7,0.1,1.5,0.2,2.3
									c0,0.4,0.1,0.8,0.2,1.3c0.1,0.4,0.1,0.8,0.2,1.3c0.3,1.7,0.8,3.4,1.4,5l0.2,0.5l-0.6-0.2c-0.1,0-0.2,0-0.3,0
									c-0.1,0-0.2,0.1-0.4,0.1c-0.1,0-0.2,0.1-0.3,0.1c-0.2,0.1-0.3,0.2-0.5,0.2c-0.2,0.1-0.4,0.1-0.6,0.1c-0.1,0-0.1,0-0.2,0
									c0,0-0.1,0-0.1,0l0,0c-0.1,0-0.1,0-0.2-0.1c0,0-0.1,0-0.1-0.1c-0.2-0.1-0.2-0.3-0.3-0.4c0-0.1,0-0.2-0.1-0.2l0-0.1
									c0-0.1-0.1-0.3-0.1-0.4l-0.8,2c0.2,0.2,0.3,0.5,0.5,0.7c0.4,0.6,0.7,1.2,1,1.9c0.3,0.7,0.5,1.4,0.6,1.9l0.1,0.6
									c0,0.1,0,0.3,0,0.4c0,0.3-0.1,0.7-0.4,1.1c-0.2,0.2-0.4,0.3-0.7,0.4c-0.1,0-0.2,0.1-0.2,0.1l0,0c0,0-0.1,0-0.1,0l-0.1,0
									c-0.1,0-0.1,0-0.2,0l-0.1,0C239.1,201.1,239.1,201.1,239,201.1z M237.2,193.3c-0.6,1.1-0.9,2.2-0.9,3.4
									c0,0.6,0.2,1.2,0.4,1.8c0,0.1,0.1,0.2,0.1,0.3c0,0,0,0.1,0.1,0.1c0.1,0.1,0.1,0.2,0.2,0.4l0,0.1c0.2,0.3,0.4,0.6,0.7,0.8
									c0.1,0.1,0.1,0.1,0.2,0.1c0.2,0.1,0.5,0.3,0.9,0.3c0.1,0,0.1,0,0.1,0l0.4-0.1c0.1,0,0.1,0,0.1,0c0.2-0.1,0.3-0.2,0.4-0.3
									c0.2-0.2,0.3-0.5,0.3-0.8c0-0.1,0-0.2,0-0.3l-0.1-0.6c-0.2-0.7-0.3-1.3-0.6-1.8c-0.3-0.6-0.6-1.2-1-1.8
									c-0.1-0.1-0.1-0.2-0.2-0.3l-0.1,0.3l-0.4-0.7C237.9,193.8,237.6,193.5,237.2,193.3z M240,196.7c0.2,0.5,0.4,1.1,0.5,1.8
									l0.1,0.6c0,0.1,0,0.3,0,0.4c0,0.4-0.1,0.6-0.3,0.9c0,0,0,0,0,0c0.3-0.3,0.3-0.6,0.3-0.9c0-0.1,0-0.2,0-0.4l-0.1-0.6
									C240.5,198,240.3,197.3,240,196.7z M236,195.2l-0.1,0.5c0,0.3-0.1,0.6,0,0.9c0,0.6,0.2,1.3,0.4,1.9c0,0.1,0.1,0.2,0.1,0.3
									c0,0.1,0,0.1,0.1,0.2c0.1,0.1,0.1,0.2,0.2,0.4l0.1,0.1c0.1,0.2,0.3,0.4,0.4,0.6c-0.1-0.1-0.2-0.3-0.3-0.5l-0.1-0.1
									c-0.1-0.1-0.1-0.2-0.2-0.4c0-0.1,0-0.1-0.1-0.1c0-0.1-0.1-0.2-0.1-0.3c-0.2-0.6-0.4-1.3-0.4-1.9c-0.1-1.3,0.3-2.5,1-3.7
									l0.1-0.1l0,0l0,0c-0.4,0.6-0.6,1.1-0.8,1.7L236,195.2z M231.4,195.7c-0.1,0.2-0.2,0.4-0.2,0.5c0,0.1,0,0.2,0.1,0.3
									c0,0.1,0.1,0.1,0.1,0.1c0,0,0.1,0,0.1,0.1c0,0,0.1,0,0.1,0.1c0.1,0.1,0.3,0.1,0.5,0.2c0,0,0-0.1,0.1-0.1c0-0.1,0-0.1,0-0.2
									c0-0.1,0-0.1-0.1-0.2C232.1,196.2,231.8,195.9,231.4,195.7C231.5,195.7,231.5,195.7,231.4,195.7z M230.9,196
									c0,0.1,0,0.1-0.1,0.2c0,0.1,0,0.2,0.1,0.3c0-0.1,0-0.2,0-0.3C230.9,196.1,230.9,196.1,230.9,196z M235,195.6
									c0,0.2,0,0.3-0.1,0.5c0,0,0,0.1,0,0.1c0-0.1,0.1-0.1,0.1-0.2C234.9,195.9,235,195.8,235,195.6L235,195.6L235,195.6z
									 M234.9,195.1c0,0.1,0,0.1,0,0.2l0,0.2C235,195.4,234.9,195.2,234.9,195.1C234.9,195.1,234.9,195.1,234.9,195.1z
									 M233.9,194.2L233.9,194.2l0.1,0.2l0.1,0.1l0.1,0.1l0.2,0.2c-0.1-0.2-0.2-0.3-0.3-0.5C234,194.3,234,194.2,233.9,194.2z
									 M237.8,193.3c0.2,0.2,0.4,0.4,0.5,0.7l0.1,0.1l0.1-0.2l0,0l0,0l1.3-3.5l0,0.8c0,0.4,0,0.7,0.1,1.1l0,0.1
									c0,0.1,0,0.1,0.1,0.2c0,0,0,0,0,0c0-0.1,0-0.1,0-0.2l0-0.1c-0.1-0.7-0.1-1.5,0-2.3l-0.1,0l-1.5,3.9l-0.2-0.2c0,0,0,0,0,0
									L237.8,193.3z M236.1,193.3c0,0.1,0.1,0.3,0.1,0.4c0.1-0.1,0.1-0.2,0.2-0.4l0,0C236.3,193.4,236.2,193.4,236.1,193.3z
									 M236.9,192.5l0.2,0.1c-0.1-0.2-0.3-0.4-0.4-0.5l0,0.1L236.9,192.5l-0.1,0.1L236.9,192.5z M234.7,190.6L234.7,190.6l0,0.1
									l0,0.1l0,0.1l0,0.1l0.1,0.1l0.1,0.1l0.1,0.1l0.1,0.1l0.1,0.1l0.3,0.2l0.2,0.1l0.2,0.1c0.1-0.1,0.1-0.3,0.2-0.4l-0.1-0.1
									l-0.1-0.2l-0.2-0.2l-0.2-0.2l-0.2-0.1l-0.2-0.1L234.7,190.6z M234.7,186.5L234.7,186.5c-0.3,0-0.4,0.1-0.5,0.2
									c0,0,0,0-0.1,0.1c0,0,0,0,0,0.1c0,0.1,0,0.1,0,0.2c0,0.1,0.1,0.3,0.2,0.4c0.4,0.7,0.7,1.3,1.1,1.8c0.3,0.5,0.6,0.9,1,1.4
									c0-0.1,0-0.2,0-0.3c0.1-0.6,0-1.2-0.2-1.8c-0.2-0.6-0.6-1.2-1.1-1.7c0,0-0.1-0.1-0.1-0.1c0,0,0,0-0.1,0c0,0-0.1,0-0.1,0
									C234.8,186.5,234.7,186.5,234.7,186.5z"/>
							</g>
						</g>
						<g>
							<polygon fill="#EDEDED" points="181.8,237.3 181.8,241.3 265.5,193 265.5,188.9 							"/>
						</g>
					</g>
				</g>
			</g>
			<g>
				<g enable-background="new    ">
					<g>
						<polygon fill="#EDEDED" points="135.5,146.7 136.8,147.4 153,138 151.7,137.3 						"/>
					</g>
					<g>
						<polygon fill="#EDEDED" points="137.5,147.8 138.6,148.4 158,137.2 156.9,136.6 						"/>
					</g>
					<g>
						<polygon fill="#EDEDED" points="139.3,148.8 140.4,149.5 159.8,138.3 158.7,137.6 						"/>
					</g>
					<g>
						<polygon fill="#EDEDED" points="141.1,149.9 142.2,150.5 161.6,139.3 160.5,138.7 						"/>
					</g>
					<g>
						<polygon fill="#EDEDED" points="158.6,150.2 159.7,150.8 170.6,144.5 169.5,143.9 						"/>
					</g>
					<g>
						<polygon fill="#EDEDED" points="142.9,150.9 144,151.6 163.4,140.4 162.3,139.7 						"/>
					</g>
					<g>
						<polygon fill="#EDEDED" points="144.7,152 145.8,152.6 165.2,141.4 164.1,140.8 						"/>
					</g>
					<g>
						<polygon fill="#EDEDED" points="146.5,153 147.6,153.7 167,142.5 165.9,141.8 						"/>
					</g>
					<g>
						<polygon fill="#EDEDED" points="148.3,154.1 149.4,154.7 168.8,143.5 167.7,142.9 						"/>
					</g>
					<g>
						<polygon fill="#EDEDED" points="109.2,161.8 110.5,162.6 129.7,151.5 128.5,150.7 						"/>
					</g>
					<g>
						<polygon fill="#EDEDED" points="111.2,163 112.3,163.6 136.5,149.6 135.4,149 						"/>
					</g>
					<g>
						<polygon fill="#EDEDED" points="113,164 114.1,164.7 138.4,150.7 137.2,150 						"/>
					</g>
					<g>
						<polygon fill="#EDEDED" points="114.8,165.1 115.9,165.7 140.2,151.7 139,151.1 						"/>
					</g>
					<g>
						<polygon fill="#EDEDED" points="132,165.6 133,166.2 149.1,156.9 148.1,156.3 						"/>
					</g>
					<g>
						<polygon fill="#EDEDED" points="116.6,166.1 117.7,166.8 142,152.8 140.8,152.1 						"/>
					</g>
					<g>
						<polygon fill="#EDEDED" points="118.4,167.2 119.5,167.8 143.8,153.8 142.6,153.2 						"/>
					</g>
					<g>
						<polygon fill="#EDEDED" points="120.2,168.2 121.3,168.9 145.6,154.9 144.5,154.2 						"/>
					</g>
					<g>
						<polygon fill="#EDEDED" points="122,169.3 123.1,169.9 147.4,155.9 146.3,155.3 						"/>
					</g>
					<g>
						<polygon fill="#EDEDED" points="126.9,172.1 129.7,173.7 175.4,147.3 172.6,145.7 						"/>
					</g>
					<g>
						<polygon fill="#EDEDED" points="88.8,173.6 90.1,174.4 104.8,165.8 103.6,165.1 						"/>
					</g>
					<g>
						<polygon fill="#EDEDED" points="90.8,174.8 91.9,175.4 110.3,164.8 109.1,164.2 						"/>
					</g>
					<g>
						<polygon fill="#EDEDED" points="92.6,175.8 93.7,176.5 112.1,165.9 110.9,165.2 						"/>
					</g>
					<g>
						<polygon fill="#EDEDED" points="94.4,176.9 95.5,177.5 113.9,166.9 112.7,166.3 						"/>
					</g>
					<g>
						<polygon fill="#EDEDED" points="96.2,177.9 97.3,178.6 115.7,168 114.5,167.3 						"/>
					</g>
					<g>
						<polygon fill="#EDEDED" points="98,179 99.1,179.6 117.5,169 116.4,168.4 						"/>
					</g>
					<g>
						<polygon fill="#EDEDED" points="107.4,179.8 108.4,180.4 122.8,172.1 121.8,171.5 						"/>
					</g>
					<g>
						<polygon fill="#EDEDED" points="99.8,180 100.9,180.7 119.3,170.1 118.2,169.4 						"/>
					</g>
					<g>
						<polygon fill="#F1F1F1" points="193.7,180.5 194.9,181.2 210.1,172.4 208.8,171.7 						"/>
					</g>
					<g>
						<polygon fill="#EDEDED" points="101.6,181 102.7,181.7 121.1,171.1 120,170.5 						"/>
					</g>
					<g>
						<polygon fill="#F1F1F1" points="195.6,181.6 196.8,182.2 216.2,171 215,170.4 						"/>
					</g>
					<g>
						<polygon fill="#F1F1F1" points="197.4,182.6 198.6,183.3 218,172.1 216.8,171.4 						"/>
					</g>
					<g>
						<polygon fill="#F1F1F1" points="199.2,183.7 200.4,184.3 219.8,173.1 218.6,172.5 						"/>
					</g>
					<g>
						<polygon fill="#EDEDED" points="106.5,183.9 109.2,185.5 127.6,174.9 124.8,173.3 						"/>
					</g>
					<g>
						<polygon fill="#F1F1F1" points="201,184.7 202.2,185.4 221.6,174.2 220.5,173.5 						"/>
					</g>
					<g>
						<polygon fill="#F1F1F1" points="202.9,185.8 204,186.4 223.4,175.2 222.3,174.6 						"/>
					</g>
					<g>
						<polygon fill="#F1F1F1" points="213.3,186 214.4,186.6 228.7,178.3 227.7,177.7 						"/>
					</g>
					<g>
						<polygon fill="#F1F1F1" points="204.7,186.8 205.8,187.5 225.2,176.3 224.1,175.6 						"/>
					</g>
					<g>
						<polygon fill="#F1F1F1" points="206.5,187.9 207.6,188.5 227,177.3 225.9,176.7 						"/>
					</g>
					<g>
						<polygon fill="#F0F0F0" points="132,175.1 158.2,190.3 203.9,163.9 177.7,148.7 						"/>
					</g>
					<g>
						<polygon fill="#EDEDED" points="116.9,189.9 118.2,190.7 132,182.7 130.8,181.9 						"/>
					</g>
					<g>
						<polygon fill="#EDEDED" points="118.9,191.1 120,191.7 138.3,181.1 137.2,180.5 						"/>
					</g>
					<g>
						<polygon fill="#EDEDED" points="120.7,192.1 121.8,192.8 140.1,182.2 139,181.5 						"/>
					</g>
					<g>
						<polygon fill="#EDEDED" points="122.5,193.2 123.6,193.8 141.9,183.2 140.8,182.6 						"/>
					</g>
					<g>
						<polygon fill="#EDEDED" points="124.3,194.2 125.4,194.9 143.7,184.3 142.6,183.6 						"/>
					</g>
					<g>
						<polygon fill="#EDEDED" points="126.1,195.3 127.2,195.9 145.6,185.3 144.4,184.7 						"/>
					</g>
					<g>
						<polygon fill="#F1F1F1" points="167.4,195.6 168.7,196.4 188.8,184.7 187.6,184 						"/>
					</g>
					<g>
						<polygon fill="#EDEDED" points="127.9,196.3 129,197 147.4,186.4 146.2,185.7 						"/>
					</g>
					<g>
						<polygon fill="#EDEDED" points="134.5,196.7 135.6,197.3 150.9,188.4 149.8,187.8 						"/>
					</g>
					<g>
						<polygon fill="#F1F1F1" points="169.3,196.8 170.5,197.4 194.7,183.4 193.6,182.8 						"/>
					</g>
					<g>
						<polygon fill="#EDEDED" points="129.7,197.4 130.8,198 149.2,187.4 148,186.8 						"/>
					</g>
					<g>
						<polygon fill="#F1F1F1" points="193.9,197.2 195,197.8 207.3,190.7 206.2,190.1 						"/>
					</g>
					<g>
						<polygon fill="#F1F1F1" points="171.1,197.8 172.3,198.5 196.5,184.5 195.4,183.8 						"/>
					</g>
					<g>
						<polygon fill="#F1F1F1" points="172.9,198.9 174.1,199.5 198.3,185.5 197.2,184.9 						"/>
					</g>
					<g>
						<polygon fill="#F1F1F1" points="174.8,199.9 175.9,200.6 200.1,186.6 199,185.9 						"/>
					</g>
					<g>
						<polygon fill="#F1F1F1" points="176.6,201 177.7,201.6 201.9,187.6 200.8,187 						"/>
					</g>
					<g>
						<polygon fill="#F1F1F1" points="178.4,202 179.5,202.7 203.7,188.7 202.6,188 						"/>
					</g>
					<g>
						<polygon fill="#F1F1F1" points="180.2,203.1 181.3,203.7 205.5,189.7 204.4,189.1 						"/>
					</g>
					<g>
						<polygon fill="#EDEDED" points="139.7,203.2 144.6,206 210.7,167.9 205.8,165 						"/>
					</g>
					<g>
						<polygon fill="#EAEAEA" points="147.2,207.4 160.7,215.3 177.8,205.4 164.3,197.6 						"/>
					</g>
					<g>
						<polygon fill="#EDEDED" points="164.5,217.6 166,218.5 232.1,180.3 230.6,179.4 						"/>
					</g>
				</g>
			</g>
		</g>
	</g>
	<g>
		<polygon fill="#E6E6E6" points="67.9,174.1 181.8,240.3 260.2,195 262.6,196.1 182.5,243.1 62.1,176.4 		"/>
	</g>
	<g>
		<polygon fill="#FFFFFF" points="67.9,172.8 181.8,239 260.2,193.7 262.6,194.8 182.5,241.9 62.1,175.1 		"/>
	</g>
</g>
<g>
	<path opacity="0.2" fill="#3D3D3D" d="M243.8,241.3c0-0.3-0.1-0.7-0.2-0.9c-0.1-0.4-0.3-0.9-0.5-1.2c-0.1-0.3-0.3-0.7-0.7-1.2
		c-0.2-0.3-0.5-0.7-0.8-1c-0.3-0.4-0.8-0.8-1.1-1.1c-0.3-0.3-0.7-0.6-1.1-0.8c-0.3-0.2-0.7-0.5-1.1-0.7c-0.5-0.3-1.3-0.6-1.8-0.9
		c-0.7-0.3-1.4-0.5-2.2-0.7c-2-0.6-3.7-0.7-4.5-0.8c-0.2,0-1.1-0.1-2.2-0.1c-0.9,0-1.7,0.1-2.2,0.1c-0.3,0-1.2,0.1-2.2,0.3
		c-1.2,0.2-2,0.5-2.1,0.5c-0.6,0.2-1.4,0.5-2,0.7c-0.9,0.4-1.5,0.7-1.9,0.9c-0.3,0.2-0.9,0.6-1.6,1.1c-0.2,0.2-0.5,0.4-0.7,0.6
		c-0.2,0.2-0.5,0.5-0.8,0.8c-0.5,0.6-1.3,1.6-1.7,2.7c-0.1,0.2-0.3,0.8-0.5,1.5c0,0.2-0.1,0.4-0.1,0.6c0,0.3,0,0.6-0.1,0.9
		c0,2.4,1.6,4.8,4.9,6.6c6.4,3.6,16.5,3.5,22.7-0.2c3-1.8,4.5-4.2,4.5-6.5C243.9,242.2,243.9,241.7,243.8,241.3z"/>
	<g>
		<path fill="#916A40" d="M242.8,235.5c0-0.3-0.1-0.6-0.2-0.9c-0.1-0.3-0.3-0.8-0.4-1.1c-0.1-0.2-0.3-0.6-0.7-1.2
			c-0.2-0.3-0.5-0.7-0.8-1c-0.3-0.3-0.7-0.7-1.1-1c-0.3-0.3-0.7-0.6-1-0.8c-0.3-0.2-0.7-0.4-1-0.6c-0.5-0.3-1.2-0.6-1.7-0.8
			c-0.7-0.3-1.3-0.5-2-0.7c-1.9-0.5-3.5-0.7-4.2-0.7c-0.2,0-1-0.1-2.1-0.1c-0.9,0-1.6,0.1-2.1,0.1c-0.3,0-1.1,0.1-2.1,0.3
			c-1.1,0.2-1.9,0.4-2,0.5c-0.6,0.2-1.3,0.4-1.8,0.7c-0.8,0.3-1.4,0.7-1.8,0.9c-0.3,0.2-0.9,0.5-1.5,1c-0.2,0.1-0.4,0.4-0.6,0.5
			c-0.2,0.2-0.5,0.5-0.7,0.7c-0.5,0.5-1.2,1.5-1.6,2.5c-0.1,0.2-0.3,0.7-0.4,1.4c0,0.2-0.1,0.4-0.1,0.6c0,0.3,0,0.6,0,0.9
			c0,2.3,1.5,4.5,4.6,6.2c6,3.3,15.5,3.2,21.3-0.2c2.8-1.7,4.3-3.9,4.3-6.1C242.9,236.3,242.9,235.9,242.8,235.5z"/>
		<g>
			
				<ellipse transform="matrix(1 -2.834309e-03 2.834308e-03 1 -0.6626 0.6469)" fill="#AB7D4B" cx="227.9" cy="234.1" rx="11.8" ry="6.8"/>
		</g>
		<path fill="#785835" d="M242.9,241.3l0-4.7c0,2.2-1.4,4.4-4.3,6.1c-5.8,3.5-15.3,3.6-21.3,0.2c-3-1.7-4.5-4-4.6-6.2l0,4.7
			c0,2.3,1.5,4.5,4.6,6.2c6,3.3,15.5,3.2,21.3-0.2C241.5,245.7,242.9,243.5,242.9,241.3z"/>
		<path fill="#1A1A1A" d="M241.3,240.6c0-0.1,0-0.3,0-0.4c0-1.4-1.2-2.8-2.8-3.2c-0.5,0.7-1.2,1.3-2.2,1.9c-1,0.6-2.2,1.1-3.5,1.4
			c0.7,0.9,1.2,2.7,1.2,4.1c0,0.1,0,0.2,0,0.3c0,1.2,0,3.1,0,4.1c0,0.2,0,0.4,0,0.6c1.7-0.4,3.3-1.1,4.6-1.9c1-0.6,1.8-1.2,2.4-1.9
			c0.2-0.3,0.3-0.6,0.3-1C241.4,243.6,241.4,241.8,241.3,240.6z"/>
	</g>
	<g>
		<g>
			<g>
				<g>
					<g>
						<g>
							<path fill="#785835" d="M236.6,232.4c0-0.3,0-0.4,0-0.6c0-0.3-0.1-0.6-0.1-0.6c-0.1-0.4-0.3-0.8-0.6-1.2
								c-0.8-1.1-1.9-1.7-2.2-1.9c-0.1-0.1-0.3-0.1-0.4-0.1c1.5,0.8,2.3,2,2.3,3.1c0,1.1-0.7,2.2-2.1,3c-2.9,1.7-7.6,1.8-10.6,0.1
								c-1.5-0.8-2.3-2-2.3-3.1c0-1.1,0.7-2.2,2.1-3c2.9-1.7,7.6-1.8,10.6-0.1c0.2,0,0.3,0,0.4,0.1l0,0c-0.1,0-0.3-0.2-0.5-0.2
								c-0.3-0.1-0.9-0.4-1.7-0.6c-0.6-0.2-1.1-0.2-1.2-0.3c-0.7-0.1-1.2-0.2-1.2-0.2c-0.5,0-0.9,0-1.2,0c-0.4,0-0.8,0-1.2,0.1
								c-0.2,0-0.4,0.1-0.6,0.1c0,0-1.1,0.1-2.3,0.6c-0.5,0.2-0.8,0.3-1,0.4c-0.5,0.2-0.7,0.4-1,0.6c-0.2,0.1-0.5,0.3-0.6,0.5
								c-0.4,0.3-0.4,0.4-0.7,0.7c-0.1,0.1-0.2,0.3-0.5,0.7c-0.1,0.2-0.3,0.5-0.3,0.6c0,0.1-0.1,0.2-0.1,0.4c0,0.2-0.1,0.4-0.1,0.5
								c0,0.1-0.1,0.3-0.1,0.7c0,1.3,0.9,2.6,2.6,3.6c3.4,1.9,8.9,1.9,12.2-0.1C235.8,234.9,236.6,233.6,236.6,232.4z"/>
							<path fill="#916A40" d="M221,230.7c-0.1,0.1-0.3,0.2-0.4,0.3c0,0-0.1,0-0.1,0c0-1.1,0.7-2.2,2.1-3c2.9-1.7,7.6-1.8,10.6-0.1
								c1.5,0.8,2.3,2,2.3,3.1l0,0l0,0l0,0l0,0c0,1.1-0.7,2.2-2.1,3c-2.9,1.7-7.6,1.8-10.6,0.1c-1.5-0.8-2.3-2-2.3-3.1
								c0,0,0.1,0,0.1,0C220.7,230.9,220.9,230.8,221,230.7z"/>
							<path fill="#1A1A1A" d="M236.4,238.8c0.9-0.6,1.7-1.2,2.2-1.9c0,0,0,0,0,0c0,0,0,0,0,0l-2.7-1.6l-4.4,2.6l1.5,2.3
								C234.2,239.9,235.4,239.5,236.4,238.8z"/>
							<path fill="#594129" d="M236.6,233.4l0-1c0,1.3-0.8,2.5-2.4,3.5c-3.3,2-8.8,2-12.2,0.1c-1.7-1-2.6-2.3-2.6-3.6l0,1
								c0,1.3,0.9,2.6,2.6,3.6c3.4,1.9,8.9,1.9,12.2-0.1C235.8,235.9,236.6,234.6,236.6,233.4z"/>
							<path fill="#785835" d="M234.3,229.6l0-5.9c0,0.9-0.6,1.9-1.8,2.6c-2.4,1.5-6.5,1.5-9,0.1c-1.3-0.7-1.9-1.7-1.9-2.6l0,5.9
								c0,1,0.6,1.9,1.9,2.6c2.5,1.4,6.5,1.4,9-0.1C233.7,231.5,234.3,230.5,234.3,229.6z"/>
							<path fill="#664B2D" d="M220.1,224.5c0.7,0.4,1.4,0.7,2.1,0.9c-0.4-0.5-0.7-1.1-0.7-1.6c0,0.2,0.1,0.5,0.4,0.7
								c0.4,0.4,0.9,0.7,1.1,0.8c0.6,0.3,1.1,0.5,1.7,0.7c0.1,0,0.2,0,0.3,0.1c1.9,0.3,3.9,0.3,5.8,0c0.4-0.1,1.1-0.3,1.4-0.5
								c0.1-0.1,0.3-0.1,0.4-0.2c0.1-0.1,0.3-0.2,0.4-0.3c0.4-0.2,0.5-0.4,0.7-0.5c0.1-0.1,0.3-0.3,0.4-0.4c0.1-0.2,0.1-0.3,0.2-0.5
								c0,0.6-0.2,1.1-0.7,1.6c0.8-0.3,1.6-0.6,2.3-1.1c2.1-1.3,3.2-2.9,3.2-4.5c0,0.4,0,0.6-0.1,1c0,0.2-0.1,0.5-0.2,0.7
								c-0.2,0.7-0.6,1.3-0.7,1.5c-0.2,0.2-0.4,0.5-0.6,0.8c-0.2,0.2-0.4,0.4-0.6,0.6c-0.6,0.5-1.2,0.9-1.5,1.1
								c-0.1,0.1-0.6,0.4-1.4,0.7c-0.6,0.3-1.2,0.4-1.4,0.5c-0.2,0-0.7,0.2-1.5,0.4c-0.2,0-0.5,0.1-0.7,0.1c-1.6,0.4-3.5,0.4-5.1,0
								c-0.1,0-0.3,0-0.4-0.1c-0.9-0.2-1.5-0.3-1.5-0.3c-0.5-0.1-0.9-0.3-1.5-0.5c-0.4-0.2-0.9-0.4-1.3-0.6
								c-0.2-0.1-0.5-0.3-0.7-0.5c-0.2-0.1-0.4-0.3-0.5-0.4c-0.2-0.2-0.5-0.4-0.7-0.6c-0.1-0.1-0.3-0.3-0.4-0.4
								c-0.2-0.2-0.4-0.5-0.6-0.7c0,0-0.3-0.4-0.5-0.9c-0.1-0.1-0.1-0.3-0.2-0.4c-0.1-0.2-0.2-0.5-0.2-0.7c-0.1-0.3-0.1-0.6-0.1-0.8
								c0-0.1,0-0.3,0-0.4C216.8,221.5,217.9,223.2,220.1,224.5z"/>
							<g>
								
									<ellipse transform="matrix(1 -2.833415e-03 2.833415e-03 1 -0.6072 0.6466)" fill="#AB7D4B" cx="227.9" cy="214.6" rx="8.8" ry="5.1"/>
							</g>
							<path fill="#785835" d="M239.1,220l0-3.5c0,1.6-1,3.3-3.2,4.5c-4.3,2.6-11.4,2.6-15.8,0.2c-2.2-1.3-3.4-2.9-3.4-4.6l0,3.5
								c0,1.7,1.1,3.4,3.4,4.6c4.4,2.5,11.5,2.4,15.8-0.2C238,223.3,239.1,221.6,239.1,220z"/>
							<path fill="#916A40" d="M239.1,216.6c0-0.3,0-0.6-0.1-0.9c0-0.2-0.1-0.5-0.1-0.7c-0.1-0.3-0.2-0.6-0.3-0.8
								c-0.1-0.2-0.2-0.5-0.5-0.9c-0.2-0.2-0.4-0.5-0.6-0.7c-0.2-0.2-0.5-0.5-0.8-0.8c-0.2-0.2-0.5-0.4-0.8-0.6
								c-0.2-0.1-0.5-0.3-0.7-0.5c-0.3-0.2-0.7-0.1-1.2,0.1c3.5,1.9,3.5,5.2,0.2,7.2c-3.4,2-8.9,2.1-12.4,0.1
								c-3.5-1.9-3.5-5.2-0.2-7.2c3.4-2,8.9-2.1,12.4-0.1c0.5-0.3,0.9-0.3,1.2-0.1c-0.4-0.2-0.9-0.5-1.3-0.6c-0.5-0.2-1-0.4-1.5-0.5
								c-1.4-0.4-2.6-0.5-3.1-0.5c-0.1,0-0.8-0.1-1.6-0.1c-0.7,0-1.2,0-1.6,0.1c-0.2,0-0.8,0.1-1.5,0.2c-0.8,0.2-1.4,0.3-1.5,0.4
								c-0.4,0.1-1,0.3-1.4,0.5c-0.6,0.3-1,0.5-1.3,0.6c-0.2,0.1-0.7,0.4-1.1,0.8c-0.1,0.1-0.3,0.3-0.5,0.4
								c-0.2,0.2-0.4,0.4-0.5,0.5c-0.4,0.4-0.9,1.1-1.2,1.9c-0.1,0.1-0.2,0.5-0.3,1.1c0,0.1-0.1,0.3-0.1,0.4c0,0.2,0,0.5,0,0.6
								c0,1.7,1.1,3.4,3.4,4.6c4.4,2.5,11.5,2.4,15.8-0.2C238,219.8,239.1,218.2,239.1,216.6z"/>
						</g>
						<g>
							<defs>
								
									<ellipse id="SVGID_1_" transform="matrix(1 -2.833415e-03 2.833415e-03 1 -0.6072 0.6466)" cx="227.9" cy="214.6" rx="8.8" ry="5.1"/>
							</defs>
							<clipPath id="SVGID_2_">
								<use xlink:href="#SVGID_1_"  overflow="visible"/>
							</clipPath>
							
								<rect x="212.5" y="211.5" transform="matrix(-1 -1.224647e-16 1.224647e-16 -1 458.8043 424.4257)" clip-path="url(#SVGID_2_)" fill="#292929" width="33.8" height="1.4"/>
							
								<rect x="211.8" y="216.4" transform="matrix(-1 -1.224647e-16 1.224647e-16 -1 457.345 436.8302)" clip-path="url(#SVGID_2_)" fill="#292929" width="33.8" height="4.1"/>
						</g>
						<path fill="#1A1A1A" d="M219.1,217.9c-0.3,0.7,0.5,1.8,2,2.5s2.9,0.7,3.2,0c0.3-0.7-1.1-0.8-2.5-1.5
							C220.4,218.3,219.4,217.2,219.1,217.9z"/>
						<g>
							<g>
								<path fill="#1A1A1A" d="M231.4,238c1-0.3,1.9-0.6,2.7-1.1c0.7-0.4,1.3-0.9,1.7-1.4c0,0,0-0.7,0-1c0-0.6-0.4-1.3-1-1.7
									c-0.3,0.5-0.8,0.9-1.5,1.3c-0.7,0.4-1.5,0.7-2.4,1c0.3,0.6,0.5,1.4,0.5,2C231.4,237.2,231.4,238,231.4,238L231.4,238z"/>
							</g>
							<g>
								<path fill="#1A1A1A" d="M230.9,235c0.9-0.2,1.7-0.5,2.4-1c0.6-0.4,1.1-0.8,1.5-1.3c-0.6-0.4-1-1.1-1-1.7
									c-0.3,0.4-0.7,0.7-1.2,1.1c-0.6,0.4-1.3,0.6-2,0.8C230.5,233.6,230.7,234.4,230.9,235L230.9,235z"/>
							</g>
							<g>
								<path fill="#1A1A1A" d="M233.7,225.2C233.7,225.3,233.7,225.3,233.7,225.2c-0.1,0.1-0.1,0.1-0.1,0.1
									C233.6,225.4,233.7,225.3,233.7,225.2C233.7,225.3,233.7,225.3,233.7,225.2z"/>
								<path fill="#1A1A1A" d="M232.6,226.6c-0.2,0-0.7,0.2-1.5,0.4c-0.2,0-0.4,0.1-0.6,0.1c0,0,0,0,0,0c0,1.5,0,4.4,0,5.9
									c0.7-0.2,1.4-0.5,2-0.8c0.5-0.3,0.9-0.7,1.2-1.1c0-1.6,0-3.3,0-4.9C233.3,226.4,232.8,226.5,232.6,226.6z"/>
							</g>
							<path fill="#1A1A1A" d="M237.1,224.1C237.1,224.1,237.1,224.1,237.1,224.1c0.3-0.3,0.5-0.5,0.7-0.7c0,0,0-0.1,0.1-0.1
								c0.2-0.2,0.3-0.5,0.3-0.9c0-0.9,0-2.6,0-3.5c0-1-0.9-2.1-2.1-2.5c-0.4,0.6-1,1.2-1.8,1.6c-0.8,0.5-1.7,0.8-2.7,1.1
								c0.5,0.7,0.8,2.1,0.8,3c0,0.9,0,2.6,0,3.5c0,0.6-0.1,1-0.4,1.1c0,0,0,0,0,0l0.6-0.2h0c0,0,0,0,0,0c0.4-0.1,0.6-0.2,0.8-0.3
								c0.2-0.1,0.4-0.2,0.6-0.3c0,0,0,0,0,0c0.4-0.2,0.6-0.3,0.7-0.3c0.2-0.1,0.3-0.2,0.4-0.2c0.1,0,0.1-0.1,0.2-0.1c0,0,0,0,0,0
								s0,0,0,0C236.1,225,236.4,224.8,237.1,224.1z"/>
						</g>
					</g>
				</g>
			</g>
		</g>
	</g>
</g>
<g>
	<g enable-background="new    ">
		<g>
			<path fill="#ACD4D1" d="M196.3,215.4c2.9,1.7,3.8,4.1,2.4,6.3c-0.1,0.1-0.3,0.2-0.6,0.1c-0.1,0-0.1,0-0.2-0.1
				c-0.1-0.1-0.2-0.2-0.1-0.3c1.3-2,0.5-4.3-2.2-5.8c-2.8-1.6-7.1-2-10.6-1.1c-0.2,0-0.4,0-0.5-0.1c0,0-0.1,0-0.1-0.1
				c-0.1-0.1,0-0.3,0.2-0.3C188.5,213.1,193.2,213.6,196.3,215.4z"/>
		</g>
		<g>
			<path fill="#91B3B0" d="M194.6,216.3c3.1,1.8,3.1,4.7,0,6.5c-3.1,1.8-8.2,1.8-11.3,0c-3.1-1.8-3.1-4.7,0-6.5
				C186.5,214.5,191.5,214.5,194.6,216.3z M184.1,222.4c2.7,1.6,7.1,1.6,9.9,0c2.7-1.6,2.7-4.1,0-5.7c-2.7-1.6-7.1-1.6-9.9,0
				C181.4,218.3,181.4,220.9,184.1,222.4L184.1,222.4z"/>
		</g>
		<g>
			<path fill="#ACD4D1" d="M193.8,224.5C193.9,224.5,193.9,224.5,193.8,224.5c0.2,0.2,0.1,0.3-0.1,0.4c-4,1.2-8.8,0.7-11.9-1.1
				c-2.9-1.7-3.8-4.2-2.4-6.4c0.1-0.1,0.3-0.2,0.6-0.1c0.1,0,0.1,0,0.2,0.1c0.1,0.1,0.2,0.2,0.1,0.3c-1.3,2-0.5,4.3,2.2,5.8
				c2.9,1.7,7.3,2.1,10.9,1C193.5,224.4,193.7,224.4,193.8,224.5z"/>
		</g>
		<g>
			<path fill="#91B3B0" d="M197.6,214.6c4.8,2.8,4.8,7.3,0.1,10c-4.8,2.8-12.5,2.8-17.3,0c-4.8-2.8-4.8-7.3-0.1-10
				S192.9,211.8,197.6,214.6z M181.1,224.2c4.4,2.5,11.5,2.5,15.8,0c4.3-2.5,4.3-6.6-0.1-9.2s-11.5-2.5-15.8,0
				C176.7,217.5,176.8,221.6,181.1,224.2L181.1,224.2z"/>
		</g>
	</g>
</g>
<g>
	<g>
		<g>
			<path opacity="0.2" fill="#3D3D3D" d="M4.6,164.1c-2,1.1-2.2,3-0.4,4.2c1.8,1.3,4.4,3.1,7.5,5c5.5,3.2,12.7,6.6,17.6,9.3
				c0.2,0.1,0.4,0.2,0.7,0.4c0.2,0.1,0.3,0.2,0.5,0.3c0.3,0.1,0.5,0.3,0.8,0.5c6,3.5,17.8,10.6,22.8,13.2c13.5,7,22.7,11,23.2,11.2
				l0.5-0.3l1.7,0.6c0.4,0.2,1,0.1,1.4-0.1c0.4-0.2,0.4-0.6,0.2-0.8l-1.1-1l0.5-0.3c-0.4-0.3-7.3-5.6-19.3-13.5
				c-4.5-2.9-16.7-9.8-22.7-13.2c-0.3-0.2-0.6-0.3-0.8-0.5c-0.2-0.1-0.4-0.2-0.5-0.3c-0.2-0.1-0.5-0.3-0.7-0.4
				c-4.7-2.8-10.4-7-16-10.2c-3.1-1.8-6.2-3.3-8.5-4.4C9.8,162.8,6.6,162.9,4.6,164.1z"/>
		</g>
		<g>
			<g>
				<path fill="#525252" d="M3.9,161.5c0-0.2,0.1-0.6,0.3-1.1c0.1-0.3,0.2-0.4,0.2-0.5c0.1-0.1,0.2-0.3,0.2-0.4
					c0-0.1,0.1-0.1,0.1-0.2c0.1-0.1,0.2-0.2,0.3-0.4c0.2-0.3,0.3-0.4,0.4-0.4c0.2-0.2,0.3-0.3,0.4-0.4c0.1-0.1,0.3-0.2,0.6-0.4
					c0.5-0.3,0.9-0.5,0.9-0.5c0.2-0.1,0.5-0.2,0.7-0.2c0.2,0,0.4-0.1,0.6-0.1c0.1,0,0.7-0.1,1.4,0c0.2,0,0.7,0.1,1.4,0.4
					c0.2,0.1,2.2,0.9,4.4,1.9c2.1,1,3.4,1.8,4.2,2.2c5.6,3.2,11.5,7.9,16.2,10.7c-0.6-0.4-1.5-0.3-2.5,0.2c-2,1.1-3.6,3.8-3.6,6.1
					c0,1.2,0.4,2,1,2.4c-4.8-2.7-11.8-5.5-17.3-8.8c-1.7-1-3.1-1.9-4-2.6c-0.9-0.6-1.6-1.1-1.9-1.4c-1.5-1.1-2.1-1.6-2.1-1.6
					c-0.5-0.4-0.9-0.9-1-1.1c-0.1-0.1-0.2-0.2-0.2-0.3c-0.1-0.2-0.2-0.4-0.3-0.6c0,0-0.1-0.3-0.3-0.7c-0.1-0.5-0.2-1-0.2-1.2
					C3.8,162.1,3.9,161.5,3.9,161.5z"/>
				<path fill="#FFFFFF" d="M36.9,172.5c-0.2-0.1-0.5-0.3-0.7-0.4c0,0,0,0,0,0c-0.6-0.4-1.5-0.3-2.5,0.2c-2,1.1-3.6,3.8-3.6,6.1
					c0,1.2,0.4,2,1,2.4c0,0,0,0,0,0c0.2,0.1,0.4,0.2,0.7,0.4c0,0,0,0,0,0c-0.7-0.4-1.1-1.2-1-2.4c0-2.3,1.6-5,3.6-6.1
					C35.4,172.2,36.3,172.2,36.9,172.5C36.9,172.5,36.9,172.5,36.9,172.5z"/>
				<path fill="#525252" d="M37.4,172.8c-0.2-0.1-0.4-0.2-0.5-0.3c-0.6-0.4-1.5-0.3-2.5,0.2c-2,1.1-3.6,3.8-3.6,6.1
					c0,1.2,0.4,2,1,2.4c0.2,0.1,0.3,0.2,0.5,0.3c0,0,0,0,0,0c-0.7-0.4-1.1-1.2-1-2.4c0-2.3,1.6-5,3.6-6.1
					C35.9,172.5,36.8,172.5,37.4,172.8C37.4,172.8,37.4,172.8,37.4,172.8z"/>
				<path fill="#FFFFFF" d="M38.2,173.3c-0.3-0.2-0.5-0.3-0.8-0.5c-0.6-0.4-1.5-0.3-2.5,0.2c-2,1.1-3.6,3.8-3.6,6.1
					c0,1.2,0.4,2,1,2.4c0.3,0.1,0.5,0.3,0.8,0.5c-0.7-0.4-1.1-1.2-1-2.4c0-2.3,1.6-5,3.6-6.1C36.7,173,37.6,172.9,38.2,173.3z"/>
				<g>
					<path fill="#898989" d="M81.3,202.3c0-1-0.7-1.4-1.5-0.9c-0.9,0.5-1.6,1.7-1.6,2.7c0,1,0.7,1.4,1.5,0.9
						C80.5,204.5,81.2,203.3,81.3,202.3z M80.8,202.6c0,0.7-0.5,1.5-1.1,1.9c-0.6,0.3-1.1,0-1.1-0.7c0-0.7,0.5-1.5,1.1-1.9
						C80.3,201.6,80.8,201.9,80.8,202.6L80.8,202.6z"/>
				</g>
				<path fill="#525252" d="M80.9,201.4c-1.6-1.3-3.6-2.9-3.6-2.9c-1.4-1.1-1.8-1.4-2.9-2.2c-0.8-0.6-2.2-1.6-2.4-1.8
					c-1.8-1.3-1.8-1.3-2.7-2c-0.5-0.4-1.6-1.2-3.1-2.2c-1.1-0.8-1.9-1.4-3.4-2.4c-1.6-1.1-1.9-1.3-2.6-1.7c-0.9-0.6-2.7-1.7-4-2.4
					c-1.3-0.8-1.8-1.1-3.6-2.1c-0.4-0.3-1.7-1-3.9-2.2c-0.9-0.5-1.7-1-2.6-1.5c-1.2-0.7-2.5-1.4-3.7-2.1c-0.7-0.4-1.5-0.9-2.2-1.3
					c-0.4-0.2-1.2-0.7-2-1.1c-0.6-0.4-1.5-0.3-2.5,0.2c-2,1.1-3.6,3.8-3.6,6.1c0,1.2,0.4,2,1,2.4c1.1,0.7,1.5,0.9,3,1.8
					c0.3,0.2,0.8,0.5,1.1,0.7c0.4,0.2,0.8,0.5,1.2,0.7c0.8,0.5,1.7,1,2.5,1.5c1.9,1.1,3.5,2,3.9,2.3c2.1,1.2,2.7,1.6,3.8,2.2
					c2,1.1,3.5,2,3.5,2c1.9,1,2.8,1.5,2.9,1.6c0.7,0.4,1.1,0.6,2.8,1.4c1.6,0.8,2.5,1.2,3.7,1.8c1.6,0.7,2.9,1.3,3.4,1.6
					c0.5,0.2,1.1,0.5,1.6,0.7c0.4,0.2,1,0.5,1.5,0.7c0.6,0.3,2.4,1.1,4,1.7c0.7,0.3,2,0.8,3.9,1.6c0.5,0.2,1.7,0.7,2.6,1
					c-0.4-0.1-0.6-0.5-0.6-1.1c0-1,0.7-2.2,1.6-2.7C80.2,201.1,80.6,201.2,80.9,201.4z"/>
				<path fill="#6E6E6E" d="M82.1,203.9c0-0.1,0-0.2-0.1-0.4c0-0.1-0.1-0.2-0.2-0.4c-0.1-0.1-0.4-0.2-0.6,0
					c-0.4,0.2-0.8,0.8-0.8,1.3c0,0.3,0.1,0.5,0.3,0.6l0,0c0.1,0,0.1,0,0.2,0c0.1,0,0.2,0,0.3,0c0.2,0,0.3-0.1,0.5-0.2
					C81.9,204.6,82.1,204.3,82.1,203.9c0,0.2-0.1,0.3-0.3,0.5C82,204.3,82.1,204.1,82.1,203.9z"/>
				<path fill="#FFFFFF" d="M81.7,203.1c0,0-0.1-0.1-0.1-0.1c0,0,0,0-0.1-0.1c0,0-0.1-0.1-0.1-0.1c0,0-0.1-0.1-0.1-0.1
					c0,0,0,0-0.1-0.1c0,0-0.1-0.1-0.1-0.1c0,0-0.1-0.1-0.1-0.1c0,0,0,0-0.1-0.1c0,0-0.1-0.1-0.1-0.1s-0.1-0.1-0.1-0.1
					c0,0,0,0-0.1-0.1c0,0-0.1-0.1-0.1-0.1c-0.2-0.2-0.5-0.2-0.9,0c-0.6,0.3-1.1,1.2-1.1,1.9c0,0.4,0.2,0.7,0.4,0.8l0,0
					c0.3,0.1,0.5,0.1,0.8,0.2c0.3,0.1,0.5,0.1,0.8,0.2c-0.2-0.1-0.3-0.3-0.3-0.6c0-0.5,0.4-1.1,0.8-1.3
					C81.4,203,81.6,203,81.7,203.1z"/>
			</g>
			<g>
				<path fill="#FFFFFF" d="M12.2,157.5L12.2,157.5c-0.5-0.2-0.5-0.2-0.7-0.3c-0.5-0.2-0.6-0.2-1-0.3c-0.5-0.1-0.6-0.1-1-0.1
					c-0.5,0-0.6,0-1.1,0.1c-0.3,0.1-0.7,0.1-1.1,0.3c-0.2,0.1-0.4,0.2-0.6,0.3c-0.4,0.2-0.4,0.2-0.6,0.4c-0.3,0.2-0.3,0.2-0.5,0.4
					c-0.3,0.3-0.3,0.3-0.4,0.4C5,159,5,159,4.9,159.1c-0.2,0.3-0.2,0.3-0.3,0.4c-0.2,0.3-0.2,0.3-0.2,0.4c-0.1,0.3-0.1,0.3-0.2,0.5
					C4,160.7,4,160.8,4,160.9c-0.1,0.4-0.1,0.4-0.1,0.6c0,0.4,0,0.4-0.1,0.7c0,0.4,0,0.5,0,0.8c0.1,0.3,0.1,0.7,0.3,1.1
					c0.2,0.4,0.2,0.5,0.4,1c0.3,0.4,0.3,0.5,0.6,0.8c0.3,0.4,0.4,0.4,0.7,0.7c0.4,0.3,0.4,0.3,0.6,0.5l0,0c-0.6-0.5-1-1.3-1-2.5
					c0-2.5,1.8-5.6,4-6.8C10.6,157.3,11.5,157.2,12.2,157.5L12.2,157.5z"/>
			</g>
			<path fill="#FFFFFF" d="M75.7,198.5c0.6-0.3,1.2-0.3,1.5,0l0,0c0.5,0.4,0.6,0.5,1.5,1.2c0.4,0.3,0.5,0.4,1.1,0.9
				c0.3,0.2,0.3,0.2,0.7,0.6c0.1,0.1,0.2,0.2,0.3,0.3c-0.3-0.2-0.7-0.2-1.2,0c-0.9,0.5-1.6,1.7-1.6,2.7c0,0.6,0.2,1,0.6,1.1
				c-0.1,0-0.3-0.1-0.4-0.1c-0.2-0.1-0.3-0.1-0.9-0.3c-0.4-0.2-0.4-0.2-1.3-0.5c-0.5-0.2-0.5-0.2-1.8-0.7l0,0
				c-0.5-0.2-0.7-0.7-0.7-1.4C73.6,200.7,74.6,199.1,75.7,198.5z"/>
		</g>
		<g>
			<g>
				<path fill="#E6E6E6" d="M18.5,168.5c-2.6-1.5-6.2-3.1-8.4-4.3c-0.3-0.2-0.6-0.3-0.9-0.5c-0.7-0.4-1.3-0.8-1.8-1.1
					c-0.5-0.3-0.9-0.6-1.3-0.8c-0.5-0.3-0.9-0.4-1.3-0.3c-0.3,0.1-0.3,0.9,0,1.3c0.4,0.5,0.8,0.8,1.3,1.1c0.4,0.2,0.8,0.4,1.3,0.6
					c0.5,0.2,1.1,0.5,1.8,1c0.3,0.2,0.6,0.4,0.9,0.6c2.2,1.4,5.7,3.9,8.4,5.4c1.5,0.9,2.7,1.4,3.2,1.3c0.4-0.1,0.4-1.2,0-1.8
					C21.2,170.2,20,169.4,18.5,168.5z"/>
			</g>
			<g>
				<path fill="#D1D1D1" d="M18.3,168.1c-2.6-1.5-6.2-3.1-8.4-4.3c-0.3-0.2-0.6-0.3-0.9-0.5c-0.7-0.4-1.3-0.8-1.8-1.1
					c-0.5-0.3-0.9-0.6-1.3-0.8c-0.5-0.3-0.9-0.4-1.3-0.3c-0.3,0.1-0.3,0.9,0,1.3c0.4,0.5,0.8,0.8,1.3,1.1c0.4,0.2,0.8,0.4,1.3,0.6
					c0.5,0.2,1.1,0.5,1.8,1c0.3,0.2,0.6,0.4,0.9,0.6c2.2,1.4,5.7,3.9,8.4,5.4c1.5,0.9,2.7,1.4,3.2,1.3c0.4-0.1,0.4-1.2,0-1.8
					C21,169.8,19.8,169,18.3,168.1z"/>
			</g>
			<path fill="#D1D1D1" d="M5,162.3c0.3,0.1,1.2,0.7,1.5,0.9c0.6,0.3,1.3,0.7,2.2,1.1c0.3,0.2,0.7,0.4,1.1,0.7
				c2.6,1.7,6.9,4.7,10,6.5c0.4,0.2,0.8,0.4,1.1,0.6c-0.6-0.2-1.5-0.6-2.6-1.2c-2.6-1.5-6.2-4-8.4-5.4c-0.3-0.2-0.6-0.4-0.9-0.6
				c-0.7-0.4-1.3-0.7-1.8-1c-0.5-0.2-1.6-0.8-1.9-1.1C4.9,162.5,4.7,162.2,5,162.3z"/>
			<path fill="#C2C2C2" d="M18.8,168.9c-3-1.7-7-3.5-9.5-4.8c-0.4-0.2-0.7-0.4-1.1-0.6c-0.8-0.5-1.5-0.9-2-1.3
				c-0.6-0.4-1.3-0.7-1.3-0.9c0-0.1,0.4-0.1,0.9,0.2c0.4,0.2,0.8,0.5,1.3,0.8c0.5,0.3,1.1,0.7,1.8,1.1c0.3,0.2,0.6,0.3,0.9,0.5
				c2.2,1.2,5.7,2.7,8.4,4.3c1.5,0.9,2.7,1.7,3.2,2.4c0,0,0,0.1,0.1,0.1C20.8,170.1,19.9,169.5,18.8,168.9z"/>
		</g>
	</g>
</g>
<g>
	<path opacity="0.2" fill="#3D3D3D" d="M222.3,136.4c-3.8-2-8.9-4.7-14.3-7.6c-12.3-6.5-27.6-14.6-36.5-19.3
		c-0.2-0.1-0.3-0.3-0.3-0.4c0-0.2,0.1-0.3,0.3-0.4c0.7-0.4,0.7-1,0-1.4l-1.6-0.9c-0.7-0.4-1.8-0.4-2.4,0l-0.3,0.1
		c-0.2,0.1-0.5,0.2-0.8,0.2c-0.3,0-0.5-0.1-0.7-0.2c-1-0.7-2.9-2-5.1-3.4c14-10.1,12.8-24.8-3.5-33.9c-17.2-9.7-44.8-9.4-61.6,0.6
		c-16.8,10-16.4,26,0.9,35.7c15.9,8.9,40.5,9.4,57.4,1.6c2.5,1.2,4.6,2.4,5.8,3c0.2,0.1,0.3,0.3,0.3,0.4c0,0.2-0.1,0.3-0.3,0.4
		l-0.3,0.1c-0.7,0.4-0.7,1,0,1.4l1.6,0.9c0.7,0.4,1.8,0.4,2.4,0c0.2-0.1,0.5-0.2,0.7-0.2c0.3,0,0.6,0.1,0.7,0.2
		c8,5.2,21.9,14.1,33.1,21.2c4.9,3.1,9.6,6.1,13,8.3c1,0.6,2.4,1,3.8,1c1.5,0,2.9-0.3,3.9-0.9l3.5-2c1.1-0.6,1.6-1.4,1.6-2.3
		C224,137.8,223.4,137,222.3,136.4z"/>
	<g>
		<path fill="#624834" d="M85.5,73.9c0.1-0.6,0.2-1.4,0.4-2c0.1-0.4,0.2-0.9,0.4-1.3c0.2-0.7,0.6-1.6,0.9-2.2c0.4-0.8,1-1.8,1.5-2.6
			c0.3-0.4,0.7-0.9,0.9-1.3c0.6-0.9,1.6-1.9,2.4-2.6c0.6-0.6,1.5-1.4,2.2-1.9c0.5-0.4,1.2-0.9,1.8-1.3c0.7-0.5,1.6-1.1,2.4-1.5
			c0.7-0.4,1.6-0.9,2.2-1.2c0.8-0.4,1.8-0.9,2.6-1.2c2.8-1.2,5.3-1.9,5.3-1.9c1.7-0.5,3.9-1.1,5.6-1.4c2-0.4,3.9-0.7,6-0.9
			c2-0.2,4-0.3,6.1-0.3c3.1,0,5.5,0.2,6.1,0.2c1.2,0.1,3.4,0.3,6.1,0.8c0.8,0.1,3.1,0.6,6,1.4c1.6,0.5,3.7,1.2,5.3,1.8
			c0.9,0.4,2,0.9,2.9,1.3c0.7,0.3,1.6,0.8,2.3,1.2l0,0c0.8,0.5,1.9,1.1,2.7,1.7c0.8,0.6,1.9,1.4,2.7,2c0.9,0.8,2,1.8,2.8,2.7
			c0.6,0.7,1.4,1.7,1.9,2.4c0.7,1,1.3,2.2,1.6,2.8c0.4,0.8,0.7,1.8,1,2.6c0.2,0.6,0.4,1.4,0.5,2c0.1,0.8,0.2,1.8,0.2,2.6
			c0,6-3.9,12.1-11.7,16.7c-15.9,9.5-42.1,9.8-58.4,0.6c-8.3-4.7-12.5-10.9-12.5-17.1C85.4,75.3,85.5,74.5,85.5,73.9z"/>
		<g>
			
				<ellipse transform="matrix(1 -2.835223e-03 2.835223e-03 1 -0.2056 0.3596)" fill="#57402E" cx="126.7" cy="72.7" rx="37.6" ry="21.8"/>
		</g>
		<g>
			
				<ellipse transform="matrix(1 -2.834891e-03 2.834890e-03 1 -0.1879 0.3595)" fill="#57402E" cx="126.7" cy="66.5" rx="27.1" ry="15.7"/>
		</g>
		<path fill="#624834" d="M157.6,69.4c0-0.6-0.1-1.4-0.2-2.1c-0.1-0.5-0.2-1.1-0.4-1.6c-0.2-0.6-0.5-1.5-0.8-2.1
			c-0.4-0.8-0.8-1.5-1.2-2.1c-0.4-0.6-1-1.3-1.4-1.8c-0.6-0.6-1.4-1.4-2.1-2c-0.6-0.5-1.4-1.1-2-1.5c-0.6-0.4-1.4-0.9-2-1.2
			c-0.5-0.3-1.1-0.2-1.8,0.2c10.7,6,11,16,0.5,22.2c-10.4,6.2-27.6,6.4-38.4,0.4c-10.7-6-11-16-0.5-22.2c10.4-6.2,27.6-6.4,38.4-0.4
			c0.7-0.4,1.4-0.5,1.8-0.2l0,0c-0.5-0.3-1.2-0.6-1.7-0.9c-0.6-0.3-1.5-0.7-2.1-0.9c-1.2-0.5-2.7-1-3.9-1.3c-1.4-0.4-2.9-0.7-4.4-1
			c-2-0.3-3.5-0.5-4.5-0.6c-0.3,0-2.2-0.2-4.5-0.2c-1.3,0-3.1,0.1-4.5,0.2c-1.5,0.2-3,0.4-4.4,0.6c-1.3,0.2-2.9,0.7-4.2,1
			c0,0-1.9,0.5-3.9,1.4c-0.6,0.3-1.4,0.6-1.9,0.9c-0.5,0.3-1.2,0.6-1.7,0.9c-0.6,0.3-1.3,0.8-1.8,1.1c-0.4,0.3-0.9,0.7-1.3,1
			c-0.5,0.4-1.2,1-1.6,1.4c-0.6,0.6-1.3,1.3-1.8,2c-0.2,0.3-0.5,0.7-0.7,1c-0.4,0.6-0.9,1.4-1.2,2c-0.2,0.5-0.5,1.2-0.7,1.7
			c-0.1,0.3-0.2,0.7-0.3,1c-0.1,0.5-0.2,1.1-0.3,1.6c-0.1,0.5-0.1,1.1-0.1,1.6c0,4.6,3.1,9.3,9.3,12.8c12.2,6.9,31.8,6.7,43.6-0.4
			C154.7,78.4,157.6,73.9,157.6,69.4z"/>
		<path fill="#4A3626" d="M157.6,72.6l0-3.2c0,4.5-2.9,9-8.7,12.5c-11.9,7.1-31.4,7.3-43.6,0.4c-6.2-3.5-9.3-8.1-9.3-12.8l0,3.2
			c0,4.6,3.1,9.3,9.3,12.8c12.2,6.9,31.8,6.7,43.6-0.4C154.7,81.6,157.6,77.1,157.6,72.6z"/>
		<path fill="#4F3B29" d="M168.1,84.5l0-8.8c0,6-3.9,12.1-11.7,16.7c-15.9,9.5-42.1,9.8-58.4,0.6c-8.3-4.7-12.5-10.9-12.5-17.1
			l0,8.8c0,6.2,4.2,12.4,12.5,17.1c16.4,9.2,42.5,8.9,58.4-0.6C164.2,96.5,168.1,90.5,168.1,84.5z"/>
	</g>
	<g>
		<path fill="#DCDCDC" d="M142,55.9c8.5,4.9,8.5,12.8,0.1,17.8c-8.4,4.9-22.2,4.9-30.6,0c-8.5-4.9-8.5-12.8-0.1-17.7
			C119.8,51,133.5,51,142,55.9z"/>
	</g>
	<g opacity="0.2">
		<g>
			<path fill="#3D3D3D" d="M146.9,91.2c2.4-0.9,4.6-2,6.7-3.2c0.2-0.1,0.4-0.2,0.6-0.4c-1.1-0.6-3.2-1.7-4.3-2.3
				c-0.2,0.1-0.3,0.2-0.5,0.3c-1.7,1-3.6,1.9-5.7,2.7C144.5,89,146.1,90.5,146.9,91.2L146.9,91.2z"/>
		</g>
		<g>
			<path fill="#3D3D3D" d="M149,104.9c2.6-1,5.1-2.1,7.4-3.5c0.2-0.1,0.4-0.3,0.6-0.4c0-0.2,0-7.8,0-8.8c0-1.7-1.2-3.7-2.7-4.5
				c0,0,0,0,0,0c-0.2,0.1-0.4,0.2-0.6,0.4c-2.1,1.2-4.3,2.3-6.7,3.2c0,0,0,0,0,0c1.1,1,2,3.2,2,4.9C149,97.1,149,104.8,149,104.9
				L149,104.9z"/>
		</g>
		<g>
			<path fill="#3D3D3D" d="M143.7,88.3c2-0.8,3.9-1.6,5.7-2.7c0.2-0.1,0.3-0.2,0.5-0.3c-0.3-0.2-0.6-0.6-0.6-1
				c-0.2,0.1-0.3,0.2-0.5,0.3c-1.7,1-3.5,1.9-5.5,2.6C143.3,87.6,143.5,88.1,143.7,88.3L143.7,88.3z"/>
		</g>
		<g>
			<path fill="#3D3D3D" d="M141.2,79.8c1.7-0.6,3.3-1.4,4.8-2.3c0.1-0.1,0.3-0.2,0.4-0.3c-2.3-2.3-10.4-9.6-10.4-9.6s-9-0.7-9.3-0.9
				C127.2,67.2,137.4,76.4,141.2,79.8L141.2,79.8z"/>
		</g>
		<g>
			<path fill="#3D3D3D" d="M141.3,79.9c1.7-0.6,3.4-1.4,4.8-2.3c0.1-0.1,0.3-0.2,0.4-0.3c0,0-0.1-0.1-0.2-0.1
				c-0.1,0.1-0.3,0.2-0.4,0.3c-1.5,0.9-3.1,1.6-4.8,2.3C141.2,79.8,141.2,79.8,141.3,79.9L141.3,79.9z"/>
		</g>
		<g>
			<path fill="#3D3D3D" d="M143.3,87.3c2-0.7,3.8-1.6,5.5-2.6c0.2-0.1,0.3-0.2,0.5-0.3c0-0.6,0-1.9,0-2.5c0-1.7-1.2-3.7-2.7-4.5
				c-0.1,0.1-0.3,0.2-0.4,0.3c-1.5,0.9-3.1,1.7-4.8,2.3c1.1,1,2,3.2,2,4.9C143.3,85.4,143.3,86.6,143.3,87.3L143.3,87.3z"/>
		</g>
	</g>
	<g>
		<g>
			<g>
				<path fill="#6B5337" d="M113.4,46.9c-0.6,0.3-1.3,0.8-1.9,1.2c-0.3,0.2-0.6,0.5-0.9,0.7c-0.4,0.4-1,0.9-1.4,1.3
					c-0.3,0.3-0.7,0.8-1,1.1c-0.2,0.2-0.4,0.5-0.5,0.7c-0.2,0.3-0.4,0.7-0.6,1c-0.1,0.2-0.3,0.5-0.4,0.7c-0.1,0.3-0.3,0.7-0.4,0.9
					c-0.1,0.3-0.2,0.6-0.3,0.9c-0.1,0.4-0.3,1-0.3,1.4c-0.1,0.3-0.1,0.6-0.1,0.9c0,0.2-0.1,1,0,1.9c0.1,0.9,0.2,1.4,0.3,2
					c0.1,0.3,0.2,0.8,0.3,1.1c0.1,0.2,0.2,0.6,0.3,0.8c0.3,0.7,0.6,1.2,1,1.9c0.2,0.4,0.6,0.8,0.9,1.2c0.2,0.2,0.5,0.5,0.7,0.8
					c0.4,0.4,0.9,0.9,1.3,1.3c0.5,0.4,1.3,1,1.8,1.4c0.5,0.3,1.2,0.8,1.8,1.1c0.4,0.2,1,0.5,1.4,0.7c0.4,0.2,0.8,0.3,1.2,0.5
					c0.4,0.2,1,0.3,1.4,0.5c0.4,0.1,0.9,0.3,1.3,0.4c1.2,0.3,2.1,0.4,2.8,0.5c1.5,0.2,2.8,0.3,2.8,0.3c0.4,0,1,0.1,1.4,0
					c0.8,0,1.9,0,2.8-0.1c0.9-0.1,2.3-0.3,2.7-0.3c0,0,1.3-0.2,2.7-0.6c0.3-0.1,1.4-0.4,2.7-0.9c0.7-0.3,1.6-0.7,2.3-1.1
					c0.4-0.2,0.9-0.5,1.3-0.8c0.3-0.2,0.7-0.4,1-0.7c0.3-0.2,0.6-0.5,0.9-0.7c0.3-0.2,0.6-0.5,0.8-0.7c0.7-0.7,1.1-1.1,1.8-2.1
					c0.2-0.2,0.4-0.5,0.5-0.8c0.2-0.4,0.5-0.9,0.7-1.2c0.1-0.2,0.3-0.6,0.3-0.8c0.1-0.3,0.3-0.8,0.4-1.2c0.1-0.2,0.1-0.6,0.2-0.8
					c0.1-0.3,0.2-0.8,0.2-1.2c0-0.3,0.1-0.8,0.1-1.1c0-0.5,0-0.9-0.1-1.6c-0.1-0.4-0.2-1-0.3-1.4c-0.1-0.3-0.2-0.6-0.3-0.9
					c-0.1-0.3-0.2-0.6-0.4-0.9c-0.2-0.4-0.5-1-0.7-1.4c0,0-0.5-0.8-1.1-1.6c-0.6-0.7-0.7-0.9-1.5-1.6c-0.4-0.3-0.9-0.8-1.2-1
					c-0.5-0.4-1.2-0.9-1.8-1.2c-0.6-0.4-1.5-0.8-2.1-1.1c-0.5-0.2-1.1-0.5-1.6-0.7c-0.4-0.2-1-0.4-1.4-0.5c-0.4-0.1-0.9-0.3-1.3-0.4
					c-0.4-0.1-1-0.2-1.4-0.3c-0.8-0.1-1.9-0.3-2.7-0.4c-0.4-0.1-1-0.1-1.4-0.1c-0.4,0-1,0-1.4,0c-0.4,0-1,0-1.4,0
					c-1.6,0.1-2.8,0.2-2.8,0.2c-1.3,0.2-1.8,0.3-2.7,0.5c-0.4,0.1-0.9,0.2-1.3,0.3c-0.4,0.1-0.9,0.3-1.3,0.4
					c-0.4,0.1-0.9,0.3-1.2,0.4c-0.4,0.2-0.9,0.4-1.3,0.6C114.4,46.4,113.9,46.7,113.4,46.9c0.4-0.2,0.8-0.3,1.3-0.3
					c6.8-3.8,17.7-3.7,24.3,0.2s6.5,10.2-0.3,14.1s-17.7,3.7-24.3-0.2c-6.6-3.9-6.5-10.2,0.3-14.1C114.2,46.6,113.8,46.7,113.4,46.9
					z"/>
				<path fill="#473725" d="M138.7,60.9c-6.8,3.8-17.7,3.7-24.3-0.2c-6.6-3.9-6.5-10.2,0.3-14.1c6.8-3.8,17.7-3.7,24.3,0.2
					C145.6,50.8,145.4,57.1,138.7,60.9z M138.6,46.9c-6.4-3.8-16.9-3.9-23.4-0.2l0,0c-3.3,1.9-5,4.4-5,6.9c1-0.4,1.7-1.2,1.7-2.2
					c0,2.2,1.4,4.3,4.2,6c5.7,3.4,15.2,3.5,21,0.2c3-1.7,4.5-3.9,4.5-6.2c0,0.9,0.6,1.8,1.7,2.2C143.3,51.2,141.7,48.7,138.6,46.9z"
					/>
				<path fill="#755B3C" d="M112.4,37.4c-0.6,0.4-1.4,0.9-2,1.3c-0.3,0.2-0.8,0.6-1.1,0.9c-0.2,0.2-0.5,0.5-0.7,0.7
					c-0.3,0.3-0.6,0.7-0.9,1c-0.3,0.3-0.6,0.8-0.8,1.2c-0.1,0.2-0.3,0.4-0.3,0.6c-0.2,0.4-0.4,0.9-0.5,1.3c-0.1,0.2-0.1,0.5-0.2,0.7
					c0,0.2-0.1,0.5-0.1,0.7c-0.2,1.7,0.1,2.9,0.3,3.5c0.1,0.4,0.3,0.9,0.6,1.6c0.1,0.2,0.2,0.4,0.3,0.6c0.2,0.3,0.4,0.6,0.6,0.9
					c0.1,0.2,0.3,0.4,0.5,0.6c0.3,0.3,0.7,0.7,1,1c0.4,0.4,1.1,0.9,1.5,1.3c0.4,0.3,0.9,0.7,1.4,0.9c0.7,0.4,1.5,0.9,2.2,1.2
					c0.5,0.2,1.1,0.5,1.6,0.7c0.5,0.2,1.1,0.4,1.5,0.5c0.4,0.1,1,0.3,1.4,0.4c1.1,0.3,2.1,0.5,3,0.6c1.5,0.2,2.7,0.3,3.1,0.3
					c1.5,0.1,2.7,0,3.1,0c0.5,0,1.1-0.1,1.6-0.1c0.5,0,1.1-0.1,1.5-0.2c0,0,1.4-0.2,3-0.5c0.4-0.1,1-0.2,1.4-0.4
					c0.4-0.1,1-0.3,1.4-0.4c0.4-0.1,0.9-0.3,1.3-0.5c0.4-0.2,0.9-0.4,1.4-0.6c0.4-0.2,1-0.5,1.4-0.7c0.6-0.3,1.3-0.8,1.8-1.2
					c0.2-0.2,0.6-0.4,0.8-0.6c0.4-0.3,0.9-0.8,1.3-1.2c0.2-0.2,0.4-0.4,0.5-0.6c0.2-0.3,0.5-0.7,0.8-1c0.2-0.3,0.4-0.6,0.5-0.9
					c0.2-0.3,0.4-0.8,0.5-1.1c0.1-0.2,0.2-0.6,0.3-0.8c0.1-0.2,0.1-0.5,0.2-0.8c0-0.3,0.1-0.8,0.1-1.1c0-0.3,0-0.6,0-0.9
					c0-0.3-0.1-0.6-0.1-0.9c-0.1-0.4-0.2-0.9-0.4-1.3c-0.1-0.3-0.3-0.7-0.4-1c-0.1-0.2-0.2-0.5-0.4-0.7c-0.2-0.4-0.5-0.8-0.8-1.1
					c-0.2-0.2-0.4-0.5-0.6-0.7c-0.4-0.4-0.9-0.9-1.3-1.3c-0.5-0.4-1.2-1-1.8-1.3c-0.5-0.3-1.2-0.7-1.7-1c-0.4-0.2-1-0.5-1.4-0.7
					c-0.8-0.3-1.8-0.7-2.6-1c-2.1-0.7-4-0.9-4.6-1c-0.5-0.1-1.1-0.2-1.5-0.2c-0.5,0-1.1-0.1-1.5-0.1c-0.5,0-1.1-0.1-1.6-0.1
					c-0.5,0-1.1,0-1.6,0c-0.5,0-1.1,0.1-1.6,0.1c-0.9,0.1-2.1,0.2-3.1,0.4c-0.5,0.1-1,0.2-1.5,0.3c-0.4,0.1-1,0.3-1.4,0.4
					c-0.4,0.1-1,0.3-1.4,0.4c-0.4,0.1-0.9,0.3-1.3,0.5c-0.4,0.2-0.9,0.4-1.3,0.6C113.4,36.8,112.8,37.1,112.4,37.4
					c0.2-0.1,0.5-0.1,0.9,0.1c7.6-4.3,19.9-4.2,27.3,0.3s7.3,11.5-0.4,15.8c-7.6,4.3-19.9,4.2-27.3-0.3c-7.4-4.4-7.3-11.5,0.4-15.8
					C112.9,37.3,112.6,37.2,112.4,37.4z"/>
				<path fill="#654F33" d="M113.5,37.6c0,0-0.2-0.1-0.2-0.1c-7.6,4.3-7.8,11.4-0.4,15.8c7.4,4.4,19.6,4.6,27.3,0.3
					c7.6-4.3,7.8-11.4,0.4-15.8s-19.6-4.6-27.3-0.3C113.3,37.5,113.5,37.6,113.5,37.6c7.5-4.2,19.6-4.1,26.9,0.3
					c7.3,4.4,7.1,11.3-0.4,15.6c-7.5,4.2-19.6,4.1-26.9-0.3S105.9,41.8,113.5,37.6z"/>
				<path fill="#D9B71C" d="M107.8,30.7l0,14.7c0,2.8,1.8,5.5,5.4,7.7c7.3,4.4,19.3,4.5,26.9,0.3c3.8-2.1,5.7-5,5.8-7.9l0-14.7
					c0,2.9-1.9,5.7-5.8,7.9c-7.5,4.2-19.6,4.1-26.9-0.3C109.5,36.3,107.7,33.5,107.8,30.7z"/>
				<path fill="#705839" d="M112.4,19.8c-0.6,0.3-1.3,0.8-1.9,1.2c-0.3,0.2-0.6,0.4-0.8,0.6c-0.3,0.2-0.6,0.5-0.8,0.8
					c-0.3,0.3-0.7,0.7-1,1.1c-0.1,0.2-0.3,0.4-0.4,0.6c-0.2,0.3-0.4,0.6-0.6,0.9c-0.1,0.2-0.2,0.4-0.3,0.6c-0.1,0.2-0.3,0.6-0.4,0.8
					c-0.1,0.3-0.3,0.8-0.3,1.1c-0.1,0.2-0.1,0.5-0.1,0.8c0,0.3-0.1,0.7-0.1,1.1c0,0.2,0,0.5,0,0.7c0.1,0.9,0.3,1.5,0.3,1.7
					c0.1,0.3,0.2,0.7,0.4,1c0.1,0.2,0.2,0.5,0.3,0.7c0.2,0.3,0.4,0.8,0.7,1.1c0.1,0.2,0.4,0.5,0.5,0.7c0.3,0.4,0.8,0.9,1.2,1.3
					c0.5,0.4,1.1,1,1.7,1.4c0.4,0.3,0.9,0.6,1.3,0.9c0.7,0.4,1.6,0.9,2.3,1.2c0.5,0.2,1.1,0.5,1.5,0.6c0.4,0.2,1,0.4,1.5,0.5
					c0.4,0.1,1,0.3,1.4,0.4c2.2,0.5,4.3,0.8,6.1,0.9c2.9,0.2,5.3-0.1,6.2-0.2c0.6-0.1,1.7-0.2,3-0.5c1-0.2,2-0.5,2.9-0.8
					c0.9-0.3,1.8-0.6,2.7-1.1c0.4-0.2,0.8-0.4,1.2-0.6c0.4-0.2,0.9-0.5,1.2-0.7c0.3-0.2,0.7-0.4,1-0.7c0.3-0.3,0.8-0.6,1.1-0.9
					c0.2-0.2,0.5-0.5,0.7-0.7c0.3-0.3,0.6-0.7,0.9-1c0.2-0.2,0.4-0.5,0.5-0.7c0.2-0.4,0.5-0.9,0.7-1.2c0.2-0.4,0.4-0.9,0.5-1.3
					c0.1-0.2,0.1-0.5,0.2-0.7c0.1-0.4,0.1-0.9,0.2-1.3c0-0.2,0-1-0.1-1.5c0-0.3-0.1-0.6-0.2-0.9c-0.1-0.2-0.1-0.5-0.2-0.8
					c-0.1-0.4-0.3-0.8-0.5-1.2c-0.1-0.3-0.3-0.6-0.5-0.8c-0.2-0.3-0.4-0.6-0.6-0.9c-0.1-0.2-0.4-0.4-0.5-0.6c-0.3-0.3-0.7-0.7-1-1
					c-0.5-0.4-1.1-0.9-1.6-1.3c-0.8-0.5-1.2-0.8-2.2-1.3c-0.4-0.2-1-0.5-1.5-0.7c-0.8-0.3-1.8-0.7-2.6-1c-0.5-0.1-1.1-0.3-1.6-0.4
					c-0.5-0.1-1.1-0.2-1.5-0.3c-0.4-0.1-1-0.2-1.5-0.3c-0.5-0.1-1.1-0.2-1.6-0.2c-0.5,0-1.1-0.1-1.5-0.1c-0.5,0-1.1-0.1-1.6-0.1
					c-0.5,0-1.1,0-1.6,0c-0.5,0-1.1,0.1-1.6,0.1c-0.9,0.1-2.1,0.2-3,0.4c-0.4,0.1-1,0.2-1.5,0.3c-0.4,0.1-1,0.2-1.4,0.4
					c-0.4,0.1-1,0.3-1.4,0.4c-0.4,0.1-0.9,0.3-1.3,0.5c-0.4,0.2-0.9,0.4-1.4,0.6C113.4,19.2,112.9,19.5,112.4,19.8
					c0.1-0.1,0.3-0.1,0.5-0.1c7.8-4.4,20.4-4.3,28,0.3c7.6,4.6,7.4,11.8-0.4,16.2s-20.4,4.3-28-0.3s-7.4-11.8,0.4-16.2
					C112.8,19.7,112.6,19.7,112.4,19.8z"/>
				<path fill="#5E4A30" d="M140.6,36.2c-7.8,4.4-20.4,4.3-28-0.3c-7.6-4.6-7.4-11.8,0.4-16.2c7.8-4.4,20.4-4.3,28,0.3
					C148.6,24.6,148.4,31.8,140.6,36.2z M137.6,34.8c-0.4,0.2-0.9,0.4-1.4,0.6C136.7,35.3,137.2,35.1,137.6,34.8z M135.5,35.7
					c-0.2,0.1-0.5,0.2-0.7,0.2C135.1,35.9,135.3,35.8,135.5,35.7z M134.4,36c-0.2,0.1-0.5,0.1-0.8,0.2C134,36.2,134.2,36.1,134.4,36
					z M132.5,36.5c-0.4,0.1-0.8,0.2-1.2,0.2C131.8,36.7,132.2,36.6,132.5,36.5z M130.6,36.9c-0.7,0.1-1.3,0.2-2,0.2
					C129.2,37,129.9,36.9,130.6,36.9z M124.9,37c0.4,0,0.8,0,1.2,0.1c0.7,0,1.4,0,2,0c-0.7,0-1.4,0-2,0
					C125.7,37.1,125.3,37.1,124.9,37c-3.8-0.2-7.4-1.2-10.3-2.9c-0.4-0.3-0.8-0.5-1.2-0.8c0.4,0.3,0.8,0.5,1.2,0.8
					C117.5,35.8,121.1,36.8,124.9,37z M141.5,23.9c-0.1-0.1-0.1-0.3-0.3-0.6c-0.1-0.2-0.3-0.4-0.4-0.6c-0.1-0.2-0.3-0.4-0.5-0.6
					c-0.2-0.2-0.4-0.4-0.6-0.6c-0.6-0.5-1-0.8-1.7-1.2c-0.3-0.2-0.7-0.4-1-0.5c-0.3-0.1-0.7-0.3-1-0.4c-0.6-0.2-1.4-0.5-1.9-0.7
					c-0.3-0.1-0.8-0.2-1.2-0.3c-0.3-0.1-0.8-0.2-1.1-0.3c-0.7-0.1-1.7-0.3-2.4-0.3c0,0-1.1-0.1-2.5-0.1c-2.4,0-4.5,0.3-6.1,0.6
					c-1.3,0.3-2.2,0.6-2.3,0.6c-0.4,0.1-0.9,0.3-1.2,0.5c-0.5,0.2-1.2,0.5-1.7,0.8l0,0c-0.4,0.2-0.8,0.5-1.2,0.7
					c-0.2,0.1-0.4,0.3-0.5,0.4c-0.2,0.2-0.5,0.4-0.7,0.6c-0.2,0.2-0.4,0.5-0.6,0.7c-0.1,0.1-0.2,0.3-0.3,0.4c0,0.1-0.1,0.2-0.2,0.3
					c-0.1,0.1-0.1,0.2-0.2,0.4c0,0.1-0.1,0.2-0.1,0.2c0,0.1-0.1,0.2-0.1,0.3c0,0.1,0,0.2-0.1,0.3c0,0.1,0,0.3,0,0.4
					c0,2.2,1.4,4.3,4.2,6c5.7,3.4,15.2,3.5,21,0.2c3-1.7,4.5-3.9,4.5-6.2c0-0.1,0-0.3-0.1-0.6C141.6,24.1,141.5,23.9,141.5,23.9z
					 M134.1,18.4C134.1,18.4,134.1,18.4,134.1,18.4C134.1,18.4,134.1,18.4,134.1,18.4z M113,33c-0.2-0.2-0.4-0.3-0.5-0.5
					C112.7,32.7,112.8,32.9,113,33z M110.2,29.5c0.1,0.2,0.1,0.3,0.2,0.5c0.1,0.2,0.2,0.3,0.2,0.4c-0.1-0.1-0.2-0.3-0.2-0.4
					C110.4,29.8,110.3,29.7,110.2,29.5c-0.1-0.2-0.1-0.3-0.2-0.5C110.1,29.2,110.2,29.4,110.2,29.5z M109.9,28.4
					c0,0.2,0.1,0.3,0.1,0.5C110,28.7,109.9,28.5,109.9,28.4c-0.1-0.4-0.1-0.8-0.1-1.2c0,0,0-0.1,0-0.1c0,0,0,0.1,0,0.1
					C109.8,27.6,109.8,28,109.9,28.4z M109.9,26.2c0,0.2-0.1,0.4-0.1,0.6C109.8,26.6,109.8,26.4,109.9,26.2z M143.7,27.3
					c0-0.5-0.1-0.9-0.2-1.4C143.7,26.4,143.7,26.8,143.7,27.3c0,0.4,0,0.8-0.1,1.2C143.7,28.1,143.7,27.7,143.7,27.3z M143.6,28.7
					c-0.1,0.3-0.2,0.6-0.3,0.9C143.4,29.4,143.5,29.1,143.6,28.7z M142.9,30.3c-0.1,0.1-0.1,0.2-0.2,0.3
					C142.8,30.5,142.9,30.4,142.9,30.3z"/>
				<path fill="#4F3D28" d="M115.5,29.6c-0.6-0.4-1-0.7-1.6-1.2c-0.2-0.2-0.5-0.5-0.7-0.7c-0.1-0.1-0.3-0.3-0.4-0.5
					c-0.2-0.3-0.4-0.5-0.4-0.7c-0.1-0.2-0.2-0.3-0.2-0.6c-0.1-0.2-0.1-0.4-0.1-0.5c0-0.1,0-0.2,0-0.3c0-0.2,0-0.2,0-0.4
					c0,2.2,1.4,4.3,4.2,6c5.7,3.4,15.2,3.5,21,0.2c3-1.7,4.5-3.9,4.5-6.2c0,0.1,0,0.1,0,0.2c0,0.1,0,0.2,0,0.3
					c0,0.2-0.1,0.5-0.1,0.5c0,0.1,0,0.2-0.1,0.2c0,0.1-0.1,0.2-0.1,0.3c0,0.1-0.1,0.2-0.1,0.2c-0.1,0.1-0.1,0.2-0.2,0.3
					c-0.4,0.5-0.7,0.9-0.9,1.1c-0.2,0.2-0.4,0.4-0.6,0.6c-0.1,0.1-0.4,0.3-0.5,0.4c-0.2,0.1-0.4,0.3-0.6,0.4
					c-0.2,0.1-0.5,0.3-0.7,0.4c-0.2,0.1-0.5,0.3-0.8,0.4c-0.3,0.2-0.8,0.4-1.1,0.5c-0.6,0.2-1.1,0.4-2.1,0.7
					c-0.7,0.2-1.6,0.4-2.2,0.5c-2.8,0.5-5.8,0.5-8.6,0.1c-1.2-0.2-2-0.4-2.3-0.4c-0.8-0.2-0.9-0.2-2.1-0.6c-0.3-0.1-0.7-0.2-0.9-0.4
					c-0.3-0.1-0.7-0.3-1-0.4C116.2,30,115.8,29.8,115.5,29.6z"/>
				<path fill="#705839" d="M147.7,15.9c-0.1-0.5-0.2-1.2-0.3-1.6c-0.1-0.3-0.3-0.8-0.4-1.1c-0.1-0.4-0.3-0.8-0.5-1.1
					c-0.1-0.2-0.3-0.6-0.4-0.8c-0.2-0.4-0.5-0.8-0.8-1.2c-0.4-0.5-0.9-1.1-1.3-1.5c-0.4-0.4-0.9-0.9-1.4-1.3c-0.5-0.4-1.3-1-1.9-1.3
					c-0.4-0.2-0.9-0.6-1.4-0.8c-0.3-0.2-0.8-0.4-1.1-0.5c-0.4-0.2-1.1-0.4-1.5-0.6c-0.4-0.2-1-0.4-1.4-0.5c-0.4-0.1-0.9-0.3-1.3-0.4
					c-0.4-0.1-1-0.2-1.4-0.3c-0.8-0.1-1.9-0.3-2.7-0.4c-0.4-0.1-1-0.1-1.4-0.1c-0.4,0-1,0-1.4,0c-0.4,0-1,0-1.4,0
					c-1.6,0.1-2.7,0.2-2.8,0.2c-0.4,0.1-1,0.1-1.4,0.2c-0.4,0.1-0.9,0.2-1.3,0.3c-0.4,0.1-0.9,0.2-1.3,0.3c-0.4,0.1-0.9,0.3-1.3,0.4
					c-0.4,0.1-0.9,0.3-1.2,0.5c-0.4,0.2-0.9,0.4-1.3,0.6c-0.4,0.2-1,0.5-1.4,0.7c-0.6,0.4-1.4,0.8-2,1.3c-0.9,0.7-1.3,1-1.9,1.6
					c-0.4,0.4-0.9,0.9-1.2,1.3c-0.2,0.2-0.4,0.5-0.5,0.7c-0.2,0.4-0.5,0.8-0.7,1.2c-0.1,0.2-0.3,0.5-0.4,0.8
					c-0.1,0.3-0.3,0.8-0.5,1.2c-0.3,0.9-0.4,1.7-0.5,2c0,0.2-0.1,0.6-0.1,0.8c0,0.3,0,0.7,0,1c0,0.4,0,1,0.1,1.4
					c0,0.3,0.1,0.6,0.1,0.9c0.1,0.3,0.1,0.6,0.2,0.9c0.1,0.4,0.3,1,0.5,1.4c0.1,0.3,0.3,0.6,0.4,0.9c0.1,0.3,0.4,0.7,0.5,0.9
					c0.5,0.8,1.2,1.6,1.2,1.7c0.2,0.2,0.4,0.5,0.6,0.7c0.3,0.3,0.8,0.7,1.1,1c0.5,0.4,1.2,0.9,1.7,1.3c0.5,0.4,1.3,0.8,1.9,1.1
					c0.4,0.2,1,0.5,1.5,0.7c0.4,0.2,0.8,0.3,1.2,0.5c0.4,0.2,1,0.3,1.4,0.5c0.4,0.1,0.9,0.3,1.3,0.4c1,0.3,1.9,0.4,2.8,0.5
					c1.5,0.2,2.8,0.3,2.8,0.3c0.4,0,1,0.1,1.4,0c0.8,0,1.9,0,2.8-0.1c0.3,0,1.7-0.2,2.8-0.3c0.5-0.1,1.5-0.3,2.7-0.6
					c0.4-0.1,0.9-0.3,1.2-0.4c0.4-0.1,1-0.3,1.4-0.5c0.3-0.1,0.8-0.3,1.1-0.5c0.4-0.2,1-0.5,1.5-0.7c0.3-0.2,0.7-0.4,1-0.6
					c0.5-0.4,1.2-0.9,1.7-1.3c0.2-0.1,1-0.9,1.6-1.5c0.3-0.3,0.7-0.7,0.9-1.1c0.2-0.3,0.5-0.7,0.7-1c0.5-0.7,0.8-1.5,0.9-1.6
					c0.2-0.4,0.4-1,0.5-1.4c0.1-0.3,0.2-0.6,0.2-0.9c0.1-0.3,0.1-0.6,0.2-0.9c0.1-0.4,0.1-1,0.1-1.4
					C147.9,17.5,147.8,16.5,147.7,15.9z"/>
				<path fill="#4E3F28" d="M118.5,14.9c4.5,2.7,11.9,2.8,16.5,0.2c4.6-2.6,4.7-6.9,0.2-9.5c-4.5-2.7-11.9-2.8-16.5-0.2l0,0
					C114.1,8,114,12.2,118.5,14.9z"/>
				<path fill="#5E4A30" d="M137.8,18.5c-6.2,3.5-16.2,3.4-22.2-0.2c-6.1-3.6-5.9-9.4,0.3-12.9c6.2-3.5,16.2-3.4,22.2,0.2
					C144.1,9.3,144,15,137.8,18.5z M135.4,5.4c0.1,0,0.1,0.1,0.2,0.1C135.5,5.5,135.5,5.5,135.4,5.4z M135.2,5.5
					c-0.8-0.5-1.8-0.9-2.7-1.2c-0.6-0.2-1.1-0.3-1.3-0.3c-0.6-0.1-1.4-0.2-2-0.3c-0.3,0-0.7-0.1-1-0.1c-0.3,0-0.7,0-1,0
					c-0.3,0-0.7,0-1,0c-0.3,0-0.7,0-1.1,0.1c-0.6,0-1.4,0.2-2,0.3c-0.3,0-0.7,0.1-1,0.2c-0.1,0-0.3,0.1-0.6,0.1
					c-0.9,0.3-1.8,0.7-2.6,1.1l0,0c-4.6,2.6-4.7,6.9-0.2,9.5c4.5,2.7,11.9,2.8,16.5,0.2C139.6,12.5,139.7,8.2,135.2,5.5z"/>
			</g>
			<g>
				<g>
					<path fill="#333333" d="M134.7,62.6c-5.3,1.6-11.8,1.5-16.9-0.3c-1.2,2.1-2,4.8-2,7c0,1.7,0.5,2.8,1.3,3.1l1.2,0.4
						c1.7,0.5,1.7,0.5,2.7,0.7c1.8,0.3,1.8,0.3,2.8,0.4c1.8,0.1,1.8,0.1,2.8,0.2c1.9,0,1.9,0,2.8-0.1c1.8-0.2,1.8-0.2,2.8-0.3
						c1.8-0.3,1.8-0.4,2.7-0.6l0.6-0.2c0.7-0.2,1.2-1.3,1.2-3.1C136.5,67.5,135.8,64.7,134.7,62.6L134.7,62.6z"/>
				</g>
				<g>
					<path fill="#333333" d="M134.4,62c-5.1,1.6-11.3,1.4-16.3-0.3c-0.1,0.1-0.2,0.4-0.3,0.5c5.1,1.8,11.6,1.9,16.9,0.3
						C134.6,62.4,134.5,62.2,134.4,62L134.4,62z"/>
				</g>
				<g>
					<path fill="#333333" d="M133.6,59c-4.6,1.4-10.2,1.3-14.7-0.3c0,0.9-0.3,2.1-0.9,3c5,1.8,11.2,1.9,16.3,0.3
						C133.9,61.1,133.6,59.9,133.6,59L133.6,59z"/>
				</g>
				<g>
					<path fill="#333333" d="M135.7,55.4c-6,1.8-13.2,1.7-19-0.4c-0.5,0.5-0.9,1.5-0.9,2.3c0,0.4,0.1,0.7,0.3,0.8l1.2,0.4
						c1.9,0.5,1.9,0.5,2.9,0.7c2,0.3,2,0.3,3,0.4c2.1,0.2,2.1,0.2,3.1,0.2c2.1,0,2.1,0,3.1-0.1c2-0.2,2.1-0.2,3.1-0.4
						c1.9-0.4,2-0.4,3-0.7l0.6-0.2c0.2-0.1,0.3-0.3,0.3-0.8C136.5,57,136.2,55.9,135.7,55.4L135.7,55.4z"/>
				</g>
				<g>
					<path fill="#333333" d="M135.6,55.3c-5.9,1.8-13,1.6-18.7-0.4c0,0-0.1,0.1-0.2,0.1c5.8,2.1,13,2.2,19,0.4
						C135.7,55.4,135.6,55.3,135.6,55.3L135.6,55.3z"/>
				</g>
				<g>
					<path fill="#333333" d="M135.4,40.6c-6,1.8-13.2,1.6-18.9-0.5l0,14.7c5.7,2.1,12.9,2.3,18.9,0.5L135.4,40.6L135.4,40.6z"/>
				</g>
				<g>
					<path fill="#333333" d="M133.8,36.2c-5,1.3-10.8,1.1-15.5-0.5c-0.4,0.5-1.1,1.6-1.4,2.1c-0.4,0.6-0.6,1.4-0.6,2
						c0,0.4,0.1,0.7,0.3,0.8l0.8,0.3c1.9,0.5,1.9,0.5,2.9,0.7c2,0.3,2,0.3,3,0.4c2.1,0.2,2.1,0.2,3.1,0.2c2.1,0,2.1,0,3.1-0.1
						c2.1-0.2,2.1-0.2,3.1-0.4c0.8-0.2,1.8-0.4,2.6-0.6C136.2,40.7,134.9,38.3,133.8,36.2L133.8,36.2z"/>
				</g>
				<g>
					<path fill="#333333" d="M133,32.8c-4.3,1.1-9.5,1-13.6-0.4c0,1.1-0.4,2.4-1.1,3.4c4.8,1.6,10.6,1.8,15.5,0.5
						C133.3,35.3,133,33.9,133,32.8L133,32.8z"/>
				</g>
				<g>
					<path fill="#333333" d="M133.4,31.5c-0.6,0.1-1.4,0.3-2,0.4c-1.6,0.2-1.6,0.2-2.4,0.3c-1.6,0.1-1.6,0.1-2.5,0.1
						c-1.6-0.1-1.6-0.1-2.5-0.1c-1.6-0.2-1.6-0.2-2.4-0.4c-1.4-0.3-1.5-0.3-2.3-0.6l-0.6-0.2c0.3,0.1,0.5,0.6,0.5,1.3
						c4.2,1.4,9.3,1.5,13.6,0.4C133,31.8,133.2,31.6,133.4,31.5L133.4,31.5z"/>
				</g>
				<g>
					<path fill="#333333" d="M132.6,18.9c-4.1,1.1-8.8,0.9-12.7-0.4c-0.2,0.3-0.7,0.9-0.9,1.3c4.4,1.5,9.8,1.6,14.4,0.4
						C133.1,19.9,132.8,19.3,132.6,18.9L132.6,18.9z"/>
				</g>
				<g>
					<path fill="#333333" d="M132.2,17.7c-3.8,1-8.2,0.9-11.8-0.3c-0.2,0.4-0.3,0.9-0.5,1.2c3.9,1.3,8.7,1.4,12.7,0.4
						C132.4,18.6,132.3,18.1,132.2,17.7L132.2,17.7z"/>
				</g>
				<g>
					<path fill="#333333" d="M131.7,16.4c-3.4,0.9-7.4,0.8-10.7-0.3c-0.3,0.3-0.4,0.9-0.6,1.3c3.6,1.2,8,1.3,11.8,0.3
						C132,17.3,131.9,16.7,131.7,16.4L131.7,16.4z"/>
				</g>
				<g>
					<path fill="#333333" d="M133.3,20.3c-4.6,1.2-10,1.1-14.4-0.4c-1.6,2.2-2.7,5.5-2.7,8.2c0,1.7,0.5,2.8,1.2,3.1l0.8,0.2
						c1.7,0.5,1.7,0.5,2.7,0.7c1.8,0.3,1.8,0.3,2.8,0.4c1.8,0.1,1.8,0.1,2.8,0.2c1.9,0,1.9,0,2.8-0.1c1.8-0.2,1.8-0.2,2.8-0.3
						c0.7-0.1,1.7-0.3,2.4-0.5C136.3,30.9,135.7,24.4,133.3,20.3L133.3,20.3z"/>
				</g>
			</g>
		</g>
		<g>
			<g>
				<path fill="#5B482F" d="M142.3,42.2l-0.8-0.5c-0.5-0.3-1.2-0.3-1.9,0.2c-1.5,0.9-2.8,3-2.8,4.8c0,0.9,0.3,1.6,0.8,1.8l0.8,0.5
					c-0.5-0.3-0.8-0.9-0.8-1.8c0-1.8,1.3-3.9,2.8-4.8C141.1,41.9,141.8,41.9,142.3,42.2z"/>
				<path fill="#82673F" d="M137,48.9c0-0.1,0-0.5,0.1-0.9c0.1-0.5,0.2-0.9,0.2-0.9c0-0.1,0.1-0.3,0.1-0.4c0-0.1,0.1-0.3,0.2-0.4
					c0.1-0.1,0.1-0.3,0.2-0.4c0.1-0.1,0.1-0.3,0.2-0.4c0.1-0.1,0.1-0.3,0.2-0.4c0.4-0.8,0.9-1.4,1.4-2c0.2-0.2,0.4-0.5,0.7-0.7
					c0.4-0.4,0.8-0.6,0.8-0.6c0.1-0.1,0.2-0.2,0.4-0.2c0.1-0.1,0.3-0.2,0.5-0.3c0.5-0.2,0.6-0.3,1-0.4c0.2-0.1,0.4-0.1,0.6-0.1
					c0.1,0,0.2,0,0.3,0c0.1,0,0.3,0,0.5,0c0.1,0,0.2,0,0.3,0c0,0,0.3,0,0.7,0.2c0.1,0,0.3,0.1,0.4,0.1c0.1,0,0.2,0.1,0.2,0.1
					l0.2,0.1c0.1,0.1,0.2,0.1,0.3,0.2c0.1,0.1,0.3,0.2,0.4,0.4c0.1,0.1,0.2,0.3,0.3,0.4c0.1,0.1,0.2,0.3,0.3,0.5
					c0.2,0.3,0.3,0.6,0.4,1.1c0,0.1,0.1,0.3,0.1,0.5c0,0.2,0,0.5,0,0.8c0,0.6-0.1,1.2-0.3,1.9c0,0.1-0.1,0.5-0.3,0.9
					c-0.1,0.4-0.3,0.7-0.4,0.9c-0.1,0.3-0.5,0.9-1,1.7c-0.2,0.2-0.6,0.8-1.3,1.5c-0.5,0.5-1,0.8-1.5,1.1c-0.2,0.1-0.4,0.2-0.5,0.3
					c-0.1,0-0.2,0.1-0.3,0.1c-0.2,0.1-0.4,0.1-0.6,0.2c-0.2,0-0.4,0.1-0.6,0.1c-0.1,0-0.3,0-0.5,0c-0.1,0-0.2,0-0.3,0
					c-0.3,0-0.6-0.1-0.7-0.2c-0.1,0-0.2-0.1-0.3-0.1c-0.1,0-0.2-0.1-0.2-0.1l-0.2-0.1c0,0-0.1-0.1-0.1-0.1c0,0,0,0,0,0
					c-0.1,0-0.1-0.1-0.2-0.1c-0.1,0-0.1-0.1-0.2-0.2c-0.1-0.1-0.3-0.3-0.4-0.4c-0.2-0.2-0.4-0.6-0.7-1.2c0-0.1-0.1-0.4-0.2-0.8
					c0-0.2,0-0.4,0-0.5C137,49.1,137,49,137,48.9z M140.7,52.1c0.7,0.4,1.6,0.4,2.7-0.2c2.1-1.2,3.9-4.2,3.9-6.7
					c0-1.3-0.4-2.2-1.1-2.6c-0.7-0.4-1.6-0.4-2.7,0.2c-2.1,1.2-3.9,4.2-3.9,6.7C139.5,50.8,140,51.7,140.7,52.1z"/>
				<path fill="#705937" d="M143.5,42.9c1.1-0.6,2-0.6,2.7-0.2c0.7,0.4,1.1,1.3,1.1,2.6c0,2.5-1.8,5.5-3.9,6.7
					c-1.1,0.6-2,0.6-2.7,0.2c-0.7-0.4-1.2-1.3-1.1-2.6C139.6,47.1,141.3,44.1,143.5,42.9z M142.6,51.6c0.2,0,0.3,0,0.3,0
					c0.1,0,0.2,0,0.2-0.1c0.1,0,0.2-0.1,0.2-0.1c0.1,0,0.3-0.1,0.4-0.2c0,0,0.3-0.2,0.5-0.3c0.1-0.1,0.3-0.3,0.5-0.4
					c0.1-0.1,0.2-0.2,0.2-0.2c0.5-0.5,0.9-1.1,1-1.4c0.3-0.5,0.6-1.1,0.7-1.6c0.1-0.4,0.2-0.6,0.2-0.6c0-0.1,0-0.2,0.1-0.3
					c0-0.2,0-0.4,0-0.5c0-0.2,0-0.5-0.1-0.9c0,0-0.1-0.2-0.1-0.3c-0.1-0.1-0.1-0.2-0.2-0.2c-0.5-0.3-1.2-0.3-2,0.2
					c-1.6,0.9-2.9,3.1-2.9,5c0,0.9,0.3,1.6,0.9,1.9C142.4,51.5,142.5,51.6,142.6,51.6z"/>
				<path fill="#57442C" d="M144.5,44.6c0.8-0.4,1.5-0.5,2-0.2c0.8,0.5,1.5,0.9,2.3,1.4l0,0l0,0l0,0c0,0,0,0,0,0
					c-0.1-0.1-0.4-0.1-0.5,0c-0.3,0.1-0.6,0.2-0.7,0.3c-0.3,0.1-0.6,0.4-0.7,0.5c-0.3,0.3-0.3,0.3-0.5,0.4c-0.2,0.2-0.2,0.2-0.5,0.5
					c-0.1,0.1-0.4,0.5-0.6,0.9c-0.1,0.2-0.3,0.6-0.5,1c-0.2,0.5-0.3,1-0.4,1c0,0.2-0.1,0.4-0.1,0.6c0,0.3,0,0.4,0,0.6
					c0,0,0,0.4,0.1,0.8c0,0.1,0.1,0.2,0.1,0.3c0.1,0.1,0.1,0.1,0.1,0.2c0,0,0,0,0,0c-0.4-0.2-0.8-0.4-1.2-0.7
					c-0.4-0.2-0.8-0.4-1.2-0.7c-0.5-0.3-0.9-1-0.9-1.9C141.5,47.7,142.8,45.5,144.5,44.6z"/>
				<path fill="#5E4931" d="M144.2,51.6c0-0.4,0.1-0.6,0.1-0.7c0-0.1,0.1-0.3,0.1-0.4c0.1-0.2,0.1-0.5,0.2-0.7c0,0,0.2-0.4,0.3-0.7
					c0.1-0.2,0.2-0.5,0.4-0.7c0.1-0.1,0.1-0.2,0.2-0.3c0,0,0.2-0.3,0.4-0.6c0.3-0.4,0.5-0.6,0.5-0.6c0.3-0.3,0.3-0.3,0.6-0.5
					c0.4-0.3,0.6-0.4,0.6-0.5c0.1,0,0.2-0.1,0.3-0.2c0.1-0.1,0.3-0.2,0.4-0.2c0.3-0.1,0.5-0.2,0.9-0.3c0.1,0,0.2,0,0.3-0.1
					c0.3,0,0.3,0,0.5,0c0.1,0,0.2,0,0.3,0c0.1,0,0.3,0,0.4,0.1c0.1,0,0.4,0.1,0.6,0.2c0.1,0,0.1,0.1,0.2,0.1c0,0,0.1,0.1,0.2,0.1
					c0,0,0,0,0,0c0,0,0.1,0.1,0.1,0.1c0,0,0,0,0,0c0,0,0,0,0,0l0,0c2.7,1.9,12.9,9,16.1,11.3c-0.5-0.4-1.2-0.3-2,0.1
					c-1.5,0.9-2.8,3-2.8,4.8c0,1,0.3,1.6,0.9,1.9c-3.5-1.7-14.8-7-17.8-8.4l0,0c0,0,0,0,0,0c0,0,0,0,0,0c-0.1,0-0.2-0.1-0.3-0.2
					c-0.1-0.1-0.2-0.1-0.3-0.2c0,0-0.2-0.2-0.4-0.5c-0.3-0.4-0.5-0.9-0.6-1.4C144.2,52.4,144.2,51.8,144.2,51.6z"/>
				<path fill="#FFFFFF" d="M170.5,58.4c1-0.6,2-0.6,2.7-0.3c0.8,0.4,1.3,1.3,1.3,2.7c0,2.6-1.9,5.7-4.1,6.9
					c-1.2,0.6-2.2,0.7-2.9,0.2c-0.7-0.5-1.1-1.3-1-2.6C166.4,62.7,168.2,59.6,170.5,58.4z M169.8,67.4c0.2,0,0.4-0.1,0.4-0.1
					c0.1,0,0.3-0.1,0.4-0.2c0,0,0.4-0.2,0.5-0.3c0.1-0.1,0.3-0.3,0.5-0.4c0.1-0.1,0.2-0.2,0.3-0.2c0.2-0.2,0.2-0.2,0.5-0.5
					c0.1-0.1,0.2-0.2,0.2-0.3c0,0,0.2-0.3,0.4-0.6c0.3-0.5,0.6-1.1,0.8-1.7c0.1-0.4,0.2-0.7,0.2-0.7c0-0.1,0-0.3,0.1-0.4
					c0-0.2,0-0.4,0-0.6c0-0.1,0-0.3,0-0.5c0-0.2-0.1-0.3-0.1-0.5c0-0.1-0.1-0.2-0.2-0.3c-0.1-0.1-0.2-0.1-0.2-0.2
					c-0.5-0.3-1.2-0.2-2,0.2c-1.7,0.9-3.1,3.3-3.1,5.3c0,0.9,0.3,1.6,0.8,2C169.4,67.5,169.7,67.4,169.8,67.4z"/>
				<path fill="#785F3B" d="M162.3,63.8c0-0.1,0-0.5,0.1-1c0.1-0.5,0.2-1,0.2-1c0-0.1,0.1-0.3,0.1-0.5c0-0.1,0.1-0.3,0.2-0.5
					c0.1-0.1,0.1-0.3,0.2-0.5c0.1-0.1,0.1-0.3,0.2-0.5c0.1-0.1,0.2-0.3,0.2-0.4c0.1-0.1,0.2-0.3,0.2-0.4c0.2-0.3,0.4-0.6,0.5-0.8
					c0,0,0.2-0.3,0.6-0.8c0.2-0.2,0.4-0.5,0.7-0.7c0.4-0.4,0.8-0.6,0.8-0.6c0.1-0.1,0.3-0.2,0.4-0.2c0.1-0.1,0.3-0.2,0.5-0.3
					c0.1-0.1,0.2-0.1,0.4-0.2c0.2-0.1,0.5-0.2,0.7-0.3c0.2-0.1,0.4-0.1,0.6-0.1c0.1,0,0.2,0,0.3,0c0.1,0,0.3,0,0.5,0
					c0.1,0,0.2,0,0.3,0c0,0,0.3,0,0.7,0.2c0.1,0,0.3,0.1,0.4,0.2c0.1,0,0.2,0.1,0.2,0.1l1.6,1c-0.3-0.2-0.6-0.3-0.9-0.3
					c0.3,0,0.7,0.2,0.9,0.3c0.1,0.1,0.2,0.2,0.3,0.2c0.1,0.1,0.3,0.2,0.4,0.4c0.1,0.1,0.3,0.3,0.3,0.4c0.1,0.1,0.2,0.3,0.3,0.5
					c0.2,0.3,0.3,0.7,0.4,1.1c0,0.1,0.1,0.3,0.1,0.5c0,0.2,0,0.6,0,0.8c0,0.7-0.1,1.2-0.3,1.9c0,0.1-0.1,0.5-0.3,0.9
					c-0.2,0.4-0.3,0.7-0.4,0.9c-0.1,0.3-0.5,1-1,1.7c-0.2,0.2-0.6,0.9-1.3,1.5c-0.5,0.5-1,0.8-1.5,1.1c-0.2,0.1-0.4,0.2-0.5,0.3
					c-0.1,0-0.2,0.1-0.4,0.1c-0.2,0.1-0.4,0.1-0.6,0.2c-0.2,0-0.4,0.1-0.6,0.1c-0.1,0-0.3,0-0.5,0c-0.1,0-0.2,0-0.3,0
					c-0.3,0-0.6-0.1-0.7-0.2c-0.1,0-0.2-0.1-0.3-0.1c-0.1,0-0.2-0.1-0.2-0.1l0,0l-1.6-1c0,0-0.1-0.1-0.1-0.1c0,0,0,0,0,0
					c-0.1,0-0.1-0.1-0.2-0.1c-0.1,0-0.1-0.1-0.2-0.2c-0.1-0.1-0.3-0.3-0.4-0.4c-0.2-0.3-0.5-0.6-0.7-1.3c0-0.1-0.1-0.5-0.2-0.9
					c0-0.2,0-0.4,0-0.5C162.3,64,162.3,63.9,162.3,63.8z"/>
				<g>
					<path fill="#634C33" d="M225.9,93.3c0-1.1-0.8-1.6-1.8-1.1c-1,0.5-1.8,1.9-1.8,3.1c0,1.1,0.8,1.6,1.8,1.1
						C225.1,95.8,225.9,94.4,225.9,93.3z"/>
				</g>
				<path fill="#6C5437" d="M227.4,91.3c0-0.1,0-0.3,0-0.5c0-0.2,0-0.4-0.1-0.6c0-0.3-0.1-0.6-0.2-0.9c-0.1-0.2-0.2-0.5-0.2-0.7
					c-0.1-0.2-0.2-0.5-0.4-0.8c-0.1-0.2-0.4-0.6-0.5-0.8c-0.1-0.1-0.2-0.3-0.3-0.4c-0.1-0.1-0.2-0.2-0.3-0.3
					c-0.2-0.2-0.5-0.4-0.8-0.6c-0.1-0.1-0.4-0.2-0.5-0.3c-0.9-0.5-2.2-0.4-3.6,0.4c-3,1.7-5.4,5.8-5.5,9.3c0,1.7,0.5,2.9,1.4,3.5
					l0,0c0.2,0.2,0.6,0.3,0.8,0.5c0.2,0.1,0.4,0.2,0.6,0.2c0.3,0.1,0.6,0.2,0.9,0.2c0.5,0.1,0.9,0.1,1,0.1c0.3,0,0.6,0,0.9-0.1
					c0.3,0,0.6-0.1,0.9-0.2c0.2-0.1,0.5-0.2,0.7-0.3c0.1-0.1,0.3-0.1,0.4-0.2c0.2-0.1,0.5-0.3,0.7-0.4c0.2-0.2,0.5-0.4,0.8-0.6
					c0.1-0.1,0.3-0.2,0.4-0.3c0.2-0.2,0.4-0.4,0.6-0.6c0.1-0.2,0.4-0.5,0.5-0.7c0.1-0.1,0.2-0.2,0.2-0.3c0.1-0.1,0.2-0.2,0.2-0.4
					c0.1-0.1,0.1-0.3,0.2-0.4c0.1-0.2,0.1-0.2,0.4-0.8c0.1-0.1,0.1-0.3,0.2-0.4c0,0,0.1-0.3,0.3-0.8c0.1-0.3,0.2-0.7,0.2-0.9
					C227.4,92,227.4,91.7,227.4,91.3c0,0.7-0.5,1.5-1.5,2c0,1.1-0.8,2.5-1.8,3.1c-1,0.5-1.8,0.1-1.8-1.1c0-1.1,0.8-2.5,1.8-3.1
					c1-0.5,1.8-0.1,1.8,1.1C226.9,92.7,227.4,92,227.4,91.3z"/>
				<path fill="#614B32" d="M224,85.5c-16.8-8.5-33.7-17-50.5-25.6c-0.5-0.3-1.3-0.2-2,0.2c-1.7,0.9-3.1,3.3-3.1,5.3
					c0,1,0.3,1.6,0.8,2l0,0c15.7,10.4,31.5,20.8,47.2,31.2c-0.9-0.6-1.5-1.8-1.4-3.5c0-3.5,2.5-7.6,5.5-9.3
					C221.8,85.1,223.1,85,224,85.5z"/>
			</g>
			<g>
				<path fill="#CCCCCC" d="M137,48.6c0,0.1,0,0.3,0,0.5c0.1,0.4,0.1,0.7,0.2,0.9c0.2,0.6,0.5,1,0.7,1.2c0.1,0.1,0.3,0.3,0.4,0.4
					c0.1,0.1,0.1,0.1,0.2,0.2c0,0,0.1,0.1,0.2,0.1c0,0,0,0,0,0c0,0,0.1,0.1,0.1,0.1l0.2,0.1c0.1,0,0.2,0.1,0.2,0.1
					c0.1,0,0.2,0.1,0.3,0.1c0.1,0,0.3,0.1,0.7,0.2c0.1,0,0.2,0,0.3,0c0.1,0,0.3,0,0.5,0c0.2,0,0.4,0,0.6-0.1c0.2,0,0.4-0.1,0.6-0.2
					c0.1,0,0.2-0.1,0.3-0.1c0.2-0.1,0.4-0.2,0.5-0.3c0.2-0.1,0.3-0.2,0.5-0.3c0.2,0.1,0.4,0.2,0.6,0.4c0,0.2,0,0.3,0.1,0.5
					c0.1,0.5,0.3,1,0.6,1.4c0.2,0.3,0.4,0.5,0.4,0.5c0.2,0.1,0.2,0.2,0.3,0.2c0.2,0.1,0.3,0.2,0.3,0.2c0,0,0,0,0,0c0,0,0,0,0,0l0,0
					c2.6,1.2,11.8,5.6,16.4,7.8c0,0.3,0,0.5,0,0.6c0,0.1,0,0.3,0,0.4c0,0.2,0,0.4,0,0.5c0.1,0.4,0.2,0.7,0.2,0.9
					c0.2,0.7,0.5,1,0.7,1.3c0.1,0.1,0.3,0.3,0.4,0.4c0.1,0.1,0.1,0.1,0.2,0.2c0.1,0,0.1,0.1,0.2,0.1c0,0,0,0,0,0
					c0,0,0.1,0.1,0.1,0.1l1.7,1l0,0c0.1,0,0.2,0.1,0.2,0.1c0.1,0,0.2,0.1,0.3,0.1c0.1,0,0.3,0.1,0.7,0.2c0.1,0,0.2,0,0.3,0
					c0.1,0,0.3,0,0.5,0c0.2,0,0.4,0,0.6-0.1c0.2,0,0.5-0.1,0.6-0.2c0.1,0,0.3-0.1,0.4-0.1c0.2-0.1,0.4-0.2,0.6-0.3
					c0.1-0.1,0.3-0.1,0.4-0.2C186,77.8,201.5,88,216.9,98.2c0,0-0.1-0.1-0.1-0.1c0,0,0.1,0.1,0.1,0.1c0.3,0.2,0.6,0.3,0.9,0.5
					c0.2,0.1,0.4,0.2,0.6,0.2c0.3,0.1,0.6,0.2,0.9,0.2c0.5,0.1,0.9,0.1,1,0.1c0.3,0,0.6,0,0.9-0.1c0.3,0,0.7-0.1,0.9-0.2
					c0.2-0.1,0.5-0.2,0.7-0.3c0.1-0.1,0.3-0.1,0.4-0.2c0.2-0.1,0.5-0.3,0.7-0.4c0,0,0,0,0,0c-0.2,0.1-0.4,0.3-0.5,0.4
					c-0.2,0.1-0.5,0.3-0.7,0.4c-0.1,0.1-0.3,0.1-0.4,0.2c-0.2,0.1-0.5,0.2-0.7,0.3c-0.3,0.1-0.6,0.2-0.9,0.2c-0.3,0-0.6,0.1-0.9,0.1
					c-0.1,0-0.5,0-1-0.1c-0.3,0-0.6-0.1-0.9-0.2c-0.2-0.1-0.4-0.1-0.6-0.2c-0.3-0.1-0.6-0.3-0.8-0.5c0,0-0.1-0.1-0.1-0.1
					c0,0,0.1,0.1,0.1,0.1c-15.3-10.1-30.7-20.3-46-30.4c-0.1,0.1-0.3,0.2-0.4,0.2c-0.2,0.1-0.4,0.2-0.5,0.3c-0.1,0-0.2,0.1-0.4,0.1
					c-0.2,0.1-0.4,0.1-0.6,0.2c-0.2,0-0.4,0.1-0.6,0.1c-0.1,0-0.3,0-0.5,0c-0.1,0-0.2,0-0.3,0c-0.3,0-0.6-0.1-0.7-0.2
					c-0.1,0-0.2-0.1-0.3-0.1c-0.1,0-0.2-0.1-0.2-0.1l0,0l-1.6-1c0,0-0.1-0.1-0.1-0.1c0,0,0,0,0,0c-0.1,0-0.1-0.1-0.2-0.1
					c-0.1,0-0.1-0.1-0.2-0.2c-0.1-0.1-0.3-0.3-0.4-0.4c-0.2-0.3-0.5-0.6-0.7-1.3c0-0.1-0.1-0.5-0.2-0.9c0-0.2,0-0.4,0-0.5
					c0-0.1,0-0.3,0-0.4c0-0.1,0-0.3,0-0.6c-4.5-2.1-13.6-6.5-16.3-7.7l0,0c0,0,0,0,0,0c0,0,0,0,0,0c-0.1,0-0.2-0.1-0.3-0.2
					c-0.1-0.1-0.2-0.1-0.3-0.2c0,0-0.2-0.2-0.4-0.5c-0.3-0.4-0.5-0.9-0.6-1.4c0-0.2-0.1-0.3-0.1-0.5c-0.2-0.1-0.4-0.2-0.6-0.4
					c-0.2,0.1-0.3,0.2-0.5,0.3c-0.2,0.1-0.4,0.2-0.5,0.3c-0.1,0-0.2,0.1-0.3,0.1c-0.2,0.1-0.4,0.1-0.6,0.2c-0.2,0-0.4,0.1-0.6,0.1
					c-0.1,0-0.3,0-0.5,0c-0.1,0-0.2,0-0.3,0c-0.3,0-0.6-0.1-0.7-0.2c-0.1,0-0.2-0.1-0.3-0.1c-0.1,0-0.2-0.1-0.2-0.1l-0.2-0.1
					c0,0-0.1-0.1-0.1-0.1c0,0,0,0,0,0c-0.1,0-0.1-0.1-0.2-0.1c-0.1,0-0.1-0.1-0.2-0.2c-0.1-0.1-0.3-0.3-0.4-0.4
					c-0.2-0.2-0.4-0.6-0.7-1.2c0-0.1-0.1-0.4-0.2-0.8c0-0.2,0-0.4,0-0.5c0-0.1,0-0.3,0-0.4C137,48.8,137,48.7,137,48.6z"/>
				<path fill="#B8B8B8" d="M137.1,47.4c0,0.2,0,0.4-0.1,0.6c-0.2-0.3-0.3-0.7-0.3-1.3c0-0.1,0-0.2,0-0.3
					C136.8,46.8,136.9,47.1,137.1,47.4z"/>
			</g>
			<g>
				<g>
					<path fill="#424242" d="M139.4,43.1c0.3-0.3,0.5-0.5,1-0.7c0.4-0.2,0.8-0.4,1.4-0.3c-0.2-0.1-0.8-0.4-0.8-0.5
						c-0.4-0.1-0.9,0.1-1.4,0.3c-0.3,0.2-0.7,0.4-1,0.7C138.7,42.6,139.2,43,139.4,43.1L139.4,43.1z"/>
				</g>
				<g>
					<path fill="#424242" d="M142.2,43.9c0.4-0.4,0.9-0.7,1.3-1c0.7-0.4,1.4-0.5,2-0.5c0.3-0.7,0.1-1.5-0.5-1.8
						c-0.1,0-0.2-0.1-0.2-0.1c-0.1-0.1-0.2-0.1-0.3-0.1c-0.3,0-0.4,0-0.7,0c-0.4,0-0.5,0.1-0.9,0.2c-0.4,0.1-0.6,0.2-1.2,0.5
						c-0.5,0.3-0.5,0.3-0.8,0.5c-0.5,0.4-0.5,0.4-0.7,0.6l-0.1,0.1c0.1-0.1,0.3-0.1,0.6,0.1c0.1,0,0.2,0.1,0.2,0.1
						C141.4,42.8,142,43.4,142.2,43.9L142.2,43.9z"/>
				</g>
				<g>
					<path fill="#424242" d="M143.5,45.3c0.3-0.3,0.6-0.6,1-0.7c0.5-0.3,1-0.4,1.5-0.4c-0.5-0.3-0.7-1.1-0.5-1.8
						c-0.6-0.1-1.2,0.1-2,0.5c-0.5,0.3-0.9,0.6-1.3,1C142.3,44.4,142.9,45,143.5,45.3L143.5,45.3z"/>
				</g>
				<g>
					<path fill="#424242" d="M145.8,46.7c0.3-0.3,0.6-0.5,1-0.7c0.5-0.3,1-0.4,1.5-0.4c-0.6-0.3-1.7-1-2.3-1.4
						c-0.4-0.1-0.9,0.1-1.5,0.4c-0.3,0.2-0.7,0.4-1,0.7C144,45.7,145.2,46.4,145.8,46.7L145.8,46.7z"/>
				</g>
				<g>
					<path fill="#424242" d="M146.5,46.8L146.5,46.8c0.4-0.3,0.4-0.3,0.6-0.5c0.2-0.2,0.3-0.2,0.5-0.3c0.2-0.1,0.2-0.1,0.4-0.2
						c0.1,0,0.2-0.1,0.3-0.1c0.1,0,0.1,0,0.2,0c0.1,0,0.1,0,0.1,0c0,0,0,0,0,0c-0.1,0-0.3-0.1-0.4-0.1c-0.4-0.1-0.9,0.1-1.5,0.4
						c-0.3,0.2-0.6,0.4-1,0.7C146.1,46.9,146.4,46.9,146.5,46.8L146.5,46.8z"/>
				</g>
				<g>
					<path fill="#424242" d="M147.5,46.9c0.4-0.4,0.9-0.8,1.4-1c0.7-0.4,1.4-0.6,2-0.5c-0.1-0.1-0.3-0.2-0.5-0.2l-0.1,0
						c-0.2,0-0.3,0-0.5,0c-0.3,0-0.3,0-0.5,0.1c-0.3,0.1-0.3,0.1-0.6,0.2c-0.3,0.1-0.4,0.2-0.7,0.3c-0.3,0.2-0.4,0.2-0.6,0.4
						c-0.3,0.3-0.4,0.3-0.6,0.5l-0.1,0.1C146.7,46.6,147.1,46.7,147.5,46.9L147.5,46.9z"/>
				</g>
				<g>
					<path fill="#424242" d="M164.8,57.8c0.3-0.3,0.6-0.5,1-0.7c0.5-0.3,1-0.4,1.4-0.3c-3.3-2.3-13.6-9.5-16.4-11.4
						c-0.6-0.1-1.3,0.1-2,0.5c-0.5,0.3-0.9,0.6-1.4,1C150.4,48.7,161.4,55.7,164.8,57.8L164.8,57.8z"/>
				</g>
				<g>
					<path fill="#424242" d="M169.1,59.4c0.5-0.4,0.8-0.7,1.4-1c0.7-0.4,1.4-0.6,2-0.5c0.3-0.7,0.1-1.6-0.5-1.9
						c-0.4-0.2-1.2-0.7-1.6-1c-0.1-0.1-0.2-0.1-0.3-0.1c-0.4,0-0.4,0-0.8,0c-0.4,0-0.5,0.1-0.9,0.2c-0.4,0.1-0.7,0.2-1.2,0.5
						c-0.5,0.3-0.5,0.3-0.8,0.5c-0.5,0.4-0.5,0.4-0.7,0.6l-0.1,0.1c0.1-0.1,0.3-0.1,0.7,0.1c0.4,0.2,1.2,0.7,1.6,1
						C168.3,58.3,168.9,58.9,169.1,59.4L169.1,59.4z"/>
				</g>
				<g>
					<path fill="#424242" d="M170.4,60.9c0.3-0.3,0.7-0.6,1-0.8c0.6-0.3,1.1-0.4,1.5-0.4c-0.6-0.3-0.8-1.1-0.5-1.8
						c-0.6-0.1-1.3,0.1-2,0.5c-0.5,0.3-0.8,0.5-1.4,1C169.3,60,169.9,60.6,170.4,60.9L170.4,60.9z"/>
				</g>
				<g>
					<path fill="#424242" d="M224.1,94.3C224.1,94.3,224.1,94.3,224.1,94.3C224.1,94.3,224.1,94.3,224.1,94.3c0-0.1,0.7-1.7,0.9-2.3
						c1.1-2.6,0.2-5.8-1.9-6.8c-12.5-6.4-37.5-19.2-50.1-25.4c-0.4-0.1-1,0.1-1.5,0.4c-0.4,0.2-0.7,0.5-1,0.8
						c12,6.5,36.1,19.7,48.2,26.3c2,1.1,4.3,3.6,4.9,5.4C223.7,93.1,224.1,94.2,224.1,94.3L224.1,94.3z"/>
				</g>
			</g>
		</g>
	</g>
</g>
</svg>
