<?xml version="1.0" encoding="utf-8"?>
<!-- Generator: Adobe Illustrator 22.1.0, SVG Export Plug-In . SVG Version: 6.00 Build 0)  -->
<svg version="1.0" id="Layer_1" xmlns="http://www.w3.org/2000/svg" xmlns:xlink="http://www.w3.org/1999/xlink" x="0px" y="0px"
	 viewBox="0 0 274 257" enable-background="new 0 0 274 257" xml:space="preserve">
<g>
	<g>
		<polygon fill="#24E2FF" points="19.8,151.6 170.6,227 255.7,184.4 104.9,109 		"/>
		<polygon fill="#6BEBFF" points="229.5,197.6 170.6,227 46.1,164.7 104.9,135.3 		"/>
		<polygon fill="#57D5FF" points="104.9,109.1 255.7,184.5 255.7,175.4 104.9,100 		"/>
		<polygon fill="#1FAFDE" points="104.9,100 19.8,142.5 19.8,151.6 104.9,109.1 		"/>
		<g>
			<polygon fill="#CCF8FF" points="104.9,99.9 255.7,175.3 265.7,170.6 114.9,95.2 			"/>
			<polygon fill="#CCF8FF" points="170.6,217.9 179.1,222.4 264.2,179.9 255.7,175.3 			"/>
			<polygon fill="#CCF8FF" points="11.4,138.1 19.8,142.6 104.9,100.1 96.4,95.5 			"/>
			<polygon fill="#CCF8FF" points="9.8,147.3 160.7,222.7 170.6,218 19.8,142.6 			"/>
			<polygon fill="#CCF8FF" points="95.4,96.1 104.3,100.4 115.2,95.4 106.2,90.8 			"/>
			<polygon fill="#CCF8FF" points="160.5,222.7 169.4,227 180.3,222 172.2,217.1 			"/>
			<polygon fill="#CCF8FF" points="254.3,176 263.2,180.3 273.3,174.7 265,170.3 			"/>
			<polygon fill="#CCF8FF" points="1.3,143.3 10.3,147.6 20.3,142.4 12.5,137.5 			"/>
		</g>
	</g>
	<g>
		<path fill="#FFFFFF" d="M146.6,141.6c-0.4,0-0.7-0.3-0.7-0.7c0-1.1-1.1-27-0.1-33.2c0.7-4,3.2-4.6,4.3-4.6c2.6-0.1,5.3,2,6,4.7
			c0.6,2.4,1.3,12.9,0.9,15.8c0,0,0,0,0,0.1l0,0c0,0,0,0,0,0l0,0l0,0c-0.1,0.4-0.1,0.6-0.2,0.7l-0.3,0.3l-0.9-0.3l-0.1-0.5
			c0-0.1,0-0.2,0-0.3c0.1-1.7,0-11.8-0.9-15.3c-0.6-2-2.6-3.7-4.5-3.6c-1.5,0.1-2.5,1.3-2.9,3.4c-1,6,0.1,32.6,0.1,32.9
			C147.4,141.2,147.1,141.6,146.6,141.6C146.6,141.6,146.6,141.6,146.6,141.6z"/>
		<path fill="#FFFFFF" d="M133.6,135.1c-0.4,0-0.7-0.3-0.7-0.7c0-1.1-1.1-27-0.1-33.2c0.7-4,3.2-4.6,4.3-4.6c2.6-0.1,5.3,2,6,4.7
			c0.6,2.4,1.3,12.9,0.9,15.8c0,0,0,0,0,0.1l0,0c0,0,0,0,0,0l0,0l0,0c-0.1,0.4-0.1,0.6-0.2,0.7l-0.3,0.3l-0.9-0.3l-0.1-0.5
			c0-0.1,0-0.2,0-0.4c0.1-1.7,0-11.8-0.9-15.3c-0.6-2-2.6-3.7-4.5-3.6c-1.5,0.1-2.5,1.3-2.9,3.4c-1,6,0.1,32.6,0.1,32.9
			C134.3,134.8,134,135.1,133.6,135.1C133.6,135.1,133.6,135.1,133.6,135.1z"/>
		
			<rect x="138.9" y="123.6" transform="matrix(0.3886 -0.9214 0.9214 0.3886 -35.1754 208.7349)" fill="#FFFFFF" width="1.5" height="14.5"/>
		
			<rect x="138.9" y="115.1" transform="matrix(0.3886 -0.9214 0.9214 0.3886 -27.2683 203.488)" fill="#FFFFFF" width="1.5" height="14.5"/>
		
			<rect x="138.9" y="107" transform="matrix(0.3886 -0.9214 0.9214 0.3886 -19.8494 198.5536)" fill="#FFFFFF" width="1.5" height="14.5"/>
	</g>
	<g>
		<path fill="#FF4D4D" d="M154.2,176.5c6.3-3.1,17.4,0,23.7,3.1c0.7,0.4,1.9-2.6,2.5-2.2c4.2,3.1,3,10.8-2.5,13.5
			c-6.3,3.1-16.4,3.1-22.7,0C148.9,187.9,147.9,179.6,154.2,176.5z M161,182.5c-3.1,1.5-3.1,4,0,5.5c3.1,1.5,8,1.5,11.1,0
			c3.1-1.5,3.1-4,0-5.5C169,181,164,181,161,182.5z"/>
		<path fill="#FF7878" d="M155.2,175.7c6.3-3.1,16.4-3.1,22.7,0c6.3,3.1,6.3,8.2,0,11.3c-6.3,3.1-16.4,3.1-22.7,0
			C148.9,183.9,148.9,178.8,155.2,175.7z M161,178.6c-3.1,1.5-3.1,4,0,5.5c3.1,1.5,8,1.5,11.1,0c3.1-1.5,3.1-4,0-5.5
			C169,177.1,164,177.1,161,178.6z"/>
		<path fill="#FFA8A8" d="M156,184.5c5.6,2.7,14.7,2.7,20.3,0c1.6-0.8,2.7-1.6,3.4-2.6c0,1.7-1.3,3.3-3.9,4.6
			c-5.2,2.5-13.5,2.5-18.7,0c-2.2-1.1-3.5-2.5-3.8-3.9C153.9,183.3,154.8,183.9,156,184.5z"/>
		<path fill="#C73C3C" d="M154.8,189.3c6.1,3,16.5,3.6,22.4,0.2c4.3-2.5,4.8-4,5.6-4.9c0,1.7-1.6,5-5.7,6.8c-7.4,3.2-15.2,2.5-21,0
			c-2.5-1.1-5.1-3.2-5.7-6.2C151,185.8,151.4,187.7,154.8,189.3z"/>
	</g>
	<g>
		<path fill="#4DA9FF" d="M88,163.2c6.2-3.1,17.3,0,23.5,3.1c0.7,0.4,1.9-2.6,2.5-2.2c4.2,3.1,3,10.7-2.5,13.4
			c-6.2,3.1-16.3,3.1-22.5,0C82.8,174.5,81.8,166.3,88,163.2z M94.8,169.2c-3,1.5-3,4,0,5.5c3,1.5,8,1.5,11,0c3-1.5,3-4,0-5.5
			C102.7,167.7,97.8,167.7,94.8,169.2z"/>
		<path fill="#78BEFF" d="M89,162.4c6.2-3.1,16.3-3.1,22.5,0c6.2,3.1,6.2,8.1,0,11.2c-6.2,3.1-16.3,3.1-22.5,0
			C82.8,170.6,82.8,165.5,89,162.4z M94.8,165.3c-3,1.5-3,4,0,5.5c3,1.5,8,1.5,11,0c3-1.5,3-4,0-5.5
			C102.7,163.8,97.8,163.8,94.8,165.3z"/>
		<path fill="#A8D5FF" d="M89.8,171.1c5.5,2.7,14.5,2.7,20.1,0c1.5-0.7,2.6-1.6,3.3-2.6c0,1.6-1.2,3.3-3.8,4.6
			c-5.1,2.5-13.4,2.5-18.5,0c-2.2-1.1-3.5-2.4-3.8-3.8C87.8,169.9,88.7,170.5,89.8,171.1z"/>
		<path fill="#3C84C7" d="M88.6,175.9c6.1,3,16.3,3.6,22.2,0.2c4.3-2.5,4.7-4,5.5-4.9c0,1.6-1.6,5-5.7,6.7c-7.3,3.1-15.1,2.5-20.8,0
			c-2.5-1.1-5.1-3.2-5.7-6.2C84.9,172.4,85.3,174.3,88.6,175.9z"/>
	</g>
</g>
<g>
	<path opacity="5.000000e-02" d="M244,129.7c3.4-0.8,21.7,10.1,21.7,11.6c0,1.6-38.9,19.5-38.9,19.5l-28.8-13.5L244,129.7z"/>
	<g>
		<g>
			<g>
				<g>
					<polygon fill="#8A8A8A" points="261.6,140 262.1,141.3 263.2,140.8 263.2,134.8 261.6,134 					"/>
					<polygon fill="#8A8A8A" points="247.8,133.1 248.3,134.4 249.3,133.9 249.3,127.9 247.8,127.1 246.8,127.6 					"/>
					<polygon fill="#8A8A8A" points="249.3,127.9 249.3,129.4 261.6,135.6 261.6,134 					"/>
				</g>
				<g>
					<polygon fill="#ADADAD" points="260.6,140.6 262.1,141.3 262.1,135.3 260.6,134.5 					"/>
					<polygon fill="#ADADAD" points="246.8,133.6 248.3,134.4 248.3,128.4 246.8,127.6 					"/>
					<polygon fill="#ADADAD" points="248.3,128.4 248.3,129.9 260.6,136.1 260.6,134.5 					"/>
				</g>
			</g>
			<g>
				<g>
					<polygon fill="#8A8A8A" points="261.6,134.2 262.1,135.5 263.2,135 263.2,129 261.6,128.2 					"/>
					<polygon fill="#8A8A8A" points="247.8,127.3 248.3,128.6 249.3,128.1 249.3,122.1 247.8,121.3 246.8,121.8 					"/>
					<polygon fill="#8A8A8A" points="249.3,122.1 249.3,123.6 261.6,129.7 261.6,128.2 					"/>
				</g>
				<g>
					<polygon fill="#ADADAD" points="260.6,134.7 262.1,135.5 262.1,129.5 260.6,128.7 					"/>
					<polygon fill="#ADADAD" points="246.8,127.8 248.3,128.6 248.3,122.6 246.8,121.8 					"/>
					<polygon fill="#ADADAD" points="248.3,122.6 248.3,124.1 260.6,130.3 260.6,128.7 					"/>
				</g>
			</g>
			<g>
				<g>
					<polygon fill="#8A8A8A" points="261.6,128.4 262.1,129.7 263.2,129.2 263.2,123.2 261.6,122.4 					"/>
					<polygon fill="#8A8A8A" points="247.8,121.5 248.3,122.8 249.3,122.3 249.3,116.3 247.8,115.5 246.8,116 					"/>
					<polygon fill="#8A8A8A" points="249.3,116.3 249.3,117.8 261.6,123.9 261.6,122.4 					"/>
				</g>
				<g>
					<polygon fill="#ADADAD" points="260.6,128.9 262.1,129.7 262.1,123.7 260.6,122.9 					"/>
					<polygon fill="#ADADAD" points="246.8,122 248.3,122.8 248.3,116.8 246.8,116 					"/>
					<polygon fill="#ADADAD" points="248.3,116.8 248.3,118.3 260.6,124.5 260.6,122.9 					"/>
				</g>
			</g>
			<g>
				<g>
					<polygon fill="#8A8A8A" points="261.6,122.6 262.1,123.9 263.2,123.4 263.2,117.4 261.6,116.6 					"/>
					<polygon fill="#8A8A8A" points="247.8,115.7 248.3,117 249.3,116.4 249.3,110.4 247.8,109.7 246.8,110.2 					"/>
					<polygon fill="#8A8A8A" points="249.3,110.4 249.3,112 261.6,118.1 261.6,116.6 					"/>
				</g>
				<g>
					<polygon fill="#ADADAD" points="260.6,123.1 262.1,123.9 262.1,117.9 260.6,117.1 					"/>
					<polygon fill="#ADADAD" points="246.8,116.2 248.3,117 248.3,111 246.8,110.2 					"/>
					<polygon fill="#ADADAD" points="248.3,111 248.3,112.5 260.6,118.7 260.6,117.1 					"/>
				</g>
			</g>
			<g>
				<g>
					<polygon fill="#8A8A8A" points="261.6,116.8 262.1,118.1 263.2,117.6 263.2,111.5 261.6,110.8 					"/>
					<polygon fill="#8A8A8A" points="247.8,109.9 248.3,111.2 249.3,110.6 249.3,104.6 247.8,103.9 246.8,104.4 					"/>
					<polygon fill="#8A8A8A" points="249.3,104.6 249.3,106.2 261.6,112.3 261.6,110.8 					"/>
				</g>
				<g>
					<polygon fill="#ADADAD" points="260.6,117.3 262.1,118.1 262.1,112.1 260.6,111.3 					"/>
					<polygon fill="#ADADAD" points="246.8,110.4 248.3,111.2 248.3,105.2 246.8,104.4 					"/>
					<polygon fill="#ADADAD" points="248.3,105.2 248.3,106.7 260.6,112.8 260.6,111.3 					"/>
				</g>
			</g>
			<g>
				<g>
					<polygon fill="#8A8A8A" points="261.6,111 262.1,112.3 263.2,111.7 263.2,105.7 261.6,105 					"/>
					<polygon fill="#8A8A8A" points="247.8,104.1 248.3,105.4 249.3,104.8 249.3,98.8 247.8,98.1 246.8,98.6 					"/>
					<polygon fill="#8A8A8A" points="249.3,98.8 249.3,100.4 261.6,106.5 261.6,105 					"/>
				</g>
				<g>
					<polygon fill="#ADADAD" points="260.6,111.5 262.1,112.3 262.1,106.3 260.6,105.5 					"/>
					<polygon fill="#ADADAD" points="246.8,104.6 248.3,105.4 248.3,99.4 246.8,98.6 					"/>
					<polygon fill="#ADADAD" points="248.3,99.4 248.3,100.9 260.6,107 260.6,105.5 					"/>
				</g>
			</g>
			<g>
				<g>
					<polygon fill="#8A8A8A" points="261.6,105.2 262.1,106.5 263.2,105.9 263.2,99.9 261.6,99.2 					"/>
					<polygon fill="#8A8A8A" points="247.8,98.3 248.3,99.5 249.3,99 249.3,93 247.8,92.2 246.8,92.8 					"/>
					<polygon fill="#8A8A8A" points="249.3,93 249.3,94.6 261.6,100.7 261.6,99.2 					"/>
				</g>
				<g>
					<polygon fill="#ADADAD" points="260.6,105.7 262.1,106.5 262.1,100.5 260.6,99.7 					"/>
					<polygon fill="#ADADAD" points="246.8,98.8 248.3,99.5 248.3,93.5 246.8,92.8 					"/>
					<polygon fill="#ADADAD" points="248.3,93.5 248.3,95.1 260.6,101.2 260.6,99.7 					"/>
				</g>
			</g>
			<g>
				<g>
					<polygon fill="#8A8A8A" points="261.6,99.4 262.1,100.7 263.2,100.1 263.2,94.1 261.6,93.4 					"/>
					<polygon fill="#8A8A8A" points="247.8,92.4 248.3,93.7 249.3,93.2 249.3,87.2 247.8,86.4 246.8,87 					"/>
					<polygon fill="#8A8A8A" points="249.3,87.2 249.3,88.7 261.6,94.9 261.6,93.4 					"/>
				</g>
				<g>
					<polygon fill="#ADADAD" points="260.6,99.9 262.1,100.7 262.1,94.6 260.6,93.9 					"/>
					<polygon fill="#ADADAD" points="246.8,93 248.3,93.7 248.3,87.7 246.8,87 					"/>
					<polygon fill="#ADADAD" points="248.3,87.7 248.3,89.3 260.6,95.4 260.6,93.9 					"/>
				</g>
			</g>
			<g>
				<g>
					<polygon fill="#8A8A8A" points="261.6,93.5 262.1,94.8 263.2,94.3 263.2,88.3 261.6,87.5 					"/>
					<polygon fill="#8A8A8A" points="247.8,86.6 248.3,87.9 249.3,87.4 249.3,81.4 247.8,80.6 246.8,81.2 					"/>
					<polygon fill="#8A8A8A" points="249.3,81.4 249.3,82.9 261.6,89.1 261.6,87.5 					"/>
				</g>
				<g>
					<polygon fill="#ADADAD" points="260.6,94.1 262.1,94.8 262.1,88.8 260.6,88.1 					"/>
					<polygon fill="#ADADAD" points="246.8,87.2 248.3,87.9 248.3,81.9 246.8,81.2 					"/>
					<polygon fill="#ADADAD" points="248.3,81.9 248.3,83.5 260.6,89.6 260.6,88.1 					"/>
				</g>
			</g>
			<g>
				<g>
					<polygon fill="#8A8A8A" points="261.6,87.7 262.1,89 263.2,88.5 263.2,82.5 261.6,81.7 					"/>
					<polygon fill="#8A8A8A" points="247.8,80.8 248.3,82.1 249.3,81.6 249.3,75.6 247.8,74.8 246.8,75.3 					"/>
					<polygon fill="#8A8A8A" points="249.3,75.6 249.3,77.1 261.6,83.3 261.6,81.7 					"/>
				</g>
				<g>
					<polygon fill="#ADADAD" points="260.6,88.3 262.1,89 262.1,83 260.6,82.3 					"/>
					<polygon fill="#ADADAD" points="246.8,81.4 248.3,82.1 248.3,76.1 246.8,75.3 					"/>
					<polygon fill="#ADADAD" points="248.3,76.1 248.3,77.7 260.6,83.8 260.6,82.3 					"/>
				</g>
			</g>
		</g>
		<g>
			<polygon fill="#41738A" points="215.4,88.6 243,102.4 270.6,88.6 270.6,87.2 243,74.8 			"/>
			<polygon fill="#5596B5" points="215.4,87.2 243,101 270.6,87.2 243,73.4 			"/>
		</g>
		<g>
			<g>
				<polygon fill="#DEDEDE" points="242.8,100.8 244,100.2 244,86.1 242.8,86.7 				"/>
				<polygon fill="#FAFAFA" points="241.7,100.2 242.8,100.8 242.8,86.7 241.7,86.1 				"/>
			</g>
			<g>
				<polygon fill="#DEDEDE" points="268.6,87.9 269.8,87.3 269.8,73.3 268.6,73.8 				"/>
				<polygon fill="#FAFAFA" points="267.5,87.3 268.6,87.9 268.6,73.8 267.5,73.3 				"/>
			</g>
			<g>
				<polygon fill="#DEDEDE" points="256.7,93.8 257.9,93.2 257.9,79.1 256.7,79.7 				"/>
				<polygon fill="#FAFAFA" points="255.5,93.2 256.7,93.8 256.7,79.7 255.5,79.1 				"/>
			</g>
			<g>
				<polygon fill="#DEDEDE" points="242.8,86.8 270.6,72.9 270.6,71.5 242.8,85.4 				"/>
				<polygon fill="#FCFCFC" points="270.6,71.5 242.8,85.4 241.4,84.7 269.2,70.8 				"/>
				<polygon fill="#FFFFFF" points="241.4,84.7 241.4,86.1 242.8,86.8 242.8,85.4 				"/>
			</g>
		</g>
		<g>
			<g>
				<polygon fill="#DEDEDE" points="217.9,87.9 219,87.3 219,73.3 217.9,73.8 				"/>
				<polygon fill="#FAFAFA" points="216.7,87.3 217.9,87.9 217.9,73.8 216.7,73.3 				"/>
			</g>
			<g>
				<polygon fill="#DEDEDE" points="243.7,75 244.8,74.5 244.8,60.4 243.7,61 				"/>
				<polygon fill="#FAFAFA" points="242.5,74.5 243.7,75 243.7,61 242.5,60.4 				"/>
			</g>
			<g>
				<polygon fill="#DEDEDE" points="231.8,80.9 232.9,80.3 232.9,66.2 231.8,66.8 				"/>
				<polygon fill="#FAFAFA" points="230.6,80.3 231.8,80.9 231.8,66.8 230.6,66.2 				"/>
			</g>
			<g>
				<polygon fill="#DEDEDE" points="217.9,73.9 245.6,60 245.6,58.6 217.9,72.5 				"/>
				<polygon fill="#FCFCFC" points="245.6,58.6 217.9,72.5 216.5,71.8 244.2,57.9 				"/>
				<polygon fill="#FFFFFF" points="216.5,71.8 216.5,73.2 217.9,73.9 217.9,72.5 				"/>
			</g>
		</g>
		<g>
			<path fill="#6EC3EB" d="M191.2,163.6l-27-13.9c0,0,17.7-11.6,21.1-22.1c3.4-10.5,7.9-29.5,30.7-40.4
				c26.3,13.1,26.3,13.1,26.3,13.1S224.8,113.7,220,123c-4.8,9.3-10,24.4-12.6,26.6C204.8,151.8,191.2,163.6,191.2,163.6z"/>
			<path fill="#6EC3EB" d="M191.2,163.5l-27-13.9c0,0,17.7-11.6,21.1-22.1c3.4-10.5,7.9-29.5,30.7-40.4
				c26.3,13.1,26.3,13.1,26.3,13.1s-17.5,13.5-22.3,22.8c-4.8,9.3-10,24.4-12.6,26.6C204.8,151.7,191.2,163.5,191.2,163.5z"/>
			<path fill="#92CEEB" d="M189.9,162.8c8.1-4.1,14.3-9.4,19-16.4c4-5.9,6-11.9,7.9-17.1c0.8-2.3,1.5-4.4,2.4-6.3
				c1.7-3.8,6-8.8,12.7-14.7c5.2-4.6,9.9-8,9.9-8l0.4-2.7l-1.3-0.6c-0.2,0.1-5,3.6-10.5,8.5c-7.6,6.7-12.5,12.6-14.6,17.4
				c-0.9,2.1-1.7,4.4-2.6,6.8c-3.5,10.1-7.5,21.5-23.3,29.4V162.8z"/>
			<path fill="#44AFE3" d="M191.2,163.5c8.1-4.1,14.3-9.4,19-16.4c4-5.9,6-11.9,7.9-17.1c0.8-2.3,1.5-4.4,2.4-6.3
				c1.7-3.8,6-8.8,12.7-14.7c5.2-4.6,9.9-8,9.9-8l-0.8-3.3c-0.2,0.1-5,3.6-10.5,8.5c-7.6,6.7-12.5,12.6-14.6,17.4
				c-0.9,2.1-1.7,4.4-2.6,6.8c-3.5,10.1-7.5,21.5-23.3,29.4V163.5z"/>
			<path fill="#92CEEB" d="M164.2,149.5c8.1-4.1,14.3-9.4,19-16.4c4-5.9,6-11.9,7.9-17.1c0.8-2.3,1.5-4.4,2.4-6.3
				c1.7-3.8,6-8.8,12.7-14.7c5.2-4.6,9.9-8,9.9-8l0.4-2.7l-1.3-0.6c-0.2,0.1-5,3.6-10.5,8.5c-7.6,6.7-12.5,12.6-14.6,17.4
				c-0.9,2.1-1.7,4.4-2.6,6.8c-3.5,10.1-7.5,21.5-23.3,29.4V149.5z"/>
			<path fill="#44AFE3" d="M165.5,150.2c8.1-4.1,14.3-9.4,19-16.4c4-5.9,6-11.9,7.9-17.1c0.8-2.3,1.5-4.4,2.4-6.3
				c1.7-3.8,6-8.8,12.7-14.7c5.2-4.6,9.9-8,9.9-8l-0.8-3.3c-0.2,0.1-5,3.6-10.5,8.5c-7.6,6.7-12.5,12.6-14.6,17.4
				c-0.9,2.1-1.7,4.4-2.6,6.8c-3.5,10.1-7.5,21.5-23.3,29.4V150.2z"/>
			<polygon fill="#3FA1D1" points="164.2,145.7 165.5,146.4 165.5,150.2 164.2,149.5 			"/>
			<polygon fill="#3FA1D1" points="191.2,159.7 189.9,159 189.9,162.8 191.2,163.5 			"/>
			<polygon fill="#3FA1D1" points="189.9,162.8 165.5,150.2 165.5,148.9 189.9,161.3 			"/>
		</g>
	</g>
</g>
<g>
	<path opacity="6.000000e-02" d="M51.3,229.7c0,0-8.5,7-0.2,12.7c3.9,2.6,14.5,12.5,22.7,12.1c9.5-0.5,32.1-5.4,32.2-8.5
		c0.1-4.3,5.8-10,2-11.4C104.2,233.3,71,208.1,51.3,229.7z"/>
	<g>
		<g>
			<g>
				<polygon fill="#C9C9C9" points="65.4,212.5 81.8,244 82.8,243.8 66.4,212.3 				"/>
				<polygon fill="#FFFFFF" points="64.8,212.7 81.2,244.1 82.2,243.9 65.8,212.5 				"/>
				<polygon fill="#C5DE38" points="85.2,234.6 72.4,239.7 71.6,238.4 84.3,233.3 				"/>
				<polygon fill="#FFFFFF" points="53.3,218.5 69.7,249.9 70.7,249.7 54.3,218.3 				"/>
				<polygon fill="#C9C9C9" points="66.9,214.1 54.8,220.1 54.5,219 66.9,212.8 				"/>
				<polygon fill="#C9C9C9" points="53.9,218.3 70.3,249.8 71.3,249.6 54.9,218.1 				"/>
				<polygon fill="#FFFFFF" points="73.3,241.1 60.6,246.2 59.8,244.9 72.1,239.3 73.3,240 				"/>
				<polygon fill="#F8FFD1" points="54.5,219.1 66.9,212.8 65.7,212.2 53.3,218.4 				"/>
				<polygon fill="#C9C9C9" points="85.7,235 73.3,241.1 73.3,239.9 85.7,233.7 				"/>
				<polygon fill="#FFFFFF" points="73.3,240 85.7,233.7 84.5,233.1 72.1,239.3 				"/>
				<path fill="#FFAF24" d="M83.7,233.7c0,0-6,0.3-10-4.4c-3.9-4.7-9-17.7-9-17.7l-11,5.6c0,0,7.7,18.2,11.5,20.6
					c3.8,2.4,6.3,1.9,6.3,1.9L83.7,233.7z"/>
				<g>
					<path fill="#FFBF59" d="M72.3,229.6c-4.1-4.7-7.7-14.1-8.9-17.4l1.9-1c0,0,5.1,12.9,9,17.7c3.9,4.7,10,4.4,10,4.4l-2.7,1.3
						C74.6,233.3,73.7,231.1,72.3,229.6z"/>
					<path fill="#FBFF80" d="M70.2,230.9c-4.2-4.8-7.9-14.5-9-17.6l2.2-1.1c1.2,3.3,4.8,12.7,8.9,17.4c1.3,1.5,2.2,3.8,9.3,5
						l-2.5,1.2C72.4,234.6,71.5,232.4,70.2,230.9z"/>
					<path fill="#FFBF59" d="M56.9,215.5c0.9,2.4,4.7,13,9.2,18.1c1.2,1.4,2.1,3.5,8.1,4.8l-2,1c0,0-2.5,0.5-6.3-1.9
						c-3.8-2.4-11.5-20.6-11.5-20.6L56.9,215.5z"/>
					<path fill="#FBFF80" d="M66,233.6c-4.4-5.1-8.3-15.6-9.2-18.1l2.2-1.1c1,2.8,4.8,12.9,9.1,17.8c1.3,1.5,2.2,3.6,8.5,4.9
						l-2.5,1.2C68.1,237.1,67.3,235,66,233.6z"/>
					<path fill="#FFBF59" d="M68.1,232.2c-4.3-4.9-8.1-15-9.1-17.8l2.2-1.1c1.1,3.1,4.8,12.8,9,17.6c1.3,1.5,2.2,3.7,8.9,5l-2.5,1.2
						C70.3,235.8,69.4,233.7,68.1,232.2z"/>
				</g>
			</g>
			<g>
				<path fill="#F0AE81" d="M84.2,234.6C84.2,234.6,84.2,234.6,84.2,234.6l2.9,11.3c0,0.2,0.2,0.3,0.3,0.4c1,0.5,4.2,2.2,4.8,2.4
					c0.6,0.2-1.2,1-1.9,1.2c-0.2,0.1-0.3,0.1-0.5,0l-4.4-1.6c-0.3-0.1-0.5-0.4-0.5-0.7l0.1-1.8c0-0.1,0-0.2-0.1-0.3
					c-0.5-1-3.2-6.9-3.6-7.9c-0.4-1.1,0.3-2.6,0.3-2.6l-0.1-0.1C82.4,234.6,83.2,234.4,84.2,234.6z"/>
				<path fill="#F0AE81" d="M70.7,228.2c2.2-0.7,13.2,6,13.5,6.2c-0.9,0.4-1.4,1.1-1.8,1.9l-8.4-1.3c0,0-0.4,0.7-3.2-1.1
					C68,232.1,70.7,228.2,70.7,228.2z"/>
				<path fill="#FFC59E" d="M84.9,233.1l9,9.3c0.1,0.1,0.3,0.2,0.4,0.2c1.1,0,5,0.1,5.7,0c0.6-0.1-0.2,1-0.7,1.7
					c-0.3,0.4-0.7,0.6-1.1,0.6l-4.3,0.5c-0.4,0.1-0.9-0.2-1.1-0.6l-0.9-1.8c0,0-6.8-5-7.8-5.9c-1-0.9-1.2-2.5-1.2-2.5l-0.2-0.1
					c0.5-0.7,1.1-1.3,2-1.7C84.9,233,84.9,233.1,84.9,233.1z"/>
				<path fill="#FFC59E" d="M68.7,231.8c1.8-1.3,14.6,1,16.2,1.3c-0.6,0.8-0.8,1.6-0.9,2.5l-9.1,1.6c0,0-0.1,0.5-3.7,0
					C66.6,236.5,68.7,231.8,68.7,231.8z"/>
				<path fill="#FF5452" d="M71.1,231.6c1.2,0.9,3.2-0.4,3.6-2.7c0.3,0.7,0.5,1.3,0.5,1.6c0,1,0,1,0,1c-0.1,0.4-5.7-1.1-6.7,1
					c-0.6,1.1-0.4,0.1,0-1.3C69.3,231.4,70.2,231.5,71.1,231.6z"/>
				<path fill="#FFB98A" d="M62.4,222.6c0-0.5,0.5-1.4,1.2-2.3c0.5,0.1,0.9,0.1,1.4,0.1c2.2,1.3,2.7,3.5,1.8,6.2
					C64.9,225.2,62.4,223.4,62.4,222.6z"/>
				<path fill="#F0AE81" d="M66.8,218.4c0,0,1.6-0.9,2,0.1c0.3,1.1,4.4,7.3,4.4,7.3l6.2,2.6c0,0,1.9-0.4,2.1,0.3
					c0.2,0.7-0.3,1.7-0.3,1.7l-2.4-0.5l-7.3-2.7C71.4,227.3,65.4,220,66.8,218.4z"/>
				<path fill="#FF5452" d="M67,226.7c0,0-0.1-0.1-0.1-0.1c0.9-2.7,0.4-4.9-1.8-6.2c-0.5,0-0.9-0.1-1.4-0.1c0.1-0.1,0.1-0.2,0.2-0.3
					c2.9,0.3,5.7,1.5,7.3,3.7c0.4-2.4-1.5-4.4-2.8-6.3l2.6,2l1.4,0.8c0.7,0.4,1,1.2,0.8,2l-0.4,1.2c-1.5,1.6-3.1,2.9-4.9,4
					C67.6,227.2,67.3,226.9,67,226.7z"/>
				<path fill="#FFC59E" d="M72.7,223.5l-0.1,0.4c0,0,1.4,3,2.1,5c-0.3,2.3-2.4,3.7-3.6,2.7c-0.9-0.1-1.8-0.3-2.7-0.5
					c0-0.1,0.1-0.2,0.1-0.4c0.3-1.2,0-2.4-0.7-3.3C69.6,226.4,71.3,225.1,72.7,223.5z"/>
				<path fill="#FFC59E" d="M63.9,220c1.1-1.3,2.7-2.5,4.5-2.6l0,0c1.2,1.9,3.2,3.8,2.8,6.3C69.6,221.5,66.8,220.3,63.9,220z"/>
				<path fill="#FFC49C" d="M66.6,211.6c0,0,1.7,4.6,0.9,6.1c-0.8,1.5-3.8,0-3.8,0S61.2,211.9,66.6,211.6z"/>
				<path fill="#943817" d="M63.5,220.1c-0.9-0.3-1.6-0.9-2.1-1.7c-1.2-1.7-2.3-4.1-2.3-5.1c-0.1-3.7,6.1-6.7,7.5-1.8
					c0,0-1.3,1.8-2.7,2.3c-1.4,0.6,3.6,4.1,3.2,7.5c-0.1,0.6-0.2,1.3-0.3,1.9c-0.1,0.3-0.3,0.5-0.5,0.8
					C66.7,221.3,65.7,221,63.5,220.1z"/>
				<path fill="#FFC49C" d="M62.8,221.6c0,0,1.3-0.6,2.1,1.2c0.4,1,2,7.7,2,7.7l5.2,4c0,0,1.9,0.1,1.9,0.8c0,0.7-0.8,1.6-0.8,1.6
					l-2.2-1.1l-6.3-4.4C64.8,231.4,61,222.8,62.8,221.6z"/>
			</g>
		</g>
		<g>
			<g>
				<polygon fill="#E6E6E6" points="86,180.2 86,180.2 100.7,189.2 100.7,189.2 75.5,185.3 				"/>
				<polygon fill="#E6E6E6" points="75.5,185.3 50.4,189.3 50.4,189.2 65.1,180.2 75.5,185.3 				"/>
				<polygon fill="#008099" points="75.5,185.3 65.1,180.2 65.1,180.2 86,180.2 75.5,185.3 				"/>
				<polygon fill="#00930E" points="75.5,185.3 75.5,185.3 75.5,185.3 				"/>
				<polygon fill="#00930E" points="75.5,185.3 75.5,185.3 75.5,185.3 				"/>
				<polygon fill="#009AB8" points="75.5,185.3 100.7,189.2 100.7,201.9 75.5,185.3 				"/>
				<polygon fill="#FFFFFF" points="75.5,185.3 65.1,211 65.1,211 50.4,202 50.4,202 75.5,185.3 				"/>
				<polygon fill="#0093B0" points="75.5,185.3 50.4,202 50.4,189.3 				"/>
				<polygon fill="#009AB8" points="86,211 86,211 65.1,211 75.5,185.3 				"/>
				<polygon fill="#FFFFFF" points="100.7,201.9 100.7,202 86,211 75.5,185.3 				"/>
			</g>
			<path fill="#EBFBFF" d="M75.6,185.7L75.6,185.7c0.3,0,0.5-0.3,0.5-0.7v-2.1c0-0.4-0.2-0.7-0.5-0.7h0c-0.3,0-0.5,0.3-0.5,0.7v2.1
				C75.1,185.4,75.3,185.7,75.6,185.7z"/>
		</g>
	</g>
</g>
<g>
	<path opacity="5.000000e-02" d="M217.1,217.2c-0.2,0.1-10.9,6.9-7.1,9.4c3.8,2.5,22.6,1,23-6.2
		C233.5,213.3,218.4,216.4,217.1,217.2z"/>
	<g>
		<path fill="#FFB485" d="M229.3,210.2c-2.6-0.6-8.3-5.5-8.3-5.5h-2.9c0,0,0.6-0.8,1.4-2c-1.5-0.2-3-0.7-4.5-1.5l-0.6,4.3
			c-0.1,0.8,0.3,1.6,1.1,1.9l11.4,5.3c0,0,0.9,4.9,0.7,6c-0.2,1.2,1.9-0.6,2-1.1c0.1-0.5,1.1-5.2,1.1-5.2S231.9,210.9,229.3,210.2z"
			/>
		<path fill="#54C7D1" d="M224.5,194.1c-0.2-1.9-8.4-2.4-8.4-2.4l-3,10.6c1.5,0.8,4.6,1.6,6.1,1.8
			C221.2,201,224.7,195.5,224.5,194.1z"/>
		<path fill="#FFCCAB" d="M216,203.5c-0.5,1.3-0.9,2.3-0.8,2.6c0.4,0.9,1.2,15.1,1.2,15.1s-0.6,1.3-3.1,4c-1,1,0,2,0,2s5.6-3,6.8-4
			c1.2-1-0.6-3.4-0.6-3.4s0.5-7.2,0.5-8.5s-1.5-2.9-1.5-2.9s0.8-1,1.8-2.3C218.8,205.8,217.2,205,216,203.5z"/>
		<path fill="#78E1EB" d="M224.4,192.3h-4.3l-0.6,4c0,0-3.3,4.6-4.7,7.8c1.2,1.5,4.3,2.7,5.9,3c1.9-2.4,4-6.1,4.6-7.4
			C226.4,197.5,224.4,192.3,224.4,192.3z"/>
		<path fill="#FFB485" d="M216.1,174.2c0,0-1.8,0.2-1.7,2.6c0.1,2.4,1.2,7.1,1.2,7.1l-3.6,7.4L210,193c-0.5,0.4-0.3,1.3,0.4,1.3
			l2.2,0.1l5.9-10C218.5,184.3,218.3,175.5,216.1,174.2z"/>
		<path fill="#FFBD94" d="M221.8,173.2v3l3.4,2.3c1.2,0.8,1.7,2.3,1.3,3.7l-2.3,6.3l0.5,4.1c0,0-8.1,3.2-8.8-2.4
			c-0.7-5.6-1.2-11.3-1.2-11.3s0.3-4.6,1.3-4.9c1.1-0.3,3.1,0.4,3.1,0.4L221.8,173.2z"/>
		<path fill="#FFCCAB" d="M224.7,179.3c0,0-1.6,0.8-0.6,3.1c1,2.2,3.8,6.1,3.8,6.1l-0.6,8.3l-1.2,2.2c-0.4,0.6,0.2,1.3,0.9,1.1
			l2.1-0.7l1.7-11.5C230.7,187.8,227.3,179.7,224.7,179.3z"/>
		<path fill="#4A2F2F" d="M217.5,168.8l-0.4,1.9l5.3,2.5c0,0,2.6-3.5,1.2-5.4c-0.9-1.1-2.1-2.1-3.1-1.9c-0.4,0.1-0.8,0.2-1.2,0.4
			C218.3,166.9,217.7,167.8,217.5,168.8z"/>
		<path fill="#FFCCAB" d="M217.4,169.6c0,0-0.6,5.1,0.5,6.3c1.2,1.3,4.4-2.4,4.4-2.4v-1.2c0,0,1.2-1.3,0.3-1.5
			c-0.8-0.1-1.2,0.3-1.2,0.3l-0.7-1.5c-0.1-0.2-0.3-0.3-0.6-0.3L217.4,169.6z"/>
	</g>
</g>
<g>
	<path opacity="5.000000e-02" d="M121.6,40.7c0,0-11.9,5-14.6,9.3c-5.3,8.3,25.2,28.3,36.8,23.8c3.6-1.4,10.6-6,13.3-8.8
		C168.3,53.1,146.5,34.1,121.6,40.7z"/>
	<g>
		<g>
			<polygon fill="#C9C9C9" points="128,30.3 114.9,55.2 114.1,55.1 127.2,30.1 			"/>
			<polygon fill="#FFFFFF" points="128.4,30.4 115.4,55.3 114.6,55.2 127.6,30.2 			"/>
			<polygon fill="#C5DE38" points="112.2,47.8 122.4,51.8 123,50.8 112.9,46.7 			"/>
			<polygon fill="#FFFFFF" points="137.5,35 124.5,59.9 123.7,59.8 136.7,34.8 			"/>
			<polygon fill="#C9C9C9" points="126.7,31.5 136.3,36.3 136.6,35.4 126.7,30.5 			"/>
			<polygon fill="#C9C9C9" points="137.1,34.9 124.1,59.8 123.3,59.7 136.3,34.7 			"/>
			<polygon fill="#FFFFFF" points="121.6,53 131.7,57 132.4,56 122.6,51.5 121.6,52 			"/>
			<polygon fill="#F8FFD1" points="136.6,35.4 126.7,30.5 127.7,30 137.5,35 			"/>
			<polygon fill="#C9C9C9" points="111.8,48.1 121.7,53 121.7,52 111.8,47.1 			"/>
			<polygon fill="#FFFFFF" points="121.6,52 111.8,47.1 112.8,46.6 122.6,51.5 			"/>
			<path fill="#FFAF24" d="M113.4,47c0,0,4.8,0.3,7.9-3.5c3.1-3.8,7.2-14,7.2-14l8.8,4.4c0,0-6.1,14.5-9.1,16.4c-3,1.9-5,1.5-5,1.5
				L113.4,47z"/>
			<g>
				<path fill="#FFBF59" d="M122.4,43.8c3.2-3.7,6.1-11.2,7.1-13.8l-1.5-0.8c0,0-4.1,10.3-7.2,14c-3.1,3.8-7.9,3.5-7.9,3.5l2.2,1.1
					C120.6,46.8,121.4,45,122.4,43.8z"/>
				<path fill="#FBFF80" d="M124.1,44.9c3.3-3.8,6.3-11.5,7.1-14l-1.7-0.9c-1,2.6-3.8,10.1-7.1,13.8c-1.1,1.2-1.8,3-7.4,4l2,1
					C122.3,47.8,123.1,46,124.1,44.9z"/>
				<path fill="#FFBF59" d="M134.7,32.6c-0.7,1.9-3.8,10.3-7.3,14.3c-1,1.1-1.7,2.8-6.4,3.8l1.6,0.8c0,0,2,0.4,5-1.5
					c3-1.9,9.1-16.4,9.1-16.4L134.7,32.6z"/>
				<path fill="#FBFF80" d="M127.4,47c3.5-4,6.6-12.4,7.3-14.3l-1.7-0.9c-0.8,2.2-3.8,10.3-7.2,14.2c-1,1.2-1.7,2.8-6.7,3.9l2,1
					C125.8,49.7,126.5,48.1,127.4,47z"/>
				<path fill="#FFBF59" d="M125.8,45.9c3.4-3.9,6.4-11.9,7.2-14.2l-1.7-0.9c-0.9,2.4-3.8,10.2-7.1,14c-1,1.2-1.8,2.9-7,3.9l2,1
					C124,48.8,124.8,47.1,125.8,45.9z"/>
			</g>
		</g>
		<g>
			<g>
				<polygon fill="#C9C9C9" points="136.9,28.9 138,29.5 138,57.6 136.9,57 				"/>
				<polygon fill="#EBFBFF" points="135.8,29.5 136.9,28.9 136.9,57 135.8,57.6 				"/>
			</g>
			<g>
				<polygon fill="#E6E6E6" points="128.3,6.6 128.3,6.6 115,14.8 115,14.8 137.8,11.2 				"/>
				<polygon fill="#E6E6E6" points="137.8,11.2 160.6,14.9 160.6,14.8 147.3,6.6 137.8,11.2 				"/>
				<polygon fill="#008099" points="137.8,11.2 147.3,6.6 147.3,6.6 128.4,6.6 137.8,11.2 				"/>
				<polygon fill="#00930E" points="137.8,11.2 137.8,11.2 137.8,11.2 				"/>
				<polygon fill="#00930E" points="137.8,11.2 137.8,11.2 137.8,11.2 				"/>
				<polygon fill="#009AB8" points="137.8,11.2 115,14.8 115,26.3 137.8,11.2 				"/>
				<polygon fill="#E6E6E6" points="137.8,11.2 147.3,34.6 147.3,34.6 160.6,26.4 160.6,26.4 137.8,11.2 				"/>
				<polygon fill="#0093B0" points="137.8,11.2 160.6,26.4 160.6,14.9 				"/>
				<polygon fill="#009AB8" points="128.3,34.5 128.3,34.6 147.3,34.6 137.8,11.2 				"/>
				<polygon fill="#FFFFFF" points="115,26.3 115,26.4 128.3,34.5 137.8,11.2 				"/>
			</g>
			<path fill="#EBFBFF" d="M137.8,11.5L137.8,11.5c-0.3,0-0.5-0.3-0.5-0.7V8.9c0-0.4,0.2-0.7,0.5-0.7h0c0.3,0,0.5,0.3,0.5,0.7v1.9
				C138.3,11.2,138.1,11.5,137.8,11.5z"/>
		</g>
		<g>
			<polygon fill="#C9C9C9" points="147.7,41 134.7,66 133.9,65.8 146.9,40.9 			"/>
			<polygon fill="#FFFFFF" points="148.2,41.1 135.1,66.1 134.3,65.9 147.4,41 			"/>
			<polygon fill="#C5DE38" points="132,58.5 142.1,62.6 142.8,61.5 132.7,57.5 			"/>
			<polygon fill="#FFFFFF" points="157.3,45.7 144.3,70.7 143.5,70.5 156.5,45.6 			"/>
			<polygon fill="#C9C9C9" points="146.5,42.2 156.1,47 156.3,46.2 146.5,41.3 			"/>
			<polygon fill="#C9C9C9" points="156.8,45.6 143.8,70.6 143,70.4 156.1,45.5 			"/>
			<polygon fill="#FFFFFF" points="141.4,63.7 151.5,67.8 152.2,66.7 142.4,62.3 141.4,62.8 			"/>
			<polygon fill="#F8FFD1" points="156.3,46.2 146.5,41.3 147.5,40.8 157.3,45.7 			"/>
			<polygon fill="#C9C9C9" points="131.6,58.8 141.4,63.7 141.4,62.8 131.6,57.8 			"/>
			<polygon fill="#FFFFFF" points="141.4,62.8 131.6,57.9 132.6,57.4 142.4,62.3 			"/>
			<path fill="#FFAF24" d="M133.2,57.8c0,0,4.8,0.3,7.9-3.5c3.1-3.8,7.2-14,7.2-14l8.8,4.4c0,0-6.1,14.5-9.1,16.4
				c-3,1.9-5,1.5-5,1.5L133.2,57.8z"/>
			<g>
				<path fill="#FFBF59" d="M142.2,54.6c3.2-3.7,6.1-11.2,7.1-13.8l-1.5-0.8c0,0-4.1,10.3-7.2,14c-3.1,3.8-7.9,3.5-7.9,3.5l2.2,1.1
					C140.4,57.5,141.1,55.8,142.2,54.6z"/>
				<path fill="#FBFF80" d="M143.9,55.6c3.3-3.8,6.3-11.5,7.1-14l-1.7-0.9c-1,2.6-3.8,10.1-7.1,13.8c-1.1,1.2-1.8,3-7.4,4l2,1
					C142.1,58.5,142.8,56.8,143.9,55.6z"/>
				<path fill="#FFBF59" d="M154.5,43.4c-0.7,1.9-3.8,10.3-7.3,14.3c-1,1.1-1.7,2.8-6.4,3.8l1.6,0.8c0,0,2,0.4,5-1.5
					c3-1.9,9.1-16.4,9.1-16.4L154.5,43.4z"/>
				<path fill="#FBFF80" d="M147.2,57.7c3.5-4,6.6-12.4,7.3-14.3l-1.7-0.9c-0.8,2.2-3.8,10.3-7.2,14.2c-1,1.2-1.7,2.8-6.7,3.9l2,1
					C145.5,60.5,146.2,58.9,147.2,57.7z"/>
				<path fill="#FFBF59" d="M145.5,56.7c3.4-3.9,6.4-11.9,7.2-14.2l-1.7-0.9c-0.9,2.4-3.8,10.2-7.1,14c-1,1.2-1.8,2.9-7,3.9l2,1
					C143.8,59.5,144.5,57.8,145.5,56.7z"/>
			</g>
		</g>
	</g>
</g>
<g>
	<path opacity="6.000000e-02" d="M180.6,90.1c0,0,3.8,3.1,0.1,5.7c-1.7,1.2-6.5,5.6-10.2,5.4c-4.2-0.2-14.3-2.4-14.4-3.8
		c0-1.9-2.6-4.5-0.9-5.1C157,91.7,171.8,80.4,180.6,90.1z"/>
	<g>
		<path fill="#FFC49C" d="M165.3,50.8c0,0-0.7,4.2,0.3,5.4c1,1.2,3.2-0.7,3.2-0.7S170,50.2,165.3,50.8z"/>
		<path fill="#D99D75" d="M164.9,69.2c0,0,4-1.2,4.7,1.6c0.7,2.8,0,3,0,3l-1.3,7.5c0,0,1.2,0.7,1.5,1.7c0.2,0.9,1.2,6.5,1.3,7.5
			c0,0.1,0.1,0.2,0.1,0.3l1,1.3c0.2,0.2,0.2,0.5,0,0.7l-2.4,3.3c-0.1,0.1-0.2,0.2-0.4,0.2c-0.6,0.1-2.3,0.5-2,0
			c0.4-0.5,1.8-3.3,2.3-4.1c0.1-0.2,0.1-0.3,0-0.5l-3.5-9.6C166.3,82.1,163.7,70.8,164.9,69.2z"/>
		<path fill="#FFB98A" d="M168.5,68.5c0,0,4.5-0.4,3.8,3.5c-0.6,3.1-1.1,3.1-1.1,3.1l-3.9,7.2c0,0,0.9,1.2,0.7,2.3
			c-0.1,1.2-1.5,8.4-1.5,8.4l0.5,1.7c0.1,0.4,0,0.8-0.4,1l-3,2.2c-0.3,0.2-0.7,0.3-1.1,0.3c-0.8-0.1-1.9-0.4-1.5-0.7
			c0.5-0.3,3-2.8,3.7-3.4c0.1-0.1,0.2-0.2,0.2-0.4l0.2-11.4C165,82.4,166.8,69.7,168.5,68.5z"/>
		<path fill="#829DFF" d="M168.8,69.8c-0.6,1.2-2.7,0.9-3.8-0.9c0.1,0.7,0.1,1.2,0.2,1.5c0.3,0.8,1.5,1.9,1.5,1.9s2.9-4.2,4.6-2.8
			c0.9,0.7,0.3-0.1-0.5-1.1C170.1,68.9,169.4,69.4,168.8,69.8z"/>
		<path fill="#FFB98A" d="M172.4,59.5c-0.2-0.4-0.9-0.9-1.8-1.4c-0.4,0.2-0.7,0.4-1.1,0.6c-1.3,1.9-0.9,3.7,0.8,5.6
			C171.4,62.4,172.7,60,172.4,59.5z"/>
		<path fill="#D99D75" d="M166.4,57.2c0,0-1.6-0.2-1.5,0.8c0.1,1-1,7.4-1,7.4l-4.1,4.2c0,0-1.6,0.4-1.6,1c0.1,0.6,0.9,1.3,0.9,1.3
			l1.8-1.2l4.9-4.7C165.8,65.9,168.1,58,166.4,57.2z"/>
		<path fill="#829DFF" d="M170.3,64.4c0,0,0-0.1,0.1-0.1c-1.7-1.9-2.1-3.7-0.8-5.6c0.4-0.2,0.7-0.4,1.1-0.6c-0.1,0-0.2-0.1-0.3-0.1
			c-2.2,1.3-4,3.3-4.5,5.6c-1.2-1.8-0.4-4.1-0.1-6l-1.3,2.6l-0.8,1.1c-0.4,0.6-0.3,1.3,0.1,1.8l0.8,0.8c1.8,0.7,3.6,1.2,5.4,1.4
			C170,65,170.1,64.7,170.3,64.4z"/>
		<path fill="#FFB98A" d="M164.5,63.9l0.2,0.3c0,0,0,2.9,0.2,4.8c1.1,1.7,3.2,2,3.8,0.9c0.7-0.4,1.4-0.9,2-1.3
			c-0.1-0.1-0.1-0.2-0.2-0.3c-0.7-0.8-0.9-1.9-0.6-2.9C168.1,65.1,166.3,64.7,164.5,63.9z"/>
		<path fill="#FFB98A" d="M170.3,57.9c-1.3-0.6-3-1-4.5-0.4l0,0c-0.3,1.9-1.2,4.2,0.1,6C166.3,61.2,168.1,59.2,170.3,57.9z"/>
		<path fill="#FFC49C" d="M171.7,58.8c0,0-1.6,0.2-1.2,1.1c0.4,0.9,1.2,7.4,1.2,7.4l-2.7,5.1c0,0-1.5,0.7-1.2,1.3
			c0.2,0.6,1.2,1,1.2,1l1.3-1.6l3.4-5.8C173.7,67.3,173.6,59.1,171.7,58.8z"/>
		<path fill="#FFF0CF" d="M165.3,50.8c0,0,1.5,1.3,2.7,1.5c1.3,0.2-2.4,4.2-1.4,7c1,2.8,2.3,5.8,2.3,5.8l0.9-4c0,0-0.2,1.8,0.3,2.4
			s-0.7-4.1-0.2-5.2c0.4-1,3.4-5.7,2.2-7.4C170.9,49.3,165.7,46.4,165.3,50.8z"/>
	</g>
</g>
<g>
	<path fill="#FF4D4D" d="M12,164c6.3-3.1,17.4,0,23.7,3.1c0.7,0.4,1.9-2.6,2.5-2.2c4.2,3.1,3,10.8-2.5,13.5
		c-6.3,3.1-16.4,3.1-22.7,0C6.8,175.3,5.8,167.1,12,164z M18.8,170c-3.1,1.5-3.1,4,0,5.5c3.1,1.5,8,1.5,11.1,0c3.1-1.5,3.1-4,0-5.5
		C26.8,168.5,21.9,168.5,18.8,170z"/>
	<path fill="#FF7878" d="M13,163.2c6.3-3.1,16.4-3.1,22.7,0c6.3,3.1,6.3,8.2,0,11.3c-6.3,3.1-16.4,3.1-22.7,0
		C6.8,171.4,6.8,166.3,13,163.2z M18.8,166.1c-3.1,1.5-3.1,4,0,5.5c3.1,1.5,8,1.5,11.1,0c3.1-1.5,3.1-4,0-5.5
		C26.8,164.6,21.9,164.6,18.8,166.1z"/>
	<path fill="#FFA8A8" d="M13.8,171.9c5.6,2.7,14.7,2.7,20.3,0c1.6-0.8,2.7-1.6,3.4-2.6c0,1.7-1.3,3.3-3.9,4.6
		c-5.2,2.5-13.5,2.5-18.7,0c-2.2-1.1-3.5-2.5-3.8-3.9C11.8,170.7,12.7,171.4,13.8,171.9z"/>
	<path fill="#C73C3C" d="M12.6,176.8c6.1,3,16.5,3.6,22.4,0.2c4.3-2.5,4.8-4,5.6-4.9c0,1.7-1.6,5-5.7,6.8c-7.4,3.2-15.2,2.5-21,0
		c-2.5-1.1-5.1-3.2-5.7-6.2C8.8,173.3,9.3,175.1,12.6,176.8z"/>
</g>
<g>
	<path fill="#4DA9FF" d="M58.6,81.7c6.2-3.1,17.3,0,23.5,3.1c0.7,0.4,1.9-2.6,2.5-2.2c4.2,3.1,3,10.7-2.5,13.4
		c-6.2,3.1-16.3,3.1-22.5,0C53.4,93,52.4,84.8,58.6,81.7z M65.3,87.7c-3,1.5-3,4,0,5.5c3,1.5,8,1.5,11,0s3-4,0-5.5
		S68.3,86.2,65.3,87.7z"/>
	<path fill="#78BEFF" d="M59.6,81c6.2-3.1,16.3-3.1,22.5,0c6.2,3.1,6.2,8.1,0,11.2c-6.2,3.1-16.3,3.1-22.5,0
		C53.4,89.1,53.4,84.1,59.6,81z M65.3,83.8c-3,1.5-3,4,0,5.5c3,1.5,8,1.5,11,0c3-1.5,3-4,0-5.5C73.3,82.3,68.3,82.3,65.3,83.8z"/>
	<path fill="#A8D5FF" d="M60.4,89.6c5.5,2.7,14.5,2.7,20.1,0c1.5-0.7,2.6-1.6,3.3-2.6c0,1.6-1.2,3.3-3.8,4.6
		c-5.1,2.5-13.4,2.5-18.5,0c-2.2-1.1-3.5-2.4-3.8-3.8C58.3,88.4,59.2,89.1,60.4,89.6z"/>
	<path fill="#3C84C7" d="M59.2,94.5c6.1,3,16.3,3.6,22.2,0.2c4.3-2.5,4.7-4,5.5-4.9c0,1.6-1.6,5-5.7,6.7c-7.3,3.1-15.1,2.5-20.8,0
		c-2.5-1.1-5.1-3.2-5.7-6.2C55.4,91,55.9,92.8,59.2,94.5z"/>
</g>
</svg>
