<?xml version="1.0" encoding="utf-8"?>
<!-- Generator: Adobe Illustrator 22.1.0, SVG Export Plug-In . SVG Version: 6.00 Build 0)  -->
<svg version="1.1" id="Layer_1" xmlns="http://www.w3.org/2000/svg" xmlns:xlink="http://www.w3.org/1999/xlink" x="0px" y="0px"
	 viewBox="0 0 274 257" style="enable-background:new 0 0 274 257;" xml:space="preserve">
<style type="text/css">
	.st0{opacity:0.28;fill:#B0CFCB;}
	.st1{fill:#A0102C;}
	.st2{fill:#EF2542;}
	.st3{filter:url(#Adobe_OpacityMaskFilter);}
	.st4{filter:url(#Adobe_OpacityMaskFilter_1_);}
	.st5{mask:url(#XMLID_5_);fill:url(#XMLID_6_);}
	.st6{fill:url(#XMLID_7_);}
	.st7{fill:url(#XMLID_8_);}
	.st8{fill:url(#XMLID_9_);}
	.st9{fill:#16254A;}
	.st10{fill:#FFFFFF;}
	.st11{opacity:0.35;fill:#8698B5;}
	.st12{fill:url(#XMLID_10_);}
	.st13{fill:#9E9E9E;}
	.st14{enable-background:new    ;}
	.st15{fill:#C5C5C5;}
	.st16{fill:#888888;}
	.st17{fill:#DBDBDB;}
	.st18{fill:#D65218;}
	.st19{fill:url(#XMLID_11_);}
	.st20{fill:#FF473D;}
	.st21{fill:#64A1E0;}
	.st22{fill:#95C464;}
	.st23{fill:#6FBBC4;}
	.st24{opacity:0.5;fill:#2D110E;}
	.st25{fill:#71BDC4;}
	.st26{fill:#586172;}
	.st27{fill:#EB8658;}
	.st28{fill:#898989;}
	.st29{fill:#DC4511;}
	.st30{fill:#E95A59;}
	.st31{fill:#FCD558;}
	.st32{fill:#A3D2D1;}
	.st33{fill:#808080;}
	.st34{fill:#939292;}
	.st35{fill:#D3D3D3;}
	.st36{fill:#B7B5AC;}
	.st37{fill:#777570;}
	.st38{fill:#D8D8D8;}
	.st39{fill:#3BA998;}
	.st40{fill:#297569;}
	.st41{fill:#4CDBC4;}
	.st42{fill:#F15A24;}
	.st43{fill:#29ABE2;}
	.st44{fill:#B3B3B3;}
	.st45{fill:#2F8C7A;}
	.st46{fill:#3DAF9D;}
	.st47{fill:#6D3904;}
	.st48{fill:#1E88AD;}
	.st49{fill:#1F81A3;}
	.st50{fill:#A53D1E;}
	.st51{fill:#CF4D1F;}
	.st52{fill:#5B616D;}
	.st53{fill:#8CD7F7;}
	.st54{fill:#F07853;}
	.st55{fill:#F7BC73;}
	.st56{fill:#E0E1E3;}
	.st57{fill:#489943;}
	.st58{fill:#45515D;}
	.st59{fill:#FFC728;}
	.st60{fill:#DD9525;}
	.st61{fill:#6D4B46;}
	.st62{fill:#AB8F8A;}
	.st63{fill:#83605A;}
	.st64{fill:#EBE4E0;}
	.st65{fill:#996E68;}
</style>
<g id="XMLID_43_">
	<polygon id="XMLID_240_" class="st0" points="206.6,45.1 183.7,60.9 191.1,65.1 166.8,107.2 174.2,111.5 198.5,69.4 204.4,72.8 	
		"/>
	<polygon id="XMLID_48_" class="st0" points="91.8,60.7 68.9,76.5 76.3,80.8 52,122.8 59.4,127.1 83.7,85.1 89.6,88.5 	"/>
	<g id="XMLID_42_">
		<g id="XMLID_143_">
			<polygon id="XMLID_144_" class="st1" points="27.8,237.7 13.9,229.6 0.9,221.5 14.9,229.6 			"/>
		</g>
		<g id="XMLID_36_">
			<g id="XMLID_147_">
				<polygon id="XMLID_149_" class="st1" points="95.8,94.3 81.9,86.2 106.9,100.4 120.8,108.6 				"/>
			</g>
			<g id="XMLID_35_">
				<g id="XMLID_145_">
					<polygon id="XMLID_146_" class="st1" points="14.9,229.6 0.9,221.5 81.9,86.2 95.8,94.3 					"/>
				</g>
				<g id="XMLID_33_">
					<g id="XMLID_226_">
						<polygon id="XMLID_227_" class="st1" points="120.8,108.6 106.9,100.4 143.5,36.9 157.5,45 						"/>
					</g>
					<g id="XMLID_165_">
						<polygon id="XMLID_225_" class="st1" points="144.2,37.4 130.2,29.3 171.2,1.2 185.1,9.3 						"/>
					</g>
					<g id="XMLID_141_">
						<polygon id="XMLID_142_" class="st2" points="144.2,37.4 185.1,9.3 181.3,58.6 170.8,52.6 120.9,139 95.6,124.6 27.8,237.7 
							14.9,229.6 95.8,94.3 120.8,108.6 157.5,45 						"/>
					</g>
					<g id="XMLID_250_">
						<defs>
							<filter id="Adobe_OpacityMaskFilter" filterUnits="userSpaceOnUse" x="14.9" y="9.3" width="170.2" height="228.5">
								<feFlood  style="flood-color:white;flood-opacity:1" result="back"/>
								<feBlend  in="SourceGraphic" in2="back" mode="normal"/>
							</filter>
						</defs>
						<mask maskUnits="userSpaceOnUse" x="14.9" y="9.3" width="170.2" height="228.5" id="XMLID_5_">
							<g id="XMLID_875_" class="st3">
								<defs>
									<filter id="Adobe_OpacityMaskFilter_1_" filterUnits="userSpaceOnUse" x="14.9" y="9.3" width="170.2" height="228.5">
										<feFlood  style="flood-color:white;flood-opacity:1" result="back"/>
										<feBlend  in="SourceGraphic" in2="back" mode="normal"/>
									</filter>
								</defs>
								<mask maskUnits="userSpaceOnUse" x="14.9" y="9.3" width="170.2" height="228.5" id="XMLID_5_">
									<g id="XMLID_895_" class="st4">
									</g>
								</mask>
								<linearGradient id="XMLID_6_" gradientUnits="userSpaceOnUse" x1="14.8916" y1="123.5101" x2="185.1264" y2="123.5101">
									<stop  offset="0" style="stop-color:#000000"/>
									<stop  offset="1" style="stop-color:#FFFFFF"/>
								</linearGradient>
								<polygon id="XMLID_876_" class="st5" points="144.2,37.4 185.1,9.3 181.3,58.6 170.8,52.6 120.9,139 95.6,124.6 27.8,237.7 
									14.9,229.6 95.8,94.3 120.8,108.6 157.5,45 								"/>
							</g>
						</mask>
						<linearGradient id="XMLID_7_" gradientUnits="userSpaceOnUse" x1="14.8916" y1="123.5101" x2="185.1264" y2="123.5101">
							<stop  offset="0" style="stop-color:#FFFFFF"/>
							<stop  offset="1" style="stop-color:#FFFFFF"/>
						</linearGradient>
						<polygon id="XMLID_251_" class="st6" points="144.2,37.4 185.1,9.3 181.3,58.6 170.8,52.6 120.9,139 95.6,124.6 27.8,237.7 
							14.9,229.6 95.8,94.3 120.8,108.6 157.5,45 						"/>
					</g>
				</g>
			</g>
		</g>
	</g>
	<linearGradient id="XMLID_8_" gradientUnits="userSpaceOnUse" x1="89.5082" y1="172.2159" x2="94.0035" y2="172.2159">
		<stop  offset="0" style="stop-color:#325199"/>
		<stop  offset="1" style="stop-color:#2B4485"/>
	</linearGradient>
	<path id="XMLID_1416_" class="st7" d="M93.6,212.2l-0.2-78.7l-3.8-2.2l0.2,78.7c0,0.5,0.2,0.8,0.4,0.9l3.8,2.2
		C93.7,213,93.6,212.7,93.6,212.2z"/>
	<linearGradient id="XMLID_9_" gradientUnits="userSpaceOnUse" x1="89.5082" y1="102.5272" x2="193.8821" y2="102.5272">
		<stop  offset="0" style="stop-color:#325199"/>
		<stop  offset="1" style="stop-color:#2B4485"/>
	</linearGradient>
	<path id="XMLID_1415_" class="st8" d="M190,71.5L91,128.7c0,0-0.1,0.1-0.1,0.1c0,0,0,0,0,0c0,0-0.1,0-0.1,0.1c0,0,0,0,0,0
		c0,0-0.1,0-0.1,0.1c0,0,0,0,0,0c0,0,0,0,0,0c0,0,0,0,0,0c0,0-0.1,0.1-0.1,0.1c0,0,0,0,0,0c0,0,0,0,0,0c0,0,0,0-0.1,0.1c0,0,0,0,0,0
		c0,0,0,0,0,0c0,0,0,0,0,0.1c0,0,0,0,0,0c0,0,0,0,0,0.1c0,0,0,0,0,0c0,0,0,0,0,0c0,0-0.1,0.1-0.1,0.1c0,0,0,0,0,0c0,0,0,0,0,0
		c0,0,0,0.1,0,0.1c0,0,0,0,0,0c0,0,0,0,0,0c0,0,0,0,0,0c0,0,0,0.1,0,0.1c0,0,0,0,0,0c0,0,0,0,0,0c0,0,0,0.1-0.1,0.1c0,0,0,0,0,0
		c0,0,0,0,0,0c0,0,0,0,0,0.1c0,0,0,0,0,0c0,0,0,0,0,0.1c0,0,0,0,0,0c0,0,0,0,0,0.1c0,0,0,0.1,0,0.1c0,0,0,0,0,0c0,0,0,0,0,0.1
		c0,0,0,0.1,0,0.1c0,0,0,0,0,0c0,0,0,0,0,0c0,0.1,0,0.2,0,0.3l3.8,2.2c0-0.1,0-0.2,0-0.3c0,0,0,0,0-0.1c0,0,0-0.1,0-0.1
		c0,0,0-0.1,0-0.1c0,0,0,0,0-0.1c0,0,0-0.1,0-0.1c0,0,0,0,0-0.1c0,0,0-0.1,0-0.1c0,0,0,0,0,0c0-0.1,0-0.1,0.1-0.2c0,0,0,0,0,0
		c0,0,0-0.1,0.1-0.1c0,0,0,0,0,0c0,0,0-0.1,0.1-0.1c0,0,0,0,0,0c0-0.1,0.1-0.1,0.1-0.2c0,0,0,0,0,0c0,0,0-0.1,0.1-0.1c0,0,0,0,0-0.1
		c0,0,0-0.1,0.1-0.1c0,0,0,0,0.1-0.1c0,0,0,0,0.1-0.1c0,0,0.1-0.1,0.1-0.1c0,0,0,0,0.1-0.1c0,0,0,0,0,0c0,0,0.1,0,0.1-0.1
		c0,0,0,0,0,0c0,0,0.1,0,0.1-0.1c0,0,0,0,0,0c0,0,0.1-0.1,0.1-0.1l99.1-57.2L190,71.5z"/>
	<path id="XMLID_1414_" class="st9" d="M195.3,74.6c0-0.9-0.7-1.3-1.5-0.8L94.8,131c-0.8,0.5-1.5,1.6-1.5,2.5l0.2,64.9l102-58.9
		L195.3,74.6z"/>
	<path id="XMLID_1413_" class="st9" d="M95,213.1l99.1-57.2c0.8-0.5,1.5-1.6,1.5-2.5l0-13.8l-102,58.9l0,13.8
		C93.6,213.1,94.2,213.5,95,213.1z"/>
	<path id="XMLID_1410_" class="st10" d="M192.4,153.2l-0.2-75l-95.8,55.3c0,0,0,0,0,0l0.2,74.9L192.4,153.2z"/>
	<path id="XMLID_1407_" class="st11" d="M99.3,135.5l93-53.7l0-3.4l-95.8,55.3c0,0,0,0,0,0l0.2,75l2.8-1.6L99.3,135.5
		C99.3,135.6,99.3,135.5,99.3,135.5z"/>
	<linearGradient id="XMLID_10_" gradientUnits="userSpaceOnUse" x1="94.7168" y1="235.36" x2="165.5708" y2="235.36">
		<stop  offset="0" style="stop-color:#325199"/>
		<stop  offset="1" style="stop-color:#2B4485"/>
	</linearGradient>
	<path id="XMLID_1406_" class="st12" d="M165.6,253.7c-0.1,0-0.1,0.1-0.2,0.1c0,0,0,0-0.1,0c-0.1,0-0.1,0-0.2,0.1c0,0,0,0,0,0
		c0,0-0.1,0-0.1,0c0,0-0.1,0-0.1,0c0,0-0.1,0-0.1,0c0,0-0.1,0-0.1,0c-0.1,0-0.2,0-0.2,0c0,0,0,0-0.1,0c0,0-0.1,0-0.1,0
		c0,0-0.1,0-0.1,0c0,0-0.1,0-0.1,0c0,0-0.1,0-0.1,0c0,0-0.1,0-0.1,0c0,0-0.1,0-0.1,0c0,0-0.1,0-0.1,0c0,0-0.1,0-0.1,0
		c0,0-0.1,0-0.1,0c0,0-0.1,0-0.1,0c0,0-0.1,0-0.1,0c0,0,0,0-0.1,0c-0.1,0-0.1,0-0.2-0.1c0,0-0.1,0-0.1,0c0,0,0,0-0.1,0
		c-0.1,0-0.1-0.1-0.2-0.1l-67.3-39.1c-0.4-0.2-0.6-0.5-0.6-0.8l0,3c0,0.3,0.2,0.6,0.6,0.8l0,0l67.3,39.1c0,0,0.1,0.1,0.2,0.1
		c0,0,0,0,0.1,0c0,0,0.1,0,0.1,0c0,0,0,0,0,0c0.1,0,0.1,0.1,0.2,0.1c0,0,0,0,0,0c0,0,0,0,0.1,0c0,0,0.1,0,0.1,0c0,0,0,0,0,0
		c0,0,0,0,0,0c0,0,0.1,0,0.1,0c0,0,0,0,0.1,0c0,0,0,0,0,0c0,0,0.1,0,0.1,0c0,0,0,0,0.1,0c0,0,0,0,0,0c0,0,0.1,0,0.1,0c0,0,0,0,0.1,0
		c0,0,0,0,0,0c0,0,0.1,0,0.1,0c0,0,0,0,0.1,0c0,0,0,0,0,0c0,0,0.1,0,0.1,0c0,0,0,0,0.1,0c0,0,0,0,0,0c0.1,0,0.2,0,0.2,0c0,0,0,0,0,0
		c0,0,0.1,0,0.1,0c0,0,0.1,0,0.1,0c0,0,0.1,0,0.1,0c0,0,0.1,0,0.1,0c0,0,0,0,0,0c0,0,0,0,0,0c0.1,0,0.1,0,0.2-0.1c0,0,0,0,0.1,0
		c0.1,0,0.1-0.1,0.2-0.1L165.6,253.7z"/>
	<path id="XMLID_1405_" class="st13" d="M193.7,156.1c0.8-0.5,2.1-0.5,2.9,0l67.3,39.1c0.8,0.5,0.8,1.2,0,1.7l-98.3,56.8
		c-0.8,0.5-2.1,0.5-2.9,0l-67.3-39.1c-0.8-0.5-0.8-1.2,0-1.7L193.7,156.1z"/>
	<path id="XMLID_1402_" class="st10" d="M164.1,250.9l-64-37.2l95.1-54.9c0,0,0,0,0,0c0,0,0,0,0,0l64,37.2L164.1,250.9
		C164.1,250.9,164.1,250.9,164.1,250.9C164.1,250.9,164.1,250.9,164.1,250.9z"/>
	<g id="XMLID_1065_">
		<g id="XMLID_1395_" class="st14">
			<g id="XMLID_1400_">
				<polygon id="XMLID_1401_" class="st15" points="205.1,168.3 205.1,168.6 199.4,171.9 199.4,171.6 				"/>
			</g>
			<g id="XMLID_1398_">
				<polygon id="XMLID_1399_" class="st16" points="199.4,171.6 199.4,171.9 193.7,168.6 193.7,168.3 				"/>
			</g>
			<g id="XMLID_1396_">
				<polygon id="XMLID_1397_" class="st17" points="199.4,165 205.1,168.3 199.4,171.6 193.7,168.3 				"/>
			</g>
		</g>
		<g id="XMLID_1388_" class="st14">
			<g id="XMLID_1393_">
				<polygon id="XMLID_1394_" class="st15" points="197.8,172.6 197.8,172.9 192,176.2 192,175.9 				"/>
			</g>
			<g id="XMLID_1391_">
				<polygon id="XMLID_1392_" class="st16" points="192,175.9 192,176.2 186.4,172.9 186.4,172.6 				"/>
			</g>
			<g id="XMLID_1389_">
				<polygon id="XMLID_1390_" class="st17" points="192.1,169.3 197.8,172.6 192,175.9 186.4,172.6 				"/>
			</g>
		</g>
		<g id="XMLID_1381_" class="st14">
			<g id="XMLID_1386_">
				<polygon id="XMLID_1387_" class="st15" points="190.4,176.8 190.4,177.1 184.7,180.4 184.7,180.1 				"/>
			</g>
			<g id="XMLID_1384_">
				<polygon id="XMLID_1385_" class="st16" points="184.7,180.1 184.7,180.4 179,177.1 179,176.8 				"/>
			</g>
			<g id="XMLID_1382_">
				<polygon id="XMLID_1383_" class="st17" points="184.7,173.5 190.4,176.8 184.7,180.1 179,176.8 				"/>
			</g>
		</g>
		<g id="XMLID_1374_" class="st14">
			<g id="XMLID_1379_">
				<polygon id="XMLID_1380_" class="st15" points="183.1,181.1 183.1,181.4 177.3,184.7 177.3,184.4 				"/>
			</g>
			<g id="XMLID_1377_">
				<polygon id="XMLID_1378_" class="st16" points="177.3,184.4 177.3,184.7 171.7,181.4 171.7,181.1 				"/>
			</g>
			<g id="XMLID_1375_">
				<polygon id="XMLID_1376_" class="st17" points="177.4,177.8 183.1,181.1 177.3,184.4 171.7,181.1 				"/>
			</g>
		</g>
		<g id="XMLID_1367_" class="st14">
			<g id="XMLID_1372_">
				<polygon id="XMLID_1373_" class="st15" points="175.7,185.3 175.7,185.6 170,188.9 170,188.6 				"/>
			</g>
			<g id="XMLID_1370_">
				<polygon id="XMLID_1371_" class="st16" points="170,188.6 170,188.9 164.3,185.6 164.3,185.3 				"/>
			</g>
			<g id="XMLID_1368_">
				<polygon id="XMLID_1369_" class="st17" points="170,182 175.7,185.3 170,188.6 164.3,185.3 				"/>
			</g>
		</g>
		<g id="XMLID_1360_" class="st14">
			<g id="XMLID_1365_">
				<polygon id="XMLID_1366_" class="st15" points="168.4,189.5 168.4,189.8 162.6,193.1 162.6,192.9 				"/>
			</g>
			<g id="XMLID_1363_">
				<polygon id="XMLID_1364_" class="st16" points="162.6,192.9 162.6,193.1 157,189.8 157,189.5 				"/>
			</g>
			<g id="XMLID_1361_">
				<polygon id="XMLID_1362_" class="st17" points="162.7,186.2 168.4,189.5 162.6,192.9 157,189.5 				"/>
			</g>
		</g>
		<g id="XMLID_1353_" class="st14">
			<g id="XMLID_1358_">
				<polygon id="XMLID_1359_" class="st15" points="161,193.8 161,194.1 155.3,197.4 155.3,197.1 				"/>
			</g>
			<g id="XMLID_1356_">
				<polygon id="XMLID_1357_" class="st16" points="155.3,197.1 155.3,197.4 149.6,194.1 149.6,193.8 				"/>
			</g>
			<g id="XMLID_1354_">
				<polygon id="XMLID_1355_" class="st17" points="155.3,190.5 161,193.8 155.3,197.1 149.6,193.8 				"/>
			</g>
		</g>
		<g id="XMLID_1346_" class="st14">
			<g id="XMLID_1351_">
				<polygon id="XMLID_1352_" class="st15" points="153.6,198 153.6,198.3 147.9,201.6 147.9,201.3 				"/>
			</g>
			<g id="XMLID_1349_">
				<polygon id="XMLID_1350_" class="st16" points="147.9,201.3 147.9,201.6 142.2,198.3 142.2,198 				"/>
			</g>
			<g id="XMLID_1347_">
				<polygon id="XMLID_1348_" class="st17" points="148,194.7 153.6,198 147.9,201.3 142.2,198 				"/>
			</g>
		</g>
		<g id="XMLID_1339_" class="st14">
			<g id="XMLID_1344_">
				<polygon id="XMLID_1345_" class="st15" points="146.3,202.3 146.3,202.6 140.6,205.9 140.6,205.6 				"/>
			</g>
			<g id="XMLID_1342_">
				<polygon id="XMLID_1343_" class="st16" points="140.6,205.6 140.6,205.9 134.9,202.6 134.9,202.3 				"/>
			</g>
			<g id="XMLID_1340_">
				<polygon id="XMLID_1341_" class="st17" points="140.6,199 146.3,202.3 140.6,205.6 134.9,202.3 				"/>
			</g>
		</g>
		<g id="XMLID_1332_" class="st14">
			<g id="XMLID_1337_">
				<polygon id="XMLID_1338_" class="st15" points="138.9,206.5 138.9,206.8 133.2,210.1 133.2,209.8 				"/>
			</g>
			<g id="XMLID_1335_">
				<polygon id="XMLID_1336_" class="st16" points="133.2,209.8 133.2,210.1 127.5,206.8 127.5,206.5 				"/>
			</g>
			<g id="XMLID_1333_">
				<polygon id="XMLID_1334_" class="st17" points="133.3,203.2 138.9,206.5 133.2,209.8 127.5,206.5 				"/>
			</g>
		</g>
		<g id="XMLID_1325_" class="st14">
			<g id="XMLID_1330_">
				<polygon id="XMLID_1331_" class="st15" points="131.6,210.8 131.6,211.1 125.9,214.4 125.9,214.1 				"/>
			</g>
			<g id="XMLID_1328_">
				<polygon id="XMLID_1329_" class="st16" points="125.9,214.1 125.9,214.4 120.2,211.1 120.2,210.8 				"/>
			</g>
			<g id="XMLID_1326_">
				<polygon id="XMLID_1327_" class="st17" points="125.9,207.5 131.6,210.8 125.9,214.1 120.2,210.8 				"/>
			</g>
		</g>
		<g id="XMLID_1318_" class="st14">
			<g id="XMLID_1323_">
				<polygon id="XMLID_1324_" class="st15" points="124.2,215 124.2,215.3 118.5,218.6 118.5,218.3 				"/>
			</g>
			<g id="XMLID_1321_">
				<polygon id="XMLID_1322_" class="st16" points="118.5,218.3 118.5,218.6 112.8,215.3 112.8,215 				"/>
			</g>
			<g id="XMLID_1319_">
				<polygon id="XMLID_1320_" class="st17" points="118.6,211.7 124.2,215 118.5,218.3 112.8,215 				"/>
			</g>
		</g>
		<g id="XMLID_1311_" class="st14">
			<g id="XMLID_1316_">
				<polygon id="XMLID_1317_" class="st15" points="212.9,172.9 212.9,173.2 207.2,176.5 207.2,176.2 				"/>
			</g>
			<g id="XMLID_1314_">
				<polygon id="XMLID_1315_" class="st16" points="207.2,176.2 207.2,176.5 201.5,173.2 201.5,172.9 				"/>
			</g>
			<g id="XMLID_1312_">
				<polygon id="XMLID_1313_" class="st17" points="207.2,169.6 212.9,172.9 207.2,176.2 201.5,172.9 				"/>
			</g>
		</g>
		<g id="XMLID_1304_" class="st14">
			<g id="XMLID_1309_">
				<polygon id="XMLID_1310_" class="st15" points="205.6,177.1 205.6,177.4 199.9,180.7 199.9,180.4 				"/>
			</g>
			<g id="XMLID_1307_">
				<polygon id="XMLID_1308_" class="st16" points="199.9,180.4 199.9,180.7 194.2,177.4 194.2,177.1 				"/>
			</g>
			<g id="XMLID_1305_">
				<polygon id="XMLID_1306_" class="st17" points="199.9,173.8 205.6,177.1 199.9,180.4 194.2,177.1 				"/>
			</g>
		</g>
		<g id="XMLID_1297_" class="st14">
			<g id="XMLID_1302_">
				<polygon id="XMLID_1303_" class="st15" points="198.2,181.4 198.2,181.7 192.5,185 192.5,184.7 				"/>
			</g>
			<g id="XMLID_1300_">
				<polygon id="XMLID_1301_" class="st16" points="192.5,184.7 192.5,185 186.8,181.7 186.8,181.4 				"/>
			</g>
			<g id="XMLID_1298_">
				<polygon id="XMLID_1299_" class="st17" points="192.5,178.1 198.2,181.4 192.5,184.7 186.8,181.4 				"/>
			</g>
		</g>
		<g id="XMLID_1290_" class="st14">
			<g id="XMLID_1295_">
				<polygon id="XMLID_1296_" class="st15" points="190.9,185.6 190.9,185.9 185.2,189.2 185.2,188.9 				"/>
			</g>
			<g id="XMLID_1293_">
				<polygon id="XMLID_1294_" class="st16" points="185.2,188.9 185.2,189.2 179.5,185.9 179.5,185.6 				"/>
			</g>
			<g id="XMLID_1291_">
				<polygon id="XMLID_1292_" class="st17" points="185.2,182.3 190.9,185.6 185.2,188.9 179.5,185.6 				"/>
			</g>
		</g>
		<g id="XMLID_1283_" class="st14">
			<g id="XMLID_1288_">
				<polygon id="XMLID_1289_" class="st15" points="183.5,189.8 183.5,190.1 177.8,193.4 177.8,193.1 				"/>
			</g>
			<g id="XMLID_1286_">
				<polygon id="XMLID_1287_" class="st16" points="177.8,193.1 177.8,193.4 172.1,190.1 172.1,189.8 				"/>
			</g>
			<g id="XMLID_1284_">
				<polygon id="XMLID_1285_" class="st17" points="177.8,186.5 183.5,189.8 177.8,193.1 172.1,189.8 				"/>
			</g>
		</g>
		<g id="XMLID_1276_" class="st14">
			<g id="XMLID_1281_">
				<polygon id="XMLID_1282_" class="st15" points="176.2,194.1 176.2,194.4 170.5,197.7 170.5,197.4 				"/>
			</g>
			<g id="XMLID_1279_">
				<polygon id="XMLID_1280_" class="st16" points="170.5,197.4 170.5,197.7 164.8,194.4 164.8,194.1 				"/>
			</g>
			<g id="XMLID_1277_">
				<polygon id="XMLID_1278_" class="st17" points="170.5,190.8 176.2,194.1 170.5,197.4 164.8,194.1 				"/>
			</g>
		</g>
		<g id="XMLID_1269_" class="st14">
			<g id="XMLID_1274_">
				<polygon id="XMLID_1275_" class="st15" points="168.8,198.3 168.8,198.6 163.1,201.9 163.1,201.6 				"/>
			</g>
			<g id="XMLID_1272_">
				<polygon id="XMLID_1273_" class="st16" points="163.1,201.6 163.1,201.9 157.4,198.6 157.4,198.3 				"/>
			</g>
			<g id="XMLID_1270_">
				<polygon id="XMLID_1271_" class="st17" points="163.1,195 168.8,198.3 163.1,201.6 157.4,198.3 				"/>
			</g>
		</g>
		<g id="XMLID_1262_" class="st14">
			<g id="XMLID_1267_">
				<polygon id="XMLID_1268_" class="st15" points="161.5,202.6 161.5,202.9 155.7,206.2 155.7,205.9 				"/>
			</g>
			<g id="XMLID_1265_">
				<polygon id="XMLID_1266_" class="st16" points="155.7,205.9 155.7,206.2 150.1,202.9 150.1,202.6 				"/>
			</g>
			<g id="XMLID_1263_">
				<polygon id="XMLID_1264_" class="st17" points="155.8,199.3 161.5,202.6 155.7,205.9 150.1,202.6 				"/>
			</g>
		</g>
		<g id="XMLID_1255_" class="st14">
			<g id="XMLID_1260_">
				<polygon id="XMLID_1261_" class="st15" points="154.1,206.8 154.1,207.1 148.4,210.4 148.4,210.1 				"/>
			</g>
			<g id="XMLID_1258_">
				<polygon id="XMLID_1259_" class="st16" points="148.4,210.1 148.4,210.4 142.7,207.1 142.7,206.8 				"/>
			</g>
			<g id="XMLID_1256_">
				<polygon id="XMLID_1257_" class="st17" points="148.4,203.5 154.1,206.8 148.4,210.1 142.7,206.8 				"/>
			</g>
		</g>
		<g id="XMLID_1248_" class="st14">
			<g id="XMLID_1253_">
				<polygon id="XMLID_1254_" class="st15" points="146.8,211.1 146.8,211.4 141,214.7 141,214.4 				"/>
			</g>
			<g id="XMLID_1251_">
				<polygon id="XMLID_1252_" class="st16" points="141,214.4 141,214.7 135.4,211.4 135.4,211.1 				"/>
			</g>
			<g id="XMLID_1249_">
				<polygon id="XMLID_1250_" class="st17" points="141.1,207.8 146.8,211.1 141,214.4 135.4,211.1 				"/>
			</g>
		</g>
		<g id="XMLID_1241_" class="st14">
			<g id="XMLID_1246_">
				<polygon id="XMLID_1247_" class="st15" points="139.4,215.3 139.4,215.6 133.7,218.9 133.7,218.6 				"/>
			</g>
			<g id="XMLID_1244_">
				<polygon id="XMLID_1245_" class="st16" points="133.7,218.6 133.7,218.9 128,215.6 128,215.3 				"/>
			</g>
			<g id="XMLID_1242_">
				<polygon id="XMLID_1243_" class="st17" points="133.7,212 139.4,215.3 133.7,218.6 128,215.3 				"/>
			</g>
		</g>
		<g id="XMLID_1234_" class="st14">
			<g id="XMLID_1239_">
				<polygon id="XMLID_1240_" class="st15" points="132.1,219.6 132.1,219.9 126.3,223.2 126.3,222.9 				"/>
			</g>
			<g id="XMLID_1237_">
				<polygon id="XMLID_1238_" class="st16" points="126.3,222.9 126.3,223.2 120.7,219.9 120.7,219.6 				"/>
			</g>
			<g id="XMLID_1235_">
				<polygon id="XMLID_1236_" class="st17" points="126.4,216.3 132.1,219.6 126.3,222.9 120.7,219.6 				"/>
			</g>
		</g>
		<g id="XMLID_1227_" class="st14">
			<g id="XMLID_1232_">
				<polygon id="XMLID_1233_" class="st15" points="220.7,177.4 220.7,177.7 215,181 215,180.7 				"/>
			</g>
			<g id="XMLID_1230_">
				<polygon id="XMLID_1231_" class="st16" points="215,180.7 215,181 209.3,177.7 209.3,177.4 				"/>
			</g>
			<g id="XMLID_1228_">
				<polygon id="XMLID_1229_" class="st17" points="215.1,174.1 220.7,177.4 215,180.7 209.3,177.4 				"/>
			</g>
		</g>
		<g id="XMLID_1220_" class="st14">
			<g id="XMLID_1225_">
				<polygon id="XMLID_1226_" class="st15" points="213.4,181.7 213.4,182 207.7,185.3 207.7,185 				"/>
			</g>
			<g id="XMLID_1223_">
				<polygon id="XMLID_1224_" class="st16" points="207.7,185 207.7,185.3 202,182 202,181.7 				"/>
			</g>
			<g id="XMLID_1221_">
				<polygon id="XMLID_1222_" class="st17" points="207.7,178.4 213.4,181.7 207.7,185 202,181.7 				"/>
			</g>
		</g>
		<g id="XMLID_807_" class="st14">
			<g id="XMLID_1218_">
				<polygon id="XMLID_1219_" class="st15" points="206,185.9 206,186.2 200.3,189.5 200.3,189.2 				"/>
			</g>
			<g id="XMLID_811_">
				<polygon id="XMLID_814_" class="st16" points="200.3,189.2 200.3,189.5 194.6,186.2 194.6,185.9 				"/>
			</g>
			<g id="XMLID_808_">
				<polygon id="XMLID_810_" class="st17" points="200.4,182.6 206,185.9 200.3,189.2 194.6,185.9 				"/>
			</g>
		</g>
		<g id="XMLID_795_" class="st14">
			<g id="XMLID_804_">
				<polygon id="XMLID_805_" class="st15" points="198.7,190.1 198.7,190.4 193,193.7 193,193.4 				"/>
			</g>
			<g id="XMLID_800_">
				<polygon id="XMLID_801_" class="st16" points="193,193.4 193,193.7 187.3,190.4 187.3,190.1 				"/>
			</g>
			<g id="XMLID_797_">
				<polygon id="XMLID_798_" class="st17" points="193,186.8 198.7,190.1 193,193.4 187.3,190.1 				"/>
			</g>
		</g>
		<g id="XMLID_1199_" class="st14">
			<g id="XMLID_794_">
				<polygon id="XMLID_1205_" class="st15" points="191.3,194.4 191.3,194.7 185.6,198 185.6,197.7 				"/>
			</g>
			<g id="XMLID_1202_">
				<polygon id="XMLID_1203_" class="st16" points="185.6,197.7 185.6,198 179.9,194.7 179.9,194.4 				"/>
			</g>
			<g id="XMLID_1200_">
				<polygon id="XMLID_1201_" class="st17" points="185.7,191.1 191.3,194.4 185.6,197.7 179.9,194.4 				"/>
			</g>
		</g>
		<g id="XMLID_1192_" class="st14">
			<g id="XMLID_1197_">
				<polygon id="XMLID_1198_" class="st15" points="184,198.6 184,198.9 178.3,202.2 178.3,201.9 				"/>
			</g>
			<g id="XMLID_1195_">
				<polygon id="XMLID_1196_" class="st16" points="178.3,201.9 178.3,202.2 172.6,198.9 172.6,198.6 				"/>
			</g>
			<g id="XMLID_1193_">
				<polygon id="XMLID_1194_" class="st17" points="178.3,195.3 184,198.6 178.3,201.9 172.6,198.6 				"/>
			</g>
		</g>
		<g id="XMLID_1185_" class="st14">
			<g id="XMLID_1190_">
				<polygon id="XMLID_791_" class="st15" points="176.6,202.9 176.6,203.2 170.9,206.5 170.9,206.2 				"/>
			</g>
			<g id="XMLID_1188_">
				<polygon id="XMLID_1189_" class="st16" points="170.9,206.2 170.9,206.5 165.2,203.2 165.2,202.9 				"/>
			</g>
			<g id="XMLID_1186_">
				<polygon id="XMLID_1187_" class="st17" points="171,199.6 176.6,202.9 170.9,206.2 165.2,202.9 				"/>
			</g>
		</g>
		<g id="XMLID_1178_" class="st14">
			<g id="XMLID_1183_">
				<polygon id="XMLID_1184_" class="st15" points="169.3,207.1 169.3,207.4 163.6,210.7 163.6,210.4 				"/>
			</g>
			<g id="XMLID_1181_">
				<polygon id="XMLID_1182_" class="st16" points="163.6,210.4 163.6,210.7 157.9,207.4 157.9,207.1 				"/>
			</g>
			<g id="XMLID_1179_">
				<polygon id="XMLID_1180_" class="st17" points="163.6,203.8 169.3,207.1 163.6,210.4 157.9,207.1 				"/>
			</g>
		</g>
		<g id="XMLID_1171_" class="st14">
			<g id="XMLID_1176_">
				<polygon id="XMLID_1177_" class="st15" points="161.9,211.4 161.9,211.7 156.2,215 156.2,214.7 				"/>
			</g>
			<g id="XMLID_1174_">
				<polygon id="XMLID_1175_" class="st16" points="156.2,214.7 156.2,215 150.5,211.7 150.5,211.4 				"/>
			</g>
			<g id="XMLID_1172_">
				<polygon id="XMLID_1173_" class="st17" points="156.2,208.1 161.9,211.4 156.2,214.7 150.5,211.4 				"/>
			</g>
		</g>
		<g id="XMLID_1164_" class="st14">
			<g id="XMLID_1169_">
				<polygon id="XMLID_1170_" class="st15" points="154.6,215.6 154.6,215.9 148.9,219.2 148.9,218.9 				"/>
			</g>
			<g id="XMLID_1167_">
				<polygon id="XMLID_1168_" class="st16" points="148.9,218.9 148.9,219.2 143.2,215.9 143.2,215.6 				"/>
			</g>
			<g id="XMLID_1165_">
				<polygon id="XMLID_1166_" class="st17" points="148.9,212.3 154.6,215.6 148.9,218.9 143.2,215.6 				"/>
			</g>
		</g>
		<g id="XMLID_1157_" class="st14">
			<g id="XMLID_1162_">
				<polygon id="XMLID_1163_" class="st15" points="147.2,219.9 147.2,220.2 141.5,223.5 141.5,223.2 				"/>
			</g>
			<g id="XMLID_1160_">
				<polygon id="XMLID_1161_" class="st16" points="141.5,223.2 141.5,223.5 135.8,220.2 135.8,219.9 				"/>
			</g>
			<g id="XMLID_1158_">
				<polygon id="XMLID_1159_" class="st17" points="141.5,216.6 147.2,219.9 141.5,223.2 135.8,219.9 				"/>
			</g>
		</g>
		<g id="XMLID_1150_" class="st14">
			<g id="XMLID_1155_">
				<polygon id="XMLID_1156_" class="st15" points="139.9,224.1 139.9,224.4 134.2,227.7 134.2,227.4 				"/>
			</g>
			<g id="XMLID_1153_">
				<polygon id="XMLID_1154_" class="st16" points="134.2,227.4 134.2,227.7 128.5,224.4 128.5,224.1 				"/>
			</g>
			<g id="XMLID_1151_">
				<polygon id="XMLID_1152_" class="st17" points="134.2,220.8 139.9,224.1 134.2,227.4 128.5,224.1 				"/>
			</g>
		</g>
		<g id="XMLID_1143_" class="st14">
			<g id="XMLID_1148_">
				<polygon id="XMLID_1149_" class="st15" points="228.6,182 228.6,182.3 222.8,185.6 222.8,185.3 				"/>
			</g>
			<g id="XMLID_1146_">
				<polygon id="XMLID_1147_" class="st16" points="222.8,185.3 222.8,185.6 217.2,182.3 217.2,182 				"/>
			</g>
			<g id="XMLID_1144_">
				<polygon id="XMLID_1145_" class="st17" points="222.9,178.7 228.6,182 222.8,185.3 217.2,182 				"/>
			</g>
		</g>
		<g id="XMLID_1136_" class="st14">
			<g id="XMLID_1141_">
				<polygon id="XMLID_1142_" class="st15" points="221.2,186.2 221.2,186.5 215.5,189.8 215.5,189.5 				"/>
			</g>
			<g id="XMLID_1139_">
				<polygon id="XMLID_1140_" class="st16" points="215.5,189.5 215.5,189.8 209.8,186.5 209.8,186.2 				"/>
			</g>
			<g id="XMLID_1137_">
				<polygon id="XMLID_1138_" class="st17" points="215.5,182.9 221.2,186.2 215.5,189.5 209.8,186.2 				"/>
			</g>
		</g>
		<g id="XMLID_1129_" class="st14">
			<g id="XMLID_1134_">
				<polygon id="XMLID_1135_" class="st15" points="213.9,190.4 213.9,190.7 208.1,194 208.1,193.7 				"/>
			</g>
			<g id="XMLID_1132_">
				<polygon id="XMLID_1133_" class="st16" points="208.1,193.7 208.1,194 202.5,190.7 202.5,190.4 				"/>
			</g>
			<g id="XMLID_1130_">
				<polygon id="XMLID_1131_" class="st17" points="208.2,187.1 213.9,190.4 208.1,193.7 202.5,190.4 				"/>
			</g>
		</g>
		<g id="XMLID_1122_" class="st14">
			<g id="XMLID_1127_">
				<polygon id="XMLID_1128_" class="st15" points="206.5,194.7 206.5,195 200.8,198.3 200.8,198 				"/>
			</g>
			<g id="XMLID_1125_">
				<polygon id="XMLID_1126_" class="st16" points="200.8,198 200.8,198.3 195.1,195 195.1,194.7 				"/>
			</g>
			<g id="XMLID_1123_">
				<polygon id="XMLID_1124_" class="st17" points="200.8,191.4 206.5,194.7 200.8,198 195.1,194.7 				"/>
			</g>
		</g>
		<g id="XMLID_1115_" class="st14">
			<g id="XMLID_1120_">
				<polygon id="XMLID_1121_" class="st15" points="199.2,198.9 199.2,199.2 193.4,202.5 193.4,202.2 				"/>
			</g>
			<g id="XMLID_1118_">
				<polygon id="XMLID_1119_" class="st16" points="193.4,202.2 193.4,202.5 187.8,199.2 187.8,198.9 				"/>
			</g>
			<g id="XMLID_1116_">
				<polygon id="XMLID_1117_" class="st17" points="193.5,195.6 199.2,198.9 193.4,202.2 187.8,198.9 				"/>
			</g>
		</g>
		<g id="XMLID_1108_" class="st14">
			<g id="XMLID_1113_">
				<polygon id="XMLID_1114_" class="st15" points="191.8,203.2 191.8,203.5 186.1,206.8 186.1,206.5 				"/>
			</g>
			<g id="XMLID_1111_">
				<polygon id="XMLID_1112_" class="st16" points="186.1,206.5 186.1,206.8 180.4,203.5 180.4,203.2 				"/>
			</g>
			<g id="XMLID_1109_">
				<polygon id="XMLID_1110_" class="st17" points="186.1,199.9 191.8,203.2 186.1,206.5 180.4,203.2 				"/>
			</g>
		</g>
		<g id="XMLID_1101_" class="st14">
			<g id="XMLID_1106_">
				<polygon id="XMLID_1107_" class="st15" points="184.5,207.4 184.5,207.7 178.7,211 178.7,210.7 				"/>
			</g>
			<g id="XMLID_1104_">
				<polygon id="XMLID_1105_" class="st16" points="178.7,210.7 178.7,211 173.1,207.7 173.1,207.4 				"/>
			</g>
			<g id="XMLID_1102_">
				<polygon id="XMLID_1103_" class="st17" points="178.8,204.1 184.5,207.4 178.7,210.7 173.1,207.4 				"/>
			</g>
		</g>
		<g id="XMLID_1094_" class="st14">
			<g id="XMLID_1099_">
				<polygon id="XMLID_1100_" class="st15" points="177.1,211.7 177.1,212 171.4,215.3 171.4,215 				"/>
			</g>
			<g id="XMLID_1097_">
				<polygon id="XMLID_1098_" class="st16" points="171.4,215 171.4,215.3 165.7,212 165.7,211.7 				"/>
			</g>
			<g id="XMLID_1095_">
				<polygon id="XMLID_1096_" class="st17" points="171.4,208.4 177.1,211.7 171.4,215 165.7,211.7 				"/>
			</g>
		</g>
		<g id="XMLID_1087_" class="st14">
			<g id="XMLID_1092_">
				<polygon id="XMLID_1093_" class="st15" points="169.7,215.9 169.7,216.2 164,219.5 164,219.2 				"/>
			</g>
			<g id="XMLID_1090_">
				<polygon id="XMLID_1091_" class="st16" points="164,219.2 164,219.5 158.3,216.2 158.3,215.9 				"/>
			</g>
			<g id="XMLID_1088_">
				<polygon id="XMLID_1089_" class="st17" points="164.1,212.6 169.7,215.9 164,219.2 158.3,215.9 				"/>
			</g>
		</g>
		<g id="XMLID_1080_" class="st14">
			<g id="XMLID_1085_">
				<polygon id="XMLID_1086_" class="st15" points="162.4,220.2 162.4,220.5 156.7,223.8 156.7,223.5 				"/>
			</g>
			<g id="XMLID_1083_">
				<polygon id="XMLID_1084_" class="st16" points="156.7,223.5 156.7,223.8 151,220.5 151,220.2 				"/>
			</g>
			<g id="XMLID_1081_">
				<polygon id="XMLID_1082_" class="st17" points="156.7,216.9 162.4,220.2 156.7,223.5 151,220.2 				"/>
			</g>
		</g>
		<g id="XMLID_1073_" class="st14">
			<g id="XMLID_1078_">
				<polygon id="XMLID_1079_" class="st15" points="155,224.4 155,224.7 149.3,228 149.3,227.7 				"/>
			</g>
			<g id="XMLID_1076_">
				<polygon id="XMLID_1077_" class="st16" points="149.3,227.7 149.3,228 143.6,224.7 143.6,224.4 				"/>
			</g>
			<g id="XMLID_1074_">
				<polygon id="XMLID_1075_" class="st17" points="149.4,221.1 155,224.4 149.3,227.7 143.6,224.4 				"/>
			</g>
		</g>
		<g id="XMLID_1066_" class="st14">
			<g id="XMLID_1071_">
				<polygon id="XMLID_1072_" class="st15" points="147.7,228.6 147.7,228.9 142,232.2 142,231.9 				"/>
			</g>
			<g id="XMLID_1069_">
				<polygon id="XMLID_1070_" class="st16" points="142,231.9 142,232.2 136.3,228.9 136.3,228.6 				"/>
			</g>
			<g id="XMLID_1067_">
				<polygon id="XMLID_1068_" class="st17" points="142,225.3 147.7,228.6 142,231.9 136.3,228.6 				"/>
			</g>
		</g>
	</g>
	<path id="XMLID_1064_" class="st17" d="M224.4,211.9l-32.8,18.9c-0.2,0.1-0.4,0.1-0.5,0L170.6,219c-0.1-0.1-0.1-0.2,0-0.3
		l32.8-18.9c0.2-0.1,0.4-0.1,0.5,0l20.5,11.8C224.5,211.6,224.5,211.8,224.4,211.9z"/>
	<polygon id="XMLID_1063_" class="st18" points="202.7,124.7 202.7,124.7 202.7,124.7 	"/>
	<linearGradient id="XMLID_11_" gradientUnits="userSpaceOnUse" x1="165.5622" y1="226.3566" x2="264.5171" y2="226.3566">
		<stop  offset="0" style="stop-color:#325199"/>
		<stop  offset="1" style="stop-color:#2B4485"/>
	</linearGradient>
	<path id="XMLID_1062_" class="st19" d="M264.5,196.1C264.5,196.1,264.5,196.1,264.5,196.1c0,0.1,0,0.1,0,0.1c0,0,0,0,0,0.1
		c0,0,0,0,0,0.1c0,0,0,0,0,0.1c0,0,0,0,0,0.1c0,0,0,0,0,0c0,0,0,0,0,0.1c0,0,0,0,0,0c0,0,0,0.1-0.1,0.1c0,0,0,0,0,0c0,0,0,0-0.1,0
		c0,0,0,0-0.1,0.1c0,0,0,0-0.1,0c0,0-0.1,0-0.1,0.1v0l-98.3,56.8l0,3l98.3-56.8l0,0l0,0l0,0v0l0,0v0c0,0,0,0,0,0l0,0l0,0
		c0,0,0,0,0,0c0,0,0,0,0,0c0,0,0,0,0.1,0c0,0,0,0,0.1-0.1c0,0,0,0,0.1,0c0,0,0,0,0,0c0,0,0,0,0,0c0,0,0.1-0.1,0.1-0.1c0,0,0,0,0,0
		c0,0,0,0,0,0c0,0,0,0,0-0.1c0,0,0,0,0,0c0,0,0,0,0,0c0,0,0,0,0-0.1c0,0,0,0,0,0c0,0,0,0,0,0c0,0,0,0,0-0.1c0,0,0,0,0,0c0,0,0,0,0,0
		c0,0,0,0,0-0.1c0,0,0,0,0,0c0,0,0,0,0,0L264.5,196.1z"/>
	<g id="XMLID_1965_">
		<path id="XMLID_1969_" class="st20" d="M111.1,141.8c0-1,0.7-2.1,1.5-2.6c0.8-0.5,1.5-0.1,1.5,0.9c0,1-0.7,2.1-1.5,2.6
			C111.8,143.2,111.1,142.8,111.1,141.8z"/>
		<path id="XMLID_1968_" class="st21" d="M116,139c0-1,0.7-2.1,1.5-2.6c0.8-0.5,1.5-0.1,1.5,0.9s-0.7,2.1-1.5,2.6
			C116.7,140.3,116,139.9,116,139z"/>
		<path id="XMLID_1967_" class="st22" d="M120.9,136.2c0-1,0.7-2.1,1.5-2.6c0.8-0.5,1.5-0.1,1.5,0.9s-0.7,2.1-1.5,2.6
			C121.6,137.5,120.9,137.1,120.9,136.2z"/>
		<path id="XMLID_1966_" class="st23" d="M179.2,104.7l-51.6,29.8c-0.5,0.3-0.8,0-0.8-0.6v-1.8c0-0.6,0.4-1.3,0.8-1.6l51.6-29.8
			c0.5-0.3,0.8,0,0.8,0.6v1.8C180,103.8,179.6,104.5,179.2,104.7z"/>
	</g>
	<polygon id="XMLID_53_" class="st24" points="192.9,203.3 161.4,221.6 201.8,244.9 233.3,226.6 	"/>
	<g id="XMLID_56_">
		<polygon id="XMLID_236_" class="st25" points="134.6,164.8 133.2,165.6 133.2,156.2 134.6,155.3 		"/>
		<polygon id="XMLID_235_" class="st26" points="136.8,163.5 135.3,164.4 135.3,158.2 136.8,157.4 		"/>
		<polygon id="XMLID_234_" class="st27" points="138.9,162.3 137.5,163.1 137.5,145 138.9,144.1 		"/>
		<polygon id="XMLID_233_" class="st25" points="143.2,159.8 141.8,160.6 141.8,145.2 143.2,144.4 		"/>
		<polygon id="XMLID_232_" class="st26" points="145.4,158.6 144,159.4 144,145.3 145.4,144.5 		"/>
		<polygon id="XMLID_231_" class="st27" points="147.6,157.3 146.1,158.1 146.1,140 147.6,139.2 		"/>
		<polygon id="XMLID_230_" class="st25" points="151.9,154.8 150.5,155.6 150.5,140.2 151.9,139.4 		"/>
		<polygon id="XMLID_229_" class="st26" points="154.1,153.5 152.7,154.4 152.7,141.1 154.1,140.2 		"/>
		<polygon id="XMLID_228_" class="st27" points="156.3,152.3 154.8,153.1 154.8,146.1 156.3,145.3 		"/>
		<polygon id="XMLID_138_" class="st25" points="160.6,149.8 159.2,150.6 159.2,129.9 160.6,129.1 		"/>
		<polygon id="XMLID_137_" class="st26" points="162.8,148.5 161.3,149.4 161.3,136 162.8,135.2 		"/>
		<polygon id="XMLID_136_" class="st27" points="164.9,147.3 163.5,148.1 163.5,122.1 164.9,121.2 		"/>
		<polygon id="XMLID_135_" class="st25" points="169.3,144.8 167.9,145.6 167.9,131.2 169.3,130.4 		"/>
		<polygon id="XMLID_131_" class="st26" points="171.5,143.5 170,144.3 170,135.1 171.5,134.2 		"/>
		<polygon id="XMLID_129_" class="st27" points="173.6,142.3 172.2,143.1 172.2,124.9 173.6,124.1 		"/>
		<polygon id="XMLID_128_" class="st25" points="177.3,140.1 175.9,140.9 175.9,120.3 177.3,119.5 		"/>
		<polygon id="XMLID_126_" class="st26" points="178.8,139.3 178.1,139.7 178.1,112.6 178.8,112.2 		"/>
		<polygon id="XMLID_125_" class="st27" points="181.7,137.6 180.2,138.4 180.2,112.4 181.7,111.6 		"/>
		<polygon id="XMLID_124_" class="st28" points="181.7,142.4 133.2,170.4 133.2,168.9 181.7,140.9 		"/>
		<polygon id="XMLID_122_" class="st28" points="181.7,144.1 133.2,172.1 133.2,171.4 181.7,143.4 		"/>
		<polygon id="XMLID_120_" class="st28" points="181.7,145.8 133.2,173.8 133.2,173.1 181.7,145.1 		"/>
		<polygon id="XMLID_119_" class="st28" points="156.9,161.9 133.2,175.6 133.2,174.8 156.9,161.1 		"/>
	</g>
	<g id="XMLID_28_">
		<path id="XMLID_624_" class="st29" d="M118,150.2c-4.8,2.8-8.8,9.6-8.8,15.2l8.8-5.1L118,150.2z"/>
		<path id="XMLID_623_" class="st30" d="M109.2,165.4c0,5.6,3.9,7.9,8.8,5.1v-10.1L109.2,165.4z"/>
		<path id="XMLID_622_" class="st30" d="M118,150.2l0,10.1l8.8-5.1C126.7,149.6,122.8,147.4,118,150.2z"/>
		<path id="XMLID_621_" class="st30" d="M118,170.4c4.8-2.8,8.8-9.6,8.8-15.2l-8.8,5.1V170.4z"/>
		<path id="XMLID_620_" class="st31" d="M118,156.2c-1.9,1.1-3.5,3.8-3.5,6.1l3.5-2V156.2z"/>
		<path id="XMLID_619_" class="st32" d="M118,154l0,6.3l5.4-3.1C123.4,153.7,121,152.3,118,154z"/>
		<path id="XMLID_618_" class="st31" d="M118,160.3v7.6c3.6-2.1,6.6-7.2,6.6-11.4L118,160.3z"/>
		<path id="XMLID_617_" class="st30" d="M120.9,172.9c0,0.7-0.5,1.6-1.1,1.9l-3.7,2.1c-0.6,0.4-1.1,0.1-1.1-0.6l0,0
			c0-0.7,0.5-1.6,1.1-1.9l3.7-2.1C120.4,171.9,120.9,172.2,120.9,172.9L120.9,172.9z"/>
		<path id="XMLID_616_" class="st32" d="M120.9,177.6c0,0.7-0.5,1.6-1.1,1.9l-3.7,2.1c-0.6,0.4-1.1,0.1-1.1-0.6l0,0
			c0-0.7,0.5-1.6,1.1-1.9l3.7-2.1C120.4,176.6,120.9,176.9,120.9,177.6L120.9,177.6z"/>
		<path id="XMLID_615_" class="st31" d="M120.9,182.3c0,0.7-0.5,1.6-1.1,1.9l-3.7,2.1c-0.6,0.4-1.1,0.1-1.1-0.6l0,0
			c0-0.7,0.5-1.6,1.1-1.9l3.7-2.1C120.4,181.3,120.9,181.6,120.9,182.3L120.9,182.3z"/>
	</g>
	<g id="XMLID_1908_">
		<g id="XMLID_1976_">
			<g id="XMLID_1977_" class="st14">
				<g id="XMLID_1984_">
					<polygon id="XMLID_1985_" class="st33" points="273.4,148.4 273.4,150.7 273.6,144.9 273.6,142.5 					"/>
				</g>
				<g id="XMLID_1982_">
					<polygon id="XMLID_1983_" class="st34" points="233.5,171.6 233.4,174 273.4,150.7 273.4,148.4 					"/>
				</g>
				<g id="XMLID_1980_">
					<polygon id="XMLID_1981_" class="st35" points="199.9,152.2 199.9,154.6 233.4,174 233.5,171.6 					"/>
				</g>
				<g id="XMLID_1978_">
					<polygon id="XMLID_1979_" class="st10" points="245.1,126 199.9,152.2 233.5,171.6 273.4,148.4 273.6,142.5 					"/>
				</g>
			</g>
		</g>
		<g id="XMLID_246_">
			<g id="XMLID_247_" class="st14">
				<g id="XMLID_1974_">
					<polygon id="XMLID_1975_" class="st36" points="269.5,144.9 269.5,146.1 273.4,148.4 273.4,147.1 					"/>
				</g>
				<g id="XMLID_1972_">
					<polygon id="XMLID_1973_" class="st37" points="273.4,147.1 273.4,148.4 273.6,143.8 273.6,142.5 					"/>
				</g>
				<g id="XMLID_248_">
					<polygon id="XMLID_1971_" class="st38" points="273.6,142.5 269.5,144.9 273.4,147.1 					"/>
				</g>
			</g>
		</g>
		<g id="XMLID_1946_">
			<g id="XMLID_237_" class="st14">
				<g id="XMLID_244_">
					<polygon id="XMLID_245_" class="st39" points="215,146.9 215,148.7 217.4,150.1 217.4,148.3 					"/>
				</g>
				<g id="XMLID_242_">
					<polygon id="XMLID_243_" class="st40" points="217.4,148.3 217.4,150.1 219.6,148.9 219.6,147 					"/>
				</g>
				<g id="XMLID_239_">
					<polygon id="XMLID_241_" class="st41" points="217.2,145.6 215,146.9 217.4,148.3 219.6,147 					"/>
				</g>
			</g>
			<g id="XMLID_1954_" class="st14">
				<g id="XMLID_1959_">
					<polygon id="XMLID_1960_" class="st39" points="218.5,148.9 218.5,150.7 220.9,152.1 220.9,150.3 					"/>
				</g>
				<g id="XMLID_1957_">
					<polygon id="XMLID_1958_" class="st40" points="220.9,150.3 220.9,152.1 225.2,149.6 225.2,147.8 					"/>
				</g>
				<g id="XMLID_1955_">
					<polygon id="XMLID_1956_" class="st41" points="222.8,146.4 218.5,148.9 220.9,150.3 225.2,147.8 					"/>
				</g>
			</g>
			<g id="XMLID_1947_" class="st14">
				<g id="XMLID_1952_">
					<polygon id="XMLID_1953_" class="st39" points="221.9,150.8 221.9,152.7 224.3,154.1 224.3,152.2 					"/>
				</g>
				<g id="XMLID_1950_">
					<polygon id="XMLID_1951_" class="st40" points="224.3,152.2 224.3,154.1 229.9,150.8 229.9,149 					"/>
				</g>
				<g id="XMLID_1948_">
					<polygon id="XMLID_1949_" class="st41" points="227.5,147.6 221.9,150.8 224.3,152.2 229.9,149 					"/>
				</g>
			</g>
		</g>
		<g id="XMLID_1933_">
			<polygon id="XMLID_1945_" class="st41" points="244.5,159.4 243,158.6 241.6,159.4 243,160.3 			"/>
			<polygon id="XMLID_1944_" class="st42" points="242.3,160.7 240.9,159.8 239.5,160.7 240.9,161.5 			"/>
			<polygon id="XMLID_1943_" class="st43" points="240.2,161.9 238.8,161.1 237.4,161.9 238.8,162.7 			"/>
			<polygon id="XMLID_1942_" class="st44" points="231.1,152.2 241.7,158.3 241.9,158.2 231.4,152.1 			"/>
			<polygon id="XMLID_1941_" class="st44" points="230.7,152.5 241.3,158.6 241.5,158.4 231,152.3 			"/>
			<polygon id="XMLID_1940_" class="st44" points="230.3,152.7 240.9,158.8 241.1,158.7 230.6,152.6 			"/>
			<polygon id="XMLID_1939_" class="st44" points="229,153.5 239.5,159.6 239.8,159.4 229.2,153.3 			"/>
			<polygon id="XMLID_1938_" class="st44" points="228.6,153.7 239.1,159.8 239.4,159.6 228.8,153.6 			"/>
			<polygon id="XMLID_1937_" class="st44" points="228.2,153.9 238.7,160 239,159.9 228.4,153.8 			"/>
			<polygon id="XMLID_1936_" class="st44" points="226.9,154.7 237.4,160.8 237.6,160.6 227.1,154.6 			"/>
			<polygon id="XMLID_1935_" class="st44" points="226.5,154.9 237,161 237.2,160.9 226.7,154.8 			"/>
			<polygon id="XMLID_1934_" class="st44" points="226.1,155.2 236.6,161.2 236.8,161.1 226.3,155 			"/>
		</g>
		<g id="XMLID_1930_">
			<polygon id="XMLID_1932_" class="st44" points="242,131.5 264.9,144.7 268.1,142.9 245.1,129.7 			"/>
			<polygon id="XMLID_1931_" class="st44" points="241.7,134.1 260.4,144.9 262,144 243.3,133.2 			"/>
		</g>
		<g id="XMLID_1909_">
			<g id="XMLID_1921_">
				<path id="XMLID_1929_" class="st45" d="M254.4,141.7c0,0,0,0.1,0,0.1c0,0,0,0,0,0c0,0,0,0.1,0,0.1c0,0,0,0,0,0c0,0,0,0.1,0,0.1
					c0,0,0,0,0,0c0,0,0,0.1,0,0.1c0,0,0,0,0,0c0,0,0,0.1,0,0.1c0,0,0,0,0,0c0,0,0,0.1,0,0.1c0,0,0,0,0,0c0,0,0,0.1,0,0.1
					c0,0,0,0,0,0c0,0,0,0.1,0,0.1c0,0,0,0,0,0c0,0,0,0.1,0,0.1c0,0,0,0,0,0c0,0,0,0.1-0.1,0.1l0,5.3c0,0,0-0.1,0.1-0.1c0,0,0,0,0,0
					c0,0,0-0.1,0-0.1c0,0,0,0,0,0c0,0,0,0,0,0c0,0,0-0.1,0-0.1c0,0,0,0,0,0c0,0,0-0.1,0-0.1c0,0,0,0,0,0c0,0,0-0.1,0-0.1
					c0,0,0,0,0,0c0,0,0-0.1,0-0.1c0,0,0,0,0,0c0,0,0,0,0,0c0,0,0-0.1,0-0.1c0,0,0,0,0,0c0,0,0-0.1,0-0.1v0c0,0,0-0.1,0-0.1
					c0,0,0,0,0,0c0,0,0-0.1,0-0.1c0,0,0,0,0,0c0,0,0-0.1,0-0.1l0-5.3C254.4,141.6,254.4,141.6,254.4,141.7z"/>
				<g id="XMLID_1927_">
					<polygon id="XMLID_1928_" class="st46" points="254,143.3 254,148.5 242.9,146.8 242.9,141.5 					"/>
				</g>
				<g id="XMLID_1925_">
					<polygon id="XMLID_1926_" class="st47" points="246.2,147.9 246.1,153.2 242.9,146.8 242.9,141.5 					"/>
				</g>
				<g id="XMLID_1923_">
					<path id="XMLID_1924_" class="st41" d="M251,136.8c3,1.7,4,4.2,3,6.5l-11.1-1.7l3.2,6.4c-3.9,0.6-8.3,0.1-11.3-1.7
						c-4.5-2.6-4.5-6.8-0.1-9.4C239.2,134.2,246.5,134.2,251,136.8z"/>
				</g>
				<path id="XMLID_1922_" class="st45" d="M245.3,153.3c0,0,0.1,0,0.1,0c0.1,0,0.2,0,0.2,0c0,0,0.1,0,0.1,0c0.1,0,0.2,0,0.3-0.1
					l0-5.3c-0.1,0-0.2,0-0.3,0.1c0,0-0.1,0-0.1,0c-0.1,0-0.2,0-0.2,0c0,0-0.1,0-0.1,0c-0.1,0-0.1,0-0.2,0c0,0-0.1,0-0.1,0
					c-0.1,0-0.2,0-0.2,0c0,0-0.1,0-0.1,0c-0.1,0-0.2,0-0.3,0c0,0-0.1,0-0.1,0c-0.1,0-0.2,0-0.3,0c0,0-0.1,0-0.1,0
					c-0.1,0-0.2,0-0.3,0c0,0-0.1,0-0.1,0c-0.1,0-0.2,0-0.2,0c0,0-0.1,0-0.1,0c-0.1,0-0.2,0-0.3,0c0,0-0.1,0-0.1,0
					c-0.1,0-0.2,0-0.3,0c0,0,0,0-0.1,0c-0.1,0-0.2,0-0.3,0c0,0-0.1,0-0.1,0c-0.1,0-0.2,0-0.3,0c0,0-0.1,0-0.1,0c-0.1,0-0.2,0-0.3,0
					c0,0,0,0-0.1,0c-0.1,0-0.2,0-0.3,0c0,0-0.1,0-0.1,0c-0.1,0-0.2,0-0.3,0c0,0-0.1,0-0.1,0c-0.1,0-0.2,0-0.3,0c0,0,0,0-0.1,0
					c-0.1,0-0.2,0-0.3,0c0,0-0.1,0-0.1,0c-0.1,0-0.2,0-0.2,0c0,0-0.1,0-0.1,0c-0.1,0-0.2,0-0.3-0.1c0,0,0,0,0,0
					c-0.1,0-0.2,0-0.3-0.1c0,0-0.1,0-0.1,0c-0.1,0-0.2,0-0.2-0.1c0,0-0.1,0-0.1,0c-0.1,0-0.1,0-0.2-0.1c0,0-0.1,0-0.1,0
					c-0.1,0-0.1,0-0.2-0.1c-0.1,0-0.1,0-0.2-0.1c-0.1,0-0.1,0-0.2-0.1c-0.1,0-0.1,0-0.2-0.1c-0.1,0-0.1,0-0.2-0.1
					c-0.1,0-0.1,0-0.2-0.1c-0.1,0-0.1,0-0.2-0.1c-0.1,0-0.1,0-0.2-0.1c-0.1,0-0.1,0-0.2-0.1c0,0,0,0-0.1,0c-0.1,0-0.2-0.1-0.3-0.1
					c0,0,0,0,0,0c-0.1,0-0.2-0.1-0.2-0.1c0,0,0,0-0.1,0c-0.1,0-0.2-0.1-0.3-0.1c0,0,0,0,0,0c-0.1,0-0.2-0.1-0.2-0.1c0,0,0,0-0.1,0
					c-0.1,0-0.2-0.1-0.3-0.1c-0.9-0.5-1.7-1.1-2.2-1.8c-0.1-0.1-0.2-0.2-0.2-0.3c-0.2-0.3-0.3-0.5-0.5-0.8c-0.1-0.2-0.2-0.4-0.3-0.6
					c0-0.1-0.1-0.2-0.1-0.3c-0.1-0.3-0.1-0.6-0.1-1l0,5.3c0,1.7,1.1,3.4,3.4,4.7c0.1,0.1,0.2,0.1,0.3,0.1c0,0,0,0,0.1,0
					c0.1,0,0.2,0.1,0.2,0.1c0,0,0,0,0,0c0.1,0,0.2,0.1,0.3,0.1c0,0,0,0,0.1,0c0.1,0,0.2,0.1,0.2,0.1c0,0,0,0,0,0
					c0.1,0,0.2,0.1,0.3,0.1c0,0,0,0,0.1,0c0,0,0.1,0,0.1,0c0,0,0.1,0,0.1,0c0.1,0,0.1,0,0.2,0.1c0.1,0,0.1,0,0.2,0.1
					c0.1,0,0.1,0,0.2,0.1c0.1,0,0.1,0,0.2,0.1c0.1,0,0.1,0,0.2,0.1c0.1,0,0.1,0,0.2,0.1c0.1,0,0.1,0,0.2,0.1c0,0,0.1,0,0.1,0
					c0,0,0.1,0,0.1,0c0,0,0.1,0,0.1,0c0.1,0,0.1,0,0.2,0.1c0,0,0.1,0,0.1,0c0.1,0,0.2,0,0.2,0.1c0,0,0.1,0,0.1,0
					c0.1,0,0.2,0,0.3,0.1c0,0,0,0,0,0c0,0,0,0,0,0c0.1,0,0.2,0,0.3,0.1c0,0,0.1,0,0.1,0c0.1,0,0.2,0,0.2,0c0,0,0.1,0,0.1,0
					c0.1,0,0.2,0,0.3,0c0,0,0,0,0.1,0c0,0,0,0,0,0c0.1,0,0.2,0,0.3,0c0,0,0.1,0,0.1,0c0.1,0,0.2,0,0.3,0c0,0,0.1,0,0.1,0
					c0.1,0,0.2,0,0.3,0c0,0,0,0,0.1,0c0,0,0,0,0,0c0.1,0,0.2,0,0.3,0c0,0,0.1,0,0.1,0c0.1,0,0.2,0,0.3,0c0,0,0.1,0,0.1,0
					c0.1,0,0.2,0,0.3,0c0,0,0,0,0.1,0c0,0,0,0,0,0c0.1,0,0.2,0,0.3,0c0,0,0.1,0,0.1,0c0.1,0,0.2,0,0.3,0c0,0,0.1,0,0.1,0
					c0.1,0,0.2,0,0.2,0c0,0,0.1,0,0.1,0c0,0,0,0,0.1,0c0.1,0,0.1,0,0.2,0c0,0,0.1,0,0.1,0c0.1,0,0.2,0,0.3,0c0,0,0.1,0,0.1,0
					c0.1,0,0.2,0,0.3,0c0,0,0.1,0,0.1,0c0,0,0.1,0,0.1,0c0,0,0.1,0,0.1,0c0,0,0.1,0,0.1,0C245.2,153.3,245.3,153.3,245.3,153.3z"/>
			</g>
			<g id="XMLID_1915_">
				<g id="XMLID_1919_">
					<polygon id="XMLID_1920_" class="st48" points="254.3,149 254.3,154.3 247.2,149 247.2,143.7 					"/>
				</g>
				<g id="XMLID_1917_">
					<path id="XMLID_1918_" class="st43" d="M258.3,145.4c-0.5,1.1-1.5,2.1-3,3c-0.3,0.2-0.7,0.4-1.1,0.6l-7.1-5.3L258.3,145.4z"/>
				</g>
				<path id="XMLID_1916_" class="st49" d="M258.2,150.9c0-0.1,0.1-0.1,0.1-0.2l0-5.3c0,0.1-0.1,0.1-0.1,0.2c0,0,0,0,0,0
					c0,0.1-0.1,0.1-0.1,0.2c0,0,0,0,0,0c0,0.1-0.1,0.1-0.1,0.2c0,0,0,0,0,0c0,0-0.1,0.1-0.1,0.2c0,0,0,0,0,0c0,0.1-0.1,0.1-0.1,0.2
					c0,0,0,0,0,0c0,0-0.1,0.1-0.1,0.1c0,0,0,0,0,0c0,0,0,0,0,0c0,0,0,0,0,0c0,0,0,0,0,0c0,0,0,0,0,0c0,0,0,0,0,0c0,0,0,0,0,0
					c0,0,0,0,0,0c0,0,0,0,0,0c0,0,0,0,0,0c0,0,0,0,0,0c0,0,0,0,0,0c0,0,0,0,0,0c0,0,0,0,0,0c0,0,0,0,0,0c0,0,0,0,0,0c0,0,0,0,0,0
					c0,0-0.1,0.1-0.1,0.1c0,0,0,0,0,0c0,0-0.1,0.1-0.1,0.1c0,0,0,0,0,0c0,0-0.1,0.1-0.1,0.1c0,0,0,0,0,0c0,0-0.1,0.1-0.1,0.1
					c0,0,0,0,0,0c-0.1,0-0.1,0.1-0.2,0.1c0,0,0,0,0,0c0,0-0.1,0.1-0.1,0.1c0,0,0,0,0,0c-0.1,0-0.1,0.1-0.2,0.1c0,0,0,0,0,0
					c-0.1,0-0.1,0.1-0.2,0.1c0,0,0,0,0,0c-0.1,0-0.1,0.1-0.2,0.1c-0.3,0.2-0.7,0.4-1.1,0.6l0,5.3c0.4-0.2,0.7-0.4,1.1-0.6
					c0.1,0,0.1-0.1,0.2-0.1c0,0,0,0,0,0c0,0,0,0,0,0c0.1,0,0.1-0.1,0.2-0.1c0,0,0,0,0,0c0.1,0,0.1-0.1,0.2-0.1c0,0,0,0,0,0
					c0,0,0.1-0.1,0.1-0.1c0,0,0,0,0,0c0.1,0,0.1-0.1,0.2-0.1c0,0,0,0,0,0c0,0,0.1-0.1,0.1-0.1c0,0,0,0,0,0c0.1,0,0.1-0.1,0.1-0.1
					c0,0,0,0,0,0c0,0,0.1-0.1,0.1-0.1c0,0,0,0,0,0c0,0,0.1-0.1,0.1-0.1c0,0,0,0,0,0c0,0,0,0,0,0c0,0,0,0,0.1,0c0,0,0,0,0,0
					c0,0,0,0,0,0c0,0,0,0,0,0c0,0,0,0,0,0c0,0,0,0,0,0c0,0,0,0,0,0c0,0,0,0,0,0c0,0,0,0,0,0c0,0,0,0,0,0c0,0,0,0,0,0c0,0,0,0,0,0
					c0,0,0,0,0,0c0,0,0,0,0,0c0,0,0,0,0,0c0,0,0,0,0,0c0,0,0,0,0,0c0,0,0.1-0.1,0.1-0.1c0,0,0,0,0,0c0-0.1,0.1-0.1,0.1-0.2
					c0,0,0,0,0,0c0,0,0.1-0.1,0.1-0.2c0,0,0,0,0,0c0,0,0.1-0.1,0.1-0.2c0,0,0,0,0,0c0,0,0,0,0,0C258.2,151,258.2,151,258.2,150.9
					C258.2,150.9,258.2,150.9,258.2,150.9z"/>
			</g>
			<g id="XMLID_1910_">
				<path id="XMLID_1914_" class="st50" d="M250.9,154.3c0.1,0,0.2-0.1,0.3-0.1c0,0,0,0,0.1,0c0.1,0,0.2-0.1,0.3-0.1c0,0,0,0,0.1,0
					c0.1,0,0.2-0.1,0.3-0.1l0-5.3c-0.1,0-0.2,0.1-0.3,0.1c0,0,0,0-0.1,0c-0.1,0-0.2,0.1-0.3,0.1c0,0,0,0-0.1,0
					c-0.1,0-0.2,0.1-0.3,0.1c0,0,0,0,0,0c-0.1,0-0.2,0.1-0.3,0.1c0,0-0.1,0-0.1,0c0,0-0.1,0-0.1,0c0,0-0.1,0-0.1,0c0,0-0.1,0-0.1,0
					c0,0-0.1,0-0.1,0c0,0-0.1,0-0.1,0c0,0-0.1,0-0.1,0c0,0-0.1,0-0.2,0c0,0-0.1,0-0.1,0c-0.1,0-0.1,0-0.2,0c0,0-0.1,0-0.1,0
					c-0.1,0-0.1,0-0.2,0c0,0-0.1,0-0.1,0c-0.1,0-0.2,0-0.3,0.1c0,0,0,0,0,0c-0.1,0-0.1,0-0.2,0c-0.1,0-0.2,0-0.2,0l0,5.3
					c0.1,0,0.2,0,0.2,0c0,0,0,0,0,0c0.1,0,0.1,0,0.2,0c0,0,0,0,0,0c0.1,0,0.2,0,0.3-0.1c0,0,0.1,0,0.1,0c0.1,0,0.1,0,0.2,0
					c0,0,0.1,0,0.1,0c0.1,0,0.1,0,0.2,0c0,0,0.1,0,0.1,0c0,0,0.1,0,0.1,0c0,0,0.1,0,0.1,0c0,0,0.1,0,0.1,0c0,0,0.1,0,0.1,0
					c0,0,0.1,0,0.1,0c0,0,0.1,0,0.1,0c0,0,0.1,0,0.1,0c0,0,0,0,0.1,0c0,0,0,0,0,0C250.7,154.4,250.8,154.3,250.9,154.3
					C250.9,154.3,250.9,154.3,250.9,154.3z"/>
				<g id="XMLID_1912_">
					<path id="XMLID_1913_" class="st42" d="M244.9,143.3l7.1,5.3c-1.2,0.5-2.5,0.9-3.9,1.1L244.9,143.3z"/>
				</g>
				<polygon id="XMLID_1911_" class="st51" points="248.2,155 244.9,143.3 248.2,149.7 				"/>
			</g>
		</g>
	</g>
	<g id="XMLID_402_">
		<polygon id="XMLID_427_" class="st10" points="161.2,219.7 192.7,201.4 233.1,224.8 201.6,243 		"/>
		<g id="XMLID_424_">
			<path id="XMLID_426_" class="st52" d="M209.9,221.9c-1.5,0.9-2.1,2.1-1.7,3.3c0.1,0,0.1,0.1,0.2,0.1c2,1.2,5.4,1.2,7.4,0
				c2-1.2,2-3.1,0-4.3c-0.1,0-0.1-0.1-0.2-0.1C213.6,220.7,211.5,221,209.9,221.9z"/>
			<path id="XMLID_425_" class="st53" d="M218.2,224.3c1.1,0.7,1.1,1.7,0,2.4c-1.1,0.7-3,0.7-4.1,0c-1.1-0.7-1.1-1.7,0-2.4
				C215.3,223.6,217.1,223.6,218.2,224.3z"/>
		</g>
		<g id="XMLID_421_">
			<path id="XMLID_423_" class="st54" d="M199.1,215.6c-1.5,0.9-2.1,2.1-1.7,3.3c0.1,0,0.1,0.1,0.2,0.1c2,1.2,5.4,1.2,7.4,0
				c2-1.2,2-3.1,0-4.3c-0.1,0-0.1-0.1-0.2-0.1C202.8,214.4,200.7,214.7,199.1,215.6z"/>
			<path id="XMLID_422_" class="st55" d="M207.4,218.1c1.1,0.7,1.1,1.7,0,2.4c-1.1,0.7-3,0.7-4.1,0c-1.1-0.7-1.1-1.7,0-2.4
				C204.4,217.4,206.3,217.4,207.4,218.1z"/>
		</g>
		<g id="XMLID_416_">
			<polygon id="XMLID_420_" class="st56" points="196.2,236.5 209.1,229.1 209.6,229.4 196.7,236.8 			"/>
			<polygon id="XMLID_419_" class="st56" points="194.6,235.6 207.5,228.2 208,228.5 195.1,235.9 			"/>
			<polygon id="XMLID_418_" class="st56" points="193,234.7 205.9,227.2 206.4,227.6 193.5,235 			"/>
			<polygon id="XMLID_417_" class="st56" points="191.4,233.8 204.3,226.3 204.8,226.6 191.9,234.1 			"/>
		</g>
		<g id="XMLID_411_">
			<polygon id="XMLID_415_" class="st56" points="184.6,229.8 197.5,222.4 198,222.7 185.2,230.2 			"/>
			<polygon id="XMLID_414_" class="st56" points="183,228.9 195.9,221.5 196.4,221.8 183.6,229.2 			"/>
			<polygon id="XMLID_413_" class="st56" points="181.4,228 194.3,220.6 194.8,220.9 182,228.3 			"/>
			<polygon id="XMLID_412_" class="st56" points="179.8,227.1 192.7,219.6 193.3,220 180.4,227.4 			"/>
		</g>
		<g id="XMLID_408_">
			<path id="XMLID_410_" class="st57" d="M188.1,209.3c-1.5,0.9-2.1,2.1-1.7,3.3c0.1,0,0.1,0.1,0.2,0.1c2,1.2,5.3,1.2,7.4,0
				c2-1.2,2-3.1,0-4.3c-0.1,0-0.1-0.1-0.2-0.1C191.8,208.1,189.6,208.4,188.1,209.3z"/>
			<path id="XMLID_409_" class="st55" d="M196.4,211.7c1.1,0.7,1.1,1.7,0,2.4c-1.1,0.7-3,0.7-4.1,0c-1.1-0.7-1.1-1.7,0-2.4
				C193.4,211,195.3,211,196.4,211.7z"/>
		</g>
		<g id="XMLID_403_">
			<polygon id="XMLID_407_" class="st56" points="173.6,223.5 186.5,216 187,216.4 174.1,223.8 			"/>
			<polygon id="XMLID_406_" class="st56" points="172,222.6 184.9,215.1 185.4,215.4 172.6,222.9 			"/>
			<polygon id="XMLID_405_" class="st56" points="170.4,221.6 183.3,214.2 183.8,214.5 171,222 			"/>
			<polygon id="XMLID_404_" class="st56" points="168.8,220.7 181.7,213.3 182.2,213.6 169.4,221 			"/>
		</g>
	</g>
	<g id="XMLID_376_">
		<polygon id="XMLID_401_" class="st10" points="169.2,229.8 137.6,211.6 178,188.3 209.6,206.5 		"/>
		<g id="XMLID_398_">
			<path id="XMLID_400_" class="st52" d="M173,201.7c1.5,0.9,3.7,1.2,5.7,1c0.1,0,0.1-0.1,0.2-0.1c2-1.2,2-3.1,0-4.3
				c-2-1.2-5.3-1.2-7.4,0c-0.1,0-0.1,0.1-0.2,0.1C170.9,199.6,171.5,200.8,173,201.7z"/>
			<path id="XMLID_399_" class="st53" d="M177.2,196.9c1.1-0.7,3-0.7,4.1,0c1.1,0.7,1.1,1.7,0,2.4c-1.1,0.7-3,0.7-4.1,0
				C176.1,198.6,176.1,197.6,177.2,196.9z"/>
		</g>
		<g id="XMLID_395_">
			<path id="XMLID_397_" class="st54" d="M162.2,207.9c1.5,0.9,3.7,1.2,5.7,1c0.1,0,0.1-0.1,0.2-0.1c2-1.2,2-3.1,0-4.3
				c-2-1.2-5.4-1.2-7.4,0c-0.1,0-0.1,0.1-0.2,0.1C160.1,205.8,160.7,207.1,162.2,207.9z"/>
			<path id="XMLID_396_" class="st55" d="M166.4,203.2c1.1-0.7,3-0.7,4.1,0c1.1,0.7,1.1,1.7,0,2.4c-1.1,0.7-3,0.7-4.1,0
				C165.3,204.9,165.3,203.8,166.4,203.2z"/>
		</g>
		<g id="XMLID_390_">
			<polygon id="XMLID_394_" class="st56" points="198.4,209.6 185.5,202.2 186.1,201.9 198.9,209.3 			"/>
			<polygon id="XMLID_393_" class="st56" points="196.8,210.6 183.9,203.1 184.5,202.8 197.3,210.2 			"/>
			<polygon id="XMLID_392_" class="st56" points="195.2,211.5 182.3,204.1 182.9,203.7 195.7,211.2 			"/>
			<polygon id="XMLID_391_" class="st56" points="193.6,212.4 180.7,205 181.3,204.7 194.1,212.1 			"/>
		</g>
		<g id="XMLID_385_">
			<polygon id="XMLID_389_" class="st56" points="186.8,216.3 173.9,208.9 174.5,208.6 187.4,216 			"/>
			<polygon id="XMLID_388_" class="st56" points="185.2,217.2 172.3,209.8 172.9,209.5 185.8,216.9 			"/>
			<polygon id="XMLID_387_" class="st56" points="183.6,218.2 170.7,210.7 171.3,210.4 184.2,217.8 			"/>
			<polygon id="XMLID_386_" class="st56" points="182,219.1 169.2,211.6 169.7,211.3 182.6,218.8 			"/>
		</g>
		<g id="XMLID_382_">
			<path id="XMLID_384_" class="st57" d="M151.2,214.3c1.5,0.9,3.7,1.2,5.7,1c0.1,0,0.1-0.1,0.2-0.1c2-1.2,2-3.1,0-4.3
				c-2-1.2-5.4-1.2-7.4,0c-0.1,0-0.1,0.1-0.2,0.1C149.1,212.2,149.7,213.4,151.2,214.3z"/>
			<path id="XMLID_383_" class="st55" d="M155.4,209.5c1.1-0.7,3-0.7,4.1,0c1.1,0.7,1.1,1.7,0,2.4c-1.1,0.7-3,0.7-4.1,0
				C154.3,211.2,154.3,210.2,155.4,209.5z"/>
		</g>
		<g id="XMLID_377_">
			<polygon id="XMLID_381_" class="st56" points="175.8,222.7 162.9,215.2 163.5,214.9 176.4,222.4 			"/>
			<polygon id="XMLID_380_" class="st56" points="174.2,223.6 161.3,216.2 161.9,215.8 174.8,223.3 			"/>
			<polygon id="XMLID_379_" class="st56" points="172.6,224.5 159.7,217.1 160.3,216.8 173.2,224.2 			"/>
			<polygon id="XMLID_378_" class="st56" points="171,225.4 158.1,218 158.7,217.7 171.6,225.1 			"/>
		</g>
	</g>
	<g id="XMLID_344_">
		<path id="XMLID_375_" class="st58" d="M161.1,204.2c-0.8-0.4-0.8-1.2,0-1.6l33.3-19.2c0.8-0.4,2-0.4,2.8,0l42,24.3
			c0.8,0.4,0.8,1.2,0,1.6l-33.3,19.2c-0.8,0.4-2,0.4-2.8,0L161.1,204.2z"/>
		<polygon id="XMLID_374_" class="st10" points="164.2,203.4 195.7,185.2 236.1,208.5 204.5,226.7 		"/>
		<g id="XMLID_370_">
			<polygon id="XMLID_373_" class="st59" points="210.9,222 228,212.1 233.6,215.4 216.5,225.2 			"/>
			<path id="XMLID_372_" class="st59" d="M227.5,218.9c1.4,0.8,1.4,2.1,0,2.9c-1.4,0.8-3.6,0.8-5,0c-1.4-0.8-1.4-2.1,0-2.9
				C223.9,218.1,226.1,218.1,227.5,218.9z"/>
			<path id="XMLID_371_" class="st60" d="M225.9,219.8c0.5,0.3,0.5,0.8,0,1c-0.5,0.3-1.3,0.3-1.8,0c-0.5-0.3-0.5-0.8,0-1
				C224.6,219.5,225.4,219.5,225.9,219.8z"/>
		</g>
		<g id="XMLID_367_">
			<path id="XMLID_369_" class="st52" d="M212.9,205.6c-1.5,0.9-2.1,2.1-1.7,3.3c0.1,0,0.1,0.1,0.2,0.1c2,1.2,5.4,1.2,7.4,0
				c2-1.2,2-3.1,0-4.3c-0.1,0-0.1-0.1-0.2-0.1C216.6,204.4,214.5,204.7,212.9,205.6z"/>
			<path id="XMLID_368_" class="st53" d="M221.2,208c1.1,0.7,1.1,1.7,0,2.4c-1.1,0.7-3,0.7-4.1,0c-1.1-0.7-1.1-1.7,0-2.4
				C218.2,207.4,220.1,207.4,221.2,208z"/>
		</g>
		<g id="XMLID_364_">
			<path id="XMLID_366_" class="st54" d="M202.1,199.4c-1.5,0.9-2.1,2.1-1.7,3.3c0.1,0,0.1,0.1,0.2,0.1c2,1.2,5.4,1.2,7.4,0
				c2-1.2,2-3.1,0-4.3c-0.1,0-0.1-0.1-0.2-0.1C205.8,198.1,203.6,198.5,202.1,199.4z"/>
			<path id="XMLID_365_" class="st55" d="M210.4,201.8c1.1,0.7,1.1,1.7,0,2.4c-1.1,0.7-3,0.7-4.1,0c-1.1-0.7-1.1-1.7,0-2.4
				C207.4,201.1,209.3,201.1,210.4,201.8z"/>
		</g>
		<g id="XMLID_359_">
			<polygon id="XMLID_363_" class="st56" points="199.2,220.2 212,212.8 212.6,213.1 199.7,220.6 			"/>
			<polygon id="XMLID_362_" class="st56" points="197.6,219.3 210.4,211.9 211,212.2 198.1,219.6 			"/>
			<polygon id="XMLID_361_" class="st56" points="196,218.4 208.9,211 209.4,211.3 196.5,218.7 			"/>
			<polygon id="XMLID_360_" class="st56" points="194.4,217.5 207.3,210 207.8,210.4 194.9,217.8 			"/>
		</g>
		<g id="XMLID_353_">
			<polygon id="XMLID_358_" class="st56" points="187.6,213.6 200.5,206.1 201,206.4 188.1,213.9 			"/>
			<polygon id="XMLID_356_" class="st56" points="186,212.6 198.9,205.2 199.4,205.5 186.6,213 			"/>
			<polygon id="XMLID_355_" class="st56" points="184.4,211.7 197.3,204.3 197.8,204.6 185,212 			"/>
			<polygon id="XMLID_354_" class="st56" points="182.8,210.8 195.7,203.4 196.2,203.7 183.4,211.1 			"/>
		</g>
		<g id="XMLID_350_">
			<path id="XMLID_352_" class="st57" d="M191.1,193c-1.5,0.9-2.1,2.1-1.7,3.3c0.1,0,0.1,0.1,0.2,0.1c2,1.2,5.4,1.2,7.4,0
				c2-1.2,2-3.1,0-4.3c-0.1,0-0.1-0.1-0.2-0.1C194.8,191.8,192.6,192.1,191.1,193z"/>
			<path id="XMLID_351_" class="st55" d="M199.4,195.4c1.1,0.7,1.1,1.7,0,2.4c-1.1,0.7-3,0.7-4.1,0c-1.1-0.7-1.1-1.7,0-2.4
				C196.4,194.8,198.3,194.8,199.4,195.4z"/>
		</g>
		<g id="XMLID_345_">
			<polygon id="XMLID_349_" class="st56" points="176.6,207.2 189.5,199.8 190,200.1 177.1,207.5 			"/>
			<polygon id="XMLID_348_" class="st56" points="175,206.3 187.9,198.9 188.4,199.2 175.5,206.6 			"/>
			<polygon id="XMLID_347_" class="st56" points="173.4,205.4 186.3,197.9 186.8,198.2 174,205.7 			"/>
			<polygon id="XMLID_346_" class="st56" points="171.8,204.4 184.7,197 185.2,197.3 172.4,204.8 			"/>
		</g>
	</g>
	<g id="XMLID_274_">
		<polygon id="XMLID_343_" class="st61" points="174.2,215.5 174.2,216 160.3,208 160.3,207.4 		"/>
		<g id="XMLID_275_">
			<polygon id="XMLID_342_" class="st61" points="213.4,193.4 174.2,216 160.3,208 199.5,185.3 			"/>
			<polygon id="XMLID_341_" class="st62" points="167.2,183.3 160.3,207.4 172.9,200.1 			"/>
			<polygon id="XMLID_340_" class="st63" points="213.4,192.8 174.2,215.5 160.3,207.4 199.5,184.8 			"/>
			<polygon id="XMLID_339_" class="st64" points="213.4,192.8 174.2,215.5 167.2,183.3 206.4,160.6 			"/>
			<polygon id="XMLID_338_" class="st65" points="213.4,193.4 213.4,192.8 174.2,215.5 174.2,216 			"/>
			<g id="XMLID_285_">
				<g id="XMLID_326_">
					<path id="XMLID_336_" d="M186,177.7l0.4-0.2l0.5,2.1l-0.3,0.2l-0.3-1.3c0-0.1,0-0.3-0.1-0.5l0,0c0,0.1,0,0.3,0,0.4l-0.1,1.6
						l-0.2,0.1l-0.8-1.1c-0.1-0.1-0.1-0.2-0.2-0.3l0,0c0,0.2,0.1,0.3,0.1,0.5l0.3,1.3l-0.3,0.2l-0.5-2.1l0.4-0.2l0.8,1.2
						c0,0,0,0.1,0.1,0.1c0,0,0,0.1,0,0.1c0-0.1,0-0.2,0-0.3L186,177.7z"/>
					<path id="XMLID_333_" d="M187.6,176.8c0.6-0.3,0.9-0.1,1.1,0.6c0.1,0.7-0.1,1.2-0.6,1.6c-0.6,0.3-0.9,0.1-1.1-0.6
						C186.8,177.7,187.1,177.2,187.6,176.8z M188,178.7c0.4-0.2,0.5-0.6,0.4-1.1c-0.1-0.5-0.4-0.6-0.8-0.5c-0.4,0.2-0.5,0.6-0.4,1.1
						C187.4,178.7,187.6,178.9,188,178.7z"/>
					<path id="XMLID_331_" d="M190.4,177.2L190.4,177.2c0-0.1-0.1-0.3-0.1-0.4l-0.3-1.3l0.3-0.2l0.5,2.1l-0.3,0.2
						c-0.5-0.4-0.8-0.7-1-0.9c-0.1-0.1-0.2-0.2-0.2-0.3l0,0c0,0.1,0.1,0.2,0.1,0.4l0.3,1.3l-0.3,0.2l-0.5-2.1l0.3-0.2
						c0.5,0.4,0.8,0.7,1,0.9C190.2,177,190.3,177.1,190.4,177.2z"/>
					<path id="XMLID_329_" d="M192.1,174.7l-0.6,0.3l0.4,1.8l-0.3,0.2l-0.4-1.8l-0.6,0.3l-0.1-0.3l1.5-0.8L192.1,174.7z"/>
					<path id="XMLID_327_" d="M193.4,173.6l0.3-0.2l0.5,2.1l-0.3,0.2l-0.2-0.9l-0.9,0.5l0.2,0.9l-0.3,0.2l-0.5-2.1l0.3-0.2l0.2,0.9
						l0.9-0.5L193.4,173.6z"/>
				</g>
				<polygon id="XMLID_325_" class="st62" points="202.2,173 176.7,187.5 176.6,187 202.2,172.5 				"/>
				<polygon id="XMLID_324_" class="st62" points="180.7,189.8 178.7,190.9 178.1,188.6 180.1,187.4 				"/>
				<polygon id="XMLID_323_" class="st62" points="184.4,187.6 182.4,188.8 181.9,186.4 183.8,185.3 				"/>
				<polygon id="XMLID_322_" class="st62" points="188,185.6 186.1,186.7 185.6,184.4 187.5,183.2 				"/>
				<polygon id="XMLID_321_" class="st62" points="191.7,183.5 189.7,184.6 189.2,182.3 191.2,181.2 				"/>
				<polygon id="XMLID_320_" class="st62" points="195.3,181.4 193.4,182.5 192.9,180.2 194.8,179.1 				"/>
				<polygon id="XMLID_319_" class="st62" points="198.9,179.4 197,180.4 196.5,178.1 198.4,177.1 				"/>
				<polygon id="XMLID_318_" class="st62" points="202.5,177.3 200.6,178.4 200.1,176.1 202,175 				"/>
				<polygon id="XMLID_317_" class="st62" points="181.6,194 179.7,195.1 179.1,192.8 181.1,191.7 				"/>
				<polygon id="XMLID_316_" class="st62" points="185.3,191.9 183.4,193 182.8,190.7 184.8,189.5 				"/>
				<polygon id="XMLID_315_" class="st62" points="189,189.7 187,190.9 186.5,188.6 188.5,187.4 				"/>
				<polygon id="XMLID_314_" class="st62" points="192.6,187.7 190.7,188.8 190.2,186.5 192.1,185.4 				"/>
				<polygon id="XMLID_313_" class="st62" points="196.2,185.6 194.3,186.7 193.8,184.4 195.7,183.3 				"/>
				<polygon id="XMLID_312_" class="st62" points="199.8,183.5 197.9,184.6 197.4,182.3 199.3,181.2 				"/>
				<polygon id="XMLID_311_" class="st62" points="203.4,181.5 201.5,182.6 201,180.3 202.9,179.2 				"/>
				<polygon id="XMLID_310_" class="st62" points="182.6,198.2 180.6,199.3 180.1,197 182.1,195.9 				"/>
				<polygon id="XMLID_308_" class="st62" points="186.3,196 184.3,197.2 183.8,194.9 185.7,193.7 				"/>
				<polygon id="XMLID_307_" class="st62" points="189.9,193.9 188,195 187.5,192.8 189.4,191.6 				"/>
				<polygon id="XMLID_305_" class="st62" points="193.5,191.8 191.6,192.9 191.1,190.6 193,189.5 				"/>
				<polygon id="XMLID_304_" class="st62" points="197.1,189.7 195.2,190.8 194.7,188.6 196.6,187.5 				"/>
				<polygon id="XMLID_302_" class="st62" points="200.7,187.7 198.8,188.8 198.3,186.5 200.2,185.4 				"/>
				<polygon id="XMLID_301_" class="st62" points="204.3,185.6 202.4,186.7 201.9,184.4 203.8,183.3 				"/>
				<polygon id="XMLID_300_" class="st62" points="183.6,202.3 181.6,203.5 181.1,201.2 183,200 				"/>
				<polygon id="XMLID_299_" class="st62" points="187.2,200.2 185.3,201.3 184.7,199 186.7,197.9 				"/>
				<polygon id="XMLID_298_" class="st62" points="190.9,198.1 188.9,199.2 188.4,196.9 190.3,195.8 				"/>
				<polygon id="XMLID_297_" class="st62" points="194.5,196 192.5,197.1 192,194.8 194,193.7 				"/>
				<polygon id="XMLID_296_" class="st62" points="198.1,193.9 196.1,195 195.6,192.7 197.6,191.6 				"/>
				<polygon id="XMLID_295_" class="st62" points="201.6,191.8 199.7,192.9 199.2,190.6 201.1,189.5 				"/>
				<polygon id="XMLID_294_" class="st62" points="205.2,189.7 203.3,190.8 202.8,188.6 204.7,187.5 				"/>
				<polygon id="XMLID_293_" class="st62" points="184.5,206.5 182.5,207.6 182,205.4 184,204.2 				"/>
				<polygon id="XMLID_292_" class="st62" points="188.2,204.4 186.2,205.5 185.7,203.2 187.6,202.1 				"/>
				<polygon id="XMLID_291_" class="st62" points="191.8,202.2 189.9,203.4 189.3,201.1 191.3,199.9 				"/>
				<polygon id="XMLID_290_" class="st62" points="195.4,200.1 193.5,201.2 193,199 194.9,197.8 				"/>
				<polygon id="XMLID_289_" class="st62" points="199,198 197.1,199.1 196.6,196.9 198.5,195.7 				"/>
				<polygon id="XMLID_288_" class="st62" points="202.5,195.9 200.6,197 200.1,194.8 202,193.6 				"/>
				<polygon id="XMLID_287_" class="st62" points="206.1,193.8 204.2,194.9 203.7,192.7 205.6,191.6 				"/>
			</g>
		</g>
	</g>
	<polygon id="XMLID_273_" class="st24" points="187.4,219.4 202.5,228.2 185.4,220.5 	"/>
	<polygon id="XMLID_271_" class="st24" points="169.2,229.8 187.4,219.4 188.1,219.9 	"/>
	<polygon id="XMLID_270_" class="st24" points="174.2,216 177.8,213.9 180.4,215.4 	"/>
	<polygon id="XMLID_267_" class="st24" points="177.8,213.9 214,193 214.3,193.3 178.3,214.2 	"/>
	<g id="XMLID_49_">
		<path id="XMLID_134_" class="st30" d="M228.8,107.5c0,0.8-0.5,1.7-1.2,2.1l-4,2.3c-0.7,0.4-1.2,0.1-1.2-0.7l0,0
			c0-0.8,0.5-1.7,1.2-2.1l4-2.3C228.2,106.4,228.8,106.7,228.8,107.5L228.8,107.5z"/>
		<path id="XMLID_133_" class="st32" d="M228.8,112.5c0,0.8-0.5,1.7-1.2,2.1l-4,2.3c-0.7,0.4-1.2,0.1-1.2-0.7l0,0
			c0-0.8,0.5-1.7,1.2-2.1l4-2.3C228.2,111.4,228.8,111.7,228.8,112.5L228.8,112.5z"/>
		<path id="XMLID_132_" class="st31" d="M228.8,117.6c0,0.8-0.5,1.7-1.2,2.1l-4,2.3c-0.7,0.4-1.2,0.1-1.2-0.7l0,0
			c0-0.8,0.5-1.7,1.2-2.1l4-2.3C228.2,116.5,228.8,116.8,228.8,117.6L228.8,117.6z"/>
		<path id="XMLID_130_" class="st30" d="M205.5,134.5c0,1.3-0.9,2.8-2,3.5l-0.2,0.1c-1.1,0.6-2,0.1-2-1.2v-28.5c0-1.3,0.9-2.8,2-3.5
			l0.2-0.1c1.1-0.6,2-0.1,2,1.2V134.5z"/>
		<path id="XMLID_127_" class="st31" d="M203.5,111.9l-0.2,0.1c-1.1,0.6-2,2.2-2,3.5V137c0,1.3,0.9,1.8,2,1.2l0.2-0.1
			c1.1-0.6,2-2.2,2-3.5v-21.4C205.5,111.8,204.6,111.3,203.5,111.9z"/>
		<path id="XMLID_123_" class="st30" d="M212.1,130.7c0,1.3-0.9,2.8-2,3.5l-0.2,0.1c-1.1,0.6-2,0.1-2-1.2v-28.5c0-1.3,0.9-2.8,2-3.5
			l0.2-0.1c1.1-0.6,2-0.1,2,1.2V130.7z"/>
		<path id="XMLID_55_" class="st32" d="M210.1,101l-0.2,0.1c-1.1,0.6-2,2.2-2,3.5v0.8c0,1.3,0.9,1.8,2,1.2l0.2-0.1
			c1.1-0.6,2-2.2,2-3.5v-0.8C212.1,100.9,211.2,100.4,210.1,101z"/>
		<path id="XMLID_54_" class="st30" d="M218.8,126.9c0,1.3-0.9,2.8-2,3.5l-0.2,0.1c-1.1,0.6-2,0.1-2-1.2l0-28.5c0-1.3,0.9-2.8,2-3.5
			l0.2-0.1c1.1-0.6,2-0.1,2,1.2V126.9z"/>
	</g>
</g>
</svg>
