<?xml version="1.0" encoding="utf-8"?>
<!-- Generator: Adobe Illustrator 22.1.0, SVG Export Plug-In . SVG Version: 6.00 Build 0)  -->
<svg version="1.0" id="Layer_1" xmlns="http://www.w3.org/2000/svg" xmlns:xlink="http://www.w3.org/1999/xlink" x="0px" y="0px"
	 viewBox="0 0 274 257" enable-background="new 0 0 274 257" xml:space="preserve">
<g>
	<path opacity="0.3" fill="#333333" d="M131.5,135.9c-4.3-2.5-10.5-3.2-15.9-2.2l-14.9-8.7c-0.7-0.4-1.5-0.4-2.2,0l-18,10.4
		c-0.8,0.4-0.8,1.5,0,2c6.5,3.9,29.9,17.7,29.9,17.7c0,0-0.1-0.1-0.1-0.1c0.3,0.2,0.6,0.3,1.1,0l6.1-3.5l4,2.3c0,1,0.4,1.7,1,2
		c0,0,0.6,0.4,1.3,0.7c0.8,0.5,3.2,1.4,7.9-2.9c2.1-1.9-0.2-3.7-1.1-4.2c0,0,0,0,0,0l-0.1-0.1c0.4-0.2,0.9-0.4,1.3-0.7
		C137.6,145.2,137.6,139.5,131.5,135.9z"/>
	<g id="_x38_">
		<g>
			<linearGradient id="SVGID_1_" gradientUnits="userSpaceOnUse" x1="132.4725" y1="145.2655" x2="106.742" y2="145.2655">
				<stop  offset="0" style="stop-color:#212121"/>
				<stop  offset="1" style="stop-color:#0F0F0F"/>
			</linearGradient>
			<path fill="url(#SVGID_1_)" d="M137.2,140.8c0,0.1,0,0.3,0,0.4c0,0.1-0.1,0.2-0.1,0.3c0,0.1-0.1,0.3-0.1,0.4
				c0,0.1-0.1,0.2-0.1,0.3c-0.1,0.1-0.1,0.3-0.2,0.4c-0.1,0.2-0.2,0.4-0.3,0.6c0,0,0,0.1-0.1,0.1c-0.1,0.2-0.3,0.4-0.4,0.5
				c0,0-0.1,0.1-0.1,0.1c-0.2,0.2-0.4,0.4-0.6,0.6c-0.1,0.1-0.3,0.2-0.4,0.3c-0.1,0.1-0.2,0.2-0.4,0.3c-0.2,0.1-0.3,0.2-0.5,0.3
				c-0.2,0.1-0.3,0.2-0.5,0.3c-0.4,0.2-0.8,0.4-1.3,0.6c-0.1,0.1-0.3,0.1-0.4,0.2c-0.3,0.1-0.7,0.3-1,0.4c-0.1,0-0.3,0.1-0.4,0.1
				c-0.2,0.1-0.5,0.1-0.7,0.2c-0.2,0-0.3,0.1-0.5,0.1c-0.2,0.1-0.5,0.1-0.7,0.2c-0.2,0-0.3,0.1-0.5,0.1c-0.5,0.1-1,0.2-1.5,0.2
				c-0.2,0-0.3,0-0.5,0c-0.3,0-0.6,0-0.9,0.1c-0.2,0-0.4,0-0.6,0c-0.2,0-0.5,0-0.7,0c-0.2,0-0.4,0-0.6,0c-0.2,0-0.5,0-0.7,0
				c-0.2,0-0.4,0-0.6-0.1c-0.2,0-0.4,0-0.7-0.1c-0.2,0-0.4-0.1-0.6-0.1c-0.2,0-0.5-0.1-0.7-0.1c-0.2,0-0.4-0.1-0.6-0.1
				c-0.3-0.1-0.6-0.1-0.8-0.2c-0.2,0-0.3-0.1-0.5-0.1c-0.5-0.1-1-0.3-1.4-0.5c-0.2-0.1-0.5-0.2-0.7-0.3c-0.1-0.1-0.2-0.1-0.3-0.2
				c-0.3-0.2-0.7-0.3-1-0.5c-2.6-1.5-4-3.5-4-5.5l0,2.1c0,2,1.3,4,4,5.5c0.3,0.2,0.6,0.4,1,0.5c0.1,0.1,0.2,0.1,0.3,0.2
				c0.2,0.1,0.4,0.2,0.6,0.3c0,0,0,0,0.1,0c0.5,0.2,0.9,0.3,1.4,0.5c0,0,0.1,0,0.1,0c0.1,0,0.2,0.1,0.3,0.1c0.3,0.1,0.6,0.1,0.8,0.2
				c0.1,0,0.1,0,0.2,0.1c0.1,0,0.2,0,0.3,0.1c0.2,0,0.5,0.1,0.7,0.1c0.1,0,0.2,0,0.3,0c0.1,0,0.2,0,0.3,0c0.2,0,0.4,0.1,0.7,0.1
				c0.1,0,0.2,0,0.3,0c0.1,0,0.2,0,0.3,0c0.2,0,0.5,0,0.7,0c0.1,0,0.2,0,0.3,0c0.1,0,0.2,0,0.3,0c0.2,0,0.5,0,0.7,0
				c0.1,0,0.2,0,0.4,0c0.1,0,0.1,0,0.2,0c0.3,0,0.6,0,0.9-0.1c0.1,0,0.2,0,0.4,0c0,0,0.1,0,0.1,0c0.5-0.1,1-0.1,1.5-0.2
				c0,0,0.1,0,0.1,0c0.1,0,0.3-0.1,0.4-0.1c0.2-0.1,0.5-0.1,0.7-0.2c0.2,0,0.4-0.1,0.5-0.1c0.2-0.1,0.5-0.1,0.7-0.2c0,0,0.1,0,0.1,0
				c0.1,0,0.2-0.1,0.2-0.1c0.4-0.1,0.7-0.3,1.1-0.4c0.1-0.1,0.3-0.1,0.4-0.2c0.4-0.2,0.9-0.4,1.3-0.6c0.1,0,0.1-0.1,0.2-0.1
				c0.1-0.1,0.2-0.2,0.3-0.2c0.2-0.1,0.3-0.2,0.5-0.3c0.1-0.1,0.3-0.2,0.4-0.3c0.1-0.1,0.3-0.2,0.4-0.3c0,0,0.1,0,0.1-0.1
				c0.2-0.2,0.3-0.3,0.5-0.5c0,0,0.1-0.1,0.1-0.1c0.1-0.1,0.2-0.2,0.3-0.3c0.1-0.1,0.1-0.2,0.2-0.2c0,0,0-0.1,0.1-0.1
				c0.1-0.2,0.2-0.3,0.3-0.5c0,0,0-0.1,0-0.1c0.1-0.1,0.1-0.3,0.2-0.4c0-0.1,0.1-0.2,0.1-0.2c0,0,0-0.1,0-0.1c0-0.1,0.1-0.3,0.1-0.4
				c0-0.1,0.1-0.2,0.1-0.3c0,0,0,0,0-0.1c0-0.1,0-0.3,0-0.4c0-0.1,0-0.2,0-0.3c0,0,0-0.1,0-0.1l0-2.1
				C137.2,140.5,137.2,140.7,137.2,140.8z"/>
			<path fill="#474747" d="M133.3,134.9c-5.2-3-13.7-3-18.9,0c-5.2,3-5.2,7.9,0.1,11c5.2,3,13.7,3,18.9,0
				C138.5,142.8,138.5,137.9,133.3,134.9z"/>
			<g>
				<path fill="#262626" d="M129.1,140.1c0,0-1.5-29.7-1.8-33.6c0-0.5-0.4-1-1-1.4c-0.2-0.1-0.3-0.2-0.5-0.3c-0.1,0-0.1,0-0.2-0.1
					c-0.1,0-0.1,0-0.2-0.1c-0.1,0-0.2,0-0.3-0.1c-0.1,0-0.1,0-0.2,0c0,0,0,0-0.1,0c-0.1,0-0.3-0.1-0.4-0.1c0,0-0.1,0-0.1,0
					c0,0-0.1,0-0.1,0c-0.1,0-0.1,0-0.2,0c-0.1,0-0.3,0-0.4,0c0,0,0,0,0,0c0,0,0,0,0,0c-0.1,0-0.2,0-0.3,0c-0.1,0-0.2,0-0.2,0
					c0,0-0.1,0-0.1,0c0,0-0.1,0-0.1,0c-0.2,0-0.4,0.1-0.5,0.1c0,0,0,0,0,0c-0.2,0-0.3,0.1-0.4,0.1c-0.1,0-0.1,0-0.2,0.1
					c-0.2,0.1-0.4,0.2-0.6,0.3c-0.1,0.1-0.2,0.1-0.3,0.2c0,0,0,0-0.1,0.1c-0.1,0-0.1,0.1-0.1,0.1c0,0,0,0,0,0c0,0,0,0,0,0
					c-0.1,0.1-0.2,0.2-0.2,0.2c0,0,0,0,0,0c0,0,0,0,0,0c-0.1,0.1-0.1,0.1-0.1,0.2c0,0,0,0,0,0c0,0,0,0,0,0c0,0.1-0.1,0.1-0.1,0.2
					c0,0,0,0,0,0c0,0,0,0,0,0.1c0,0.1,0,0.1,0,0.2c0,0,0,0,0,0c0,0,0,0.1,0,0.1c-0.3,3.9-1.6,33.6-1.6,33.6c0,0,0,0,0,0
					c0,0.1,0,0.1,0,0.2c0,0,0,0.1,0,0.1c0,0.1,0,0.1,0,0.2c0,0,0,0.1,0,0.1c0,0.1,0,0.1,0.1,0.2c0,0,0,0.1,0.1,0.1
					c0,0.1,0.1,0.1,0.1,0.2c0,0,0,0.1,0.1,0.1c0,0.1,0.1,0.1,0.1,0.2c0,0,0.1,0.1,0.1,0.1c0,0.1,0.1,0.1,0.2,0.2
					c0,0,0.1,0.1,0.1,0.1c0.1,0.1,0.1,0.1,0.2,0.2c0,0,0.1,0.1,0.1,0.1c0.1,0.1,0.2,0.2,0.4,0.2c0.2,0.1,0.3,0.2,0.5,0.3
					c0,0,0,0,0.1,0c0,0,0.1,0,0.1,0c0.1,0.1,0.3,0.1,0.4,0.2c0,0,0.1,0,0.1,0c0,0,0,0,0.1,0c0.1,0,0.2,0.1,0.3,0.1c0,0,0.1,0,0.1,0
					c0,0,0,0,0,0c0.1,0,0.2,0,0.2,0.1c0.1,0,0.1,0,0.2,0c0,0,0,0,0,0c0.1,0,0.1,0,0.2,0c0.1,0,0.2,0,0.2,0c0,0,0,0,0.1,0
					c0.1,0,0.1,0,0.2,0c0.1,0,0.1,0,0.2,0c0,0,0,0,0.1,0c0.1,0,0.1,0,0.2,0c0.1,0,0.1,0,0.2,0c0,0,0.1,0,0.1,0c0.1,0,0.2,0,0.2,0
					c0.1,0,0.1,0,0.2,0c0,0,0.1,0,0.1,0c0.1,0,0.2,0,0.3,0c0.1,0,0.1,0,0.2,0c0,0,0.1,0,0.1,0c0.1,0,0.3,0,0.4,0c0,0,0.1,0,0.1,0
					c0,0,0,0,0,0c0.2,0,0.4-0.1,0.6-0.1c0,0,0,0,0.1,0c0,0,0,0,0.1,0c0.3-0.1,0.5-0.1,0.8-0.2c0,0,0,0,0.1,0
					c0.3-0.1,0.5-0.2,0.7-0.3c0.1-0.1,0.2-0.1,0.4-0.2c0,0,0,0,0,0c0,0,0.1,0,0.1-0.1c0,0,0.1-0.1,0.1-0.1c0,0,0,0,0,0
					c0,0,0.1-0.1,0.1-0.1c0,0,0.1-0.1,0.1-0.1c0.1,0,0.1-0.1,0.2-0.1c0,0,0,0,0,0c0,0,0,0,0,0c0,0,0.1-0.1,0.1-0.1
					c0-0.1,0.1-0.1,0.1-0.2c0,0,0,0,0,0c0,0,0,0,0,0c0,0,0-0.1,0.1-0.1c0,0,0.1-0.1,0.1-0.1c0,0,0,0,0,0c0,0,0,0,0,0
					c0,0,0-0.1,0-0.1c0,0,0-0.1,0.1-0.1c0,0,0,0,0,0c0,0,0,0,0-0.1c0,0,0-0.1,0-0.1c0,0,0-0.1,0-0.1c0,0,0,0,0,0c0,0,0-0.1,0-0.1
					c0,0,0-0.1,0-0.1c0,0,0,0,0-0.1c0,0,0,0,0,0C129.1,140.2,129.1,140.2,129.1,140.1z"/>
				<path fill="#474747" d="M126.6,100.5c-1.5-0.9-4.1-1-5.7-0.1c-1.6,0.9-1.7,2.4-0.1,3.3c1.5,0.9,4.1,1,5.7,0.1
					C128.1,103,128.1,101.5,126.6,100.5z"/>
			</g>
		</g>
		<g>
			<g>
				<g>
					<g enable-background="new    ">
						<g enable-background="new    ">
							<defs>
								<path id="SVGID_2_" enable-background="new    " d="M124.1,111.5l-10.7-6.2c-0.8-0.4-1.2-1.4-1.3-2.8l10.7,6.2
									C122.9,110.1,123.4,111.1,124.1,111.5z"/>
							</defs>
							<clipPath id="SVGID_3_">
								<use xlink:href="#SVGID_2_"  overflow="visible"/>
							</clipPath>
							<g clip-path="url(#SVGID_3_)">
								<path fill="#7B8387" d="M124.1,111.5l-10.7-6.2c-0.8-0.4-1.2-1.4-1.3-2.8l10.7,6.2C122.9,110.1,123.4,111.1,124.1,111.5
									L124.1,111.5z"/>
							</g>
						</g>
						<g>
							<polygon fill="#C6CCCE" points="122.9,108.8 112.2,102.6 126,94.6 136.7,100.8 							"/>
						</g>
						<g>
							<path fill="#B2B7B9" d="M136.7,100.8c0,2.7-1.9,6.1-4.3,7.4l-5.2,3c-2.4,1.4-4.3,0.3-4.3-2.5L136.7,100.8z"/>
						</g>
					</g>
				</g>
				<g>
					<g enable-background="new    ">
						<path fill="#E6EDEF" d="M116.2,76.4c-0.3-0.2-0.6-0.2-1,0.1l-13.9,8l30.8,17.9l13.9-8c0.4-0.2,0.7-0.2,1-0.1L116.2,76.4z"/>
						<g enable-background="new    ">
							<defs>
								<path id="SVGID_4_" enable-background="new    " d="M131,111.3l-30.8-17.9c-1.6-0.9-1.3-7.6,1-8.9l30.8,17.9
									C129.7,103.7,129.4,110.3,131,111.3z"/>
							</defs>
							<use xlink:href="#SVGID_4_"  overflow="visible" fill="#A8AEAF"/>
							<clipPath id="SVGID_5_">
								<use xlink:href="#SVGID_4_"  overflow="visible"/>
							</clipPath>
							<linearGradient id="SVGID_6_" gradientUnits="userSpaceOnUse" x1="113.7654" y1="101.4829" x2="117.9968" y2="94.5209">
								<stop  offset="0" style="stop-color:#889197"/>
								<stop  offset="0.5762" style="stop-color:#B8BFC1"/>
								<stop  offset="1" style="stop-color:#D8DFE1"/>
							</linearGradient>
							<path clip-path="url(#SVGID_5_)" fill="url(#SVGID_6_)" d="M132,102.4l-30.8-17.9c-2.3,1.3-2.6,7.9-1,8.9l30.8,17.9
								C129.4,110.3,129.7,103.7,132,102.4z"/>
						</g>
					</g>
					<g>
						<path fill="#D0D6D6" d="M145.9,94.3c2.7-1.6,2.7,7.3,0,8.8l-13.9,8c-2.7,1.6-2.7-7.3,0-8.8L145.9,94.3z"/>
					</g>
					<g>
						<g>
							<g>
								<linearGradient id="SVGID_7_" gradientUnits="userSpaceOnUse" x1="144.5877" y1="102.3829" x2="141.0863" y2="108.758">
									<stop  offset="0" style="stop-color:#333539"/>
									<stop  offset="1" style="stop-color:#1B1A1C"/>
								</linearGradient>
								<path fill="url(#SVGID_7_)" d="M148.5,104.2C148.5,104.2,148.5,104.2,148.5,104.2L148.5,104.2L148.5,104.2l-7.2-4.2
									c-0.5-0.3-1.2-0.3-2,0.2c-1.5,0.9-2.8,3-2.8,4.8c0,0.9,0.3,1.5,0.8,1.8l7.2,4.2c-0.1,0-0.1-0.1-0.2-0.2
									c0.5,0.4,1.3,0.5,2.2,0c1.5-0.9,2.8-3,2.8-4.8C149.3,105.1,149,104.5,148.5,104.2z M147.6,104
									C147.6,104,147.6,104,147.6,104c0.1,0,0.1,0,0.2,0C147.7,104,147.7,104,147.6,104z"/>
								<linearGradient id="SVGID_8_" gradientUnits="userSpaceOnUse" x1="144.5871" y1="102.385" x2="142.452" y2="106.2726">
									<stop  offset="0" style="stop-color:#474B52"/>
									<stop  offset="1" style="stop-color:#1B1A1C"/>
								</linearGradient>
								<path opacity="0.7" fill="url(#SVGID_8_)" d="M147.8,109.3c0.8-1,1.3-2.3,1.3-3.4c0-0.8-0.3-1.3-0.7-1.6
									c0,0-0.6-0.4-0.6-0.4l-0.1,0.2l-0.1,0l0-0.3l-6.5-3.8c-0.2-0.1-0.4-0.2-0.6-0.2c-0.3,0-0.7,0.1-1.1,0.4
									c-1,0.6-1.8,1.7-2.3,2.8L147.8,109.3z"/>
								<linearGradient id="SVGID_9_" gradientUnits="userSpaceOnUse" x1="149.1465" y1="104.0066" x2="144.6045" y2="112.2763">
									<stop  offset="0" style="stop-color:#474B52"/>
									<stop  offset="1" style="stop-color:#1B1A1C"/>
								</linearGradient>
								<path fill="url(#SVGID_9_)" d="M149.1,103.2c-0.7-0.4-1.6-0.3-2.6,0.3c-2,1.2-3.6,4-3.6,6.3c0,1.2,0.4,2,1.1,2.3l3.5,2
									c-0.7-0.4-1.1-1.2-1.1-2.3c0-2.3,1.6-5.1,3.6-6.3c1-0.6,1.9-0.6,2.6-0.3L149.1,103.2z"/>
								<path fill="#232326" d="M150,105.5c-2,1.2-3.6,4-3.6,6.3c0,2.3,1.6,3.3,3.7,2.1c2-1.2,3.6-4,3.6-6.3
									C153.6,105.2,152,104.3,150,105.5z"/>
								<linearGradient id="SVGID_10_" gradientUnits="userSpaceOnUse" x1="148.7149" y1="103.724" x2="145.8226" y2="108.9902">
									<stop  offset="0" style="stop-color:#474B52"/>
									<stop  offset="1" style="stop-color:#1B1A1C"/>
								</linearGradient>
								<path fill="url(#SVGID_10_)" d="M149,103.4c-0.3-0.1-0.5-0.2-0.9-0.2c-0.5,0-1,0.2-1.5,0.5c-1.4,0.8-2.6,2.5-3.2,4.1
									l3.2,1.8c0.6-1.8,1.9-3.4,3.3-4.3c0.5-0.3,1-0.5,1.5-0.5L149,103.4z"/>
							</g>
							<path fill="#C3CACE" d="M142.7,94.4c-0.1-0.1-0.2-0.2-0.4-0.1l-10.6,6.1c-0.1,0.1-0.2,0.2-0.1,0.4c0,0.1,0.1,0.1,0.2,0.1
								c0,0,0.1,0,0.1,0l10.6-6.1C142.8,94.7,142.8,94.5,142.7,94.4z"/>
							<linearGradient id="SVGID_11_" gradientUnits="userSpaceOnUse" x1="151.7184" y1="107.1147" x2="145.3876" y2="116.402">
								<stop  offset="0" style="stop-color:#99F0FF"/>
								<stop  offset="0.5995" style="stop-color:#75B3BD"/>
								<stop  offset="1" style="stop-color:#5F8E96"/>
							</linearGradient>
							<path opacity="0.5" fill="url(#SVGID_11_)" d="M150,106.4c-1.6,0.9-2.8,3.1-2.8,4.9c0,1.8,1.3,2.5,2.8,1.6
								c1.6-0.9,2.8-3.1,2.8-4.9C152.8,106.2,151.5,105.5,150,106.4z"/>
							
								<linearGradient id="SVGID_12_" gradientUnits="userSpaceOnUse" x1="150.6998" y1="11.2976" x2="148.6213" y2="14.3468" gradientTransform="matrix(1 -0.5774 0 1 0 182.5834)">
								<stop  offset="0" style="stop-color:#99F0FF"/>
								<stop  offset="0.5995" style="stop-color:#75B3BD"/>
								<stop  offset="1" style="stop-color:#5F8E96"/>
							</linearGradient>
							<path opacity="0.3" fill="url(#SVGID_12_)" d="M151.8,107.1c0,0.6-0.7,1.5-1.6,2.1c-0.9,0.5-1.6,0.4-1.6-0.2
								c0-0.6,0.7-1.5,1.6-2.1C151,106.4,151.8,106.5,151.8,107.1z"/>
						</g>
						<path opacity="0.6" fill="#5F8E96" d="M150,106.4c-1.6,0.9-2.8,3.1-2.8,4.9c0,0.7,0.2,1.2,0.5,1.5c-0.3-0.3-0.4-0.8-0.4-1.4
							c0-1.7,1.2-3.8,2.7-4.7c1.5-0.9,2.7-0.2,2.7,1.5c0,1.3-0.7,2.8-1.6,3.8c1.1-1.1,1.8-2.7,1.8-4.1
							C152.8,106.2,151.5,105.5,150,106.4z"/>
					</g>
				</g>
			</g>
			<linearGradient id="SVGID_13_" gradientUnits="userSpaceOnUse" x1="108.194" y1="95.1981" x2="126.8758" y2="78.6587">
				<stop  offset="0" style="stop-color:#889197"/>
				<stop  offset="1" style="stop-color:#CDD4D7"/>
			</linearGradient>
			<path opacity="0.6" fill="url(#SVGID_13_)" d="M130.3,84.6l-15,8.7c-0.8,0.4-1.4,1.6-1.7,3.3c-0.4,2-0.2,4,0.4,4.9l-0.8-0.5
				c-0.4-1.2-0.4-3-0.1-4.5c0.2-1.1,0.7-2.9,1.9-3.6l14.7-8.5L130.3,84.6z M103.3,90.6c0.3-1.6,0.9-2.9,1.7-3.3l15.1-8.7l-0.5-0.3
				l-14.8,8.5c-1.2,0.7-1.7,2.6-1.9,3.6c-0.3,1.4-0.3,3.2,0.1,4.4l0.8,0.4C103.1,94.5,103,92.5,103.3,90.6z"/>
		</g>
		<g>
			<path fill="#959EA2" d="M133.3,104.5c0.1-0.2,0.1-0.4,0-0.6c-0.1-0.2-0.3-0.5-0.6-0.5c-0.1,0-0.4,0-0.6,0.4s-0.1,0.6,0,0.7
				c0.2,0.2,0.5,0.3,0.7,0.3C133.1,104.8,133.2,104.7,133.3,104.5z"/>
			<path fill="#67D329" d="M133,104.8c0.2,0,0.3-0.2,0.4-0.3c0.1-0.1,0.1-0.3,0-0.5c-0.1-0.4-0.7-0.7-1.1-0.1
				C132,104.6,132.6,104.9,133,104.8z"/>
		</g>
	</g>
</g>
<g>
	<path opacity="0.3" fill="#333333" d="M63.4,121.7L2.3,156.9c-1.1,0.7-1.1,2.3,0,3l27.5,16c0.3,0.2,0.7,0.3,1,0.2l11.6-0.9
		c0.3,0,0.5-0.1,0.7-0.2l56.6-32.8c1.2-0.7,1.1-2.4-0.1-3L65,121.6C64.5,121.3,63.9,121.4,63.4,121.7z"/>
	<g id="_x39_">
		<g>
			<g enable-background="new    ">
				<path fill="#889197" d="M41.7,171.5l-0.1-37.2l-4.8-2.8l0.1,37.2c0,0.8,0.3,1.3,0.7,1.6l4.8,2.8C42,172.8,41.7,172.3,41.7,171.5
					z"/>
				<path fill="#E6EDEF" d="M95.1,95.9c-0.5-0.3-1.1-0.2-1.8,0.2l-54,31.2l4.8,2.8l54-31.2c0.7-0.4,1.3-0.4,1.8-0.2L95.1,95.9z"/>
				<path fill="#E6EDEF" d="M39.3,127.2c-1.4,0.8-2.5,2.7-2.5,4.3l4.8,2.8c0-1.6,1.1-3.5,2.5-4.3L39.3,127.2z"/>
				<path opacity="0.5" fill="#878D8E" d="M39.3,127.2c-1.4,0.8-2.5,2.7-2.5,4.3l4.8,2.8c0-1.6,1.1-3.5,2.5-4.3L39.3,127.2z"/>
			</g>
			<path fill="#D0D6D6" d="M100.6,100.2c0-1.6-1.1-2.2-2.5-1.4l-54,31.2c-1.4,0.8-2.5,2.7-2.5,4.3l0.1,37.2c0,1.6,1.1,2.2,2.5,1.4
				l54-31.2c1.4-0.8,2.5-2.7,2.5-4.3L100.6,100.2z"/>
			<g>
				<polygon fill="#383838" points="80.7,138.5 46.2,158.4 46.2,133.7 80.7,113.8 				"/>
				<linearGradient id="SVGID_14_" gradientUnits="userSpaceOnUse" x1="77.9575" y1="119.6988" x2="29.9922" y2="175.129">
					<stop  offset="0" style="stop-color:#99F0FF"/>
					<stop  offset="0.5995" style="stop-color:#75B3BD"/>
					<stop  offset="1" style="stop-color:#5F8E96"/>
				</linearGradient>
				<polygon opacity="0.3" fill="url(#SVGID_14_)" points="46.2,158.4 79.2,139.4 79.2,116.2 46.2,135.2 				"/>
			</g>
		</g>
		<path fill="#889197" d="M59.9,155.5c0,0.3-0.2,0.7-0.5,0.9c-0.3,0.2-0.5,0.1-0.5-0.2c0-0.3,0.2-0.7,0.5-0.9
			C59.6,155.1,59.9,155.2,59.9,155.5z M61.2,154.2c-0.3,0.2-0.5,0.6-0.5,0.9c0,0.3,0.2,0.4,0.5,0.2s0.5-0.6,0.5-0.9
			C61.7,154.1,61.5,154,61.2,154.2z M63,153.1c-0.3,0.2-0.5,0.6-0.5,0.9c0,0.3,0.2,0.4,0.5,0.2c0.3-0.2,0.5-0.6,0.5-0.9
			C63.5,153,63.3,152.9,63,153.1z M64.8,152.1c-0.3,0.2-0.5,0.6-0.5,0.9c0,0.3,0.2,0.4,0.5,0.2c0.3-0.2,0.5-0.6,0.5-0.9
			C65.4,152,65.1,151.9,64.8,152.1z M66.7,151c-0.3,0.2-0.5,0.6-0.5,0.9s0.2,0.4,0.5,0.2c0.3-0.2,0.5-0.6,0.5-0.9S67,150.8,66.7,151
			z M68.5,149.9c-0.3,0.2-0.5,0.6-0.5,0.9c0,0.3,0.2,0.4,0.5,0.2c0.3-0.2,0.5-0.6,0.5-0.9C69.1,149.9,68.8,149.8,68.5,149.9z
			 M70.4,148.9c-0.3,0.2-0.5,0.6-0.5,0.9c0,0.3,0.2,0.4,0.5,0.2c0.3-0.2,0.5-0.6,0.5-0.9C70.9,148.8,70.7,148.7,70.4,148.9z
			 M59.9,157.2c0,0.3-0.2,0.7-0.5,0.9c-0.3,0.2-0.5,0.1-0.5-0.2c0-0.3,0.2-0.7,0.5-0.9C59.6,156.8,59.9,156.9,59.9,157.2z
			 M61.2,155.9c-0.3,0.2-0.5,0.6-0.5,0.9c0,0.3,0.2,0.4,0.5,0.2c0.3-0.2,0.5-0.6,0.5-0.9C61.7,155.8,61.5,155.7,61.2,155.9z
			 M63,154.9c-0.3,0.2-0.5,0.6-0.5,0.9c0,0.3,0.2,0.4,0.5,0.2c0.3-0.2,0.5-0.6,0.5-0.9C63.5,154.8,63.3,154.7,63,154.9z M64.8,153.8
			c-0.3,0.2-0.5,0.6-0.5,0.9s0.2,0.4,0.5,0.2c0.3-0.2,0.5-0.6,0.5-0.9S65.1,153.6,64.8,153.8z M66.7,152.7c-0.3,0.2-0.5,0.6-0.5,0.9
			c0,0.3,0.2,0.4,0.5,0.2c0.3-0.2,0.5-0.6,0.5-0.9C67.2,152.7,67,152.5,66.7,152.7z M68.5,151.7c-0.3,0.2-0.5,0.6-0.5,0.9
			c0,0.3,0.2,0.4,0.5,0.2c0.3-0.2,0.5-0.6,0.5-0.9C69.1,151.6,68.8,151.5,68.5,151.7z M70.4,150.6c-0.3,0.2-0.5,0.6-0.5,0.9
			c0,0.3,0.2,0.4,0.5,0.2c0.3-0.2,0.5-0.6,0.5-0.9C70.9,150.5,70.7,150.4,70.4,150.6z M59.9,158.9c0,0.3-0.2,0.7-0.5,0.9
			c-0.3,0.2-0.5,0.1-0.5-0.2c0-0.3,0.2-0.7,0.5-0.9C59.6,158.5,59.9,158.6,59.9,158.9z M61.2,157.6c-0.3,0.2-0.5,0.6-0.5,0.9
			c0,0.3,0.2,0.4,0.5,0.2c0.3-0.2,0.5-0.6,0.5-0.9C61.7,157.6,61.5,157.5,61.2,157.6z M63,156.6c-0.3,0.2-0.5,0.6-0.5,0.9
			c0,0.3,0.2,0.4,0.5,0.2c0.3-0.2,0.5-0.6,0.5-0.9C63.5,156.5,63.3,156.4,63,156.6z M64.8,155.5c-0.3,0.2-0.5,0.6-0.5,0.9
			c0,0.3,0.2,0.4,0.5,0.2c0.3-0.2,0.5-0.6,0.5-0.9C65.4,155.4,65.1,155.3,64.8,155.5z M66.7,154.5c-0.3,0.2-0.5,0.6-0.5,0.9
			c0,0.3,0.2,0.4,0.5,0.2c0.3-0.2,0.5-0.6,0.5-0.9C67.2,154.4,67,154.3,66.7,154.5z M68.5,153.4c-0.3,0.2-0.5,0.6-0.5,0.9
			c0,0.3,0.2,0.4,0.5,0.2c0.3-0.2,0.5-0.6,0.5-0.9C69.1,153.3,68.8,153.2,68.5,153.4z M70.4,152.3c-0.3,0.2-0.5,0.6-0.5,0.9
			c0,0.3,0.2,0.4,0.5,0.2c0.3-0.2,0.5-0.6,0.5-0.9C70.9,152.3,70.7,152.1,70.4,152.3z"/>
		<g>
			<g>
				<polygon opacity="0.3" fill="#878D8E" points="96.9,132.7 85.8,139 85.8,109.7 96.9,103.4 				"/>
				<polygon fill="#E6EDEF" points="96.1,103.8 96.1,132.2 85.8,138.1 85.8,139 96.9,132.7 96.9,103.4 				"/>
			</g>
			<g>
				<g enable-background="new    ">
					<g enable-background="new    ">
						<defs>
							<path id="SVGID_15_" enable-background="new    " d="M92.9,108.9l0.8,0.5c-0.4-0.3-1.1-0.2-1.8,0.2l-0.8-0.5
								C91.9,108.6,92.5,108.6,92.9,108.9z"/>
						</defs>
						<clipPath id="SVGID_16_">
							<use xlink:href="#SVGID_15_"  overflow="visible"/>
						</clipPath>
						<g clip-path="url(#SVGID_16_)" enable-background="new    ">
							<path fill="#B5B5B5" d="M92,109.5l-0.8-0.5c0.2-0.1,0.3-0.2,0.5-0.2l0.8,0.5C92.3,109.3,92.2,109.4,92,109.5L92,109.5z"/>
							<path fill="#474747" d="M92.5,109.3l-0.8-0.5c0.5-0.2,0.9-0.1,1.2,0.1l0.8,0.5C93.4,109.1,93,109.1,92.5,109.3L92.5,109.3z"
								/>
						</g>
					</g>
					<g enable-background="new    ">
						<defs>
							<path id="SVGID_17_" enable-background="new    " d="M90.2,115.3l-0.8-0.5c-0.4-0.3-0.7-0.8-0.7-1.6c0-1.6,1.1-3.5,2.5-4.3
								l0.8,0.5c-1.4,0.8-2.5,2.7-2.5,4.3C89.5,114.5,89.8,115.1,90.2,115.3z"/>
						</defs>
						<clipPath id="SVGID_18_">
							<use xlink:href="#SVGID_17_"  overflow="visible"/>
						</clipPath>
						<g clip-path="url(#SVGID_18_)" enable-background="new    ">
							<path fill="#474747" d="M90.2,115.3l-0.8-0.5c-0.4-0.3-0.7-0.8-0.7-1.6c0-1.2,0.7-2.6,1.6-3.6l0.8,0.5
								c-0.9,0.9-1.6,2.4-1.6,3.6C89.5,114.5,89.8,115.1,90.2,115.3L90.2,115.3z"/>
							<path fill="#B5B5B5" d="M91.1,110.2l-0.8-0.5c0.3-0.3,0.6-0.5,0.9-0.7l0.8,0.5C91.7,109.7,91.4,109.9,91.1,110.2L91.1,110.2z
								"/>
						</g>
					</g>
				</g>
				<path fill="#212121" d="M92,109.5c-1.4,0.8-2.5,2.7-2.5,4.3c0,1.6,1.1,2.2,2.5,1.4c1.4-0.8,2.5-2.7,2.5-4.3
					C94.4,109.3,93.3,108.7,92,109.5z"/>
				<path fill="#1BB230" d="M93.8,112.3C93.9,112.2,93.9,112.2,93.8,112.3l-1-0.1c0,0-0.1,0-0.1,0.1l-0.3,0.6c0,0.1,0,0.1,0,0.1l0,0
					c0.1,0,0,0.2-0.1,0.2c-0.3,0-0.5,0-0.8-0.1c-0.3-0.1-0.5-0.3-0.6-0.5c0-0.1,0.1-0.2,0.1-0.2l0,0c0,0,0.1,0,0.1-0.1l0.4-0.5
					c0,0,0-0.1,0-0.1l-0.5-0.6c0,0-0.1,0-0.1,0c-0.3,0.4-0.5,0.8-0.5,1c-0.1,0.5,0.2,1,0.8,1.3c0.6,0.3,1.3,0.2,1.8-0.2
					C93.3,113,93.6,112.7,93.8,112.3z"/>
			</g>
			<g>
				<g enable-background="new    ">
					<defs>
						<path id="SVGID_19_" enable-background="new    " d="M92.9,117.6l0.8,0.5c-0.4-0.3-1.1-0.2-1.8,0.2l-0.8-0.5
							C91.9,117.4,92.5,117.4,92.9,117.6z"/>
					</defs>
					<clipPath id="SVGID_20_">
						<use xlink:href="#SVGID_19_"  overflow="visible"/>
					</clipPath>
					<g clip-path="url(#SVGID_20_)" enable-background="new    ">
						<path fill="#B5B5B5" d="M92,118.3l-0.8-0.5c0.2-0.1,0.3-0.2,0.5-0.2l0.8,0.5C92.3,118.1,92.2,118.2,92,118.3L92,118.3z"/>
						<path fill="#474747" d="M92.5,118l-0.8-0.5c0.5-0.2,0.9-0.1,1.2,0.1l0.8,0.5C93.4,117.9,93,117.9,92.5,118L92.5,118z"/>
					</g>
				</g>
				<g enable-background="new    ">
					<defs>
						<path id="SVGID_21_" enable-background="new    " d="M90.2,124.1l-0.8-0.5c-0.4-0.3-0.7-0.8-0.7-1.6c0-1.6,1.1-3.5,2.5-4.3
							l0.8,0.5c-1.4,0.8-2.5,2.7-2.5,4.3C89.5,123.3,89.8,123.9,90.2,124.1z"/>
					</defs>
					<clipPath id="SVGID_22_">
						<use xlink:href="#SVGID_21_"  overflow="visible"/>
					</clipPath>
					<g clip-path="url(#SVGID_22_)" enable-background="new    ">
						<path fill="#474747" d="M90.2,124.1l-0.8-0.5c-0.4-0.3-0.7-0.8-0.7-1.6c0-1.2,0.7-2.6,1.6-3.6l0.8,0.5
							c-0.9,0.9-1.6,2.4-1.6,3.6C89.5,123.3,89.8,123.9,90.2,124.1L90.2,124.1z"/>
						<path fill="#B5B5B5" d="M91.1,119l-0.8-0.5c0.3-0.3,0.6-0.5,0.9-0.7l0.8,0.5C91.7,118.5,91.4,118.7,91.1,119L91.1,119z"/>
					</g>
				</g>
				<path fill="#212121" d="M92,118.3c-1.4,0.8-2.5,2.7-2.5,4.3c0,1.6,1.1,2.2,2.5,1.4c1.4-0.8,2.5-2.7,2.5-4.3
					C94.4,118.1,93.3,117.5,92,118.3z"/>
				<path fill="#C92727" d="M93.8,121.1C93.8,121.1,93.8,121.1,93.8,121.1l-1-0.1c0,0-0.1,0-0.1,0.1l-0.3,0.6c0,0.1,0,0.1,0,0.1l0,0
					c0.1,0,0,0.2-0.1,0.2c-0.3,0-0.5,0-0.8-0.1c-0.3-0.1-0.5-0.3-0.6-0.5c0-0.1,0.1-0.2,0.1-0.2l0,0c0,0,0.1,0,0.1-0.1l0.4-0.5
					c0,0,0-0.1,0-0.1l-0.5-0.6c0,0-0.1,0-0.1,0c-0.3,0.4-0.5,0.8-0.5,1c-0.1,0.5,0.2,1,0.8,1.3c0.6,0.3,1.3,0.2,1.8-0.2
					C93.2,121.9,93.6,121.5,93.8,121.1z"/>
			</g>
			<g>
				<g>
					<g enable-background="new    ">
						<defs>
							<path id="SVGID_23_" enable-background="new    " d="M92.9,126.3l0.8,0.5c-0.4-0.3-1.1-0.2-1.8,0.2l-0.8-0.5
								C91.9,126.1,92.5,126.1,92.9,126.3z"/>
						</defs>
						<clipPath id="SVGID_24_">
							<use xlink:href="#SVGID_23_"  overflow="visible"/>
						</clipPath>
						<g clip-path="url(#SVGID_24_)" enable-background="new    ">
							<path fill="#B5B5B5" d="M92,127l-0.8-0.5c0.2-0.1,0.3-0.2,0.5-0.2l0.8,0.5C92.3,126.8,92.2,126.9,92,127L92,127z"/>
							<path fill="#474747" d="M92.5,126.7l-0.8-0.5c0.5-0.2,0.9-0.1,1.2,0.1l0.8,0.5C93.4,126.6,93,126.6,92.5,126.7L92.5,126.7z"
								/>
						</g>
					</g>
					<g enable-background="new    ">
						<defs>
							<path id="SVGID_25_" enable-background="new    " d="M90.2,132.8l-0.8-0.5c-0.4-0.3-0.7-0.8-0.7-1.6c0-1.6,1.1-3.5,2.5-4.3
								L92,127c-1.4,0.8-2.5,2.7-2.5,4.3C89.5,132,89.8,132.5,90.2,132.8z"/>
						</defs>
						<clipPath id="SVGID_26_">
							<use xlink:href="#SVGID_25_"  overflow="visible"/>
						</clipPath>
						<g clip-path="url(#SVGID_26_)" enable-background="new    ">
							<path fill="#474747" d="M90.2,132.8l-0.8-0.5c-0.4-0.3-0.7-0.8-0.7-1.6c0-1.2,0.7-2.6,1.6-3.6l0.8,0.5
								c-0.9,0.9-1.6,2.4-1.6,3.6C89.5,132,89.8,132.5,90.2,132.8L90.2,132.8z"/>
							<path fill="#B5B5B5" d="M91.1,127.6l-0.8-0.5c0.3-0.3,0.6-0.5,0.9-0.7L92,127C91.7,127.1,91.4,127.4,91.1,127.6L91.1,127.6z"
								/>
						</g>
					</g>
				</g>
				<path fill="#212121" d="M92,127c-1.4,0.8-2.5,2.7-2.5,4.3c0,1.6,1.1,2.2,2.5,1.4c1.4-0.8,2.5-2.7,2.5-4.3
					C94.4,126.8,93.3,126.2,92,127z"/>
				<path fill="#B3FBFF" d="M92.4,128.3c-0.3,0.4-0.3,0.8-0.1,1l-1,1.6l-0.2-0.1l-0.2,0.3l0.1,0.1l-0.2,0.3l-0.1-0.1l-0.2,0.3
					l0.2,0.1l-0.1,0.1c-0.1,0.1-0.1,0.2,0,0.2c0.1,0,0.1,0,0.2-0.1l0.4-0.7l0.2,0.1l0.2-0.3l-0.2-0.1l1-1.6c0.3,0,0.7-0.2,0.9-0.6
					c0.3-0.5,0.3-0.9,0-1C93.2,127.5,92.7,127.8,92.4,128.3z M93.4,128.2c-0.1,0.2-0.2,0.2-0.3,0.2c-0.1,0-0.1-0.2,0-0.3
					c0.1-0.2,0.2-0.2,0.3-0.2C93.5,127.9,93.5,128.1,93.4,128.2z"/>
			</g>
		</g>
	</g>
</g>
<g>
	<path opacity="0.3" fill="#333333" d="M243.5,171.9l-48.8,28.2l-3.8-3.8l-2.9-0.8l40.1-23.1l-24.3-14.1L101.4,217l24.4,14.1
		l26.9-15.3l10.1,5.8l9.9,0.4l19-13.4l11,6.9l-6.7-2.8c-0.4-0.2-0.9-0.2-1.3,0L154,236.2c-0.4,0.2-0.4,0.5,0,0.7l13.1,7.5
		c0.4,0.2,4.3,0.7,4.7,0.4l41.8-24.3l12.8,1.3l47.8-27.9L243.5,171.9z"/>
	<g>
		<g id="_x34_">
			<g id="_x33__1_">
				<g>
					<g>
						<path fill="#212121" d="M202.3,200.4l-9-5.2c-1.6-0.9-4.3-0.9-5.9,0l-27.7,16c-0.9,0.5-1.2,1.1-1.2,1.8c0,0.2,0,1,0,1.3
							c0,0.6,0.3,1.3,1.2,1.8l9,5.2c1.6,0.9,4.3,0.9,5.9,0l27.7-16c0.8-0.5,1.2-1.1,1.2-1.7c0-0.2,0-1.1,0-1.3
							C203.6,201.6,203.2,200.9,202.3,200.4z"/>
						<path opacity="0.6" d="M174.6,202.6l-14.9,8.6c-0.9,0.5-1.2,1.1-1.2,1.8c0,0.2,0,1,0,1.3c0,0.6,0.3,1.3,1.2,1.8l9,5.2
							c1.6,0.9,4.3,0.9,5.9,0l0,0V202.6z"/>
						<path fill="#474747" d="M202.3,203.8l-27.7,16c-1.6,0.9-4.3,0.9-5.9,0l-9-5.2c-1.6-0.9-1.6-2.5,0-3.4l27.7-16
							c1.6-0.9,4.3-0.9,5.9,0l9,5.2C203.9,201.3,203.9,202.9,202.3,203.8z"/>
					</g>
					<g>
						<polygon fill="#212121" points="185.9,204.2 176.1,209.9 176.1,186.9 185.9,181.2 						"/>
						<polygon opacity="0.6" points="185.9,191.1 176.1,196.8 176.1,186.9 185.9,181.2 						"/>
						<polygon fill="#0F0F0F" points="176.1,209.9 172.8,208.1 172.8,185 176.1,186.9 						"/>
						<polygon points="172.8,204 172.8,185 176.1,186.9 176.1,196.7 						"/>
					</g>
					<g>
						<g>
							<g>
								<g>
									<polygon fill="#212121" points="235.1,160.8 181.4,192 181.4,141.1 235.1,109.8 									"/>
									<polygon fill="#474747" points="235.1,109.9 181.3,141.1 179.3,139.9 233,108.7 									"/>
									<path fill="#0F0F0F" d="M181.4,192l-3.4-2c-1.9-1.1-3.1-3.1-3-5.3c0.1-19.6,1-38.8,4.4-44.8l2.1,1.2V192z"/>
								</g>
								<polygon fill="#383838" points="233.3,155.4 183.4,184.6 183.4,141.9 233.3,112.8 								"/>
								<linearGradient id="SVGID_27_" gradientUnits="userSpaceOnUse" x1="228.9514" y1="120.8747" x2="151.7218" y2="226.8789">
									<stop  offset="0" style="stop-color:#99F0FF"/>
									<stop  offset="0.5995" style="stop-color:#75B3BD"/>
									<stop  offset="1" style="stop-color:#5F8E96"/>
								</linearGradient>
								<polygon opacity="0.3" fill="url(#SVGID_27_)" points="183.4,184.6 231.3,156.6 231.3,116.5 183.4,144.5 								"/>
							</g>
						</g>
						<g>
							<g>
								<g>
									<polygon fill="#212121" points="180.7,192.4 127,223.6 127,172.7 180.7,141.5 									"/>
									<polygon fill="#474747" points="180.7,141.5 127,172.7 124.9,171.5 178.7,140.3 									"/>
									<path fill="#0F0F0F" d="M127,223.6l-3.4-2c-1.9-1.1-3.1-3.1-3-5.3c0.1-19.6,1-38.8,4.4-44.8l2.1,1.2V223.6z"/>
								</g>
								<polygon fill="#383838" points="179,187 129,216.2 129,173.5 179,144.4 								"/>
								<linearGradient id="SVGID_28_" gradientUnits="userSpaceOnUse" x1="173.7808" y1="151.2857" x2="111.4606" y2="243.7224">
									<stop  offset="0" style="stop-color:#99F0FF"/>
									<stop  offset="0.5995" style="stop-color:#75B3BD"/>
									<stop  offset="1" style="stop-color:#5F8E96"/>
								</linearGradient>
								<polygon opacity="0.3" fill="url(#SVGID_28_)" points="129,216.2 176.9,188.2 176.9,148.1 129,176.1 								"/>
								<path opacity="0.4" fill="#7A7A7A" d="M126.3,214.4v0.6l-5-2.9c0-0.2,0-0.4,0-0.6L126.3,214.4z M121.3,210.2
									c0,0.2,0,0.4,0,0.6l5,2.9v-0.6L121.3,210.2z M121.3,208.9c0,0.2,0,0.4,0,0.5l4.9,2.9v-0.6L121.3,208.9z M121.3,212.8
									c0,0.2,0,0.4,0,0.6l5,2.9v-0.6L121.3,212.8z M126.3,217.6V217l-5-2.9c0,0.2,0,0.4,0,0.6L126.3,217.6z M121.6,202.5
									c0,0.2,0,0.4,0,0.5l4.7,2.7v-0.6L121.6,202.5z M121.5,203.8c0,0.2,0,0.4,0,0.5l4.8,2.8v-0.6L121.5,203.8z M121.4,206.3
									c0,0.2,0,0.4,0,0.5l4.9,2.8v-0.6L121.4,206.3z M121.5,205c0,0.2,0,0.4,0,0.5l4.8,2.8v-0.6L121.5,205z M121.4,207.6
									c0,0.2,0,0.4,0,0.5l4.9,2.8v-0.6L121.4,207.6z"/>
							</g>
						</g>
					</g>
				</g>
			</g>
			<g>
				<path fill="#212121" d="M213.4,217.8l-13.4-7.7c-0.4-0.2-0.9-0.2-1.3,0l-41.8,24.1c-0.2,0.1-0.3,0.2-0.3,0.4l0,1.7
					c0,0.1,0.1,0.3,0.3,0.4l13.4,7.7c0.4,0.2,0.9,0.2,1.3,0l41.8-24.1c0.2-0.1,0.3-0.2,0.3-0.4v-1.6
					C213.7,218.1,213.6,217.9,213.4,217.8z"/>
				<path opacity="0.6" d="M171.6,225.7l-14.7,8.5c-0.2,0.1-0.3,0.2-0.3,0.4l0,1.7c0,0.1,0.1,0.3,0.3,0.4l13.4,7.7
					c0.3,0.2,0.9,0.2,1.3,0V225.7z"/>
				<g>
					<path fill="#474747" d="M213.4,218.6l-41.8,24.1c-0.4,0.2-0.9,0.2-1.3,0l-13.4-7.7c-0.4-0.2-0.4-0.5,0-0.8l41.8-24.1
						c0.4-0.2,0.9-0.2,1.3,0l13.4,7.7C213.8,218,213.8,218.4,213.4,218.6z"/>
					<path opacity="0.9" fill="#A8AEAF" d="M162.4,234.8l-1.8,1c-0.2,0.1-0.5,0.1-0.6,0l-1.5-0.9c-0.2-0.1-0.2-0.3,0-0.4l1.8-1
						c0.2-0.1,0.5-0.1,0.6,0l1.5,0.9C162.6,234.6,162.6,234.7,162.4,234.8z M165.3,232.8l-1.5-0.9c-0.2-0.1-0.5-0.1-0.6,0l-1.8,1
						c-0.2,0.1-0.2,0.3,0,0.4l1.5,0.9c0.2,0.1,0.5,0.1,0.6,0l1.8-1C165.5,233,165.5,232.9,165.3,232.8z M168.3,231.1l-1.5-0.9
						c-0.2-0.1-0.5-0.1-0.6,0l-1.8,1c-0.2,0.1-0.2,0.3,0,0.4l1.5,0.9c0.2,0.1,0.5,0.1,0.6,0l1.8-1
						C168.4,231.4,168.4,231.2,168.3,231.1z M171.2,229.4l-1.5-0.9c-0.2-0.1-0.5-0.1-0.6,0l-1.8,1c-0.2,0.1-0.2,0.3,0,0.4l1.5,0.9
						c0.2,0.1,0.5,0.1,0.6,0l1.8-1C171.4,229.7,171.4,229.5,171.2,229.4z M174.1,227.7l-1.5-0.9c-0.2-0.1-0.5-0.1-0.6,0l-1.8,1
						c-0.2,0.1-0.2,0.3,0,0.4l1.5,0.9c0.2,0.1,0.5,0.1,0.6,0l1.8-1C174.3,228,174.3,227.8,174.1,227.7z M177,226l-1.5-0.9
						c-0.2-0.1-0.5-0.1-0.6,0l-1.8,1c-0.2,0.1-0.2,0.3,0,0.4l1.5,0.9c0.2,0.1,0.5,0.1,0.6,0l1.8-1C177.2,226.3,177.2,226.1,177,226z
						 M179.9,224.4l-1.5-0.9c-0.2-0.1-0.5-0.1-0.6,0l-1.8,1c-0.2,0.1-0.2,0.3,0,0.4l1.5,0.9c0.2,0.1,0.5,0.1,0.6,0l1.8-1
						C180.1,224.6,180.1,224.5,179.9,224.4z M182.9,222.7l-1.5-0.9c-0.2-0.1-0.5-0.1-0.6,0l-1.8,1c-0.2,0.1-0.2,0.3,0,0.4l1.5,0.9
						c0.2,0.1,0.5,0.1,0.6,0l1.8-1C183,222.9,183,222.8,182.9,222.7z M185.8,221l-1.5-0.9c-0.2-0.1-0.5-0.1-0.6,0l-1.8,1
						c-0.2,0.1-0.2,0.3,0,0.4l1.5,0.9c0.2,0.1,0.5,0.1,0.6,0l1.8-1C185.9,221.2,185.9,221.1,185.8,221z M189.6,218.8l-1.5-0.9
						c-0.2-0.1-0.5-0.1-0.6,0l-2.7,1.6c-0.2,0.1-0.2,0.3,0,0.4l1.5,0.9c0.2,0.1,0.5,0.1,0.6,0l2.7-1.6
						C189.8,219,189.8,218.9,189.6,218.8z M202.2,220.8l-1.5-0.9c-0.2-0.1-0.5-0.1-0.6,0l-1.8,1c-0.2,0.1-0.2,0.3,0,0.4l1.5,0.9
						c0.2,0.1,0.5,0.1,0.6,0l1.8-1C202.3,221,202.3,220.9,202.2,220.8z M205.1,219.1l-1.5-0.9c-0.2-0.1-0.5-0.1-0.6,0l-1.8,1
						c-0.2,0.1-0.2,0.3,0,0.4l1.5,0.9c0.2,0.1,0.5,0.1,0.6,0l1.8-1C205.3,219.3,205.3,219.2,205.1,219.1z M208,217.4l-1.5-0.9
						c-0.2-0.1-0.5-0.1-0.6,0l-1.8,1c-0.2,0.1-0.2,0.3,0,0.4l1.5,0.9c0.2,0.1,0.5,0.1,0.6,0l1.8-1
						C208.2,217.7,208.2,217.5,208,217.4z M204.8,222.3l-1.5-0.9c-0.2-0.1-0.5-0.1-0.6,0l-1.8,1c-0.2,0.1-0.2,0.3,0,0.4l1.5,0.9
						c0.2,0.1,0.5,0.1,0.6,0l1.8-1C205,222.6,205,222.4,204.8,222.3z M207.7,220.6l-1.5-0.9c-0.2-0.1-0.5-0.1-0.6,0l-1.8,1
						c-0.2,0.1-0.2,0.3,0,0.4l1.5,0.9c0.2,0.1,0.5,0.1,0.6,0l1.8-1C207.9,220.9,207.9,220.7,207.7,220.6z M210.7,218.9l-1.5-0.9
						c-0.2-0.1-0.5-0.1-0.6,0l-1.8,1c-0.2,0.1-0.2,0.3,0,0.4l1.5,0.9c0.2,0.1,0.5,0.1,0.6,0l1.8-1
						C210.8,219.2,210.8,219,210.7,218.9z M166.1,235.4l-1.5-0.9c-0.2-0.1-0.5-0.1-0.6,0l-2.7,1.6c-0.2,0.1-0.2,0.3,0,0.4l1.5,0.9
						c0.2,0.1,0.5,0.1,0.6,0l2.7-1.6C166.3,235.7,166.3,235.5,166.1,235.4z M169,233.8l-1.5-0.9c-0.2-0.1-0.5-0.1-0.6,0l-1.8,1
						c-0.2,0.1-0.2,0.3,0,0.4l1.5,0.9c0.2,0.1,0.5,0.1,0.6,0l1.8-1C169.2,234,169.2,233.9,169,233.8z M171.9,232.1l-1.5-0.9
						c-0.2-0.1-0.5-0.1-0.6,0l-1.8,1c-0.2,0.1-0.2,0.3,0,0.4l1.5,0.9c0.2,0.1,0.5,0.1,0.6,0l1.8-1
						C172.1,232.3,172.1,232.2,171.9,232.1z M174.8,230.4l-1.5-0.9c-0.2-0.1-0.5-0.1-0.6,0l-1.8,1c-0.2,0.1-0.2,0.3,0,0.4l1.5,0.9
						c0.2,0.1,0.5,0.1,0.6,0l1.8-1C175,230.7,175,230.5,174.8,230.4z M177.8,228.7l-1.5-0.9c-0.2-0.1-0.5-0.1-0.6,0l-1.8,1
						c-0.2,0.1-0.2,0.3,0,0.4l1.5,0.9c0.2,0.1,0.5,0.1,0.6,0l1.8-1C177.9,229,177.9,228.8,177.8,228.7z M180.7,227l-1.5-0.9
						c-0.2-0.1-0.5-0.1-0.6,0l-1.8,1c-0.2,0.1-0.2,0.3,0,0.4l1.5,0.9c0.2,0.1,0.5,0.1,0.6,0l1.8-1
						C180.9,227.3,180.9,227.1,180.7,227z M183.6,225.3l-1.5-0.9c-0.2-0.1-0.5-0.1-0.6,0l-1.8,1c-0.2,0.1-0.2,0.3,0,0.4l1.5,0.9
						c0.2,0.1,0.5,0.1,0.6,0l1.8-1C183.8,225.6,183.8,225.4,183.6,225.3z M186.5,223.6l-1.5-0.9c-0.2-0.1-0.5-0.1-0.6,0l-1.8,1
						c-0.2,0.1-0.2,0.3,0,0.4l1.5,0.9c0.2,0.1,0.5,0.1,0.6,0l1.8-1C186.7,223.9,186.7,223.7,186.5,223.6z M189.4,222l-1.5-0.9
						c-0.2-0.1-0.5-0.1-0.6,0l-1.8,1c-0.2,0.1-0.2,0.3,0,0.4l1.5,0.9c0.2,0.1,0.5,0.1,0.6,0l1.8-1
						C189.6,222.2,189.6,222.1,189.4,222z M192.4,220.3l-1.5-0.9c-0.2-0.1-0.5-0.1-0.6,0l-1.8,1c-0.2,0.1-0.2,0.3,0,0.4l1.5,0.9
						c0.2,0.1,0.5,0.1,0.6,0l1.8-1C192.5,220.5,192.5,220.4,192.4,220.3z M167.7,237.5l-1.5-0.9c-0.2-0.1-0.5-0.1-0.6,0l-1.8,1
						c-0.2,0.1-0.2,0.3,0,0.4l1.5,0.9c0.2,0.1,0.5,0.1,0.6,0l1.8-1C167.9,237.8,167.9,237.6,167.7,237.5z M170.7,235.8l-1.5-0.9
						c-0.2-0.1-0.5-0.1-0.6,0l-1.8,1c-0.2,0.1-0.2,0.3,0,0.4l1.5,0.9c0.2,0.1,0.5,0.1,0.6,0l1.8-1
						C170.8,236.1,170.8,235.9,170.7,235.8z M173.6,234.2l-1.5-0.9c-0.2-0.1-0.5-0.1-0.6,0l-1.8,1c-0.2,0.1-0.2,0.3,0,0.4l1.5,0.9
						c0.2,0.1,0.5,0.1,0.6,0l1.8-1C173.7,234.4,173.7,234.3,173.6,234.2z M176.5,232.5l-1.5-0.9c-0.2-0.1-0.5-0.1-0.6,0l-1.8,1
						c-0.2,0.1-0.2,0.3,0,0.4l1.5,0.9c0.2,0.1,0.5,0.1,0.6,0l1.8-1C176.7,232.7,176.7,232.6,176.5,232.5z M173,240.6l-1.5-0.9
						c-0.2-0.1-0.5-0.1-0.6,0l-1.8,1c-0.2,0.1-0.2,0.3,0,0.4l1.5,0.9c0.2,0.1,0.5,0.1,0.6,0l1.8-1
						C173.2,240.8,173.2,240.7,173,240.6z M175.9,238.9l-1.5-0.9c-0.2-0.1-0.5-0.1-0.6,0l-1.8,1c-0.2,0.1-0.2,0.3,0,0.4l1.5,0.9
						c0.2,0.1,0.5,0.1,0.6,0l1.8-1C176.1,239.2,176.1,239,175.9,238.9z M178.9,237.2l-1.5-0.9c-0.2-0.1-0.5-0.1-0.6,0l-1.8,1
						c-0.2,0.1-0.2,0.3,0,0.4l1.5,0.9c0.2,0.1,0.5,0.1,0.6,0l1.8-1C179,237.5,179,237.3,178.9,237.2z M181.8,235.5l-1.5-0.9
						c-0.2-0.1-0.5-0.1-0.6,0l-1.8,1c-0.2,0.1-0.2,0.3,0,0.4l1.5,0.9c0.2,0.1,0.5,0.1,0.6,0l1.8-1C182,235.8,182,235.6,181.8,235.5z
						 M200.2,224.9l-1.5-0.9c-0.2-0.1-0.5-0.1-0.6,0l-2.7,1.6c-0.2,0.1-0.2,0.3,0,0.4l1.5,0.9c0.2,0.1,0.5,0.1,0.6,0l2.7-1.6
						C200.4,225.1,200.4,225,200.2,224.9z M179.4,230.8l-1.5-0.9c-0.2-0.1-0.5-0.1-0.6,0l-1.8,1c-0.2,0.1-0.2,0.3,0,0.4l1.5,0.9
						c0.2,0.1,0.5,0.1,0.6,0l1.8-1C179.6,231,179.6,230.9,179.4,230.8z M182.3,229.1l-1.5-0.9c-0.2-0.1-0.5-0.1-0.6,0l-1.8,1
						c-0.2,0.1-0.2,0.3,0,0.4l1.5,0.9c0.2,0.1,0.5,0.1,0.6,0l1.8-1C182.5,229.4,182.5,229.2,182.3,229.1z M185.2,227.4l-1.5-0.9
						c-0.2-0.1-0.5-0.1-0.6,0l-1.8,1c-0.2,0.1-0.2,0.3,0,0.4l1.5,0.9c0.2,0.1,0.5,0.1,0.6,0l1.8-1
						C185.4,227.7,185.4,227.5,185.2,227.4z M188.2,225.7l-1.5-0.9c-0.2-0.1-0.5-0.1-0.6,0l-1.8,1c-0.2,0.1-0.2,0.3,0,0.4l1.5,0.9
						c0.2,0.1,0.5,0.1,0.6,0l1.8-1C188.3,226,188.3,225.8,188.2,225.7z M191.1,224l-1.5-0.9c-0.2-0.1-0.5-0.1-0.6,0l-1.8,1
						c-0.2,0.1-0.2,0.3,0,0.4l1.5,0.9c0.2,0.1,0.5,0.1,0.6,0l1.8-1C191.3,224.3,191.3,224.1,191.1,224z M194.9,221.8l-1.5-0.9
						c-0.2-0.1-0.5-0.1-0.6,0l-2.7,1.6c-0.2,0.1-0.2,0.3,0,0.4l1.5,0.9c0.2,0.1,0.5,0.1,0.6,0l2.7-1.6
						C195.1,222.1,195.1,221.9,194.9,221.8z M171.4,238.5l-1.5-0.9c-0.2-0.1-0.5-0.1-0.6,0l-2.7,1.6c-0.2,0.1-0.2,0.3,0,0.4l1.5,0.9
						c0.2,0.1,0.5,0.1,0.6,0l2.7-1.6C171.6,238.8,171.6,238.6,171.4,238.5z M174.3,236.8l-1.5-0.9c-0.2-0.1-0.5-0.1-0.6,0l-1.8,1
						c-0.2,0.1-0.2,0.3,0,0.4l1.5,0.9c0.2,0.1,0.5,0.1,0.6,0l1.8-1C174.5,237.1,174.5,236.9,174.3,236.8z M177.2,235.1l-1.5-0.9
						c-0.2-0.1-0.5-0.1-0.6,0l-1.8,1c-0.2,0.1-0.2,0.3,0,0.4l1.5,0.9c0.2,0.1,0.5,0.1,0.6,0l1.8-1
						C177.4,235.4,177.4,235.2,177.2,235.1z M180.1,233.4l-1.5-0.9c-0.2-0.1-0.5-0.1-0.6,0l-1.8,1c-0.2,0.1-0.2,0.3,0,0.4l1.5,0.9
						c0.2,0.1,0.5,0.1,0.6,0l1.8-1C180.3,233.7,180.3,233.5,180.1,233.4z M183.1,231.8l-1.5-0.9c-0.2-0.1-0.5-0.1-0.6,0l-1.8,1
						c-0.2,0.1-0.2,0.3,0,0.4l1.5,0.9c0.2,0.1,0.5,0.1,0.6,0l1.8-1C183.2,232,183.2,231.9,183.1,231.8z M196.4,227.1l-1.5-0.9
						c-0.2-0.1-0.5-0.1-0.6,0l-13.5,7.8c-0.2,0.1-0.2,0.3,0,0.4l1.5,0.9c0.2,0.1,0.5,0.1,0.6,0l13.5-7.8
						C196.6,227.4,196.6,227.2,196.4,227.1z M186,230.1l-1.5-0.9c-0.2-0.1-0.5-0.1-0.6,0l-1.8,1c-0.2,0.1-0.2,0.3,0,0.4l1.5,0.9
						c0.2,0.1,0.5,0.1,0.6,0l1.8-1C186.2,230.3,186.2,230.2,186,230.1z M188.9,228.4l-1.5-0.9c-0.2-0.1-0.5-0.1-0.6,0l-1.8,1
						c-0.2,0.1-0.2,0.3,0,0.4l1.5,0.9c0.2,0.1,0.5,0.1,0.6,0l1.8-1C189.1,228.7,189.1,228.5,188.9,228.4z M191.8,226.7l-1.5-0.9
						c-0.2-0.1-0.5-0.1-0.6,0l-1.8,1c-0.2,0.1-0.2,0.3,0,0.4l1.5,0.9c0.2,0.1,0.5,0.1,0.6,0l1.8-1C192,227,192,226.8,191.8,226.7z
						 M194.7,225l-1.5-0.9c-0.2-0.1-0.5-0.1-0.6,0l-1.8,1c-0.2,0.1-0.2,0.3,0,0.4l1.5,0.9c0.2,0.1,0.5,0.1,0.6,0l1.8-1
						C194.9,225.3,194.9,225.1,194.7,225z M197.7,223.3l-1.5-0.9c-0.2-0.1-0.5-0.1-0.6,0l-1.8,1c-0.2,0.1-0.2,0.3,0,0.4l1.5,0.9
						c0.2,0.1,0.5,0.1,0.6,0l1.8-1C197.8,223.6,197.8,223.4,197.7,223.3z M194.2,216.2l-1.5-0.9c-0.2-0.1-0.5-0.1-0.6,0l-1.8,1
						c-0.2,0.1-0.2,0.3,0,0.4l1.5,0.9c0.2,0.1,0.5,0.1,0.6,0l1.8-1C194.3,216.4,194.3,216.3,194.2,216.2z M197.1,214.5l-1.5-0.9
						c-0.2-0.1-0.5-0.1-0.6,0l-1.8,1c-0.2,0.1-0.2,0.3,0,0.4l1.5,0.9c0.2,0.1,0.5,0.1,0.6,0l1.8-1
						C197.3,214.7,197.3,214.6,197.1,214.5z M200,212.8l-1.5-0.9c-0.2-0.1-0.5-0.1-0.6,0l-1.8,1c-0.2,0.1-0.2,0.3,0,0.4l1.5,0.9
						c0.2,0.1,0.5,0.1,0.6,0l1.8-1C200.2,213,200.2,212.9,200,212.8z M202.7,214.3l-1.5-0.9c-0.2-0.1-0.5-0.1-0.6,0l-1.8,1
						c-0.2,0.1-0.2,0.3,0,0.4l1.5,0.9c0.2,0.1,0.5,0.1,0.6,0l1.8-1C202.8,214.6,202.8,214.4,202.7,214.3z M205.3,215.7l-1.5-0.9
						c-0.1-0.1-0.4-0.1-0.5,0l-2.6,1.5c-0.1,0.1-0.3,0.1-0.4,0l-2-1.2c-0.2-0.1-0.6-0.1-0.8,0l-4.6,2.6c-0.2,0.1-0.2,0.3,0,0.5
						l4,2.3c0.2,0.1,0.6,0.1,0.8,0l7.6-4.4C205.5,216.1,205.5,215.9,205.3,215.7z"/>
					<path fill="#848687" d="M162.4,234.6l-1.8,1c-0.2,0.1-0.5,0.1-0.6,0l-1.5-0.9c-0.2-0.1-0.2-0.3,0-0.4l1.8-1
						c0.2-0.1,0.5-0.1,0.6,0l1.5,0.9C162.6,234.3,162.6,234.5,162.4,234.6z M165.3,232.5l-1.5-0.9c-0.2-0.1-0.5-0.1-0.6,0l-1.8,1
						c-0.2,0.1-0.2,0.3,0,0.4l1.5,0.9c0.2,0.1,0.5,0.1,0.6,0l1.8-1C165.5,232.8,165.5,232.6,165.3,232.5z M168.3,230.8l-1.5-0.9
						c-0.2-0.1-0.5-0.1-0.6,0l-1.8,1c-0.2,0.1-0.2,0.3,0,0.4l1.5,0.9c0.2,0.1,0.5,0.1,0.6,0l1.8-1
						C168.4,231.1,168.4,230.9,168.3,230.8z M171.2,229.1l-1.5-0.9c-0.2-0.1-0.5-0.1-0.6,0l-1.8,1c-0.2,0.1-0.2,0.3,0,0.4l1.5,0.9
						c0.2,0.1,0.5,0.1,0.6,0l1.8-1C171.4,229.4,171.4,229.2,171.2,229.1z M174.1,227.5l-1.5-0.9c-0.2-0.1-0.5-0.1-0.6,0l-1.8,1
						c-0.2,0.1-0.2,0.3,0,0.4l1.5,0.9c0.2,0.1,0.5,0.1,0.6,0l1.8-1C174.3,227.7,174.3,227.6,174.1,227.5z M177,225.8l-1.5-0.9
						c-0.2-0.1-0.5-0.1-0.6,0l-1.8,1c-0.2,0.1-0.2,0.3,0,0.4l1.5,0.9c0.2,0.1,0.5,0.1,0.6,0l1.8-1C177.2,226,177.2,225.9,177,225.8z
						 M179.9,224.1l-1.5-0.9c-0.2-0.1-0.5-0.1-0.6,0l-1.8,1c-0.2,0.1-0.2,0.3,0,0.4l1.5,0.9c0.2,0.1,0.5,0.1,0.6,0l1.8-1
						C180.1,224.4,180.1,224.2,179.9,224.1z M182.9,222.4l-1.5-0.9c-0.2-0.1-0.5-0.1-0.6,0l-1.8,1c-0.2,0.1-0.2,0.3,0,0.4l1.5,0.9
						c0.2,0.1,0.5,0.1,0.6,0l1.8-1C183,222.7,183,222.5,182.9,222.4z M185.8,220.7l-1.5-0.9c-0.2-0.1-0.5-0.1-0.6,0l-1.8,1
						c-0.2,0.1-0.2,0.3,0,0.4l1.5,0.9c0.2,0.1,0.5,0.1,0.6,0l1.8-1C185.9,221,185.9,220.8,185.8,220.7z M189.6,218.5l-1.5-0.9
						c-0.2-0.1-0.5-0.1-0.6,0l-2.7,1.6c-0.2,0.1-0.2,0.3,0,0.4l1.5,0.9c0.2,0.1,0.5,0.1,0.6,0l2.7-1.6
						C189.8,218.8,189.8,218.6,189.6,218.5z M202.2,220.5l-1.5-0.9c-0.2-0.1-0.5-0.1-0.6,0l-1.8,1c-0.2,0.1-0.2,0.3,0,0.4l1.5,0.9
						c0.2,0.1,0.5,0.1,0.6,0l1.8-1C202.3,220.8,202.3,220.6,202.2,220.5z M205.1,218.8l-1.5-0.9c-0.2-0.1-0.5-0.1-0.6,0l-1.8,1
						c-0.2,0.1-0.2,0.3,0,0.4l1.5,0.9c0.2,0.1,0.5,0.1,0.6,0l1.8-1C205.3,219.1,205.3,218.9,205.1,218.8z M208,217.1l-1.5-0.9
						c-0.2-0.1-0.5-0.1-0.6,0l-1.8,1c-0.2,0.1-0.2,0.3,0,0.4l1.5,0.9c0.2,0.1,0.5,0.1,0.6,0l1.8-1
						C208.2,217.4,208.2,217.2,208,217.1z M204.8,222l-1.5-0.9c-0.2-0.1-0.5-0.1-0.6,0l-1.8,1c-0.2,0.1-0.2,0.3,0,0.4l1.5,0.9
						c0.2,0.1,0.5,0.1,0.6,0l1.8-1C205,222.3,205,222.1,204.8,222z M207.7,220.4l-1.5-0.9c-0.2-0.1-0.5-0.1-0.6,0l-1.8,1
						c-0.2,0.1-0.2,0.3,0,0.4l1.5,0.9c0.2,0.1,0.5,0.1,0.6,0l1.8-1C207.9,220.6,207.9,220.5,207.7,220.4z M210.7,218.7l-1.5-0.9
						c-0.2-0.1-0.5-0.1-0.6,0l-1.8,1c-0.2,0.1-0.2,0.3,0,0.4l1.5,0.9c0.2,0.1,0.5,0.1,0.6,0l1.8-1
						C210.8,218.9,210.8,218.8,210.7,218.7z M166.1,235.2l-1.5-0.9c-0.2-0.1-0.5-0.1-0.6,0l-2.7,1.6c-0.2,0.1-0.2,0.3,0,0.4l1.5,0.9
						c0.2,0.1,0.5,0.1,0.6,0l2.7-1.6C166.3,235.4,166.3,235.3,166.1,235.2z M169,233.5l-1.5-0.9c-0.2-0.1-0.5-0.1-0.6,0l-1.8,1
						c-0.2,0.1-0.2,0.3,0,0.4l1.5,0.9c0.2,0.1,0.5,0.1,0.6,0l1.8-1C169.2,233.8,169.2,233.6,169,233.5z M171.9,231.8l-1.5-0.9
						c-0.2-0.1-0.5-0.1-0.6,0l-1.8,1c-0.2,0.1-0.2,0.3,0,0.4l1.5,0.9c0.2,0.1,0.5,0.1,0.6,0l1.8-1
						C172.1,232.1,172.1,231.9,171.9,231.8z M174.8,230.1l-1.5-0.9c-0.2-0.1-0.5-0.1-0.6,0l-1.8,1c-0.2,0.1-0.2,0.3,0,0.4l1.5,0.9
						c0.2,0.1,0.5,0.1,0.6,0l1.8-1C175,230.4,175,230.2,174.8,230.1z M177.8,228.4l-1.5-0.9c-0.2-0.1-0.5-0.1-0.6,0l-1.8,1
						c-0.2,0.1-0.2,0.3,0,0.4l1.5,0.9c0.2,0.1,0.5,0.1,0.6,0l1.8-1C177.9,228.7,177.9,228.5,177.8,228.4z M180.7,226.8l-1.5-0.9
						c-0.2-0.1-0.5-0.1-0.6,0l-1.8,1c-0.2,0.1-0.2,0.3,0,0.4l1.5,0.9c0.2,0.1,0.5,0.1,0.6,0l1.8-1
						C180.9,227,180.9,226.9,180.7,226.8z M183.6,225.1l-1.5-0.9c-0.2-0.1-0.5-0.1-0.6,0l-1.8,1c-0.2,0.1-0.2,0.3,0,0.4l1.5,0.9
						c0.2,0.1,0.5,0.1,0.6,0l1.8-1C183.8,225.3,183.8,225.2,183.6,225.1z M186.5,223.4l-1.5-0.9c-0.2-0.1-0.5-0.1-0.6,0l-1.8,1
						c-0.2,0.1-0.2,0.3,0,0.4l1.5,0.9c0.2,0.1,0.5,0.1,0.6,0l1.8-1C186.7,223.6,186.7,223.5,186.5,223.4z M189.4,221.7l-1.5-0.9
						c-0.2-0.1-0.5-0.1-0.6,0l-1.8,1c-0.2,0.1-0.2,0.3,0,0.4l1.5,0.9c0.2,0.1,0.5,0.1,0.6,0l1.8-1
						C189.6,222,189.6,221.8,189.4,221.7z M192.4,220l-1.5-0.9c-0.2-0.1-0.5-0.1-0.6,0l-1.8,1c-0.2,0.1-0.2,0.3,0,0.4l1.5,0.9
						c0.2,0.1,0.5,0.1,0.6,0l1.8-1C192.5,220.3,192.5,220.1,192.4,220z M167.7,237.3l-1.5-0.9c-0.2-0.1-0.5-0.1-0.6,0l-1.8,1
						c-0.2,0.1-0.2,0.3,0,0.4l1.5,0.9c0.2,0.1,0.5,0.1,0.6,0l1.8-1C167.9,237.5,167.9,237.4,167.7,237.3z M170.7,235.6l-1.5-0.9
						c-0.2-0.1-0.5-0.1-0.6,0l-1.8,1c-0.2,0.1-0.2,0.3,0,0.4l1.5,0.9c0.2,0.1,0.5,0.1,0.6,0l1.8-1
						C170.8,235.8,170.8,235.7,170.7,235.6z M173.6,233.9L172,233c-0.2-0.1-0.5-0.1-0.6,0l-1.8,1c-0.2,0.1-0.2,0.3,0,0.4l1.5,0.9
						c0.2,0.1,0.5,0.1,0.6,0l1.8-1C173.7,234.2,173.7,234,173.6,233.9z M176.5,232.2l-1.5-0.9c-0.2-0.1-0.5-0.1-0.6,0l-1.8,1
						c-0.2,0.1-0.2,0.3,0,0.4l1.5,0.9c0.2,0.1,0.5,0.1,0.6,0l1.8-1C176.7,232.5,176.7,232.3,176.5,232.2z M173,240.3l-1.5-0.9
						c-0.2-0.1-0.5-0.1-0.6,0l-1.8,1c-0.2,0.1-0.2,0.3,0,0.4l1.5,0.9c0.2,0.1,0.5,0.1,0.6,0l1.8-1
						C173.2,240.6,173.2,240.4,173,240.3z M175.9,238.6l-1.5-0.9c-0.2-0.1-0.5-0.1-0.6,0l-1.8,1c-0.2,0.1-0.2,0.3,0,0.4l1.5,0.9
						c0.2,0.1,0.5,0.1,0.6,0l1.8-1C176.1,238.9,176.1,238.7,175.9,238.6z M178.9,236.9l-1.5-0.9c-0.2-0.1-0.5-0.1-0.6,0l-1.8,1
						c-0.2,0.1-0.2,0.3,0,0.4l1.5,0.9c0.2,0.1,0.5,0.1,0.6,0l1.8-1C179,237.2,179,237,178.9,236.9z M181.8,235.3l-1.5-0.9
						c-0.2-0.1-0.5-0.1-0.6,0l-1.8,1c-0.2,0.1-0.2,0.3,0,0.4l1.5,0.9c0.2,0.1,0.5,0.1,0.6,0l1.8-1C182,235.5,182,235.4,181.8,235.3z
						 M200.2,224.6l-1.5-0.9c-0.2-0.1-0.5-0.1-0.6,0l-2.7,1.6c-0.2,0.1-0.2,0.3,0,0.4l1.5,0.9c0.2,0.1,0.5,0.1,0.6,0l2.7-1.6
						C200.4,224.9,200.4,224.7,200.2,224.6z M179.4,230.5l-1.5-0.9c-0.2-0.1-0.5-0.1-0.6,0l-1.8,1c-0.2,0.1-0.2,0.3,0,0.4l1.5,0.9
						c0.2,0.1,0.5,0.1,0.6,0l1.8-1C179.6,230.8,179.6,230.6,179.4,230.5z M182.3,228.8l-1.5-0.9c-0.2-0.1-0.5-0.1-0.6,0l-1.8,1
						c-0.2,0.1-0.2,0.3,0,0.4l1.5,0.9c0.2,0.1,0.5,0.1,0.6,0l1.8-1C182.5,229.1,182.5,228.9,182.3,228.8z M185.2,227.1l-1.5-0.9
						c-0.2-0.1-0.5-0.1-0.6,0l-1.8,1c-0.2,0.1-0.2,0.3,0,0.4l1.5,0.9c0.2,0.1,0.5,0.1,0.6,0l1.8-1
						C185.4,227.4,185.4,227.2,185.2,227.1z M188.2,225.5l-1.5-0.9c-0.2-0.1-0.5-0.1-0.6,0l-1.8,1c-0.2,0.1-0.2,0.3,0,0.4l1.5,0.9
						c0.2,0.1,0.5,0.1,0.6,0l1.8-1C188.3,225.7,188.3,225.6,188.2,225.5z M191.1,223.8l-1.5-0.9c-0.2-0.1-0.5-0.1-0.6,0l-1.8,1
						c-0.2,0.1-0.2,0.3,0,0.4l1.5,0.9c0.2,0.1,0.5,0.1,0.6,0l1.8-1C191.3,224,191.3,223.9,191.1,223.8z M194.9,221.6l-1.5-0.9
						c-0.2-0.1-0.5-0.1-0.6,0l-2.7,1.6c-0.2,0.1-0.2,0.3,0,0.4l1.5,0.9c0.2,0.1,0.5,0.1,0.6,0l2.7-1.6
						C195.1,221.8,195.1,221.7,194.9,221.6z M171.4,238.2l-1.5-0.9c-0.2-0.1-0.5-0.1-0.6,0l-2.7,1.6c-0.2,0.1-0.2,0.3,0,0.4l1.5,0.9
						c0.2,0.1,0.5,0.1,0.6,0l2.7-1.6C171.6,238.5,171.6,238.3,171.4,238.2z M174.3,236.6l-1.5-0.9c-0.2-0.1-0.5-0.1-0.6,0l-1.8,1
						c-0.2,0.1-0.2,0.3,0,0.4l1.5,0.9c0.2,0.1,0.5,0.1,0.6,0l1.8-1C174.5,236.8,174.5,236.7,174.3,236.6z M177.2,234.9l-1.5-0.9
						c-0.2-0.1-0.5-0.1-0.6,0l-1.8,1c-0.2,0.1-0.2,0.3,0,0.4l1.5,0.9c0.2,0.1,0.5,0.1,0.6,0l1.8-1
						C177.4,235.1,177.4,235,177.2,234.9z M180.1,233.2l-1.5-0.9c-0.2-0.1-0.5-0.1-0.6,0l-1.8,1c-0.2,0.1-0.2,0.3,0,0.4l1.5,0.9
						c0.2,0.1,0.5,0.1,0.6,0l1.8-1C180.3,233.4,180.3,233.3,180.1,233.2z M183.1,231.5l-1.5-0.9c-0.2-0.1-0.5-0.1-0.6,0l-1.8,1
						c-0.2,0.1-0.2,0.3,0,0.4l1.5,0.9c0.2,0.1,0.5,0.1,0.6,0l1.8-1C183.2,231.8,183.2,231.6,183.1,231.5z M196.4,226.8l-1.5-0.9
						c-0.2-0.1-0.5-0.1-0.6,0l-13.5,7.8c-0.2,0.1-0.2,0.3,0,0.4l1.5,0.9c0.2,0.1,0.5,0.1,0.6,0l13.5-7.8
						C196.6,227.1,196.6,226.9,196.4,226.8z M186,229.8l-1.5-0.9c-0.2-0.1-0.5-0.1-0.6,0l-1.8,1c-0.2,0.1-0.2,0.3,0,0.4l1.5,0.9
						c0.2,0.1,0.5,0.1,0.6,0l1.8-1C186.2,230.1,186.2,229.9,186,229.8z M188.9,228.1l-1.5-0.9c-0.2-0.1-0.5-0.1-0.6,0l-1.8,1
						c-0.2,0.1-0.2,0.3,0,0.4l1.5,0.9c0.2,0.1,0.5,0.1,0.6,0l1.8-1C189.1,228.4,189.1,228.2,188.9,228.1z M191.8,226.4l-1.5-0.9
						c-0.2-0.1-0.5-0.1-0.6,0l-1.8,1c-0.2,0.1-0.2,0.3,0,0.4l1.5,0.9c0.2,0.1,0.5,0.1,0.6,0l1.8-1C192,226.7,192,226.5,191.8,226.4z
						 M194.7,224.8l-1.5-0.9c-0.2-0.1-0.5-0.1-0.6,0l-1.8,1c-0.2,0.1-0.2,0.3,0,0.4l1.5,0.9c0.2,0.1,0.5,0.1,0.6,0l1.8-1
						C194.9,225,194.9,224.9,194.7,224.8z M197.7,223.1l-1.5-0.9c-0.2-0.1-0.5-0.1-0.6,0l-1.8,1c-0.2,0.1-0.2,0.3,0,0.4l1.5,0.9
						c0.2,0.1,0.5,0.1,0.6,0l1.8-1C197.8,223.3,197.8,223.2,197.7,223.1z M194.2,215.9l-1.5-0.9c-0.2-0.1-0.5-0.1-0.6,0l-1.8,1
						c-0.2,0.1-0.2,0.3,0,0.4l1.5,0.9c0.2,0.1,0.5,0.1,0.6,0l1.8-1C194.3,216.2,194.3,216,194.2,215.9z M197.1,214.2l-1.5-0.9
						c-0.2-0.1-0.5-0.1-0.6,0l-1.8,1c-0.2,0.1-0.2,0.3,0,0.4l1.5,0.9c0.2,0.1,0.5,0.1,0.6,0l1.8-1
						C197.3,214.5,197.3,214.3,197.1,214.2z M200,212.5l-1.5-0.9c-0.2-0.1-0.5-0.1-0.6,0l-1.8,1c-0.2,0.1-0.2,0.3,0,0.4l1.5,0.9
						c0.2,0.1,0.5,0.1,0.6,0l1.8-1C200.2,212.8,200.2,212.6,200,212.5z M202.7,214.1l-1.5-0.9c-0.2-0.1-0.5-0.1-0.6,0l-1.8,1
						c-0.2,0.1-0.2,0.3,0,0.4l1.5,0.9c0.2,0.1,0.5,0.1,0.6,0l1.8-1C202.8,214.3,202.8,214.2,202.7,214.1z M205.3,215.5l-1.5-0.9
						c-0.1-0.1-0.4-0.1-0.5,0l-2.6,1.5c-0.1,0.1-0.3,0.1-0.4,0l-2-1.2c-0.2-0.1-0.6-0.1-0.8,0l-4.6,2.6c-0.2,0.1-0.2,0.3,0,0.5
						l4,2.3c0.2,0.1,0.6,0.1,0.8,0l7.6-4.4C205.5,215.8,205.5,215.6,205.3,215.5z"/>
				</g>
			</g>
			<g>
				<g>
					<g>
						<linearGradient id="SVGID_29_" gradientUnits="userSpaceOnUse" x1="243.8008" y1="202.3826" x2="247.6312" y2="208.7651">
							<stop  offset="0" style="stop-color:#474747"/>
							<stop  offset="0.6476" style="stop-color:#212121"/>
						</linearGradient>
						<path fill="url(#SVGID_29_)" d="M272.8,190.9c0-0.1,0-0.2-0.1-0.3c0-0.2-0.1-0.4-0.1-0.7c0-0.1-0.1-0.3-0.1-0.4
							c-0.1-0.2-0.1-0.4-0.2-0.6c0-0.1-0.1-0.3-0.1-0.4c0-0.1-0.1-0.2-0.1-0.3c0-0.1-0.1-0.2-0.1-0.3c-0.1-0.2-0.1-0.3-0.2-0.5
							c-0.1-0.2-0.2-0.4-0.3-0.5c-0.1-0.2-0.2-0.3-0.3-0.5c-0.1-0.2-0.2-0.4-0.3-0.5c-0.1-0.1-0.2-0.3-0.3-0.4
							c-0.1-0.2-0.3-0.3-0.4-0.5c-0.1-0.1-0.2-0.3-0.3-0.4c0,0-0.1-0.1-0.1-0.1c-0.2-0.2-0.4-0.4-0.6-0.6l-10.1-9.6l-10.6-10
							c-0.1-0.1-0.2-0.2-0.3-0.2c-0.3-0.2-0.5-0.2-0.7-0.1l-14.6,8.5l-32.7,19c0.2-0.1,0.5-0.1,0.7,0.1c0.1,0.1,0.2,0.1,0.3,0.2
							l10.6,10l10.1,9.6c0.2,0.2,0.5,0.5,0.7,0.7c0.1,0.1,0.2,0.3,0.3,0.4c0.1,0.2,0.3,0.3,0.4,0.5c0.1,0.1,0.2,0.3,0.3,0.4
							c0.1,0.2,0.2,0.3,0.3,0.5c0.1,0.2,0.2,0.3,0.3,0.5c0.1,0.2,0.2,0.4,0.3,0.5c0.1,0.2,0.2,0.3,0.2,0.5c0.1,0.2,0.2,0.4,0.2,0.6
							c0.1,0.1,0.1,0.3,0.1,0.4c0.1,0.2,0.1,0.4,0.2,0.6c0,0.1,0.1,0.3,0.1,0.4c0.1,0.2,0.1,0.5,0.1,0.7c0,0.1,0,0.2,0.1,0.3
							c0,0.3,0.1,0.7,0.1,1l0,2.4l47.2-27.5l0-2.4C272.9,191.6,272.9,191.2,272.8,190.9z"/>
						<path fill="#0F0F0F" d="M221.9,211.3l-10.1-9.6l-10.6-10c-0.1-0.1-0.2-0.2-0.3-0.2c-0.5-0.3-1-0.1-1,0.6l0,14.8l25.8,14.9
							l0-2.4C225.7,216.6,224.2,213.4,221.9,211.3z"/>
						<polygon fill="#383838" points="234,177 210.7,190.5 225.4,204.5 248.7,190.9 						"/>
						<linearGradient id="SVGID_30_" gradientUnits="userSpaceOnUse" x1="232.5916" y1="184.15" x2="217.4837" y2="222.1186">
							<stop  offset="0" style="stop-color:#99F0FF"/>
							<stop  offset="0.5995" style="stop-color:#75B3BD"/>
							<stop  offset="1" style="stop-color:#5F8E96"/>
						</linearGradient>
						<polygon opacity="0.3" fill="url(#SVGID_30_)" points="211.6,191.5 225.4,204.5 247.7,191.5 234,178.5 						"/>
					</g>
					<g>
						<g>
							<path fill="#313131" d="M238.4,178.1c-0.1,0.1-0.2,0.1-0.3,0.2c-0.2,0.1-0.3,0.1-0.5,0.1c-0.1,0-0.1,0-0.2,0
								c-0.1,0-0.2,0-0.3,0c-0.1,0-0.2-0.1-0.3-0.1c-0.1,0-0.2-0.1-0.2-0.1c-0.2-0.1-0.3-0.2-0.5-0.4c-0.3-0.4-0.4-0.8-0.2-1.1
								l-0.1,0.2c-0.1,0.3-0.1,0.7,0.2,1.1c0.1,0.2,0.3,0.3,0.5,0.4c0,0,0,0,0,0c0.1,0,0.1,0.1,0.2,0.1c0.1,0,0.2,0.1,0.3,0.1
								c0,0,0,0,0,0c0.1,0,0.2,0,0.3,0c0.1,0,0.1,0,0.2,0c0.2,0,0.3,0,0.5-0.1c0.1-0.1,0.2-0.1,0.3-0.2c0,0,0,0,0,0
								C238.4,178.3,238.4,178.2,238.4,178.1l0.2-0.3C238.5,178,238.5,178,238.4,178.1z"/>
							<path fill="#848687" d="M238.4,176.8c-0.5-0.6-1.4-0.8-2-0.6c-0.6,0.3-0.7,1-0.3,1.5c0.5,0.6,1.4,0.8,2,0.6
								C238.7,178,238.8,177.4,238.4,176.8z"/>
						</g>
						<g>
							<path fill="#313131" d="M242.2,181.6c-0.1,0.1-0.2,0.1-0.3,0.2c-0.2,0.1-0.3,0.1-0.5,0.1c-0.1,0-0.1,0-0.2,0
								c-0.1,0-0.2,0-0.3,0c-0.1,0-0.2-0.1-0.3-0.1c-0.1,0-0.2-0.1-0.2-0.1c-0.2-0.1-0.3-0.2-0.5-0.4c-0.3-0.4-0.4-0.8-0.2-1.1
								l-0.1,0.2c-0.1,0.3-0.1,0.7,0.2,1.1c0.1,0.2,0.3,0.3,0.5,0.4c0,0,0,0,0,0c0.1,0,0.1,0.1,0.2,0.1c0.1,0,0.2,0.1,0.3,0.1
								c0,0,0,0,0,0c0.1,0,0.2,0,0.3,0c0.1,0,0.1,0,0.2,0c0.2,0,0.3,0,0.5-0.1c0.1-0.1,0.2-0.1,0.3-0.2c0,0,0,0,0,0
								C242.1,181.8,242.2,181.7,242.2,181.6l0.2-0.3C242.3,181.5,242.2,181.5,242.2,181.6z"/>
							<path fill="#848687" d="M242.1,180.3c-0.5-0.6-1.4-0.8-2-0.6c-0.6,0.3-0.7,1-0.3,1.5c0.5,0.6,1.4,0.8,2,0.6
								C242.5,181.5,242.6,180.9,242.1,180.3z"/>
						</g>
						<g>
							<path fill="#313131" d="M245.9,185.1c-0.1,0.1-0.2,0.1-0.3,0.2c-0.2,0.1-0.3,0.1-0.5,0.1c-0.1,0-0.1,0-0.2,0
								c-0.1,0-0.2,0-0.3,0c-0.1,0-0.2-0.1-0.3-0.1c-0.1,0-0.2-0.1-0.2-0.1c-0.2-0.1-0.3-0.2-0.5-0.4c-0.3-0.4-0.4-0.8-0.2-1.1
								l-0.1,0.2c-0.1,0.3-0.1,0.7,0.2,1.1c0.1,0.2,0.3,0.3,0.5,0.4c0,0,0,0,0,0c0.1,0,0.1,0.1,0.2,0.1c0.1,0,0.2,0.1,0.3,0.1
								c0,0,0,0,0,0c0.1,0,0.2,0,0.3,0c0.1,0,0.1,0,0.2,0c0.2,0,0.3,0,0.5-0.1c0.1-0.1,0.2-0.1,0.3-0.2l0,0
								C245.9,185.3,245.9,185.2,245.9,185.1l0.2-0.3C246,185,246,185,245.9,185.1z"/>
							<path fill="#848687" d="M245.9,183.8c-0.5-0.6-1.4-0.8-2-0.6c-0.6,0.3-0.7,1-0.3,1.5c0.5,0.6,1.4,0.8,2,0.6
								C246.2,185,246.3,184.4,245.9,183.8z"/>
						</g>
						<g>
							<path fill="#313131" d="M249.7,188.6c-0.1,0.1-0.2,0.1-0.3,0.2c-0.2,0.1-0.3,0.1-0.5,0.1c-0.1,0-0.1,0-0.2,0
								c-0.1,0-0.2,0-0.3,0c-0.1,0-0.2-0.1-0.3-0.1c-0.1,0-0.2-0.1-0.2-0.1c-0.2-0.1-0.3-0.2-0.5-0.4c-0.3-0.4-0.4-0.8-0.2-1.1
								l-0.1,0.2c-0.1,0.3-0.1,0.7,0.2,1.1c0.1,0.2,0.3,0.3,0.5,0.4c0,0,0,0,0,0c0.1,0,0.1,0.1,0.2,0.1c0.1,0,0.2,0.1,0.3,0.1
								c0,0,0,0,0,0c0.1,0,0.2,0,0.3,0c0.1,0,0.1,0,0.2,0c0.2,0,0.3,0,0.5-0.1c0.1-0.1,0.2-0.1,0.3-0.2l0,0
								C249.6,188.8,249.7,188.7,249.7,188.6l0.2-0.3C249.8,188.5,249.7,188.5,249.7,188.6z"/>
							<path fill="#848687" d="M249.6,187.3c-0.5-0.6-1.4-0.8-2-0.6c-0.6,0.3-0.7,1-0.3,1.5c0.5,0.6,1.4,0.8,2,0.6
								C250,188.5,250.1,187.9,249.6,187.3z"/>
						</g>
					</g>
					<g>
						<g>
							<path fill="#313131" d="M210.7,193.9c-0.1,0.1-0.2,0.1-0.3,0.2c-0.2,0.1-0.3,0.1-0.5,0.1c-0.1,0-0.1,0-0.2,0
								c-0.1,0-0.2,0-0.3,0c-0.1,0-0.2-0.1-0.3-0.1c-0.1,0-0.2-0.1-0.2-0.1c-0.2-0.1-0.3-0.2-0.5-0.4c-0.3-0.4-0.4-0.8-0.2-1.1
								l-0.1,0.2c-0.1,0.3-0.1,0.7,0.2,1.1c0.1,0.2,0.3,0.3,0.5,0.4c0,0,0,0,0,0c0.1,0,0.1,0.1,0.2,0.1c0.1,0,0.2,0.1,0.3,0.1
								c0,0,0,0,0,0c0.1,0,0.2,0,0.3,0c0.1,0,0.1,0,0.2,0c0.2,0,0.3,0,0.5-0.1c0.1-0.1,0.2-0.1,0.3-0.2l0,0
								C210.7,194.1,210.7,194,210.7,193.9l0.2-0.3C210.8,193.8,210.7,193.8,210.7,193.9z"/>
							<path fill="#848687" d="M210.6,192.6c-0.5-0.6-1.4-0.8-2-0.6c-0.6,0.3-0.7,1-0.3,1.5c0.5,0.6,1.4,0.8,2,0.6
								C211,193.8,211.1,193.2,210.6,192.6z"/>
						</g>
						<g>
							<path fill="#313131" d="M214.4,197.4c-0.1,0.1-0.2,0.1-0.3,0.2c-0.2,0.1-0.3,0.1-0.5,0.1c-0.1,0-0.1,0-0.2,0
								c-0.1,0-0.2,0-0.3,0c-0.1,0-0.2-0.1-0.3-0.1c-0.1,0-0.2-0.1-0.2-0.1c-0.2-0.1-0.3-0.2-0.5-0.4c-0.3-0.4-0.4-0.8-0.2-1.1
								l-0.1,0.2c-0.1,0.3-0.1,0.7,0.2,1.1c0.1,0.2,0.3,0.3,0.5,0.4c0,0,0,0,0,0c0.1,0,0.1,0.1,0.2,0.1c0.1,0,0.2,0.1,0.3,0.1
								c0,0,0,0,0,0c0.1,0,0.2,0,0.3,0c0.1,0,0.1,0,0.2,0c0.2,0,0.3,0,0.5-0.1c0.1-0.1,0.2-0.1,0.3-0.2c0,0,0,0,0,0
								C214.4,197.6,214.5,197.5,214.4,197.4l0.2-0.3C214.6,197.3,214.5,197.3,214.4,197.4z"/>
							<path fill="#848687" d="M214.4,196.1c-0.5-0.6-1.4-0.8-2-0.6c-0.6,0.3-0.7,1-0.3,1.5c0.5,0.6,1.4,0.8,2,0.6
								C214.7,197.3,214.9,196.7,214.4,196.1z"/>
						</g>
						<g>
							<path fill="#313131" d="M218.2,200.9c-0.1,0.1-0.2,0.1-0.3,0.2c-0.2,0.1-0.3,0.1-0.5,0.1c-0.1,0-0.1,0-0.2,0
								c-0.1,0-0.2,0-0.3,0c-0.1,0-0.2-0.1-0.3-0.1c-0.1,0-0.2-0.1-0.2-0.1c-0.2-0.1-0.3-0.2-0.5-0.4c-0.3-0.4-0.4-0.8-0.2-1.1
								l-0.1,0.2c-0.1,0.3-0.1,0.7,0.2,1.1c0.1,0.2,0.3,0.3,0.5,0.4c0,0,0,0,0,0c0.1,0,0.1,0.1,0.2,0.1c0.1,0,0.2,0.1,0.3,0.1
								c0,0,0,0,0,0c0.1,0,0.2,0,0.3,0c0.1,0,0.1,0,0.2,0c0.2,0,0.3,0,0.5-0.1c0.1-0.1,0.2-0.1,0.3-0.2c0,0,0,0,0,0
								C218.2,201.1,218.2,201,218.2,200.9l0.2-0.3C218.3,200.8,218.3,200.8,218.2,200.9z"/>
							<path fill="#848687" d="M218.1,199.6c-0.5-0.6-1.4-0.8-2-0.6c-0.6,0.3-0.7,1-0.3,1.5c0.5,0.6,1.4,0.8,2,0.6
								C218.5,200.8,218.6,200.2,218.1,199.6z"/>
						</g>
						<g>
							<path fill="#313131" d="M221.9,204.4c-0.1,0.1-0.2,0.1-0.3,0.2c-0.2,0.1-0.3,0.1-0.5,0.1c-0.1,0-0.1,0-0.2,0
								c-0.1,0-0.2,0-0.3,0c-0.1,0-0.2-0.1-0.3-0.1c-0.1,0-0.2-0.1-0.2-0.1c-0.2-0.1-0.3-0.2-0.5-0.4c-0.3-0.4-0.4-0.8-0.2-1.1
								l-0.1,0.2c-0.1,0.3-0.1,0.7,0.2,1.1c0.1,0.2,0.3,0.3,0.5,0.4c0,0,0,0,0,0c0.1,0,0.1,0.1,0.2,0.1c0.1,0,0.2,0.1,0.3,0.1
								c0,0,0,0,0,0c0.1,0,0.2,0,0.3,0c0.1,0,0.1,0,0.2,0c0.2,0,0.3,0,0.5-0.1c0.1-0.1,0.2-0.1,0.3-0.2l0,0
								C221.9,204.6,222,204.5,221.9,204.4l0.2-0.3C222.1,204.3,222,204.4,221.9,204.4z"/>
							<path fill="#848687" d="M221.9,203.1c-0.5-0.6-1.4-0.8-2-0.6c-0.6,0.3-0.7,1-0.3,1.5c0.5,0.6,1.4,0.8,2,0.6
								C222.2,204.4,222.4,203.7,221.9,203.1z"/>
						</g>
					</g>
					<g>
						<path fill="#313131" d="M254.2,177.6c0,0.1-0.1,0.1-0.1,0.1c-0.1,0.1-0.1,0.2-0.2,0.3c-0.1,0.1-0.2,0.2-0.3,0.2
							c-0.1,0-0.1,0.1-0.1,0.1c-0.2,0.1-0.3,0.2-0.5,0.3c-0.3,0.1-0.5,0.2-0.8,0.3c-0.1,0-0.2,0-0.3,0c-0.2,0-0.4,0.1-0.6,0.1
							c-0.1,0-0.2,0-0.4,0c-0.2,0-0.4,0-0.5,0c-0.1,0-0.3,0-0.4-0.1c-0.2,0-0.3-0.1-0.5-0.1c-0.2,0-0.3-0.1-0.5-0.1
							c-0.1,0-0.3-0.1-0.4-0.2c-0.2-0.1-0.3-0.1-0.4-0.2c-0.1-0.1-0.3-0.1-0.4-0.2c-0.2-0.1-0.4-0.3-0.6-0.4
							c-0.1-0.1-0.2-0.1-0.3-0.2c-0.3-0.2-0.5-0.5-0.7-0.7c-0.6-0.8-1-1.6-1-2.4c0-0.5,0.1-0.9,0.2-1.3l0,0l0,0l-0.3,0.7
							c-0.5,1.1-0.2,2.4,0.8,3.7c0.2,0.3,0.5,0.5,0.7,0.7c0.1,0.1,0.2,0.1,0.3,0.2c0.2,0.1,0.4,0.3,0.6,0.4c0,0,0.1,0,0.1,0.1
							c0.1,0.1,0.2,0.1,0.3,0.2c0.1,0.1,0.3,0.2,0.4,0.2c0.1,0.1,0.3,0.1,0.4,0.2c0.2,0.1,0.3,0.1,0.5,0.1c0,0,0.1,0,0.1,0
							c0.1,0,0.3,0,0.4,0.1c0.1,0,0.3,0,0.4,0.1c0.2,0,0.4,0,0.5,0c0.1,0,0.2,0,0.4,0c0.2,0,0.4,0,0.6-0.1c0.1,0,0.2,0,0.3,0
							c0.3-0.1,0.5-0.1,0.8-0.3c0.2-0.1,0.4-0.2,0.5-0.3c0.1,0,0.1-0.1,0.2-0.1c0.1-0.1,0.2-0.2,0.3-0.2c0,0,0,0,0,0
							c0.1-0.1,0.2-0.2,0.2-0.3c0,0,0.1-0.1,0.1-0.1c0.1-0.1,0.2-0.3,0.3-0.5l0.3-0.7C254.4,177.3,254.3,177.5,254.2,177.6z"/>
						<path fill="#686868" d="M253.7,173.5c-1.6-2-4.6-2.8-6.7-1.9c-2.1,0.9-2.5,3.2-0.8,5.2c1.6,2,4.6,2.8,6.7,1.9
							C255,177.8,255.3,175.5,253.7,173.5z"/>
						<path opacity="0.3" fill="#212121" d="M253.1,173.7c-0.9-1.1-2.5-1.9-4-1.9c-0.6,0-1.1,0.1-1.6,0.3c-0.8,0.3-1.3,0.9-1.5,1.7
							c-0.2,0.9,0.1,1.8,0.8,2.7c0.9,1.1,2.5,1.9,4,1.9c0.6,0,1.1-0.1,1.6-0.3c0.8-0.3,1.3-0.9,1.5-1.7
							C254,175.6,253.8,174.6,253.1,173.7z M253.5,176.3c-0.2,0.7-0.6,1.2-1.3,1.5c-0.4,0.2-0.9,0.3-1.4,0.3c-1.4,0-2.9-0.7-3.7-1.7
							c-0.6-0.8-0.9-1.6-0.7-2.4c0.2-0.7,0.6-1.2,1.3-1.5c0.4-0.2,0.9-0.3,1.4-0.3c1.4,0,2.9,0.7,3.7,1.7
							C253.5,174.7,253.7,175.6,253.5,176.3z"/>
						<path fill="#313131" d="M252.1,174.2c-0.9-1.1-2.7-1.6-3.9-1.1c-1.2,0.5-1.4,1.9-0.5,3c0.9,1.1,2.7,1.6,3.9,1.1
							C252.9,176.7,253.1,175.3,252.1,174.2z"/>
					</g>
					<path opacity="0.8" fill="#212121" d="M259.9,179.1l-8.4,4.9c-0.1,0-0.1,0.1-0.2,0.1c-0.2,0-0.3-0.1-0.4-0.2
						c-0.1-0.2-0.1-0.5,0.2-0.6l8.4-4.9c0.2-0.1,0.5-0.1,0.6,0.2C260.2,178.7,260.1,179,259.9,179.1z M261.2,179.7
						c-0.1-0.2-0.4-0.3-0.6-0.2l-8.4,4.9c-0.2,0.1-0.3,0.4-0.2,0.6c0.1,0.1,0.2,0.2,0.4,0.2c0.1,0,0.2,0,0.2-0.1l8.4-4.9
						C261.3,180.2,261.4,179.9,261.2,179.7z M262.4,180.9c-0.1-0.2-0.4-0.3-0.6-0.2l-8.4,4.9c-0.2,0.1-0.3,0.4-0.2,0.6
						c0.1,0.1,0.2,0.2,0.4,0.2c0.1,0,0.2,0,0.2-0.1l8.4-4.9C262.5,181.4,262.6,181.1,262.4,180.9z M263.6,182.1
						c-0.1-0.2-0.4-0.3-0.6-0.2l-8.4,4.9c-0.2,0.1-0.3,0.4-0.2,0.6c0.1,0.1,0.2,0.2,0.4,0.2c0.1,0,0.2,0,0.2-0.1l8.4-4.9
						C263.7,182.6,263.8,182.3,263.6,182.1z"/>
				</g>
				<linearGradient id="SVGID_31_" gradientUnits="userSpaceOnUse" x1="251.3104" y1="171.0635" x2="248.7747" y2="171.0635">
					<stop  offset="0" style="stop-color:#B1B7B9"/>
					<stop  offset="0.8381" style="stop-color:#A8AEAF"/>
				</linearGradient>
				<path fill="url(#SVGID_31_)" d="M250.1,166.1c-0.7,0-1.2,0.5-1.2,1.2v7.6c0,0.7,0.5,1.2,1.2,1.2c0.7,0,1.2-0.5,1.2-1.2v-7.6
					C251.3,166.6,250.8,166.1,250.1,166.1z"/>
				<linearGradient id="SVGID_32_" gradientUnits="userSpaceOnUse" x1="251.542" y1="165.149" x2="249.0415" y2="170.2766">
					<stop  offset="0" style="stop-color:#474747"/>
					<stop  offset="0.6476" style="stop-color:#212121"/>
				</linearGradient>
				<path fill="url(#SVGID_32_)" d="M252.7,168.2c0,1.5-1.2,2.7-2.7,2.7c-1.5,0-2.7-1.2-2.7-2.7c0-1.5,1.2-2.7,2.7-2.7
					C251.5,165.5,252.7,166.7,252.7,168.2z"/>
				<linearGradient id="SVGID_33_" gradientUnits="userSpaceOnUse" x1="251.2789" y1="166.2477" x2="250.3528" y2="168.3671">
					<stop  offset="0" style="stop-color:#A3A5A6"/>
					<stop  offset="1" style="stop-color:#848687"/>
				</linearGradient>
				<path opacity="0.2" fill="url(#SVGID_33_)" d="M252.3,167.4c0,0.8-0.7,1.5-1.5,1.5s-1.5-0.7-1.5-1.5c0-0.8,0.7-1.5,1.5-1.5
					S252.3,166.6,252.3,167.4z"/>
			</g>
		</g>
		<g>
			<polygon opacity="0.2" fill="#95EAF9" points="151.3,181.1 129.7,193.6 129.7,176 151.3,163.5 			"/>
			<polygon opacity="0.5" fill="#92F5FF" points="176.4,166.7 154.8,179.1 154.8,161.6 176.4,149.1 			"/>
			<polygon opacity="0.5" fill="#92F5FF" points="151.3,202.3 129.7,214.7 129.7,197.2 151.3,184.7 			"/>
			<polygon opacity="0.2" fill="#95EAF9" points="176.4,187.8 154.8,200.3 154.8,182.7 176.4,170.2 			"/>
		</g>
		<g>
			<polygon opacity="0.2" fill="#95EAF9" points="205.7,149.6 184.1,162 184.1,144.5 205.7,132 			"/>
			<polygon opacity="0.5" fill="#92F5FF" points="230.8,135.1 209.2,147.6 209.2,130 230.8,117.5 			"/>
			<polygon opacity="0.5" fill="#92F5FF" points="205.7,170.7 184.1,183.2 184.1,165.6 205.7,153.1 			"/>
			<polygon opacity="0.2" fill="#95EAF9" points="230.8,156.3 209.2,168.7 209.2,151.2 230.8,138.7 			"/>
		</g>
	</g>
</g>
<g>
	<g>
		<defs>
			
				<ellipse id="SVGID_34_" transform="matrix(0.9239 -0.3827 0.3827 0.9239 -4.2229 64.4425)" cx="159.9" cy="42.8" rx="41.1" ry="41.1"/>
		</defs>
		<use xlink:href="#SVGID_34_"  overflow="visible" opacity="0.2" fill="#4242DC"/>
		<clipPath id="SVGID_35_">
			<use xlink:href="#SVGID_34_"  overflow="visible" opacity="0.2"/>
		</clipPath>
		<g id="_x31_5" clip-path="url(#SVGID_35_)">
			<linearGradient id="SVGID_36_" gradientUnits="userSpaceOnUse" x1="144.4054" y1="48.0763" x2="164.0665" y2="17.2978">
				<stop  offset="0" style="stop-color:#889197"/>
				<stop  offset="1" style="stop-color:#BEC5C9"/>
			</linearGradient>
			<path fill="url(#SVGID_36_)" d="M163.5,38.6C163.5,38.6,163.5,38.6,163.5,38.6l-19.6-11.4c-1.1-0.6-2.5-0.5-4.1,0.4
				c-0.2,0.1-0.4,0.2-0.6,0.4c-0.1,0-0.1,0.1-0.2,0.1c-0.1,0.1-0.2,0.2-0.4,0.3c-0.1,0.1-0.1,0.1-0.2,0.2c-0.1,0.1-0.2,0.2-0.3,0.3
				c-0.1,0.1-0.1,0.1-0.2,0.2c-0.1,0.1-0.2,0.2-0.3,0.3c-0.1,0.1-0.1,0.2-0.2,0.2c-0.1,0.1-0.2,0.2-0.3,0.3
				c-0.1,0.1-0.1,0.2-0.2,0.3c-0.1,0.1-0.2,0.2-0.3,0.3c-0.1,0.1-0.1,0.2-0.2,0.3c-0.1,0.1-0.2,0.2-0.2,0.3
				c-0.1,0.1-0.1,0.2-0.2,0.3c0,0.1-0.1,0.1-0.1,0.2c0,0,0,0.1-0.1,0.1c-0.2,0.3-0.4,0.7-0.6,1c0,0,0,0.1-0.1,0.1
				c-0.2,0.3-0.3,0.6-0.4,1c0,0.1,0,0.1-0.1,0.2c-0.1,0.3-0.2,0.7-0.3,1c0,0.1,0,0.1-0.1,0.2c-0.1,0.4-0.2,0.7-0.2,1.1c0,0,0,0,0,0
				c0,0.1,0,0.3-0.1,0.4c0,0.1,0,0.2,0,0.2c0,0.2,0,0.5,0,0.7c0,0.7,0.1,1.3,0.3,1.8c0.3,0.9,0.8,1.5,1.4,1.9l19.6,11.4
				c-0.1,0-0.1-0.1-0.2-0.1c1.1,0.7,2.6,0.7,4.3-0.3c3.2-1.8,5.8-6.3,5.8-10C165.2,40.5,164.5,39.2,163.5,38.6z"/>
			<path fill="#262626" d="M147.6,1.8c0.1-0.7-0.2-1.3-1.1-1.8c-1.5-0.9-4-0.9-5.5,0c-0.8,0.4-1.1,1-1.1,1.6c0,0,0,0,0,0v0v0
				l-0.1,29.2c0,0.6,0.4,1.2,1.1,1.6c1.5,0.9,4,0.9,5.5,0c0.7-0.4,1.1-1,1.1-1.6l0.1-29.2C147.7,1.7,147.6,1.8,147.6,1.8z
				 M140.2,2.4c0-0.1-0.1-0.1-0.1-0.2C140.1,2.3,140.2,2.4,140.2,2.4C140.2,2.4,140.2,2.4,140.2,2.4z"/>
			<path opacity="0.2" fill="#F5F8F9" d="M144.3,6.6V33c0.6-0.1,1.2-0.2,1.7-0.4V6.5C145.5,6.5,144.9,6.6,144.3,6.6z"/>
			<g>
				<g>
					<linearGradient id="SVGID_37_" gradientUnits="userSpaceOnUse" x1="128.9861" y1="-2.5322" x2="159.1354" y2="-2.5322">
						<stop  offset="0" style="stop-color:#889197"/>
						<stop  offset="1" style="stop-color:#B8BFC1"/>
					</linearGradient>
					<path fill="url(#SVGID_37_)" d="M158.9-8.3c0,0.1-0.1,0.1-0.1,0.2c-0.1,0.1-0.2,0.2-0.2,0.4c0,0.1-0.1,0.1-0.1,0.2
						c-0.1,0.1-0.2,0.2-0.3,0.4c0,0-0.1,0.1-0.1,0.1c-0.1,0.1-0.1,0.1-0.2,0.2c-0.1,0.1-0.3,0.3-0.4,0.4c-0.1,0.1-0.2,0.1-0.2,0.2
						c-0.1,0.1-0.3,0.2-0.4,0.4c-0.1,0.1-0.2,0.1-0.3,0.2c-0.2,0.1-0.3,0.2-0.5,0.4c-0.1,0.1-0.2,0.1-0.2,0.2
						c-0.2,0.1-0.4,0.3-0.7,0.4c-0.5-0.9-1.4-1.7-2.6-2.5c-4.5-2.7-12-2.8-16.6-0.2c-1.3,0.7-2.3,1.6-2.8,2.6c0,0-0.1,0-0.1-0.1
						c-1.9-1.2-3.2-2.5-3.9-4c1.2,2.7,2.5,5.4,3.7,8.1c0,0,0,0,0,0.1c0,0,0,0.1,0.1,0.1c0.1,0.2,0.2,0.3,0.3,0.5c0,0,0,0.1,0.1,0.1
						c0.1,0.2,0.3,0.4,0.4,0.5c0,0,0.1,0.1,0.1,0.1c0.1,0.2,0.3,0.3,0.5,0.5c0,0,0,0,0.1,0.1c0.2,0.2,0.4,0.3,0.6,0.5
						c0.1,0,0.1,0.1,0.2,0.1c0.2,0.2,0.5,0.3,0.7,0.5c0.3,0.2,0.6,0.3,0.9,0.5c0.1,0,0.2,0.1,0.3,0.1c0.2,0.1,0.4,0.2,0.6,0.3
						c0.1,0.1,0.3,0.1,0.4,0.1c0.2,0.1,0.4,0.1,0.6,0.2c0.1,0,0.3,0.1,0.4,0.1c0.2,0.1,0.4,0.1,0.6,0.2c0.2,0,0.3,0.1,0.5,0.1
						c0.2,0,0.4,0.1,0.6,0.1c0.2,0,0.3,0.1,0.5,0.1c0.2,0,0.4,0.1,0.6,0.1c0.2,0,0.3,0,0.5,0.1c0.2,0,0.4,0,0.6,0.1
						c0.2,0,0.3,0,0.5,0c0.1,0,0.3,0,0.4,0c0.1,0,0.1,0,0.2,0c0.1,0,0.2,0,0.2,0c0.3,0,0.6,0,0.9,0c0,0,0.1,0,0.1,0
						c0.3,0,0.7,0,1-0.1c0.1,0,0.2,0,0.2,0c0.1,0,0.2,0,0.3,0c0.2,0,0.3,0,0.5-0.1c0.1,0,0.1,0,0.2,0c0.3-0.1,0.6-0.1,1-0.2
						c0.1,0,0.1,0,0.2-0.1c0.3-0.1,0.5-0.1,0.8-0.2c0.1,0,0.2,0,0.2-0.1c0.3-0.1,0.6-0.2,0.9-0.3c0,0,0.1,0,0.1-0.1
						c0.2-0.1,0.5-0.2,0.7-0.3c0.1,0,0.2-0.1,0.2-0.1c0.3-0.1,0.5-0.3,0.8-0.4c0.2-0.1,0.4-0.3,0.6-0.4c0,0,0.1-0.1,0.1-0.1
						c0.1,0,0.1-0.1,0.2-0.1c0.1-0.1,0.2-0.1,0.3-0.2c0.1-0.1,0.1-0.1,0.2-0.2c0,0,0.1-0.1,0.1-0.1c0,0,0,0,0,0
						c0.1-0.1,0.1-0.1,0.2-0.2c0.1-0.1,0.1-0.1,0.2-0.2c0.1-0.1,0.1-0.1,0.2-0.2c0,0,0.1-0.1,0.1-0.1c0,0,0.1-0.1,0.1-0.1
						c0,0,0,0,0,0c0,0,0.1-0.1,0.1-0.1c0.1-0.1,0.1-0.2,0.2-0.3c0,0,0,0,0-0.1c0,0,0-0.1,0.1-0.1c0.1-0.1,0.1-0.2,0.2-0.3
						c0,0,0.1-0.1,0.1-0.1c0,0,0-0.1,0.1-0.1c0,0,0,0,0-0.1c0-0.1,0.1-0.1,0.1-0.2c1.2-2.7,2.5-5.4,3.7-8.1
						C159.1-8.7,159-8.5,158.9-8.3z"/>
					<path fill="#D0D6D6" d="M159.7-12.6c0,0.1,0,0.2,0,0.2c0,0.1,0,0.1,0,0.2c0,0.1,0,0.2,0,0.2c0,0.1,0,0.1,0,0.2
						c0,0.1,0,0.1-0.1,0.2c0,0.1,0,0.1-0.1,0.2c0,0.1,0,0.1-0.1,0.2c0,0.1-0.1,0.1-0.1,0.2c0,0.1-0.1,0.2-0.1,0.2
						c0,0.1-0.1,0.1-0.1,0.2c0,0.1-0.1,0.2-0.1,0.2c0,0.1-0.1,0.1-0.1,0.2c-0.1,0.1-0.1,0.2-0.2,0.3c0,0.1-0.1,0.1-0.1,0.2
						c-0.1,0.1-0.1,0.2-0.2,0.3c0,0.1-0.1,0.1-0.1,0.2c-0.1,0.2-0.3,0.3-0.4,0.5c0,0,0,0,0,0c-0.1,0.2-0.3,0.3-0.5,0.5
						c-0.1,0.1-0.1,0.1-0.2,0.2c-0.1,0.1-0.1,0.1-0.2,0.2c-0.1,0.1-0.1,0.1-0.2,0.2c-0.1,0.1-0.2,0.1-0.2,0.2
						c-0.1,0.1-0.2,0.1-0.2,0.2C156.1-7.1,156-7.1,156-7c-0.1,0.1-0.2,0.1-0.3,0.2c-0.1,0.1-0.2,0.1-0.3,0.2
						c-0.2,0.1-0.3,0.2-0.5,0.3v0c-0.3,0.2-0.7,0.4-1.1,0.5c-0.1,0-0.2,0.1-0.3,0.1c-0.4,0.2-0.7,0.3-1.1,0.5c0,0-0.1,0-0.1,0
						c-0.3,0.1-0.6,0.2-0.9,0.3c-0.2,0.1-0.5,0.1-0.8,0.2c-0.2,0.1-0.4,0.1-0.7,0.2c-0.3,0.1-0.5,0.1-0.8,0.2
						c-0.3,0.1-0.5,0.1-0.8,0.1c-0.1,0-0.2,0-0.3,0.1c-0.4,0.1-0.8,0.1-1.2,0.2c0,0-0.1,0-0.1,0c-0.4,0-0.9,0.1-1.3,0.1
						c-0.1,0-0.2,0-0.2,0c-0.2,0-0.5,0-0.7,0c-0.3,0-0.6,0-0.9,0c-0.2,0-0.5,0-0.7,0c-0.3,0-0.5,0-0.8,0c-0.2,0-0.5,0-0.7-0.1
						c-0.3,0-0.5-0.1-0.8-0.1c-0.2,0-0.4-0.1-0.7-0.1c-0.3,0-0.6-0.1-0.8-0.1c-0.4-0.1-0.7-0.1-1.1-0.2c0,0,0,0,0,0
						c-0.4-0.1-0.8-0.2-1.1-0.3c-0.1,0-0.2-0.1-0.3-0.1c-0.4-0.1-0.8-0.3-1.2-0.4c-0.3-0.1-0.6-0.2-0.8-0.4
						c-0.1-0.1-0.3-0.1-0.4-0.2c-0.4-0.2-0.8-0.4-1.2-0.6c-3-1.8-4.4-4-4.4-6.3l0,1.7c0,2.3,1.5,4.6,4.4,6.3
						c0.4,0.2,0.8,0.4,1.2,0.6c0.1,0.1,0.3,0.1,0.4,0.2c0.3,0.1,0.5,0.3,0.8,0.4c0,0,0,0,0,0c0.4,0.1,0.8,0.3,1.2,0.4
						c0.1,0,0.2,0.1,0.3,0.1c0.1,0,0.3,0.1,0.4,0.1c0.2,0.1,0.5,0.1,0.8,0.2c0,0,0,0,0,0c0.3,0.1,0.6,0.1,0.8,0.2c0.1,0,0.2,0,0.3,0
						c0.3,0.1,0.6,0.1,0.8,0.1c0.1,0,0.3,0.1,0.4,0.1c0.1,0,0.2,0,0.2,0c0.3,0,0.5,0.1,0.8,0.1c0.2,0,0.3,0,0.5,0.1
						c0.1,0,0.1,0,0.2,0c0.3,0,0.5,0,0.8,0c0.2,0,0.3,0,0.5,0c0.1,0,0.1,0,0.2,0c0.3,0,0.6,0,0.9,0c0.2,0,0.3,0,0.5,0
						c0.1,0,0.1,0,0.2,0c0.1,0,0.2,0,0.2,0c0.4,0,0.9-0.1,1.3-0.1c0,0,0,0,0,0c0,0,0.1,0,0.1,0c0.4,0,0.8-0.1,1.2-0.2
						c0.1,0,0.2,0,0.3-0.1c0.1,0,0.2,0,0.3,0c0.2,0,0.3-0.1,0.4-0.1c0.3-0.1,0.5-0.1,0.8-0.2c0.2-0.1,0.4-0.1,0.7-0.2
						c0.3-0.1,0.5-0.1,0.8-0.2c0.1,0,0.2-0.1,0.3-0.1c0.2-0.1,0.4-0.2,0.7-0.2c0,0,0.1,0,0.1,0c0.4-0.1,0.8-0.3,1.1-0.5
						c0.1,0,0.2-0.1,0.3-0.1c0.4-0.2,0.7-0.3,1.1-0.5c0.1-0.1,0.2-0.1,0.4-0.2c0,0,0.1,0,0.1-0.1c0.1-0.1,0.2-0.1,0.3-0.2
						c0.1-0.1,0.2-0.1,0.3-0.2c0.1-0.1,0.2-0.1,0.3-0.2c0.1-0.1,0.2-0.1,0.2-0.2c0.1-0.1,0.2-0.1,0.2-0.2c0.1-0.1,0.2-0.1,0.2-0.2
						c0.1-0.1,0.2-0.1,0.2-0.2c0,0,0.1-0.1,0.1-0.1c0,0,0,0,0,0c0.2-0.2,0.3-0.3,0.5-0.5c0,0,0,0,0,0c0.1-0.1,0.3-0.3,0.4-0.5
						c0,0,0,0,0-0.1c0,0,0.1-0.1,0.1-0.1c0.1-0.1,0.1-0.2,0.2-0.3c0-0.1,0.1-0.1,0.1-0.2c0.1-0.1,0.1-0.2,0.2-0.3c0,0,0-0.1,0.1-0.1
						c0,0,0-0.1,0-0.1c0-0.1,0.1-0.2,0.1-0.2c0-0.1,0.1-0.1,0.1-0.2c0-0.1,0.1-0.2,0.1-0.2c0,0,0-0.1,0.1-0.1c0,0,0-0.1,0-0.1
						c0-0.1,0-0.1,0.1-0.2c0-0.1,0-0.1,0.1-0.2c0-0.1,0-0.1,0.1-0.2c0,0,0-0.1,0-0.1c0,0,0-0.1,0-0.1c0-0.1,0-0.2,0-0.2
						c0-0.1,0-0.1,0-0.2c0-0.1,0-0.2,0-0.2c0,0,0-0.1,0-0.1c0,0,0-0.1,0-0.1l0-1.7C159.7-12.8,159.7-12.7,159.7-12.6z"/>
					<path fill="#E6EDEF" d="M155.3-19.2c-6-3.6-15.9-3.7-22.1-0.2c-6.2,3.5-6.3,9.2-0.3,12.8c6,3.6,15.9,3.7,22.1,0.2
						C161.1-9.9,161.3-15.6,155.3-19.2z"/>
				</g>
			</g>
			<linearGradient id="SVGID_38_" gradientUnits="userSpaceOnUse" x1="155.7479" y1="59.6726" x2="168.1746" y2="37.6018">
				<stop  offset="0" style="stop-color:#A0A8AD"/>
				<stop  offset="8.136715e-03" style="stop-color:#9FA7AC"/>
				<stop  offset="0.1531" style="stop-color:#8E979C"/>
				<stop  offset="0.2619" style="stop-color:#889197"/>
				<stop  offset="0.3969" style="stop-color:#AAB3B7"/>
				<stop  offset="0.5507" style="stop-color:#CBD2D6"/>
				<stop  offset="0.6795" style="stop-color:#DFE6E8"/>
				<stop  offset="0.7667" style="stop-color:#E6EDEF"/>
			</linearGradient>
			<path fill="url(#SVGID_38_)" d="M157.3,30.1c-0.2-0.1-0.4-0.2-0.5-0.3c-0.1,0-0.1,0-0.2-0.1c-0.2-0.1-0.3-0.1-0.5-0.1
				c0,0-0.1,0-0.1,0c-0.2,0-0.4-0.1-0.6-0.1c-0.1,0-0.1,0-0.2,0c-0.2,0-0.4,0-0.5,0c0,0-0.1,0-0.1,0c-0.2,0-0.5,0.1-0.7,0.1
				c-0.1,0-0.1,0-0.2,0c-0.1,0-0.2,0-0.3,0.1c-0.1,0-0.1,0-0.2,0.1c-0.2,0.1-0.4,0.1-0.7,0.2c-0.1,0-0.2,0.1-0.3,0.1
				c-0.3,0.1-0.7,0.3-1,0.5c-0.3,0.2-0.5,0.3-0.8,0.5c-0.1,0.1-0.2,0.1-0.2,0.2c-0.2,0.1-0.4,0.3-0.6,0.4c-0.1,0.1-0.1,0.1-0.2,0.2
				c-0.2,0.2-0.5,0.4-0.7,0.6c0,0,0,0,0,0c0,0-0.1,0.1-0.1,0.1c-0.2,0.2-0.4,0.4-0.6,0.6c-0.1,0.1-0.2,0.2-0.2,0.3
				c-0.2,0.2-0.3,0.3-0.5,0.5c-0.1,0.1-0.2,0.2-0.2,0.3c-0.1,0.2-0.3,0.4-0.4,0.6c-0.1,0.1-0.1,0.2-0.2,0.3
				c-0.2,0.2-0.4,0.5-0.5,0.7c0,0-0.1,0.1-0.1,0.1c-0.2,0.3-0.4,0.6-0.6,0.9c-0.1,0.1-0.1,0.2-0.2,0.3c-0.1,0.2-0.2,0.4-0.4,0.7
				c-0.1,0.1-0.1,0.2-0.2,0.3c-0.1,0.2-0.2,0.4-0.3,0.6c-0.1,0.1-0.1,0.2-0.2,0.3c-0.1,0.2-0.2,0.5-0.3,0.7c0,0.1-0.1,0.2-0.1,0.3
				c-0.1,0.3-0.2,0.7-0.3,1c0,0.1,0,0.1-0.1,0.2c-0.1,0.3-0.1,0.5-0.2,0.8c0,0.1,0,0.2-0.1,0.3c0,0.2-0.1,0.4-0.1,0.7
				c0,0.1,0,0.2-0.1,0.3c0,0.2-0.1,0.4-0.1,0.7c0,0.1,0,0.2,0,0.3c0,0.3,0,0.6,0,1c0,2,0.5,3.6,1.5,4.6c0.3,0.3,0.7,0.6,1,0.9
				l29,16.9c-1.5-0.9-2.5-2.8-2.5-5.5c0-0.3,0-0.6,0-1c0-0.1,0-0.2,0-0.3c0-0.2,0-0.4,0.1-0.7c0-0.1,0-0.2,0.1-0.3
				c0-0.2,0.1-0.4,0.1-0.7c0-0.1,0-0.2,0.1-0.3c0.1-0.3,0.1-0.5,0.2-0.8c0-0.1,0-0.1,0.1-0.2c0.1-0.3,0.2-0.7,0.3-1
				c0-0.1,0.1-0.2,0.1-0.3c0.1-0.2,0.2-0.5,0.3-0.7c0-0.1,0.1-0.2,0.2-0.3c0.1-0.2,0.2-0.4,0.3-0.6c0.1-0.1,0.1-0.2,0.2-0.3
				c0.1-0.2,0.2-0.4,0.4-0.7c0.1-0.1,0.1-0.2,0.2-0.3c0.2-0.3,0.4-0.6,0.6-0.9c0,0,0.1-0.1,0.1-0.1c0.2-0.3,0.3-0.5,0.5-0.7
				c0.1-0.1,0.1-0.2,0.2-0.3c0.1-0.2,0.3-0.4,0.4-0.6c0.1-0.1,0.2-0.2,0.2-0.3c0.2-0.2,0.3-0.4,0.5-0.5c0.1-0.1,0.2-0.2,0.2-0.3
				c0.2-0.2,0.4-0.4,0.6-0.6c0,0,0.1-0.1,0.1-0.1c0.2-0.2,0.5-0.4,0.7-0.6c0.1-0.1,0.1-0.1,0.2-0.2c0.2-0.2,0.4-0.3,0.6-0.4
				c0.1-0.1,0.1-0.1,0.2-0.2c0.3-0.2,0.5-0.3,0.8-0.5c0.3-0.2,0.7-0.4,1-0.5c0.1,0,0.2-0.1,0.3-0.1c0.2-0.1,0.4-0.2,0.7-0.2
				c0.2-0.1,0.3-0.1,0.5-0.1c0.1,0,0.1,0,0.2,0c0.2,0,0.5-0.1,0.7-0.1c0,0,0.1,0,0.1,0c0.2,0,0.4,0,0.5,0c0.1,0,0.1,0,0.2,0
				c0.2,0,0.4,0,0.6,0.1c0,0,0.1,0,0.1,0c0.2,0,0.3,0.1,0.5,0.1c0.1,0,0.1,0,0.2,0.1c0.2,0.1,0.4,0.2,0.5,0.3L157.3,30.1z"/>
			<path fill="#F5F8F9" d="M153.3,29.8c-0.7,0.2-1.4,0.5-2.1,0.9c-0.9,0.5-1.7,1.1-2.5,1.9l29,16.9c0.8-0.7,1.6-1.4,2.5-1.9
				c0.7-0.4,1.4-0.7,2.1-0.9L153.3,29.8z"/>
			<path fill="#D0D6D6" d="M180.2,47.5c-4.7,2.7-8.6,9.4-8.5,14.8c0,5.4,3.9,7.6,8.6,4.9c4.7-2.7,8.6-9.4,8.5-14.8
				C188.8,47,184.9,44.8,180.2,47.5z"/>
			<path fill="#212121" d="M180.2,49c-4,2.3-7.3,8-7.3,12.6c0,4.6,3.3,6.5,7.3,4.2c4-2.3,7.3-8,7.3-12.6
				C187.5,48.6,184.2,46.7,180.2,49z"/>
			<g>
				<path opacity="0.1" fill="#D0D6D6" d="M179.9,51.9c-2.6,1.5-4.7,5.1-4.7,8.1c0,3,2.1,4.2,4.7,2.7c2.6-1.5,4.7-5.1,4.7-8.1
					C184.6,51.6,182.5,50.4,179.9,51.9z"/>
				<path opacity="0.1" fill="#D0D6D6" d="M180.1,54.3c-1.4,0.8-2.5,2.8-2.5,4.4c0,1.6,1.1,2.3,2.5,1.5c1.4-0.8,2.5-2.8,2.5-4.4
					C182.7,54.1,181.5,53.5,180.1,54.3z"/>
				<path opacity="0.2" fill="#D0D6D6" d="M179.7,55.3c-0.5,0.3-0.9,1-0.9,1.6c0,0.6,0.4,0.8,0.9,0.5c0.5-0.3,0.9-1,0.9-1.6
					C180.7,55.3,180.3,55,179.7,55.3z"/>
			</g>
			<path opacity="0.5" fill="#BF2121" d="M179.5,50.9c0,0.2-0.1,0.6-0.4,0.7s-0.4,0.1-0.5-0.1s0.1-0.6,0.4-0.7
				S179.5,50.7,179.5,50.9z M183.9,49.2c-0.2-0.1-0.4,0.1-0.6,0.4c-0.1,0.3-0.1,0.6,0.1,0.6c0.2,0.1,0.4-0.1,0.6-0.4
				C184.1,49.6,184,49.3,183.9,49.2z M186.4,52.5c0-0.2-0.2-0.3-0.5-0.1c-0.2,0.2-0.4,0.5-0.4,0.7c0,0.2,0.2,0.3,0.5,0.1
				C186.3,53.1,186.4,52.8,186.4,52.5z M185.2,58.7c0.1-0.3,0.1-0.6-0.1-0.6c-0.2-0.1-0.4,0.1-0.6,0.4c-0.1,0.3-0.1,0.6,0.1,0.6
				C184.8,59.1,185,59,185.2,58.7z M180.9,64.1c0.2-0.2,0.4-0.5,0.4-0.7c0-0.2-0.2-0.3-0.5-0.1c-0.2,0.2-0.4,0.5-0.4,0.7
				S180.6,64.3,180.9,64.1z M176,65.6c0.2,0.1,0.4-0.1,0.6-0.4c0.1-0.3,0.1-0.6-0.1-0.6c-0.2-0.1-0.4,0.1-0.6,0.4
				C175.8,65.3,175.8,65.6,176,65.6z M173.4,62.3c0,0.2,0.2,0.3,0.5,0.1c0.2-0.2,0.4-0.5,0.4-0.7c0-0.2-0.2-0.3-0.5-0.1
				C173.6,61.8,173.4,62.1,173.4,62.3z M174.7,56.2c-0.1,0.3-0.1,0.6,0.1,0.6c0.2,0.1,0.4-0.1,0.6-0.4c0.1-0.3,0.1-0.6-0.1-0.6
				C175.1,55.7,174.8,55.9,174.7,56.2z"/>
			<linearGradient id="SVGID_39_" gradientUnits="userSpaceOnUse" x1="184.653" y1="47.6911" x2="174.5651" y2="69.5653">
				<stop  offset="0" style="stop-color:#99F0FF"/>
				<stop  offset="8.782250e-02" style="stop-color:#91E3F1"/>
				<stop  offset="0.7177" style="stop-color:#58868D"/>
				<stop  offset="1" style="stop-color:#416166"/>
			</linearGradient>
			<path opacity="0.3" fill="url(#SVGID_39_)" d="M173,62.4c0-0.2,0-0.5,0-0.8c0-1,0.2-2.1,0.4-3.1c3.5-3.5,7-7,10.5-10.4
				c0.9,0.1,1.7,0.5,2.3,1.1L173,62.4z M176.4,66.7L187.1,56c0.2-1,0.4-1.9,0.4-2.8c0-0.9-0.1-1.7-0.4-2.3l-13.6,13.6
				C174.1,65.8,175.1,66.6,176.4,66.7z"/>
		</g>
	</g>
</g>
<g>
	<g>
		<defs>
			
				<ellipse id="SVGID_40_" transform="matrix(0.9125 -0.4091 0.4091 0.9125 -7.941 102.2807)" cx="235.1" cy="69.7" rx="33.7" ry="33.7"/>
		</defs>
		<use xlink:href="#SVGID_40_"  overflow="visible" opacity="0.2" fill="#4242DC"/>
		<clipPath id="SVGID_41_">
			<use xlink:href="#SVGID_40_"  overflow="visible" opacity="0.2"/>
		</clipPath>
		<g id="_x32__1_" clip-path="url(#SVGID_41_)">
			<g>
				<g>
					<g>
						<g>
							<g>
								<radialGradient id="SVGID_42_" cx="242.546" cy="87.032" r="19.9523" gradientUnits="userSpaceOnUse">
									<stop  offset="0" style="stop-color:#404B4E"/>
									<stop  offset="0.5048" style="stop-color:#333536"/>
									<stop  offset="1" style="stop-color:#202121"/>
								</radialGradient>
								<path fill="url(#SVGID_42_)" d="M244.8,67.7c-0.3-0.2-0.5-0.3-0.8-0.5c0,0-0.1,0-0.1,0c0,0,0,0-0.1,0c0,0,0,0,0,0
									c0,0-0.1,0-0.1,0c0,0,0,0-0.1,0c0,0,0,0-0.1,0c0,0,0,0-0.1,0c0,0,0,0-0.1,0c0,0-0.1,0-0.1,0c0,0-0.1,0-0.1-0.1
									c0,0-0.1,0-0.1-0.1c-0.1,0-0.1,0-0.2-0.1c0,0-0.1,0-0.1-0.1c0,0,0,0-0.1,0c-0.1,0-0.1,0-0.2-0.1c0,0-0.1,0-0.1-0.1
									c0,0-0.1,0-0.1,0c0,0,0,0,0,0c0,0,0,0,0,0c0,0,0,0,0,0c0,0,0,0,0,0c0,0,0,0-0.1,0c0,0-0.1,0-0.1,0c-0.1,0-0.1,0-0.2-0.1
									c0,0-0.1,0-0.1,0c0,0,0,0,0,0c0,0,0,0,0,0c0,0-0.1,0-0.1,0c-0.1,0-0.1,0-0.2-0.1c-0.1,0-0.1,0-0.2-0.1c0,0,0,0-0.1,0
									c0,0-0.1,0-0.1,0c-0.1,0-0.2,0-0.2-0.1c0,0,0,0,0,0c-0.1,0-0.1,0-0.2-0.1c0,0,0,0,0,0c0,0,0,0,0,0c0,0-0.1,0-0.1,0
									c0,0-0.1,0-0.1,0c0,0,0,0,0,0l0,0h0c0,0,0,0,0,0c0,0,0,0-0.1,0c-0.1,0-0.1,0-0.2,0c-0.1,0-0.1,0-0.2,0c-0.1,0-0.1,0-0.2,0
									c-0.1,0-0.1,0-0.2,0c-0.1,0-0.1,0-0.2,0c0,0,0,0-0.1,0c0,0,0,0-0.1,0c0,0-0.1,0-0.1,0c-0.1,0-0.1,0-0.2,0c0,0,0,0-0.1,0
									c-0.1,0-0.1,0-0.2,0c0,0,0,0,0,0c0,0-0.1,0-0.1,0c-0.1,0-0.2,0-0.2,0c0,0-0.1,0-0.1,0c0,0,0,0,0,0c0,0,0,0,0,0c0,0,0,0,0,0
									c0,0,0,0-0.1,0c-0.1,0-0.2,0-0.2,0c0,0-0.1,0-0.1,0c0,0-0.1,0-0.1,0c-0.1,0-0.2,0-0.2,0c-0.1,0-0.1,0-0.2,0c0,0,0,0-0.1,0
									c0,0,0,0,0,0c0,0,0,0,0,0c0,0-0.1,0-0.1,0c0,0,0,0-0.1,0c0,0-0.1,0-0.1,0c-0.1,0-0.2,0-0.2,0c0,0,0,0,0,0
									c-0.1,0-0.1,0-0.2,0c-0.1,0-0.2,0-0.4,0c0,0-0.1,0-0.1,0c0,0-0.1,0-0.1,0c0,0-0.1,0-0.1,0c0,0-0.1,0-0.1,0c0,0,0,0,0,0
									c-0.1,0-0.1,0-0.2,0c-0.1,0-0.1,0-0.2,0c-0.1,0-0.3,0-0.4,0c-0.1,0-0.2,0-0.3,0c0,0,0,0,0,0c0,0-0.1,0-0.1,0
									c0,0-0.1,0-0.1,0c0,0-0.1,0-0.1,0c0,0,0,0,0,0c0,0,0,0,0,0h0c-0.1,0-0.1,0-0.2,0c-0.1,0-0.2,0-0.3,0c-0.1,0-0.3,0-0.4,0
									c-0.1,0-0.3,0-0.4,0c-0.1,0-0.1,0-0.2,0c0,0-0.1,0-0.1,0c0,0,0,0,0,0c0,0,0,0,0,0c-0.1,0-0.2,0-0.3,0c-0.1,0-0.1,0-0.2,0
									c-0.4,0-0.8,0.1-1.1,0.1c0,0,0,0,0,0c0,0,0,0,0,0c0,0,0,0,0,0c0,0,0,0,0,0c0,0,0,0,0,0c-0.1,0-0.1,0-0.2,0
									c-0.3,0-0.6,0.1-0.9,0.1c-0.1,0-0.2,0-0.3,0c-0.1,0-0.2,0-0.3,0c-0.1,0-0.2,0-0.3,0.1c0,0,0,0,0,0c-0.2,0-0.5,0.1-0.7,0.1
									c-0.2,0-0.3,0.1-0.5,0.1c-0.3,0.1-0.6,0.1-0.8,0.2c-0.2,0-0.3,0.1-0.5,0.1c-0.1,0-0.2,0-0.3,0.1c0,0,0,0,0.1,0
									c-1.2,0.4-2.4,0.9-3.4,1.4c-0.3,0.1-0.5,0.3-0.7,0.4c0,0,0,0,0,0c0,0,0,0-0.1,0.1c-0.3,0.2-0.6,0.4-0.9,0.6c0,0,0,0-0.1,0
									c-0.3,0.2-0.5,0.4-0.8,0.6c0,0,0,0,0,0c0,0,0,0,0,0c0,0,0,0,0,0c0,0,0,0,0,0c-0.2,0.2-0.3,0.3-0.4,0.5c0,0-0.1,0.1-0.1,0.1
									c0,0,0,0,0,0c0,0,0,0.1-0.1,0.1c-0.1,0.1-0.2,0.2-0.2,0.3c0,0,0,0,0,0c0,0,0,0,0,0c0,0,0,0,0,0.1c0,0,0,0.1-0.1,0.1
									c0,0.1-0.1,0.1-0.1,0.2c0,0-0.1,0.1-0.1,0.1c0,0,0,0,0,0c0,0,0,0,0,0.1c0,0-0.1,0.1-0.1,0.1c0,0,0,0.1-0.1,0.1c0,0,0,0,0,0
									c0,0.1-0.1,0.1-0.1,0.2c0,0,0,0,0,0c0,0,0,0,0,0c0,0.1-0.1,0.1-0.1,0.2c0,0,0,0,0,0c0,0,0,0,0,0c0,0,0,0,0,0
									c0,0,0,0.1,0,0.1c0,0,0,0.1-0.1,0.1c0,0,0,0.1,0,0.1c0,0,0,0.1-0.1,0.1l0,0c0,0,0,0,0,0c0,0,0,0,0,0c0,0,0,0.1,0,0.1
									c0,0,0,0.1,0,0.1c0,0,0,0,0,0c0,0.1,0,0.1,0,0.2c0,0,0,0,0,0c0,0,0,0,0,0c0,0,0,0.1,0,0.1c0,0,0,0.1,0,0.1c0,0,0,0,0,0
									c0,0,0,0.1,0,0.1c0,0,0,0,0,0c0,0,0,0,0,0c0,0,0,0,0,0c0,0,0,0,0,0c0,0,0,0,0,0.1c0,0,0,0,0,0.1c0,0,0,0,0,0
									c0,0,0,0.1,0,0.1c0,0,0,0.1,0,0.1c0,0,0,0.1,0,0.1c0,0,0,0,0,0c0,0,0,0,0,0c0,0.1,0,0.3,0,0.4c0,0,0-0.1,0-0.1
									c0,0,0,0.1,0,0.1c0,0,0,0.1,0,0.1c0,0,0,0,0,0l0,0.2c0-0.1,0-0.1,0-0.2c0,0,0,0,0,0c0,0.7,0,1.1,0.1,1.5c0,0,0,0,0,0l0,0.1
									c0,0,0,0,0,0c0,0.1,0,0.2,0,0.2c0,0.2,0,0.3,0.1,0.5c0,0,0,0.1,0,0.1c0,0,0,0,0,0c0,0,0,0,0,0c0,0.1,0,0.2,0,0.3l0,0
									c0.1,0.3,0.1,0.7,0.2,1c0,0.1,0,0.2,0.1,0.2c0,0.1,0,0.2,0.1,0.3c0.1,0.3,0.2,0.8,0.4,1.1c0,0.1,0.1,0.2,0.1,0.3
									c0,0,0,0.1,0,0.1l0-0.1c0,0.1,0,0.1,0.1,0.2c0,0,0,0.1,0.1,0.2c0,0.1,0.1,0.2,0.1,0.3c1.2,2.9,3.3,5.1,5.6,6.6c0,0,0,0,0,0
									c0,0,0.1,0.1,0.1,0.1c0.1,0.1,0.2,0.1,0.3,0.2c0,0-0.1,0-0.1-0.1c0,0,0.1,0.1,0.1,0.1c0,0,0,0,0,0c0,0,0,0,0,0c0,0,0,0,0,0
									c0.2,0.1,0.4,0.2,0.6,0.4c1.3,0.7,2.7,1.2,4.1,1.5c0.2,0,0.3,0.1,0.5,0.1c0.2,0,0.4,0.1,0.6,0.1c0.2,0,0.4,0,0.6,0.1
									c0.2,0,0.4,0,0.5,0c0.2,0,0.3,0,0.5,0c0.2,0,0.5,0,0.7,0c0.1,0,0.2,0,0.3,0c0.3,0,0.6,0,0.8,0c0,0,0,0,0,0c0,0,0.1,0,0.1,0
									c0.2,0,0.4,0,0.6-0.1c0.2,0,0.4-0.1,0.6-0.1c0.1,0,0.3,0,0.4-0.1c0.1,0,0.2,0,0.2,0c0,0,0.1,0,0.1,0l0,0c0,0,0,0,0,0
									c0.3-0.1,0.5-0.1,0.8-0.2c0,0,0,0,0,0c0,0,0,0,0,0c0,0,0.1,0,0.1,0c0,0,0,0,0,0c0.6-0.2,1.2-0.4,1.7-0.6
									c0.1-0.1,0.3-0.1,0.4-0.2c0.1-0.1,0.2-0.1,0.4-0.2c0.2-0.1,0.5-0.2,0.7-0.4c0,0,0,0,0,0c0,0,0,0,0,0c0.1,0,0.2-0.1,0.3-0.1
									c0.1,0,0.2-0.1,0.2-0.1c0.1-0.1,0.2-0.1,0.3-0.2l0,0c0,0,0,0,0,0c0.1-0.1,0.2-0.1,0.2-0.2c0,0,0,0,0,0l0,0c0,0,0,0,0,0
									c0.2-0.1,0.3-0.2,0.4-0.3c0.1-0.1,0.1-0.1,0.2-0.2c0,0,0,0,0,0c0,0,0.1-0.1,0.1-0.1c0,0,0,0,0,0c0,0,0,0,0,0c0,0,0,0,0,0
									c0.2-0.1,0.3-0.3,0.5-0.4c0.2-0.2,0.4-0.3,0.5-0.5c0.1-0.1,0.2-0.2,0.2-0.2c0.7-0.7,1.4-1.5,2.1-2.5c0,0,0,0,0,0
									c0,0,0.1-0.1,0.1-0.1c0,0,0,0,0-0.1c0.1-0.1,0.2-0.2,0.2-0.4c0,0,0-0.1,0-0.1c0-0.1,0.1-0.1,0.1-0.2
									c0.2-0.4,0.3-0.6,0.5-0.9c0,0,0-0.1,0-0.1l0,0c0,0,0,0,0-0.1c0,0,0-0.1,0.1-0.1c0,0,0-0.1,0.1-0.1c0.1-0.1,0.1-0.2,0.2-0.3
									c0-0.1,0.1-0.1,0.1-0.2c0-0.1,0.1-0.1,0.1-0.2c0,0,0-0.1,0-0.1c0,0,0,0,0-0.1c0,0,0-0.1,0-0.1c0,0,0,0,0,0
									c0-0.1,0.1-0.1,0.1-0.2c0,0,0-0.1,0-0.1c0,0,0-0.1,0-0.1c0,0,0-0.1,0-0.1c0,0,0-0.1,0-0.1c0,0,0-0.1,0-0.1c0,0,0,0,0,0v0
									c0,0,0-0.1,0-0.1c0.1-0.2,0.1-0.4,0.2-0.7c0-0.1,0-0.2,0.1-0.2c0-0.1,0-0.2,0.1-0.2l0,0l0,0c0-0.2,0.1-0.3,0.1-0.5
									c0-0.1,0.1-0.3,0.1-0.4c0,0,0,0,0-0.1l0-0.1l0,0c0,0,0,0,0,0c0,0,0,0,0,0c0-0.2,0.1-0.5,0.1-0.7c0-0.1,0-0.2,0-0.2
									c0-0.3,0-0.7,0-1.1c0,0,0,0,0,0c0,0,0-0.1,0-0.1c0,0,0,0,0,0C249.1,71.6,247.7,69.4,244.8,67.7z"/>
								<path fill="#333435" d="M248.4,78.4c0,0,0,0.1,0,0.1l0,0L248.4,78.4z"/>
							</g>
							<path fill="#545658" d="M244.8,67.7c-5.9-3.6-15.7-3.7-21.9-0.2c-6.2,3.4-6.4,9.1-0.5,12.7c5.9,3.6,15.7,3.7,21.9,0.2
								C250.5,76.9,250.7,71.2,244.8,67.7z"/>
						</g>
						<g>
							<path fill="#D0D6D6" d="M250,71.1c0.1,2.5-1.6,5.1-5,7c-0.4,0.2-0.9,0.5-1.3,0.7c-0.2,0.1-0.3,0.1-0.5,0.2
								c-0.3,0.1-0.6,0.3-0.9,0.4c-0.1,0-0.3,0.1-0.4,0.1c-0.4,0.1-0.8,0.3-1.2,0.4c-0.2,0.1-0.4,0.1-0.6,0.1
								c-0.4,0.1-0.7,0.2-1.1,0.2c-0.2,0-0.4,0.1-0.6,0.1c-0.4,0.1-0.7,0.1-1.1,0.2c-0.2,0-0.4,0.1-0.6,0.1c-0.4,0-0.9,0.1-1.3,0.1
								c-0.1,0-0.3,0-0.4,0c-0.6,0-1.2,0-1.7,0c-0.1,0-0.3,0-0.4,0c-0.4,0-0.9,0-1.3-0.1c-0.2,0-0.4,0-0.6-0.1
								c-0.4,0-0.8-0.1-1.1-0.1c-0.2,0-0.4-0.1-0.6-0.1c-0.4-0.1-0.7-0.1-1.1-0.2c-0.2,0-0.4-0.1-0.6-0.1c-0.3-0.1-0.6-0.1-0.9-0.2
								c-0.2-0.1-0.4-0.1-0.6-0.2c-0.3-0.1-0.6-0.2-0.9-0.3c-0.2-0.1-0.4-0.1-0.6-0.2c-0.3-0.1-0.6-0.3-0.9-0.4
								c-0.2-0.1-0.3-0.1-0.5-0.2c-0.4-0.2-0.9-0.4-1.3-0.7c-3.1-1.9-4.6-4.3-4.6-6.7c0,0.7,0,1.4-0.1,2.2c-0.1,2.4,1.5,4.8,4.6,6.7
								c0.4,0.2,0.8,0.5,1.3,0.7c0.1,0.1,0.3,0.1,0.5,0.2c0.3,0.1,0.6,0.3,0.9,0.4c0.2,0.1,0.4,0.1,0.6,0.2c0.3,0.1,0.6,0.2,0.9,0.3
								c0.2,0.1,0.4,0.1,0.6,0.2c0.3,0.1,0.6,0.2,0.9,0.2c0.1,0,0.1,0,0.2,0.1c0.1,0,0.3,0,0.4,0.1c0.4,0.1,0.7,0.1,1.1,0.2
								c0.2,0,0.4,0.1,0.6,0.1c0.4,0.1,0.7,0.1,1.1,0.1c0.2,0,0.4,0,0.6,0.1c0.4,0,0.9,0.1,1.3,0.1c0.1,0,0.3,0,0.4,0
								c0.6,0,1.2,0,1.7,0c0.1,0,0.3,0,0.4,0c0.4,0,0.9-0.1,1.3-0.1c0.2,0,0.4-0.1,0.6-0.1c0.4-0.1,0.7-0.1,1.1-0.2
								c0.2,0,0.4-0.1,0.6-0.1c0.4-0.1,0.7-0.2,1.1-0.2c0.2,0,0.4-0.1,0.6-0.1c0.4-0.1,0.8-0.2,1.2-0.4c0.1,0,0.2-0.1,0.3-0.1
								c0,0,0,0,0.1,0c0.3-0.1,0.6-0.2,0.9-0.4c0.2-0.1,0.3-0.1,0.5-0.2c0.5-0.2,0.9-0.4,1.3-0.7c3.4-1.9,5.1-4.5,5.1-7
								C250,72.6,250,71.9,250,71.1z"/>
							<path opacity="0.5" fill="#A8AEAF" d="M250,71.1c0.1,2.5-1.6,5.1-5,7c-0.4,0.2-0.9,0.5-1.3,0.7c-0.2,0.1-0.3,0.1-0.5,0.2
								c-0.3,0.1-0.6,0.3-0.9,0.4c-0.1,0-0.3,0.1-0.4,0.1c-0.4,0.1-0.8,0.3-1.2,0.4c-0.2,0.1-0.4,0.1-0.6,0.1
								c-0.4,0.1-0.7,0.2-1.1,0.2c-0.2,0-0.4,0.1-0.6,0.1c-0.4,0.1-0.7,0.1-1.1,0.2c-0.2,0-0.4,0.1-0.6,0.1c-0.4,0-0.9,0.1-1.3,0.1
								c-0.1,0-0.3,0-0.4,0c-0.6,0-1.2,0-1.7,0c-0.1,0-0.3,0-0.4,0c-0.4,0-0.9,0-1.3-0.1c-0.2,0-0.4,0-0.6-0.1
								c-0.4,0-0.8-0.1-1.1-0.1c-0.2,0-0.4-0.1-0.6-0.1c-0.4-0.1-0.7-0.1-1.1-0.2c-0.2,0-0.4-0.1-0.6-0.1c-0.3-0.1-0.6-0.1-0.9-0.2
								c-0.2-0.1-0.4-0.1-0.6-0.2c-0.3-0.1-0.6-0.2-0.9-0.3c-0.2-0.1-0.4-0.1-0.6-0.2c-0.3-0.1-0.6-0.3-0.9-0.4
								c-0.2-0.1-0.3-0.1-0.5-0.2c-0.4-0.2-0.9-0.4-1.3-0.7c-3.1-1.9-4.6-4.3-4.6-6.7c0,0.7,0,1.4-0.1,2.2c-0.1,2.4,1.5,4.8,4.6,6.7
								c0.4,0.2,0.8,0.5,1.3,0.7c0.1,0.1,0.3,0.1,0.5,0.2c0.3,0.1,0.6,0.3,0.9,0.4c0.2,0.1,0.4,0.1,0.6,0.2c0.3,0.1,0.6,0.2,0.9,0.3
								c0.2,0.1,0.4,0.1,0.6,0.2c0.3,0.1,0.6,0.2,0.9,0.2c0.1,0,0.1,0,0.2,0.1c0.1,0,0.3,0,0.4,0.1c0.4,0.1,0.7,0.1,1.1,0.2
								c0.2,0,0.4,0.1,0.6,0.1c0.4,0.1,0.7,0.1,1.1,0.1c0.2,0,0.4,0,0.6,0.1c0.4,0,0.9,0.1,1.3,0.1c0.1,0,0.3,0,0.4,0
								c0.6,0,1.2,0,1.7,0c0.1,0,0.3,0,0.4,0c0.4,0,0.9-0.1,1.3-0.1c0.2,0,0.4-0.1,0.6-0.1c0.4-0.1,0.7-0.1,1.1-0.2
								c0.2,0,0.4-0.1,0.6-0.1c0.4-0.1,0.7-0.2,1.1-0.2c0.2,0,0.4-0.1,0.6-0.1c0.4-0.1,0.8-0.2,1.2-0.4c0.1,0,0.2-0.1,0.3-0.1
								c0,0,0,0,0.1,0c0.3-0.1,0.6-0.2,0.9-0.4c0.2-0.1,0.3-0.1,0.5-0.2c0.5-0.2,0.9-0.4,1.3-0.7c3.4-1.9,5.1-4.5,5.1-7
								C250,72.6,250,71.9,250,71.1z"/>
							<path fill="#D0D6D6" d="M250,71c0-0.1,0-0.2,0-0.2c0-0.1,0-0.2,0-0.4c0-0.1,0-0.1,0-0.2c0-0.1-0.1-0.3-0.1-0.4
								c0-0.1,0-0.1,0-0.2c-0.1-0.2-0.1-0.4-0.2-0.6c-1.4-3.3-2.7-6.5-4.1-9.8c0.1,0.1,0.1,0.3,0.2,0.4c0,0,0,0.1,0,0.1
								c0,0.1,0.1,0.2,0.1,0.3c0,0.1,0,0.1,0,0.2c0,0.1,0,0.2,0,0.3c0,0.1,0,0.1,0,0.2c0,0.1,0,0.2,0,0.3c0,0.1,0,0.1,0,0.2
								c0,0.1,0,0.2,0,0.3c0,0.1,0,0.1,0,0.2c0,0.1,0,0.2-0.1,0.3c0,0.1,0,0.1,0,0.2c0,0.1-0.1,0.2-0.1,0.3c0,0,0,0.1,0,0.1
								c-0.1,0.1-0.1,0.3-0.2,0.4c0,0,0,0.1-0.1,0.1c-0.1,0.1-0.1,0.2-0.2,0.3c0,0.1-0.1,0.1-0.1,0.2c-0.1,0.1-0.1,0.2-0.2,0.3
								c0,0.1-0.1,0.1-0.1,0.2c-0.1,0.1-0.1,0.2-0.2,0.2c0,0.1-0.1,0.1-0.1,0.2c-0.1,0.1-0.1,0.2-0.2,0.2c-0.1,0.1-0.1,0.1-0.2,0.2
								c-0.1,0.1-0.2,0.2-0.3,0.2c-0.1,0-0.1,0.1-0.2,0.1c-0.1,0.1-0.2,0.2-0.3,0.3c0,0-0.1,0.1-0.1,0.1c-0.1,0.1-0.2,0.2-0.4,0.2
								c-0.1,0-0.1,0.1-0.2,0.1c-0.2,0.1-0.4,0.2-0.6,0.3c-0.4,0.2-0.8,0.4-1.2,0.6c-0.1,0-0.2,0.1-0.4,0.1c-0.3,0.1-0.7,0.3-1,0.4
								c-0.1,0-0.2,0.1-0.3,0.1c-0.4,0.1-0.9,0.2-1.3,0.3c-0.1,0-0.2,0-0.3,0.1c-0.4,0.1-0.8,0.1-1.1,0.2c-0.2,0-0.3,0-0.5,0.1
								c-0.1,0-0.2,0-0.4,0c-0.3,0-0.5,0-0.8,0.1c-0.1,0-0.2,0-0.3,0c-0.4,0-0.7,0-1.1,0c0,0-0.1,0-0.1,0c-0.3,0-0.6,0-0.9,0
								c-0.1,0-0.2,0-0.3,0c-0.2,0-0.5,0-0.7-0.1c-0.1,0-0.2,0-0.4,0c-0.3,0-0.5-0.1-0.8-0.1c-0.1,0-0.2,0-0.3,0
								c-0.3-0.1-0.7-0.1-1-0.2c-0.1,0-0.1,0-0.2,0c-0.3-0.1-0.6-0.1-0.8-0.2c-0.1,0-0.2-0.1-0.3-0.1c-0.2-0.1-0.4-0.1-0.6-0.2
								c-0.1,0-0.2-0.1-0.3-0.1c-0.2-0.1-0.4-0.2-0.6-0.3c-0.1,0-0.2-0.1-0.2-0.1c-0.3-0.1-0.6-0.3-0.9-0.5c-1.9-1.1-3-2.5-3.3-3.9
								c-0.1-0.3-0.1-0.6-0.1-0.9c0-0.6,0.1-1.2,0.3-1.7l0,0l-4,9.8c-1.3,3,0.1,6.4,4.1,8.8c0.3,0.2,0.7,0.4,1,0.6c0,0,0.1,0,0.1,0
								c0.1,0.1,0.2,0.1,0.3,0.2c0.3,0.1,0.6,0.3,0.9,0.4c0.1,0.1,0.3,0.1,0.4,0.2c0.3,0.1,0.6,0.2,0.9,0.3c0.1,0,0.3,0.1,0.4,0.1
								c0.4,0.1,0.7,0.2,1.1,0.3c0.1,0,0.1,0,0.2,0.1c0.4,0.1,0.9,0.2,1.4,0.3c0.1,0,0.3,0,0.4,0.1c0.3,0.1,0.7,0.1,1,0.2
								c0.2,0,0.3,0,0.5,0.1c0.3,0,0.7,0.1,1,0.1c0.2,0,0.3,0,0.5,0c0.1,0,0.1,0,0.2,0c0.3,0,0.7,0,1,0c0.1,0,0.1,0,0.2,0
								c0.5,0,1,0,1.4,0c0.1,0,0.3,0,0.4,0c0.3,0,0.7,0,1-0.1c0.2,0,0.3,0,0.5-0.1c0.1,0,0.3,0,0.4,0c0.2,0,0.5-0.1,0.7-0.1
								c0.1,0,0.2,0,0.3,0c0.4-0.1,0.9-0.2,1.3-0.3c0.1,0,0.2,0,0.3-0.1c0.4-0.1,0.7-0.2,1.1-0.3c0.1,0,0.2-0.1,0.3-0.1
								c0.4-0.1,0.8-0.3,1.2-0.4c0.1,0,0.1-0.1,0.2-0.1c0.3-0.1,0.7-0.3,1-0.4c0.1,0,0.2-0.1,0.3-0.1c0.4-0.2,0.8-0.4,1.1-0.6
								c0.3-0.1,0.5-0.3,0.8-0.5c0.1-0.1,0.2-0.1,0.2-0.2c0.2-0.1,0.3-0.2,0.5-0.3c0,0,0,0,0,0c0.1,0,0.1-0.1,0.2-0.1
								c0.2-0.1,0.3-0.2,0.5-0.4c0.1-0.1,0.1-0.1,0.2-0.2c0.1-0.1,0.2-0.2,0.3-0.3c0.1-0.1,0.1-0.1,0.2-0.2c0.1-0.1,0.2-0.2,0.3-0.3
								c0.1-0.1,0.1-0.1,0.2-0.2c0.1-0.1,0.2-0.2,0.3-0.3c0.1-0.1,0.1-0.1,0.2-0.2c0.1-0.1,0.2-0.2,0.2-0.3c0-0.1,0.1-0.1,0.1-0.2
								c0.1-0.1,0.1-0.3,0.2-0.4c0-0.1,0.1-0.1,0.1-0.2c0.1-0.2,0.2-0.4,0.2-0.6c0,0,0-0.1,0-0.1c0.1-0.2,0.1-0.3,0.1-0.5
								c0-0.1,0-0.1,0-0.2c0-0.1,0.1-0.2,0.1-0.4c0-0.1,0-0.2,0-0.2c0-0.1,0-0.2,0-0.3c0-0.1,0-0.2,0-0.2C250,71.2,250,71.1,250,71z
								"/>
							<path fill="#E6EDEF" d="M242.4,56.1c-4.7-2.8-12.4-2.9-17.2-0.2c-4.9,2.7-5,7.2-0.4,10c2.3,1.4,5.4,2.1,8.5,2.2
								c3.1,0,6.3-0.6,8.7-2C246.9,63.4,247.1,58.9,242.4,56.1z"/>
						</g>
					</g>
					<path fill="#8E98A0" d="M240.6,70.7v0.7c-2.1,0.8-4.5,1.3-7,1.3c-0.1,0-0.1,0-0.2,0c-2.7,0-5.2-0.6-7.3-1.5v-0.7
						c2.1,1,4.6,1.5,7.4,1.6C236,72,238.5,71.6,240.6,70.7z M233.3,74.2c-2.7,0-5.3-0.6-7.4-1.6v0.7c2.1,0.9,4.6,1.5,7.3,1.5
						c0.1,0,0.1,0,0.2,0c2.5,0,4.9-0.4,7-1.3v-0.7C238.5,73.7,236,74.2,233.3,74.2z M233.3,69.9c-2.7,0-5.3-0.6-7.4-1.6V69
						c2.1,0.9,4.6,1.5,7.3,1.5c0.1,0,0.1,0,0.2,0c2.5,0,5-0.4,7-1.3v-0.7C238.5,69.4,236,69.9,233.3,69.9z M233.3,76.3
						c-2.7,0-5.3-0.6-7.4-1.6v0.7c2.1,0.9,4.6,1.5,7.3,1.5c0.1,0,0.1,0,0.2,0c2.5,0,5-0.4,7-1.3V75C238.5,75.9,236,76.3,233.3,76.3z
						 M233.3,78.5c-2.7,0-5.3-0.6-7.4-1.6v0.7c2.1,0.9,4.6,1.5,7.3,1.5c0.1,0,0.1,0,0.2,0c2.5,0,5-0.4,7-1.3v-0.7
						C238.5,78,236,78.5,233.3,78.5z"/>
					<path fill="#A8AEAF" d="M238.7,58.1c-2.7-1.6-7.2-1.7-10-0.1c-2.8,1.6-2.9,4.2-0.2,5.8c1.4,0.8,3.2,1.2,5,1.3
						c1.8,0,3.6-0.4,5.1-1.2C241.3,62.4,241.4,59.8,238.7,58.1z"/>
				</g>
				<g>
					<path fill="#E6EDEF" d="M255.1,32.2c-0.6-0.4-1.2-0.4-1.6-0.2l-0.9,0.5c0.4-0.2,1-0.2,1.6,0.2l6.7,3.9l0.9-0.5L255.1,32.2z"/>
					<path fill="#D0D6D6" d="M261.8,36l-0.9,0.5c1.3,0.7,2.3,2.5,2.3,3.9l-0.1,19.2c0,0.5-0.1,1-0.4,1.2c-0.1,0.1-0.2,0.2-0.3,0.2h0
						l0.9-0.5c0.4-0.2,0.7-0.7,0.7-1.5l0.1-19.2C264,38.5,263,36.7,261.8,36z"/>
					<path fill="#A8AEAF" d="M260.9,36.5l-6.7-3.9c-1.3-0.7-2.3-0.1-2.3,1.3l-0.1,19.2c0,1.4,1,3.2,2.3,3.9l6.7,3.9
						c1.3,0.7,2.3,0.1,2.3-1.3l0.1-19.2C263.1,39,262.1,37.3,260.9,36.5z"/>
				</g>
				<path fill="#E6EDEF" d="M237.8,58.6c-2.2-1.4-6-1.4-8.3-0.1c-2.3,1.3-2.4,3.5-0.2,4.8c1.1,0.7,2.6,1,4.1,1c1.5,0,3-0.3,4.2-1
					C240,62.1,240.1,60,237.8,58.6z"/>
				<path opacity="0.5" fill="#A8AEAF" d="M253.5,56.6c0.2,0.2,0.4,0.4,0.7,0.5l2.6,1.5l2.8-10.7l-3.4-1.7L253.5,56.6z"/>
				<g>
					<polygon fill="#53595E" points="237.6,60.6 233.1,58 233,56.9 237.6,59.5 					"/>
				</g>
				<g>
					<polygon fill="#E6EDEF" points="237.6,59.5 233,56.9 255,44.2 259.6,46.8 					"/>
				</g>
				<polygon opacity="0.5" fill="#A8AEAF" points="256.2,42.2 238.4,53.7 238.8,58 258.9,46.5 259.6,43.9 				"/>
				<g>
					<polygon fill="#D0D6D6" points="259.6,46.8 259.6,47.9 237.6,60.6 237.6,59.5 					"/>
				</g>
				<g>
					<polygon fill="#A8AEAF" points="233.4,63.7 228.8,61.1 235.6,49.4 240.1,52 					"/>
					<polygon fill="#E6EDEF" points="240.1,52 235.6,49.4 255,38.2 259.6,40.8 					"/>
					<polygon fill="#D0D6D6" points="259.6,40.8 259.6,43.9 241.2,54.5 237.2,61.5 233.4,63.7 240.1,52 					"/>
				</g>
				<path opacity="0.4" fill="#E6EDEF" d="M261.8,36l-0.9,0.5c1.1,0.7,2.1,2.2,2.2,3.5l0.9-0.5C263.8,38.2,262.9,36.7,261.8,36z"/>
			</g>
			<g opacity="0.3">
				<path fill="#1E1E1E" d="M246,82.1c0,1.3-1.7,3.4-3.9,4.6c-2.1,1.2-3.9,1.2-3.9-0.2c0-1.3,1.7-3.4,3.9-4.6
					C244.3,80.7,246,80.8,246,82.1z"/>
				<path fill="#869CA3" d="M244.7,83.2c0,0.9-1.1,2.3-2.6,3.1c-1.4,0.8-2.6,0.8-2.6-0.1s1.1-2.3,2.6-3.1
					C243.6,82.3,244.7,82.4,244.7,83.2z"/>
			</g>
			<path opacity="0.3" fill="#C7E0E5" d="M243.1,83.5c0,0.3-0.4,0.8-0.9,1c-0.5,0.3-0.9,0.3-0.9,0c0-0.3,0.4-0.8,0.9-1
				C242.8,83.2,243.1,83.2,243.1,83.5z"/>
			<path opacity="0.3" fill="#C7E0E5" d="M242.4,85.5c-0.2,0.1-0.4,0.3-0.4,0.5c0,0.1,0.2,0.1,0.4,0c0.2-0.1,0.4-0.3,0.4-0.5
				C242.8,85.4,242.6,85.4,242.4,85.5z"/>
		</g>
	</g>
</g>
</svg>
