<svg xmlns="http://www.w3.org/2000/svg" xmlns:xlink="http://www.w3.org/1999/xlink" viewBox="0 0 25.278 23.333"><defs><style>.a{fill:#fbef47;}.b{clip-path:url(#a);}</style><clipPath id="a"><rect class="a" width="25.278" height="23.333"/></clipPath></defs><g class="b"><path class="a" d="M2.917,0A2.925,2.925,0,0,0,0,2.917V21.389H9.722V19.444H1.944V5.833H23.333V19.444H15.556v1.944h9.722V2.917A2.925,2.925,0,0,0,22.361,0Zm0,1.944h.972V3.889H1.944V2.917a.975.975,0,0,1,.972-.972Zm2.917,0H7.778V3.889H5.833Zm3.889,0H22.361a.975.975,0,0,1,.972.972v.972H9.722Zm2.917,8.75L7.778,15.556h3.889v7.778h1.944V15.556H17.5Zm0,0"/></g></svg>